<?xml version="1.0" encoding="utf-8"?>
<!-- Generator: Adobe Illustrator 16.0.3, SVG Export Plug-In . SVG Version: 6.00 Build 0)  -->
<!DOCTYPE svg PUBLIC "-//W3C//DTD SVG 1.1//EN" "http://www.w3.org/Graphics/SVG/1.1/DTD/svg11.dtd">
<svg version="1.1" id="Layer_1" xmlns="http://www.w3.org/2000/svg" xmlns:xlink="http://www.w3.org/1999/xlink" x="0px" y="0px"
	 width="288px" height="288px" viewBox="0 0 288 288" enable-background="new 0 0 288 288" xml:space="preserve">
<path d="M194.059,39.718v84.685h-0.553c-7.742-21.17-29.194-32.333-51.218-32.333c-44.911,0-66.382,36.334-66.382,78.111
	c0,41.758,21.471,78.101,66.382,78.101c21.451,0,44.911-13.165,52.634-32.327h0.582v28.03h16.59V39.718H194.059z M142.288,233.108
	c-34.347,0-48.356-32.327-48.356-62.927c0-30.614,14.01-62.951,48.356-62.951c38.343,0,51.771,32.337,51.771,62.951
	C194.059,200.781,180.631,233.108,142.288,233.108z"/>
</svg>
