<?xml version="1.0" encoding="utf-8"?>
<!-- Generator: Adobe Illustrator 16.0.3, SVG Export Plug-In . SVG Version: 6.00 Build 0)  -->
<!DOCTYPE svg PUBLIC "-//W3C//DTD SVG 1.1//EN" "http://www.w3.org/Graphics/SVG/1.1/DTD/svg11.dtd">
<svg version="1.1" id="Layer_1" xmlns="http://www.w3.org/2000/svg" xmlns:xlink="http://www.w3.org/1999/xlink" x="0px" y="0px"
	 width="288px" height="288px" viewBox="0 0 288 288" enable-background="new 0 0 288 288" xml:space="preserve">
<path d="M126.12,136.846l24.021-5.433c12.32-3.144,30.619-8.868,30.619-24.886c0-19.171-18.881-25.473-34.889-25.473
	c-20.615,0-37.789,10.018-38.652,32.337H89.214c1.145-32.046,24.613-47.496,54.078-47.496c26.02,0,55.484,11.448,55.484,41.485
	c0,25.177-17.734,33.18-41.193,39.476l-23.168,5.152c-16.318,4.008-32.328,9.73-32.328,26.895c0,20.596,23.461,28.027,40.332,28.027
	c24.041,0,42.066-12.572,43.484-36.896h18.035c-2.861,36.043-26.33,52.07-60.646,52.07c-27.467,0-59.23-12.301-59.23-44.348
	C84.062,152.009,105.532,139.988,126.12,136.846z"/>
</svg>
