<?xml version="1.0" encoding="utf-8"?>
<!-- Generator: Adobe Illustrator 16.0.3, SVG Export Plug-In . SVG Version: 6.00 Build 0)  -->
<!DOCTYPE svg PUBLIC "-//W3C//DTD SVG 1.1//EN" "http://www.w3.org/Graphics/SVG/1.1/DTD/svg11.dtd">
<svg version="1.1" id="Layer_1" xmlns="http://www.w3.org/2000/svg" xmlns:xlink="http://www.w3.org/1999/xlink" x="0px" y="0px"
	 width="288px" height="288px" viewBox="0 0 288 288" enable-background="new 0 0 288 288" xml:space="preserve">
<path d="M192.073,68.33h-0.582c-7.141-16.309-25.459-29.756-46.928-29.756c-42.611,0-66.652,33.758-66.652,74.384
	c0,42.048,19.461,75.812,66.652,75.812c21.178,0,38.613-12.293,46.928-30.328h0.582v20.043c0,36.033-14.33,55.777-47.51,55.777
	c-20.016,0-39.197-7.713-43.193-29.465H83.353c2.572,31.473,31.766,44.629,61.211,44.629c48.363,0,65.225-26.895,65.525-70.941
	V42.867h-18.016V68.33z M144.563,173.605c-33.172,0-48.637-28.883-48.637-58.647c0-30.605,14.32-61.225,48.637-61.225
	c34.043,0,47.51,32.337,47.51,61.225C192.073,144.994,175.745,173.605,144.563,173.605z"/>
</svg>
