<?xml version="1.0" encoding="utf-8"?>
<!-- Generator: Adobe Illustrator 16.0.3, SVG Export Plug-In . SVG Version: 6.00 Build 0)  -->
<!DOCTYPE svg PUBLIC "-//W3C//DTD SVG 1.1//EN" "http://www.w3.org/Graphics/SVG/1.1/DTD/svg11.dtd">
<svg version="1.1" id="Layer_1" xmlns="http://www.w3.org/2000/svg" xmlns:xlink="http://www.w3.org/1999/xlink" x="0px" y="0px"
	 width="288px" height="288px" viewBox="0 0 288 288" enable-background="new 0 0 288 288" xml:space="preserve">
<path d="M139.571,206.931c34.627,0,51.77-31.453,51.77-62.925c0-31.478-17.143-62.951-51.77-62.951
	c-23.469,0-36.906,13.452-41.768,35.485H79.788c3.996-33.768,28.291-50.645,59.783-50.645c45.191,0,69.805,35.757,69.805,78.11
	c0,42.339-24.613,78.099-69.805,78.099c-32.898,0-56.078-21.742-60.947-57.221h18.035
	C98.931,189.487,117.237,206.931,139.571,206.931z"/>
<path d="M139.571,206.93c34.627,0,51.77-31.453,51.77-62.925c0-31.477-17.143-62.95-51.77-62.95
	c-23.469,0-36.906,13.452-41.768,35.485H79.789c3.996-33.768,28.29-50.645,59.782-50.645c45.191,0,69.804,35.757,69.804,78.109
	c0,42.339-24.612,78.099-69.804,78.099c-32.898,0-56.077-21.742-60.946-57.221h18.034C98.931,189.486,117.237,206.93,139.571,206.93
	z"/>
</svg>
