<?xml version="1.0" encoding="utf-8"?>
<!-- Generator: Adobe Illustrator 16.0.3, SVG Export Plug-In . SVG Version: 6.00 Build 0)  -->
<!DOCTYPE svg PUBLIC "-//W3C//DTD SVG 1.1//EN" "http://www.w3.org/Graphics/SVG/1.1/DTD/svg11.dtd">
<svg version="1.1" id="Layer_1" xmlns="http://www.w3.org/2000/svg" xmlns:xlink="http://www.w3.org/1999/xlink" x="0px" y="0px"
	 width="288px" height="288px" viewBox="0 0 288 288" enable-background="new 0 0 288 288" xml:space="preserve">
<path d="M75.906,39.718v204.268h16.59v-28.03h0.582c7.723,19.162,31.183,32.327,52.634,32.327c44.911,0,66.382-36.343,66.382-78.101
	c0-41.776-21.471-78.111-66.382-78.111c-22.023,0-43.476,11.162-51.218,32.333h-0.553V39.718H75.906z M93.941,170.181
	c0-30.614,13.428-62.951,51.771-62.951c34.347,0,48.356,32.337,48.356,62.951c0,30.6-14.01,62.927-48.356,62.927
	C107.369,233.108,93.941,200.781,93.941,170.181z"/>
</svg>
