<?xml version="1.0" encoding="utf-8"?>
<!-- Generator: Adobe Illustrator 16.0.3, SVG Export Plug-In . SVG Version: 6.00 Build 0)  -->
<!DOCTYPE svg PUBLIC "-//W3C//DTD SVG 1.1//EN" "http://www.w3.org/Graphics/SVG/1.1/DTD/svg11.dtd">
<svg version="1.1" id="Layer_1" xmlns="http://www.w3.org/2000/svg" xmlns:xlink="http://www.w3.org/1999/xlink" x="0px" y="0px"
	 width="288px" height="288px" viewBox="0 0 288 288" enable-background="new 0 0 288 288" xml:space="preserve">
<path d="M64.604,197.787c-0.855,12.865-0.568,36.906-8.578,48.346h44.911c5.439-12.875,4.867-32.609,7.156-48.928
	c3.143-21.452,11.443-30.89,34.039-30.89h44.92v79.818h44.921V41.868H121.826c-36.619,0-59.798,25.463-59.798,56.358
	c0,24.033,9.731,42.063,32.333,51.208v0.582C72.328,155.73,66.041,177.19,64.604,197.787z M106.949,105.096
	c0-19.744,10.875-28.326,30.9-28.326h49.203v57.504H137.85C117.824,134.274,106.949,125.693,106.949,105.096z"/>
</svg>
