solid OpenSCAD_Model
  facet normal -0.931456 0.363855 0
    outer loop
      vertex 0.916 2.566 5
      vertex 1.975 5.277 5
      vertex 0.916 2.566 -5
    endloop
  endfacet
  facet normal -0.931456 0.363855 0
    outer loop
      vertex 0.916 2.566 -5
      vertex 1.975 5.277 5
      vertex 1.975 5.277 -5
    endloop
  endfacet
  facet normal -0.932317 0.361642 0
    outer loop
      vertex 0.243 0.831 5
      vertex 0.916 2.566 5
      vertex 0.243 0.831 -5
    endloop
  endfacet
  facet normal -0.932317 0.361642 0
    outer loop
      vertex 0.243 0.831 -5
      vertex 0.916 2.566 5
      vertex 0.916 2.566 -5
    endloop
  endfacet
  facet normal 0 0 -1
    outer loop
      vertex 0.243 0.831 -5
      vertex 0.916 2.566 -5
      vertex 0.001 0.19 -5
    endloop
  endfacet
  facet normal 0 0 -1
    outer loop
      vertex 0.001 0.19 -5
      vertex 0.916 2.566 -5
      vertex 1.975 5.277 -5
    endloop
  endfacet
  facet normal 0 0 -1
    outer loop
      vertex 0.001 0.19 -5
      vertex 1.975 5.277 -5
      vertex 3.371 8.844 -5
    endloop
  endfacet
  facet normal 0 0 -1
    outer loop
      vertex 0.001 0.19 -5
      vertex 3.371 8.844 -5
      vertex 5.055 13.148 -5
    endloop
  endfacet
  facet normal 0 0 -1
    outer loop
      vertex 0.001 0.19 -5
      vertex 5.055 13.148 -5
      vertex 6.983 18.07 -5
    endloop
  endfacet
  facet normal 0 0 -1
    outer loop
      vertex 0.001 0.19 -5
      vertex 6.983 18.07 -5
      vertex 9.105 23.49 -5
    endloop
  endfacet
  facet normal 0 0 -1
    outer loop
      vertex 0.001 0.19 -5
      vertex 9.105 23.49 -5
      vertex 11.376 29.287 -5
    endloop
  endfacet
  facet normal 0 0 -1
    outer loop
      vertex 0.001 0.19 -5
      vertex 11.376 29.287 -5
      vertex 22.665 58.102 -5
    endloop
  endfacet
  facet normal 0 0 -1
    outer loop
      vertex 0.001 0.19 -5
      vertex 22.665 58.102 -5
      vertex 25.881 58.046 -5
    endloop
  endfacet
  facet normal 0 0 -1
    outer loop
      vertex 0.001 0.19 -5
      vertex 25.881 58.046 -5
      vertex 29.071 57.962 -5
    endloop
  endfacet
  facet normal 0 0 -1
    outer loop
      vertex 31.864 37.133 -5
      vertex 29.071 57.962 -5
      vertex 40.754 29.034 -5
    endloop
  endfacet
  facet normal 0 0 -1
    outer loop
      vertex 37.425 22.965 -5
      vertex 40.754 29.034 -5
      vertex 43.104 23.22 -5
    endloop
  endfacet
  facet normal 0 0 -1
    outer loop
      vertex 39.259 17.886 -5
      vertex 43.104 23.22 -5
      vertex 45.295 17.793 -5
    endloop
  endfacet
  facet normal 0 0 -1
    outer loop
      vertex 42.703 8.996 -5
      vertex 47.279 12.875 -5
      vertex 49.009 8.58 -5
    endloop
  endfacet
  facet normal 0 0 -1
    outer loop
      vertex 39.259 17.886 -5
      vertex 47.279 12.875 -5
      vertex 42.703 8.996 -5
    endloop
  endfacet
  facet normal 0 0 -1
    outer loop
      vertex 46.174 0.106 -5
      vertex 52.2 0.631 -5
      vertex 52.439 0.021 -5
    endloop
  endfacet
  facet normal 0 0 -1
    outer loop
      vertex 49.306 0.021 -5
      vertex 52.439 0.021 -5
      vertex 52.19 0.006 -5
    endloop
  endfacet
  facet normal 0 0 -1
    outer loop
      vertex 50.522 0.006 -5
      vertex 52.19 0.006 -5
      vertex 51.517 0 -5
    endloop
  endfacet
  facet normal 0 0 -1
    outer loop
      vertex 42.703 8.996 -5
      vertex 50.438 5.028 -5
      vertex 51.517 2.34 -5
    endloop
  endfacet
  facet normal 0 0 -1
    outer loop
      vertex 46.174 0.106 -5
      vertex 52.439 0.021 -5
      vertex 49.306 0.021 -5
    endloop
  endfacet
  facet normal 0 0 -1
    outer loop
      vertex 42.703 8.996 -5
      vertex 49.009 8.58 -5
      vertex 50.438 5.028 -5
    endloop
  endfacet
  facet normal 0 0 -1
    outer loop
      vertex 39.259 17.886 -5
      vertex 45.295 17.793 -5
      vertex 47.279 12.875 -5
    endloop
  endfacet
  facet normal 0 0 -1
    outer loop
      vertex 26.249 17.97 -5
      vertex 43.104 23.22 -5
      vertex 39.259 17.886 -5
    endloop
  endfacet
  facet normal 0 0 -1
    outer loop
      vertex 25.676 50.376 -5
      vertex 0.001 0.19 -5
      vertex 26.022 51.182 -5
    endloop
  endfacet
  facet normal 0 0 -1
    outer loop
      vertex 37.425 22.965 -5
      vertex 26.249 17.97 -5
      vertex 26.389 22.881 -5
    endloop
  endfacet
  facet normal 0 0 -1
    outer loop
      vertex 0.001 0.19 -5
      vertex 13.266 18.026 -5
      vertex 11.093 12.467 -5
    endloop
  endfacet
  facet normal 0 0 -1
    outer loop
      vertex 0.001 0.19 -5
      vertex 11.093 12.467 -5
      vertex 10.133 10.029 -5
    endloop
  endfacet
  facet normal 0 0 -1
    outer loop
      vertex 0.001 0.19 -5
      vertex 10.133 10.029 -5
      vertex 9.149 7.525 -5
    endloop
  endfacet
  facet normal 0 0 -1
    outer loop
      vertex 7.565 3.492 -5
      vertex 0.001 0.19 -5
      vertex 8.254 5.249 -5
    endloop
  endfacet
  facet normal 0 0 -1
    outer loop
      vertex 13.266 18.026 -5
      vertex 26.389 22.881 -5
      vertex 26.249 17.97 -5
    endloop
  endfacet
  facet normal 0 0 -1
    outer loop
      vertex 6.211 0.106 -5
      vertex 0.001 0.19 -5
      vertex 7.565 3.492 -5
    endloop
  endfacet
  facet normal 0 0 -1
    outer loop
      vertex 26.389 22.881 -5
      vertex 13.266 18.026 -5
      vertex 22.116 22.866 -5
    endloop
  endfacet
  facet normal 0 0 -1
    outer loop
      vertex 0.001 0.19 -5
      vertex 6.211 0.106 -5
      vertex 3.05 0.021 -5
    endloop
  endfacet
  facet normal 0 0 -1
    outer loop
      vertex 0.001 0.19 -5
      vertex 3.05 0.021 -5
      vertex 1.802 0.017 -5
    endloop
  endfacet
  facet normal 0 0 -1
    outer loop
      vertex 0.001 0.19 -5
      vertex 1.802 0.017 -5
      vertex 0.827 0.043 -5
    endloop
  endfacet
  facet normal 0 0 -1
    outer loop
      vertex 0.001 0.19 -5
      vertex 0.827 0.043 -5
      vertex 0.198 0.101 -5
    endloop
  endfacet
  facet normal 0 0 -1
    outer loop
      vertex 13.266 18.026 -5
      vertex 15.298 22.909 -5
      vertex 16.204 22.877 -5
    endloop
  endfacet
  facet normal 0 0 -1
    outer loop
      vertex 13.266 18.026 -5
      vertex 16.204 22.877 -5
      vertex 18.599 22.863 -5
    endloop
  endfacet
  facet normal 0 0 -1
    outer loop
      vertex 13.266 18.026 -5
      vertex 18.599 22.863 -5
      vertex 22.116 22.866 -5
    endloop
  endfacet
  facet normal 0 0 -1
    outer loop
      vertex 8.254 5.249 -5
      vertex 0.001 0.19 -5
      vertex 9.149 7.525 -5
    endloop
  endfacet
  facet normal 0 0 -1
    outer loop
      vertex 31.864 37.133 -5
      vertex 40.754 29.034 -5
      vertex 37.425 22.965 -5
    endloop
  endfacet
  facet normal 0 0 -1
    outer loop
      vertex 26.249 17.97 -5
      vertex 37.425 22.965 -5
      vertex 43.104 23.22 -5
    endloop
  endfacet
  facet normal 0 0 -1
    outer loop
      vertex 30.747 39.981 -5
      vertex 29.071 57.962 -5
      vertex 31.864 37.133 -5
    endloop
  endfacet
  facet normal 0 0 -1
    outer loop
      vertex 26.307 51.122 -5
      vertex 29.071 57.962 -5
      vertex 26.661 50.267 -5
    endloop
  endfacet
  facet normal 0 0 -1
    outer loop
      vertex 29.7 42.643 -5
      vertex 29.071 57.962 -5
      vertex 30.747 39.981 -5
    endloop
  endfacet
  facet normal 0 0 -1
    outer loop
      vertex 28.743 45.062 -5
      vertex 29.071 57.962 -5
      vertex 29.7 42.643 -5
    endloop
  endfacet
  facet normal 0 0 -1
    outer loop
      vertex 27.903 47.177 -5
      vertex 29.071 57.962 -5
      vertex 28.743 45.062 -5
    endloop
  endfacet
  facet normal 0 0 -1
    outer loop
      vertex 27.2 48.931 -5
      vertex 29.071 57.962 -5
      vertex 27.903 47.177 -5
    endloop
  endfacet
  facet normal 0 0 -1
    outer loop
      vertex 26.661 50.267 -5
      vertex 29.071 57.962 -5
      vertex 27.2 48.931 -5
    endloop
  endfacet
  facet normal 0 0 -1
    outer loop
      vertex 26.163 51.442 -5
      vertex 29.071 57.962 -5
      vertex 26.307 51.122 -5
    endloop
  endfacet
  facet normal 0 0 -1
    outer loop
      vertex 26.022 51.182 -5
      vertex 29.071 57.962 -5
      vertex 26.163 51.442 -5
    endloop
  endfacet
  facet normal 0 0 -1
    outer loop
      vertex 0.001 0.19 -5
      vertex 29.071 57.962 -5
      vertex 26.022 51.182 -5
    endloop
  endfacet
  facet normal 0 0 -1
    outer loop
      vertex 24.463 47.358 -5
      vertex 0.001 0.19 -5
      vertex 25.148 49.082 -5
    endloop
  endfacet
  facet normal 0 0 -1
    outer loop
      vertex 0.001 0.19 -5
      vertex 25.676 50.376 -5
      vertex 25.148 49.082 -5
    endloop
  endfacet
  facet normal 0 0 -1
    outer loop
      vertex 20.604 37.302 -5
      vertex 13.266 18.026 -5
      vertex 21.69 40.174 -5
    endloop
  endfacet
  facet normal 0 0 -1
    outer loop
      vertex 0.001 0.19 -5
      vertex 24.463 47.358 -5
      vertex 23.643 45.259 -5
    endloop
  endfacet
  facet normal 0 0 -1
    outer loop
      vertex 0.001 0.19 -5
      vertex 23.643 45.259 -5
      vertex 22.71 42.846 -5
    endloop
  endfacet
  facet normal 0 0 -1
    outer loop
      vertex 0.001 0.19 -5
      vertex 22.71 42.846 -5
      vertex 21.69 40.174 -5
    endloop
  endfacet
  facet normal 0 0 -1
    outer loop
      vertex 0.001 0.19 -5
      vertex 21.69 40.174 -5
      vertex 13.266 18.026 -5
    endloop
  endfacet
  facet normal 0 0 -1
    outer loop
      vertex 19.523 34.425 -5
      vertex 13.266 18.026 -5
      vertex 20.604 37.302 -5
    endloop
  endfacet
  facet normal 0 0 -1
    outer loop
      vertex 18.517 31.736 -5
      vertex 13.266 18.026 -5
      vertex 19.523 34.425 -5
    endloop
  endfacet
  facet normal 0 0 -1
    outer loop
      vertex 15.685 24.063 -5
      vertex 13.266 18.026 -5
      vertex 16.17 25.4 -5
    endloop
  endfacet
  facet normal 0 0 -1
    outer loop
      vertex 18.517 31.736 -5
      vertex 17.607 29.296 -5
      vertex 13.266 18.026 -5
    endloop
  endfacet
  facet normal 0 0 -1
    outer loop
      vertex 17.607 29.296 -5
      vertex 16.818 27.164 -5
      vertex 13.266 18.026 -5
    endloop
  endfacet
  facet normal 0 0 -1
    outer loop
      vertex 16.818 27.164 -5
      vertex 16.17 25.4 -5
      vertex 13.266 18.026 -5
    endloop
  endfacet
  facet normal 0 0 -1
    outer loop
      vertex 13.266 18.026 -5
      vertex 15.685 24.063 -5
      vertex 15.387 23.213 -5
    endloop
  endfacet
  facet normal 0 0 -1
    outer loop
      vertex 13.266 18.026 -5
      vertex 15.387 23.213 -5
      vertex 15.298 22.909 -5
    endloop
  endfacet
  facet normal 0 0 -1
    outer loop
      vertex 49.306 0.021 -5
      vertex 52.19 0.006 -5
      vertex 50.522 0.006 -5
    endloop
  endfacet
  facet normal 0 0 -1
    outer loop
      vertex 42.703 8.996 -5
      vertex 51.517 2.34 -5
      vertex 52.2 0.631 -5
    endloop
  endfacet
  facet normal 0 0 -1
    outer loop
      vertex 42.703 8.996 -5
      vertex 52.2 0.631 -5
      vertex 46.174 0.106 -5
    endloop
  endfacet
  facet normal -0.931224 0.364449 0
    outer loop
      vertex 1.975 5.277 5
      vertex 3.371 8.844 5
      vertex 1.975 5.277 -5
    endloop
  endfacet
  facet normal -0.931224 0.364449 0
    outer loop
      vertex 1.975 5.277 -5
      vertex 3.371 8.844 5
      vertex 3.371 8.844 -5
    endloop
  endfacet
  facet normal 0 0 1
    outer loop
      vertex 0.001 0.19 5
      vertex 0.198 0.101 5
      vertex 0.827 0.043 5
    endloop
  endfacet
  facet normal 0 0 1
    outer loop
      vertex 3.05 0.021 5
      vertex 0.001 0.19 5
      vertex 1.802 0.017 5
    endloop
  endfacet
  facet normal 0 0 1
    outer loop
      vertex 1.802 0.017 5
      vertex 0.001 0.19 5
      vertex 0.827 0.043 5
    endloop
  endfacet
  facet normal 0 0 1
    outer loop
      vertex 6.211 0.106 5
      vertex 0.001 0.19 5
      vertex 3.05 0.021 5
    endloop
  endfacet
  facet normal 0 0 1
    outer loop
      vertex 7.565 3.492 5
      vertex 0.001 0.19 5
      vertex 6.211 0.106 5
    endloop
  endfacet
  facet normal 0 0 1
    outer loop
      vertex 8.254 5.249 5
      vertex 0.001 0.19 5
      vertex 7.565 3.492 5
    endloop
  endfacet
  facet normal 0 0 1
    outer loop
      vertex 9.149 7.525 5
      vertex 0.001 0.19 5
      vertex 8.254 5.249 5
    endloop
  endfacet
  facet normal 0 0 1
    outer loop
      vertex 10.133 10.029 5
      vertex 0.001 0.19 5
      vertex 9.149 7.525 5
    endloop
  endfacet
  facet normal 0 0 1
    outer loop
      vertex 11.093 12.467 5
      vertex 0.001 0.19 5
      vertex 10.133 10.029 5
    endloop
  endfacet
  facet normal 0 0 1
    outer loop
      vertex 13.266 18.026 5
      vertex 0.001 0.19 5
      vertex 11.093 12.467 5
    endloop
  endfacet
  facet normal 0 0 1
    outer loop
      vertex 16.17 25.4 5
      vertex 0.001 0.19 5
      vertex 13.266 18.026 5
    endloop
  endfacet
  facet normal 0 0 1
    outer loop
      vertex 43.104 23.22 5
      vertex 13.266 18.026 5
      vertex 26.249 17.97 5
    endloop
  endfacet
  facet normal 0 0 1
    outer loop
      vertex 43.104 23.22 5
      vertex 26.249 17.97 5
      vertex 39.259 17.886 5
    endloop
  endfacet
  facet normal 0 0 1
    outer loop
      vertex 46.174 0.106 5
      vertex 39.259 17.886 5
      vertex 42.703 8.996 5
    endloop
  endfacet
  facet normal 0 0 1
    outer loop
      vertex 49.306 0.021 5
      vertex 39.259 17.886 5
      vertex 46.174 0.106 5
    endloop
  endfacet
  facet normal 0 0 1
    outer loop
      vertex 50.522 0.006 5
      vertex 39.259 17.886 5
      vertex 49.306 0.021 5
    endloop
  endfacet
  facet normal 0 0 1
    outer loop
      vertex 51.517 0 5
      vertex 39.259 17.886 5
      vertex 50.522 0.006 5
    endloop
  endfacet
  facet normal 0 0 1
    outer loop
      vertex 52.19 0.006 5
      vertex 39.259 17.886 5
      vertex 51.517 0 5
    endloop
  endfacet
  facet normal 0 0 1
    outer loop
      vertex 52.439 0.021 5
      vertex 39.259 17.886 5
      vertex 52.19 0.006 5
    endloop
  endfacet
  facet normal 0 0 1
    outer loop
      vertex 52.2 0.631 5
      vertex 39.259 17.886 5
      vertex 52.439 0.021 5
    endloop
  endfacet
  facet normal 0 0 1
    outer loop
      vertex 51.517 2.34 5
      vertex 39.259 17.886 5
      vertex 52.2 0.631 5
    endloop
  endfacet
  facet normal 0 0 1
    outer loop
      vertex 50.438 5.028 5
      vertex 39.259 17.886 5
      vertex 51.517 2.34 5
    endloop
  endfacet
  facet normal 0 0 1
    outer loop
      vertex 49.009 8.58 5
      vertex 39.259 17.886 5
      vertex 50.438 5.028 5
    endloop
  endfacet
  facet normal 0 0 1
    outer loop
      vertex 47.279 12.875 5
      vertex 39.259 17.886 5
      vertex 49.009 8.58 5
    endloop
  endfacet
  facet normal 0 0 1
    outer loop
      vertex 45.295 17.793 5
      vertex 39.259 17.886 5
      vertex 47.279 12.875 5
    endloop
  endfacet
  facet normal 0 0 1
    outer loop
      vertex 43.104 23.22 5
      vertex 39.259 17.886 5
      vertex 45.295 17.793 5
    endloop
  endfacet
  facet normal 0 0 1
    outer loop
      vertex 37.425 22.965 5
      vertex 13.266 18.026 5
      vertex 43.104 23.22 5
    endloop
  endfacet
  facet normal 0 0 1
    outer loop
      vertex 25.881 58.046 5
      vertex 0.001 0.19 5
      vertex 29.071 57.962 5
    endloop
  endfacet
  facet normal 0 0 1
    outer loop
      vertex 22.665 58.102 5
      vertex 0.001 0.19 5
      vertex 25.881 58.046 5
    endloop
  endfacet
  facet normal 0 0 1
    outer loop
      vertex 11.376 29.287 5
      vertex 0.001 0.19 5
      vertex 22.665 58.102 5
    endloop
  endfacet
  facet normal 0 0 1
    outer loop
      vertex 9.105 23.49 5
      vertex 0.001 0.19 5
      vertex 11.376 29.287 5
    endloop
  endfacet
  facet normal 0 0 1
    outer loop
      vertex 6.983 18.07 5
      vertex 0.001 0.19 5
      vertex 9.105 23.49 5
    endloop
  endfacet
  facet normal 0 0 1
    outer loop
      vertex 5.055 13.148 5
      vertex 0.001 0.19 5
      vertex 6.983 18.07 5
    endloop
  endfacet
  facet normal 0 0 1
    outer loop
      vertex 3.371 8.844 5
      vertex 0.001 0.19 5
      vertex 5.055 13.148 5
    endloop
  endfacet
  facet normal 0 0 1
    outer loop
      vertex 1.975 5.277 5
      vertex 0.001 0.19 5
      vertex 3.371 8.844 5
    endloop
  endfacet
  facet normal 0 0 1
    outer loop
      vertex 0.916 2.566 5
      vertex 0.001 0.19 5
      vertex 1.975 5.277 5
    endloop
  endfacet
  facet normal 0 0 1
    outer loop
      vertex 0.243 0.831 5
      vertex 0.001 0.19 5
      vertex 0.916 2.566 5
    endloop
  endfacet
  facet normal 0 0 1
    outer loop
      vertex 15.387 23.213 5
      vertex 13.266 18.026 5
      vertex 15.298 22.909 5
    endloop
  endfacet
  facet normal 0 0 1
    outer loop
      vertex 15.685 24.063 5
      vertex 13.266 18.026 5
      vertex 15.387 23.213 5
    endloop
  endfacet
  facet normal 0 0 1
    outer loop
      vertex 26.022 51.182 5
      vertex 26.163 51.442 5
      vertex 29.071 57.962 5
    endloop
  endfacet
  facet normal 0 0 1
    outer loop
      vertex 16.818 27.164 5
      vertex 0.001 0.19 5
      vertex 16.17 25.4 5
    endloop
  endfacet
  facet normal 0 0 1
    outer loop
      vertex 31.864 37.133 5
      vertex 37.425 22.965 5
      vertex 40.754 29.034 5
    endloop
  endfacet
  facet normal 0 0 1
    outer loop
      vertex 17.607 29.296 5
      vertex 0.001 0.19 5
      vertex 16.818 27.164 5
    endloop
  endfacet
  facet normal 0 0 1
    outer loop
      vertex 18.517 31.736 5
      vertex 0.001 0.19 5
      vertex 17.607 29.296 5
    endloop
  endfacet
  facet normal 0 0 1
    outer loop
      vertex 19.523 34.425 5
      vertex 0.001 0.19 5
      vertex 18.517 31.736 5
    endloop
  endfacet
  facet normal 0 0 1
    outer loop
      vertex 20.604 37.302 5
      vertex 0.001 0.19 5
      vertex 19.523 34.425 5
    endloop
  endfacet
  facet normal 0 0 1
    outer loop
      vertex 21.69 40.174 5
      vertex 0.001 0.19 5
      vertex 20.604 37.302 5
    endloop
  endfacet
  facet normal 0 0 1
    outer loop
      vertex 22.71 42.846 5
      vertex 0.001 0.19 5
      vertex 21.69 40.174 5
    endloop
  endfacet
  facet normal 0 0 1
    outer loop
      vertex 23.643 45.259 5
      vertex 0.001 0.19 5
      vertex 22.71 42.846 5
    endloop
  endfacet
  facet normal 0 0 1
    outer loop
      vertex 24.463 47.358 5
      vertex 0.001 0.19 5
      vertex 23.643 45.259 5
    endloop
  endfacet
  facet normal 0 0 1
    outer loop
      vertex 25.148 49.082 5
      vertex 0.001 0.19 5
      vertex 24.463 47.358 5
    endloop
  endfacet
  facet normal 0 0 1
    outer loop
      vertex 25.676 50.376 5
      vertex 0.001 0.19 5
      vertex 25.148 49.082 5
    endloop
  endfacet
  facet normal 0 0 1
    outer loop
      vertex 26.022 51.182 5
      vertex 0.001 0.19 5
      vertex 25.676 50.376 5
    endloop
  endfacet
  facet normal 0 0 1
    outer loop
      vertex 29.071 57.962 5
      vertex 0.001 0.19 5
      vertex 26.022 51.182 5
    endloop
  endfacet
  facet normal 0 0 1
    outer loop
      vertex 26.307 51.122 5
      vertex 26.661 50.267 5
      vertex 29.071 57.962 5
    endloop
  endfacet
  facet normal 0 0 1
    outer loop
      vertex 29.071 57.962 5
      vertex 26.661 50.267 5
      vertex 40.754 29.034 5
    endloop
  endfacet
  facet normal 0 0 1
    outer loop
      vertex 26.389 22.881 5
      vertex 22.116 22.866 5
      vertex 13.266 18.026 5
    endloop
  endfacet
  facet normal 0 0 1
    outer loop
      vertex 26.661 50.267 5
      vertex 27.2 48.931 5
      vertex 40.754 29.034 5
    endloop
  endfacet
  facet normal 0 0 1
    outer loop
      vertex 27.2 48.931 5
      vertex 27.903 47.177 5
      vertex 40.754 29.034 5
    endloop
  endfacet
  facet normal 0 0 1
    outer loop
      vertex 27.903 47.177 5
      vertex 28.743 45.062 5
      vertex 40.754 29.034 5
    endloop
  endfacet
  facet normal 0 0 1
    outer loop
      vertex 28.743 45.062 5
      vertex 29.7 42.643 5
      vertex 40.754 29.034 5
    endloop
  endfacet
  facet normal 0 0 1
    outer loop
      vertex 29.7 42.643 5
      vertex 30.747 39.981 5
      vertex 40.754 29.034 5
    endloop
  endfacet
  facet normal 0 0 1
    outer loop
      vertex 30.747 39.981 5
      vertex 31.864 37.133 5
      vertex 40.754 29.034 5
    endloop
  endfacet
  facet normal 0 0 1
    outer loop
      vertex 40.754 29.034 5
      vertex 37.425 22.965 5
      vertex 43.104 23.22 5
    endloop
  endfacet
  facet normal 0 0 1
    outer loop
      vertex 26.389 22.881 5
      vertex 13.266 18.026 5
      vertex 37.425 22.965 5
    endloop
  endfacet
  facet normal 0 0 1
    outer loop
      vertex 18.599 22.863 5
      vertex 13.266 18.026 5
      vertex 22.116 22.866 5
    endloop
  endfacet
  facet normal 0 0 1
    outer loop
      vertex 16.204 22.877 5
      vertex 13.266 18.026 5
      vertex 18.599 22.863 5
    endloop
  endfacet
  facet normal 0 0 1
    outer loop
      vertex 15.298 22.909 5
      vertex 13.266 18.026 5
      vertex 16.204 22.877 5
    endloop
  endfacet
  facet normal 0 0 1
    outer loop
      vertex 15.685 24.063 5
      vertex 16.17 25.4 5
      vertex 13.266 18.026 5
    endloop
  endfacet
  facet normal 0 0 1
    outer loop
      vertex 26.163 51.442 5
      vertex 26.307 51.122 5
      vertex 29.071 57.962 5
    endloop
  endfacet
  facet normal -0.935547 0.353202 0
    outer loop
      vertex 0.001 0.19 5
      vertex 0.243 0.831 5
      vertex 0.001 0.19 -5
    endloop
  endfacet
  facet normal -0.935547 0.353202 0
    outer loop
      vertex 0.001 0.19 -5
      vertex 0.243 0.831 5
      vertex 0.243 0.831 -5
    endloop
  endfacet
  facet normal -0.411711 -0.911315 0
    outer loop
      vertex 0.001 0.19 -5
      vertex 0.198 0.101 -5
      vertex 0.198 0.101 5
    endloop
  endfacet
  facet normal -0.411711 -0.911315 0
    outer loop
      vertex 0.001 0.19 5
      vertex 0.001 0.19 -5
      vertex 0.198 0.101 5
    endloop
  endfacet
  facet normal -0.0918203 -0.995776 0
    outer loop
      vertex 0.198 0.101 -5
      vertex 0.827 0.043 -5
      vertex 0.827 0.043 5
    endloop
  endfacet
  facet normal -0.0918203 -0.995776 0
    outer loop
      vertex 0.198 0.101 5
      vertex 0.198 0.101 -5
      vertex 0.827 0.043 5
    endloop
  endfacet
  facet normal -0.0266572 -0.999645 0
    outer loop
      vertex 0.827 0.043 -5
      vertex 1.802 0.017 -5
      vertex 1.802 0.017 5
    endloop
  endfacet
  facet normal -0.0266572 -0.999645 0
    outer loop
      vertex 0.827 0.043 5
      vertex 0.827 0.043 -5
      vertex 1.802 0.017 5
    endloop
  endfacet
  facet normal 0.00320511 -0.999995 0
    outer loop
      vertex 1.802 0.017 -5
      vertex 3.05 0.021 -5
      vertex 3.05 0.021 5
    endloop
  endfacet
  facet normal 0.00320511 -0.999995 0
    outer loop
      vertex 1.802 0.017 5
      vertex 1.802 0.017 -5
      vertex 3.05 0.021 5
    endloop
  endfacet
  facet normal 0.0268805 -0.999639 0
    outer loop
      vertex 3.05 0.021 -5
      vertex 6.211 0.106 -5
      vertex 6.211 0.106 5
    endloop
  endfacet
  facet normal 0.0268805 -0.999639 0
    outer loop
      vertex 3.05 0.021 5
      vertex 3.05 0.021 -5
      vertex 6.211 0.106 5
    endloop
  endfacet
  facet normal 0.928515 -0.371296 0
    outer loop
      vertex 6.211 0.106 -5
      vertex 7.565 3.492 -5
      vertex 7.565 3.492 5
    endloop
  endfacet
  facet normal 0.928515 -0.371296 0
    outer loop
      vertex 6.211 0.106 5
      vertex 6.211 0.106 -5
      vertex 7.565 3.492 5
    endloop
  endfacet
  facet normal 0.930977 -0.365079 0
    outer loop
      vertex 7.565 3.492 -5
      vertex 8.254 5.249 -5
      vertex 8.254 5.249 5
    endloop
  endfacet
  facet normal 0.930977 -0.365079 0
    outer loop
      vertex 7.565 3.492 5
      vertex 7.565 3.492 -5
      vertex 8.254 5.249 5
    endloop
  endfacet
  facet normal 0.930632 -0.365956 0
    outer loop
      vertex 8.254 5.249 -5
      vertex 9.149 7.525 -5
      vertex 9.149 7.525 5
    endloop
  endfacet
  facet normal 0.930632 -0.365956 0
    outer loop
      vertex 8.254 5.249 5
      vertex 8.254 5.249 -5
      vertex 9.149 7.525 5
    endloop
  endfacet
  facet normal 0.930715 -0.365744 0
    outer loop
      vertex 9.149 7.525 -5
      vertex 10.133 10.029 -5
      vertex 10.133 10.029 5
    endloop
  endfacet
  facet normal 0.930715 -0.365744 0
    outer loop
      vertex 9.149 7.525 5
      vertex 9.149 7.525 -5
      vertex 10.133 10.029 5
    endloop
  endfacet
  facet normal 0.930464 -0.366384 0
    outer loop
      vertex 10.133 10.029 -5
      vertex 11.093 12.467 -5
      vertex 11.093 12.467 5
    endloop
  endfacet
  facet normal 0.930464 -0.366384 0
    outer loop
      vertex 10.133 10.029 5
      vertex 10.133 10.029 -5
      vertex 11.093 12.467 5
    endloop
  endfacet
  facet normal 0.931371 -0.364071 0
    outer loop
      vertex 11.093 12.467 -5
      vertex 13.266 18.026 -5
      vertex 13.266 18.026 5
    endloop
  endfacet
  facet normal 0.931371 -0.364071 0
    outer loop
      vertex 11.093 12.467 5
      vertex 11.093 12.467 -5
      vertex 13.266 18.026 5
    endloop
  endfacet
  facet normal -0.00431329 -0.999991 0
    outer loop
      vertex 13.266 18.026 -5
      vertex 26.249 17.97 -5
      vertex 26.249 17.97 5
    endloop
  endfacet
  facet normal -0.00431329 -0.999991 0
    outer loop
      vertex 13.266 18.026 5
      vertex 13.266 18.026 -5
      vertex 26.249 17.97 5
    endloop
  endfacet
  facet normal -0.00645644 -0.999979 0
    outer loop
      vertex 26.249 17.97 -5
      vertex 39.259 17.886 -5
      vertex 39.259 17.886 5
    endloop
  endfacet
  facet normal -0.00645644 -0.999979 0
    outer loop
      vertex 26.249 17.97 5
      vertex 26.249 17.97 -5
      vertex 39.259 17.886 5
    endloop
  endfacet
  facet normal -0.932472 -0.361241 0
    outer loop
      vertex 42.703 8.996 -5
      vertex 42.703 8.996 5
      vertex 39.259 17.886 -5
    endloop
  endfacet
  facet normal -0.932472 -0.361241 0
    outer loop
      vertex 39.259 17.886 -5
      vertex 42.703 8.996 5
      vertex 39.259 17.886 5
    endloop
  endfacet
  facet normal -0.931516 -0.3637 0
    outer loop
      vertex 46.174 0.106 -5
      vertex 46.174 0.106 5
      vertex 42.703 8.996 -5
    endloop
  endfacet
  facet normal -0.931516 -0.3637 0
    outer loop
      vertex 42.703 8.996 -5
      vertex 46.174 0.106 5
      vertex 42.703 8.996 5
    endloop
  endfacet
  facet normal -0.0271292 -0.999632 0
    outer loop
      vertex 46.174 0.106 -5
      vertex 49.306 0.021 -5
      vertex 49.306 0.021 5
    endloop
  endfacet
  facet normal -0.0271292 -0.999632 0
    outer loop
      vertex 46.174 0.106 5
      vertex 46.174 0.106 -5
      vertex 49.306 0.021 5
    endloop
  endfacet
  facet normal -0.0123346 -0.999924 0
    outer loop
      vertex 49.306 0.021 -5
      vertex 50.522 0.006 -5
      vertex 50.522 0.006 5
    endloop
  endfacet
  facet normal -0.0123346 -0.999924 0
    outer loop
      vertex 49.306 0.021 5
      vertex 49.306 0.021 -5
      vertex 50.522 0.006 5
    endloop
  endfacet
  facet normal -0.00603004 -0.999982 0
    outer loop
      vertex 50.522 0.006 -5
      vertex 51.517 0 -5
      vertex 51.517 0 5
    endloop
  endfacet
  facet normal -0.00603004 -0.999982 0
    outer loop
      vertex 50.522 0.006 5
      vertex 50.522 0.006 -5
      vertex 51.517 0 5
    endloop
  endfacet
  facet normal 0.00891495 -0.99996 0
    outer loop
      vertex 51.517 0 -5
      vertex 52.19 0.006 -5
      vertex 52.19 0.006 5
    endloop
  endfacet
  facet normal 0.00891495 -0.99996 0
    outer loop
      vertex 51.517 0 5
      vertex 51.517 0 -5
      vertex 52.19 0.006 5
    endloop
  endfacet
  facet normal 0.060132 -0.99819 0
    outer loop
      vertex 52.19 0.006 -5
      vertex 52.439 0.021 -5
      vertex 52.439 0.021 5
    endloop
  endfacet
  facet normal 0.060132 -0.99819 0
    outer loop
      vertex 52.19 0.006 5
      vertex 52.19 0.006 -5
      vertex 52.439 0.021 5
    endloop
  endfacet
  facet normal 0.931085 0.364802 0
    outer loop
      vertex 52.2 0.631 -5
      vertex 52.2 0.631 5
      vertex 52.439 0.021 5
    endloop
  endfacet
  facet normal 0.931085 0.364802 0
    outer loop
      vertex 52.439 0.021 -5
      vertex 52.2 0.631 -5
      vertex 52.439 0.021 5
    endloop
  endfacet
  facet normal 0.928589 0.37111 0
    outer loop
      vertex 51.517 2.34 -5
      vertex 51.517 2.34 5
      vertex 52.2 0.631 5
    endloop
  endfacet
  facet normal 0.928589 0.37111 0
    outer loop
      vertex 52.2 0.631 -5
      vertex 51.517 2.34 -5
      vertex 52.2 0.631 5
    endloop
  endfacet
  facet normal 0.928024 0.372521 0
    outer loop
      vertex 50.438 5.028 -5
      vertex 50.438 5.028 5
      vertex 51.517 2.34 5
    endloop
  endfacet
  facet normal 0.928024 0.372521 0
    outer loop
      vertex 51.517 2.34 -5
      vertex 50.438 5.028 -5
      vertex 51.517 2.34 5
    endloop
  endfacet
  facet normal 0.927736 0.373236 0
    outer loop
      vertex 49.009 8.58 -5
      vertex 49.009 8.58 5
      vertex 50.438 5.028 5
    endloop
  endfacet
  facet normal 0.927736 0.373236 0
    outer loop
      vertex 50.438 5.028 -5
      vertex 49.009 8.58 -5
      vertex 50.438 5.028 5
    endloop
  endfacet
  facet normal 0.92758 0.373624 0
    outer loop
      vertex 47.279 12.875 -5
      vertex 47.279 12.875 5
      vertex 49.009 8.58 5
    endloop
  endfacet
  facet normal 0.92758 0.373624 0
    outer loop
      vertex 49.009 8.58 -5
      vertex 47.279 12.875 -5
      vertex 49.009 8.58 5
    endloop
  endfacet
  facet normal 0.92738 0.37412 0
    outer loop
      vertex 45.295 17.793 -5
      vertex 45.295 17.793 5
      vertex 47.279 12.875 5
    endloop
  endfacet
  facet normal 0.92738 0.37412 0
    outer loop
      vertex 47.279 12.875 -5
      vertex 45.295 17.793 -5
      vertex 47.279 12.875 5
    endloop
  endfacet
  facet normal 0.927282 0.374364 0
    outer loop
      vertex 43.104 23.22 -5
      vertex 43.104 23.22 5
      vertex 45.295 17.793 5
    endloop
  endfacet
  facet normal 0.927282 0.374364 0
    outer loop
      vertex 45.295 17.793 -5
      vertex 43.104 23.22 -5
      vertex 45.295 17.793 5
    endloop
  endfacet
  facet normal 0.927129 0.374743 0
    outer loop
      vertex 40.754 29.034 -5
      vertex 40.754 29.034 5
      vertex 43.104 23.22 5
    endloop
  endfacet
  facet normal 0.927129 0.374743 0
    outer loop
      vertex 43.104 23.22 -5
      vertex 40.754 29.034 -5
      vertex 43.104 23.22 5
    endloop
  endfacet
  facet normal 0.927236 0.374478 0
    outer loop
      vertex 29.071 57.962 -5
      vertex 29.071 57.962 5
      vertex 40.754 29.034 5
    endloop
  endfacet
  facet normal 0.927236 0.374478 0
    outer loop
      vertex 40.754 29.034 -5
      vertex 29.071 57.962 -5
      vertex 40.754 29.034 5
    endloop
  endfacet
  facet normal 0.0263232 0.999653 0
    outer loop
      vertex 25.881 58.046 5
      vertex 29.071 57.962 5
      vertex 25.881 58.046 -5
    endloop
  endfacet
  facet normal 0.0263232 0.999653 0
    outer loop
      vertex 25.881 58.046 -5
      vertex 29.071 57.962 5
      vertex 29.071 57.962 -5
    endloop
  endfacet
  facet normal 0.0174103 0.999848 0
    outer loop
      vertex 22.665 58.102 5
      vertex 25.881 58.046 5
      vertex 22.665 58.102 -5
    endloop
  endfacet
  facet normal 0.0174103 0.999848 0
    outer loop
      vertex 22.665 58.102 -5
      vertex 25.881 58.046 5
      vertex 25.881 58.046 -5
    endloop
  endfacet
  facet normal -0.931094 0.364779 0
    outer loop
      vertex 11.376 29.287 5
      vertex 22.665 58.102 5
      vertex 11.376 29.287 -5
    endloop
  endfacet
  facet normal -0.931094 0.364779 0
    outer loop
      vertex 11.376 29.287 -5
      vertex 22.665 58.102 5
      vertex 22.665 58.102 -5
    endloop
  endfacet
  facet normal -0.931101 0.364763 0
    outer loop
      vertex 9.105 23.49 5
      vertex 11.376 29.287 5
      vertex 9.105 23.49 -5
    endloop
  endfacet
  facet normal -0.931101 0.364763 0
    outer loop
      vertex 9.105 23.49 -5
      vertex 11.376 29.287 5
      vertex 11.376 29.287 -5
    endloop
  endfacet
  facet normal -0.931177 0.364568 0
    outer loop
      vertex 6.983 18.07 5
      vertex 9.105 23.49 5
      vertex 6.983 18.07 -5
    endloop
  endfacet
  facet normal -0.931177 0.364568 0
    outer loop
      vertex 6.983 18.07 -5
      vertex 9.105 23.49 5
      vertex 9.105 23.49 -5
    endloop
  endfacet
  facet normal -0.931114 0.364727 0
    outer loop
      vertex 5.055 13.148 5
      vertex 6.983 18.07 5
      vertex 5.055 13.148 -5
    endloop
  endfacet
  facet normal -0.931114 0.364727 0
    outer loop
      vertex 5.055 13.148 -5
      vertex 6.983 18.07 5
      vertex 6.983 18.07 -5
    endloop
  endfacet
  facet normal -0.931256 0.364367 0
    outer loop
      vertex 3.371 8.844 5
      vertex 5.055 13.148 5
      vertex 3.371 8.844 -5
    endloop
  endfacet
  facet normal -0.931256 0.364367 0
    outer loop
      vertex 3.371 8.844 -5
      vertex 5.055 13.148 5
      vertex 5.055 13.148 -5
    endloop
  endfacet
  facet normal 0.0352981 0.999377 0
    outer loop
      vertex 15.298 22.909 5
      vertex 16.204 22.877 5
      vertex 15.298 22.909 -5
    endloop
  endfacet
  facet normal 0.0352981 0.999377 0
    outer loop
      vertex 15.298 22.909 -5
      vertex 16.204 22.877 5
      vertex 16.204 22.877 -5
    endloop
  endfacet
  facet normal 0.959717 -0.28097 0
    outer loop
      vertex 15.298 22.909 -5
      vertex 15.387 23.213 -5
      vertex 15.387 23.213 5
    endloop
  endfacet
  facet normal 0.959717 -0.28097 0
    outer loop
      vertex 15.298 22.909 5
      vertex 15.298 22.909 -5
      vertex 15.387 23.213 5
    endloop
  endfacet
  facet normal 0.943685 -0.330845 0
    outer loop
      vertex 15.387 23.213 -5
      vertex 15.685 24.063 -5
      vertex 15.685 24.063 5
    endloop
  endfacet
  facet normal 0.943685 -0.330845 0
    outer loop
      vertex 15.387 23.213 5
      vertex 15.387 23.213 -5
      vertex 15.685 24.063 5
    endloop
  endfacet
  facet normal 0.94006 -0.341009 0
    outer loop
      vertex 15.685 24.063 -5
      vertex 16.17 25.4 -5
      vertex 16.17 25.4 5
    endloop
  endfacet
  facet normal 0.94006 -0.341009 0
    outer loop
      vertex 15.685 24.063 5
      vertex 15.685 24.063 -5
      vertex 16.17 25.4 5
    endloop
  endfacet
  facet normal 0.93867 -0.344817 0
    outer loop
      vertex 16.17 25.4 -5
      vertex 16.818 27.164 -5
      vertex 16.818 27.164 5
    endloop
  endfacet
  facet normal 0.93867 -0.344817 0
    outer loop
      vertex 16.17 25.4 5
      vertex 16.17 25.4 -5
      vertex 16.818 27.164 5
    endloop
  endfacet
  facet normal 0.937839 -0.347071 0
    outer loop
      vertex 16.818 27.164 -5
      vertex 17.607 29.296 -5
      vertex 17.607 29.296 5
    endloop
  endfacet
  facet normal 0.937839 -0.347071 0
    outer loop
      vertex 16.818 27.164 5
      vertex 16.818 27.164 -5
      vertex 17.607 29.296 5
    endloop
  endfacet
  facet normal 0.936959 -0.34944 0
    outer loop
      vertex 17.607 29.296 -5
      vertex 18.517 31.736 -5
      vertex 18.517 31.736 5
    endloop
  endfacet
  facet normal 0.936959 -0.34944 0
    outer loop
      vertex 17.607 29.296 5
      vertex 17.607 29.296 -5
      vertex 18.517 31.736 5
    endloop
  endfacet
  facet normal 0.936601 -0.350398 0
    outer loop
      vertex 18.517 31.736 -5
      vertex 19.523 34.425 -5
      vertex 19.523 34.425 5
    endloop
  endfacet
  facet normal 0.936601 -0.350398 0
    outer loop
      vertex 18.517 31.736 5
      vertex 18.517 31.736 -5
      vertex 19.523 34.425 5
    endloop
  endfacet
  facet normal 0.936102 -0.35173 0
    outer loop
      vertex 19.523 34.425 -5
      vertex 20.604 37.302 -5
      vertex 20.604 37.302 5
    endloop
  endfacet
  facet normal 0.936102 -0.35173 0
    outer loop
      vertex 19.523 34.425 5
      vertex 19.523 34.425 -5
      vertex 20.604 37.302 5
    endloop
  endfacet
  facet normal 0.935362 -0.353692 0
    outer loop
      vertex 20.604 37.302 -5
      vertex 21.69 40.174 -5
      vertex 21.69 40.174 5
    endloop
  endfacet
  facet normal 0.935362 -0.353692 0
    outer loop
      vertex 20.604 37.302 5
      vertex 20.604 37.302 -5
      vertex 21.69 40.174 5
    endloop
  endfacet
  facet normal 0.934244 -0.356635 0
    outer loop
      vertex 21.69 40.174 -5
      vertex 22.71 42.846 -5
      vertex 22.71 42.846 5
    endloop
  endfacet
  facet normal 0.934244 -0.356635 0
    outer loop
      vertex 21.69 40.174 5
      vertex 21.69 40.174 -5
      vertex 22.71 42.846 5
    endloop
  endfacet
  facet normal 0.932707 -0.360636 0
    outer loop
      vertex 22.71 42.846 -5
      vertex 23.643 45.259 -5
      vertex 23.643 45.259 5
    endloop
  endfacet
  facet normal 0.932707 -0.360636 0
    outer loop
      vertex 22.71 42.846 5
      vertex 22.71 42.846 -5
      vertex 23.643 45.259 5
    endloop
  endfacet
  facet normal 0.931446 -0.363881 0
    outer loop
      vertex 23.643 45.259 -5
      vertex 24.463 47.358 -5
      vertex 24.463 47.358 5
    endloop
  endfacet
  facet normal 0.931446 -0.363881 0
    outer loop
      vertex 23.643 45.259 5
      vertex 23.643 45.259 -5
      vertex 24.463 47.358 5
    endloop
  endfacet
  facet normal 0.929329 -0.369252 0
    outer loop
      vertex 24.463 47.358 -5
      vertex 25.148 49.082 -5
      vertex 25.148 49.082 5
    endloop
  endfacet
  facet normal 0.929329 -0.369252 0
    outer loop
      vertex 24.463 47.358 5
      vertex 24.463 47.358 -5
      vertex 25.148 49.082 5
    endloop
  endfacet
  facet normal 0.925889 -0.377797 0
    outer loop
      vertex 25.148 49.082 -5
      vertex 25.676 50.376 -5
      vertex 25.676 50.376 5
    endloop
  endfacet
  facet normal 0.925889 -0.377797 0
    outer loop
      vertex 25.148 49.082 5
      vertex 25.148 49.082 -5
      vertex 25.676 50.376 5
    endloop
  endfacet
  facet normal 0.918909 -0.39447 0
    outer loop
      vertex 25.676 50.376 -5
      vertex 26.022 51.182 -5
      vertex 26.022 51.182 5
    endloop
  endfacet
  facet normal 0.918909 -0.39447 0
    outer loop
      vertex 25.676 50.376 5
      vertex 25.676 50.376 -5
      vertex 26.022 51.182 5
    endloop
  endfacet
  facet normal 0.879056 -0.476719 0
    outer loop
      vertex 26.022 51.182 -5
      vertex 26.163 51.442 -5
      vertex 26.163 51.442 5
    endloop
  endfacet
  facet normal 0.879056 -0.476719 0
    outer loop
      vertex 26.022 51.182 5
      vertex 26.022 51.182 -5
      vertex 26.163 51.442 5
    endloop
  endfacet
  facet normal -0.911922 -0.410365 0
    outer loop
      vertex 26.307 51.122 -5
      vertex 26.307 51.122 5
      vertex 26.163 51.442 -5
    endloop
  endfacet
  facet normal -0.911922 -0.410365 0
    outer loop
      vertex 26.163 51.442 -5
      vertex 26.307 51.122 5
      vertex 26.163 51.442 5
    endloop
  endfacet
  facet normal -0.923938 -0.382543 0
    outer loop
      vertex 26.661 50.267 -5
      vertex 26.661 50.267 5
      vertex 26.307 51.122 -5
    endloop
  endfacet
  facet normal -0.923938 -0.382543 0
    outer loop
      vertex 26.307 51.122 -5
      vertex 26.661 50.267 5
      vertex 26.307 51.122 5
    endloop
  endfacet
  facet normal -0.927372 -0.374142 0
    outer loop
      vertex 27.2 48.931 -5
      vertex 27.2 48.931 5
      vertex 26.661 50.267 -5
    endloop
  endfacet
  facet normal -0.927372 -0.374142 0
    outer loop
      vertex 26.661 50.267 -5
      vertex 27.2 48.931 5
      vertex 26.661 50.267 5
    endloop
  endfacet
  facet normal -0.928221 -0.372029 0
    outer loop
      vertex 27.903 47.177 -5
      vertex 27.903 47.177 5
      vertex 27.2 48.931 -5
    endloop
  endfacet
  facet normal -0.928221 -0.372029 0
    outer loop
      vertex 27.2 48.931 -5
      vertex 27.903 47.177 5
      vertex 27.2 48.931 5
    endloop
  endfacet
  facet normal -0.929383 -0.369117 0
    outer loop
      vertex 28.743 45.062 -5
      vertex 28.743 45.062 5
      vertex 27.903 47.177 -5
    endloop
  endfacet
  facet normal -0.929383 -0.369117 0
    outer loop
      vertex 27.903 47.177 -5
      vertex 28.743 45.062 5
      vertex 27.903 47.177 5
    endloop
  endfacet
  facet normal -0.929875 -0.367875 0
    outer loop
      vertex 29.7 42.643 -5
      vertex 29.7 42.643 5
      vertex 28.743 45.062 -5
    endloop
  endfacet
  facet normal -0.929875 -0.367875 0
    outer loop
      vertex 28.743 45.062 -5
      vertex 29.7 42.643 5
      vertex 28.743 45.062 5
    endloop
  endfacet
  facet normal -0.930607 -0.36602 0
    outer loop
      vertex 30.747 39.981 -5
      vertex 30.747 39.981 5
      vertex 29.7 42.643 -5
    endloop
  endfacet
  facet normal -0.930607 -0.36602 0
    outer loop
      vertex 29.7 42.643 -5
      vertex 30.747 39.981 5
      vertex 29.7 42.643 5
    endloop
  endfacet
  facet normal -0.930958 -0.365126 0
    outer loop
      vertex 31.864 37.133 -5
      vertex 31.864 37.133 5
      vertex 30.747 39.981 -5
    endloop
  endfacet
  facet normal -0.930958 -0.365126 0
    outer loop
      vertex 30.747 39.981 -5
      vertex 31.864 37.133 5
      vertex 30.747 39.981 5
    endloop
  endfacet
  facet normal -0.930863 -0.365368 0
    outer loop
      vertex 37.425 22.965 -5
      vertex 37.425 22.965 5
      vertex 31.864 37.133 -5
    endloop
  endfacet
  facet normal -0.930863 -0.365368 0
    outer loop
      vertex 31.864 37.133 -5
      vertex 37.425 22.965 5
      vertex 31.864 37.133 5
    endloop
  endfacet
  facet normal -0.00761123 0.999971 0
    outer loop
      vertex 26.389 22.881 5
      vertex 37.425 22.965 5
      vertex 26.389 22.881 -5
    endloop
  endfacet
  facet normal -0.00761123 0.999971 0
    outer loop
      vertex 26.389 22.881 -5
      vertex 37.425 22.965 5
      vertex 37.425 22.965 -5
    endloop
  endfacet
  facet normal -0.00351039 0.999994 0
    outer loop
      vertex 22.116 22.866 5
      vertex 26.389 22.881 5
      vertex 22.116 22.866 -5
    endloop
  endfacet
  facet normal -0.00351039 0.999994 0
    outer loop
      vertex 22.116 22.866 -5
      vertex 26.389 22.881 5
      vertex 26.389 22.881 -5
    endloop
  endfacet
  facet normal -0.000852999 1 0
    outer loop
      vertex 18.599 22.863 5
      vertex 22.116 22.866 5
      vertex 18.599 22.863 -5
    endloop
  endfacet
  facet normal -0.000852999 1 0
    outer loop
      vertex 18.599 22.863 -5
      vertex 22.116 22.866 5
      vertex 22.116 22.866 -5
    endloop
  endfacet
  facet normal 0.00584541 0.999983 0
    outer loop
      vertex 16.204 22.877 5
      vertex 18.599 22.863 5
      vertex 16.204 22.877 -5
    endloop
  endfacet
  facet normal 0.00584541 0.999983 0
    outer loop
      vertex 16.204 22.877 -5
      vertex 18.599 22.863 5
      vertex 18.599 22.863 -5
    endloop
  endfacet
endsolid OpenSCAD_Model
