solid OpenSCAD_Model
  facet normal -0.880201 0.474601 0
    outer loop
      vertex 5.362 35.38 5
      vertex 6.153 36.847 5
      vertex 5.362 35.38 -5
    endloop
  endfacet
  facet normal -0.880201 0.474601 0
    outer loop
      vertex 5.362 35.38 -5
      vertex 6.153 36.847 5
      vertex 6.153 36.847 -5
    endloop
  endfacet
  facet normal 1 0 0
    outer loop
      vertex 5.362 35.38 -5
      vertex 5.362 59.171 -5
      vertex 5.362 59.171 5
    endloop
  endfacet
  facet normal 1 0 0
    outer loop
      vertex 5.362 35.38 5
      vertex 5.362 35.38 -5
      vertex 5.362 59.171 5
    endloop
  endfacet
  facet normal 0 0 -1
    outer loop
      vertex 0 59.171 -5
      vertex 5.362 59.171 -5
      vertex 0 1.316 -5
    endloop
  endfacet
  facet normal 0 0 -1
    outer loop
      vertex 0 1.316 -5
      vertex 5.362 59.171 -5
      vertex 5.362 35.38 -5
    endloop
  endfacet
  facet normal 0 0 -1
    outer loop
      vertex 0 1.316 -5
      vertex 5.362 35.38 -5
      vertex 6.153 36.847 -5
    endloop
  endfacet
  facet normal 0 0 -1
    outer loop
      vertex 0 1.316 -5
      vertex 6.153 36.847 -5
      vertex 7.791 39.147 -5
    endloop
  endfacet
  facet normal 0 0 -1
    outer loop
      vertex 7.802 32.424 -5
      vertex 7.791 39.147 -5
      vertex 10.036 41.166 -5
    endloop
  endfacet
  facet normal 0 0 -1
    outer loop
      vertex 9.339 34.805 -5
      vertex 10.036 41.166 -5
      vertex 12.688 42.762 -5
    endloop
  endfacet
  facet normal 0 0 -1
    outer loop
      vertex 11.237 36.769 -5
      vertex 12.688 42.762 -5
      vertex 15.55 43.79 -5
    endloop
  endfacet
  facet normal 0 0 -1
    outer loop
      vertex 17.826 39.595 -5
      vertex 17.647 44.093 -5
      vertex 20.179 44.194 -5
    endloop
  endfacet
  facet normal 0 0 -1
    outer loop
      vertex 19.9 39.671 -5
      vertex 20.179 44.194 -5
      vertex 22.71 44.093 -5
    endloop
  endfacet
  facet normal 0 0 -1
    outer loop
      vertex 21.98 39.514 -5
      vertex 22.71 44.093 -5
      vertex 24.807 43.79 -5
    endloop
  endfacet
  facet normal 0 0 -1
    outer loop
      vertex 23.792 39.134 -5
      vertex 25.654 43.543 -5
      vertex 26.631 43.213 -5
    endloop
  endfacet
  facet normal 0 0 -1
    outer loop
      vertex 25.903 38.234 -5
      vertex 28.476 42.464 -5
      vertex 30.496 41.19 -5
    endloop
  endfacet
  facet normal 0 0 -1
    outer loop
      vertex 27.785 36.929 -5
      vertex 30.496 41.19 -5
      vertex 32.6 39.336 -5
    endloop
  endfacet
  facet normal 0 0 -1
    outer loop
      vertex 29.423 35.248 -5
      vertex 32.6 39.336 -5
      vertex 34.496 37.191 -5
    endloop
  endfacet
  facet normal 0 0 -1
    outer loop
      vertex 30.796 33.218 -5
      vertex 34.496 37.191 -5
      vertex 35.899 35.042 -5
    endloop
  endfacet
  facet normal 0 0 -1
    outer loop
      vertex 32.697 28.232 -5
      vertex 35.899 35.042 -5
      vertex 37.825 29.877 -5
    endloop
  endfacet
  facet normal 0 0 -1
    outer loop
      vertex 33.358 22.2 -5
      vertex 37.825 29.877 -5
      vertex 38.717 24.068 -5
    endloop
  endfacet
  facet normal 0 0 -1
    outer loop
      vertex 33.061 18.033 -5
      vertex 38.717 24.068 -5
      vertex 38.545 18.116 -5
    endloop
  endfacet
  facet normal 0 0 -1
    outer loop
      vertex 30.865 11.176 -5
      vertex 38.545 18.116 -5
      vertex 37.282 12.521 -5
    endloop
  endfacet
  facet normal 0 0 -1
    outer loop
      vertex 26.788 6.581 -5
      vertex 37.282 12.521 -5
      vertex 34.785 7.44 -5
    endloop
  endfacet
  facet normal 0 0 -1
    outer loop
      vertex 21.132 4.603 -5
      vertex 34.785 7.44 -5
      vertex 31.262 3.648 -5
    endloop
  endfacet
  facet normal 0 0 -1
    outer loop
      vertex 12.368 1.838 -5
      vertex 31.262 3.648 -5
      vertex 26.755 1.174 -5
    endloop
  endfacet
  facet normal 0 0 -1
    outer loop
      vertex 16.776 0.356 -5
      vertex 26.755 1.174 -5
      vertex 21.307 0.045 -5
    endloop
  endfacet
  facet normal 0 0 -1
    outer loop
      vertex 14.525 0.965 -5
      vertex 26.755 1.174 -5
      vertex 16.776 0.356 -5
    endloop
  endfacet
  facet normal 0 0 -1
    outer loop
      vertex 12.368 1.838 -5
      vertex 26.755 1.174 -5
      vertex 14.525 0.965 -5
    endloop
  endfacet
  facet normal 0 0 -1
    outer loop
      vertex 8.582 4.254 -5
      vertex 15.35 5.272 -5
      vertex 17.808 4.703 -5
    endloop
  endfacet
  facet normal 0 0 -1
    outer loop
      vertex 10.366 2.945 -5
      vertex 31.262 3.648 -5
      vertex 12.368 1.838 -5
    endloop
  endfacet
  facet normal 0 0 -1
    outer loop
      vertex 27.785 36.929 -5
      vertex 32.6 39.336 -5
      vertex 29.423 35.248 -5
    endloop
  endfacet
  facet normal 0 0 -1
    outer loop
      vertex 21.132 4.603 -5
      vertex 10.366 2.945 -5
      vertex 17.808 4.703 -5
    endloop
  endfacet
  facet normal 0 0 -1
    outer loop
      vertex 13.473 38.272 -5
      vertex 17.647 44.093 -5
      vertex 16.031 39.276 -5
    endloop
  endfacet
  facet normal 0 0 -1
    outer loop
      vertex 13.129 6.245 -5
      vertex 8.582 4.254 -5
      vertex 7.082 5.734 -5
    endloop
  endfacet
  facet normal 0 0 -1
    outer loop
      vertex 11.162 7.603 -5
      vertex 7.082 5.734 -5
      vertex 9.464 9.328 -5
    endloop
  endfacet
  facet normal 0 0 -1
    outer loop
      vertex 29.423 35.248 -5
      vertex 34.496 37.191 -5
      vertex 30.796 33.218 -5
    endloop
  endfacet
  facet normal 0 0 -1
    outer loop
      vertex 5.079 1.316 -5
      vertex 0 1.316 -5
      vertex 5.079 8.795 -5
    endloop
  endfacet
  facet normal 0 0 -1
    outer loop
      vertex 5.56 23.173 -5
      vertex 0 1.316 -5
      vertex 5.892 26.567 -5
    endloop
  endfacet
  facet normal 0 0 -1
    outer loop
      vertex 5.672 19.52 -5
      vertex 0 1.316 -5
      vertex 5.56 23.173 -5
    endloop
  endfacet
  facet normal 0 0 -1
    outer loop
      vertex 11.237 36.769 -5
      vertex 15.55 43.79 -5
      vertex 13.473 38.272 -5
    endloop
  endfacet
  facet normal 0 0 -1
    outer loop
      vertex 6.139 16.517 -5
      vertex 0 1.316 -5
      vertex 5.672 19.52 -5
    endloop
  endfacet
  facet normal 0 0 -1
    outer loop
      vertex 6.937 13.804 -5
      vertex 0 1.316 -5
      vertex 6.139 16.517 -5
    endloop
  endfacet
  facet normal 0 0 -1
    outer loop
      vertex 5.079 8.795 -5
      vertex 0 1.316 -5
      vertex 6.937 13.804 -5
    endloop
  endfacet
  facet normal 0 0 -1
    outer loop
      vertex 9.464 9.328 -5
      vertex 5.927 7.356 -5
      vertex 8.05 11.402 -5
    endloop
  endfacet
  facet normal 0 0 -1
    outer loop
      vertex 5.927 7.356 -5
      vertex 9.464 9.328 -5
      vertex 7.082 5.734 -5
    endloop
  endfacet
  facet normal 0 0 -1
    outer loop
      vertex 15.35 5.272 -5
      vertex 8.582 4.254 -5
      vertex 13.129 6.245 -5
    endloop
  endfacet
  facet normal 0 0 -1
    outer loop
      vertex 24.139 5.243 -5
      vertex 34.785 7.44 -5
      vertex 21.132 4.603 -5
    endloop
  endfacet
  facet normal 0 0 -1
    outer loop
      vertex 10.366 2.945 -5
      vertex 21.132 4.603 -5
      vertex 31.262 3.648 -5
    endloop
  endfacet
  facet normal 0 0 -1
    outer loop
      vertex 26.788 6.581 -5
      vertex 34.785 7.44 -5
      vertex 24.139 5.243 -5
    endloop
  endfacet
  facet normal 0 0 -1
    outer loop
      vertex 29.044 8.574 -5
      vertex 37.282 12.521 -5
      vertex 26.788 6.581 -5
    endloop
  endfacet
  facet normal 0 0 -1
    outer loop
      vertex 30.865 11.176 -5
      vertex 37.282 12.521 -5
      vertex 29.044 8.574 -5
    endloop
  endfacet
  facet normal 0 0 -1
    outer loop
      vertex 32.218 14.344 -5
      vertex 38.545 18.116 -5
      vertex 30.865 11.176 -5
    endloop
  endfacet
  facet normal 0 0 -1
    outer loop
      vertex 33.061 18.033 -5
      vertex 38.545 18.116 -5
      vertex 32.218 14.344 -5
    endloop
  endfacet
  facet normal 0 0 -1
    outer loop
      vertex 33.358 22.2 -5
      vertex 38.717 24.068 -5
      vertex 33.061 18.033 -5
    endloop
  endfacet
  facet normal 0 0 -1
    outer loop
      vertex 33.19 25.333 -5
      vertex 37.825 29.877 -5
      vertex 33.358 22.2 -5
    endloop
  endfacet
  facet normal 0 0 -1
    outer loop
      vertex 13.129 6.245 -5
      vertex 7.082 5.734 -5
      vertex 11.162 7.603 -5
    endloop
  endfacet
  facet normal 0 0 -1
    outer loop
      vertex 31.893 30.871 -5
      vertex 35.899 35.042 -5
      vertex 32.697 28.232 -5
    endloop
  endfacet
  facet normal 0 0 -1
    outer loop
      vertex 30.796 33.218 -5
      vertex 35.899 35.042 -5
      vertex 31.893 30.871 -5
    endloop
  endfacet
  facet normal 0 0 -1
    outer loop
      vertex 23.792 39.134 -5
      vertex 28.476 42.464 -5
      vertex 25.903 38.234 -5
    endloop
  endfacet
  facet normal 0 0 -1
    outer loop
      vertex 25.903 38.234 -5
      vertex 30.496 41.19 -5
      vertex 27.785 36.929 -5
    endloop
  endfacet
  facet normal 0 0 -1
    outer loop
      vertex 19.9 39.671 -5
      vertex 22.71 44.093 -5
      vertex 21.98 39.514 -5
    endloop
  endfacet
  facet normal 0 0 -1
    outer loop
      vertex 8.05 11.402 -5
      vertex 5.079 8.795 -5
      vertex 6.937 13.804 -5
    endloop
  endfacet
  facet normal 0 0 -1
    outer loop
      vertex 16.031 39.276 -5
      vertex 17.647 44.093 -5
      vertex 17.826 39.595 -5
    endloop
  endfacet
  facet normal 0 0 -1
    outer loop
      vertex 21.98 39.514 -5
      vertex 25.654 43.543 -5
      vertex 23.792 39.134 -5
    endloop
  endfacet
  facet normal 0 0 -1
    outer loop
      vertex 21.98 39.514 -5
      vertex 24.807 43.79 -5
      vertex 25.654 43.543 -5
    endloop
  endfacet
  facet normal 0 0 -1
    outer loop
      vertex 9.339 34.805 -5
      vertex 12.688 42.762 -5
      vertex 11.237 36.769 -5
    endloop
  endfacet
  facet normal 0 0 -1
    outer loop
      vertex 7.802 32.424 -5
      vertex 10.036 41.166 -5
      vertex 9.339 34.805 -5
    endloop
  endfacet
  facet normal 0 0 -1
    outer loop
      vertex 6.648 29.665 -5
      vertex 7.791 39.147 -5
      vertex 7.802 32.424 -5
    endloop
  endfacet
  facet normal 0 0 -1
    outer loop
      vertex 5.892 26.567 -5
      vertex 7.791 39.147 -5
      vertex 6.648 29.665 -5
    endloop
  endfacet
  facet normal 0 0 -1
    outer loop
      vertex 0 1.316 -5
      vertex 7.791 39.147 -5
      vertex 5.892 26.567 -5
    endloop
  endfacet
  facet normal 0 0 -1
    outer loop
      vertex 13.473 38.272 -5
      vertex 15.55 43.79 -5
      vertex 17.647 44.093 -5
    endloop
  endfacet
  facet normal 0 0 -1
    outer loop
      vertex 16.776 0.356 -5
      vertex 21.307 0.045 -5
      vertex 19.058 0.039 -5
    endloop
  endfacet
  facet normal 0 0 -1
    outer loop
      vertex 8.582 4.254 -5
      vertex 17.808 4.703 -5
      vertex 10.366 2.945 -5
    endloop
  endfacet
  facet normal 0 0 -1
    outer loop
      vertex 32.697 28.232 -5
      vertex 37.825 29.877 -5
      vertex 33.19 25.333 -5
    endloop
  endfacet
  facet normal 0 0 -1
    outer loop
      vertex 5.079 8.795 -5
      vertex 8.05 11.402 -5
      vertex 5.927 7.356 -5
    endloop
  endfacet
  facet normal 0 0 -1
    outer loop
      vertex 17.826 39.595 -5
      vertex 20.179 44.194 -5
      vertex 19.9 39.671 -5
    endloop
  endfacet
  facet normal 0 0 -1
    outer loop
      vertex 23.792 39.134 -5
      vertex 26.631 43.213 -5
      vertex 27.612 42.839 -5
    endloop
  endfacet
  facet normal 0 0 -1
    outer loop
      vertex 23.792 39.134 -5
      vertex 27.612 42.839 -5
      vertex 28.476 42.464 -5
    endloop
  endfacet
  facet normal -0.814546 0.580099 0
    outer loop
      vertex 6.153 36.847 5
      vertex 7.791 39.147 5
      vertex 6.153 36.847 -5
    endloop
  endfacet
  facet normal -0.814546 0.580099 0
    outer loop
      vertex 6.153 36.847 -5
      vertex 7.791 39.147 5
      vertex 7.791 39.147 -5
    endloop
  endfacet
  facet normal 0 0 1
    outer loop
      vertex 5.927 7.356 5
      vertex 7.082 5.734 5
      vertex 5.079 8.795 5
    endloop
  endfacet
  facet normal 0 0 1
    outer loop
      vertex 0 1.316 5
      vertex 5.079 1.316 5
      vertex 5.079 8.795 5
    endloop
  endfacet
  facet normal 0 0 1
    outer loop
      vertex 5.362 35.38 5
      vertex 5.362 59.171 5
      vertex 0 1.316 5
    endloop
  endfacet
  facet normal 0 0 1
    outer loop
      vertex 30.796 33.218 5
      vertex 31.893 30.871 5
      vertex 35.899 35.042 5
    endloop
  endfacet
  facet normal 0 0 1
    outer loop
      vertex 7.082 5.734 5
      vertex 8.582 4.254 5
      vertex 5.079 8.795 5
    endloop
  endfacet
  facet normal 0 0 1
    outer loop
      vertex 8.582 4.254 5
      vertex 10.366 2.945 5
      vertex 5.079 8.795 5
    endloop
  endfacet
  facet normal 0 0 1
    outer loop
      vertex 10.366 2.945 5
      vertex 12.368 1.838 5
      vertex 5.079 8.795 5
    endloop
  endfacet
  facet normal 0 0 1
    outer loop
      vertex 12.368 1.838 5
      vertex 14.525 0.965 5
      vertex 5.079 8.795 5
    endloop
  endfacet
  facet normal 0 0 1
    outer loop
      vertex 14.525 0.965 5
      vertex 16.776 0.356 5
      vertex 5.079 8.795 5
    endloop
  endfacet
  facet normal 0 0 1
    outer loop
      vertex 16.776 0.356 5
      vertex 19.058 0.039 5
      vertex 5.079 8.795 5
    endloop
  endfacet
  facet normal 0 0 1
    outer loop
      vertex 19.058 0.039 5
      vertex 21.307 0.045 5
      vertex 5.079 8.795 5
    endloop
  endfacet
  facet normal 0 0 1
    outer loop
      vertex 21.307 0.045 5
      vertex 26.755 1.174 5
      vertex 5.079 8.795 5
    endloop
  endfacet
  facet normal 0 0 1
    outer loop
      vertex 25.903 38.234 5
      vertex 27.785 36.929 5
      vertex 30.496 41.19 5
    endloop
  endfacet
  facet normal 0 0 1
    outer loop
      vertex 6.937 13.804 5
      vertex 6.139 16.517 5
      vertex 0 1.316 5
    endloop
  endfacet
  facet normal 0 0 1
    outer loop
      vertex 21.98 39.514 5
      vertex 25.654 43.543 5
      vertex 24.807 43.79 5
    endloop
  endfacet
  facet normal 0 0 1
    outer loop
      vertex 6.139 16.517 5
      vertex 5.672 19.52 5
      vertex 0 1.316 5
    endloop
  endfacet
  facet normal 0 0 1
    outer loop
      vertex 23.792 39.134 5
      vertex 28.476 42.464 5
      vertex 27.612 42.839 5
    endloop
  endfacet
  facet normal 0 0 1
    outer loop
      vertex 9.339 34.805 5
      vertex 11.237 36.769 5
      vertex 12.688 42.762 5
    endloop
  endfacet
  facet normal 0 0 1
    outer loop
      vertex 5.892 26.567 5
      vertex 7.791 39.147 5
      vertex 0 1.316 5
    endloop
  endfacet
  facet normal 0 0 1
    outer loop
      vertex 7.791 39.147 5
      vertex 6.153 36.847 5
      vertex 0 1.316 5
    endloop
  endfacet
  facet normal 0 0 1
    outer loop
      vertex 6.153 36.847 5
      vertex 5.362 35.38 5
      vertex 0 1.316 5
    endloop
  endfacet
  facet normal 0 0 1
    outer loop
      vertex 5.362 59.171 5
      vertex 0 59.171 5
      vertex 0 1.316 5
    endloop
  endfacet
  facet normal 0 0 1
    outer loop
      vertex 6.648 29.665 5
      vertex 7.791 39.147 5
      vertex 5.892 26.567 5
    endloop
  endfacet
  facet normal 0 0 1
    outer loop
      vertex 7.802 32.424 5
      vertex 9.339 34.805 5
      vertex 10.036 41.166 5
    endloop
  endfacet
  facet normal 0 0 1
    outer loop
      vertex 10.036 41.166 5
      vertex 7.791 39.147 5
      vertex 6.648 29.665 5
    endloop
  endfacet
  facet normal 0 0 1
    outer loop
      vertex 6.648 29.665 5
      vertex 7.802 32.424 5
      vertex 10.036 41.166 5
    endloop
  endfacet
  facet normal 0 0 1
    outer loop
      vertex 12.688 42.762 5
      vertex 10.036 41.166 5
      vertex 9.339 34.805 5
    endloop
  endfacet
  facet normal 0 0 1
    outer loop
      vertex 15.55 43.79 5
      vertex 12.688 42.762 5
      vertex 11.237 36.769 5
    endloop
  endfacet
  facet normal 0 0 1
    outer loop
      vertex 23.792 39.134 5
      vertex 25.903 38.234 5
      vertex 28.476 42.464 5
    endloop
  endfacet
  facet normal 0 0 1
    outer loop
      vertex 15.55 43.79 5
      vertex 11.237 36.769 5
      vertex 13.473 38.272 5
    endloop
  endfacet
  facet normal 0 0 1
    outer loop
      vertex 20.179 44.194 5
      vertex 17.647 44.093 5
      vertex 16.031 39.276 5
    endloop
  endfacet
  facet normal 0 0 1
    outer loop
      vertex 20.179 44.194 5
      vertex 16.031 39.276 5
      vertex 17.826 39.595 5
    endloop
  endfacet
  facet normal 0 0 1
    outer loop
      vertex 21.98 39.514 5
      vertex 23.792 39.134 5
      vertex 25.654 43.543 5
    endloop
  endfacet
  facet normal 0 0 1
    outer loop
      vertex 22.71 44.093 5
      vertex 20.179 44.194 5
      vertex 19.9 39.671 5
    endloop
  endfacet
  facet normal 0 0 1
    outer loop
      vertex 23.792 39.134 5
      vertex 27.612 42.839 5
      vertex 26.631 43.213 5
    endloop
  endfacet
  facet normal 0 0 1
    outer loop
      vertex 24.807 43.79 5
      vertex 22.71 44.093 5
      vertex 21.98 39.514 5
    endloop
  endfacet
  facet normal 0 0 1
    outer loop
      vertex 11.162 7.603 5
      vertex 9.464 9.328 5
      vertex 5.079 8.795 5
    endloop
  endfacet
  facet normal 0 0 1
    outer loop
      vertex 26.631 43.213 5
      vertex 25.654 43.543 5
      vertex 23.792 39.134 5
    endloop
  endfacet
  facet normal 0 0 1
    outer loop
      vertex 27.785 36.929 5
      vertex 29.423 35.248 5
      vertex 32.6 39.336 5
    endloop
  endfacet
  facet normal 0 0 1
    outer loop
      vertex 30.496 41.19 5
      vertex 28.476 42.464 5
      vertex 25.903 38.234 5
    endloop
  endfacet
  facet normal 0 0 1
    outer loop
      vertex 29.423 35.248 5
      vertex 30.796 33.218 5
      vertex 34.496 37.191 5
    endloop
  endfacet
  facet normal 0 0 1
    outer loop
      vertex 32.6 39.336 5
      vertex 30.496 41.19 5
      vertex 27.785 36.929 5
    endloop
  endfacet
  facet normal 0 0 1
    outer loop
      vertex 34.496 37.191 5
      vertex 32.6 39.336 5
      vertex 29.423 35.248 5
    endloop
  endfacet
  facet normal 0 0 1
    outer loop
      vertex 35.899 35.042 5
      vertex 34.496 37.191 5
      vertex 30.796 33.218 5
    endloop
  endfacet
  facet normal 0 0 1
    outer loop
      vertex 37.825 29.877 5
      vertex 35.899 35.042 5
      vertex 31.893 30.871 5
    endloop
  endfacet
  facet normal 0 0 1
    outer loop
      vertex 33.358 22.2 5
      vertex 33.061 18.033 5
      vertex 38.717 24.068 5
    endloop
  endfacet
  facet normal 0 0 1
    outer loop
      vertex 37.825 29.877 5
      vertex 31.893 30.871 5
      vertex 32.697 28.232 5
    endloop
  endfacet
  facet normal 0 0 1
    outer loop
      vertex 38.717 24.068 5
      vertex 37.825 29.877 5
      vertex 33.19 25.333 5
    endloop
  endfacet
  facet normal 0 0 1
    outer loop
      vertex 33.061 18.033 5
      vertex 32.218 14.344 5
      vertex 38.545 18.116 5
    endloop
  endfacet
  facet normal 0 0 1
    outer loop
      vertex 38.717 24.068 5
      vertex 33.19 25.333 5
      vertex 33.358 22.2 5
    endloop
  endfacet
  facet normal 0 0 1
    outer loop
      vertex 38.545 18.116 5
      vertex 38.717 24.068 5
      vertex 33.061 18.033 5
    endloop
  endfacet
  facet normal 0 0 1
    outer loop
      vertex 5.079 8.795 5
      vertex 6.937 13.804 5
      vertex 0 1.316 5
    endloop
  endfacet
  facet normal 0 0 1
    outer loop
      vertex 37.282 12.521 5
      vertex 38.545 18.116 5
      vertex 32.218 14.344 5
    endloop
  endfacet
  facet normal 0 0 1
    outer loop
      vertex 34.785 7.44 5
      vertex 37.282 12.521 5
      vertex 30.865 11.176 5
    endloop
  endfacet
  facet normal 0 0 1
    outer loop
      vertex 34.785 7.44 5
      vertex 30.865 11.176 5
      vertex 29.044 8.574 5
    endloop
  endfacet
  facet normal 0 0 1
    outer loop
      vertex 31.262 3.648 5
      vertex 34.785 7.44 5
      vertex 26.788 6.581 5
    endloop
  endfacet
  facet normal 0 0 1
    outer loop
      vertex 31.262 3.648 5
      vertex 26.788 6.581 5
      vertex 24.139 5.243 5
    endloop
  endfacet
  facet normal 0 0 1
    outer loop
      vertex 26.755 1.174 5
      vertex 31.262 3.648 5
      vertex 21.132 4.603 5
    endloop
  endfacet
  facet normal 0 0 1
    outer loop
      vertex 13.129 6.245 5
      vertex 11.162 7.603 5
      vertex 5.079 8.795 5
    endloop
  endfacet
  facet normal 0 0 1
    outer loop
      vertex 26.755 1.174 5
      vertex 21.132 4.603 5
      vertex 17.808 4.703 5
    endloop
  endfacet
  facet normal 0 0 1
    outer loop
      vertex 26.755 1.174 5
      vertex 15.35 5.272 5
      vertex 5.079 8.795 5
    endloop
  endfacet
  facet normal 0 0 1
    outer loop
      vertex 26.755 1.174 5
      vertex 17.808 4.703 5
      vertex 15.35 5.272 5
    endloop
  endfacet
  facet normal 0 0 1
    outer loop
      vertex 15.35 5.272 5
      vertex 13.129 6.245 5
      vertex 5.079 8.795 5
    endloop
  endfacet
  facet normal 0 0 1
    outer loop
      vertex 29.044 8.574 5
      vertex 26.788 6.581 5
      vertex 34.785 7.44 5
    endloop
  endfacet
  facet normal 0 0 1
    outer loop
      vertex 24.139 5.243 5
      vertex 21.132 4.603 5
      vertex 31.262 3.648 5
    endloop
  endfacet
  facet normal 0 0 1
    outer loop
      vertex 32.697 28.232 5
      vertex 33.19 25.333 5
      vertex 37.825 29.877 5
    endloop
  endfacet
  facet normal 0 0 1
    outer loop
      vertex 32.218 14.344 5
      vertex 30.865 11.176 5
      vertex 37.282 12.521 5
    endloop
  endfacet
  facet normal 0 0 1
    outer loop
      vertex 17.826 39.595 5
      vertex 19.9 39.671 5
      vertex 20.179 44.194 5
    endloop
  endfacet
  facet normal 0 0 1
    outer loop
      vertex 19.9 39.671 5
      vertex 21.98 39.514 5
      vertex 22.71 44.093 5
    endloop
  endfacet
  facet normal 0 0 1
    outer loop
      vertex 5.672 19.52 5
      vertex 5.56 23.173 5
      vertex 0 1.316 5
    endloop
  endfacet
  facet normal 0 0 1
    outer loop
      vertex 5.56 23.173 5
      vertex 5.892 26.567 5
      vertex 0 1.316 5
    endloop
  endfacet
  facet normal 0 0 1
    outer loop
      vertex 13.473 38.272 5
      vertex 17.647 44.093 5
      vertex 15.55 43.79 5
    endloop
  endfacet
  facet normal 0 0 1
    outer loop
      vertex 13.473 38.272 5
      vertex 16.031 39.276 5
      vertex 17.647 44.093 5
    endloop
  endfacet
  facet normal 0 0 1
    outer loop
      vertex 9.464 9.328 5
      vertex 8.05 11.402 5
      vertex 5.079 8.795 5
    endloop
  endfacet
  facet normal 0 0 1
    outer loop
      vertex 8.05 11.402 5
      vertex 6.937 13.804 5
      vertex 5.079 8.795 5
    endloop
  endfacet
  facet normal 0 1 0
    outer loop
      vertex 0 59.171 5
      vertex 5.362 59.171 5
      vertex 0 59.171 -5
    endloop
  endfacet
  facet normal 0 1 0
    outer loop
      vertex 0 59.171 -5
      vertex 5.362 59.171 5
      vertex 5.362 59.171 -5
    endloop
  endfacet
  facet normal 0 -1 0
    outer loop
      vertex 0 1.316 -5
      vertex 5.079 1.316 -5
      vertex 5.079 1.316 5
    endloop
  endfacet
  facet normal 0 -1 0
    outer loop
      vertex 0 1.316 5
      vertex 0 1.316 -5
      vertex 5.079 1.316 5
    endloop
  endfacet
  facet normal -1 0 0
    outer loop
      vertex 0 1.316 5
      vertex 0 59.171 5
      vertex 0 1.316 -5
    endloop
  endfacet
  facet normal -1 0 0
    outer loop
      vertex 0 1.316 -5
      vertex 0 59.171 5
      vertex 0 59.171 -5
    endloop
  endfacet
  facet normal 1 0 0
    outer loop
      vertex 5.079 1.316 -5
      vertex 5.079 8.795 -5
      vertex 5.079 8.795 5
    endloop
  endfacet
  facet normal 1 0 0
    outer loop
      vertex 5.079 1.316 5
      vertex 5.079 1.316 -5
      vertex 5.079 8.795 5
    endloop
  endfacet
  facet normal -0.861534 -0.5077 0
    outer loop
      vertex 5.927 7.356 -5
      vertex 5.927 7.356 5
      vertex 5.079 8.795 -5
    endloop
  endfacet
  facet normal -0.861534 -0.5077 0
    outer loop
      vertex 5.079 8.795 -5
      vertex 5.927 7.356 5
      vertex 5.079 8.795 5
    endloop
  endfacet
  facet normal -0.814581 -0.58005 0
    outer loop
      vertex 7.082 5.734 -5
      vertex 7.082 5.734 5
      vertex 5.927 7.356 -5
    endloop
  endfacet
  facet normal -0.814581 -0.58005 0
    outer loop
      vertex 5.927 7.356 -5
      vertex 7.082 5.734 5
      vertex 5.927 7.356 5
    endloop
  endfacet
  facet normal -0.702345 -0.711836 0
    outer loop
      vertex 7.082 5.734 -5
      vertex 8.582 4.254 -5
      vertex 8.582 4.254 5
    endloop
  endfacet
  facet normal -0.702345 -0.711836 0
    outer loop
      vertex 7.082 5.734 5
      vertex 7.082 5.734 -5
      vertex 8.582 4.254 5
    endloop
  endfacet
  facet normal -0.591579 -0.806247 0
    outer loop
      vertex 8.582 4.254 -5
      vertex 10.366 2.945 -5
      vertex 10.366 2.945 5
    endloop
  endfacet
  facet normal -0.591579 -0.806247 0
    outer loop
      vertex 8.582 4.254 5
      vertex 8.582 4.254 -5
      vertex 10.366 2.945 5
    endloop
  endfacet
  facet normal -0.483898 -0.875125 0
    outer loop
      vertex 10.366 2.945 -5
      vertex 12.368 1.838 -5
      vertex 12.368 1.838 5
    endloop
  endfacet
  facet normal -0.483898 -0.875125 0
    outer loop
      vertex 10.366 2.945 5
      vertex 10.366 2.945 -5
      vertex 12.368 1.838 5
    endloop
  endfacet
  facet normal -0.375166 -0.926957 0
    outer loop
      vertex 12.368 1.838 -5
      vertex 14.525 0.965 -5
      vertex 14.525 0.965 5
    endloop
  endfacet
  facet normal -0.375166 -0.926957 0
    outer loop
      vertex 12.368 1.838 5
      vertex 12.368 1.838 -5
      vertex 14.525 0.965 5
    endloop
  endfacet
  facet normal -0.261157 -0.965296 0
    outer loop
      vertex 14.525 0.965 -5
      vertex 16.776 0.356 -5
      vertex 16.776 0.356 5
    endloop
  endfacet
  facet normal -0.261157 -0.965296 0
    outer loop
      vertex 14.525 0.965 5
      vertex 14.525 0.965 -5
      vertex 16.776 0.356 5
    endloop
  endfacet
  facet normal -0.137592 -0.990489 0
    outer loop
      vertex 16.776 0.356 -5
      vertex 19.058 0.039 -5
      vertex 19.058 0.039 5
    endloop
  endfacet
  facet normal -0.137592 -0.990489 0
    outer loop
      vertex 16.776 0.356 5
      vertex 16.776 0.356 -5
      vertex 19.058 0.039 5
    endloop
  endfacet
  facet normal 0.00266784 -0.999996 0
    outer loop
      vertex 19.058 0.039 -5
      vertex 21.307 0.045 -5
      vertex 21.307 0.045 5
    endloop
  endfacet
  facet normal 0.00266784 -0.999996 0
    outer loop
      vertex 19.058 0.039 5
      vertex 19.058 0.039 -5
      vertex 21.307 0.045 5
    endloop
  endfacet
  facet normal 0.202921 -0.979195 0
    outer loop
      vertex 21.307 0.045 -5
      vertex 26.755 1.174 -5
      vertex 26.755 1.174 5
    endloop
  endfacet
  facet normal 0.202921 -0.979195 0
    outer loop
      vertex 21.307 0.045 5
      vertex 21.307 0.045 -5
      vertex 26.755 1.174 5
    endloop
  endfacet
  facet normal 0.481194 -0.876614 0
    outer loop
      vertex 26.755 1.174 -5
      vertex 31.262 3.648 -5
      vertex 31.262 3.648 5
    endloop
  endfacet
  facet normal 0.481194 -0.876614 0
    outer loop
      vertex 26.755 1.174 5
      vertex 26.755 1.174 -5
      vertex 31.262 3.648 5
    endloop
  endfacet
  facet normal 0.732615 -0.680644 0
    outer loop
      vertex 31.262 3.648 -5
      vertex 34.785 7.44 -5
      vertex 34.785 7.44 5
    endloop
  endfacet
  facet normal 0.732615 -0.680644 0
    outer loop
      vertex 31.262 3.648 5
      vertex 31.262 3.648 -5
      vertex 34.785 7.44 5
    endloop
  endfacet
  facet normal 0.89748 -0.441056 0
    outer loop
      vertex 34.785 7.44 -5
      vertex 37.282 12.521 -5
      vertex 37.282 12.521 5
    endloop
  endfacet
  facet normal 0.89748 -0.441056 0
    outer loop
      vertex 34.785 7.44 5
      vertex 34.785 7.44 -5
      vertex 37.282 12.521 5
    endloop
  endfacet
  facet normal 0.975455 -0.220197 0
    outer loop
      vertex 37.282 12.521 -5
      vertex 38.545 18.116 -5
      vertex 38.545 18.116 5
    endloop
  endfacet
  facet normal 0.975455 -0.220197 0
    outer loop
      vertex 37.282 12.521 5
      vertex 37.282 12.521 -5
      vertex 38.545 18.116 5
    endloop
  endfacet
  facet normal 0.999583 -0.0288858 0
    outer loop
      vertex 38.545 18.116 -5
      vertex 38.717 24.068 -5
      vertex 38.717 24.068 5
    endloop
  endfacet
  facet normal 0.999583 -0.0288858 0
    outer loop
      vertex 38.545 18.116 5
      vertex 38.545 18.116 -5
      vertex 38.717 24.068 5
    endloop
  endfacet
  facet normal 0.988415 0.151776 0
    outer loop
      vertex 37.825 29.877 -5
      vertex 37.825 29.877 5
      vertex 38.717 24.068 5
    endloop
  endfacet
  facet normal 0.988415 0.151776 0
    outer loop
      vertex 38.717 24.068 -5
      vertex 37.825 29.877 -5
      vertex 38.717 24.068 5
    endloop
  endfacet
  facet normal 0.936976 0.349393 0
    outer loop
      vertex 35.899 35.042 -5
      vertex 35.899 35.042 5
      vertex 37.825 29.877 5
    endloop
  endfacet
  facet normal 0.936976 0.349393 0
    outer loop
      vertex 37.825 29.877 -5
      vertex 35.899 35.042 -5
      vertex 37.825 29.877 5
    endloop
  endfacet
  facet normal 0.837347 0.546672 0
    outer loop
      vertex 34.496 37.191 -5
      vertex 34.496 37.191 5
      vertex 35.899 35.042 5
    endloop
  endfacet
  facet normal 0.837347 0.546672 0
    outer loop
      vertex 35.899 35.042 -5
      vertex 34.496 37.191 -5
      vertex 35.899 35.042 5
    endloop
  endfacet
  facet normal 0.749257 0.66228 0
    outer loop
      vertex 32.6 39.336 -5
      vertex 32.6 39.336 5
      vertex 34.496 37.191 5
    endloop
  endfacet
  facet normal 0.749257 0.66228 0
    outer loop
      vertex 34.496 37.191 -5
      vertex 32.6 39.336 -5
      vertex 34.496 37.191 5
    endloop
  endfacet
  facet normal 0.661126 0.750275 0
    outer loop
      vertex 30.496 41.19 5
      vertex 32.6 39.336 5
      vertex 30.496 41.19 -5
    endloop
  endfacet
  facet normal 0.661126 0.750275 0
    outer loop
      vertex 30.496 41.19 -5
      vertex 32.6 39.336 5
      vertex 32.6 39.336 -5
    endloop
  endfacet
  facet normal 0.533457 0.845827 0
    outer loop
      vertex 28.476 42.464 5
      vertex 30.496 41.19 5
      vertex 28.476 42.464 -5
    endloop
  endfacet
  facet normal 0.533457 0.845827 0
    outer loop
      vertex 28.476 42.464 -5
      vertex 30.496 41.19 5
      vertex 30.496 41.19 -5
    endloop
  endfacet
  facet normal 0.398144 0.917323 0
    outer loop
      vertex 27.612 42.839 5
      vertex 28.476 42.464 5
      vertex 27.612 42.839 -5
    endloop
  endfacet
  facet normal 0.398144 0.917323 0
    outer loop
      vertex 27.612 42.839 -5
      vertex 28.476 42.464 5
      vertex 28.476 42.464 -5
    endloop
  endfacet
  facet normal 0.356233 0.934397 0
    outer loop
      vertex 26.631 43.213 5
      vertex 27.612 42.839 5
      vertex 26.631 43.213 -5
    endloop
  endfacet
  facet normal 0.356233 0.934397 0
    outer loop
      vertex 26.631 43.213 -5
      vertex 27.612 42.839 5
      vertex 27.612 42.839 -5
    endloop
  endfacet
  facet normal 0.320007 0.947415 0
    outer loop
      vertex 25.654 43.543 5
      vertex 26.631 43.213 5
      vertex 25.654 43.543 -5
    endloop
  endfacet
  facet normal 0.320007 0.947415 0
    outer loop
      vertex 25.654 43.543 -5
      vertex 26.631 43.213 5
      vertex 26.631 43.213 -5
    endloop
  endfacet
  facet normal 0.279956 0.960013 0
    outer loop
      vertex 24.807 43.79 5
      vertex 25.654 43.543 5
      vertex 24.807 43.79 -5
    endloop
  endfacet
  facet normal 0.279956 0.960013 0
    outer loop
      vertex 24.807 43.79 -5
      vertex 25.654 43.543 5
      vertex 25.654 43.543 -5
    endloop
  endfacet
  facet normal 0.143007 0.989722 0
    outer loop
      vertex 22.71 44.093 5
      vertex 24.807 43.79 5
      vertex 22.71 44.093 -5
    endloop
  endfacet
  facet normal 0.143007 0.989722 0
    outer loop
      vertex 22.71 44.093 -5
      vertex 24.807 43.79 5
      vertex 24.807 43.79 -5
    endloop
  endfacet
  facet normal 0.0398734 0.999205 0
    outer loop
      vertex 20.179 44.194 5
      vertex 22.71 44.093 5
      vertex 20.179 44.194 -5
    endloop
  endfacet
  facet normal 0.0398734 0.999205 0
    outer loop
      vertex 20.179 44.194 -5
      vertex 22.71 44.093 5
      vertex 22.71 44.093 -5
    endloop
  endfacet
  facet normal -0.0398577 0.999205 0
    outer loop
      vertex 17.647 44.093 5
      vertex 20.179 44.194 5
      vertex 17.647 44.093 -5
    endloop
  endfacet
  facet normal -0.0398577 0.999205 0
    outer loop
      vertex 17.647 44.093 -5
      vertex 20.179 44.194 5
      vertex 20.179 44.194 -5
    endloop
  endfacet
  facet normal -0.143007 0.989722 0
    outer loop
      vertex 15.55 43.79 5
      vertex 17.647 44.093 5
      vertex 15.55 43.79 -5
    endloop
  endfacet
  facet normal -0.143007 0.989722 0
    outer loop
      vertex 15.55 43.79 -5
      vertex 17.647 44.093 5
      vertex 17.647 44.093 -5
    endloop
  endfacet
  facet normal -0.338044 0.94113 0
    outer loop
      vertex 12.688 42.762 5
      vertex 15.55 43.79 5
      vertex 12.688 42.762 -5
    endloop
  endfacet
  facet normal -0.338044 0.94113 0
    outer loop
      vertex 12.688 42.762 -5
      vertex 15.55 43.79 5
      vertex 15.55 43.79 -5
    endloop
  endfacet
  facet normal -0.515636 0.856808 0
    outer loop
      vertex 10.036 41.166 5
      vertex 12.688 42.762 5
      vertex 10.036 41.166 -5
    endloop
  endfacet
  facet normal -0.515636 0.856808 0
    outer loop
      vertex 10.036 41.166 -5
      vertex 12.688 42.762 5
      vertex 12.688 42.762 -5
    endloop
  endfacet
  facet normal -0.66869 0.743541 0
    outer loop
      vertex 7.791 39.147 5
      vertex 10.036 41.166 5
      vertex 7.791 39.147 -5
    endloop
  endfacet
  facet normal -0.66869 0.743541 0
    outer loop
      vertex 7.791 39.147 -5
      vertex 10.036 41.166 5
      vertex 10.036 41.166 -5
    endloop
  endfacet
  facet normal 0.99953 0.0306453 0
    outer loop
      vertex 5.56 23.173 -5
      vertex 5.56 23.173 5
      vertex 5.672 19.52 5
    endloop
  endfacet
  facet normal 0.99953 0.0306453 0
    outer loop
      vertex 5.672 19.52 -5
      vertex 5.56 23.173 -5
      vertex 5.672 19.52 5
    endloop
  endfacet
  facet normal 0.99525 -0.097355 0
    outer loop
      vertex 5.56 23.173 -5
      vertex 5.892 26.567 -5
      vertex 5.892 26.567 5
    endloop
  endfacet
  facet normal 0.99525 -0.097355 0
    outer loop
      vertex 5.56 23.173 5
      vertex 5.56 23.173 -5
      vertex 5.892 26.567 5
    endloop
  endfacet
  facet normal 0.971492 -0.237072 0
    outer loop
      vertex 5.892 26.567 -5
      vertex 6.648 29.665 -5
      vertex 6.648 29.665 5
    endloop
  endfacet
  facet normal 0.971492 -0.237072 0
    outer loop
      vertex 5.892 26.567 5
      vertex 5.892 26.567 -5
      vertex 6.648 29.665 5
    endloop
  endfacet
  facet normal 0.922552 -0.385873 0
    outer loop
      vertex 6.648 29.665 -5
      vertex 7.802 32.424 -5
      vertex 7.802 32.424 5
    endloop
  endfacet
  facet normal 0.922552 -0.385873 0
    outer loop
      vertex 6.648 29.665 5
      vertex 6.648 29.665 -5
      vertex 7.802 32.424 5
    endloop
  endfacet
  facet normal 0.840157 -0.542344 0
    outer loop
      vertex 7.802 32.424 -5
      vertex 9.339 34.805 -5
      vertex 9.339 34.805 5
    endloop
  endfacet
  facet normal 0.840157 -0.542344 0
    outer loop
      vertex 7.802 32.424 5
      vertex 7.802 32.424 -5
      vertex 9.339 34.805 5
    endloop
  endfacet
  facet normal 0.719086 -0.694921 0
    outer loop
      vertex 9.339 34.805 -5
      vertex 11.237 36.769 -5
      vertex 11.237 36.769 5
    endloop
  endfacet
  facet normal 0.719086 -0.694921 0
    outer loop
      vertex 9.339 34.805 5
      vertex 9.339 34.805 -5
      vertex 11.237 36.769 5
    endloop
  endfacet
  facet normal 0.557865 -0.829931 0
    outer loop
      vertex 11.237 36.769 -5
      vertex 13.473 38.272 -5
      vertex 13.473 38.272 5
    endloop
  endfacet
  facet normal 0.557865 -0.829931 0
    outer loop
      vertex 11.237 36.769 5
      vertex 11.237 36.769 -5
      vertex 13.473 38.272 5
    endloop
  endfacet
  facet normal 0.36536 -0.930866 0
    outer loop
      vertex 13.473 38.272 -5
      vertex 16.031 39.276 -5
      vertex 16.031 39.276 5
    endloop
  endfacet
  facet normal 0.36536 -0.930866 0
    outer loop
      vertex 13.473 38.272 5
      vertex 13.473 38.272 -5
      vertex 16.031 39.276 5
    endloop
  endfacet
  facet normal 0.174974 -0.984573 0
    outer loop
      vertex 16.031 39.276 -5
      vertex 17.826 39.595 -5
      vertex 17.826 39.595 5
    endloop
  endfacet
  facet normal 0.174974 -0.984573 0
    outer loop
      vertex 16.031 39.276 5
      vertex 16.031 39.276 -5
      vertex 17.826 39.595 5
    endloop
  endfacet
  facet normal 0.0366196 -0.999329 0
    outer loop
      vertex 17.826 39.595 -5
      vertex 19.9 39.671 -5
      vertex 19.9 39.671 5
    endloop
  endfacet
  facet normal 0.0366196 -0.999329 0
    outer loop
      vertex 17.826 39.595 5
      vertex 17.826 39.595 -5
      vertex 19.9 39.671 5
    endloop
  endfacet
  facet normal -0.0752667 -0.997163 0
    outer loop
      vertex 19.9 39.671 -5
      vertex 21.98 39.514 -5
      vertex 21.98 39.514 5
    endloop
  endfacet
  facet normal -0.0752667 -0.997163 0
    outer loop
      vertex 19.9 39.671 5
      vertex 19.9 39.671 -5
      vertex 21.98 39.514 5
    endloop
  endfacet
  facet normal -0.205248 -0.97871 0
    outer loop
      vertex 21.98 39.514 -5
      vertex 23.792 39.134 -5
      vertex 23.792 39.134 5
    endloop
  endfacet
  facet normal -0.205248 -0.97871 0
    outer loop
      vertex 21.98 39.514 5
      vertex 21.98 39.514 -5
      vertex 23.792 39.134 5
    endloop
  endfacet
  facet normal -0.392183 -0.919887 0
    outer loop
      vertex 23.792 39.134 -5
      vertex 25.903 38.234 -5
      vertex 25.903 38.234 5
    endloop
  endfacet
  facet normal -0.392183 -0.919887 0
    outer loop
      vertex 23.792 39.134 5
      vertex 23.792 39.134 -5
      vertex 25.903 38.234 5
    endloop
  endfacet
  facet normal -0.569823 -0.821768 0
    outer loop
      vertex 25.903 38.234 -5
      vertex 27.785 36.929 -5
      vertex 27.785 36.929 5
    endloop
  endfacet
  facet normal -0.569823 -0.821768 0
    outer loop
      vertex 25.903 38.234 5
      vertex 25.903 38.234 -5
      vertex 27.785 36.929 5
    endloop
  endfacet
  facet normal -0.716208 -0.697887 0
    outer loop
      vertex 29.423 35.248 -5
      vertex 29.423 35.248 5
      vertex 27.785 36.929 -5
    endloop
  endfacet
  facet normal -0.716208 -0.697887 0
    outer loop
      vertex 27.785 36.929 -5
      vertex 29.423 35.248 5
      vertex 27.785 36.929 5
    endloop
  endfacet
  facet normal -0.828328 -0.560243 0
    outer loop
      vertex 30.796 33.218 -5
      vertex 30.796 33.218 5
      vertex 29.423 35.248 -5
    endloop
  endfacet
  facet normal -0.828328 -0.560243 0
    outer loop
      vertex 29.423 35.248 -5
      vertex 30.796 33.218 5
      vertex 29.423 35.248 5
    endloop
  endfacet
  facet normal -0.905927 -0.423435 0
    outer loop
      vertex 31.893 30.871 -5
      vertex 31.893 30.871 5
      vertex 30.796 33.218 -5
    endloop
  endfacet
  facet normal -0.905927 -0.423435 0
    outer loop
      vertex 30.796 33.218 -5
      vertex 31.893 30.871 5
      vertex 30.796 33.218 5
    endloop
  endfacet
  facet normal -0.95659 -0.291436 0
    outer loop
      vertex 32.697 28.232 -5
      vertex 32.697 28.232 5
      vertex 31.893 30.871 -5
    endloop
  endfacet
  facet normal -0.95659 -0.291436 0
    outer loop
      vertex 31.893 30.871 -5
      vertex 32.697 28.232 5
      vertex 31.893 30.871 5
    endloop
  endfacet
  facet normal -0.985846 -0.167652 0
    outer loop
      vertex 33.19 25.333 -5
      vertex 33.19 25.333 5
      vertex 32.697 28.232 -5
    endloop
  endfacet
  facet normal -0.985846 -0.167652 0
    outer loop
      vertex 32.697 28.232 -5
      vertex 33.19 25.333 5
      vertex 32.697 28.232 5
    endloop
  endfacet
  facet normal -0.998565 -0.0535458 0
    outer loop
      vertex 33.358 22.2 -5
      vertex 33.358 22.2 5
      vertex 33.19 25.333 -5
    endloop
  endfacet
  facet normal -0.998565 -0.0535458 0
    outer loop
      vertex 33.19 25.333 -5
      vertex 33.358 22.2 5
      vertex 33.19 25.333 5
    endloop
  endfacet
  facet normal -0.99747 0.0710939 0
    outer loop
      vertex 33.061 18.033 5
      vertex 33.358 22.2 5
      vertex 33.061 18.033 -5
    endloop
  endfacet
  facet normal -0.99747 0.0710939 0
    outer loop
      vertex 33.061 18.033 -5
      vertex 33.358 22.2 5
      vertex 33.358 22.2 -5
    endloop
  endfacet
  facet normal -0.97487 0.222775 0
    outer loop
      vertex 32.218 14.344 5
      vertex 33.061 18.033 5
      vertex 32.218 14.344 -5
    endloop
  endfacet
  facet normal -0.97487 0.222775 0
    outer loop
      vertex 32.218 14.344 -5
      vertex 33.061 18.033 5
      vertex 33.061 18.033 -5
    endloop
  endfacet
  facet normal -0.91964 0.392763 0
    outer loop
      vertex 30.865 11.176 5
      vertex 32.218 14.344 5
      vertex 30.865 11.176 -5
    endloop
  endfacet
  facet normal -0.91964 0.392763 0
    outer loop
      vertex 30.865 11.176 -5
      vertex 32.218 14.344 5
      vertex 32.218 14.344 -5
    endloop
  endfacet
  facet normal -0.819291 0.573378 0
    outer loop
      vertex 29.044 8.574 5
      vertex 30.865 11.176 5
      vertex 29.044 8.574 -5
    endloop
  endfacet
  facet normal -0.819291 0.573378 0
    outer loop
      vertex 29.044 8.574 -5
      vertex 30.865 11.176 5
      vertex 30.865 11.176 -5
    endloop
  endfacet
  facet normal -0.662072 0.74944 0
    outer loop
      vertex 26.788 6.581 5
      vertex 29.044 8.574 5
      vertex 26.788 6.581 -5
    endloop
  endfacet
  facet normal -0.662072 0.74944 0
    outer loop
      vertex 26.788 6.581 -5
      vertex 29.044 8.574 5
      vertex 29.044 8.574 -5
    endloop
  endfacet
  facet normal -0.450849 0.8926 0
    outer loop
      vertex 24.139 5.243 5
      vertex 26.788 6.581 5
      vertex 24.139 5.243 -5
    endloop
  endfacet
  facet normal -0.450849 0.8926 0
    outer loop
      vertex 24.139 5.243 -5
      vertex 26.788 6.581 5
      vertex 26.788 6.581 -5
    endloop
  endfacet
  facet normal -0.208174 0.978092 0
    outer loop
      vertex 21.132 4.603 5
      vertex 24.139 5.243 5
      vertex 21.132 4.603 -5
    endloop
  endfacet
  facet normal -0.208174 0.978092 0
    outer loop
      vertex 21.132 4.603 -5
      vertex 24.139 5.243 5
      vertex 24.139 5.243 -5
    endloop
  endfacet
  facet normal 0.0300706 0.999548 0
    outer loop
      vertex 17.808 4.703 5
      vertex 21.132 4.603 5
      vertex 17.808 4.703 -5
    endloop
  endfacet
  facet normal 0.0300706 0.999548 0
    outer loop
      vertex 17.808 4.703 -5
      vertex 21.132 4.603 5
      vertex 21.132 4.603 -5
    endloop
  endfacet
  facet normal 0.225525 0.974237 0
    outer loop
      vertex 15.35 5.272 5
      vertex 17.808 4.703 5
      vertex 15.35 5.272 -5
    endloop
  endfacet
  facet normal 0.225525 0.974237 0
    outer loop
      vertex 15.35 5.272 -5
      vertex 17.808 4.703 5
      vertex 17.808 4.703 -5
    endloop
  endfacet
  facet normal 0.401273 0.915958 0
    outer loop
      vertex 13.129 6.245 5
      vertex 15.35 5.272 5
      vertex 13.129 6.245 -5
    endloop
  endfacet
  facet normal 0.401273 0.915958 0
    outer loop
      vertex 13.129 6.245 -5
      vertex 15.35 5.272 5
      vertex 15.35 5.272 -5
    endloop
  endfacet
  facet normal 0.568143 0.82293 0
    outer loop
      vertex 11.162 7.603 5
      vertex 13.129 6.245 5
      vertex 11.162 7.603 -5
    endloop
  endfacet
  facet normal 0.568143 0.82293 0
    outer loop
      vertex 11.162 7.603 -5
      vertex 13.129 6.245 5
      vertex 13.129 6.245 -5
    endloop
  endfacet
  facet normal 0.712662 0.701507 0
    outer loop
      vertex 9.464 9.328 -5
      vertex 9.464 9.328 5
      vertex 11.162 7.603 5
    endloop
  endfacet
  facet normal 0.712662 0.701507 0
    outer loop
      vertex 11.162 7.603 -5
      vertex 9.464 9.328 -5
      vertex 11.162 7.603 5
    endloop
  endfacet
  facet normal 0.826244 0.563312 0
    outer loop
      vertex 8.05 11.402 -5
      vertex 8.05 11.402 5
      vertex 9.464 9.328 5
    endloop
  endfacet
  facet normal 0.826244 0.563312 0
    outer loop
      vertex 9.464 9.328 -5
      vertex 8.05 11.402 -5
      vertex 9.464 9.328 5
    endloop
  endfacet
  facet normal 0.907328 0.420423 0
    outer loop
      vertex 6.937 13.804 -5
      vertex 6.937 13.804 5
      vertex 8.05 11.402 5
    endloop
  endfacet
  facet normal 0.907328 0.420423 0
    outer loop
      vertex 8.05 11.402 -5
      vertex 6.937 13.804 -5
      vertex 8.05 11.402 5
    endloop
  endfacet
  facet normal 0.95936 0.282185 0
    outer loop
      vertex 6.139 16.517 -5
      vertex 6.139 16.517 5
      vertex 6.937 13.804 5
    endloop
  endfacet
  facet normal 0.95936 0.282185 0
    outer loop
      vertex 6.937 13.804 -5
      vertex 6.139 16.517 -5
      vertex 6.937 13.804 5
    endloop
  endfacet
  facet normal 0.988123 0.153664 0
    outer loop
      vertex 5.672 19.52 -5
      vertex 5.672 19.52 5
      vertex 6.139 16.517 5
    endloop
  endfacet
  facet normal 0.988123 0.153664 0
    outer loop
      vertex 6.139 16.517 -5
      vertex 5.672 19.52 -5
      vertex 6.139 16.517 5
    endloop
  endfacet
endsolid OpenSCAD_Model
