solid OpenSCAD_Model
  facet normal 0.999991 -0.00420986 0
    outer loop
      vertex 12.429 19.925 -5
      vertex 12.513 39.878 -5
      vertex 12.513 39.878 5
    endloop
  endfacet
  facet normal 0.999991 -0.00420986 0
    outer loop
      vertex 12.429 19.925 5
      vertex 12.429 19.925 -5
      vertex 12.513 39.878 5
    endloop
  endfacet
  facet normal -0.94529 -0.32623 0
    outer loop
      vertex 19.399 19.925 -5
      vertex 19.399 19.925 5
      vertex 12.513 39.878 -5
    endloop
  endfacet
  facet normal -0.94529 -0.32623 0
    outer loop
      vertex 12.513 39.878 -5
      vertex 19.399 19.925 5
      vertex 12.513 39.878 5
    endloop
  endfacet
  facet normal 0 0 -1
    outer loop
      vertex 0.001 44.836 -5
      vertex 0.01 49.126 -5
      vertex 0 39.937 -5
    endloop
  endfacet
  facet normal 0 0 -1
    outer loop
      vertex 0 39.937 -5
      vertex 0.01 49.126 -5
      vertex 0.023 52.687 -5
    endloop
  endfacet
  facet normal 0 0 -1
    outer loop
      vertex 0 39.937 -5
      vertex 0.023 52.687 -5
      vertex 0.041 55.399 -5
    endloop
  endfacet
  facet normal 0 0 -1
    outer loop
      vertex 0 39.937 -5
      vertex 0.041 55.399 -5
      vertex 0.066 57.143 -5
    endloop
  endfacet
  facet normal 0 0 -1
    outer loop
      vertex 0 39.937 -5
      vertex 0.066 57.143 -5
      vertex 0.095 57.799 -5
    endloop
  endfacet
  facet normal 0 0 -1
    outer loop
      vertex 0 39.937 -5
      vertex 0.095 57.799 -5
      vertex 0.579 57.96 -5
    endloop
  endfacet
  facet normal 0 0 -1
    outer loop
      vertex 0 39.937 -5
      vertex 0.579 57.96 -5
      vertex 2.081 58.065 -5
    endloop
  endfacet
  facet normal 0 0 -1
    outer loop
      vertex 0 39.937 -5
      vertex 2.081 58.065 -5
      vertex 4.869 58.121 -5
    endloop
  endfacet
  facet normal 0 0 -1
    outer loop
      vertex 0 39.937 -5
      vertex 4.869 58.121 -5
      vertex 9.211 58.138 -5
    endloop
  endfacet
  facet normal 0 0 -1
    outer loop
      vertex 0 39.937 -5
      vertex 9.211 58.138 -5
      vertex 18.186 58.138 -5
    endloop
  endfacet
  facet normal 0 0 -1
    outer loop
      vertex 12.513 39.878 -5
      vertex 18.186 58.138 -5
      vertex 24.507 38.41 -5
    endloop
  endfacet
  facet normal 0 0 -1
    outer loop
      vertex 31.202 19.461 -5
      vertex 53.435 58.082 -5
      vertex 31.026 18.994 -5
    endloop
  endfacet
  facet normal 0 0 -1
    outer loop
      vertex 31.623 20.661 -5
      vertex 53.435 58.082 -5
      vertex 31.202 19.461 -5
    endloop
  endfacet
  facet normal 0 0 -1
    outer loop
      vertex 32.267 22.512 -5
      vertex 53.435 58.082 -5
      vertex 31.623 20.661 -5
    endloop
  endfacet
  facet normal 0 0 -1
    outer loop
      vertex 33.1 24.936 -5
      vertex 53.435 58.082 -5
      vertex 32.267 22.512 -5
    endloop
  endfacet
  facet normal 0 0 -1
    outer loop
      vertex 34.098 27.85 -5
      vertex 53.435 58.082 -5
      vertex 33.1 24.936 -5
    endloop
  endfacet
  facet normal 0 0 -1
    outer loop
      vertex 36.475 34.838 -5
      vertex 37.799 38.749 -5
      vertex 44.405 58.138 -5
    endloop
  endfacet
  facet normal 0 0 -1
    outer loop
      vertex 36.475 34.838 -5
      vertex 44.405 58.138 -5
      vertex 35.232 31.178 -5
    endloop
  endfacet
  facet normal 0 0 -1
    outer loop
      vertex 35.232 31.178 -5
      vertex 44.405 58.138 -5
      vertex 53.435 58.082 -5
    endloop
  endfacet
  facet normal 0 0 -1
    outer loop
      vertex 35.232 31.178 -5
      vertex 53.435 58.082 -5
      vertex 34.098 27.85 -5
    endloop
  endfacet
  facet normal 0 0 -1
    outer loop
      vertex 31.026 18.994 -5
      vertex 53.435 58.082 -5
      vertex 62.466 57.997 -5
    endloop
  endfacet
  facet normal 0 0 -1
    outer loop
      vertex 50.133 19.756 -5
      vertex 62.466 57.997 -5
      vertex 62.466 0.142 -5
    endloop
  endfacet
  facet normal 0 0 -1
    outer loop
      vertex 36.275 0 -5
      vertex 19.399 19.925 -5
      vertex 31.026 18.994 -5
    endloop
  endfacet
  facet normal 0 0 -1
    outer loop
      vertex 36.275 0 -5
      vertex 31.026 18.994 -5
      vertex 43.163 19.756 -5
    endloop
  endfacet
  facet normal 0 0 -1
    outer loop
      vertex 50.049 39.484 -5
      vertex 62.466 57.997 -5
      vertex 50.133 19.756 -5
    endloop
  endfacet
  facet normal 0 0 -1
    outer loop
      vertex 31.026 18.994 -5
      vertex 62.466 57.997 -5
      vertex 50.049 39.484 -5
    endloop
  endfacet
  facet normal 0 0 -1
    outer loop
      vertex 31.026 18.994 -5
      vertex 50.049 39.484 -5
      vertex 43.163 19.756 -5
    endloop
  endfacet
  facet normal 0 0 -1
    outer loop
      vertex 12.513 39.878 -5
      vertex 29.048 24.565 -5
      vertex 29.85 22.199 -5
    endloop
  endfacet
  facet normal 0 0 -1
    outer loop
      vertex 19.399 19.925 -5
      vertex 36.275 0 -5
      vertex 26.314 0 -5
    endloop
  endfacet
  facet normal 0 0 -1
    outer loop
      vertex 12.513 39.878 -5
      vertex 25.789 34.45 -5
      vertex 26.99 30.77 -5
    endloop
  endfacet
  facet normal 0 0 -1
    outer loop
      vertex 12.513 39.878 -5
      vertex 24.507 38.41 -5
      vertex 25.789 34.45 -5
    endloop
  endfacet
  facet normal 0 0 -1
    outer loop
      vertex 0 39.937 -5
      vertex 18.186 58.138 -5
      vertex 12.513 39.878 -5
    endloop
  endfacet
  facet normal 0 0 -1
    outer loop
      vertex 12.429 19.925 -5
      vertex 0 39.937 -5
      vertex 12.513 39.878 -5
    endloop
  endfacet
  facet normal 0 0 -1
    outer loop
      vertex 0 39.937 -5
      vertex 12.429 19.925 -5
      vertex 12.372 0 -5
    endloop
  endfacet
  facet normal 0 0 -1
    outer loop
      vertex 0 39.937 -5
      vertex 12.372 0 -5
      vertex 6.219 0.056 -5
    endloop
  endfacet
  facet normal 0 0 -1
    outer loop
      vertex 0 39.937 -5
      vertex 6.219 0.056 -5
      vertex 0.095 0.142 -5
    endloop
  endfacet
  facet normal 0 0 -1
    outer loop
      vertex 0 39.937 -5
      vertex 0.095 0.142 -5
      vertex 0.011 28.787 -5
    endloop
  endfacet
  facet normal 0 0 -1
    outer loop
      vertex 0 39.937 -5
      vertex 0.011 28.787 -5
      vertex 0.003 34.547 -5
    endloop
  endfacet
  facet normal 0 0 -1
    outer loop
      vertex 50.133 19.756 -5
      vertex 62.466 0.142 -5
      vertex 56.343 0.056 -5
    endloop
  endfacet
  facet normal 0 0 -1
    outer loop
      vertex 50.133 19.756 -5
      vertex 56.343 0.056 -5
      vertex 50.19 0 -5
    endloop
  endfacet
  facet normal 0 0 -1
    outer loop
      vertex 12.513 39.878 -5
      vertex 26.99 30.77 -5
      vertex 28.086 27.448 -5
    endloop
  endfacet
  facet normal 0 0 -1
    outer loop
      vertex 12.513 39.878 -5
      vertex 28.086 27.448 -5
      vertex 29.048 24.565 -5
    endloop
  endfacet
  facet normal 0 0 -1
    outer loop
      vertex 12.513 39.878 -5
      vertex 29.85 22.199 -5
      vertex 30.464 20.428 -5
    endloop
  endfacet
  facet normal 0 0 -1
    outer loop
      vertex 12.513 39.878 -5
      vertex 30.464 20.428 -5
      vertex 30.865 19.334 -5
    endloop
  endfacet
  facet normal 0 0 -1
    outer loop
      vertex 12.513 39.878 -5
      vertex 30.865 19.334 -5
      vertex 31.026 18.994 -5
    endloop
  endfacet
  facet normal 0 0 -1
    outer loop
      vertex 12.513 39.878 -5
      vertex 31.026 18.994 -5
      vertex 19.399 19.925 -5
    endloop
  endfacet
  facet normal 0.999996 -0.00286072 0
    outer loop
      vertex 12.372 0 -5
      vertex 12.429 19.925 -5
      vertex 12.429 19.925 5
    endloop
  endfacet
  facet normal 0.999996 -0.00286072 0
    outer loop
      vertex 12.372 0 5
      vertex 12.372 0 -5
      vertex 12.429 19.925 5
    endloop
  endfacet
  facet normal 0 0 1
    outer loop
      vertex 0 39.937 5
      vertex 0.003 34.547 5
      vertex 0.011 28.787 5
    endloop
  endfacet
  facet normal 0 0 1
    outer loop
      vertex 6.219 0.056 5
      vertex 0 39.937 5
      vertex 0.095 0.142 5
    endloop
  endfacet
  facet normal 0 0 1
    outer loop
      vertex 0.095 0.142 5
      vertex 0 39.937 5
      vertex 0.011 28.787 5
    endloop
  endfacet
  facet normal 0 0 1
    outer loop
      vertex 12.372 0 5
      vertex 0 39.937 5
      vertex 6.219 0.056 5
    endloop
  endfacet
  facet normal 0 0 1
    outer loop
      vertex 12.429 19.925 5
      vertex 0 39.937 5
      vertex 12.372 0 5
    endloop
  endfacet
  facet normal 0 0 1
    outer loop
      vertex 12.513 39.878 5
      vertex 0 39.937 5
      vertex 12.429 19.925 5
    endloop
  endfacet
  facet normal 0 0 1
    outer loop
      vertex 34.098 27.85 5
      vertex 33.1 24.936 5
      vertex 43.163 19.756 5
    endloop
  endfacet
  facet normal 0 0 1
    outer loop
      vertex 26.314 0 5
      vertex 12.513 39.878 5
      vertex 19.399 19.925 5
    endloop
  endfacet
  facet normal 0 0 1
    outer loop
      vertex 36.275 0 5
      vertex 12.513 39.878 5
      vertex 26.314 0 5
    endloop
  endfacet
  facet normal 0 0 1
    outer loop
      vertex 31.026 18.994 5
      vertex 12.513 39.878 5
      vertex 36.275 0 5
    endloop
  endfacet
  facet normal 0 0 1
    outer loop
      vertex 30.865 19.334 5
      vertex 30.464 20.428 5
      vertex 12.513 39.878 5
    endloop
  endfacet
  facet normal 0 0 1
    outer loop
      vertex 56.343 0.056 5
      vertex 50.049 39.484 5
      vertex 50.133 19.756 5
    endloop
  endfacet
  facet normal 0 0 1
    outer loop
      vertex 56.343 0.056 5
      vertex 50.133 19.756 5
      vertex 50.19 0 5
    endloop
  endfacet
  facet normal 0 0 1
    outer loop
      vertex 62.466 0.142 5
      vertex 50.049 39.484 5
      vertex 56.343 0.056 5
    endloop
  endfacet
  facet normal 0 0 1
    outer loop
      vertex 62.466 57.997 5
      vertex 50.049 39.484 5
      vertex 62.466 0.142 5
    endloop
  endfacet
  facet normal 0 0 1
    outer loop
      vertex 24.507 38.41 5
      vertex 18.186 58.138 5
      vertex 12.513 39.878 5
    endloop
  endfacet
  facet normal 0 0 1
    outer loop
      vertex 50.049 39.484 5
      vertex 37.799 38.749 5
      vertex 43.163 19.756 5
    endloop
  endfacet
  facet normal 0 0 1
    outer loop
      vertex 37.799 38.749 5
      vertex 36.475 34.838 5
      vertex 43.163 19.756 5
    endloop
  endfacet
  facet normal 0 0 1
    outer loop
      vertex 36.475 34.838 5
      vertex 35.232 31.178 5
      vertex 43.163 19.756 5
    endloop
  endfacet
  facet normal 0 0 1
    outer loop
      vertex 35.232 31.178 5
      vertex 34.098 27.85 5
      vertex 43.163 19.756 5
    endloop
  endfacet
  facet normal 0 0 1
    outer loop
      vertex 43.163 19.756 5
      vertex 33.1 24.936 5
      vertex 36.275 0 5
    endloop
  endfacet
  facet normal 0 0 1
    outer loop
      vertex 33.1 24.936 5
      vertex 32.267 22.512 5
      vertex 36.275 0 5
    endloop
  endfacet
  facet normal 0 0 1
    outer loop
      vertex 32.267 22.512 5
      vertex 31.623 20.661 5
      vertex 36.275 0 5
    endloop
  endfacet
  facet normal 0 0 1
    outer loop
      vertex 31.623 20.661 5
      vertex 31.202 19.461 5
      vertex 36.275 0 5
    endloop
  endfacet
  facet normal 0 0 1
    outer loop
      vertex 31.202 19.461 5
      vertex 31.026 18.994 5
      vertex 36.275 0 5
    endloop
  endfacet
  facet normal 0 0 1
    outer loop
      vertex 30.865 19.334 5
      vertex 12.513 39.878 5
      vertex 31.026 18.994 5
    endloop
  endfacet
  facet normal 0 0 1
    outer loop
      vertex 29.85 22.199 5
      vertex 29.048 24.565 5
      vertex 12.513 39.878 5
    endloop
  endfacet
  facet normal 0 0 1
    outer loop
      vertex 29.85 22.199 5
      vertex 12.513 39.878 5
      vertex 30.464 20.428 5
    endloop
  endfacet
  facet normal 0 0 1
    outer loop
      vertex 29.048 24.565 5
      vertex 28.086 27.448 5
      vertex 12.513 39.878 5
    endloop
  endfacet
  facet normal 0 0 1
    outer loop
      vertex 28.086 27.448 5
      vertex 26.99 30.77 5
      vertex 12.513 39.878 5
    endloop
  endfacet
  facet normal 0 0 1
    outer loop
      vertex 26.99 30.77 5
      vertex 25.789 34.45 5
      vertex 12.513 39.878 5
    endloop
  endfacet
  facet normal 0 0 1
    outer loop
      vertex 25.789 34.45 5
      vertex 24.507 38.41 5
      vertex 12.513 39.878 5
    endloop
  endfacet
  facet normal 0 0 1
    outer loop
      vertex 12.513 39.878 5
      vertex 18.186 58.138 5
      vertex 0 39.937 5
    endloop
  endfacet
  facet normal 0 0 1
    outer loop
      vertex 9.211 58.138 5
      vertex 0 39.937 5
      vertex 18.186 58.138 5
    endloop
  endfacet
  facet normal 0 0 1
    outer loop
      vertex 4.869 58.121 5
      vertex 0 39.937 5
      vertex 9.211 58.138 5
    endloop
  endfacet
  facet normal 0 0 1
    outer loop
      vertex 2.081 58.065 5
      vertex 0 39.937 5
      vertex 4.869 58.121 5
    endloop
  endfacet
  facet normal 0 0 1
    outer loop
      vertex 0.579 57.96 5
      vertex 0 39.937 5
      vertex 2.081 58.065 5
    endloop
  endfacet
  facet normal 0 0 1
    outer loop
      vertex 0.095 57.799 5
      vertex 0 39.937 5
      vertex 0.579 57.96 5
    endloop
  endfacet
  facet normal 0 0 1
    outer loop
      vertex 0.066 57.143 5
      vertex 0 39.937 5
      vertex 0.095 57.799 5
    endloop
  endfacet
  facet normal 0 0 1
    outer loop
      vertex 0.041 55.399 5
      vertex 0 39.937 5
      vertex 0.066 57.143 5
    endloop
  endfacet
  facet normal 0 0 1
    outer loop
      vertex 0.023 52.687 5
      vertex 0 39.937 5
      vertex 0.041 55.399 5
    endloop
  endfacet
  facet normal 0 0 1
    outer loop
      vertex 0.01 49.126 5
      vertex 0 39.937 5
      vertex 0.023 52.687 5
    endloop
  endfacet
  facet normal 0 0 1
    outer loop
      vertex 0.001 44.836 5
      vertex 0 39.937 5
      vertex 0.01 49.126 5
    endloop
  endfacet
  facet normal 0 0 1
    outer loop
      vertex 44.405 58.138 5
      vertex 62.466 57.997 5
      vertex 53.435 58.082 5
    endloop
  endfacet
  facet normal 0 0 1
    outer loop
      vertex 44.405 58.138 5
      vertex 50.049 39.484 5
      vertex 62.466 57.997 5
    endloop
  endfacet
  facet normal 0 0 1
    outer loop
      vertex 44.405 58.138 5
      vertex 37.799 38.749 5
      vertex 50.049 39.484 5
    endloop
  endfacet
  facet normal -0.944724 -0.327868 0
    outer loop
      vertex 26.314 0 -5
      vertex 26.314 0 5
      vertex 19.399 19.925 -5
    endloop
  endfacet
  facet normal -0.944724 -0.327868 0
    outer loop
      vertex 19.399 19.925 -5
      vertex 26.314 0 5
      vertex 19.399 19.925 5
    endloop
  endfacet
  facet normal -1 -0.000556586 0
    outer loop
      vertex 0.003 34.547 -5
      vertex 0.003 34.547 5
      vertex 0 39.937 -5
    endloop
  endfacet
  facet normal -1 -0.000556586 0
    outer loop
      vertex 0 39.937 -5
      vertex 0.003 34.547 5
      vertex 0 39.937 5
    endloop
  endfacet
  facet normal -1 0.000204123 0
    outer loop
      vertex 0 39.937 5
      vertex 0.001 44.836 5
      vertex 0 39.937 -5
    endloop
  endfacet
  facet normal -1 0.000204123 0
    outer loop
      vertex 0 39.937 -5
      vertex 0.001 44.836 5
      vertex 0.001 44.836 -5
    endloop
  endfacet
  facet normal -0.999999 -0.00138889 0
    outer loop
      vertex 0.011 28.787 -5
      vertex 0.011 28.787 5
      vertex 0.003 34.547 -5
    endloop
  endfacet
  facet normal -0.999999 -0.00138889 0
    outer loop
      vertex 0.003 34.547 -5
      vertex 0.011 28.787 5
      vertex 0.003 34.547 5
    endloop
  endfacet
  facet normal -0.999996 -0.00293244 0
    outer loop
      vertex 0.095 0.142 -5
      vertex 0.095 0.142 5
      vertex 0.011 28.787 -5
    endloop
  endfacet
  facet normal -0.999996 -0.00293244 0
    outer loop
      vertex 0.011 28.787 -5
      vertex 0.095 0.142 5
      vertex 0.011 28.787 5
    endloop
  endfacet
  facet normal -0.0140417 -0.999901 0
    outer loop
      vertex 0.095 0.142 -5
      vertex 6.219 0.056 -5
      vertex 6.219 0.056 5
    endloop
  endfacet
  facet normal -0.0140417 -0.999901 0
    outer loop
      vertex 0.095 0.142 5
      vertex 0.095 0.142 -5
      vertex 6.219 0.056 5
    endloop
  endfacet
  facet normal -0.00910087 -0.999959 0
    outer loop
      vertex 6.219 0.056 -5
      vertex 12.372 0 -5
      vertex 12.372 0 5
    endloop
  endfacet
  facet normal -0.00910087 -0.999959 0
    outer loop
      vertex 6.219 0.056 5
      vertex 6.219 0.056 -5
      vertex 12.372 0 5
    endloop
  endfacet
  facet normal 0 -1 0
    outer loop
      vertex 26.314 0 -5
      vertex 36.275 0 -5
      vertex 36.275 0 5
    endloop
  endfacet
  facet normal 0 -1 0
    outer loop
      vertex 26.314 0 5
      vertex 26.314 0 -5
      vertex 36.275 0 5
    endloop
  endfacet
  facet normal 0.944254 -0.329218 0
    outer loop
      vertex 36.275 0 -5
      vertex 43.163 19.756 -5
      vertex 43.163 19.756 5
    endloop
  endfacet
  facet normal 0.944254 -0.329218 0
    outer loop
      vertex 36.275 0 5
      vertex 36.275 0 -5
      vertex 43.163 19.756 5
    endloop
  endfacet
  facet normal 0.944139 -0.329549 0
    outer loop
      vertex 43.163 19.756 -5
      vertex 50.049 39.484 -5
      vertex 50.049 39.484 5
    endloop
  endfacet
  facet normal 0.944139 -0.329549 0
    outer loop
      vertex 43.163 19.756 5
      vertex 43.163 19.756 -5
      vertex 50.049 39.484 5
    endloop
  endfacet
  facet normal -0.999991 -0.00425787 0
    outer loop
      vertex 50.133 19.756 -5
      vertex 50.133 19.756 5
      vertex 50.049 39.484 -5
    endloop
  endfacet
  facet normal -0.999991 -0.00425787 0
    outer loop
      vertex 50.049 39.484 -5
      vertex 50.133 19.756 5
      vertex 50.049 39.484 5
    endloop
  endfacet
  facet normal -0.999996 -0.00288519 0
    outer loop
      vertex 50.19 0 -5
      vertex 50.19 0 5
      vertex 50.133 19.756 -5
    endloop
  endfacet
  facet normal -0.999996 -0.00288519 0
    outer loop
      vertex 50.133 19.756 -5
      vertex 50.19 0 5
      vertex 50.133 19.756 5
    endloop
  endfacet
  facet normal 0.00910087 -0.999959 0
    outer loop
      vertex 50.19 0 -5
      vertex 56.343 0.056 -5
      vertex 56.343 0.056 5
    endloop
  endfacet
  facet normal 0.00910087 -0.999959 0
    outer loop
      vertex 50.19 0 5
      vertex 50.19 0 -5
      vertex 56.343 0.056 5
    endloop
  endfacet
  facet normal 0.014044 -0.999901 0
    outer loop
      vertex 56.343 0.056 -5
      vertex 62.466 0.142 -5
      vertex 62.466 0.142 5
    endloop
  endfacet
  facet normal 0.014044 -0.999901 0
    outer loop
      vertex 56.343 0.056 5
      vertex 56.343 0.056 -5
      vertex 62.466 0.142 5
    endloop
  endfacet
  facet normal 1 0 0
    outer loop
      vertex 62.466 0.142 -5
      vertex 62.466 57.997 -5
      vertex 62.466 57.997 5
    endloop
  endfacet
  facet normal 1 0 0
    outer loop
      vertex 62.466 0.142 5
      vertex 62.466 0.142 -5
      vertex 62.466 57.997 5
    endloop
  endfacet
  facet normal 0.00941161 0.999956 0
    outer loop
      vertex 53.435 58.082 5
      vertex 62.466 57.997 5
      vertex 53.435 58.082 -5
    endloop
  endfacet
  facet normal 0.00941161 0.999956 0
    outer loop
      vertex 53.435 58.082 -5
      vertex 62.466 57.997 5
      vertex 62.466 57.997 -5
    endloop
  endfacet
  facet normal 0.00620143 0.999981 0
    outer loop
      vertex 44.405 58.138 5
      vertex 53.435 58.082 5
      vertex 44.405 58.138 -5
    endloop
  endfacet
  facet normal 0.00620143 0.999981 0
    outer loop
      vertex 44.405 58.138 -5
      vertex 53.435 58.082 5
      vertex 53.435 58.082 -5
    endloop
  endfacet
  facet normal -0.946568 0.322504 0
    outer loop
      vertex 37.799 38.749 5
      vertex 44.405 58.138 5
      vertex 37.799 38.749 -5
    endloop
  endfacet
  facet normal -0.946568 0.322504 0
    outer loop
      vertex 37.799 38.749 -5
      vertex 44.405 58.138 5
      vertex 44.405 58.138 -5
    endloop
  endfacet
  facet normal -0.947196 0.320656 0
    outer loop
      vertex 36.475 34.838 5
      vertex 37.799 38.749 5
      vertex 36.475 34.838 -5
    endloop
  endfacet
  facet normal -0.947196 0.320656 0
    outer loop
      vertex 36.475 34.838 -5
      vertex 37.799 38.749 5
      vertex 37.799 38.749 -5
    endloop
  endfacet
  facet normal -0.946883 0.321578 0
    outer loop
      vertex 35.232 31.178 5
      vertex 36.475 34.838 5
      vertex 35.232 31.178 -5
    endloop
  endfacet
  facet normal -0.946883 0.321578 0
    outer loop
      vertex 35.232 31.178 -5
      vertex 36.475 34.838 5
      vertex 36.475 34.838 -5
    endloop
  endfacet
  facet normal -0.946558 0.322535 0
    outer loop
      vertex 34.098 27.85 5
      vertex 35.232 31.178 5
      vertex 34.098 27.85 -5
    endloop
  endfacet
  facet normal -0.946558 0.322535 0
    outer loop
      vertex 34.098 27.85 -5
      vertex 35.232 31.178 5
      vertex 35.232 31.178 -5
    endloop
  endfacet
  facet normal -0.946054 0.324009 0
    outer loop
      vertex 33.1 24.936 5
      vertex 34.098 27.85 5
      vertex 33.1 24.936 -5
    endloop
  endfacet
  facet normal -0.946054 0.324009 0
    outer loop
      vertex 33.1 24.936 -5
      vertex 34.098 27.85 5
      vertex 34.098 27.85 -5
    endloop
  endfacet
  facet normal -0.945717 0.324993 0
    outer loop
      vertex 32.267 22.512 5
      vertex 33.1 24.936 5
      vertex 32.267 22.512 -5
    endloop
  endfacet
  facet normal -0.945717 0.324993 0
    outer loop
      vertex 32.267 22.512 -5
      vertex 33.1 24.936 5
      vertex 33.1 24.936 -5
    endloop
  endfacet
  facet normal -0.944469 0.3286 0
    outer loop
      vertex 31.623 20.661 5
      vertex 32.267 22.512 5
      vertex 31.623 20.661 -5
    endloop
  endfacet
  facet normal -0.944469 0.3286 0
    outer loop
      vertex 31.623 20.661 -5
      vertex 32.267 22.512 5
      vertex 32.267 22.512 -5
    endloop
  endfacet
  facet normal -0.943613 0.331051 0
    outer loop
      vertex 31.202 19.461 5
      vertex 31.623 20.661 5
      vertex 31.202 19.461 -5
    endloop
  endfacet
  facet normal -0.943613 0.331051 0
    outer loop
      vertex 31.202 19.461 -5
      vertex 31.623 20.661 5
      vertex 31.623 20.661 -5
    endloop
  endfacet
  facet normal -0.935751 0.35266 0
    outer loop
      vertex 31.026 18.994 5
      vertex 31.202 19.461 5
      vertex 31.026 18.994 -5
    endloop
  endfacet
  facet normal -0.935751 0.35266 0
    outer loop
      vertex 31.026 18.994 -5
      vertex 31.202 19.461 5
      vertex 31.202 19.461 -5
    endloop
  endfacet
  facet normal 0.903792 0.427972 0
    outer loop
      vertex 30.865 19.334 -5
      vertex 30.865 19.334 5
      vertex 31.026 18.994 5
    endloop
  endfacet
  facet normal 0.903792 0.427972 0
    outer loop
      vertex 31.026 18.994 -5
      vertex 30.865 19.334 -5
      vertex 31.026 18.994 5
    endloop
  endfacet
  facet normal 0.938913 0.344154 0
    outer loop
      vertex 30.464 20.428 -5
      vertex 30.464 20.428 5
      vertex 30.865 19.334 5
    endloop
  endfacet
  facet normal 0.938913 0.344154 0
    outer loop
      vertex 30.865 19.334 -5
      vertex 30.464 20.428 -5
      vertex 30.865 19.334 5
    endloop
  endfacet
  facet normal 0.944827 0.327569 0
    outer loop
      vertex 29.85 22.199 -5
      vertex 29.85 22.199 5
      vertex 30.464 20.428 5
    endloop
  endfacet
  facet normal 0.944827 0.327569 0
    outer loop
      vertex 30.464 20.428 -5
      vertex 29.85 22.199 -5
      vertex 30.464 20.428 5
    endloop
  endfacet
  facet normal 0.94707 0.321027 0
    outer loop
      vertex 29.048 24.565 -5
      vertex 29.048 24.565 5
      vertex 29.85 22.199 5
    endloop
  endfacet
  facet normal 0.94707 0.321027 0
    outer loop
      vertex 29.85 22.199 -5
      vertex 29.048 24.565 -5
      vertex 29.85 22.199 5
    endloop
  endfacet
  facet normal 0.948585 0.316524 0
    outer loop
      vertex 28.086 27.448 -5
      vertex 28.086 27.448 5
      vertex 29.048 24.565 5
    endloop
  endfacet
  facet normal 0.948585 0.316524 0
    outer loop
      vertex 29.048 24.565 -5
      vertex 28.086 27.448 -5
      vertex 29.048 24.565 5
    endloop
  endfacet
  facet normal 0.949651 0.31331 0
    outer loop
      vertex 26.99 30.77 -5
      vertex 26.99 30.77 5
      vertex 28.086 27.448 5
    endloop
  endfacet
  facet normal 0.949651 0.31331 0
    outer loop
      vertex 28.086 27.448 -5
      vertex 26.99 30.77 -5
      vertex 28.086 27.448 5
    endloop
  endfacet
  facet normal 0.950654 0.310254 0
    outer loop
      vertex 25.789 34.45 -5
      vertex 25.789 34.45 5
      vertex 26.99 30.77 5
    endloop
  endfacet
  facet normal 0.950654 0.310254 0
    outer loop
      vertex 26.99 30.77 -5
      vertex 25.789 34.45 -5
      vertex 26.99 30.77 5
    endloop
  endfacet
  facet normal 0.951387 0.307999 0
    outer loop
      vertex 24.507 38.41 -5
      vertex 24.507 38.41 5
      vertex 25.789 34.45 5
    endloop
  endfacet
  facet normal 0.951387 0.307999 0
    outer loop
      vertex 25.789 34.45 -5
      vertex 24.507 38.41 -5
      vertex 25.789 34.45 5
    endloop
  endfacet
  facet normal 0.952311 0.305128 0
    outer loop
      vertex 18.186 58.138 -5
      vertex 18.186 58.138 5
      vertex 24.507 38.41 5
    endloop
  endfacet
  facet normal 0.952311 0.305128 0
    outer loop
      vertex 24.507 38.41 -5
      vertex 18.186 58.138 -5
      vertex 24.507 38.41 5
    endloop
  endfacet
  facet normal 0 1 0
    outer loop
      vertex 9.211 58.138 5
      vertex 18.186 58.138 5
      vertex 9.211 58.138 -5
    endloop
  endfacet
  facet normal 0 1 0
    outer loop
      vertex 9.211 58.138 -5
      vertex 18.186 58.138 5
      vertex 18.186 58.138 -5
    endloop
  endfacet
  facet normal -0.00391522 0.999992 0
    outer loop
      vertex 4.869 58.121 5
      vertex 9.211 58.138 5
      vertex 4.869 58.121 -5
    endloop
  endfacet
  facet normal -0.00391522 0.999992 0
    outer loop
      vertex 4.869 58.121 -5
      vertex 9.211 58.138 5
      vertex 9.211 58.138 -5
    endloop
  endfacet
  facet normal -0.020082 0.999798 0
    outer loop
      vertex 2.081 58.065 5
      vertex 4.869 58.121 5
      vertex 2.081 58.065 -5
    endloop
  endfacet
  facet normal -0.020082 0.999798 0
    outer loop
      vertex 2.081 58.065 -5
      vertex 4.869 58.121 5
      vertex 4.869 58.121 -5
    endloop
  endfacet
  facet normal -0.0697366 0.997565 0
    outer loop
      vertex 0.579 57.96 5
      vertex 2.081 58.065 5
      vertex 0.579 57.96 -5
    endloop
  endfacet
  facet normal -0.0697366 0.997565 0
    outer loop
      vertex 0.579 57.96 -5
      vertex 2.081 58.065 5
      vertex 2.081 58.065 -5
    endloop
  endfacet
  facet normal -0.31564 0.948879 0
    outer loop
      vertex 0.095 57.799 5
      vertex 0.579 57.96 5
      vertex 0.095 57.799 -5
    endloop
  endfacet
  facet normal -0.31564 0.948879 0
    outer loop
      vertex 0.095 57.799 -5
      vertex 0.579 57.96 5
      vertex 0.579 57.96 -5
    endloop
  endfacet
  facet normal -0.999024 0.0441642 0
    outer loop
      vertex 0.066 57.143 5
      vertex 0.095 57.799 5
      vertex 0.066 57.143 -5
    endloop
  endfacet
  facet normal -0.999024 0.0441642 0
    outer loop
      vertex 0.066 57.143 -5
      vertex 0.095 57.799 5
      vertex 0.095 57.799 -5
    endloop
  endfacet
  facet normal -0.999897 0.0143334 0
    outer loop
      vertex 0.041 55.399 5
      vertex 0.066 57.143 5
      vertex 0.041 55.399 -5
    endloop
  endfacet
  facet normal -0.999897 0.0143334 0
    outer loop
      vertex 0.041 55.399 -5
      vertex 0.066 57.143 5
      vertex 0.066 57.143 -5
    endloop
  endfacet
  facet normal -0.999978 0.00663702 0
    outer loop
      vertex 0.023 52.687 5
      vertex 0.041 55.399 5
      vertex 0.023 52.687 -5
    endloop
  endfacet
  facet normal -0.999978 0.00663702 0
    outer loop
      vertex 0.023 52.687 -5
      vertex 0.041 55.399 5
      vertex 0.041 55.399 -5
    endloop
  endfacet
  facet normal -0.999993 0.00365064 0
    outer loop
      vertex 0.01 49.126 5
      vertex 0.023 52.687 5
      vertex 0.01 49.126 -5
    endloop
  endfacet
  facet normal -0.999993 0.00365064 0
    outer loop
      vertex 0.01 49.126 -5
      vertex 0.023 52.687 5
      vertex 0.023 52.687 -5
    endloop
  endfacet
  facet normal -0.999998 0.0020979 0
    outer loop
      vertex 0.001 44.836 5
      vertex 0.01 49.126 5
      vertex 0.001 44.836 -5
    endloop
  endfacet
  facet normal -0.999998 0.0020979 0
    outer loop
      vertex 0.001 44.836 -5
      vertex 0.01 49.126 5
      vertex 0.01 49.126 -5
    endloop
  endfacet
endsolid OpenSCAD_Model
