solid OpenSCAD_Model
  facet normal -0.952167 -0.305579 0
    outer loop
      vertex 0.207 56.476 -5
      vertex 0.207 56.476 5
      vertex 0 57.121 -5
    endloop
  endfacet
  facet normal -0.952167 -0.305579 0
    outer loop
      vertex 0 57.121 -5
      vertex 0.207 56.476 5
      vertex 0 57.121 5
    endloop
  endfacet
  facet normal -0.941246 -0.337721 0
    outer loop
      vertex 0.794 54.84 -5
      vertex 0.794 54.84 5
      vertex 0.207 56.476 -5
    endloop
  endfacet
  facet normal -0.941246 -0.337721 0
    outer loop
      vertex 0.207 56.476 -5
      vertex 0.794 54.84 5
      vertex 0.207 56.476 5
    endloop
  endfacet
  facet normal 0 0 -1
    outer loop
      vertex 0.208 57.222 -5
      vertex 0.776 57.303 -5
      vertex 0 57.121 -5
    endloop
  endfacet
  facet normal 0 0 -1
    outer loop
      vertex 0 57.121 -5
      vertex 0.776 57.303 -5
      vertex 1.618 57.357 -5
    endloop
  endfacet
  facet normal 0 0 -1
    outer loop
      vertex 0 57.121 -5
      vertex 1.618 57.357 -5
      vertex 2.653 57.376 -5
    endloop
  endfacet
  facet normal 0 0 -1
    outer loop
      vertex 0 57.121 -5
      vertex 2.653 57.376 -5
      vertex 5.278 57.376 -5
    endloop
  endfacet
  facet normal 0 0 -1
    outer loop
      vertex 0 57.121 -5
      vertex 5.278 57.376 -5
      vertex 8.157 49.416 -5
    endloop
  endfacet
  facet normal 0 0 -1
    outer loop
      vertex 0 57.121 -5
      vertex 8.157 49.416 -5
      vertex 9.544 45.561 -5
    endloop
  endfacet
  facet normal 0 0 -1
    outer loop
      vertex 0 57.121 -5
      vertex 9.544 45.561 -5
      vertex 11.201 40.976 -5
    endloop
  endfacet
  facet normal 0 0 -1
    outer loop
      vertex 11.201 40.976 -5
      vertex 12.914 36.238 -5
      vertex 0 57.121 -5
    endloop
  endfacet
  facet normal 0 0 -1
    outer loop
      vertex 12.914 36.238 -5
      vertex 14.478 31.92 -5
      vertex 0 57.121 -5
    endloop
  endfacet
  facet normal 0 0 -1
    outer loop
      vertex 14.478 31.92 -5
      vertex 15.828 28.235 -5
      vertex 0 57.121 -5
    endloop
  endfacet
  facet normal 0 0 -1
    outer loop
      vertex 15.828 28.235 -5
      vertex 16.964 25.253 -5
      vertex 0 57.121 -5
    endloop
  endfacet
  facet normal 0 0 -1
    outer loop
      vertex 16.964 25.253 -5
      vertex 17.767 23.276 -5
      vertex 0 57.121 -5
    endloop
  endfacet
  facet normal 0 0 -1
    outer loop
      vertex 17.767 23.276 -5
      vertex 18.119 22.605 -5
      vertex 0 57.121 -5
    endloop
  endfacet
  facet normal 0 0 -1
    outer loop
      vertex 18.711 24.021 -5
      vertex 32.49 57.266 -5
      vertex 18.292 22.993 -5
    endloop
  endfacet
  facet normal 0 0 -1
    outer loop
      vertex 19.349 25.621 -5
      vertex 32.49 57.266 -5
      vertex 18.711 24.021 -5
    endloop
  endfacet
  facet normal 0 0 -1
    outer loop
      vertex 20.179 27.722 -5
      vertex 32.49 57.266 -5
      vertex 19.349 25.621 -5
    endloop
  endfacet
  facet normal 0 0 -1
    outer loop
      vertex 21.171 30.253 -5
      vertex 32.49 57.266 -5
      vertex 20.179 27.722 -5
    endloop
  endfacet
  facet normal 0 0 -1
    outer loop
      vertex 22.301 33.147 -5
      vertex 32.49 57.266 -5
      vertex 21.171 30.253 -5
    endloop
  endfacet
  facet normal 0 0 -1
    outer loop
      vertex 23.541 36.332 -5
      vertex 32.49 57.266 -5
      vertex 22.301 33.147 -5
    endloop
  endfacet
  facet normal 0 0 -1
    outer loop
      vertex 24.864 39.737 -5
      vertex 26.176 43.147 -5
      vertex 27.408 46.342 -5
    endloop
  endfacet
  facet normal 0 0 -1
    outer loop
      vertex 24.864 39.737 -5
      vertex 27.408 46.342 -5
      vertex 28.531 49.252 -5
    endloop
  endfacet
  facet normal 0 0 -1
    outer loop
      vertex 28.531 49.252 -5
      vertex 29.516 51.806 -5
      vertex 24.864 39.737 -5
    endloop
  endfacet
  facet normal 0 0 -1
    outer loop
      vertex 24.864 39.737 -5
      vertex 29.516 51.806 -5
      vertex 30.336 53.932 -5
    endloop
  endfacet
  facet normal 0 0 -1
    outer loop
      vertex 24.864 39.737 -5
      vertex 32.49 57.266 -5
      vertex 23.541 36.332 -5
    endloop
  endfacet
  facet normal 0 0 -1
    outer loop
      vertex 30.336 53.932 -5
      vertex 32.49 57.266 -5
      vertex 24.864 39.737 -5
    endloop
  endfacet
  facet normal 0 0 -1
    outer loop
      vertex 30.963 55.561 -5
      vertex 32.49 57.266 -5
      vertex 30.336 53.932 -5
    endloop
  endfacet
  facet normal 0 0 -1
    outer loop
      vertex 31.368 56.619 -5
      vertex 31.524 57.037 -5
      vertex 32.49 57.266 -5
    endloop
  endfacet
  facet normal 0 0 -1
    outer loop
      vertex 31.368 56.619 -5
      vertex 32.49 57.266 -5
      vertex 30.963 55.561 -5
    endloop
  endfacet
  facet normal 0 0 -1
    outer loop
      vertex 18.292 22.993 -5
      vertex 32.49 57.266 -5
      vertex 34.452 57.38 -5
    endloop
  endfacet
  facet normal 0 0 -1
    outer loop
      vertex 18.292 22.993 -5
      vertex 34.452 57.38 -5
      vertex 18.119 22.605 -5
    endloop
  endfacet
  facet normal 0 0 -1
    outer loop
      vertex 18.119 22.605 -5
      vertex 34.452 57.38 -5
      vertex 36.382 57.351 -5
    endloop
  endfacet
  facet normal 0 0 -1
    outer loop
      vertex 18.119 22.605 -5
      vertex 36.382 57.351 -5
      vertex 37.254 57.15 -5
    endloop
  endfacet
  facet normal 0 0 -1
    outer loop
      vertex 18.119 22.605 -5
      vertex 37.254 57.15 -5
      vertex 37.087 56.692 -5
    endloop
  endfacet
  facet normal 0 0 -1
    outer loop
      vertex 18.119 22.605 -5
      vertex 37.087 56.692 -5
      vertex 36.609 55.459 -5
    endloop
  endfacet
  facet normal 0 0 -1
    outer loop
      vertex 18.119 22.605 -5
      vertex 36.609 55.459 -5
      vertex 35.854 53.534 -5
    endloop
  endfacet
  facet normal 0 0 -1
    outer loop
      vertex 18.119 22.605 -5
      vertex 35.854 53.534 -5
      vertex 34.853 51.001 -5
    endloop
  endfacet
  facet normal 0 0 -1
    outer loop
      vertex 18.119 22.605 -5
      vertex 34.853 51.001 -5
      vertex 33.642 47.947 -5
    endloop
  endfacet
  facet normal 0 0 -1
    outer loop
      vertex 18.119 22.605 -5
      vertex 33.642 47.947 -5
      vertex 32.252 44.454 -5
    endloop
  endfacet
  facet normal 0 0 -1
    outer loop
      vertex 18.119 22.605 -5
      vertex 32.252 44.454 -5
      vertex 30.717 40.608 -5
    endloop
  endfacet
  facet normal 0 0 -1
    outer loop
      vertex 18.119 22.605 -5
      vertex 30.717 40.608 -5
      vertex 29.068 36.492 -5
    endloop
  endfacet
  facet normal 0 0 -1
    outer loop
      vertex 18.119 22.605 -5
      vertex 29.068 36.492 -5
      vertex 27.42 32.371 -5
    endloop
  endfacet
  facet normal 0 0 -1
    outer loop
      vertex 18.119 22.605 -5
      vertex 21.049 16.069 -5
      vertex 0 57.121 -5
    endloop
  endfacet
  facet normal 0 0 -1
    outer loop
      vertex 27.42 32.371 -5
      vertex 25.884 28.509 -5
      vertex 18.119 22.605 -5
    endloop
  endfacet
  facet normal 0 0 -1
    outer loop
      vertex 25.884 28.509 -5
      vertex 24.495 24.992 -5
      vertex 18.119 22.605 -5
    endloop
  endfacet
  facet normal 0 0 -1
    outer loop
      vertex 24.495 24.992 -5
      vertex 23.283 21.904 -5
      vertex 18.119 22.605 -5
    endloop
  endfacet
  facet normal 0 0 -1
    outer loop
      vertex 23.283 21.904 -5
      vertex 22.283 19.331 -5
      vertex 18.119 22.605 -5
    endloop
  endfacet
  facet normal 0 0 -1
    outer loop
      vertex 22.283 19.331 -5
      vertex 21.528 17.358 -5
      vertex 18.119 22.605 -5
    endloop
  endfacet
  facet normal 0 0 -1
    outer loop
      vertex 21.528 17.358 -5
      vertex 21.049 16.069 -5
      vertex 18.119 22.605 -5
    endloop
  endfacet
  facet normal 0 0 -1
    outer loop
      vertex 21.049 16.069 -5
      vertex 20.884 15.55 -5
      vertex 0 57.121 -5
    endloop
  endfacet
  facet normal 0 0 -1
    outer loop
      vertex 20.884 15.55 -5
      vertex 21.161 14.497 -5
      vertex 0 57.121 -5
    endloop
  endfacet
  facet normal 0 0 -1
    outer loop
      vertex 21.161 14.497 -5
      vertex 21.836 12.598 -5
      vertex 0 57.121 -5
    endloop
  endfacet
  facet normal 0 0 -1
    outer loop
      vertex 21.836 12.598 -5
      vertex 22.67 10.483 -5
      vertex 0 57.121 -5
    endloop
  endfacet
  facet normal 0 0 -1
    outer loop
      vertex 22.67 10.483 -5
      vertex 23.424 8.777 -5
      vertex 0 57.121 -5
    endloop
  endfacet
  facet normal 0 0 -1
    outer loop
      vertex 23.424 8.777 -5
      vertex 25.76 0.262 -5
      vertex 0 57.121 -5
    endloop
  endfacet
  facet normal 0 0 -1
    outer loop
      vertex 28.046 4.654 -5
      vertex 33.302 2.596 -5
      vertex 27.313 4.819 -5
    endloop
  endfacet
  facet normal 0 0 -1
    outer loop
      vertex 29.042 4.61 -5
      vertex 33.302 2.596 -5
      vertex 28.046 4.654 -5
    endloop
  endfacet
  facet normal 0 0 -1
    outer loop
      vertex 30.536 4.656 -5
      vertex 33.302 4.798 -5
      vertex 33.302 2.596 -5
    endloop
  endfacet
  facet normal 0 0 -1
    outer loop
      vertex 30.536 4.656 -5
      vertex 33.302 2.596 -5
      vertex 29.042 4.61 -5
    endloop
  endfacet
  facet normal 0 0 -1
    outer loop
      vertex 27.313 4.819 -5
      vertex 33.302 2.596 -5
      vertex 33.296 1.732 -5
    endloop
  endfacet
  facet normal 0 0 -1
    outer loop
      vertex 27.313 4.819 -5
      vertex 33.296 1.732 -5
      vertex 26.614 5.136 -5
    endloop
  endfacet
  facet normal 0 0 -1
    outer loop
      vertex 26.614 5.136 -5
      vertex 33.296 1.732 -5
      vertex 33.249 1.087 -5
    endloop
  endfacet
  facet normal 0 0 -1
    outer loop
      vertex 26.614 5.136 -5
      vertex 33.249 1.087 -5
      vertex 33.109 0.63 -5
    endloop
  endfacet
  facet normal 0 0 -1
    outer loop
      vertex 26.614 5.136 -5
      vertex 33.109 0.63 -5
      vertex 25.718 5.698 -5
    endloop
  endfacet
  facet normal 0 0 -1
    outer loop
      vertex 25.718 5.698 -5
      vertex 33.109 0.63 -5
      vertex 32.825 0.325 -5
    endloop
  endfacet
  facet normal 0 0 -1
    outer loop
      vertex 25.718 5.698 -5
      vertex 32.825 0.325 -5
      vertex 32.347 0.142 -5
    endloop
  endfacet
  facet normal 0 0 -1
    outer loop
      vertex 25.718 5.698 -5
      vertex 32.347 0.142 -5
      vertex 31.623 0.048 -5
    endloop
  endfacet
  facet normal 0 0 -1
    outer loop
      vertex 25.718 5.698 -5
      vertex 31.623 0.048 -5
      vertex 30.604 0.012 -5
    endloop
  endfacet
  facet normal 0 0 -1
    outer loop
      vertex 25.718 5.698 -5
      vertex 30.604 0.012 -5
      vertex 24.912 6.471 -5
    endloop
  endfacet
  facet normal 0 0 -1
    outer loop
      vertex 24.912 6.471 -5
      vertex 30.604 0.012 -5
      vertex 29.238 0 -5
    endloop
  endfacet
  facet normal 0 0 -1
    outer loop
      vertex 24.912 6.471 -5
      vertex 29.238 0 -5
      vertex 24.16 7.487 -5
    endloop
  endfacet
  facet normal 0 0 -1
    outer loop
      vertex 24.16 7.487 -5
      vertex 29.238 0 -5
      vertex 25.76 0.262 -5
    endloop
  endfacet
  facet normal 0 0 -1
    outer loop
      vertex 24.16 7.487 -5
      vertex 25.76 0.262 -5
      vertex 23.424 8.777 -5
    endloop
  endfacet
  facet normal 0 0 -1
    outer loop
      vertex 0 57.121 -5
      vertex 25.76 0.262 -5
      vertex 23.17 1.203 -5
    endloop
  endfacet
  facet normal 0 0 -1
    outer loop
      vertex 0 57.121 -5
      vertex 23.17 1.203 -5
      vertex 21.174 2.997 -5
    endloop
  endfacet
  facet normal 0 0 -1
    outer loop
      vertex 0 57.121 -5
      vertex 21.174 2.997 -5
      vertex 19.473 5.814 -5
    endloop
  endfacet
  facet normal 0 0 -1
    outer loop
      vertex 0 57.121 -5
      vertex 19.473 5.814 -5
      vertex 19.086 6.729 -5
    endloop
  endfacet
  facet normal 0 0 -1
    outer loop
      vertex 0 57.121 -5
      vertex 19.086 6.729 -5
      vertex 18.344 8.596 -5
    endloop
  endfacet
  facet normal 0 0 -1
    outer loop
      vertex 0 57.121 -5
      vertex 18.344 8.596 -5
      vertex 17.299 11.277 -5
    endloop
  endfacet
  facet normal 0 0 -1
    outer loop
      vertex 0 57.121 -5
      vertex 17.299 11.277 -5
      vertex 16.002 14.633 -5
    endloop
  endfacet
  facet normal 0 0 -1
    outer loop
      vertex 0 57.121 -5
      vertex 16.002 14.633 -5
      vertex 14.505 18.526 -5
    endloop
  endfacet
  facet normal 0 0 -1
    outer loop
      vertex 0 57.121 -5
      vertex 14.505 18.526 -5
      vertex 12.864 22.818 -5
    endloop
  endfacet
  facet normal 0 0 -1
    outer loop
      vertex 0 57.121 -5
      vertex 12.864 22.818 -5
      vertex 11.13 27.368 -5
    endloop
  endfacet
  facet normal 0 0 -1
    outer loop
      vertex 0 57.121 -5
      vertex 11.13 27.368 -5
      vertex 9.355 32.039 -5
    endloop
  endfacet
  facet normal 0 0 -1
    outer loop
      vertex 0 57.121 -5
      vertex 9.355 32.039 -5
      vertex 7.592 36.693 -5
    endloop
  endfacet
  facet normal 0 0 -1
    outer loop
      vertex 0 57.121 -5
      vertex 7.592 36.693 -5
      vertex 5.892 41.191 -5
    endloop
  endfacet
  facet normal 0 0 -1
    outer loop
      vertex 0 57.121 -5
      vertex 5.892 41.191 -5
      vertex 4.312 45.393 -5
    endloop
  endfacet
  facet normal 0 0 -1
    outer loop
      vertex 0 57.121 -5
      vertex 4.312 45.393 -5
      vertex 2.899 49.16 -5
    endloop
  endfacet
  facet normal 0 0 -1
    outer loop
      vertex 0 57.121 -5
      vertex 2.899 49.16 -5
      vertex 1.709 52.356 -5
    endloop
  endfacet
  facet normal 0 0 -1
    outer loop
      vertex 0 57.121 -5
      vertex 1.709 52.356 -5
      vertex 0.794 54.84 -5
    endloop
  endfacet
  facet normal 0 0 -1
    outer loop
      vertex 0 57.121 -5
      vertex 0.794 54.84 -5
      vertex 0.207 56.476 -5
    endloop
  endfacet
  facet normal -0.436804 0.899557 0
    outer loop
      vertex 0 57.121 5
      vertex 0.208 57.222 5
      vertex 0 57.121 -5
    endloop
  endfacet
  facet normal -0.436804 0.899557 0
    outer loop
      vertex 0 57.121 -5
      vertex 0.208 57.222 5
      vertex 0.208 57.222 -5
    endloop
  endfacet
  facet normal 0 0 1
    outer loop
      vertex 0 57.121 5
      vertex 0.207 56.476 5
      vertex 0.794 54.84 5
    endloop
  endfacet
  facet normal 0 0 1
    outer loop
      vertex 2.899 49.16 5
      vertex 0 57.121 5
      vertex 1.709 52.356 5
    endloop
  endfacet
  facet normal 0 0 1
    outer loop
      vertex 1.709 52.356 5
      vertex 0 57.121 5
      vertex 0.794 54.84 5
    endloop
  endfacet
  facet normal 0 0 1
    outer loop
      vertex 4.312 45.393 5
      vertex 0 57.121 5
      vertex 2.899 49.16 5
    endloop
  endfacet
  facet normal 0 0 1
    outer loop
      vertex 5.892 41.191 5
      vertex 0 57.121 5
      vertex 4.312 45.393 5
    endloop
  endfacet
  facet normal 0 0 1
    outer loop
      vertex 7.592 36.693 5
      vertex 0 57.121 5
      vertex 5.892 41.191 5
    endloop
  endfacet
  facet normal 0 0 1
    outer loop
      vertex 9.355 32.039 5
      vertex 0 57.121 5
      vertex 7.592 36.693 5
    endloop
  endfacet
  facet normal 0 0 1
    outer loop
      vertex 11.13 27.368 5
      vertex 0 57.121 5
      vertex 9.355 32.039 5
    endloop
  endfacet
  facet normal 0 0 1
    outer loop
      vertex 12.864 22.818 5
      vertex 0 57.121 5
      vertex 11.13 27.368 5
    endloop
  endfacet
  facet normal 0 0 1
    outer loop
      vertex 14.505 18.526 5
      vertex 0 57.121 5
      vertex 12.864 22.818 5
    endloop
  endfacet
  facet normal 0 0 1
    outer loop
      vertex 16.002 14.633 5
      vertex 0 57.121 5
      vertex 14.505 18.526 5
    endloop
  endfacet
  facet normal 0 0 1
    outer loop
      vertex 17.299 11.277 5
      vertex 0 57.121 5
      vertex 16.002 14.633 5
    endloop
  endfacet
  facet normal 0 0 1
    outer loop
      vertex 18.344 8.596 5
      vertex 0 57.121 5
      vertex 17.299 11.277 5
    endloop
  endfacet
  facet normal 0 0 1
    outer loop
      vertex 19.086 6.729 5
      vertex 0 57.121 5
      vertex 18.344 8.596 5
    endloop
  endfacet
  facet normal 0 0 1
    outer loop
      vertex 19.473 5.814 5
      vertex 0 57.121 5
      vertex 19.086 6.729 5
    endloop
  endfacet
  facet normal 0 0 1
    outer loop
      vertex 21.174 2.997 5
      vertex 0 57.121 5
      vertex 19.473 5.814 5
    endloop
  endfacet
  facet normal 0 0 1
    outer loop
      vertex 23.17 1.203 5
      vertex 0 57.121 5
      vertex 21.174 2.997 5
    endloop
  endfacet
  facet normal 0 0 1
    outer loop
      vertex 25.76 0.262 5
      vertex 0 57.121 5
      vertex 23.17 1.203 5
    endloop
  endfacet
  facet normal 0 0 1
    outer loop
      vertex 23.424 8.777 5
      vertex 0 57.121 5
      vertex 25.76 0.262 5
    endloop
  endfacet
  facet normal 0 0 1
    outer loop
      vertex 21.049 16.069 5
      vertex 18.119 22.605 5
      vertex 0 57.121 5
    endloop
  endfacet
  facet normal 0 0 1
    outer loop
      vertex 21.049 16.069 5
      vertex 21.528 17.358 5
      vertex 18.292 22.993 5
    endloop
  endfacet
  facet normal 0 0 1
    outer loop
      vertex 12.914 36.238 5
      vertex 11.201 40.976 5
      vertex 0 57.121 5
    endloop
  endfacet
  facet normal 0 0 1
    outer loop
      vertex 30.536 4.656 5
      vertex 32.347 0.142 5
      vertex 32.825 0.325 5
    endloop
  endfacet
  facet normal 0 0 1
    outer loop
      vertex 30.536 4.656 5
      vertex 31.623 0.048 5
      vertex 32.347 0.142 5
    endloop
  endfacet
  facet normal 0 0 1
    outer loop
      vertex 33.109 0.63 5
      vertex 30.536 4.656 5
      vertex 32.825 0.325 5
    endloop
  endfacet
  facet normal 0 0 1
    outer loop
      vertex 22.283 19.331 5
      vertex 23.283 21.904 5
      vertex 19.349 25.621 5
    endloop
  endfacet
  facet normal 0 0 1
    outer loop
      vertex 31.623 0.048 5
      vertex 29.042 4.61 5
      vertex 30.604 0.012 5
    endloop
  endfacet
  facet normal 0 0 1
    outer loop
      vertex 30.604 0.012 5
      vertex 28.046 4.654 5
      vertex 29.238 0 5
    endloop
  endfacet
  facet normal 0 0 1
    outer loop
      vertex 28.046 4.654 5
      vertex 27.313 4.819 5
      vertex 29.238 0 5
    endloop
  endfacet
  facet normal 0 0 1
    outer loop
      vertex 21.528 17.358 5
      vertex 22.283 19.331 5
      vertex 18.711 24.021 5
    endloop
  endfacet
  facet normal 0 0 1
    outer loop
      vertex 27.313 4.819 5
      vertex 26.614 5.136 5
      vertex 29.238 0 5
    endloop
  endfacet
  facet normal 0 0 1
    outer loop
      vertex 29.238 0 5
      vertex 25.718 5.698 5
      vertex 25.76 0.262 5
    endloop
  endfacet
  facet normal 0 0 1
    outer loop
      vertex 25.718 5.698 5
      vertex 24.912 6.471 5
      vertex 25.76 0.262 5
    endloop
  endfacet
  facet normal 0 0 1
    outer loop
      vertex 24.912 6.471 5
      vertex 24.16 7.487 5
      vertex 25.76 0.262 5
    endloop
  endfacet
  facet normal 0 0 1
    outer loop
      vertex 24.16 7.487 5
      vertex 23.424 8.777 5
      vertex 25.76 0.262 5
    endloop
  endfacet
  facet normal 0 0 1
    outer loop
      vertex 22.67 10.483 5
      vertex 0 57.121 5
      vertex 23.424 8.777 5
    endloop
  endfacet
  facet normal 0 0 1
    outer loop
      vertex 21.836 12.598 5
      vertex 21.161 14.497 5
      vertex 0 57.121 5
    endloop
  endfacet
  facet normal 0 0 1
    outer loop
      vertex 21.161 14.497 5
      vertex 20.884 15.55 5
      vertex 0 57.121 5
    endloop
  endfacet
  facet normal 0 0 1
    outer loop
      vertex 20.884 15.55 5
      vertex 21.049 16.069 5
      vertex 0 57.121 5
    endloop
  endfacet
  facet normal 0 0 1
    outer loop
      vertex 22.67 10.483 5
      vertex 21.836 12.598 5
      vertex 0 57.121 5
    endloop
  endfacet
  facet normal 0 0 1
    outer loop
      vertex 18.292 22.993 5
      vertex 18.119 22.605 5
      vertex 21.049 16.069 5
    endloop
  endfacet
  facet normal 0 0 1
    outer loop
      vertex 19.349 25.621 5
      vertex 18.711 24.021 5
      vertex 22.283 19.331 5
    endloop
  endfacet
  facet normal 0 0 1
    outer loop
      vertex 20.179 27.722 5
      vertex 19.349 25.621 5
      vertex 23.283 21.904 5
    endloop
  endfacet
  facet normal 0 0 1
    outer loop
      vertex 21.171 30.253 5
      vertex 20.179 27.722 5
      vertex 24.495 24.992 5
    endloop
  endfacet
  facet normal 0 0 1
    outer loop
      vertex 22.301 33.147 5
      vertex 21.171 30.253 5
      vertex 25.884 28.509 5
    endloop
  endfacet
  facet normal 0 0 1
    outer loop
      vertex 24.864 39.737 5
      vertex 23.541 36.332 5
      vertex 29.068 36.492 5
    endloop
  endfacet
  facet normal 0 0 1
    outer loop
      vertex 26.176 43.147 5
      vertex 24.864 39.737 5
      vertex 30.717 40.608 5
    endloop
  endfacet
  facet normal 0 0 1
    outer loop
      vertex 28.531 49.252 5
      vertex 27.408 46.342 5
      vertex 32.252 44.454 5
    endloop
  endfacet
  facet normal 0 0 1
    outer loop
      vertex 29.516 51.806 5
      vertex 28.531 49.252 5
      vertex 33.642 47.947 5
    endloop
  endfacet
  facet normal 0 0 1
    outer loop
      vertex 30.336 53.932 5
      vertex 29.516 51.806 5
      vertex 34.853 51.001 5
    endloop
  endfacet
  facet normal 0 0 1
    outer loop
      vertex 30.963 55.561 5
      vertex 30.336 53.932 5
      vertex 35.854 53.534 5
    endloop
  endfacet
  facet normal 0 0 1
    outer loop
      vertex 31.368 56.619 5
      vertex 30.963 55.561 5
      vertex 36.609 55.459 5
    endloop
  endfacet
  facet normal 0 0 1
    outer loop
      vertex 31.524 57.037 5
      vertex 31.368 56.619 5
      vertex 37.087 56.692 5
    endloop
  endfacet
  facet normal 0 0 1
    outer loop
      vertex 32.49 57.266 5
      vertex 31.524 57.037 5
      vertex 37.254 57.15 5
    endloop
  endfacet
  facet normal 0 0 1
    outer loop
      vertex 36.382 57.351 5
      vertex 32.49 57.266 5
      vertex 37.254 57.15 5
    endloop
  endfacet
  facet normal 0 0 1
    outer loop
      vertex 37.254 57.15 5
      vertex 31.524 57.037 5
      vertex 37.087 56.692 5
    endloop
  endfacet
  facet normal 0 0 1
    outer loop
      vertex 37.087 56.692 5
      vertex 31.368 56.619 5
      vertex 36.609 55.459 5
    endloop
  endfacet
  facet normal 0 0 1
    outer loop
      vertex 36.609 55.459 5
      vertex 30.963 55.561 5
      vertex 35.854 53.534 5
    endloop
  endfacet
  facet normal 0 0 1
    outer loop
      vertex 35.854 53.534 5
      vertex 30.336 53.932 5
      vertex 34.853 51.001 5
    endloop
  endfacet
  facet normal 0 0 1
    outer loop
      vertex 34.853 51.001 5
      vertex 29.516 51.806 5
      vertex 33.642 47.947 5
    endloop
  endfacet
  facet normal 0 0 1
    outer loop
      vertex 33.642 47.947 5
      vertex 28.531 49.252 5
      vertex 32.252 44.454 5
    endloop
  endfacet
  facet normal 0 0 1
    outer loop
      vertex 32.252 44.454 5
      vertex 27.408 46.342 5
      vertex 30.717 40.608 5
    endloop
  endfacet
  facet normal 0 0 1
    outer loop
      vertex 27.408 46.342 5
      vertex 26.176 43.147 5
      vertex 30.717 40.608 5
    endloop
  endfacet
  facet normal 0 0 1
    outer loop
      vertex 30.717 40.608 5
      vertex 24.864 39.737 5
      vertex 29.068 36.492 5
    endloop
  endfacet
  facet normal 0 0 1
    outer loop
      vertex 29.068 36.492 5
      vertex 23.541 36.332 5
      vertex 27.42 32.371 5
    endloop
  endfacet
  facet normal 0 0 1
    outer loop
      vertex 27.42 32.371 5
      vertex 22.301 33.147 5
      vertex 25.884 28.509 5
    endloop
  endfacet
  facet normal 0 0 1
    outer loop
      vertex 25.884 28.509 5
      vertex 21.171 30.253 5
      vertex 24.495 24.992 5
    endloop
  endfacet
  facet normal 0 0 1
    outer loop
      vertex 24.495 24.992 5
      vertex 20.179 27.722 5
      vertex 23.283 21.904 5
    endloop
  endfacet
  facet normal 0 0 1
    outer loop
      vertex 30.536 4.656 5
      vertex 29.042 4.61 5
      vertex 31.623 0.048 5
    endloop
  endfacet
  facet normal 0 0 1
    outer loop
      vertex 29.042 4.61 5
      vertex 28.046 4.654 5
      vertex 30.604 0.012 5
    endloop
  endfacet
  facet normal 0 0 1
    outer loop
      vertex 26.614 5.136 5
      vertex 25.718 5.698 5
      vertex 29.238 0 5
    endloop
  endfacet
  facet normal 0 0 1
    outer loop
      vertex 17.767 23.276 5
      vertex 0 57.121 5
      vertex 18.119 22.605 5
    endloop
  endfacet
  facet normal 0 0 1
    outer loop
      vertex 16.964 25.253 5
      vertex 0 57.121 5
      vertex 17.767 23.276 5
    endloop
  endfacet
  facet normal 0 0 1
    outer loop
      vertex 14.478 31.92 5
      vertex 12.914 36.238 5
      vertex 0 57.121 5
    endloop
  endfacet
  facet normal 0 0 1
    outer loop
      vertex 15.828 28.235 5
      vertex 14.478 31.92 5
      vertex 0 57.121 5
    endloop
  endfacet
  facet normal 0 0 1
    outer loop
      vertex 16.964 25.253 5
      vertex 15.828 28.235 5
      vertex 0 57.121 5
    endloop
  endfacet
  facet normal 0 0 1
    outer loop
      vertex 23.541 36.332 5
      vertex 22.301 33.147 5
      vertex 27.42 32.371 5
    endloop
  endfacet
  facet normal 0 0 1
    outer loop
      vertex 34.452 57.38 5
      vertex 32.49 57.266 5
      vertex 36.382 57.351 5
    endloop
  endfacet
  facet normal 0 0 1
    outer loop
      vertex 11.201 40.976 5
      vertex 9.544 45.561 5
      vertex 0 57.121 5
    endloop
  endfacet
  facet normal 0 0 1
    outer loop
      vertex 9.544 45.561 5
      vertex 8.157 49.416 5
      vertex 0 57.121 5
    endloop
  endfacet
  facet normal 0 0 1
    outer loop
      vertex 2.653 57.376 5
      vertex 0 57.121 5
      vertex 5.278 57.376 5
    endloop
  endfacet
  facet normal 0 0 1
    outer loop
      vertex 1.618 57.357 5
      vertex 0 57.121 5
      vertex 2.653 57.376 5
    endloop
  endfacet
  facet normal 0 0 1
    outer loop
      vertex 0.776 57.303 5
      vertex 0 57.121 5
      vertex 1.618 57.357 5
    endloop
  endfacet
  facet normal 0 0 1
    outer loop
      vertex 0.208 57.222 5
      vertex 0 57.121 5
      vertex 0.776 57.303 5
    endloop
  endfacet
  facet normal 0 0 1
    outer loop
      vertex 18.711 24.021 5
      vertex 18.292 22.993 5
      vertex 21.528 17.358 5
    endloop
  endfacet
  facet normal 0 0 1
    outer loop
      vertex 33.302 4.798 5
      vertex 33.296 1.732 5
      vertex 33.302 2.596 5
    endloop
  endfacet
  facet normal 0 0 1
    outer loop
      vertex 33.302 4.798 5
      vertex 33.249 1.087 5
      vertex 33.296 1.732 5
    endloop
  endfacet
  facet normal 0 0 1
    outer loop
      vertex 33.302 4.798 5
      vertex 33.109 0.63 5
      vertex 33.249 1.087 5
    endloop
  endfacet
  facet normal 0 0 1
    outer loop
      vertex 33.302 4.798 5
      vertex 30.536 4.656 5
      vertex 33.109 0.63 5
    endloop
  endfacet
  facet normal 0 0 1
    outer loop
      vertex 8.157 49.416 5
      vertex 5.278 57.376 5
      vertex 0 57.121 5
    endloop
  endfacet
  facet normal -0.938362 -0.345653 0
    outer loop
      vertex 1.709 52.356 -5
      vertex 1.709 52.356 5
      vertex 0.794 54.84 -5
    endloop
  endfacet
  facet normal -0.938362 -0.345653 0
    outer loop
      vertex 0.794 54.84 -5
      vertex 1.709 52.356 5
      vertex 0.794 54.84 5
    endloop
  endfacet
  facet normal -0.937146 -0.348937 0
    outer loop
      vertex 2.899 49.16 -5
      vertex 2.899 49.16 5
      vertex 1.709 52.356 -5
    endloop
  endfacet
  facet normal -0.937146 -0.348937 0
    outer loop
      vertex 1.709 52.356 -5
      vertex 2.899 49.16 5
      vertex 1.709 52.356 5
    endloop
  endfacet
  facet normal -0.936299 -0.351205 0
    outer loop
      vertex 4.312 45.393 -5
      vertex 4.312 45.393 5
      vertex 2.899 49.16 -5
    endloop
  endfacet
  facet normal -0.936299 -0.351205 0
    outer loop
      vertex 2.899 49.16 -5
      vertex 4.312 45.393 5
      vertex 2.899 49.16 5
    endloop
  endfacet
  facet normal -0.936018 -0.351953 0
    outer loop
      vertex 5.892 41.191 -5
      vertex 5.892 41.191 5
      vertex 4.312 45.393 -5
    endloop
  endfacet
  facet normal -0.936018 -0.351953 0
    outer loop
      vertex 4.312 45.393 -5
      vertex 5.892 41.191 5
      vertex 4.312 45.393 5
    endloop
  endfacet
  facet normal -0.93542 -0.353538 0
    outer loop
      vertex 7.592 36.693 -5
      vertex 7.592 36.693 5
      vertex 5.892 41.191 -5
    endloop
  endfacet
  facet normal -0.93542 -0.353538 0
    outer loop
      vertex 5.892 41.191 -5
      vertex 7.592 36.693 5
      vertex 5.892 41.191 5
    endloop
  endfacet
  facet normal -0.935151 -0.354248 0
    outer loop
      vertex 9.355 32.039 -5
      vertex 9.355 32.039 5
      vertex 7.592 36.693 -5
    endloop
  endfacet
  facet normal -0.935151 -0.354248 0
    outer loop
      vertex 7.592 36.693 -5
      vertex 9.355 32.039 5
      vertex 7.592 36.693 5
    endloop
  endfacet
  facet normal -0.934782 -0.355221 0
    outer loop
      vertex 11.13 27.368 -5
      vertex 11.13 27.368 5
      vertex 9.355 32.039 -5
    endloop
  endfacet
  facet normal -0.934782 -0.355221 0
    outer loop
      vertex 9.355 32.039 -5
      vertex 11.13 27.368 5
      vertex 9.355 32.039 5
    endloop
  endfacet
  facet normal -0.934442 -0.356115 0
    outer loop
      vertex 12.864 22.818 -5
      vertex 12.864 22.818 5
      vertex 11.13 27.368 -5
    endloop
  endfacet
  facet normal -0.934442 -0.356115 0
    outer loop
      vertex 11.13 27.368 -5
      vertex 12.864 22.818 5
      vertex 11.13 27.368 5
    endloop
  endfacet
  facet normal -0.934056 -0.357126 0
    outer loop
      vertex 14.505 18.526 -5
      vertex 14.505 18.526 5
      vertex 12.864 22.818 -5
    endloop
  endfacet
  facet normal -0.934056 -0.357126 0
    outer loop
      vertex 12.864 22.818 -5
      vertex 14.505 18.526 5
      vertex 12.864 22.818 5
    endloop
  endfacet
  facet normal -0.93337 -0.358915 0
    outer loop
      vertex 16.002 14.633 -5
      vertex 16.002 14.633 5
      vertex 14.505 18.526 -5
    endloop
  endfacet
  facet normal -0.93337 -0.358915 0
    outer loop
      vertex 14.505 18.526 -5
      vertex 16.002 14.633 5
      vertex 14.505 18.526 5
    endloop
  endfacet
  facet normal -0.932764 -0.360487 0
    outer loop
      vertex 17.299 11.277 -5
      vertex 17.299 11.277 5
      vertex 16.002 14.633 -5
    endloop
  endfacet
  facet normal -0.932764 -0.360487 0
    outer loop
      vertex 16.002 14.633 -5
      vertex 17.299 11.277 5
      vertex 16.002 14.633 5
    endloop
  endfacet
  facet normal -0.931724 -0.363167 0
    outer loop
      vertex 18.344 8.596 -5
      vertex 18.344 8.596 5
      vertex 17.299 11.277 -5
    endloop
  endfacet
  facet normal -0.931724 -0.363167 0
    outer loop
      vertex 17.299 11.277 -5
      vertex 18.344 8.596 5
      vertex 17.299 11.277 5
    endloop
  endfacet
  facet normal -0.929298 -0.36933 0
    outer loop
      vertex 19.086 6.729 -5
      vertex 19.086 6.729 5
      vertex 18.344 8.596 -5
    endloop
  endfacet
  facet normal -0.929298 -0.36933 0
    outer loop
      vertex 18.344 8.596 -5
      vertex 19.086 6.729 5
      vertex 18.344 8.596 5
    endloop
  endfacet
  facet normal -0.921009 -0.389541 0
    outer loop
      vertex 19.473 5.814 -5
      vertex 19.473 5.814 5
      vertex 19.086 6.729 -5
    endloop
  endfacet
  facet normal -0.921009 -0.389541 0
    outer loop
      vertex 19.086 6.729 -5
      vertex 19.473 5.814 5
      vertex 19.086 6.729 5
    endloop
  endfacet
  facet normal -0.856042 -0.516907 0
    outer loop
      vertex 21.174 2.997 -5
      vertex 21.174 2.997 5
      vertex 19.473 5.814 -5
    endloop
  endfacet
  facet normal -0.856042 -0.516907 0
    outer loop
      vertex 19.473 5.814 -5
      vertex 21.174 2.997 5
      vertex 19.473 5.814 5
    endloop
  endfacet
  facet normal -0.668471 -0.743739 0
    outer loop
      vertex 21.174 2.997 -5
      vertex 23.17 1.203 -5
      vertex 23.17 1.203 5
    endloop
  endfacet
  facet normal -0.668471 -0.743739 0
    outer loop
      vertex 21.174 2.997 5
      vertex 21.174 2.997 -5
      vertex 23.17 1.203 5
    endloop
  endfacet
  facet normal -0.341481 -0.939889 0
    outer loop
      vertex 23.17 1.203 -5
      vertex 25.76 0.262 -5
      vertex 25.76 0.262 5
    endloop
  endfacet
  facet normal -0.341481 -0.939889 0
    outer loop
      vertex 23.17 1.203 5
      vertex 23.17 1.203 -5
      vertex 25.76 0.262 5
    endloop
  endfacet
  facet normal -0.0751178 -0.997175 0
    outer loop
      vertex 25.76 0.262 -5
      vertex 29.238 0 -5
      vertex 29.238 0 5
    endloop
  endfacet
  facet normal -0.0751178 -0.997175 0
    outer loop
      vertex 25.76 0.262 5
      vertex 25.76 0.262 -5
      vertex 29.238 0 5
    endloop
  endfacet
  facet normal 0.00878443 -0.999961 0
    outer loop
      vertex 29.238 0 -5
      vertex 30.604 0.012 -5
      vertex 30.604 0.012 5
    endloop
  endfacet
  facet normal 0.00878443 -0.999961 0
    outer loop
      vertex 29.238 0 5
      vertex 29.238 0 -5
      vertex 30.604 0.012 5
    endloop
  endfacet
  facet normal 0.0353067 -0.999377 0
    outer loop
      vertex 30.604 0.012 -5
      vertex 31.623 0.048 -5
      vertex 31.623 0.048 5
    endloop
  endfacet
  facet normal 0.0353067 -0.999377 0
    outer loop
      vertex 30.604 0.012 5
      vertex 30.604 0.012 -5
      vertex 31.623 0.048 5
    endloop
  endfacet
  facet normal 0.128754 -0.991677 0
    outer loop
      vertex 31.623 0.048 -5
      vertex 32.347 0.142 -5
      vertex 32.347 0.142 5
    endloop
  endfacet
  facet normal 0.128754 -0.991677 0
    outer loop
      vertex 31.623 0.048 5
      vertex 31.623 0.048 -5
      vertex 32.347 0.142 5
    endloop
  endfacet
  facet normal 0.357539 -0.933898 0
    outer loop
      vertex 32.347 0.142 -5
      vertex 32.825 0.325 -5
      vertex 32.825 0.325 5
    endloop
  endfacet
  facet normal 0.357539 -0.933898 0
    outer loop
      vertex 32.347 0.142 5
      vertex 32.347 0.142 -5
      vertex 32.825 0.325 5
    endloop
  endfacet
  facet normal 0.731853 -0.681463 0
    outer loop
      vertex 32.825 0.325 -5
      vertex 33.109 0.63 -5
      vertex 33.109 0.63 5
    endloop
  endfacet
  facet normal 0.731853 -0.681463 0
    outer loop
      vertex 32.825 0.325 5
      vertex 32.825 0.325 -5
      vertex 33.109 0.63 5
    endloop
  endfacet
  facet normal 0.95614 -0.292909 0
    outer loop
      vertex 33.109 0.63 -5
      vertex 33.249 1.087 -5
      vertex 33.249 1.087 5
    endloop
  endfacet
  facet normal 0.95614 -0.292909 0
    outer loop
      vertex 33.109 0.63 5
      vertex 33.109 0.63 -5
      vertex 33.249 1.087 5
    endloop
  endfacet
  facet normal 0.997356 -0.0726755 0
    outer loop
      vertex 33.249 1.087 -5
      vertex 33.296 1.732 -5
      vertex 33.296 1.732 5
    endloop
  endfacet
  facet normal 0.997356 -0.0726755 0
    outer loop
      vertex 33.249 1.087 5
      vertex 33.249 1.087 -5
      vertex 33.296 1.732 5
    endloop
  endfacet
  facet normal 0.999976 -0.00694428 0
    outer loop
      vertex 33.296 1.732 -5
      vertex 33.302 2.596 -5
      vertex 33.302 2.596 5
    endloop
  endfacet
  facet normal 0.999976 -0.00694428 0
    outer loop
      vertex 33.296 1.732 5
      vertex 33.296 1.732 -5
      vertex 33.302 2.596 5
    endloop
  endfacet
  facet normal 1 0 0
    outer loop
      vertex 33.302 2.596 -5
      vertex 33.302 4.798 -5
      vertex 33.302 4.798 5
    endloop
  endfacet
  facet normal 1 0 0
    outer loop
      vertex 33.302 2.596 5
      vertex 33.302 2.596 -5
      vertex 33.302 4.798 5
    endloop
  endfacet
  facet normal -0.0512702 0.998685 0
    outer loop
      vertex 30.536 4.656 5
      vertex 33.302 4.798 5
      vertex 30.536 4.656 -5
    endloop
  endfacet
  facet normal -0.0512702 0.998685 0
    outer loop
      vertex 30.536 4.656 -5
      vertex 33.302 4.798 5
      vertex 33.302 4.798 -5
    endloop
  endfacet
  facet normal -0.0307752 0.999526 0
    outer loop
      vertex 29.042 4.61 5
      vertex 30.536 4.656 5
      vertex 29.042 4.61 -5
    endloop
  endfacet
  facet normal -0.0307752 0.999526 0
    outer loop
      vertex 29.042 4.61 -5
      vertex 30.536 4.656 5
      vertex 30.536 4.656 -5
    endloop
  endfacet
  facet normal 0.0441337 0.999026 0
    outer loop
      vertex 28.046 4.654 5
      vertex 29.042 4.61 5
      vertex 28.046 4.654 -5
    endloop
  endfacet
  facet normal 0.0441337 0.999026 0
    outer loop
      vertex 28.046 4.654 -5
      vertex 29.042 4.61 5
      vertex 29.042 4.61 -5
    endloop
  endfacet
  facet normal 0.219607 0.975588 0
    outer loop
      vertex 27.313 4.819 5
      vertex 28.046 4.654 5
      vertex 27.313 4.819 -5
    endloop
  endfacet
  facet normal 0.219607 0.975588 0
    outer loop
      vertex 27.313 4.819 -5
      vertex 28.046 4.654 5
      vertex 28.046 4.654 -5
    endloop
  endfacet
  facet normal 0.413017 0.910723 0
    outer loop
      vertex 26.614 5.136 5
      vertex 27.313 4.819 5
      vertex 26.614 5.136 -5
    endloop
  endfacet
  facet normal 0.413017 0.910723 0
    outer loop
      vertex 26.614 5.136 -5
      vertex 27.313 4.819 5
      vertex 27.313 4.819 -5
    endloop
  endfacet
  facet normal 0.531358 0.847147 0
    outer loop
      vertex 25.718 5.698 5
      vertex 26.614 5.136 5
      vertex 25.718 5.698 -5
    endloop
  endfacet
  facet normal 0.531358 0.847147 0
    outer loop
      vertex 25.718 5.698 -5
      vertex 26.614 5.136 5
      vertex 26.614 5.136 -5
    endloop
  endfacet
  facet normal 0.692178 0.721727 0
    outer loop
      vertex 24.912 6.471 5
      vertex 25.718 5.698 5
      vertex 24.912 6.471 -5
    endloop
  endfacet
  facet normal 0.692178 0.721727 0
    outer loop
      vertex 24.912 6.471 -5
      vertex 25.718 5.698 5
      vertex 25.718 5.698 -5
    endloop
  endfacet
  facet normal 0.803781 0.594925 0
    outer loop
      vertex 24.16 7.487 -5
      vertex 24.16 7.487 5
      vertex 24.912 6.471 5
    endloop
  endfacet
  facet normal 0.803781 0.594925 0
    outer loop
      vertex 24.912 6.471 -5
      vertex 24.16 7.487 -5
      vertex 24.912 6.471 5
    endloop
  endfacet
  facet normal 0.868574 0.495559 0
    outer loop
      vertex 23.424 8.777 -5
      vertex 23.424 8.777 5
      vertex 24.16 7.487 5
    endloop
  endfacet
  facet normal 0.868574 0.495559 0
    outer loop
      vertex 24.16 7.487 -5
      vertex 23.424 8.777 -5
      vertex 24.16 7.487 5
    endloop
  endfacet
  facet normal 0.91465 0.404247 0
    outer loop
      vertex 22.67 10.483 -5
      vertex 22.67 10.483 5
      vertex 23.424 8.777 5
    endloop
  endfacet
  facet normal 0.91465 0.404247 0
    outer loop
      vertex 23.424 8.777 -5
      vertex 22.67 10.483 -5
      vertex 23.424 8.777 5
    endloop
  endfacet
  facet normal 0.930286 0.366836 0
    outer loop
      vertex 21.836 12.598 -5
      vertex 21.836 12.598 5
      vertex 22.67 10.483 5
    endloop
  endfacet
  facet normal 0.930286 0.366836 0
    outer loop
      vertex 22.67 10.483 -5
      vertex 21.836 12.598 -5
      vertex 22.67 10.483 5
    endloop
  endfacet
  facet normal 0.942246 0.334922 0
    outer loop
      vertex 21.161 14.497 -5
      vertex 21.161 14.497 5
      vertex 21.836 12.598 5
    endloop
  endfacet
  facet normal 0.942246 0.334922 0
    outer loop
      vertex 21.836 12.598 -5
      vertex 21.161 14.497 -5
      vertex 21.836 12.598 5
    endloop
  endfacet
  facet normal 0.967098 0.254403 0
    outer loop
      vertex 20.884 15.55 -5
      vertex 20.884 15.55 5
      vertex 21.161 14.497 5
    endloop
  endfacet
  facet normal 0.967098 0.254403 0
    outer loop
      vertex 21.161 14.497 -5
      vertex 20.884 15.55 -5
      vertex 21.161 14.497 5
    endloop
  endfacet
  facet normal 0.952998 -0.302976 0
    outer loop
      vertex 20.884 15.55 -5
      vertex 21.049 16.069 -5
      vertex 21.049 16.069 5
    endloop
  endfacet
  facet normal 0.952998 -0.302976 0
    outer loop
      vertex 20.884 15.55 5
      vertex 20.884 15.55 -5
      vertex 21.049 16.069 5
    endloop
  endfacet
  facet normal 0.937371 -0.348333 0
    outer loop
      vertex 21.049 16.069 -5
      vertex 21.528 17.358 -5
      vertex 21.528 17.358 5
    endloop
  endfacet
  facet normal 0.937371 -0.348333 0
    outer loop
      vertex 21.049 16.069 5
      vertex 21.049 16.069 -5
      vertex 21.528 17.358 5
    endloop
  endfacet
  facet normal 0.933954 -0.357393 0
    outer loop
      vertex 21.528 17.358 -5
      vertex 22.283 19.331 -5
      vertex 22.283 19.331 5
    endloop
  endfacet
  facet normal 0.933954 -0.357393 0
    outer loop
      vertex 21.528 17.358 5
      vertex 21.528 17.358 -5
      vertex 22.283 19.331 5
    endloop
  endfacet
  facet normal 0.932079 -0.362254 0
    outer loop
      vertex 22.283 19.331 -5
      vertex 23.283 21.904 -5
      vertex 23.283 21.904 5
    endloop
  endfacet
  facet normal 0.932079 -0.362254 0
    outer loop
      vertex 22.283 19.331 5
      vertex 22.283 19.331 -5
      vertex 23.283 21.904 5
    endloop
  endfacet
  facet normal 0.930869 -0.365354 0
    outer loop
      vertex 23.283 21.904 -5
      vertex 24.495 24.992 -5
      vertex 24.495 24.992 5
    endloop
  endfacet
  facet normal 0.930869 -0.365354 0
    outer loop
      vertex 23.283 21.904 5
      vertex 23.283 21.904 -5
      vertex 24.495 24.992 5
    endloop
  endfacet
  facet normal 0.930091 -0.367329 0
    outer loop
      vertex 24.495 24.992 -5
      vertex 25.884 28.509 -5
      vertex 25.884 28.509 5
    endloop
  endfacet
  facet normal 0.930091 -0.367329 0
    outer loop
      vertex 24.495 24.992 5
      vertex 24.495 24.992 -5
      vertex 25.884 28.509 5
    endloop
  endfacet
  facet normal 0.929205 -0.369565 0
    outer loop
      vertex 25.884 28.509 -5
      vertex 27.42 32.371 -5
      vertex 27.42 32.371 5
    endloop
  endfacet
  facet normal 0.929205 -0.369565 0
    outer loop
      vertex 25.884 28.509 5
      vertex 25.884 28.509 -5
      vertex 27.42 32.371 5
    endloop
  endfacet
  facet normal 0.928508 -0.371313 0
    outer loop
      vertex 27.42 32.371 -5
      vertex 29.068 36.492 -5
      vertex 29.068 36.492 5
    endloop
  endfacet
  facet normal 0.928508 -0.371313 0
    outer loop
      vertex 27.42 32.371 5
      vertex 27.42 32.371 -5
      vertex 29.068 36.492 5
    endloop
  endfacet
  facet normal 0.928274 -0.371896 0
    outer loop
      vertex 29.068 36.492 -5
      vertex 30.717 40.608 -5
      vertex 30.717 40.608 5
    endloop
  endfacet
  facet normal 0.928274 -0.371896 0
    outer loop
      vertex 29.068 36.492 5
      vertex 29.068 36.492 -5
      vertex 30.717 40.608 5
    endloop
  endfacet
  facet normal 0.92876 -0.370683 0
    outer loop
      vertex 30.717 40.608 -5
      vertex 32.252 44.454 -5
      vertex 32.252 44.454 5
    endloop
  endfacet
  facet normal 0.92876 -0.370683 0
    outer loop
      vertex 30.717 40.608 5
      vertex 30.717 40.608 -5
      vertex 32.252 44.454 5
    endloop
  endfacet
  facet normal 0.929136 -0.369739 0
    outer loop
      vertex 32.252 44.454 -5
      vertex 33.642 47.947 -5
      vertex 33.642 47.947 5
    endloop
  endfacet
  facet normal 0.929136 -0.369739 0
    outer loop
      vertex 32.252 44.454 5
      vertex 32.252 44.454 -5
      vertex 33.642 47.947 5
    endloop
  endfacet
  facet normal 0.929585 -0.368608 0
    outer loop
      vertex 33.642 47.947 -5
      vertex 34.853 51.001 -5
      vertex 34.853 51.001 5
    endloop
  endfacet
  facet normal 0.929585 -0.368608 0
    outer loop
      vertex 33.642 47.947 5
      vertex 33.642 47.947 -5
      vertex 34.853 51.001 5
    endloop
  endfacet
  facet normal 0.930013 -0.367526 0
    outer loop
      vertex 34.853 51.001 -5
      vertex 35.854 53.534 -5
      vertex 35.854 53.534 5
    endloop
  endfacet
  facet normal 0.930013 -0.367526 0
    outer loop
      vertex 34.853 51.001 5
      vertex 34.853 51.001 -5
      vertex 35.854 53.534 5
    endloop
  endfacet
  facet normal 0.930957 -0.365129 0
    outer loop
      vertex 35.854 53.534 -5
      vertex 36.609 55.459 -5
      vertex 36.609 55.459 5
    endloop
  endfacet
  facet normal 0.930957 -0.365129 0
    outer loop
      vertex 35.854 53.534 5
      vertex 35.854 53.534 -5
      vertex 36.609 55.459 5
    endloop
  endfacet
  facet normal 0.932387 -0.361461 0
    outer loop
      vertex 36.609 55.459 -5
      vertex 37.087 56.692 -5
      vertex 37.087 56.692 5
    endloop
  endfacet
  facet normal 0.932387 -0.361461 0
    outer loop
      vertex 36.609 55.459 5
      vertex 36.609 55.459 -5
      vertex 37.087 56.692 5
    endloop
  endfacet
  facet normal 0.939494 -0.342566 0
    outer loop
      vertex 37.087 56.692 -5
      vertex 37.254 57.15 -5
      vertex 37.254 57.15 5
    endloop
  endfacet
  facet normal 0.939494 -0.342566 0
    outer loop
      vertex 37.087 56.692 5
      vertex 37.087 56.692 -5
      vertex 37.254 57.15 5
    endloop
  endfacet
  facet normal 0.224615 0.974448 0
    outer loop
      vertex 36.382 57.351 5
      vertex 37.254 57.15 5
      vertex 36.382 57.351 -5
    endloop
  endfacet
  facet normal 0.224615 0.974448 0
    outer loop
      vertex 36.382 57.351 -5
      vertex 37.254 57.15 5
      vertex 37.254 57.15 -5
    endloop
  endfacet
  facet normal 0.0150242 0.999887 0
    outer loop
      vertex 34.452 57.38 5
      vertex 36.382 57.351 5
      vertex 34.452 57.38 -5
    endloop
  endfacet
  facet normal 0.0150242 0.999887 0
    outer loop
      vertex 34.452 57.38 -5
      vertex 36.382 57.351 5
      vertex 36.382 57.351 -5
    endloop
  endfacet
  facet normal -0.0580061 0.998316 0
    outer loop
      vertex 32.49 57.266 5
      vertex 34.452 57.38 5
      vertex 32.49 57.266 -5
    endloop
  endfacet
  facet normal -0.0580061 0.998316 0
    outer loop
      vertex 32.49 57.266 -5
      vertex 34.452 57.38 5
      vertex 34.452 57.38 -5
    endloop
  endfacet
  facet normal -0.230667 0.973033 0
    outer loop
      vertex 31.524 57.037 5
      vertex 32.49 57.266 5
      vertex 31.524 57.037 -5
    endloop
  endfacet
  facet normal -0.230667 0.973033 0
    outer loop
      vertex 31.524 57.037 -5
      vertex 32.49 57.266 5
      vertex 32.49 57.266 -5
    endloop
  endfacet
  facet normal -0.936881 0.349649 0
    outer loop
      vertex 31.368 56.619 5
      vertex 31.524 57.037 5
      vertex 31.368 56.619 -5
    endloop
  endfacet
  facet normal -0.936881 0.349649 0
    outer loop
      vertex 31.368 56.619 -5
      vertex 31.524 57.037 5
      vertex 31.524 57.037 -5
    endloop
  endfacet
  facet normal -0.933913 0.3575 0
    outer loop
      vertex 30.963 55.561 5
      vertex 31.368 56.619 5
      vertex 30.963 55.561 -5
    endloop
  endfacet
  facet normal -0.933913 0.3575 0
    outer loop
      vertex 30.963 55.561 -5
      vertex 31.368 56.619 5
      vertex 31.368 56.619 -5
    endloop
  endfacet
  facet normal -0.933257 0.359209 0
    outer loop
      vertex 30.336 53.932 5
      vertex 30.963 55.561 5
      vertex 30.336 53.932 -5
    endloop
  endfacet
  facet normal -0.933257 0.359209 0
    outer loop
      vertex 30.336 53.932 -5
      vertex 30.963 55.561 5
      vertex 30.963 55.561 -5
    endloop
  endfacet
  facet normal -0.933006 0.359861 0
    outer loop
      vertex 29.516 51.806 5
      vertex 30.336 53.932 5
      vertex 29.516 51.806 -5
    endloop
  endfacet
  facet normal -0.933006 0.359861 0
    outer loop
      vertex 29.516 51.806 -5
      vertex 30.336 53.932 5
      vertex 30.336 53.932 -5
    endloop
  endfacet
  facet normal -0.933016 0.359836 0
    outer loop
      vertex 28.531 49.252 5
      vertex 29.516 51.806 5
      vertex 28.531 49.252 -5
    endloop
  endfacet
  facet normal -0.933016 0.359836 0
    outer loop
      vertex 28.531 49.252 -5
      vertex 29.516 51.806 5
      vertex 29.516 51.806 -5
    endloop
  endfacet
  facet normal -0.93294 0.360032 0
    outer loop
      vertex 27.408 46.342 5
      vertex 28.531 49.252 5
      vertex 27.408 46.342 -5
    endloop
  endfacet
  facet normal -0.93294 0.360032 0
    outer loop
      vertex 27.408 46.342 -5
      vertex 28.531 49.252 5
      vertex 28.531 49.252 -5
    endloop
  endfacet
  facet normal -0.933037 0.359781 0
    outer loop
      vertex 26.176 43.147 5
      vertex 27.408 46.342 5
      vertex 26.176 43.147 -5
    endloop
  endfacet
  facet normal -0.933037 0.359781 0
    outer loop
      vertex 26.176 43.147 -5
      vertex 27.408 46.342 5
      vertex 27.408 46.342 -5
    endloop
  endfacet
  facet normal -0.933303 0.359089 0
    outer loop
      vertex 24.864 39.737 5
      vertex 26.176 43.147 5
      vertex 24.864 39.737 -5
    endloop
  endfacet
  facet normal -0.933303 0.359089 0
    outer loop
      vertex 24.864 39.737 -5
      vertex 26.176 43.147 5
      vertex 26.176 43.147 -5
    endloop
  endfacet
  facet normal -0.932113 0.362169 0
    outer loop
      vertex 23.541 36.332 5
      vertex 24.864 39.737 5
      vertex 23.541 36.332 -5
    endloop
  endfacet
  facet normal -0.932113 0.362169 0
    outer loop
      vertex 23.541 36.332 -5
      vertex 24.864 39.737 5
      vertex 24.864 39.737 -5
    endloop
  endfacet
  facet normal -0.931867 0.362799 0
    outer loop
      vertex 22.301 33.147 5
      vertex 23.541 36.332 5
      vertex 22.301 33.147 -5
    endloop
  endfacet
  facet normal -0.931867 0.362799 0
    outer loop
      vertex 22.301 33.147 -5
      vertex 23.541 36.332 5
      vertex 23.541 36.332 -5
    endloop
  endfacet
  facet normal -0.931508 0.36372 0
    outer loop
      vertex 21.171 30.253 5
      vertex 22.301 33.147 5
      vertex 21.171 30.253 -5
    endloop
  endfacet
  facet normal -0.931508 0.36372 0
    outer loop
      vertex 21.171 30.253 -5
      vertex 22.301 33.147 5
      vertex 22.301 33.147 -5
    endloop
  endfacet
  facet normal -0.931042 0.364912 0
    outer loop
      vertex 20.179 27.722 5
      vertex 21.171 30.253 5
      vertex 20.179 27.722 -5
    endloop
  endfacet
  facet normal -0.931042 0.364912 0
    outer loop
      vertex 20.179 27.722 -5
      vertex 21.171 30.253 5
      vertex 21.171 30.253 -5
    endloop
  endfacet
  facet normal -0.930056 0.367418 0
    outer loop
      vertex 19.349 25.621 5
      vertex 20.179 27.722 5
      vertex 19.349 25.621 -5
    endloop
  endfacet
  facet normal -0.930056 0.367418 0
    outer loop
      vertex 19.349 25.621 -5
      vertex 20.179 27.722 5
      vertex 20.179 27.722 -5
    endloop
  endfacet
  facet normal -0.928877 0.37039 0
    outer loop
      vertex 18.711 24.021 5
      vertex 19.349 25.621 5
      vertex 18.711 24.021 -5
    endloop
  endfacet
  facet normal -0.928877 0.37039 0
    outer loop
      vertex 18.711 24.021 -5
      vertex 19.349 25.621 5
      vertex 19.349 25.621 -5
    endloop
  endfacet
  facet normal -0.926034 0.37744 0
    outer loop
      vertex 18.292 22.993 5
      vertex 18.711 24.021 5
      vertex 18.292 22.993 -5
    endloop
  endfacet
  facet normal -0.926034 0.37744 0
    outer loop
      vertex 18.292 22.993 -5
      vertex 18.711 24.021 5
      vertex 18.711 24.021 -5
    endloop
  endfacet
  facet normal -0.913326 0.40723 0
    outer loop
      vertex 18.119 22.605 5
      vertex 18.292 22.993 5
      vertex 18.119 22.605 -5
    endloop
  endfacet
  facet normal -0.913326 0.40723 0
    outer loop
      vertex 18.119 22.605 -5
      vertex 18.292 22.993 5
      vertex 18.292 22.993 -5
    endloop
  endfacet
  facet normal 0.885547 0.464549 0
    outer loop
      vertex 17.767 23.276 -5
      vertex 17.767 23.276 5
      vertex 18.119 22.605 5
    endloop
  endfacet
  facet normal 0.885547 0.464549 0
    outer loop
      vertex 18.119 22.605 -5
      vertex 17.767 23.276 -5
      vertex 18.119 22.605 5
    endloop
  endfacet
  facet normal 0.926492 0.376314 0
    outer loop
      vertex 16.964 25.253 -5
      vertex 16.964 25.253 5
      vertex 17.767 23.276 5
    endloop
  endfacet
  facet normal 0.926492 0.376314 0
    outer loop
      vertex 17.767 23.276 -5
      vertex 16.964 25.253 -5
      vertex 17.767 23.276 5
    endloop
  endfacet
  facet normal 0.934488 0.355995 0
    outer loop
      vertex 15.828 28.235 -5
      vertex 15.828 28.235 5
      vertex 16.964 25.253 5
    endloop
  endfacet
  facet normal 0.934488 0.355995 0
    outer loop
      vertex 16.964 25.253 -5
      vertex 15.828 28.235 -5
      vertex 16.964 25.253 5
    endloop
  endfacet
  facet normal 0.938972 0.343993 0
    outer loop
      vertex 14.478 31.92 -5
      vertex 14.478 31.92 5
      vertex 15.828 28.235 5
    endloop
  endfacet
  facet normal 0.938972 0.343993 0
    outer loop
      vertex 15.828 28.235 -5
      vertex 14.478 31.92 -5
      vertex 15.828 28.235 5
    endloop
  endfacet
  facet normal 0.940225 0.340554 0
    outer loop
      vertex 12.914 36.238 -5
      vertex 12.914 36.238 5
      vertex 14.478 31.92 5
    endloop
  endfacet
  facet normal 0.940225 0.340554 0
    outer loop
      vertex 14.478 31.92 -5
      vertex 12.914 36.238 -5
      vertex 14.478 31.92 5
    endloop
  endfacet
  facet normal 0.940423 0.340005 0
    outer loop
      vertex 11.201 40.976 -5
      vertex 11.201 40.976 5
      vertex 12.914 36.238 5
    endloop
  endfacet
  facet normal 0.940423 0.340005 0
    outer loop
      vertex 12.914 36.238 -5
      vertex 11.201 40.976 -5
      vertex 12.914 36.238 5
    endloop
  endfacet
  facet normal 0.940468 0.339881 0
    outer loop
      vertex 9.544 45.561 -5
      vertex 9.544 45.561 5
      vertex 11.201 40.976 5
    endloop
  endfacet
  facet normal 0.940468 0.339881 0
    outer loop
      vertex 11.201 40.976 -5
      vertex 9.544 45.561 -5
      vertex 11.201 40.976 5
    endloop
  endfacet
  facet normal 0.94095 0.338547 0
    outer loop
      vertex 8.157 49.416 -5
      vertex 8.157 49.416 5
      vertex 9.544 45.561 5
    endloop
  endfacet
  facet normal 0.94095 0.338547 0
    outer loop
      vertex 9.544 45.561 -5
      vertex 8.157 49.416 -5
      vertex 9.544 45.561 5
    endloop
  endfacet
  facet normal 0.940382 0.340121 0
    outer loop
      vertex 5.278 57.376 -5
      vertex 5.278 57.376 5
      vertex 8.157 49.416 5
    endloop
  endfacet
  facet normal 0.940382 0.340121 0
    outer loop
      vertex 8.157 49.416 -5
      vertex 5.278 57.376 -5
      vertex 8.157 49.416 5
    endloop
  endfacet
  facet normal 0 1 0
    outer loop
      vertex 2.653 57.376 5
      vertex 5.278 57.376 5
      vertex 2.653 57.376 -5
    endloop
  endfacet
  facet normal 0 1 0
    outer loop
      vertex 2.653 57.376 -5
      vertex 5.278 57.376 5
      vertex 5.278 57.376 -5
    endloop
  endfacet
  facet normal -0.0183544 0.999832 0
    outer loop
      vertex 1.618 57.357 5
      vertex 2.653 57.376 5
      vertex 1.618 57.357 -5
    endloop
  endfacet
  facet normal -0.0183544 0.999832 0
    outer loop
      vertex 1.618 57.357 -5
      vertex 2.653 57.376 5
      vertex 2.653 57.376 -5
    endloop
  endfacet
  facet normal -0.0640015 0.99795 0
    outer loop
      vertex 0.776 57.303 5
      vertex 1.618 57.357 5
      vertex 0.776 57.303 -5
    endloop
  endfacet
  facet normal -0.0640015 0.99795 0
    outer loop
      vertex 0.776 57.303 -5
      vertex 1.618 57.357 5
      vertex 1.618 57.357 -5
    endloop
  endfacet
  facet normal -0.141177 0.989984 0
    outer loop
      vertex 0.208 57.222 5
      vertex 0.776 57.303 5
      vertex 0.208 57.222 -5
    endloop
  endfacet
  facet normal -0.141177 0.989984 0
    outer loop
      vertex 0.208 57.222 -5
      vertex 0.776 57.303 5
      vertex 0.776 57.303 -5
    endloop
  endfacet
endsolid OpenSCAD_Model
