solid OpenSCAD_Model
  facet normal -0.912213 0.409716 0
    outer loop
      vertex 0.404 14.892 5
      vertex 0.903 16.003 5
      vertex 0.404 14.892 -5
    endloop
  endfacet
  facet normal -0.912213 0.409716 0
    outer loop
      vertex 0.404 14.892 -5
      vertex 0.903 16.003 5
      vertex 0.903 16.003 -5
    endloop
  endfacet
  facet normal -0.961524 0.274721 0
    outer loop
      vertex 0.134 13.947 5
      vertex 0.404 14.892 5
      vertex 0.134 13.947 -5
    endloop
  endfacet
  facet normal -0.961524 0.274721 0
    outer loop
      vertex 0.134 13.947 -5
      vertex 0.404 14.892 5
      vertex 0.404 14.892 -5
    endloop
  endfacet
  facet normal 0 0 -1
    outer loop
      vertex 0.022 12.817 -5
      vertex 0.134 13.947 -5
      vertex 0 11.148 -5
    endloop
  endfacet
  facet normal 0 0 -1
    outer loop
      vertex 0 11.148 -5
      vertex 0.134 13.947 -5
      vertex 0.404 14.892 -5
    endloop
  endfacet
  facet normal 0 0 -1
    outer loop
      vertex 0 11.148 -5
      vertex 0.404 14.892 -5
      vertex 0.903 16.003 -5
    endloop
  endfacet
  facet normal 0 0 -1
    outer loop
      vertex 0 11.148 -5
      vertex 0.903 16.003 -5
      vertex 2.126 18.047 -5
    endloop
  endfacet
  facet normal 0 0 -1
    outer loop
      vertex 0 11.148 -5
      vertex 2.126 18.047 -5
      vertex 3.693 19.736 -5
    endloop
  endfacet
  facet normal 0 0 -1
    outer loop
      vertex 0 11.148 -5
      vertex 3.693 19.736 -5
      vertex 5.613 21.076 -5
    endloop
  endfacet
  facet normal 0 0 -1
    outer loop
      vertex 0 11.148 -5
      vertex 5.613 21.076 -5
      vertex 7.902 22.071 -5
    endloop
  endfacet
  facet normal 0 0 -1
    outer loop
      vertex 0 11.148 -5
      vertex 7.902 22.071 -5
      vertex 9.418 22.319 -5
    endloop
  endfacet
  facet normal 0 0 -1
    outer loop
      vertex 0 11.148 -5
      vertex 9.418 22.319 -5
      vertex 11.571 22.353 -5
    endloop
  endfacet
  facet normal 0 0 -1
    outer loop
      vertex 0 11.148 -5
      vertex 11.571 22.353 -5
      vertex 12.954 22.287 -5
    endloop
  endfacet
  facet normal 0 0 -1
    outer loop
      vertex 0 11.148 -5
      vertex 12.954 22.287 -5
      vertex 13.998 22.138 -5
    endloop
  endfacet
  facet normal 0 0 -1
    outer loop
      vertex 0 11.148 -5
      vertex 13.998 22.138 -5
      vertex 14.937 21.857 -5
    endloop
  endfacet
  facet normal 0 0 -1
    outer loop
      vertex 0 11.148 -5
      vertex 14.937 21.857 -5
      vertex 16.002 21.393 -5
    endloop
  endfacet
  facet normal 0 0 -1
    outer loop
      vertex 0 11.148 -5
      vertex 16.002 21.393 -5
      vertex 17.697 20.417 -5
    endloop
  endfacet
  facet normal 0 0 -1
    outer loop
      vertex 0 11.148 -5
      vertex 17.697 20.417 -5
      vertex 19.173 19.185 -5
    endloop
  endfacet
  facet normal 0 0 -1
    outer loop
      vertex 0 11.148 -5
      vertex 19.173 19.185 -5
      vertex 20.412 17.711 -5
    endloop
  endfacet
  facet normal 0 0 -1
    outer loop
      vertex 0 11.148 -5
      vertex 20.412 17.711 -5
      vertex 21.393 16.003 -5
    endloop
  endfacet
  facet normal 0 0 -1
    outer loop
      vertex 0 11.148 -5
      vertex 21.393 16.003 -5
      vertex 21.89 14.892 -5
    endloop
  endfacet
  facet normal 0 0 -1
    outer loop
      vertex 0 11.148 -5
      vertex 21.89 14.892 -5
      vertex 22.16 13.947 -5
    endloop
  endfacet
  facet normal 0 0 -1
    outer loop
      vertex 0 11.148 -5
      vertex 22.16 13.947 -5
      vertex 22.273 12.817 -5
    endloop
  endfacet
  facet normal 0 0 -1
    outer loop
      vertex 0 11.148 -5
      vertex 22.273 12.817 -5
      vertex 22.295 11.148 -5
    endloop
  endfacet
  facet normal 0 0 -1
    outer loop
      vertex 0 11.148 -5
      vertex 22.295 11.148 -5
      vertex 22.273 9.471 -5
    endloop
  endfacet
  facet normal 0 0 -1
    outer loop
      vertex 0 11.148 -5
      vertex 22.273 9.471 -5
      vertex 22.16 8.348 -5
    endloop
  endfacet
  facet normal 0 0 -1
    outer loop
      vertex 0 11.148 -5
      vertex 22.16 8.348 -5
      vertex 21.89 7.425 -5
    endloop
  endfacet
  facet normal 0 0 -1
    outer loop
      vertex 0 11.148 -5
      vertex 21.89 7.425 -5
      vertex 21.393 6.349 -5
    endloop
  endfacet
  facet normal 0 0 -1
    outer loop
      vertex 0 11.148 -5
      vertex 21.393 6.349 -5
      vertex 20.378 4.65 -5
    endloop
  endfacet
  facet normal 0 0 -1
    outer loop
      vertex 0 11.148 -5
      vertex 20.378 4.65 -5
      vertex 19.102 3.136 -5
    endloop
  endfacet
  facet normal 0 0 -1
    outer loop
      vertex 0 11.148 -5
      vertex 19.102 3.136 -5
      vertex 17.61 1.862 -5
    endloop
  endfacet
  facet normal 0 0 -1
    outer loop
      vertex 0 11.148 -5
      vertex 17.61 1.862 -5
      vertex 15.945 0.875 -5
    endloop
  endfacet
  facet normal 0 0 -1
    outer loop
      vertex 0 11.148 -5
      vertex 15.945 0.875 -5
      vertex 14.865 0.394 -5
    endloop
  endfacet
  facet normal 0 0 -1
    outer loop
      vertex 0 11.148 -5
      vertex 14.865 0.394 -5
      vertex 13.938 0.131 -5
    endloop
  endfacet
  facet normal 0 0 -1
    outer loop
      vertex 0 11.148 -5
      vertex 13.938 0.131 -5
      vertex 12.813 0.021 -5
    endloop
  endfacet
  facet normal 0 0 -1
    outer loop
      vertex 0 11.148 -5
      vertex 12.813 0.021 -5
      vertex 11.148 -0.001 -5
    endloop
  endfacet
  facet normal 0 0 -1
    outer loop
      vertex 0 11.148 -5
      vertex 11.148 -0.001 -5
      vertex 9.48 0.022 -5
    endloop
  endfacet
  facet normal 0 0 -1
    outer loop
      vertex 0 11.148 -5
      vertex 9.48 0.022 -5
      vertex 8.35 0.134 -5
    endloop
  endfacet
  facet normal 0 0 -1
    outer loop
      vertex 0 11.148 -5
      vertex 8.35 0.134 -5
      vertex 7.404 0.405 -5
    endloop
  endfacet
  facet normal 0 0 -1
    outer loop
      vertex 0 11.148 -5
      vertex 7.404 0.405 -5
      vertex 6.293 0.904 -5
    endloop
  endfacet
  facet normal 0 0 -1
    outer loop
      vertex 0 11.148 -5
      vertex 6.293 0.904 -5
      vertex 4.597 1.885 -5
    endloop
  endfacet
  facet normal 0 0 -1
    outer loop
      vertex 0 11.148 -5
      vertex 4.597 1.885 -5
      vertex 3.121 3.123 -5
    endloop
  endfacet
  facet normal 0 0 -1
    outer loop
      vertex 0 11.148 -5
      vertex 3.121 3.123 -5
      vertex 1.884 4.599 -5
    endloop
  endfacet
  facet normal 0 0 -1
    outer loop
      vertex 0 11.148 -5
      vertex 1.884 4.599 -5
      vertex 0.903 6.293 -5
    endloop
  endfacet
  facet normal 0 0 -1
    outer loop
      vertex 0 11.148 -5
      vertex 0.903 6.293 -5
      vertex 0.404 7.406 -5
    endloop
  endfacet
  facet normal 0 0 -1
    outer loop
      vertex 0 11.148 -5
      vertex 0.404 7.406 -5
      vertex 0.134 8.351 -5
    endloop
  endfacet
  facet normal 0 0 -1
    outer loop
      vertex 0 11.148 -5
      vertex 0.134 8.351 -5
      vertex 0.022 9.481 -5
    endloop
  endfacet
  facet normal -0.858122 0.513446 0
    outer loop
      vertex 0.903 16.003 5
      vertex 2.126 18.047 5
      vertex 0.903 16.003 -5
    endloop
  endfacet
  facet normal -0.858122 0.513446 0
    outer loop
      vertex 0.903 16.003 -5
      vertex 2.126 18.047 5
      vertex 2.126 18.047 -5
    endloop
  endfacet
  facet normal 0 0 1
    outer loop
      vertex 0 11.148 5
      vertex 0.022 9.481 5
      vertex 0.134 8.351 5
    endloop
  endfacet
  facet normal 0 0 1
    outer loop
      vertex 0.903 6.293 5
      vertex 0 11.148 5
      vertex 0.404 7.406 5
    endloop
  endfacet
  facet normal 0 0 1
    outer loop
      vertex 0.404 7.406 5
      vertex 0 11.148 5
      vertex 0.134 8.351 5
    endloop
  endfacet
  facet normal 0 0 1
    outer loop
      vertex 1.884 4.599 5
      vertex 0 11.148 5
      vertex 0.903 6.293 5
    endloop
  endfacet
  facet normal 0 0 1
    outer loop
      vertex 3.121 3.123 5
      vertex 0 11.148 5
      vertex 1.884 4.599 5
    endloop
  endfacet
  facet normal 0 0 1
    outer loop
      vertex 4.597 1.885 5
      vertex 0 11.148 5
      vertex 3.121 3.123 5
    endloop
  endfacet
  facet normal 0 0 1
    outer loop
      vertex 6.293 0.904 5
      vertex 0 11.148 5
      vertex 4.597 1.885 5
    endloop
  endfacet
  facet normal 0 0 1
    outer loop
      vertex 7.404 0.405 5
      vertex 0 11.148 5
      vertex 6.293 0.904 5
    endloop
  endfacet
  facet normal 0 0 1
    outer loop
      vertex 8.35 0.134 5
      vertex 0 11.148 5
      vertex 7.404 0.405 5
    endloop
  endfacet
  facet normal 0 0 1
    outer loop
      vertex 9.48 0.022 5
      vertex 0 11.148 5
      vertex 8.35 0.134 5
    endloop
  endfacet
  facet normal 0 0 1
    outer loop
      vertex 11.148 -0.001 5
      vertex 0 11.148 5
      vertex 9.48 0.022 5
    endloop
  endfacet
  facet normal 0 0 1
    outer loop
      vertex 12.813 0.021 5
      vertex 0 11.148 5
      vertex 11.148 -0.001 5
    endloop
  endfacet
  facet normal 0 0 1
    outer loop
      vertex 13.938 0.131 5
      vertex 0 11.148 5
      vertex 12.813 0.021 5
    endloop
  endfacet
  facet normal 0 0 1
    outer loop
      vertex 14.865 0.394 5
      vertex 0 11.148 5
      vertex 13.938 0.131 5
    endloop
  endfacet
  facet normal 0 0 1
    outer loop
      vertex 15.945 0.875 5
      vertex 0 11.148 5
      vertex 14.865 0.394 5
    endloop
  endfacet
  facet normal 0 0 1
    outer loop
      vertex 17.61 1.862 5
      vertex 0 11.148 5
      vertex 15.945 0.875 5
    endloop
  endfacet
  facet normal 0 0 1
    outer loop
      vertex 19.102 3.136 5
      vertex 0 11.148 5
      vertex 17.61 1.862 5
    endloop
  endfacet
  facet normal 0 0 1
    outer loop
      vertex 20.378 4.65 5
      vertex 0 11.148 5
      vertex 19.102 3.136 5
    endloop
  endfacet
  facet normal 0 0 1
    outer loop
      vertex 21.393 6.349 5
      vertex 0 11.148 5
      vertex 20.378 4.65 5
    endloop
  endfacet
  facet normal 0 0 1
    outer loop
      vertex 21.89 7.425 5
      vertex 0 11.148 5
      vertex 21.393 6.349 5
    endloop
  endfacet
  facet normal 0 0 1
    outer loop
      vertex 22.16 8.348 5
      vertex 0 11.148 5
      vertex 21.89 7.425 5
    endloop
  endfacet
  facet normal 0 0 1
    outer loop
      vertex 22.273 9.471 5
      vertex 0 11.148 5
      vertex 22.16 8.348 5
    endloop
  endfacet
  facet normal 0 0 1
    outer loop
      vertex 22.295 11.148 5
      vertex 0 11.148 5
      vertex 22.273 9.471 5
    endloop
  endfacet
  facet normal 0 0 1
    outer loop
      vertex 22.273 12.817 5
      vertex 0 11.148 5
      vertex 22.295 11.148 5
    endloop
  endfacet
  facet normal 0 0 1
    outer loop
      vertex 22.16 13.947 5
      vertex 0 11.148 5
      vertex 22.273 12.817 5
    endloop
  endfacet
  facet normal 0 0 1
    outer loop
      vertex 21.89 14.892 5
      vertex 0 11.148 5
      vertex 22.16 13.947 5
    endloop
  endfacet
  facet normal 0 0 1
    outer loop
      vertex 21.393 16.003 5
      vertex 0 11.148 5
      vertex 21.89 14.892 5
    endloop
  endfacet
  facet normal 0 0 1
    outer loop
      vertex 20.412 17.711 5
      vertex 0 11.148 5
      vertex 21.393 16.003 5
    endloop
  endfacet
  facet normal 0 0 1
    outer loop
      vertex 19.173 19.185 5
      vertex 0 11.148 5
      vertex 20.412 17.711 5
    endloop
  endfacet
  facet normal 0 0 1
    outer loop
      vertex 17.697 20.417 5
      vertex 0 11.148 5
      vertex 19.173 19.185 5
    endloop
  endfacet
  facet normal 0 0 1
    outer loop
      vertex 16.002 21.393 5
      vertex 0 11.148 5
      vertex 17.697 20.417 5
    endloop
  endfacet
  facet normal 0 0 1
    outer loop
      vertex 14.937 21.857 5
      vertex 0 11.148 5
      vertex 16.002 21.393 5
    endloop
  endfacet
  facet normal 0 0 1
    outer loop
      vertex 13.998 22.138 5
      vertex 0 11.148 5
      vertex 14.937 21.857 5
    endloop
  endfacet
  facet normal 0 0 1
    outer loop
      vertex 12.954 22.287 5
      vertex 0 11.148 5
      vertex 13.998 22.138 5
    endloop
  endfacet
  facet normal 0 0 1
    outer loop
      vertex 11.571 22.353 5
      vertex 0 11.148 5
      vertex 12.954 22.287 5
    endloop
  endfacet
  facet normal 0 0 1
    outer loop
      vertex 9.418 22.319 5
      vertex 0 11.148 5
      vertex 11.571 22.353 5
    endloop
  endfacet
  facet normal 0 0 1
    outer loop
      vertex 7.902 22.071 5
      vertex 0 11.148 5
      vertex 9.418 22.319 5
    endloop
  endfacet
  facet normal 0 0 1
    outer loop
      vertex 5.613 21.076 5
      vertex 0 11.148 5
      vertex 7.902 22.071 5
    endloop
  endfacet
  facet normal 0 0 1
    outer loop
      vertex 3.693 19.736 5
      vertex 0 11.148 5
      vertex 5.613 21.076 5
    endloop
  endfacet
  facet normal 0 0 1
    outer loop
      vertex 2.126 18.047 5
      vertex 0 11.148 5
      vertex 3.693 19.736 5
    endloop
  endfacet
  facet normal 0 0 1
    outer loop
      vertex 0.903 16.003 5
      vertex 0 11.148 5
      vertex 2.126 18.047 5
    endloop
  endfacet
  facet normal 0 0 1
    outer loop
      vertex 0.404 14.892 5
      vertex 0 11.148 5
      vertex 0.903 16.003 5
    endloop
  endfacet
  facet normal 0 0 1
    outer loop
      vertex 0.134 13.947 5
      vertex 0 11.148 5
      vertex 0.404 14.892 5
    endloop
  endfacet
  facet normal 0 0 1
    outer loop
      vertex 0.022 12.817 5
      vertex 0 11.148 5
      vertex 0.134 13.947 5
    endloop
  endfacet
  facet normal -0.995124 0.0986318 0
    outer loop
      vertex 0.022 12.817 5
      vertex 0.134 13.947 5
      vertex 0.022 12.817 -5
    endloop
  endfacet
  facet normal -0.995124 0.0986318 0
    outer loop
      vertex 0.022 12.817 -5
      vertex 0.134 13.947 5
      vertex 0.134 13.947 -5
    endloop
  endfacet
  facet normal -0.999913 -0.0131962 0
    outer loop
      vertex 0.022 9.481 -5
      vertex 0.022 9.481 5
      vertex 0 11.148 -5
    endloop
  endfacet
  facet normal -0.999913 -0.0131962 0
    outer loop
      vertex 0 11.148 -5
      vertex 0.022 9.481 5
      vertex 0 11.148 5
    endloop
  endfacet
  facet normal -0.999913 0.0131804 0
    outer loop
      vertex 0 11.148 5
      vertex 0.022 12.817 5
      vertex 0 11.148 -5
    endloop
  endfacet
  facet normal -0.999913 0.0131804 0
    outer loop
      vertex 0 11.148 -5
      vertex 0.022 12.817 5
      vertex 0.022 12.817 -5
    endloop
  endfacet
  facet normal -0.995124 -0.0986318 0
    outer loop
      vertex 0.134 8.351 -5
      vertex 0.134 8.351 5
      vertex 0.022 9.481 -5
    endloop
  endfacet
  facet normal -0.995124 -0.0986318 0
    outer loop
      vertex 0.022 9.481 -5
      vertex 0.134 8.351 5
      vertex 0.022 9.481 5
    endloop
  endfacet
  facet normal -0.961524 -0.274721 0
    outer loop
      vertex 0.404 7.406 -5
      vertex 0.404 7.406 5
      vertex 0.134 8.351 -5
    endloop
  endfacet
  facet normal -0.961524 -0.274721 0
    outer loop
      vertex 0.134 8.351 -5
      vertex 0.404 7.406 5
      vertex 0.134 8.351 5
    endloop
  endfacet
  facet normal -0.912488 -0.409103 0
    outer loop
      vertex 0.903 6.293 -5
      vertex 0.903 6.293 5
      vertex 0.404 7.406 -5
    endloop
  endfacet
  facet normal -0.912488 -0.409103 0
    outer loop
      vertex 0.404 7.406 -5
      vertex 0.903 6.293 5
      vertex 0.404 7.406 5
    endloop
  endfacet
  facet normal -0.865368 -0.501137 0
    outer loop
      vertex 1.884 4.599 -5
      vertex 1.884 4.599 5
      vertex 0.903 6.293 -5
    endloop
  endfacet
  facet normal -0.865368 -0.501137 0
    outer loop
      vertex 0.903 6.293 -5
      vertex 1.884 4.599 5
      vertex 0.903 6.293 5
    endloop
  endfacet
  facet normal -0.766431 -0.642327 0
    outer loop
      vertex 3.121 3.123 -5
      vertex 3.121 3.123 5
      vertex 1.884 4.599 -5
    endloop
  endfacet
  facet normal -0.766431 -0.642327 0
    outer loop
      vertex 1.884 4.599 -5
      vertex 3.121 3.123 5
      vertex 1.884 4.599 5
    endloop
  endfacet
  facet normal -0.642632 -0.766175 0
    outer loop
      vertex 3.121 3.123 -5
      vertex 4.597 1.885 -5
      vertex 4.597 1.885 5
    endloop
  endfacet
  facet normal -0.642632 -0.766175 0
    outer loop
      vertex 3.121 3.123 5
      vertex 3.121 3.123 -5
      vertex 4.597 1.885 5
    endloop
  endfacet
  facet normal -0.500694 -0.865624 0
    outer loop
      vertex 4.597 1.885 -5
      vertex 6.293 0.904 -5
      vertex 6.293 0.904 5
    endloop
  endfacet
  facet normal -0.500694 -0.865624 0
    outer loop
      vertex 4.597 1.885 5
      vertex 4.597 1.885 -5
      vertex 6.293 0.904 5
    endloop
  endfacet
  facet normal -0.409716 -0.912213 0
    outer loop
      vertex 6.293 0.904 -5
      vertex 7.404 0.405 -5
      vertex 7.404 0.405 5
    endloop
  endfacet
  facet normal -0.409716 -0.912213 0
    outer loop
      vertex 6.293 0.904 5
      vertex 6.293 0.904 -5
      vertex 7.404 0.405 5
    endloop
  endfacet
  facet normal -0.275392 -0.961332 0
    outer loop
      vertex 7.404 0.405 -5
      vertex 8.35 0.134 -5
      vertex 8.35 0.134 5
    endloop
  endfacet
  facet normal -0.275392 -0.961332 0
    outer loop
      vertex 7.404 0.405 5
      vertex 7.404 0.405 -5
      vertex 8.35 0.134 5
    endloop
  endfacet
  facet normal -0.0986318 -0.995124 0
    outer loop
      vertex 8.35 0.134 -5
      vertex 9.48 0.022 -5
      vertex 9.48 0.022 5
    endloop
  endfacet
  facet normal -0.0986318 -0.995124 0
    outer loop
      vertex 8.35 0.134 5
      vertex 8.35 0.134 -5
      vertex 9.48 0.022 5
    endloop
  endfacet
  facet normal -0.0137877 -0.999905 0
    outer loop
      vertex 9.48 0.022 -5
      vertex 11.148 -0.001 -5
      vertex 11.148 -0.001 5
    endloop
  endfacet
  facet normal -0.0137877 -0.999905 0
    outer loop
      vertex 9.48 0.022 5
      vertex 9.48 0.022 -5
      vertex 11.148 -0.001 5
    endloop
  endfacet
  facet normal 0.0132121 -0.999913 0
    outer loop
      vertex 11.148 -0.001 -5
      vertex 12.813 0.021 -5
      vertex 12.813 0.021 5
    endloop
  endfacet
  facet normal 0.0132121 -0.999913 0
    outer loop
      vertex 11.148 -0.001 5
      vertex 11.148 -0.001 -5
      vertex 12.813 0.021 5
    endloop
  endfacet
  facet normal 0.0973137 -0.995254 0
    outer loop
      vertex 12.813 0.021 -5
      vertex 13.938 0.131 -5
      vertex 13.938 0.131 5
    endloop
  endfacet
  facet normal 0.0973137 -0.995254 0
    outer loop
      vertex 12.813 0.021 5
      vertex 12.813 0.021 -5
      vertex 13.938 0.131 5
    endloop
  endfacet
  facet normal 0.272939 -0.962031 0
    outer loop
      vertex 13.938 0.131 -5
      vertex 14.865 0.394 -5
      vertex 14.865 0.394 5
    endloop
  endfacet
  facet normal 0.272939 -0.962031 0
    outer loop
      vertex 13.938 0.131 5
      vertex 13.938 0.131 -5
      vertex 14.865 0.394 5
    endloop
  endfacet
  facet normal 0.406845 -0.913497 0
    outer loop
      vertex 14.865 0.394 -5
      vertex 15.945 0.875 -5
      vertex 15.945 0.875 5
    endloop
  endfacet
  facet normal 0.406845 -0.913497 0
    outer loop
      vertex 14.865 0.394 5
      vertex 14.865 0.394 -5
      vertex 15.945 0.875 5
    endloop
  endfacet
  facet normal 0.50993 -0.860216 0
    outer loop
      vertex 15.945 0.875 -5
      vertex 17.61 1.862 -5
      vertex 17.61 1.862 5
    endloop
  endfacet
  facet normal 0.50993 -0.860216 0
    outer loop
      vertex 15.945 0.875 5
      vertex 15.945 0.875 -5
      vertex 17.61 1.862 5
    endloop
  endfacet
  facet normal 0.649363 -0.760479 0
    outer loop
      vertex 17.61 1.862 -5
      vertex 19.102 3.136 -5
      vertex 19.102 3.136 5
    endloop
  endfacet
  facet normal 0.649363 -0.760479 0
    outer loop
      vertex 17.61 1.862 5
      vertex 17.61 1.862 -5
      vertex 19.102 3.136 5
    endloop
  endfacet
  facet normal 0.764649 -0.644447 0
    outer loop
      vertex 19.102 3.136 -5
      vertex 20.378 4.65 -5
      vertex 20.378 4.65 5
    endloop
  endfacet
  facet normal 0.764649 -0.644447 0
    outer loop
      vertex 19.102 3.136 5
      vertex 19.102 3.136 -5
      vertex 20.378 4.65 5
    endloop
  endfacet
  facet normal 0.858472 -0.51286 0
    outer loop
      vertex 20.378 4.65 -5
      vertex 21.393 6.349 -5
      vertex 21.393 6.349 5
    endloop
  endfacet
  facet normal 0.858472 -0.51286 0
    outer loop
      vertex 20.378 4.65 5
      vertex 20.378 4.65 -5
      vertex 21.393 6.349 5
    endloop
  endfacet
  facet normal 0.907836 -0.419326 0
    outer loop
      vertex 21.393 6.349 -5
      vertex 21.89 7.425 -5
      vertex 21.89 7.425 5
    endloop
  endfacet
  facet normal 0.907836 -0.419326 0
    outer loop
      vertex 21.393 6.349 5
      vertex 21.393 6.349 -5
      vertex 21.89 7.425 5
    endloop
  endfacet
  facet normal 0.959778 -0.280759 0
    outer loop
      vertex 21.89 7.425 -5
      vertex 22.16 8.348 -5
      vertex 22.16 8.348 5
    endloop
  endfacet
  facet normal 0.959778 -0.280759 0
    outer loop
      vertex 21.89 7.425 5
      vertex 21.89 7.425 -5
      vertex 22.16 8.348 5
    endloop
  endfacet
  facet normal 0.994976 -0.100118 0
    outer loop
      vertex 22.16 8.348 -5
      vertex 22.273 9.471 -5
      vertex 22.273 9.471 5
    endloop
  endfacet
  facet normal 0.994976 -0.100118 0
    outer loop
      vertex 22.16 8.348 5
      vertex 22.16 8.348 -5
      vertex 22.273 9.471 5
    endloop
  endfacet
  facet normal 0.999914 -0.0131175 0
    outer loop
      vertex 22.273 9.471 -5
      vertex 22.295 11.148 -5
      vertex 22.295 11.148 5
    endloop
  endfacet
  facet normal 0.999914 -0.0131175 0
    outer loop
      vertex 22.273 9.471 5
      vertex 22.273 9.471 -5
      vertex 22.295 11.148 5
    endloop
  endfacet
  facet normal 0.999913 0.0131804 0
    outer loop
      vertex 22.273 12.817 -5
      vertex 22.273 12.817 5
      vertex 22.295 11.148 5
    endloop
  endfacet
  facet normal 0.999913 0.0131804 0
    outer loop
      vertex 22.295 11.148 -5
      vertex 22.273 12.817 -5
      vertex 22.295 11.148 5
    endloop
  endfacet
  facet normal 0.995037 0.0995037 0
    outer loop
      vertex 22.16 13.947 -5
      vertex 22.16 13.947 5
      vertex 22.273 12.817 5
    endloop
  endfacet
  facet normal 0.995037 0.0995037 0
    outer loop
      vertex 22.273 12.817 -5
      vertex 22.16 13.947 -5
      vertex 22.273 12.817 5
    endloop
  endfacet
  facet normal 0.961524 0.274721 0
    outer loop
      vertex 21.89 14.892 -5
      vertex 21.89 14.892 5
      vertex 22.16 13.947 5
    endloop
  endfacet
  facet normal 0.961524 0.274721 0
    outer loop
      vertex 22.16 13.947 -5
      vertex 21.89 14.892 -5
      vertex 22.16 13.947 5
    endloop
  endfacet
  facet normal 0.912826 0.408348 0
    outer loop
      vertex 21.393 16.003 -5
      vertex 21.393 16.003 5
      vertex 21.89 14.892 5
    endloop
  endfacet
  facet normal 0.912826 0.408348 0
    outer loop
      vertex 21.89 14.892 -5
      vertex 21.393 16.003 -5
      vertex 21.89 14.892 5
    endloop
  endfacet
  facet normal 0.867148 0.498051 0
    outer loop
      vertex 20.412 17.711 -5
      vertex 20.412 17.711 5
      vertex 21.393 16.003 5
    endloop
  endfacet
  facet normal 0.867148 0.498051 0
    outer loop
      vertex 21.393 16.003 -5
      vertex 20.412 17.711 -5
      vertex 21.393 16.003 5
    endloop
  endfacet
  facet normal 0.76549 0.643448 0
    outer loop
      vertex 19.173 19.185 -5
      vertex 19.173 19.185 5
      vertex 20.412 17.711 5
    endloop
  endfacet
  facet normal 0.76549 0.643448 0
    outer loop
      vertex 20.412 17.711 -5
      vertex 19.173 19.185 -5
      vertex 20.412 17.711 5
    endloop
  endfacet
  facet normal 0.640798 0.767709 0
    outer loop
      vertex 17.697 20.417 5
      vertex 19.173 19.185 5
      vertex 17.697 20.417 -5
    endloop
  endfacet
  facet normal 0.640798 0.767709 0
    outer loop
      vertex 17.697 20.417 -5
      vertex 19.173 19.185 5
      vertex 19.173 19.185 -5
    endloop
  endfacet
  facet normal 0.498999 0.866602 0
    outer loop
      vertex 16.002 21.393 5
      vertex 17.697 20.417 5
      vertex 16.002 21.393 -5
    endloop
  endfacet
  facet normal 0.498999 0.866602 0
    outer loop
      vertex 16.002 21.393 -5
      vertex 17.697 20.417 5
      vertex 17.697 20.417 -5
    endloop
  endfacet
  facet normal 0.399418 0.916769 0
    outer loop
      vertex 14.937 21.857 5
      vertex 16.002 21.393 5
      vertex 14.937 21.857 -5
    endloop
  endfacet
  facet normal 0.399418 0.916769 0
    outer loop
      vertex 14.937 21.857 -5
      vertex 16.002 21.393 5
      vertex 16.002 21.393 -5
    endloop
  endfacet
  facet normal 0.286693 0.958023 0
    outer loop
      vertex 13.998 22.138 5
      vertex 14.937 21.857 5
      vertex 13.998 22.138 -5
    endloop
  endfacet
  facet normal 0.286693 0.958023 0
    outer loop
      vertex 13.998 22.138 -5
      vertex 14.937 21.857 5
      vertex 14.937 21.857 -5
    endloop
  endfacet
  facet normal 0.141289 0.989968 0
    outer loop
      vertex 12.954 22.287 5
      vertex 13.998 22.138 5
      vertex 12.954 22.287 -5
    endloop
  endfacet
  facet normal 0.141289 0.989968 0
    outer loop
      vertex 12.954 22.287 -5
      vertex 13.998 22.138 5
      vertex 13.998 22.138 -5
    endloop
  endfacet
  facet normal 0.0476681 0.998863 0
    outer loop
      vertex 11.571 22.353 5
      vertex 12.954 22.287 5
      vertex 11.571 22.353 -5
    endloop
  endfacet
  facet normal 0.0476681 0.998863 0
    outer loop
      vertex 11.571 22.353 -5
      vertex 12.954 22.287 5
      vertex 12.954 22.287 -5
    endloop
  endfacet
  facet normal -0.0157899 0.999875 0
    outer loop
      vertex 9.418 22.319 5
      vertex 11.571 22.353 5
      vertex 9.418 22.319 -5
    endloop
  endfacet
  facet normal -0.0157899 0.999875 0
    outer loop
      vertex 9.418 22.319 -5
      vertex 11.571 22.353 5
      vertex 11.571 22.353 -5
    endloop
  endfacet
  facet normal -0.161442 0.986882 0
    outer loop
      vertex 7.902 22.071 5
      vertex 9.418 22.319 5
      vertex 7.902 22.071 -5
    endloop
  endfacet
  facet normal -0.161442 0.986882 0
    outer loop
      vertex 7.902 22.071 -5
      vertex 9.418 22.319 5
      vertex 9.418 22.319 -5
    endloop
  endfacet
  facet normal -0.398653 0.917102 0
    outer loop
      vertex 5.613 21.076 5
      vertex 7.902 22.071 5
      vertex 5.613 21.076 -5
    endloop
  endfacet
  facet normal -0.398653 0.917102 0
    outer loop
      vertex 5.613 21.076 -5
      vertex 7.902 22.071 5
      vertex 7.902 22.071 -5
    endloop
  endfacet
  facet normal -0.572315 0.820034 0
    outer loop
      vertex 3.693 19.736 5
      vertex 5.613 21.076 5
      vertex 3.693 19.736 -5
    endloop
  endfacet
  facet normal -0.572315 0.820034 0
    outer loop
      vertex 3.693 19.736 -5
      vertex 5.613 21.076 5
      vertex 5.613 21.076 -5
    endloop
  endfacet
  facet normal -0.733087 0.680135 0
    outer loop
      vertex 2.126 18.047 5
      vertex 3.693 19.736 5
      vertex 2.126 18.047 -5
    endloop
  endfacet
  facet normal -0.733087 0.680135 0
    outer loop
      vertex 2.126 18.047 -5
      vertex 3.693 19.736 5
      vertex 3.693 19.736 -5
    endloop
  endfacet
endsolid OpenSCAD_Model
