solid OpenSCAD_Model
  facet normal 1 0 0
    outer loop
      vertex 5.362 0 -5
      vertex 5.362 14.534 -5
      vertex 5.362 14.534 5
    endloop
  endfacet
  facet normal 1 0 0
    outer loop
      vertex 5.362 0 5
      vertex 5.362 0 -5
      vertex 5.362 14.534 5
    endloop
  endfacet
  facet normal 0.999995 -0.00328226 0
    outer loop
      vertex 5.362 14.534 -5
      vertex 5.383 20.932 -5
      vertex 5.383 20.932 5
    endloop
  endfacet
  facet normal 0.999995 -0.00328226 0
    outer loop
      vertex 5.362 14.534 5
      vertex 5.362 14.534 -5
      vertex 5.383 20.932 5
    endloop
  endfacet
  facet normal 0 0 -1
    outer loop
      vertex 0 15.324 -5
      vertex 0.006 20.832 -5
      vertex 0 0 -5
    endloop
  endfacet
  facet normal 0 0 -1
    outer loop
      vertex 0 0 -5
      vertex 0.006 20.832 -5
      vertex 0.036 25.091 -5
    endloop
  endfacet
  facet normal 0 0 -1
    outer loop
      vertex 0 0 -5
      vertex 0.036 25.091 -5
      vertex 0.103 28.308 -5
    endloop
  endfacet
  facet normal 0 0 -1
    outer loop
      vertex 0 0 -5
      vertex 0.103 28.308 -5
      vertex 0.225 30.692 -5
    endloop
  endfacet
  facet normal 0 0 -1
    outer loop
      vertex 0 0 -5
      vertex 0.225 30.692 -5
      vertex 0.415 32.451 -5
    endloop
  endfacet
  facet normal 0 0 -1
    outer loop
      vertex 0 0 -5
      vertex 0.415 32.451 -5
      vertex 0.689 33.795 -5
    endloop
  endfacet
  facet normal 0 0 -1
    outer loop
      vertex 0 0 -5
      vertex 0.689 33.795 -5
      vertex 1.062 34.932 -5
    endloop
  endfacet
  facet normal 0 0 -1
    outer loop
      vertex 0 0 -5
      vertex 1.062 34.932 -5
      vertex 1.552 36.067 -5
    endloop
  endfacet
  facet normal 0 0 -1
    outer loop
      vertex 0 0 -5
      vertex 1.552 36.067 -5
      vertex 2.866 38.297 -5
    endloop
  endfacet
  facet normal 0 0 -1
    outer loop
      vertex 0 0 -5
      vertex 2.866 38.297 -5
      vertex 4.564 40.054 -5
    endloop
  endfacet
  facet normal 0 0 -1
    outer loop
      vertex 0 0 -5
      vertex 4.564 40.054 -5
      vertex 6.695 41.378 -5
    endloop
  endfacet
  facet normal 0 0 -1
    outer loop
      vertex 7.552 34.875 -5
      vertex 6.695 41.378 -5
      vertex 9.313 42.304 -5
    endloop
  endfacet
  facet normal 0 0 -1
    outer loop
      vertex 9.081 36.466 -5
      vertex 9.313 42.304 -5
      vertex 11.66 42.716 -5
    endloop
  endfacet
  facet normal 0 0 -1
    outer loop
      vertex 12.667 38.136 -5
      vertex 11.66 42.716 -5
      vertex 14.41 42.887 -5
    endloop
  endfacet
  facet normal 0 0 -1
    outer loop
      vertex 13.895 38.22 -5
      vertex 14.41 42.887 -5
      vertex 17.103 42.81 -5
    endloop
  endfacet
  facet normal 0 0 -1
    outer loop
      vertex 16.807 38.239 -5
      vertex 17.103 42.81 -5
      vertex 19.276 42.474 -5
    endloop
  endfacet
  facet normal 0 0 -1
    outer loop
      vertex 19.428 37.98 -5
      vertex 19.276 42.474 -5
      vertex 21.766 41.589 -5
    endloop
  endfacet
  facet normal 0 0 -1
    outer loop
      vertex 21.223 37.168 -5
      vertex 21.766 41.589 -5
      vertex 24.023 40.323 -5
    endloop
  endfacet
  facet normal 0 0 -1
    outer loop
      vertex 23.615 35.65 -5
      vertex 24.023 40.323 -5
      vertex 25.975 38.728 -5
    endloop
  endfacet
  facet normal 0 0 -1
    outer loop
      vertex 25.552 33.674 -5
      vertex 27.544 36.858 -5
      vertex 28.505 35.418 -5
    endloop
  endfacet
  facet normal 0 0 -1
    outer loop
      vertex 23.615 35.65 -5
      vertex 27.544 36.858 -5
      vertex 25.552 33.674 -5
    endloop
  endfacet
  facet normal 0 0 -1
    outer loop
      vertex 28.505 41.768 -5
      vertex 33.867 41.768 -5
      vertex 28.505 35.418 -5
    endloop
  endfacet
  facet normal 0 0 -1
    outer loop
      vertex 28.505 0 -5
      vertex 33.867 41.768 -5
      vertex 33.867 0 -5
    endloop
  endfacet
  facet normal 0 0 -1
    outer loop
      vertex 28.505 13.349 -5
      vertex 33.867 41.768 -5
      vertex 28.505 0 -5
    endloop
  endfacet
  facet normal 0 0 -1
    outer loop
      vertex 28.499 17.09 -5
      vertex 33.867 41.768 -5
      vertex 28.505 13.349 -5
    endloop
  endfacet
  facet normal 0 0 -1
    outer loop
      vertex 28.485 20.133 -5
      vertex 33.867 41.768 -5
      vertex 28.499 17.09 -5
    endloop
  endfacet
  facet normal 0 0 -1
    outer loop
      vertex 28.459 22.559 -5
      vertex 33.867 41.768 -5
      vertex 28.485 20.133 -5
    endloop
  endfacet
  facet normal 0 0 -1
    outer loop
      vertex 28.419 24.452 -5
      vertex 33.867 41.768 -5
      vertex 28.459 22.559 -5
    endloop
  endfacet
  facet normal 0 0 -1
    outer loop
      vertex 28.363 25.893 -5
      vertex 33.867 41.768 -5
      vertex 28.419 24.452 -5
    endloop
  endfacet
  facet normal 0 0 -1
    outer loop
      vertex 28.29 26.967 -5
      vertex 33.867 41.768 -5
      vertex 28.363 25.893 -5
    endloop
  endfacet
  facet normal 0 0 -1
    outer loop
      vertex 28.196 27.754 -5
      vertex 33.867 41.768 -5
      vertex 28.29 26.967 -5
    endloop
  endfacet
  facet normal 0 0 -1
    outer loop
      vertex 28.082 28.335 -5
      vertex 33.867 41.768 -5
      vertex 28.196 27.754 -5
    endloop
  endfacet
  facet normal 0 0 -1
    outer loop
      vertex 27.037 31.236 -5
      vertex 33.867 41.768 -5
      vertex 28.082 28.335 -5
    endloop
  endfacet
  facet normal 0 0 -1
    outer loop
      vertex 23.615 35.65 -5
      vertex 25.975 38.728 -5
      vertex 27.544 36.858 -5
    endloop
  endfacet
  facet normal 0 0 -1
    outer loop
      vertex 21.223 37.168 -5
      vertex 24.023 40.323 -5
      vertex 23.615 35.65 -5
    endloop
  endfacet
  facet normal 0 0 -1
    outer loop
      vertex 20.515 37.523 -5
      vertex 21.766 41.589 -5
      vertex 21.223 37.168 -5
    endloop
  endfacet
  facet normal 0 0 -1
    outer loop
      vertex 19.428 37.98 -5
      vertex 21.766 41.589 -5
      vertex 19.937 37.789 -5
    endloop
  endfacet
  facet normal 0 0 -1
    outer loop
      vertex 19.937 37.789 -5
      vertex 21.766 41.589 -5
      vertex 20.515 37.523 -5
    endloop
  endfacet
  facet normal 0 0 -1
    outer loop
      vertex 18.922 38.107 -5
      vertex 19.276 42.474 -5
      vertex 19.428 37.98 -5
    endloop
  endfacet
  facet normal 0 0 -1
    outer loop
      vertex 16.807 38.239 -5
      vertex 19.276 42.474 -5
      vertex 17.675 38.224 -5
    endloop
  endfacet
  facet normal 0 0 -1
    outer loop
      vertex 18.36 38.184 -5
      vertex 19.276 42.474 -5
      vertex 18.922 38.107 -5
    endloop
  endfacet
  facet normal 0 0 -1
    outer loop
      vertex 17.675 38.224 -5
      vertex 19.276 42.474 -5
      vertex 18.36 38.184 -5
    endloop
  endfacet
  facet normal 0 0 -1
    outer loop
      vertex 15.692 38.24 -5
      vertex 17.103 42.81 -5
      vertex 16.807 38.239 -5
    endloop
  endfacet
  facet normal 0 0 -1
    outer loop
      vertex 13.895 38.22 -5
      vertex 17.103 42.81 -5
      vertex 15.692 38.24 -5
    endloop
  endfacet
  facet normal 0 0 -1
    outer loop
      vertex 12.667 38.136 -5
      vertex 14.41 42.887 -5
      vertex 13.895 38.22 -5
    endloop
  endfacet
  facet normal 0 0 -1
    outer loop
      vertex 11.774 37.955 -5
      vertex 11.66 42.716 -5
      vertex 12.667 38.136 -5
    endloop
  endfacet
  facet normal 0 0 -1
    outer loop
      vertex 9.081 36.466 -5
      vertex 11.66 42.716 -5
      vertex 10.979 37.648 -5
    endloop
  endfacet
  facet normal 0 0 -1
    outer loop
      vertex 10.979 37.648 -5
      vertex 11.66 42.716 -5
      vertex 11.774 37.955 -5
    endloop
  endfacet
  facet normal 0 0 -1
    outer loop
      vertex 7.552 34.875 -5
      vertex 9.313 42.304 -5
      vertex 9.081 36.466 -5
    endloop
  endfacet
  facet normal 0 0 -1
    outer loop
      vertex 6.409 32.894 -5
      vertex 6.695 41.378 -5
      vertex 7.552 34.875 -5
    endloop
  endfacet
  facet normal 0 0 -1
    outer loop
      vertex 5.442 25.753 -5
      vertex 0 0 -5
      vertex 5.54 28.965 -5
    endloop
  endfacet
  facet normal 0 0 -1
    outer loop
      vertex 5.672 30.536 -5
      vertex 6.695 41.378 -5
      vertex 6.409 32.894 -5
    endloop
  endfacet
  facet normal 0 0 -1
    outer loop
      vertex 0 0 -5
      vertex 6.695 41.378 -5
      vertex 5.672 30.536 -5
    endloop
  endfacet
  facet normal 0 0 -1
    outer loop
      vertex 0 0 -5
      vertex 5.672 30.536 -5
      vertex 5.54 28.965 -5
    endloop
  endfacet
  facet normal 0 0 -1
    outer loop
      vertex 5.383 20.932 -5
      vertex 0 0 -5
      vertex 5.442 25.753 -5
    endloop
  endfacet
  facet normal 0 0 -1
    outer loop
      vertex 5.362 14.534 -5
      vertex 0 0 -5
      vertex 5.383 20.932 -5
    endloop
  endfacet
  facet normal 0 0 -1
    outer loop
      vertex 5.362 0 -5
      vertex 0 0 -5
      vertex 5.362 14.534 -5
    endloop
  endfacet
  facet normal 0 0 -1
    outer loop
      vertex 28.505 35.418 -5
      vertex 33.867 41.768 -5
      vertex 27.037 31.236 -5
    endloop
  endfacet
  facet normal 0 0 -1
    outer loop
      vertex 25.552 33.674 -5
      vertex 28.505 35.418 -5
      vertex 27.037 31.236 -5
    endloop
  endfacet
  facet normal 0 -1 0
    outer loop
      vertex 0 0 -5
      vertex 5.362 0 -5
      vertex 5.362 0 5
    endloop
  endfacet
  facet normal 0 -1 0
    outer loop
      vertex 0 0 5
      vertex 0 0 -5
      vertex 5.362 0 5
    endloop
  endfacet
  facet normal 0 0 1
    outer loop
      vertex 5.442 25.753 5
      vertex 5.54 28.965 5
      vertex 0 0 5
    endloop
  endfacet
  facet normal 0 0 1
    outer loop
      vertex 0 0 5
      vertex 5.362 0 5
      vertex 5.362 14.534 5
    endloop
  endfacet
  facet normal 0 0 1
    outer loop
      vertex 5.54 28.965 5
      vertex 5.672 30.536 5
      vertex 0 0 5
    endloop
  endfacet
  facet normal 0 0 1
    outer loop
      vertex 5.383 20.932 5
      vertex 0 0 5
      vertex 5.362 14.534 5
    endloop
  endfacet
  facet normal 0 0 1
    outer loop
      vertex 5.383 20.932 5
      vertex 5.442 25.753 5
      vertex 0 0 5
    endloop
  endfacet
  facet normal 0 0 1
    outer loop
      vertex 5.672 30.536 5
      vertex 6.695 41.378 5
      vertex 0 0 5
    endloop
  endfacet
  facet normal 0 0 1
    outer loop
      vertex 6.409 32.894 5
      vertex 9.313 42.304 5
      vertex 5.672 30.536 5
    endloop
  endfacet
  facet normal 0 0 1
    outer loop
      vertex 7.552 34.875 5
      vertex 11.66 42.716 5
      vertex 6.409 32.894 5
    endloop
  endfacet
  facet normal 0 0 1
    outer loop
      vertex 9.081 36.466 5
      vertex 14.41 42.887 5
      vertex 7.552 34.875 5
    endloop
  endfacet
  facet normal 0 0 1
    outer loop
      vertex 10.979 37.648 5
      vertex 17.103 42.81 5
      vertex 9.081 36.466 5
    endloop
  endfacet
  facet normal 0 0 1
    outer loop
      vertex 11.774 37.955 5
      vertex 19.276 42.474 5
      vertex 10.979 37.648 5
    endloop
  endfacet
  facet normal 0 0 1
    outer loop
      vertex 24.023 40.323 5
      vertex 21.766 41.589 5
      vertex 12.667 38.136 5
    endloop
  endfacet
  facet normal 0 0 1
    outer loop
      vertex 28.082 28.335 5
      vertex 33.867 41.768 5
      vertex 27.037 31.236 5
    endloop
  endfacet
  facet normal 0 0 1
    outer loop
      vertex 28.196 27.754 5
      vertex 33.867 0 5
      vertex 28.082 28.335 5
    endloop
  endfacet
  facet normal 0 0 1
    outer loop
      vertex 28.29 26.967 5
      vertex 33.867 0 5
      vertex 28.196 27.754 5
    endloop
  endfacet
  facet normal 0 0 1
    outer loop
      vertex 28.363 25.893 5
      vertex 33.867 0 5
      vertex 28.29 26.967 5
    endloop
  endfacet
  facet normal 0 0 1
    outer loop
      vertex 28.419 24.452 5
      vertex 33.867 0 5
      vertex 28.363 25.893 5
    endloop
  endfacet
  facet normal 0 0 1
    outer loop
      vertex 28.459 22.559 5
      vertex 33.867 0 5
      vertex 28.419 24.452 5
    endloop
  endfacet
  facet normal 0 0 1
    outer loop
      vertex 28.485 20.133 5
      vertex 33.867 0 5
      vertex 28.459 22.559 5
    endloop
  endfacet
  facet normal 0 0 1
    outer loop
      vertex 28.499 17.09 5
      vertex 33.867 0 5
      vertex 28.485 20.133 5
    endloop
  endfacet
  facet normal 0 0 1
    outer loop
      vertex 28.505 13.349 5
      vertex 33.867 0 5
      vertex 28.499 17.09 5
    endloop
  endfacet
  facet normal 0 0 1
    outer loop
      vertex 21.766 41.589 5
      vertex 19.276 42.474 5
      vertex 11.774 37.955 5
    endloop
  endfacet
  facet normal 0 0 1
    outer loop
      vertex 28.505 0 5
      vertex 33.867 0 5
      vertex 28.505 13.349 5
    endloop
  endfacet
  facet normal 0 0 1
    outer loop
      vertex 33.867 0 5
      vertex 33.867 41.768 5
      vertex 28.082 28.335 5
    endloop
  endfacet
  facet normal 0 0 1
    outer loop
      vertex 27.037 31.236 5
      vertex 28.505 35.418 5
      vertex 25.552 33.674 5
    endloop
  endfacet
  facet normal 0 0 1
    outer loop
      vertex 27.037 31.236 5
      vertex 33.867 41.768 5
      vertex 28.505 35.418 5
    endloop
  endfacet
  facet normal 0 0 1
    outer loop
      vertex 25.552 33.674 5
      vertex 27.544 36.858 5
      vertex 23.615 35.65 5
    endloop
  endfacet
  facet normal 0 0 1
    outer loop
      vertex 12.667 38.136 5
      vertex 21.766 41.589 5
      vertex 11.774 37.955 5
    endloop
  endfacet
  facet normal 0 0 1
    outer loop
      vertex 23.615 35.65 5
      vertex 25.975 38.728 5
      vertex 21.223 37.168 5
    endloop
  endfacet
  facet normal 0 0 1
    outer loop
      vertex 19.276 42.474 5
      vertex 17.103 42.81 5
      vertex 10.979 37.648 5
    endloop
  endfacet
  facet normal 0 0 1
    outer loop
      vertex 17.103 42.81 5
      vertex 14.41 42.887 5
      vertex 9.081 36.466 5
    endloop
  endfacet
  facet normal 0 0 1
    outer loop
      vertex 14.41 42.887 5
      vertex 11.66 42.716 5
      vertex 7.552 34.875 5
    endloop
  endfacet
  facet normal 0 0 1
    outer loop
      vertex 11.66 42.716 5
      vertex 9.313 42.304 5
      vertex 6.409 32.894 5
    endloop
  endfacet
  facet normal 0 0 1
    outer loop
      vertex 9.313 42.304 5
      vertex 6.695 41.378 5
      vertex 5.672 30.536 5
    endloop
  endfacet
  facet normal 0 0 1
    outer loop
      vertex 6.695 41.378 5
      vertex 4.564 40.054 5
      vertex 0 0 5
    endloop
  endfacet
  facet normal 0 0 1
    outer loop
      vertex 4.564 40.054 5
      vertex 2.866 38.297 5
      vertex 0 0 5
    endloop
  endfacet
  facet normal 0 0 1
    outer loop
      vertex 2.866 38.297 5
      vertex 1.552 36.067 5
      vertex 0 0 5
    endloop
  endfacet
  facet normal 0 0 1
    outer loop
      vertex 1.552 36.067 5
      vertex 1.062 34.932 5
      vertex 0 0 5
    endloop
  endfacet
  facet normal 0 0 1
    outer loop
      vertex 1.062 34.932 5
      vertex 0.689 33.795 5
      vertex 0 0 5
    endloop
  endfacet
  facet normal 0 0 1
    outer loop
      vertex 0.689 33.795 5
      vertex 0.415 32.451 5
      vertex 0 0 5
    endloop
  endfacet
  facet normal 0 0 1
    outer loop
      vertex 0.415 32.451 5
      vertex 0.225 30.692 5
      vertex 0 0 5
    endloop
  endfacet
  facet normal 0 0 1
    outer loop
      vertex 0.225 30.692 5
      vertex 0.103 28.308 5
      vertex 0 0 5
    endloop
  endfacet
  facet normal 0 0 1
    outer loop
      vertex 0.103 28.308 5
      vertex 0.036 25.091 5
      vertex 0 0 5
    endloop
  endfacet
  facet normal 0 0 1
    outer loop
      vertex 0.036 25.091 5
      vertex 0.006 20.832 5
      vertex 0 0 5
    endloop
  endfacet
  facet normal 0 0 1
    outer loop
      vertex 0.006 20.832 5
      vertex 0 15.324 5
      vertex 0 0 5
    endloop
  endfacet
  facet normal 0 0 1
    outer loop
      vertex 28.505 35.418 5
      vertex 27.544 36.858 5
      vertex 25.552 33.674 5
    endloop
  endfacet
  facet normal 0 0 1
    outer loop
      vertex 27.544 36.858 5
      vertex 25.975 38.728 5
      vertex 23.615 35.65 5
    endloop
  endfacet
  facet normal 0 0 1
    outer loop
      vertex 25.975 38.728 5
      vertex 20.515 37.523 5
      vertex 21.223 37.168 5
    endloop
  endfacet
  facet normal 0 0 1
    outer loop
      vertex 25.975 38.728 5
      vertex 19.937 37.789 5
      vertex 20.515 37.523 5
    endloop
  endfacet
  facet normal 0 0 1
    outer loop
      vertex 25.975 38.728 5
      vertex 19.428 37.98 5
      vertex 19.937 37.789 5
    endloop
  endfacet
  facet normal 0 0 1
    outer loop
      vertex 25.975 38.728 5
      vertex 18.922 38.107 5
      vertex 19.428 37.98 5
    endloop
  endfacet
  facet normal 0 0 1
    outer loop
      vertex 25.975 38.728 5
      vertex 18.36 38.184 5
      vertex 18.922 38.107 5
    endloop
  endfacet
  facet normal 0 0 1
    outer loop
      vertex 25.975 38.728 5
      vertex 17.675 38.224 5
      vertex 18.36 38.184 5
    endloop
  endfacet
  facet normal 0 0 1
    outer loop
      vertex 25.975 38.728 5
      vertex 16.807 38.239 5
      vertex 17.675 38.224 5
    endloop
  endfacet
  facet normal 0 0 1
    outer loop
      vertex 25.975 38.728 5
      vertex 15.692 38.24 5
      vertex 16.807 38.239 5
    endloop
  endfacet
  facet normal 0 0 1
    outer loop
      vertex 25.975 38.728 5
      vertex 13.895 38.22 5
      vertex 15.692 38.24 5
    endloop
  endfacet
  facet normal 0 0 1
    outer loop
      vertex 13.895 38.22 5
      vertex 24.023 40.323 5
      vertex 12.667 38.136 5
    endloop
  endfacet
  facet normal 0 0 1
    outer loop
      vertex 25.975 38.728 5
      vertex 24.023 40.323 5
      vertex 13.895 38.22 5
    endloop
  endfacet
  facet normal 0 0 1
    outer loop
      vertex 28.505 41.768 5
      vertex 28.505 35.418 5
      vertex 33.867 41.768 5
    endloop
  endfacet
  facet normal 0.999925 -0.0122372 0
    outer loop
      vertex 5.383 20.932 -5
      vertex 5.442 25.753 -5
      vertex 5.442 25.753 5
    endloop
  endfacet
  facet normal 0.999925 -0.0122372 0
    outer loop
      vertex 5.383 20.932 5
      vertex 5.383 20.932 -5
      vertex 5.442 25.753 5
    endloop
  endfacet
  facet normal -1 0 0
    outer loop
      vertex 0 0 5
      vertex 0 15.324 5
      vertex 0 0 -5
    endloop
  endfacet
  facet normal -1 0 0
    outer loop
      vertex 0 0 -5
      vertex 0 15.324 5
      vertex 0 15.324 -5
    endloop
  endfacet
  facet normal 0.999535 -0.0304964 0
    outer loop
      vertex 5.442 25.753 -5
      vertex 5.54 28.965 -5
      vertex 5.54 28.965 5
    endloop
  endfacet
  facet normal 0.999535 -0.0304964 0
    outer loop
      vertex 5.442 25.753 5
      vertex 5.442 25.753 -5
      vertex 5.54 28.965 5
    endloop
  endfacet
  facet normal 0.996489 -0.0837279 0
    outer loop
      vertex 5.54 28.965 -5
      vertex 5.672 30.536 -5
      vertex 5.672 30.536 5
    endloop
  endfacet
  facet normal 0.996489 -0.0837279 0
    outer loop
      vertex 5.54 28.965 5
      vertex 5.54 28.965 -5
      vertex 5.672 30.536 5
    endloop
  endfacet
  facet normal 0.954466 -0.298321 0
    outer loop
      vertex 5.672 30.536 -5
      vertex 6.409 32.894 -5
      vertex 6.409 32.894 5
    endloop
  endfacet
  facet normal 0.954466 -0.298321 0
    outer loop
      vertex 5.672 30.536 5
      vertex 5.672 30.536 -5
      vertex 6.409 32.894 5
    endloop
  endfacet
  facet normal 0.866164 -0.49976 0
    outer loop
      vertex 6.409 32.894 -5
      vertex 7.552 34.875 -5
      vertex 7.552 34.875 5
    endloop
  endfacet
  facet normal 0.866164 -0.49976 0
    outer loop
      vertex 6.409 32.894 5
      vertex 6.409 32.894 -5
      vertex 7.552 34.875 5
    endloop
  endfacet
  facet normal 0.721016 -0.692919 0
    outer loop
      vertex 7.552 34.875 -5
      vertex 9.081 36.466 -5
      vertex 9.081 36.466 5
    endloop
  endfacet
  facet normal 0.721016 -0.692919 0
    outer loop
      vertex 7.552 34.875 5
      vertex 7.552 34.875 -5
      vertex 9.081 36.466 5
    endloop
  endfacet
  facet normal 0.528631 -0.848851 0
    outer loop
      vertex 9.081 36.466 -5
      vertex 10.979 37.648 -5
      vertex 10.979 37.648 5
    endloop
  endfacet
  facet normal 0.528631 -0.848851 0
    outer loop
      vertex 9.081 36.466 5
      vertex 9.081 36.466 -5
      vertex 10.979 37.648 5
    endloop
  endfacet
  facet normal 0.360237 -0.932861 0
    outer loop
      vertex 10.979 37.648 -5
      vertex 11.774 37.955 -5
      vertex 11.774 37.955 5
    endloop
  endfacet
  facet normal 0.360237 -0.932861 0
    outer loop
      vertex 10.979 37.648 5
      vertex 10.979 37.648 -5
      vertex 11.774 37.955 5
    endloop
  endfacet
  facet normal 0.198648 -0.980071 0
    outer loop
      vertex 11.774 37.955 -5
      vertex 12.667 38.136 -5
      vertex 12.667 38.136 5
    endloop
  endfacet
  facet normal 0.198648 -0.980071 0
    outer loop
      vertex 11.774 37.955 5
      vertex 11.774 37.955 -5
      vertex 12.667 38.136 5
    endloop
  endfacet
  facet normal 0.0682444 -0.997669 0
    outer loop
      vertex 12.667 38.136 -5
      vertex 13.895 38.22 -5
      vertex 13.895 38.22 5
    endloop
  endfacet
  facet normal 0.0682444 -0.997669 0
    outer loop
      vertex 12.667 38.136 5
      vertex 12.667 38.136 -5
      vertex 13.895 38.22 5
    endloop
  endfacet
  facet normal 0.011129 -0.999938 0
    outer loop
      vertex 13.895 38.22 -5
      vertex 15.692 38.24 -5
      vertex 15.692 38.24 5
    endloop
  endfacet
  facet normal 0.011129 -0.999938 0
    outer loop
      vertex 13.895 38.22 5
      vertex 13.895 38.22 -5
      vertex 15.692 38.24 5
    endloop
  endfacet
  facet normal -0.000896861 -1 0
    outer loop
      vertex 15.692 38.24 -5
      vertex 16.807 38.239 -5
      vertex 16.807 38.239 5
    endloop
  endfacet
  facet normal -0.000896861 -1 0
    outer loop
      vertex 15.692 38.24 5
      vertex 15.692 38.24 -5
      vertex 16.807 38.239 5
    endloop
  endfacet
  facet normal -0.0172785 -0.999851 0
    outer loop
      vertex 16.807 38.239 -5
      vertex 17.675 38.224 -5
      vertex 17.675 38.224 5
    endloop
  endfacet
  facet normal -0.0172785 -0.999851 0
    outer loop
      vertex 16.807 38.239 5
      vertex 16.807 38.239 -5
      vertex 17.675 38.224 5
    endloop
  endfacet
  facet normal -0.0582949 -0.998299 0
    outer loop
      vertex 17.675 38.224 -5
      vertex 18.36 38.184 -5
      vertex 18.36 38.184 5
    endloop
  endfacet
  facet normal -0.0582949 -0.998299 0
    outer loop
      vertex 17.675 38.224 5
      vertex 17.675 38.224 -5
      vertex 18.36 38.184 5
    endloop
  endfacet
  facet normal -0.135743 -0.990744 0
    outer loop
      vertex 18.36 38.184 -5
      vertex 18.922 38.107 -5
      vertex 18.922 38.107 5
    endloop
  endfacet
  facet normal -0.135743 -0.990744 0
    outer loop
      vertex 18.36 38.184 5
      vertex 18.36 38.184 -5
      vertex 18.922 38.107 5
    endloop
  endfacet
  facet normal -0.243438 -0.969917 0
    outer loop
      vertex 18.922 38.107 -5
      vertex 19.428 37.98 -5
      vertex 19.428 37.98 5
    endloop
  endfacet
  facet normal -0.243438 -0.969917 0
    outer loop
      vertex 18.922 38.107 5
      vertex 18.922 38.107 -5
      vertex 19.428 37.98 5
    endloop
  endfacet
  facet normal -0.351325 -0.936254 0
    outer loop
      vertex 19.428 37.98 -5
      vertex 19.937 37.789 -5
      vertex 19.937 37.789 5
    endloop
  endfacet
  facet normal -0.351325 -0.936254 0
    outer loop
      vertex 19.428 37.98 5
      vertex 19.428 37.98 -5
      vertex 19.937 37.789 5
    endloop
  endfacet
  facet normal -0.418061 -0.908419 0
    outer loop
      vertex 19.937 37.789 -5
      vertex 20.515 37.523 -5
      vertex 20.515 37.523 5
    endloop
  endfacet
  facet normal -0.418061 -0.908419 0
    outer loop
      vertex 19.937 37.789 5
      vertex 19.937 37.789 -5
      vertex 20.515 37.523 5
    endloop
  endfacet
  facet normal -0.448223 -0.893922 0
    outer loop
      vertex 20.515 37.523 -5
      vertex 21.223 37.168 -5
      vertex 21.223 37.168 5
    endloop
  endfacet
  facet normal -0.448223 -0.893922 0
    outer loop
      vertex 20.515 37.523 5
      vertex 20.515 37.523 -5
      vertex 21.223 37.168 5
    endloop
  endfacet
  facet normal -0.535824 -0.844329 0
    outer loop
      vertex 21.223 37.168 -5
      vertex 23.615 35.65 -5
      vertex 23.615 35.65 5
    endloop
  endfacet
  facet normal -0.535824 -0.844329 0
    outer loop
      vertex 21.223 37.168 5
      vertex 21.223 37.168 -5
      vertex 23.615 35.65 5
    endloop
  endfacet
  facet normal -0.714119 -0.700024 0
    outer loop
      vertex 25.552 33.674 -5
      vertex 25.552 33.674 5
      vertex 23.615 35.65 -5
    endloop
  endfacet
  facet normal -0.714119 -0.700024 0
    outer loop
      vertex 23.615 35.65 -5
      vertex 25.552 33.674 5
      vertex 23.615 35.65 5
    endloop
  endfacet
  facet normal -0.854043 -0.520203 0
    outer loop
      vertex 27.037 31.236 -5
      vertex 27.037 31.236 5
      vertex 25.552 33.674 -5
    endloop
  endfacet
  facet normal -0.854043 -0.520203 0
    outer loop
      vertex 25.552 33.674 -5
      vertex 27.037 31.236 5
      vertex 25.552 33.674 5
    endloop
  endfacet
  facet normal -0.940821 -0.338903 0
    outer loop
      vertex 28.082 28.335 -5
      vertex 28.082 28.335 5
      vertex 27.037 31.236 -5
    endloop
  endfacet
  facet normal -0.940821 -0.338903 0
    outer loop
      vertex 27.037 31.236 -5
      vertex 28.082 28.335 5
      vertex 27.037 31.236 5
    endloop
  endfacet
  facet normal -0.981289 -0.192542 0
    outer loop
      vertex 28.196 27.754 -5
      vertex 28.196 27.754 5
      vertex 28.082 28.335 -5
    endloop
  endfacet
  facet normal -0.981289 -0.192542 0
    outer loop
      vertex 28.082 28.335 -5
      vertex 28.196 27.754 5
      vertex 28.082 28.335 5
    endloop
  endfacet
  facet normal -0.992942 -0.118598 0
    outer loop
      vertex 28.29 26.967 -5
      vertex 28.29 26.967 5
      vertex 28.196 27.754 -5
    endloop
  endfacet
  facet normal -0.992942 -0.118598 0
    outer loop
      vertex 28.196 27.754 -5
      vertex 28.29 26.967 5
      vertex 28.196 27.754 5
    endloop
  endfacet
  facet normal -0.997698 -0.0678137 0
    outer loop
      vertex 28.363 25.893 -5
      vertex 28.363 25.893 5
      vertex 28.29 26.967 -5
    endloop
  endfacet
  facet normal -0.997698 -0.0678137 0
    outer loop
      vertex 28.29 26.967 -5
      vertex 28.363 25.893 5
      vertex 28.29 26.967 5
    endloop
  endfacet
  facet normal -0.999246 -0.0388326 0
    outer loop
      vertex 28.419 24.452 -5
      vertex 28.419 24.452 5
      vertex 28.363 25.893 -5
    endloop
  endfacet
  facet normal -0.999246 -0.0388326 0
    outer loop
      vertex 28.363 25.893 -5
      vertex 28.419 24.452 5
      vertex 28.363 25.893 5
    endloop
  endfacet
  facet normal -0.999777 -0.0211258 0
    outer loop
      vertex 28.459 22.559 -5
      vertex 28.459 22.559 5
      vertex 28.419 24.452 -5
    endloop
  endfacet
  facet normal -0.999777 -0.0211258 0
    outer loop
      vertex 28.419 24.452 -5
      vertex 28.459 22.559 5
      vertex 28.419 24.452 5
    endloop
  endfacet
  facet normal -0.999943 -0.0107166 0
    outer loop
      vertex 28.485 20.133 -5
      vertex 28.485 20.133 5
      vertex 28.459 22.559 -5
    endloop
  endfacet
  facet normal -0.999943 -0.0107166 0
    outer loop
      vertex 28.459 22.559 -5
      vertex 28.485 20.133 5
      vertex 28.459 22.559 5
    endloop
  endfacet
  facet normal -0.999989 -0.00460067 0
    outer loop
      vertex 28.499 17.09 -5
      vertex 28.499 17.09 5
      vertex 28.485 20.133 -5
    endloop
  endfacet
  facet normal -0.999989 -0.00460067 0
    outer loop
      vertex 28.485 20.133 -5
      vertex 28.499 17.09 5
      vertex 28.485 20.133 5
    endloop
  endfacet
  facet normal -0.999999 -0.00160385 0
    outer loop
      vertex 28.505 13.349 -5
      vertex 28.505 13.349 5
      vertex 28.499 17.09 -5
    endloop
  endfacet
  facet normal -0.999999 -0.00160385 0
    outer loop
      vertex 28.499 17.09 -5
      vertex 28.505 13.349 5
      vertex 28.499 17.09 5
    endloop
  endfacet
  facet normal -1 0 0
    outer loop
      vertex 28.505 0 5
      vertex 28.505 13.349 5
      vertex 28.505 0 -5
    endloop
  endfacet
  facet normal -1 0 0
    outer loop
      vertex 28.505 0 -5
      vertex 28.505 13.349 5
      vertex 28.505 13.349 -5
    endloop
  endfacet
  facet normal 0 -1 0
    outer loop
      vertex 28.505 0 -5
      vertex 33.867 0 -5
      vertex 33.867 0 5
    endloop
  endfacet
  facet normal 0 -1 0
    outer loop
      vertex 28.505 0 5
      vertex 28.505 0 -5
      vertex 33.867 0 5
    endloop
  endfacet
  facet normal 1 0 0
    outer loop
      vertex 33.867 0 -5
      vertex 33.867 41.768 -5
      vertex 33.867 41.768 5
    endloop
  endfacet
  facet normal 1 0 0
    outer loop
      vertex 33.867 0 5
      vertex 33.867 0 -5
      vertex 33.867 41.768 5
    endloop
  endfacet
  facet normal 0 1 0
    outer loop
      vertex 28.505 41.768 5
      vertex 33.867 41.768 5
      vertex 28.505 41.768 -5
    endloop
  endfacet
  facet normal 0 1 0
    outer loop
      vertex 28.505 41.768 -5
      vertex 33.867 41.768 5
      vertex 33.867 41.768 -5
    endloop
  endfacet
  facet normal -1 0 0
    outer loop
      vertex 28.505 35.418 5
      vertex 28.505 41.768 5
      vertex 28.505 35.418 -5
    endloop
  endfacet
  facet normal -1 0 0
    outer loop
      vertex 28.505 35.418 -5
      vertex 28.505 41.768 5
      vertex 28.505 41.768 -5
    endloop
  endfacet
  facet normal 0.831784 0.5551 0
    outer loop
      vertex 27.544 36.858 -5
      vertex 27.544 36.858 5
      vertex 28.505 35.418 5
    endloop
  endfacet
  facet normal 0.831784 0.5551 0
    outer loop
      vertex 28.505 35.418 -5
      vertex 27.544 36.858 -5
      vertex 28.505 35.418 5
    endloop
  endfacet
  facet normal 0.766068 0.64276 0
    outer loop
      vertex 25.975 38.728 -5
      vertex 25.975 38.728 5
      vertex 27.544 36.858 5
    endloop
  endfacet
  facet normal 0.766068 0.64276 0
    outer loop
      vertex 27.544 36.858 -5
      vertex 25.975 38.728 -5
      vertex 27.544 36.858 5
    endloop
  endfacet
  facet normal 0.632741 0.774364 0
    outer loop
      vertex 24.023 40.323 5
      vertex 25.975 38.728 5
      vertex 24.023 40.323 -5
    endloop
  endfacet
  facet normal 0.632741 0.774364 0
    outer loop
      vertex 24.023 40.323 -5
      vertex 25.975 38.728 5
      vertex 25.975 38.728 -5
    endloop
  endfacet
  facet normal 0.489215 0.872163 0
    outer loop
      vertex 21.766 41.589 5
      vertex 24.023 40.323 5
      vertex 21.766 41.589 -5
    endloop
  endfacet
  facet normal 0.489215 0.872163 0
    outer loop
      vertex 21.766 41.589 -5
      vertex 24.023 40.323 5
      vertex 24.023 40.323 -5
    endloop
  endfacet
  facet normal 0.334898 0.942254 0
    outer loop
      vertex 19.276 42.474 5
      vertex 21.766 41.589 5
      vertex 19.276 42.474 -5
    endloop
  endfacet
  facet normal 0.334898 0.942254 0
    outer loop
      vertex 19.276 42.474 -5
      vertex 21.766 41.589 5
      vertex 21.766 41.589 -5
    endloop
  endfacet
  facet normal 0.152809 0.988256 0
    outer loop
      vertex 17.103 42.81 5
      vertex 19.276 42.474 5
      vertex 17.103 42.81 -5
    endloop
  endfacet
  facet normal 0.152809 0.988256 0
    outer loop
      vertex 17.103 42.81 -5
      vertex 19.276 42.474 5
      vertex 19.276 42.474 -5
    endloop
  endfacet
  facet normal 0.028581 0.999591 0
    outer loop
      vertex 14.41 42.887 5
      vertex 17.103 42.81 5
      vertex 14.41 42.887 -5
    endloop
  endfacet
  facet normal 0.028581 0.999591 0
    outer loop
      vertex 14.41 42.887 -5
      vertex 17.103 42.81 5
      vertex 17.103 42.81 -5
    endloop
  endfacet
  facet normal -0.062062 0.998072 0
    outer loop
      vertex 11.66 42.716 5
      vertex 14.41 42.887 5
      vertex 11.66 42.716 -5
    endloop
  endfacet
  facet normal -0.062062 0.998072 0
    outer loop
      vertex 11.66 42.716 -5
      vertex 14.41 42.887 5
      vertex 14.41 42.887 -5
    endloop
  endfacet
  facet normal -0.172899 0.984939 0
    outer loop
      vertex 9.313 42.304 5
      vertex 11.66 42.716 5
      vertex 9.313 42.304 -5
    endloop
  endfacet
  facet normal -0.172899 0.984939 0
    outer loop
      vertex 9.313 42.304 -5
      vertex 11.66 42.716 5
      vertex 11.66 42.716 -5
    endloop
  endfacet
  facet normal -0.33346 0.942764 0
    outer loop
      vertex 6.695 41.378 5
      vertex 9.313 42.304 5
      vertex 6.695 41.378 -5
    endloop
  endfacet
  facet normal -0.33346 0.942764 0
    outer loop
      vertex 6.695 41.378 -5
      vertex 9.313 42.304 5
      vertex 9.313 42.304 -5
    endloop
  endfacet
  facet normal -0.52774 0.849406 0
    outer loop
      vertex 4.564 40.054 5
      vertex 6.695 41.378 5
      vertex 4.564 40.054 -5
    endloop
  endfacet
  facet normal -0.52774 0.849406 0
    outer loop
      vertex 4.564 40.054 -5
      vertex 6.695 41.378 5
      vertex 6.695 41.378 -5
    endloop
  endfacet
  facet normal -0.719077 0.69493 0
    outer loop
      vertex 2.866 38.297 5
      vertex 4.564 40.054 5
      vertex 2.866 38.297 -5
    endloop
  endfacet
  facet normal -0.719077 0.69493 0
    outer loop
      vertex 2.866 38.297 -5
      vertex 4.564 40.054 5
      vertex 4.564 40.054 -5
    endloop
  endfacet
  facet normal -0.861557 0.507662 0
    outer loop
      vertex 1.552 36.067 5
      vertex 2.866 38.297 5
      vertex 1.552 36.067 -5
    endloop
  endfacet
  facet normal -0.861557 0.507662 0
    outer loop
      vertex 1.552 36.067 -5
      vertex 2.866 38.297 5
      vertex 2.866 38.297 -5
    endloop
  endfacet
  facet normal -0.918096 0.396359 0
    outer loop
      vertex 1.062 34.932 5
      vertex 1.552 36.067 5
      vertex 1.062 34.932 -5
    endloop
  endfacet
  facet normal -0.918096 0.396359 0
    outer loop
      vertex 1.062 34.932 -5
      vertex 1.552 36.067 5
      vertex 1.552 36.067 -5
    endloop
  endfacet
  facet normal -0.950177 0.311711 0
    outer loop
      vertex 0.689 33.795 5
      vertex 1.062 34.932 5
      vertex 0.689 33.795 -5
    endloop
  endfacet
  facet normal -0.950177 0.311711 0
    outer loop
      vertex 0.689 33.795 -5
      vertex 1.062 34.932 5
      vertex 1.062 34.932 -5
    endloop
  endfacet
  facet normal -0.979845 0.19976 0
    outer loop
      vertex 0.415 32.451 5
      vertex 0.689 33.795 5
      vertex 0.415 32.451 -5
    endloop
  endfacet
  facet normal -0.979845 0.19976 0
    outer loop
      vertex 0.415 32.451 -5
      vertex 0.689 33.795 5
      vertex 0.689 33.795 -5
    endloop
  endfacet
  facet normal -0.994217 0.107391 0
    outer loop
      vertex 0.225 30.692 5
      vertex 0.415 32.451 5
      vertex 0.225 30.692 -5
    endloop
  endfacet
  facet normal -0.994217 0.107391 0
    outer loop
      vertex 0.225 30.692 -5
      vertex 0.415 32.451 5
      vertex 0.415 32.451 -5
    endloop
  endfacet
  facet normal -0.998693 0.0511076 0
    outer loop
      vertex 0.103 28.308 5
      vertex 0.225 30.692 5
      vertex 0.103 28.308 -5
    endloop
  endfacet
  facet normal -0.998693 0.0511076 0
    outer loop
      vertex 0.103 28.308 -5
      vertex 0.225 30.692 5
      vertex 0.225 30.692 -5
    endloop
  endfacet
  facet normal -0.999783 0.0208223 0
    outer loop
      vertex 0.036 25.091 5
      vertex 0.103 28.308 5
      vertex 0.036 25.091 -5
    endloop
  endfacet
  facet normal -0.999783 0.0208223 0
    outer loop
      vertex 0.036 25.091 -5
      vertex 0.103 28.308 5
      vertex 0.103 28.308 -5
    endloop
  endfacet
  facet normal -0.999975 0.00704373 0
    outer loop
      vertex 0.006 20.832 5
      vertex 0.036 25.091 5
      vertex 0.006 20.832 -5
    endloop
  endfacet
  facet normal -0.999975 0.00704373 0
    outer loop
      vertex 0.006 20.832 -5
      vertex 0.036 25.091 5
      vertex 0.036 25.091 -5
    endloop
  endfacet
  facet normal -0.999999 0.00108932 0
    outer loop
      vertex 0 15.324 5
      vertex 0.006 20.832 5
      vertex 0 15.324 -5
    endloop
  endfacet
  facet normal -0.999999 0.00108932 0
    outer loop
      vertex 0 15.324 -5
      vertex 0.006 20.832 5
      vertex 0.006 20.832 -5
    endloop
  endfacet
endsolid OpenSCAD_Model
