solid OpenSCAD_Model
  facet normal 0 -1 0
    outer loop
      vertex 3.105 24.836 -5
      vertex 31.044 24.836 -5
      vertex 31.044 24.836 5
    endloop
  endfacet
  facet normal 0 -1 0
    outer loop
      vertex 3.105 24.836 5
      vertex 3.105 24.836 -5
      vertex 31.044 24.836 5
    endloop
  endfacet
  facet normal -1 0 0
    outer loop
      vertex 31.044 11.006 5
      vertex 31.044 24.836 5
      vertex 31.044 11.006 -5
    endloop
  endfacet
  facet normal -1 0 0
    outer loop
      vertex 31.044 11.006 -5
      vertex 31.044 24.836 5
      vertex 31.044 24.836 -5
    endloop
  endfacet
  facet normal 0 0 -1
    outer loop
      vertex 0 11.006 -5
      vertex 31.044 11.006 -5
      vertex 0 0 -5
    endloop
  endfacet
  facet normal 0 0 -1
    outer loop
      vertex 44.027 0 -5
      vertex 31.044 11.006 -5
      vertex 44.027 58.138 -5
    endloop
  endfacet
  facet normal 0 0 -1
    outer loop
      vertex 31.044 34.995 -5
      vertex 31.044 24.836 -5
      vertex 3.105 34.995 -5
    endloop
  endfacet
  facet normal 0 0 -1
    outer loop
      vertex 31.044 24.836 -5
      vertex 3.105 24.836 -5
      vertex 3.105 34.995 -5
    endloop
  endfacet
  facet normal 0 0 -1
    outer loop
      vertex 31.044 11.006 -5
      vertex 31.044 24.836 -5
      vertex 44.027 58.138 -5
    endloop
  endfacet
  facet normal 0 0 -1
    outer loop
      vertex 31.044 24.836 -5
      vertex 31.044 34.995 -5
      vertex 44.027 58.138 -5
    endloop
  endfacet
  facet normal 0 0 -1
    outer loop
      vertex 0.565 58.138 -5
      vertex 31.044 47.132 -5
      vertex 0.565 47.132 -5
    endloop
  endfacet
  facet normal 0 0 -1
    outer loop
      vertex 44.027 58.138 -5
      vertex 31.044 47.132 -5
      vertex 0.565 58.138 -5
    endloop
  endfacet
  facet normal 0 0 -1
    outer loop
      vertex 31.044 34.995 -5
      vertex 31.044 47.132 -5
      vertex 44.027 58.138 -5
    endloop
  endfacet
  facet normal 0 0 -1
    outer loop
      vertex 0 0 -5
      vertex 31.044 11.006 -5
      vertex 44.027 0 -5
    endloop
  endfacet
  facet normal -1 0 0
    outer loop
      vertex 3.105 24.836 5
      vertex 3.105 34.995 5
      vertex 3.105 24.836 -5
    endloop
  endfacet
  facet normal -1 0 0
    outer loop
      vertex 3.105 24.836 -5
      vertex 3.105 34.995 5
      vertex 3.105 34.995 -5
    endloop
  endfacet
  facet normal 0 0 1
    outer loop
      vertex 31.044 34.995 5
      vertex 44.027 0 5
      vertex 44.027 58.138 5
    endloop
  endfacet
  facet normal 0 0 1
    outer loop
      vertex 0.565 58.138 5
      vertex 0.565 47.132 5
      vertex 44.027 58.138 5
    endloop
  endfacet
  facet normal 0 0 1
    outer loop
      vertex 0.565 47.132 5
      vertex 31.044 47.132 5
      vertex 44.027 58.138 5
    endloop
  endfacet
  facet normal 0 0 1
    outer loop
      vertex 3.105 24.836 5
      vertex 31.044 24.836 5
      vertex 31.044 34.995 5
    endloop
  endfacet
  facet normal 0 0 1
    outer loop
      vertex 31.044 24.836 5
      vertex 44.027 0 5
      vertex 31.044 34.995 5
    endloop
  endfacet
  facet normal 0 0 1
    outer loop
      vertex 31.044 11.006 5
      vertex 44.027 0 5
      vertex 31.044 24.836 5
    endloop
  endfacet
  facet normal 0 0 1
    outer loop
      vertex 0 0 5
      vertex 44.027 0 5
      vertex 31.044 11.006 5
    endloop
  endfacet
  facet normal 0 0 1
    outer loop
      vertex 31.044 47.132 5
      vertex 31.044 34.995 5
      vertex 44.027 58.138 5
    endloop
  endfacet
  facet normal 0 0 1
    outer loop
      vertex 31.044 34.995 5
      vertex 3.105 34.995 5
      vertex 3.105 24.836 5
    endloop
  endfacet
  facet normal 0 0 1
    outer loop
      vertex 31.044 11.006 5
      vertex 0 11.006 5
      vertex 0 0 5
    endloop
  endfacet
  facet normal 0 1 0
    outer loop
      vertex 0 11.006 5
      vertex 31.044 11.006 5
      vertex 0 11.006 -5
    endloop
  endfacet
  facet normal 0 1 0
    outer loop
      vertex 0 11.006 -5
      vertex 31.044 11.006 5
      vertex 31.044 11.006 -5
    endloop
  endfacet
  facet normal 0 -1 0
    outer loop
      vertex 0 0 -5
      vertex 44.027 0 -5
      vertex 44.027 0 5
    endloop
  endfacet
  facet normal 0 -1 0
    outer loop
      vertex 0 0 5
      vertex 0 0 -5
      vertex 44.027 0 5
    endloop
  endfacet
  facet normal -1 0 0
    outer loop
      vertex 0 0 5
      vertex 0 11.006 5
      vertex 0 0 -5
    endloop
  endfacet
  facet normal -1 0 0
    outer loop
      vertex 0 0 -5
      vertex 0 11.006 5
      vertex 0 11.006 -5
    endloop
  endfacet
  facet normal 1 0 0
    outer loop
      vertex 44.027 0 -5
      vertex 44.027 58.138 -5
      vertex 44.027 58.138 5
    endloop
  endfacet
  facet normal 1 0 0
    outer loop
      vertex 44.027 0 5
      vertex 44.027 0 -5
      vertex 44.027 58.138 5
    endloop
  endfacet
  facet normal 0 1 0
    outer loop
      vertex 0.565 58.138 5
      vertex 44.027 58.138 5
      vertex 0.565 58.138 -5
    endloop
  endfacet
  facet normal 0 1 0
    outer loop
      vertex 0.565 58.138 -5
      vertex 44.027 58.138 5
      vertex 44.027 58.138 -5
    endloop
  endfacet
  facet normal -1 0 0
    outer loop
      vertex 0.565 47.132 5
      vertex 0.565 58.138 5
      vertex 0.565 47.132 -5
    endloop
  endfacet
  facet normal -1 0 0
    outer loop
      vertex 0.565 47.132 -5
      vertex 0.565 58.138 5
      vertex 0.565 58.138 -5
    endloop
  endfacet
  facet normal 0 -1 0
    outer loop
      vertex 0.565 47.132 -5
      vertex 31.044 47.132 -5
      vertex 31.044 47.132 5
    endloop
  endfacet
  facet normal 0 -1 0
    outer loop
      vertex 0.565 47.132 5
      vertex 0.565 47.132 -5
      vertex 31.044 47.132 5
    endloop
  endfacet
  facet normal -1 0 0
    outer loop
      vertex 31.044 34.995 5
      vertex 31.044 47.132 5
      vertex 31.044 34.995 -5
    endloop
  endfacet
  facet normal -1 0 0
    outer loop
      vertex 31.044 34.995 -5
      vertex 31.044 47.132 5
      vertex 31.044 47.132 -5
    endloop
  endfacet
  facet normal 0 1 0
    outer loop
      vertex 3.105 34.995 5
      vertex 31.044 34.995 5
      vertex 3.105 34.995 -5
    endloop
  endfacet
  facet normal 0 1 0
    outer loop
      vertex 3.105 34.995 -5
      vertex 31.044 34.995 5
      vertex 31.044 34.995 -5
    endloop
  endfacet
endsolid OpenSCAD_Model
