solid OpenSCAD_Model
  facet normal 0.00524468 -0.999986 0
    outer loop
      vertex 3.547 0.041 -5
      vertex 6.407 0.056 -5
      vertex 6.407 0.056 5
    endloop
  endfacet
  facet normal 0.00524468 -0.999986 0
    outer loop
      vertex 3.547 0.041 5
      vertex 3.547 0.041 -5
      vertex 6.407 0.056 5
    endloop
  endfacet
  facet normal 0.0133653 -0.999911 0
    outer loop
      vertex 6.407 0.056 -5
      vertex 12.841 0.142 -5
      vertex 12.841 0.142 5
    endloop
  endfacet
  facet normal 0.0133653 -0.999911 0
    outer loop
      vertex 6.407 0.056 5
      vertex 6.407 0.056 -5
      vertex 12.841 0.142 5
    endloop
  endfacet
  facet normal 0 0 -1
    outer loop
      vertex 0.127 0.741 -5
      vertex 0.423 1.411 -5
      vertex 0 0.282 -5
    endloop
  endfacet
  facet normal 0 0 -1
    outer loop
      vertex 0 0.282 -5
      vertex 0.423 1.411 -5
      vertex 0.989 2.83 -5
    endloop
  endfacet
  facet normal 0 0 -1
    outer loop
      vertex 2.144 11.148 -5
      vertex 2.489 15.12 -5
      vertex 2.893 17.982 -5
    endloop
  endfacet
  facet normal 0 0 -1
    outer loop
      vertex 2.144 11.148 -5
      vertex 2.893 17.982 -5
      vertex 1.815 7.508 -5
    endloop
  endfacet
  facet normal 0 0 -1
    outer loop
      vertex 1.815 7.508 -5
      vertex 2.893 17.982 -5
      vertex 3.422 20.13 -5
    endloop
  endfacet
  facet normal 0 0 -1
    outer loop
      vertex 1.815 7.508 -5
      vertex 3.422 20.13 -5
      vertex 4.149 21.958 -5
    endloop
  endfacet
  facet normal 0 0 -1
    outer loop
      vertex 1.815 7.508 -5
      vertex 4.149 21.958 -5
      vertex 1.443 4.798 -5
    endloop
  endfacet
  facet normal 0 0 -1
    outer loop
      vertex 1.443 4.798 -5
      vertex 4.149 21.958 -5
      vertex 5.084 23.493 -5
    endloop
  endfacet
  facet normal 0 0 -1
    outer loop
      vertex 1.443 4.798 -5
      vertex 5.084 23.493 -5
      vertex 6.364 24.967 -5
    endloop
  endfacet
  facet normal 0 0 -1
    outer loop
      vertex 1.443 4.798 -5
      vertex 6.364 24.967 -5
      vertex 0.989 2.83 -5
    endloop
  endfacet
  facet normal 0 0 -1
    outer loop
      vertex 0.989 2.83 -5
      vertex 6.364 24.967 -5
      vertex 7.791 26.192 -5
    endloop
  endfacet
  facet normal 0 0 -1
    outer loop
      vertex 0.989 2.83 -5
      vertex 7.791 26.192 -5
      vertex 9.172 26.981 -5
    endloop
  endfacet
  facet normal 0 0 -1
    outer loop
      vertex 0.989 2.83 -5
      vertex 9.172 26.981 -5
      vertex 10.47 27.46 -5
    endloop
  endfacet
  facet normal 0 0 -1
    outer loop
      vertex 8.833 28.335 -5
      vertex 6.542 29.894 -5
      vertex 10.47 27.46 -5
    endloop
  endfacet
  facet normal 0 0 -1
    outer loop
      vertex 6.542 29.894 -5
      vertex 4.618 31.93 -5
      vertex 10.47 27.46 -5
    endloop
  endfacet
  facet normal 0 0 -1
    outer loop
      vertex 4.618 31.93 -5
      vertex 3.123 34.364 -5
      vertex 10.47 27.46 -5
    endloop
  endfacet
  facet normal 0 0 -1
    outer loop
      vertex 10.47 27.46 -5
      vertex 3.123 34.364 -5
      vertex 2.117 37.112 -5
    endloop
  endfacet
  facet normal 0 0 -1
    outer loop
      vertex 10.47 27.46 -5
      vertex 2.117 37.112 -5
      vertex 1.811 39.161 -5
    endloop
  endfacet
  facet normal 0 0 -1
    outer loop
      vertex 10.47 27.46 -5
      vertex 1.811 39.161 -5
      vertex 1.703 41.731 -5
    endloop
  endfacet
  facet normal 0 0 -1
    outer loop
      vertex 10.47 27.46 -5
      vertex 1.703 41.731 -5
      vertex 1.802 44.285 -5
    endloop
  endfacet
  facet normal 0 0 -1
    outer loop
      vertex 10.47 27.46 -5
      vertex 1.802 44.285 -5
      vertex 2.117 46.284 -5
    endloop
  endfacet
  facet normal 0 0 -1
    outer loop
      vertex 10.47 27.46 -5
      vertex 2.117 46.284 -5
      vertex 4.024 50.633 -5
    endloop
  endfacet
  facet normal 0 0 -1
    outer loop
      vertex 10.47 27.46 -5
      vertex 4.024 50.633 -5
      vertex 7.115 54.124 -5
    endloop
  endfacet
  facet normal 0 0 -1
    outer loop
      vertex 10.47 27.46 -5
      vertex 7.115 54.124 -5
      vertex 11.186 56.588 -5
    endloop
  endfacet
  facet normal 0 0 -1
    outer loop
      vertex 10.47 27.46 -5
      vertex 11.186 56.588 -5
      vertex 16.031 57.856 -5
    endloop
  endfacet
  facet normal 0 0 -1
    outer loop
      vertex 10.47 27.46 -5
      vertex 16.031 57.856 -5
      vertex 18.018 57.94 -5
    endloop
  endfacet
  facet normal 0 0 -1
    outer loop
      vertex 16.862 46.066 -5
      vertex 18.018 57.94 -5
      vertex 22.031 58.015 -5
    endloop
  endfacet
  facet normal 0 0 -1
    outer loop
      vertex 19.878 47.471 -5
      vertex 22.031 58.015 -5
      vertex 27.488 58.075 -5
    endloop
  endfacet
  facet normal 0 0 -1
    outer loop
      vertex 29.493 31.892 -5
      vertex 20.578 22.153 -5
      vertex 20.093 21.995 -5
    endloop
  endfacet
  facet normal 0 0 -1
    outer loop
      vertex 26.17 47.923 -5
      vertex 27.488 58.075 -5
      vertex 33.81 58.111 -5
    endloop
  endfacet
  facet normal 0 0 -1
    outer loop
      vertex 36.972 47.978 -5
      vertex 33.81 58.111 -5
      vertex 49.672 58.138 -5
    endloop
  endfacet
  facet normal 0 0 -1
    outer loop
      vertex 36.972 22.607 -5
      vertex 49.672 58.138 -5
      vertex 49.672 0 -5
    endloop
  endfacet
  facet normal 0 0 -1
    outer loop
      vertex 29.493 31.892 -5
      vertex 18.449 21.176 -5
      vertex 17.56 20.504 -5
    endloop
  endfacet
  facet normal 0 0 -1
    outer loop
      vertex 36.972 31.892 -5
      vertex 49.672 58.138 -5
      vertex 36.972 22.607 -5
    endloop
  endfacet
  facet normal 0 0 -1
    outer loop
      vertex 16.228 18.627 -5
      vertex 0 0.282 -5
      vertex 16.852 19.685 -5
    endloop
  endfacet
  facet normal 0 0 -1
    outer loop
      vertex 36.972 31.892 -5
      vertex 26.467 22.492 -5
      vertex 24.507 22.459 -5
    endloop
  endfacet
  facet normal 0 0 -1
    outer loop
      vertex 36.972 31.892 -5
      vertex 24.507 22.459 -5
      vertex 23.034 22.417 -5
    endloop
  endfacet
  facet normal 0 0 -1
    outer loop
      vertex 36.972 31.892 -5
      vertex 23.034 22.417 -5
      vertex 29.493 31.892 -5
    endloop
  endfacet
  facet normal 0 0 -1
    outer loop
      vertex 0 0.282 -5
      vertex 17.56 20.504 -5
      vertex 16.852 19.685 -5
    endloop
  endfacet
  facet normal 0 0 -1
    outer loop
      vertex 15.609 17.237 -5
      vertex 0 0.282 -5
      vertex 16.228 18.627 -5
    endloop
  endfacet
  facet normal 0 0 -1
    outer loop
      vertex 15.179 15.707 -5
      vertex 0 0.282 -5
      vertex 15.609 17.237 -5
    endloop
  endfacet
  facet normal 0 0 -1
    outer loop
      vertex 14.85 13.627 -5
      vertex 0 0.282 -5
      vertex 15.179 15.707 -5
    endloop
  endfacet
  facet normal 0 0 -1
    outer loop
      vertex 29.493 31.892 -5
      vertex 20.093 21.995 -5
      vertex 19.615 21.788 -5
    endloop
  endfacet
  facet normal 0 0 -1
    outer loop
      vertex 14.534 10.583 -5
      vertex 0 0.282 -5
      vertex 14.85 13.627 -5
    endloop
  endfacet
  facet normal 0 0 -1
    outer loop
      vertex 14.176 7.029 -5
      vertex 0 0.282 -5
      vertex 14.534 10.583 -5
    endloop
  endfacet
  facet normal 0 0 -1
    outer loop
      vertex 12.841 0.142 -5
      vertex 0 0.282 -5
      vertex 13.209 1.214 -5
    endloop
  endfacet
  facet normal 0 0 -1
    outer loop
      vertex 0 0.282 -5
      vertex 14.176 7.029 -5
      vertex 13.849 4.407 -5
    endloop
  endfacet
  facet normal 0 0 -1
    outer loop
      vertex 0 0.282 -5
      vertex 13.849 4.407 -5
      vertex 13.534 2.531 -5
    endloop
  endfacet
  facet normal 0 0 -1
    outer loop
      vertex 0 0.282 -5
      vertex 13.534 2.531 -5
      vertex 13.209 1.214 -5
    endloop
  endfacet
  facet normal 0 0 -1
    outer loop
      vertex 29.493 31.892 -5
      vertex 19.615 21.788 -5
      vertex 18.449 21.176 -5
    endloop
  endfacet
  facet normal 0 0 -1
    outer loop
      vertex 14.839 37.47 -5
      vertex 10.47 27.46 -5
      vertex 14.62 39.737 -5
    endloop
  endfacet
  facet normal 0 0 -1
    outer loop
      vertex 0 0.282 -5
      vertex 12.841 0.142 -5
      vertex 6.407 0.056 -5
    endloop
  endfacet
  facet normal 0 0 -1
    outer loop
      vertex 0 0.282 -5
      vertex 6.407 0.056 -5
      vertex 3.547 0.041 -5
    endloop
  endfacet
  facet normal 0 0 -1
    outer loop
      vertex 0 0.282 -5
      vertex 3.547 0.041 -5
      vertex 1.552 0.074 -5
    endloop
  endfacet
  facet normal 0 0 -1
    outer loop
      vertex 0 0.282 -5
      vertex 1.552 0.074 -5
      vertex 0.382 0.157 -5
    endloop
  endfacet
  facet normal 0 0 -1
    outer loop
      vertex 14.702 41.523 -5
      vertex 10.47 27.46 -5
      vertex 14.968 42.995 -5
    endloop
  endfacet
  facet normal 0 0 -1
    outer loop
      vertex 15.493 35.585 -5
      vertex 10.47 27.46 -5
      vertex 14.839 37.47 -5
    endloop
  endfacet
  facet normal 0 0 -1
    outer loop
      vertex 16.571 34.098 -5
      vertex 0 0.282 -5
      vertex 0.989 2.83 -5
    endloop
  endfacet
  facet normal 0 0 -1
    outer loop
      vertex 10.47 27.46 -5
      vertex 15.493 35.585 -5
      vertex 0.989 2.83 -5
    endloop
  endfacet
  facet normal 0 0 -1
    outer loop
      vertex 19.561 32.451 -5
      vertex 0 0.282 -5
      vertex 18.062 33.021 -5
    endloop
  endfacet
  facet normal 0 0 -1
    outer loop
      vertex 0 0.282 -5
      vertex 16.571 34.098 -5
      vertex 18.062 33.021 -5
    endloop
  endfacet
  facet normal 0 0 -1
    outer loop
      vertex 29.493 31.892 -5
      vertex 21.167 22.27 -5
      vertex 20.578 22.153 -5
    endloop
  endfacet
  facet normal 0 0 -1
    outer loop
      vertex 29.493 31.892 -5
      vertex 21.952 22.356 -5
      vertex 21.167 22.27 -5
    endloop
  endfacet
  facet normal 0 0 -1
    outer loop
      vertex 0 0.282 -5
      vertex 19.561 32.451 -5
      vertex 21.617 32.107 -5
    endloop
  endfacet
  facet normal 0 0 -1
    outer loop
      vertex 0 0.282 -5
      vertex 21.617 32.107 -5
      vertex 24.754 31.937 -5
    endloop
  endfacet
  facet normal 0 0 -1
    outer loop
      vertex 36.972 31.892 -5
      vertex 29.012 22.521 -5
      vertex 26.467 22.492 -5
    endloop
  endfacet
  facet normal 0 0 -1
    outer loop
      vertex 21.952 22.356 -5
      vertex 29.493 31.892 -5
      vertex 23.034 22.417 -5
    endloop
  endfacet
  facet normal 0 0 -1
    outer loop
      vertex 36.972 47.978 -5
      vertex 49.672 58.138 -5
      vertex 36.972 31.892 -5
    endloop
  endfacet
  facet normal 0 0 -1
    outer loop
      vertex 29.012 22.521 -5
      vertex 36.972 31.892 -5
      vertex 36.972 22.607 -5
    endloop
  endfacet
  facet normal 0 0 -1
    outer loop
      vertex 29.436 47.95 -5
      vertex 33.81 58.111 -5
      vertex 36.972 47.978 -5
    endloop
  endfacet
  facet normal 0 0 -1
    outer loop
      vertex 26.17 47.923 -5
      vertex 33.81 58.111 -5
      vertex 29.436 47.95 -5
    endloop
  endfacet
  facet normal 0 0 -1
    outer loop
      vertex 23.552 47.846 -5
      vertex 27.488 58.075 -5
      vertex 26.17 47.923 -5
    endloop
  endfacet
  facet normal 0 0 -1
    outer loop
      vertex 21.486 47.701 -5
      vertex 27.488 58.075 -5
      vertex 23.552 47.846 -5
    endloop
  endfacet
  facet normal 0 0 -1
    outer loop
      vertex 16.571 34.098 -5
      vertex 0.989 2.83 -5
      vertex 15.493 35.585 -5
    endloop
  endfacet
  facet normal 0 0 -1
    outer loop
      vertex 18.634 47.134 -5
      vertex 22.031 58.015 -5
      vertex 19.878 47.471 -5
    endloop
  endfacet
  facet normal 0 0 -1
    outer loop
      vertex 17.66 46.673 -5
      vertex 22.031 58.015 -5
      vertex 18.634 47.134 -5
    endloop
  endfacet
  facet normal 0 0 -1
    outer loop
      vertex 19.878 47.471 -5
      vertex 27.488 58.075 -5
      vertex 21.486 47.701 -5
    endloop
  endfacet
  facet normal 0 0 -1
    outer loop
      vertex 16.144 45.297 -5
      vertex 18.018 57.94 -5
      vertex 16.862 46.066 -5
    endloop
  endfacet
  facet normal 0 0 -1
    outer loop
      vertex 15.441 44.227 -5
      vertex 18.018 57.94 -5
      vertex 16.144 45.297 -5
    endloop
  endfacet
  facet normal 0 0 -1
    outer loop
      vertex 14.968 42.995 -5
      vertex 18.018 57.94 -5
      vertex 15.441 44.227 -5
    endloop
  endfacet
  facet normal 0 0 -1
    outer loop
      vertex 10.47 27.46 -5
      vertex 18.018 57.94 -5
      vertex 14.968 42.995 -5
    endloop
  endfacet
  facet normal 0 0 -1
    outer loop
      vertex 10.47 27.46 -5
      vertex 14.702 41.523 -5
      vertex 14.62 39.737 -5
    endloop
  endfacet
  facet normal 0 0 -1
    outer loop
      vertex 36.972 22.607 -5
      vertex 49.672 0 -5
      vertex 36.972 0 -5
    endloop
  endfacet
  facet normal 0 0 -1
    outer loop
      vertex 16.862 46.066 -5
      vertex 22.031 58.015 -5
      vertex 17.66 46.673 -5
    endloop
  endfacet
  facet normal 0 0 -1
    outer loop
      vertex 17.56 20.504 -5
      vertex 0 0.282 -5
      vertex 24.754 31.937 -5
    endloop
  endfacet
  facet normal 0 0 -1
    outer loop
      vertex 29.493 31.892 -5
      vertex 17.56 20.504 -5
      vertex 24.754 31.937 -5
    endloop
  endfacet
  facet normal -0.0165391 -0.999863 0
    outer loop
      vertex 1.552 0.074 -5
      vertex 3.547 0.041 -5
      vertex 3.547 0.041 5
    endloop
  endfacet
  facet normal -0.0165391 -0.999863 0
    outer loop
      vertex 1.552 0.074 5
      vertex 1.552 0.074 -5
      vertex 3.547 0.041 5
    endloop
  endfacet
  facet normal 0 0 1
    outer loop
      vertex 0 0.282 5
      vertex 0.382 0.157 5
      vertex 1.552 0.074 5
    endloop
  endfacet
  facet normal 0 0 1
    outer loop
      vertex 6.407 0.056 5
      vertex 0 0.282 5
      vertex 3.547 0.041 5
    endloop
  endfacet
  facet normal 0 0 1
    outer loop
      vertex 3.547 0.041 5
      vertex 0 0.282 5
      vertex 1.552 0.074 5
    endloop
  endfacet
  facet normal 0 0 1
    outer loop
      vertex 12.841 0.142 5
      vertex 0 0.282 5
      vertex 6.407 0.056 5
    endloop
  endfacet
  facet normal 0 0 1
    outer loop
      vertex 13.209 1.214 5
      vertex 0 0.282 5
      vertex 12.841 0.142 5
    endloop
  endfacet
  facet normal 0 0 1
    outer loop
      vertex 13.534 2.531 5
      vertex 0 0.282 5
      vertex 13.209 1.214 5
    endloop
  endfacet
  facet normal 0 0 1
    outer loop
      vertex 13.849 4.407 5
      vertex 0 0.282 5
      vertex 13.534 2.531 5
    endloop
  endfacet
  facet normal 0 0 1
    outer loop
      vertex 14.176 7.029 5
      vertex 0 0.282 5
      vertex 13.849 4.407 5
    endloop
  endfacet
  facet normal 0 0 1
    outer loop
      vertex 14.534 10.583 5
      vertex 0 0.282 5
      vertex 14.176 7.029 5
    endloop
  endfacet
  facet normal 0 0 1
    outer loop
      vertex 14.85 13.627 5
      vertex 0 0.282 5
      vertex 14.534 10.583 5
    endloop
  endfacet
  facet normal 0 0 1
    outer loop
      vertex 15.179 15.707 5
      vertex 0 0.282 5
      vertex 14.85 13.627 5
    endloop
  endfacet
  facet normal 0 0 1
    outer loop
      vertex 15.609 17.237 5
      vertex 0 0.282 5
      vertex 15.179 15.707 5
    endloop
  endfacet
  facet normal 0 0 1
    outer loop
      vertex 16.228 18.627 5
      vertex 0 0.282 5
      vertex 15.609 17.237 5
    endloop
  endfacet
  facet normal 0 0 1
    outer loop
      vertex 16.852 19.685 5
      vertex 0 0.282 5
      vertex 16.228 18.627 5
    endloop
  endfacet
  facet normal 0 0 1
    outer loop
      vertex 17.56 20.504 5
      vertex 0 0.282 5
      vertex 16.852 19.685 5
    endloop
  endfacet
  facet normal 0 0 1
    outer loop
      vertex 29.493 31.892 5
      vertex 21.952 22.356 5
      vertex 23.034 22.417 5
    endloop
  endfacet
  facet normal 0 0 1
    outer loop
      vertex 18.062 33.021 5
      vertex 16.571 34.098 5
      vertex 0 0.282 5
    endloop
  endfacet
  facet normal 0 0 1
    outer loop
      vertex 24.754 31.937 5
      vertex 21.617 32.107 5
      vertex 0 0.282 5
    endloop
  endfacet
  facet normal 0 0 1
    outer loop
      vertex 36.972 31.892 5
      vertex 29.012 22.521 5
      vertex 36.972 22.607 5
    endloop
  endfacet
  facet normal 0 0 1
    outer loop
      vertex 49.672 0 5
      vertex 36.972 22.607 5
      vertex 36.972 0 5
    endloop
  endfacet
  facet normal 0 0 1
    outer loop
      vertex 49.672 58.138 5
      vertex 36.972 22.607 5
      vertex 49.672 0 5
    endloop
  endfacet
  facet normal 0 0 1
    outer loop
      vertex 36.972 31.892 5
      vertex 23.034 22.417 5
      vertex 24.507 22.459 5
    endloop
  endfacet
  facet normal 0 0 1
    outer loop
      vertex 0.989 2.83 5
      vertex 0.423 1.411 5
      vertex 0 0.282 5
    endloop
  endfacet
  facet normal 0 0 1
    outer loop
      vertex 16.571 34.098 5
      vertex 15.493 35.585 5
      vertex 0.989 2.83 5
    endloop
  endfacet
  facet normal 0 0 1
    outer loop
      vertex 2.489 15.12 5
      vertex 4.149 21.958 5
      vertex 3.422 20.13 5
    endloop
  endfacet
  facet normal 0 0 1
    outer loop
      vertex 3.123 34.364 5
      vertex 4.618 31.93 5
      vertex 7.115 54.124 5
    endloop
  endfacet
  facet normal 0 0 1
    outer loop
      vertex 2.117 37.112 5
      vertex 3.123 34.364 5
      vertex 4.024 50.633 5
    endloop
  endfacet
  facet normal 0 0 1
    outer loop
      vertex 1.802 44.285 5
      vertex 1.703 41.731 5
      vertex 2.117 46.284 5
    endloop
  endfacet
  facet normal 0 0 1
    outer loop
      vertex 2.117 46.284 5
      vertex 1.811 39.161 5
      vertex 4.024 50.633 5
    endloop
  endfacet
  facet normal 0 0 1
    outer loop
      vertex 1.811 39.161 5
      vertex 2.117 37.112 5
      vertex 4.024 50.633 5
    endloop
  endfacet
  facet normal 0 0 1
    outer loop
      vertex 4.024 50.633 5
      vertex 3.123 34.364 5
      vertex 7.115 54.124 5
    endloop
  endfacet
  facet normal 0 0 1
    outer loop
      vertex 7.115 54.124 5
      vertex 4.618 31.93 5
      vertex 11.186 56.588 5
    endloop
  endfacet
  facet normal 0 0 1
    outer loop
      vertex 11.186 56.588 5
      vertex 6.542 29.894 5
      vertex 16.031 57.856 5
    endloop
  endfacet
  facet normal 0 0 1
    outer loop
      vertex 15.441 44.227 5
      vertex 16.144 45.297 5
      vertex 22.031 58.015 5
    endloop
  endfacet
  facet normal 0 0 1
    outer loop
      vertex 0.423 1.411 5
      vertex 0.127 0.741 5
      vertex 0 0.282 5
    endloop
  endfacet
  facet normal 0 0 1
    outer loop
      vertex 29.493 31.892 5
      vertex 20.578 22.153 5
      vertex 21.167 22.27 5
    endloop
  endfacet
  facet normal 0 0 1
    outer loop
      vertex 29.493 31.892 5
      vertex 20.093 21.995 5
      vertex 20.578 22.153 5
    endloop
  endfacet
  facet normal 0 0 1
    outer loop
      vertex 16.862 46.066 5
      vertex 17.66 46.673 5
      vertex 22.031 58.015 5
    endloop
  endfacet
  facet normal 0 0 1
    outer loop
      vertex 14.62 39.737 5
      vertex 14.702 41.523 5
      vertex 8.833 28.335 5
    endloop
  endfacet
  facet normal 0 0 1
    outer loop
      vertex 1.443 4.798 5
      vertex 0.989 2.83 5
      vertex 10.47 27.46 5
    endloop
  endfacet
  facet normal 0 0 1
    outer loop
      vertex 2.144 11.148 5
      vertex 1.815 7.508 5
      vertex 5.084 23.493 5
    endloop
  endfacet
  facet normal 0 0 1
    outer loop
      vertex 2.893 17.982 5
      vertex 2.489 15.12 5
      vertex 3.422 20.13 5
    endloop
  endfacet
  facet normal 0 0 1
    outer loop
      vertex 2.489 15.12 5
      vertex 2.144 11.148 5
      vertex 4.149 21.958 5
    endloop
  endfacet
  facet normal 0 0 1
    outer loop
      vertex 5.084 23.493 5
      vertex 4.149 21.958 5
      vertex 2.144 11.148 5
    endloop
  endfacet
  facet normal 0 0 1
    outer loop
      vertex 6.364 24.967 5
      vertex 5.084 23.493 5
      vertex 1.815 7.508 5
    endloop
  endfacet
  facet normal 0 0 1
    outer loop
      vertex 17.66 46.673 5
      vertex 18.634 47.134 5
      vertex 22.031 58.015 5
    endloop
  endfacet
  facet normal 0 0 1
    outer loop
      vertex 26.17 47.923 5
      vertex 29.436 47.95 5
      vertex 33.81 58.111 5
    endloop
  endfacet
  facet normal 0 0 1
    outer loop
      vertex 9.172 26.981 5
      vertex 7.791 26.192 5
      vertex 1.443 4.798 5
    endloop
  endfacet
  facet normal 0 0 1
    outer loop
      vertex 14.839 37.47 5
      vertex 14.62 39.737 5
      vertex 10.47 27.46 5
    endloop
  endfacet
  facet normal 0 0 1
    outer loop
      vertex 1.443 4.798 5
      vertex 10.47 27.46 5
      vertex 9.172 26.981 5
    endloop
  endfacet
  facet normal 0 0 1
    outer loop
      vertex 21.486 47.701 5
      vertex 23.552 47.846 5
      vertex 27.488 58.075 5
    endloop
  endfacet
  facet normal 0 0 1
    outer loop
      vertex 1.815 7.508 5
      vertex 1.443 4.798 5
      vertex 7.791 26.192 5
    endloop
  endfacet
  facet normal 0 0 1
    outer loop
      vertex 29.493 31.892 5
      vertex 18.449 21.176 5
      vertex 19.615 21.788 5
    endloop
  endfacet
  facet normal 0 0 1
    outer loop
      vertex 16.144 45.297 5
      vertex 16.862 46.066 5
      vertex 22.031 58.015 5
    endloop
  endfacet
  facet normal 0 0 1
    outer loop
      vertex 18.018 57.94 5
      vertex 8.833 28.335 5
      vertex 14.968 42.995 5
    endloop
  endfacet
  facet normal 0 0 1
    outer loop
      vertex 18.018 57.94 5
      vertex 15.441 44.227 5
      vertex 22.031 58.015 5
    endloop
  endfacet
  facet normal 0 0 1
    outer loop
      vertex 18.018 57.94 5
      vertex 14.968 42.995 5
      vertex 15.441 44.227 5
    endloop
  endfacet
  facet normal 0 0 1
    outer loop
      vertex 29.493 31.892 5
      vertex 19.615 21.788 5
      vertex 20.093 21.995 5
    endloop
  endfacet
  facet normal 0 0 1
    outer loop
      vertex 16.571 34.098 5
      vertex 0.989 2.83 5
      vertex 0 0.282 5
    endloop
  endfacet
  facet normal 0 0 1
    outer loop
      vertex 1.815 7.508 5
      vertex 7.791 26.192 5
      vertex 6.364 24.967 5
    endloop
  endfacet
  facet normal 0 0 1
    outer loop
      vertex 22.031 58.015 5
      vertex 18.634 47.134 5
      vertex 27.488 58.075 5
    endloop
  endfacet
  facet normal 0 0 1
    outer loop
      vertex 14.702 41.523 5
      vertex 14.968 42.995 5
      vertex 8.833 28.335 5
    endloop
  endfacet
  facet normal 0 0 1
    outer loop
      vertex 18.634 47.134 5
      vertex 19.878 47.471 5
      vertex 27.488 58.075 5
    endloop
  endfacet
  facet normal 0 0 1
    outer loop
      vertex 19.878 47.471 5
      vertex 21.486 47.701 5
      vertex 27.488 58.075 5
    endloop
  endfacet
  facet normal 0 0 1
    outer loop
      vertex 27.488 58.075 5
      vertex 23.552 47.846 5
      vertex 33.81 58.111 5
    endloop
  endfacet
  facet normal 0 0 1
    outer loop
      vertex 23.552 47.846 5
      vertex 26.17 47.923 5
      vertex 33.81 58.111 5
    endloop
  endfacet
  facet normal 0 0 1
    outer loop
      vertex 33.81 58.111 5
      vertex 29.436 47.95 5
      vertex 49.672 58.138 5
    endloop
  endfacet
  facet normal 0 0 1
    outer loop
      vertex 29.436 47.95 5
      vertex 36.972 47.978 5
      vertex 49.672 58.138 5
    endloop
  endfacet
  facet normal 0 0 1
    outer loop
      vertex 49.672 58.138 5
      vertex 36.972 31.892 5
      vertex 36.972 22.607 5
    endloop
  endfacet
  facet normal 0 0 1
    outer loop
      vertex 21.617 32.107 5
      vertex 19.561 32.451 5
      vertex 0 0.282 5
    endloop
  endfacet
  facet normal 0 0 1
    outer loop
      vertex 36.972 31.892 5
      vertex 26.467 22.492 5
      vertex 29.012 22.521 5
    endloop
  endfacet
  facet normal 0 0 1
    outer loop
      vertex 36.972 31.892 5
      vertex 24.507 22.459 5
      vertex 26.467 22.492 5
    endloop
  endfacet
  facet normal 0 0 1
    outer loop
      vertex 36.972 31.892 5
      vertex 29.493 31.892 5
      vertex 23.034 22.417 5
    endloop
  endfacet
  facet normal 0 0 1
    outer loop
      vertex 15.493 35.585 5
      vertex 14.839 37.47 5
      vertex 10.47 27.46 5
    endloop
  endfacet
  facet normal 0 0 1
    outer loop
      vertex 19.561 32.451 5
      vertex 18.062 33.021 5
      vertex 0 0.282 5
    endloop
  endfacet
  facet normal 0 0 1
    outer loop
      vertex 29.493 31.892 5
      vertex 21.167 22.27 5
      vertex 21.952 22.356 5
    endloop
  endfacet
  facet normal 0 0 1
    outer loop
      vertex 10.47 27.46 5
      vertex 0.989 2.83 5
      vertex 15.493 35.585 5
    endloop
  endfacet
  facet normal 0 0 1
    outer loop
      vertex 1.703 41.731 5
      vertex 1.811 39.161 5
      vertex 2.117 46.284 5
    endloop
  endfacet
  facet normal 0 0 1
    outer loop
      vertex 4.618 31.93 5
      vertex 6.542 29.894 5
      vertex 11.186 56.588 5
    endloop
  endfacet
  facet normal 0 0 1
    outer loop
      vertex 6.542 29.894 5
      vertex 18.018 57.94 5
      vertex 16.031 57.856 5
    endloop
  endfacet
  facet normal 0 0 1
    outer loop
      vertex 6.542 29.894 5
      vertex 8.833 28.335 5
      vertex 18.018 57.94 5
    endloop
  endfacet
  facet normal 0 0 1
    outer loop
      vertex 8.833 28.335 5
      vertex 10.47 27.46 5
      vertex 14.62 39.737 5
    endloop
  endfacet
  facet normal 0 0 1
    outer loop
      vertex 29.493 31.892 5
      vertex 17.56 20.504 5
      vertex 18.449 21.176 5
    endloop
  endfacet
  facet normal 0 0 1
    outer loop
      vertex 17.56 20.504 5
      vertex 24.754 31.937 5
      vertex 0 0.282 5
    endloop
  endfacet
  facet normal 0 0 1
    outer loop
      vertex 29.493 31.892 5
      vertex 24.754 31.937 5
      vertex 17.56 20.504 5
    endloop
  endfacet
  facet normal 0 0 1
    outer loop
      vertex 36.972 47.978 5
      vertex 36.972 31.892 5
      vertex 49.672 58.138 5
    endloop
  endfacet
  facet normal 0.945822 -0.324685 0
    outer loop
      vertex 12.841 0.142 -5
      vertex 13.209 1.214 -5
      vertex 13.209 1.214 5
    endloop
  endfacet
  facet normal 0.945822 -0.324685 0
    outer loop
      vertex 12.841 0.142 5
      vertex 12.841 0.142 -5
      vertex 13.209 1.214 5
    endloop
  endfacet
  facet normal -0.310998 -0.950411 0
    outer loop
      vertex 0 0.282 -5
      vertex 0.382 0.157 -5
      vertex 0.382 0.157 5
    endloop
  endfacet
  facet normal -0.310998 -0.950411 0
    outer loop
      vertex 0 0.282 5
      vertex 0 0.282 -5
      vertex 0.382 0.157 5
    endloop
  endfacet
  facet normal -0.963788 0.266669 0
    outer loop
      vertex 0 0.282 5
      vertex 0.127 0.741 5
      vertex 0 0.282 -5
    endloop
  endfacet
  facet normal -0.963788 0.266669 0
    outer loop
      vertex 0 0.282 -5
      vertex 0.127 0.741 5
      vertex 0.127 0.741 -5
    endloop
  endfacet
  facet normal -0.0707623 -0.997493 0
    outer loop
      vertex 0.382 0.157 -5
      vertex 1.552 0.074 -5
      vertex 1.552 0.074 5
    endloop
  endfacet
  facet normal -0.0707623 -0.997493 0
    outer loop
      vertex 0.382 0.157 5
      vertex 0.382 0.157 -5
      vertex 1.552 0.074 5
    endloop
  endfacet
  facet normal 0.970875 -0.239586 0
    outer loop
      vertex 13.209 1.214 -5
      vertex 13.534 2.531 -5
      vertex 13.534 2.531 5
    endloop
  endfacet
  facet normal 0.970875 -0.239586 0
    outer loop
      vertex 13.209 1.214 5
      vertex 13.209 1.214 -5
      vertex 13.534 2.531 5
    endloop
  endfacet
  facet normal 0.986194 -0.165592 0
    outer loop
      vertex 13.534 2.531 -5
      vertex 13.849 4.407 -5
      vertex 13.849 4.407 5
    endloop
  endfacet
  facet normal 0.986194 -0.165592 0
    outer loop
      vertex 13.534 2.531 5
      vertex 13.534 2.531 -5
      vertex 13.849 4.407 5
    endloop
  endfacet
  facet normal 0.992313 -0.123755 0
    outer loop
      vertex 13.849 4.407 -5
      vertex 14.176 7.029 -5
      vertex 14.176 7.029 5
    endloop
  endfacet
  facet normal 0.992313 -0.123755 0
    outer loop
      vertex 13.849 4.407 5
      vertex 13.849 4.407 -5
      vertex 14.176 7.029 5
    endloop
  endfacet
  facet normal 0.994965 -0.100224 0
    outer loop
      vertex 14.176 7.029 -5
      vertex 14.534 10.583 -5
      vertex 14.534 10.583 5
    endloop
  endfacet
  facet normal 0.994965 -0.100224 0
    outer loop
      vertex 14.176 7.029 5
      vertex 14.176 7.029 -5
      vertex 14.534 10.583 5
    endloop
  endfacet
  facet normal 0.994655 -0.103256 0
    outer loop
      vertex 14.534 10.583 -5
      vertex 14.85 13.627 -5
      vertex 14.85 13.627 5
    endloop
  endfacet
  facet normal 0.994655 -0.103256 0
    outer loop
      vertex 14.534 10.583 5
      vertex 14.534 10.583 -5
      vertex 14.85 13.627 5
    endloop
  endfacet
  facet normal 0.987721 -0.156231 0
    outer loop
      vertex 14.85 13.627 -5
      vertex 15.179 15.707 -5
      vertex 15.179 15.707 5
    endloop
  endfacet
  facet normal 0.987721 -0.156231 0
    outer loop
      vertex 14.85 13.627 5
      vertex 14.85 13.627 -5
      vertex 15.179 15.707 5
    endloop
  endfacet
  facet normal 0.962702 -0.270563 0
    outer loop
      vertex 15.179 15.707 -5
      vertex 15.609 17.237 -5
      vertex 15.609 17.237 5
    endloop
  endfacet
  facet normal 0.962702 -0.270563 0
    outer loop
      vertex 15.179 15.707 5
      vertex 15.179 15.707 -5
      vertex 15.609 17.237 5
    endloop
  endfacet
  facet normal 0.913513 -0.406809 0
    outer loop
      vertex 15.609 17.237 -5
      vertex 16.228 18.627 -5
      vertex 16.228 18.627 5
    endloop
  endfacet
  facet normal 0.913513 -0.406809 0
    outer loop
      vertex 15.609 17.237 5
      vertex 15.609 17.237 -5
      vertex 16.228 18.627 5
    endloop
  endfacet
  facet normal 0.861348 -0.508016 0
    outer loop
      vertex 16.228 18.627 -5
      vertex 16.852 19.685 -5
      vertex 16.852 19.685 5
    endloop
  endfacet
  facet normal 0.861348 -0.508016 0
    outer loop
      vertex 16.228 18.627 5
      vertex 16.228 18.627 -5
      vertex 16.852 19.685 5
    endloop
  endfacet
  facet normal 0.756511 -0.653981 0
    outer loop
      vertex 16.852 19.685 -5
      vertex 17.56 20.504 -5
      vertex 17.56 20.504 5
    endloop
  endfacet
  facet normal 0.756511 -0.653981 0
    outer loop
      vertex 16.852 19.685 5
      vertex 16.852 19.685 -5
      vertex 17.56 20.504 5
    endloop
  endfacet
  facet normal 0.603011 -0.797733 0
    outer loop
      vertex 17.56 20.504 -5
      vertex 18.449 21.176 -5
      vertex 18.449 21.176 5
    endloop
  endfacet
  facet normal 0.603011 -0.797733 0
    outer loop
      vertex 17.56 20.504 5
      vertex 17.56 20.504 -5
      vertex 18.449 21.176 5
    endloop
  endfacet
  facet normal 0.464745 -0.885445 0
    outer loop
      vertex 18.449 21.176 -5
      vertex 19.615 21.788 -5
      vertex 19.615 21.788 5
    endloop
  endfacet
  facet normal 0.464745 -0.885445 0
    outer loop
      vertex 18.449 21.176 5
      vertex 18.449 21.176 -5
      vertex 19.615 21.788 5
    endloop
  endfacet
  facet normal 0.397392 -0.917649 0
    outer loop
      vertex 19.615 21.788 -5
      vertex 20.093 21.995 -5
      vertex 20.093 21.995 5
    endloop
  endfacet
  facet normal 0.397392 -0.917649 0
    outer loop
      vertex 19.615 21.788 5
      vertex 19.615 21.788 -5
      vertex 20.093 21.995 5
    endloop
  endfacet
  facet normal 0.309751 -0.950818 0
    outer loop
      vertex 20.093 21.995 -5
      vertex 20.578 22.153 -5
      vertex 20.578 22.153 5
    endloop
  endfacet
  facet normal 0.309751 -0.950818 0
    outer loop
      vertex 20.093 21.995 5
      vertex 20.093 21.995 -5
      vertex 20.578 22.153 5
    endloop
  endfacet
  facet normal 0.194835 -0.980836 0
    outer loop
      vertex 20.578 22.153 -5
      vertex 21.167 22.27 -5
      vertex 21.167 22.27 5
    endloop
  endfacet
  facet normal 0.194835 -0.980836 0
    outer loop
      vertex 20.578 22.153 5
      vertex 20.578 22.153 -5
      vertex 21.167 22.27 5
    endloop
  endfacet
  facet normal 0.108903 -0.994052 0
    outer loop
      vertex 21.167 22.27 -5
      vertex 21.952 22.356 -5
      vertex 21.952 22.356 5
    endloop
  endfacet
  facet normal 0.108903 -0.994052 0
    outer loop
      vertex 21.167 22.27 5
      vertex 21.167 22.27 -5
      vertex 21.952 22.356 5
    endloop
  endfacet
  facet normal 0.0562877 -0.998415 0
    outer loop
      vertex 21.952 22.356 -5
      vertex 23.034 22.417 -5
      vertex 23.034 22.417 5
    endloop
  endfacet
  facet normal 0.0562877 -0.998415 0
    outer loop
      vertex 21.952 22.356 5
      vertex 21.952 22.356 -5
      vertex 23.034 22.417 5
    endloop
  endfacet
  facet normal 0.0285017 -0.999594 0
    outer loop
      vertex 23.034 22.417 -5
      vertex 24.507 22.459 -5
      vertex 24.507 22.459 5
    endloop
  endfacet
  facet normal 0.0285017 -0.999594 0
    outer loop
      vertex 23.034 22.417 5
      vertex 23.034 22.417 -5
      vertex 24.507 22.459 5
    endloop
  endfacet
  facet normal 0.0168343 -0.999858 0
    outer loop
      vertex 24.507 22.459 -5
      vertex 26.467 22.492 -5
      vertex 26.467 22.492 5
    endloop
  endfacet
  facet normal 0.0168343 -0.999858 0
    outer loop
      vertex 24.507 22.459 5
      vertex 24.507 22.459 -5
      vertex 26.467 22.492 5
    endloop
  endfacet
  facet normal 0.0113942 -0.999935 0
    outer loop
      vertex 26.467 22.492 -5
      vertex 29.012 22.521 -5
      vertex 29.012 22.521 5
    endloop
  endfacet
  facet normal 0.0113942 -0.999935 0
    outer loop
      vertex 26.467 22.492 5
      vertex 26.467 22.492 -5
      vertex 29.012 22.521 5
    endloop
  endfacet
  facet normal 0.0108034 -0.999942 0
    outer loop
      vertex 29.012 22.521 -5
      vertex 36.972 22.607 -5
      vertex 36.972 22.607 5
    endloop
  endfacet
  facet normal 0.0108034 -0.999942 0
    outer loop
      vertex 29.012 22.521 5
      vertex 29.012 22.521 -5
      vertex 36.972 22.607 5
    endloop
  endfacet
  facet normal -1 0 0
    outer loop
      vertex 36.972 0 5
      vertex 36.972 22.607 5
      vertex 36.972 0 -5
    endloop
  endfacet
  facet normal -1 0 0
    outer loop
      vertex 36.972 0 -5
      vertex 36.972 22.607 5
      vertex 36.972 22.607 -5
    endloop
  endfacet
  facet normal 0 -1 0
    outer loop
      vertex 36.972 0 -5
      vertex 49.672 0 -5
      vertex 49.672 0 5
    endloop
  endfacet
  facet normal 0 -1 0
    outer loop
      vertex 36.972 0 5
      vertex 36.972 0 -5
      vertex 49.672 0 5
    endloop
  endfacet
  facet normal 1 0 0
    outer loop
      vertex 49.672 0 -5
      vertex 49.672 58.138 -5
      vertex 49.672 58.138 5
    endloop
  endfacet
  facet normal 1 0 0
    outer loop
      vertex 49.672 0 5
      vertex 49.672 0 -5
      vertex 49.672 58.138 5
    endloop
  endfacet
  facet normal -0.00170218 0.999999 0
    outer loop
      vertex 33.81 58.111 5
      vertex 49.672 58.138 5
      vertex 33.81 58.111 -5
    endloop
  endfacet
  facet normal -0.00170218 0.999999 0
    outer loop
      vertex 33.81 58.111 -5
      vertex 49.672 58.138 5
      vertex 49.672 58.138 -5
    endloop
  endfacet
  facet normal -0.00569431 0.999984 0
    outer loop
      vertex 27.488 58.075 5
      vertex 33.81 58.111 5
      vertex 27.488 58.075 -5
    endloop
  endfacet
  facet normal -0.00569431 0.999984 0
    outer loop
      vertex 27.488 58.075 -5
      vertex 33.81 58.111 5
      vertex 33.81 58.111 -5
    endloop
  endfacet
  facet normal -0.0109944 0.99994 0
    outer loop
      vertex 22.031 58.015 5
      vertex 27.488 58.075 5
      vertex 22.031 58.015 -5
    endloop
  endfacet
  facet normal -0.0109944 0.99994 0
    outer loop
      vertex 22.031 58.015 -5
      vertex 27.488 58.075 5
      vertex 27.488 58.075 -5
    endloop
  endfacet
  facet normal -0.018686 0.999825 0
    outer loop
      vertex 18.018 57.94 5
      vertex 22.031 58.015 5
      vertex 18.018 57.94 -5
    endloop
  endfacet
  facet normal -0.018686 0.999825 0
    outer loop
      vertex 18.018 57.94 -5
      vertex 22.031 58.015 5
      vertex 22.031 58.015 -5
    endloop
  endfacet
  facet normal -0.0422371 0.999108 0
    outer loop
      vertex 16.031 57.856 5
      vertex 18.018 57.94 5
      vertex 16.031 57.856 -5
    endloop
  endfacet
  facet normal -0.0422371 0.999108 0
    outer loop
      vertex 16.031 57.856 -5
      vertex 18.018 57.94 5
      vertex 18.018 57.94 -5
    endloop
  endfacet
  facet normal -0.253186 0.967418 0
    outer loop
      vertex 11.186 56.588 5
      vertex 16.031 57.856 5
      vertex 11.186 56.588 -5
    endloop
  endfacet
  facet normal -0.253186 0.967418 0
    outer loop
      vertex 11.186 56.588 -5
      vertex 16.031 57.856 5
      vertex 16.031 57.856 -5
    endloop
  endfacet
  facet normal -0.517799 0.855503 0
    outer loop
      vertex 7.115 54.124 5
      vertex 11.186 56.588 5
      vertex 7.115 54.124 -5
    endloop
  endfacet
  facet normal -0.517799 0.855503 0
    outer loop
      vertex 7.115 54.124 -5
      vertex 11.186 56.588 5
      vertex 11.186 56.588 -5
    endloop
  endfacet
  facet normal -0.748698 0.662912 0
    outer loop
      vertex 4.024 50.633 5
      vertex 7.115 54.124 5
      vertex 4.024 50.633 -5
    endloop
  endfacet
  facet normal -0.748698 0.662912 0
    outer loop
      vertex 4.024 50.633 -5
      vertex 7.115 54.124 5
      vertex 7.115 54.124 -5
    endloop
  endfacet
  facet normal -0.915824 0.401581 0
    outer loop
      vertex 2.117 46.284 5
      vertex 4.024 50.633 5
      vertex 2.117 46.284 -5
    endloop
  endfacet
  facet normal -0.915824 0.401581 0
    outer loop
      vertex 2.117 46.284 -5
      vertex 4.024 50.633 5
      vertex 4.024 50.633 -5
    endloop
  endfacet
  facet normal -0.987811 0.155658 0
    outer loop
      vertex 1.802 44.285 5
      vertex 2.117 46.284 5
      vertex 1.802 44.285 -5
    endloop
  endfacet
  facet normal -0.987811 0.155658 0
    outer loop
      vertex 1.802 44.285 -5
      vertex 2.117 46.284 5
      vertex 2.117 46.284 -5
    endloop
  endfacet
  facet normal -0.99925 0.0387336 0
    outer loop
      vertex 1.703 41.731 5
      vertex 1.802 44.285 5
      vertex 1.703 41.731 -5
    endloop
  endfacet
  facet normal -0.99925 0.0387336 0
    outer loop
      vertex 1.703 41.731 -5
      vertex 1.802 44.285 5
      vertex 1.802 44.285 -5
    endloop
  endfacet
  facet normal -0.999118 -0.0419863 0
    outer loop
      vertex 1.811 39.161 -5
      vertex 1.811 39.161 5
      vertex 1.703 41.731 -5
    endloop
  endfacet
  facet normal -0.999118 -0.0419863 0
    outer loop
      vertex 1.703 41.731 -5
      vertex 1.811 39.161 5
      vertex 1.703 41.731 5
    endloop
  endfacet
  facet normal -0.989032 -0.147703 0
    outer loop
      vertex 2.117 37.112 -5
      vertex 2.117 37.112 5
      vertex 1.811 39.161 -5
    endloop
  endfacet
  facet normal -0.989032 -0.147703 0
    outer loop
      vertex 1.811 39.161 -5
      vertex 2.117 37.112 5
      vertex 1.811 39.161 5
    endloop
  endfacet
  facet normal -0.939053 -0.343773 0
    outer loop
      vertex 3.123 34.364 -5
      vertex 3.123 34.364 5
      vertex 2.117 37.112 -5
    endloop
  endfacet
  facet normal -0.939053 -0.343773 0
    outer loop
      vertex 2.117 37.112 -5
      vertex 3.123 34.364 5
      vertex 2.117 37.112 5
    endloop
  endfacet
  facet normal -0.852103 -0.523375 0
    outer loop
      vertex 4.618 31.93 -5
      vertex 4.618 31.93 5
      vertex 3.123 34.364 -5
    endloop
  endfacet
  facet normal -0.852103 -0.523375 0
    outer loop
      vertex 3.123 34.364 -5
      vertex 4.618 31.93 5
      vertex 3.123 34.364 5
    endloop
  endfacet
  facet normal -0.726815 -0.686833 0
    outer loop
      vertex 6.542 29.894 -5
      vertex 6.542 29.894 5
      vertex 4.618 31.93 -5
    endloop
  endfacet
  facet normal -0.726815 -0.686833 0
    outer loop
      vertex 4.618 31.93 -5
      vertex 6.542 29.894 5
      vertex 4.618 31.93 5
    endloop
  endfacet
  facet normal -0.562586 -0.826739 0
    outer loop
      vertex 6.542 29.894 -5
      vertex 8.833 28.335 -5
      vertex 8.833 28.335 5
    endloop
  endfacet
  facet normal -0.562586 -0.826739 0
    outer loop
      vertex 6.542 29.894 5
      vertex 6.542 29.894 -5
      vertex 8.833 28.335 5
    endloop
  endfacet
  facet normal -0.471399 -0.88192 0
    outer loop
      vertex 8.833 28.335 -5
      vertex 10.47 27.46 -5
      vertex 10.47 27.46 5
    endloop
  endfacet
  facet normal -0.471399 -0.88192 0
    outer loop
      vertex 8.833 28.335 5
      vertex 8.833 28.335 -5
      vertex 10.47 27.46 5
    endloop
  endfacet
  facet normal -0.346208 0.938158 0
    outer loop
      vertex 9.172 26.981 5
      vertex 10.47 27.46 5
      vertex 9.172 26.981 -5
    endloop
  endfacet
  facet normal -0.346208 0.938158 0
    outer loop
      vertex 9.172 26.981 -5
      vertex 10.47 27.46 5
      vertex 10.47 27.46 -5
    endloop
  endfacet
  facet normal -0.496071 0.868282 0
    outer loop
      vertex 7.791 26.192 5
      vertex 9.172 26.981 5
      vertex 7.791 26.192 -5
    endloop
  endfacet
  facet normal -0.496071 0.868282 0
    outer loop
      vertex 7.791 26.192 -5
      vertex 9.172 26.981 5
      vertex 9.172 26.981 -5
    endloop
  endfacet
  facet normal -0.65136 0.758768 0
    outer loop
      vertex 6.364 24.967 5
      vertex 7.791 26.192 5
      vertex 6.364 24.967 -5
    endloop
  endfacet
  facet normal -0.65136 0.758768 0
    outer loop
      vertex 6.364 24.967 -5
      vertex 7.791 26.192 5
      vertex 7.791 26.192 -5
    endloop
  endfacet
  facet normal -0.755046 0.655671 0
    outer loop
      vertex 5.084 23.493 5
      vertex 6.364 24.967 5
      vertex 5.084 23.493 -5
    endloop
  endfacet
  facet normal -0.755046 0.655671 0
    outer loop
      vertex 5.084 23.493 -5
      vertex 6.364 24.967 5
      vertex 6.364 24.967 -5
    endloop
  endfacet
  facet normal -0.854037 0.520212 0
    outer loop
      vertex 4.149 21.958 5
      vertex 5.084 23.493 5
      vertex 4.149 21.958 -5
    endloop
  endfacet
  facet normal -0.854037 0.520212 0
    outer loop
      vertex 4.149 21.958 -5
      vertex 5.084 23.493 5
      vertex 5.084 23.493 -5
    endloop
  endfacet
  facet normal -0.929211 0.369549 0
    outer loop
      vertex 3.422 20.13 5
      vertex 4.149 21.958 5
      vertex 3.422 20.13 -5
    endloop
  endfacet
  facet normal -0.929211 0.369549 0
    outer loop
      vertex 3.422 20.13 -5
      vertex 4.149 21.958 5
      vertex 4.149 21.958 -5
    endloop
  endfacet
  facet normal -0.970987 0.239131 0
    outer loop
      vertex 2.893 17.982 5
      vertex 3.422 20.13 5
      vertex 2.893 17.982 -5
    endloop
  endfacet
  facet normal -0.970987 0.239131 0
    outer loop
      vertex 2.893 17.982 -5
      vertex 3.422 20.13 5
      vertex 3.422 20.13 -5
    endloop
  endfacet
  facet normal -0.990183 0.139774 0
    outer loop
      vertex 2.489 15.12 5
      vertex 2.893 17.982 5
      vertex 2.489 15.12 -5
    endloop
  endfacet
  facet normal -0.990183 0.139774 0
    outer loop
      vertex 2.489 15.12 -5
      vertex 2.893 17.982 5
      vertex 2.893 17.982 -5
    endloop
  endfacet
  facet normal -0.996249 0.0865322 0
    outer loop
      vertex 2.144 11.148 5
      vertex 2.489 15.12 5
      vertex 2.144 11.148 -5
    endloop
  endfacet
  facet normal -0.996249 0.0865322 0
    outer loop
      vertex 2.144 11.148 -5
      vertex 2.489 15.12 5
      vertex 2.489 15.12 -5
    endloop
  endfacet
  facet normal -0.99594 0.0900177 0
    outer loop
      vertex 1.815 7.508 5
      vertex 2.144 11.148 5
      vertex 1.815 7.508 -5
    endloop
  endfacet
  facet normal -0.99594 0.0900177 0
    outer loop
      vertex 1.815 7.508 -5
      vertex 2.144 11.148 5
      vertex 2.144 11.148 -5
    endloop
  endfacet
  facet normal -0.99071 0.135994 0
    outer loop
      vertex 1.443 4.798 5
      vertex 1.815 7.508 5
      vertex 1.443 4.798 -5
    endloop
  endfacet
  facet normal -0.99071 0.135994 0
    outer loop
      vertex 1.443 4.798 -5
      vertex 1.815 7.508 5
      vertex 1.815 7.508 -5
    endloop
  endfacet
  facet normal -0.974408 0.224787 0
    outer loop
      vertex 0.989 2.83 5
      vertex 1.443 4.798 5
      vertex 0.989 2.83 -5
    endloop
  endfacet
  facet normal -0.974408 0.224787 0
    outer loop
      vertex 0.989 2.83 -5
      vertex 1.443 4.798 5
      vertex 1.443 4.798 -5
    endloop
  endfacet
  facet normal -0.928837 0.370488 0
    outer loop
      vertex 0.423 1.411 5
      vertex 0.989 2.83 5
      vertex 0.423 1.411 -5
    endloop
  endfacet
  facet normal -0.928837 0.370488 0
    outer loop
      vertex 0.423 1.411 -5
      vertex 0.989 2.83 5
      vertex 0.989 2.83 -5
    endloop
  endfacet
  facet normal -0.91471 0.404111 0
    outer loop
      vertex 0.127 0.741 5
      vertex 0.423 1.411 5
      vertex 0.127 0.741 -5
    endloop
  endfacet
  facet normal -0.91471 0.404111 0
    outer loop
      vertex 0.127 0.741 -5
      vertex 0.423 1.411 5
      vertex 0.423 1.411 -5
    endloop
  endfacet
  facet normal 0.995366 0.0961558 0
    outer loop
      vertex 14.62 39.737 -5
      vertex 14.62 39.737 5
      vertex 14.839 37.47 5
    endloop
  endfacet
  facet normal 0.995366 0.0961558 0
    outer loop
      vertex 14.839 37.47 -5
      vertex 14.62 39.737 -5
      vertex 14.839 37.47 5
    endloop
  endfacet
  facet normal 0.998948 -0.0458643 0
    outer loop
      vertex 14.62 39.737 -5
      vertex 14.702 41.523 -5
      vertex 14.702 41.523 5
    endloop
  endfacet
  facet normal 0.998948 -0.0458643 0
    outer loop
      vertex 14.62 39.737 5
      vertex 14.62 39.737 -5
      vertex 14.702 41.523 5
    endloop
  endfacet
  facet normal 0.984062 -0.177826 0
    outer loop
      vertex 14.702 41.523 -5
      vertex 14.968 42.995 -5
      vertex 14.968 42.995 5
    endloop
  endfacet
  facet normal 0.984062 -0.177826 0
    outer loop
      vertex 14.702 41.523 5
      vertex 14.702 41.523 -5
      vertex 14.968 42.995 5
    endloop
  endfacet
  facet normal 0.93356 -0.35842 0
    outer loop
      vertex 14.968 42.995 -5
      vertex 15.441 44.227 -5
      vertex 15.441 44.227 5
    endloop
  endfacet
  facet normal 0.93356 -0.35842 0
    outer loop
      vertex 14.968 42.995 5
      vertex 14.968 42.995 -5
      vertex 15.441 44.227 5
    endloop
  endfacet
  facet normal 0.835757 -0.5491 0
    outer loop
      vertex 15.441 44.227 -5
      vertex 16.144 45.297 -5
      vertex 16.144 45.297 5
    endloop
  endfacet
  facet normal 0.835757 -0.5491 0
    outer loop
      vertex 15.441 44.227 5
      vertex 15.441 44.227 -5
      vertex 16.144 45.297 5
    endloop
  endfacet
  facet normal 0.730929 -0.682454 0
    outer loop
      vertex 16.144 45.297 -5
      vertex 16.862 46.066 -5
      vertex 16.862 46.066 5
    endloop
  endfacet
  facet normal 0.730929 -0.682454 0
    outer loop
      vertex 16.144 45.297 5
      vertex 16.144 45.297 -5
      vertex 16.862 46.066 5
    endloop
  endfacet
  facet normal 0.605412 -0.795912 0
    outer loop
      vertex 16.862 46.066 -5
      vertex 17.66 46.673 -5
      vertex 17.66 46.673 5
    endloop
  endfacet
  facet normal 0.605412 -0.795912 0
    outer loop
      vertex 16.862 46.066 5
      vertex 16.862 46.066 -5
      vertex 17.66 46.673 5
    endloop
  endfacet
  facet normal 0.427807 -0.90387 0
    outer loop
      vertex 17.66 46.673 -5
      vertex 18.634 47.134 -5
      vertex 18.634 47.134 5
    endloop
  endfacet
  facet normal 0.427807 -0.90387 0
    outer loop
      vertex 17.66 46.673 5
      vertex 17.66 46.673 -5
      vertex 18.634 47.134 5
    endloop
  endfacet
  facet normal 0.261476 -0.96521 0
    outer loop
      vertex 18.634 47.134 -5
      vertex 19.878 47.471 -5
      vertex 19.878 47.471 5
    endloop
  endfacet
  facet normal 0.261476 -0.96521 0
    outer loop
      vertex 18.634 47.134 5
      vertex 18.634 47.134 -5
      vertex 19.878 47.471 5
    endloop
  endfacet
  facet normal 0.141594 -0.989925 0
    outer loop
      vertex 19.878 47.471 -5
      vertex 21.486 47.701 -5
      vertex 21.486 47.701 5
    endloop
  endfacet
  facet normal 0.141594 -0.989925 0
    outer loop
      vertex 19.878 47.471 5
      vertex 19.878 47.471 -5
      vertex 21.486 47.701 5
    endloop
  endfacet
  facet normal 0.0700117 -0.997546 0
    outer loop
      vertex 21.486 47.701 -5
      vertex 23.552 47.846 -5
      vertex 23.552 47.846 5
    endloop
  endfacet
  facet normal 0.0700117 -0.997546 0
    outer loop
      vertex 21.486 47.701 5
      vertex 21.486 47.701 -5
      vertex 23.552 47.846 5
    endloop
  endfacet
  facet normal 0.0293991 -0.999568 0
    outer loop
      vertex 23.552 47.846 -5
      vertex 26.17 47.923 -5
      vertex 26.17 47.923 5
    endloop
  endfacet
  facet normal 0.0293991 -0.999568 0
    outer loop
      vertex 23.552 47.846 5
      vertex 23.552 47.846 -5
      vertex 26.17 47.923 5
    endloop
  endfacet
  facet normal 0.00826671 -0.999966 0
    outer loop
      vertex 26.17 47.923 -5
      vertex 29.436 47.95 -5
      vertex 29.436 47.95 5
    endloop
  endfacet
  facet normal 0.00826671 -0.999966 0
    outer loop
      vertex 26.17 47.923 5
      vertex 26.17 47.923 -5
      vertex 29.436 47.95 5
    endloop
  endfacet
  facet normal 0.00371547 -0.999993 0
    outer loop
      vertex 29.436 47.95 -5
      vertex 36.972 47.978 -5
      vertex 36.972 47.978 5
    endloop
  endfacet
  facet normal 0.00371547 -0.999993 0
    outer loop
      vertex 29.436 47.95 5
      vertex 29.436 47.95 -5
      vertex 36.972 47.978 5
    endloop
  endfacet
  facet normal -1 0 0
    outer loop
      vertex 36.972 31.892 5
      vertex 36.972 47.978 5
      vertex 36.972 31.892 -5
    endloop
  endfacet
  facet normal -1 0 0
    outer loop
      vertex 36.972 31.892 -5
      vertex 36.972 47.978 5
      vertex 36.972 47.978 -5
    endloop
  endfacet
  facet normal 0 1 0
    outer loop
      vertex 29.493 31.892 5
      vertex 36.972 31.892 5
      vertex 29.493 31.892 -5
    endloop
  endfacet
  facet normal 0 1 0
    outer loop
      vertex 29.493 31.892 -5
      vertex 36.972 31.892 5
      vertex 36.972 31.892 -5
    endloop
  endfacet
  facet normal 0.00949525 0.999955 0
    outer loop
      vertex 24.754 31.937 5
      vertex 29.493 31.892 5
      vertex 24.754 31.937 -5
    endloop
  endfacet
  facet normal 0.00949525 0.999955 0
    outer loop
      vertex 24.754 31.937 -5
      vertex 29.493 31.892 5
      vertex 29.493 31.892 -5
    endloop
  endfacet
  facet normal 0.0541125 0.998535 0
    outer loop
      vertex 21.617 32.107 5
      vertex 24.754 31.937 5
      vertex 21.617 32.107 -5
    endloop
  endfacet
  facet normal 0.0541125 0.998535 0
    outer loop
      vertex 21.617 32.107 -5
      vertex 24.754 31.937 5
      vertex 24.754 31.937 -5
    endloop
  endfacet
  facet normal 0.165021 0.98629 0
    outer loop
      vertex 19.561 32.451 5
      vertex 21.617 32.107 5
      vertex 19.561 32.451 -5
    endloop
  endfacet
  facet normal 0.165021 0.98629 0
    outer loop
      vertex 19.561 32.451 -5
      vertex 21.617 32.107 5
      vertex 21.617 32.107 -5
    endloop
  endfacet
  facet normal 0.355425 0.934705 0
    outer loop
      vertex 18.062 33.021 5
      vertex 19.561 32.451 5
      vertex 18.062 33.021 -5
    endloop
  endfacet
  facet normal 0.355425 0.934705 0
    outer loop
      vertex 18.062 33.021 -5
      vertex 19.561 32.451 5
      vertex 19.561 32.451 -5
    endloop
  endfacet
  facet normal 0.58555 0.810636 0
    outer loop
      vertex 16.571 34.098 5
      vertex 18.062 33.021 5
      vertex 16.571 34.098 -5
    endloop
  endfacet
  facet normal 0.58555 0.810636 0
    outer loop
      vertex 16.571 34.098 -5
      vertex 18.062 33.021 5
      vertex 18.062 33.021 -5
    endloop
  endfacet
  facet normal 0.80963 0.586941 0
    outer loop
      vertex 15.493 35.585 -5
      vertex 15.493 35.585 5
      vertex 16.571 34.098 5
    endloop
  endfacet
  facet normal 0.80963 0.586941 0
    outer loop
      vertex 16.571 34.098 -5
      vertex 15.493 35.585 -5
      vertex 16.571 34.098 5
    endloop
  endfacet
  facet normal 0.944753 0.327782 0
    outer loop
      vertex 14.839 37.47 -5
      vertex 14.839 37.47 5
      vertex 15.493 35.585 5
    endloop
  endfacet
  facet normal 0.944753 0.327782 0
    outer loop
      vertex 15.493 35.585 -5
      vertex 14.839 37.47 -5
      vertex 15.493 35.585 5
    endloop
  endfacet
endsolid OpenSCAD_Model
