solid OpenSCAD_Model
  facet normal -0.99 -0.141071 0
    outer loop
      vertex 0.169 15.254 -5
      vertex 0.169 15.254 5
      vertex 0 16.44 -5
    endloop
  endfacet
  facet normal -0.99 -0.141071 0
    outer loop
      vertex 0 16.44 -5
      vertex 0.169 15.254 5
      vertex 0 16.44 5
    endloop
  endfacet
  facet normal -0.976324 -0.216313 0
    outer loop
      vertex 0.763 12.573 -5
      vertex 0.763 12.573 5
      vertex 0.169 15.254 -5
    endloop
  endfacet
  facet normal -0.976324 -0.216313 0
    outer loop
      vertex 0.169 15.254 -5
      vertex 0.763 12.573 5
      vertex 0.169 15.254 5
    endloop
  endfacet
  facet normal 0 0 -1
    outer loop
      vertex 5.305 16.44 -5
      vertex 5.757 14.351 -5
      vertex 0 16.44 -5
    endloop
  endfacet
  facet normal 0 0 -1
    outer loop
      vertex 0 16.44 -5
      vertex 5.757 14.351 -5
      vertex 6.712 11.607 -5
    endloop
  endfacet
  facet normal 0 0 -1
    outer loop
      vertex 6.712 11.607 -5
      vertex 8.243 9.134 -5
      vertex 0 16.44 -5
    endloop
  endfacet
  facet normal 0 0 -1
    outer loop
      vertex 8.243 9.134 -5
      vertex 10.246 7.069 -5
      vertex 0 16.44 -5
    endloop
  endfacet
  facet normal 0 0 -1
    outer loop
      vertex 30.092 30.717 -5
      vertex 26.221 42.335 -5
      vertex 31.186 27.448 -5
    endloop
  endfacet
  facet normal 0 0 -1
    outer loop
      vertex 2.992 29.76 -5
      vertex 6.322 31.68 -5
      vertex 5.672 29.846 -5
    endloop
  endfacet
  facet normal 0 0 -1
    outer loop
      vertex 7.348 34.024 -5
      vertex 6.322 31.68 -5
      vertex 2.992 29.76 -5
    endloop
  endfacet
  facet normal 0 0 -1
    outer loop
      vertex 7.348 34.024 -5
      vertex 2.992 29.76 -5
      vertex 8.664 35.949 -5
    endloop
  endfacet
  facet normal 0 0 -1
    outer loop
      vertex 8.664 35.949 -5
      vertex 2.992 29.76 -5
      vertex 0.282 29.676 -5
    endloop
  endfacet
  facet normal 0 0 -1
    outer loop
      vertex 8.664 35.949 -5
      vertex 0.282 29.676 -5
      vertex 10.298 37.483 -5
    endloop
  endfacet
  facet normal 0 0 -1
    outer loop
      vertex 10.298 37.483 -5
      vertex 0.282 29.676 -5
      vertex 0.452 30.606 -5
    endloop
  endfacet
  facet normal 0 0 -1
    outer loop
      vertex 10.298 37.483 -5
      vertex 0.452 30.606 -5
      vertex 1.124 33.404 -5
    endloop
  endfacet
  facet normal 0 0 -1
    outer loop
      vertex 10.298 37.483 -5
      vertex 1.124 33.404 -5
      vertex 12.277 38.65 -5
    endloop
  endfacet
  facet normal 0 0 -1
    outer loop
      vertex 12.277 38.65 -5
      vertex 1.124 33.404 -5
      vertex 2.14 35.902 -5
    endloop
  endfacet
  facet normal 0 0 -1
    outer loop
      vertex 12.277 38.65 -5
      vertex 2.14 35.902 -5
      vertex 14.219 39.262 -5
    endloop
  endfacet
  facet normal 0 0 -1
    outer loop
      vertex 14.219 39.262 -5
      vertex 2.14 35.902 -5
      vertex 3.488 38.093 -5
    endloop
  endfacet
  facet normal 0 0 -1
    outer loop
      vertex 14.219 39.262 -5
      vertex 3.488 38.093 -5
      vertex 16.538 39.561 -5
    endloop
  endfacet
  facet normal 0 0 -1
    outer loop
      vertex 16.538 39.561 -5
      vertex 3.488 38.093 -5
      vertex 5.157 39.967 -5
    endloop
  endfacet
  facet normal 0 0 -1
    outer loop
      vertex 16.538 39.561 -5
      vertex 5.157 39.967 -5
      vertex 18.919 39.532 -5
    endloop
  endfacet
  facet normal 0 0 -1
    outer loop
      vertex 18.919 39.532 -5
      vertex 5.157 39.967 -5
      vertex 7.136 41.514 -5
    endloop
  endfacet
  facet normal 0 0 -1
    outer loop
      vertex 18.919 39.532 -5
      vertex 7.136 41.514 -5
      vertex 9.412 42.725 -5
    endloop
  endfacet
  facet normal 0 0 -1
    outer loop
      vertex 18.919 39.532 -5
      vertex 9.412 42.725 -5
      vertex 21.054 39.158 -5
    endloop
  endfacet
  facet normal 0 0 -1
    outer loop
      vertex 21.054 39.158 -5
      vertex 9.412 42.725 -5
      vertex 11.977 43.589 -5
    endloop
  endfacet
  facet normal 0 0 -1
    outer loop
      vertex 21.054 39.158 -5
      vertex 11.977 43.589 -5
      vertex 23.932 37.926 -5
    endloop
  endfacet
  facet normal 0 0 -1
    outer loop
      vertex 23.932 37.926 -5
      vertex 11.977 43.589 -5
      vertex 14.817 44.097 -5
    endloop
  endfacet
  facet normal 0 0 -1
    outer loop
      vertex 23.932 37.926 -5
      vertex 14.817 44.097 -5
      vertex 18.666 44.167 -5
    endloop
  endfacet
  facet normal 0 0 -1
    outer loop
      vertex 23.932 37.926 -5
      vertex 18.666 44.167 -5
      vertex 26.424 36.048 -5
    endloop
  endfacet
  facet normal 0 0 -1
    outer loop
      vertex 26.424 36.048 -5
      vertex 18.666 44.167 -5
      vertex 22.578 43.645 -5
    endloop
  endfacet
  facet normal 0 0 -1
    outer loop
      vertex 26.424 36.048 -5
      vertex 22.578 43.645 -5
      vertex 28.491 33.615 -5
    endloop
  endfacet
  facet normal 0 0 -1
    outer loop
      vertex 28.491 33.615 -5
      vertex 22.578 43.645 -5
      vertex 26.221 42.335 -5
    endloop
  endfacet
  facet normal 0 0 -1
    outer loop
      vertex 28.491 33.615 -5
      vertex 26.221 42.335 -5
      vertex 30.092 30.717 -5
    endloop
  endfacet
  facet normal 0 0 -1
    outer loop
      vertex 31.186 27.448 -5
      vertex 26.221 42.335 -5
      vertex 29.545 40.185 -5
    endloop
  endfacet
  facet normal 0 0 -1
    outer loop
      vertex 31.186 27.448 -5
      vertex 29.545 40.185 -5
      vertex 31.738 23.899 -5
    endloop
  endfacet
  facet normal 0 0 -1
    outer loop
      vertex 31.738 23.899 -5
      vertex 29.545 40.185 -5
      vertex 32.376 37.332 -5
    endloop
  endfacet
  facet normal 0 0 -1
    outer loop
      vertex 31.738 23.899 -5
      vertex 32.376 37.332 -5
      vertex 31.703 20.162 -5
    endloop
  endfacet
  facet normal 0 0 -1
    outer loop
      vertex 31.703 20.162 -5
      vertex 32.376 37.332 -5
      vertex 34.545 33.909 -5
    endloop
  endfacet
  facet normal 0 0 -1
    outer loop
      vertex 31.703 20.162 -5
      vertex 34.545 33.909 -5
      vertex 31.044 16.327 -5
    endloop
  endfacet
  facet normal 0 0 -1
    outer loop
      vertex 31.044 16.327 -5
      vertex 34.545 33.909 -5
      vertex 35.751 31.086 -5
    endloop
  endfacet
  facet normal 0 0 -1
    outer loop
      vertex 31.044 16.327 -5
      vertex 35.751 31.086 -5
      vertex 36.533 28.378 -5
    endloop
  endfacet
  facet normal 0 0 -1
    outer loop
      vertex 31.044 16.327 -5
      vertex 36.533 28.378 -5
      vertex 29.53 12.309 -5
    endloop
  endfacet
  facet normal 0 0 -1
    outer loop
      vertex 29.53 12.309 -5
      vertex 36.533 28.378 -5
      vertex 36.956 25.48 -5
    endloop
  endfacet
  facet normal 0 0 -1
    outer loop
      vertex 29.53 12.309 -5
      vertex 36.956 25.48 -5
      vertex 37.084 22.084 -5
    endloop
  endfacet
  facet normal 0 0 -1
    outer loop
      vertex 29.53 12.309 -5
      vertex 37.084 22.084 -5
      vertex 27.277 8.986 -5
    endloop
  endfacet
  facet normal 0 0 -1
    outer loop
      vertex 27.277 8.986 -5
      vertex 37.084 22.084 -5
      vertex 36.956 18.689 -5
    endloop
  endfacet
  facet normal 0 0 -1
    outer loop
      vertex 27.277 8.986 -5
      vertex 36.956 18.689 -5
      vertex 36.533 15.791 -5
    endloop
  endfacet
  facet normal 0 0 -1
    outer loop
      vertex 27.277 8.986 -5
      vertex 36.533 15.791 -5
      vertex 24.408 6.504 -5
    endloop
  endfacet
  facet normal 0 0 -1
    outer loop
      vertex 24.408 6.504 -5
      vertex 36.533 15.791 -5
      vertex 35.751 13.083 -5
    endloop
  endfacet
  facet normal 0 0 -1
    outer loop
      vertex 24.408 6.504 -5
      vertex 35.751 13.083 -5
      vertex 34.545 10.258 -5
    endloop
  endfacet
  facet normal 0 0 -1
    outer loop
      vertex 24.408 6.504 -5
      vertex 34.545 10.258 -5
      vertex 21.054 5.009 -5
    endloop
  endfacet
  facet normal 0 0 -1
    outer loop
      vertex 21.054 5.009 -5
      vertex 34.545 10.258 -5
      vertex 32.374 6.82 -5
    endloop
  endfacet
  facet normal 0 0 -1
    outer loop
      vertex 21.054 5.009 -5
      vertex 32.374 6.82 -5
      vertex 18.91 4.637 -5
    endloop
  endfacet
  facet normal 0 0 -1
    outer loop
      vertex 18.91 4.637 -5
      vertex 32.374 6.82 -5
      vertex 29.548 3.976 -5
    endloop
  endfacet
  facet normal 0 0 -1
    outer loop
      vertex 18.91 4.637 -5
      vertex 29.548 3.976 -5
      vertex 16.644 4.611 -5
    endloop
  endfacet
  facet normal 0 0 -1
    outer loop
      vertex 16.644 4.611 -5
      vertex 29.548 3.976 -5
      vertex 26.194 1.826 -5
    endloop
  endfacet
  facet normal 0 0 -1
    outer loop
      vertex 16.644 4.611 -5
      vertex 26.194 1.826 -5
      vertex 14.474 4.918 -5
    endloop
  endfacet
  facet normal 0 0 -1
    outer loop
      vertex 14.474 4.918 -5
      vertex 26.194 1.826 -5
      vertex 22.437 0.466 -5
    endloop
  endfacet
  facet normal 0 0 -1
    outer loop
      vertex 14.474 4.918 -5
      vertex 22.437 0.466 -5
      vertex 12.616 5.545 -5
    endloop
  endfacet
  facet normal 0 0 -1
    outer loop
      vertex 12.616 5.545 -5
      vertex 22.437 0.466 -5
      vertex 20.157 0.117 -5
    endloop
  endfacet
  facet normal 0 0 -1
    outer loop
      vertex 12.616 5.545 -5
      vertex 20.157 0.117 -5
      vertex 10.246 7.069 -5
    endloop
  endfacet
  facet normal 0 0 -1
    outer loop
      vertex 10.246 7.069 -5
      vertex 20.157 0.117 -5
      vertex 17.497 0 -5
    endloop
  endfacet
  facet normal 0 0 -1
    outer loop
      vertex 10.246 7.069 -5
      vertex 17.497 0 -5
      vertex 0 16.44 -5
    endloop
  endfacet
  facet normal 0 0 -1
    outer loop
      vertex 0 16.44 -5
      vertex 17.497 0 -5
      vertex 14.879 0.117 -5
    endloop
  endfacet
  facet normal 0 0 -1
    outer loop
      vertex 0 16.44 -5
      vertex 14.879 0.117 -5
      vertex 12.728 0.466 -5
    endloop
  endfacet
  facet normal 0 0 -1
    outer loop
      vertex 0 16.44 -5
      vertex 12.728 0.466 -5
      vertex 10.353 1.286 -5
    endloop
  endfacet
  facet normal 0 0 -1
    outer loop
      vertex 0 16.44 -5
      vertex 10.353 1.286 -5
      vertex 8.161 2.456 -5
    endloop
  endfacet
  facet normal 0 0 -1
    outer loop
      vertex 0 16.44 -5
      vertex 8.161 2.456 -5
      vertex 6.174 3.948 -5
    endloop
  endfacet
  facet normal 0 0 -1
    outer loop
      vertex 0 16.44 -5
      vertex 6.174 3.948 -5
      vertex 4.417 5.733 -5
    endloop
  endfacet
  facet normal 0 0 -1
    outer loop
      vertex 0 16.44 -5
      vertex 4.417 5.733 -5
      vertex 2.912 7.785 -5
    endloop
  endfacet
  facet normal 0 0 -1
    outer loop
      vertex 0 16.44 -5
      vertex 2.912 7.785 -5
      vertex 1.687 10.075 -5
    endloop
  endfacet
  facet normal 0 0 -1
    outer loop
      vertex 0 16.44 -5
      vertex 1.687 10.075 -5
      vertex 0.763 12.573 -5
    endloop
  endfacet
  facet normal 0 0 -1
    outer loop
      vertex 0 16.44 -5
      vertex 0.763 12.573 -5
      vertex 0.169 15.254 -5
    endloop
  endfacet
  facet normal 0 1 0
    outer loop
      vertex 0 16.44 5
      vertex 5.305 16.44 5
      vertex 0 16.44 -5
    endloop
  endfacet
  facet normal 0 1 0
    outer loop
      vertex 0 16.44 -5
      vertex 5.305 16.44 5
      vertex 5.305 16.44 -5
    endloop
  endfacet
  facet normal 0 0 1
    outer loop
      vertex 0 16.44 5
      vertex 0.169 15.254 5
      vertex 0.763 12.573 5
    endloop
  endfacet
  facet normal 0 0 1
    outer loop
      vertex 2.912 7.785 5
      vertex 0 16.44 5
      vertex 1.687 10.075 5
    endloop
  endfacet
  facet normal 0 0 1
    outer loop
      vertex 1.687 10.075 5
      vertex 0 16.44 5
      vertex 0.763 12.573 5
    endloop
  endfacet
  facet normal 0 0 1
    outer loop
      vertex 4.417 5.733 5
      vertex 0 16.44 5
      vertex 2.912 7.785 5
    endloop
  endfacet
  facet normal 0 0 1
    outer loop
      vertex 6.174 3.948 5
      vertex 0 16.44 5
      vertex 4.417 5.733 5
    endloop
  endfacet
  facet normal 0 0 1
    outer loop
      vertex 8.161 2.456 5
      vertex 0 16.44 5
      vertex 6.174 3.948 5
    endloop
  endfacet
  facet normal 0 0 1
    outer loop
      vertex 10.353 1.286 5
      vertex 0 16.44 5
      vertex 8.161 2.456 5
    endloop
  endfacet
  facet normal 0 0 1
    outer loop
      vertex 12.728 0.466 5
      vertex 0 16.44 5
      vertex 10.353 1.286 5
    endloop
  endfacet
  facet normal 0 0 1
    outer loop
      vertex 14.879 0.117 5
      vertex 0 16.44 5
      vertex 12.728 0.466 5
    endloop
  endfacet
  facet normal 0 0 1
    outer loop
      vertex 17.497 0 5
      vertex 0 16.44 5
      vertex 14.879 0.117 5
    endloop
  endfacet
  facet normal 0 0 1
    outer loop
      vertex 10.246 7.069 5
      vertex 0 16.44 5
      vertex 17.497 0 5
    endloop
  endfacet
  facet normal 0 0 1
    outer loop
      vertex 8.243 9.134 5
      vertex 6.712 11.607 5
      vertex 0 16.44 5
    endloop
  endfacet
  facet normal 0 0 1
    outer loop
      vertex 21.054 5.009 5
      vertex 18.91 4.637 5
      vertex 26.194 1.826 5
    endloop
  endfacet
  facet normal 0 0 1
    outer loop
      vertex 16.644 4.611 5
      vertex 14.474 4.918 5
      vertex 22.437 0.466 5
    endloop
  endfacet
  facet normal 0 0 1
    outer loop
      vertex 29.53 12.309 5
      vertex 27.277 8.986 5
      vertex 34.545 10.258 5
    endloop
  endfacet
  facet normal 0 0 1
    outer loop
      vertex 27.277 8.986 5
      vertex 24.408 6.504 5
      vertex 32.374 6.82 5
    endloop
  endfacet
  facet normal 0 0 1
    outer loop
      vertex 31.044 16.327 5
      vertex 29.53 12.309 5
      vertex 35.751 13.083 5
    endloop
  endfacet
  facet normal 0 0 1
    outer loop
      vertex 31.738 23.899 5
      vertex 31.703 20.162 5
      vertex 37.084 22.084 5
    endloop
  endfacet
  facet normal 0 0 1
    outer loop
      vertex 31.703 20.162 5
      vertex 31.044 16.327 5
      vertex 36.956 18.689 5
    endloop
  endfacet
  facet normal 0 0 1
    outer loop
      vertex 31.186 27.448 5
      vertex 36.956 25.48 5
      vertex 36.533 28.378 5
    endloop
  endfacet
  facet normal 0 0 1
    outer loop
      vertex 30.092 30.717 5
      vertex 31.186 27.448 5
      vertex 35.751 31.086 5
    endloop
  endfacet
  facet normal 0 0 1
    outer loop
      vertex 28.491 33.615 5
      vertex 30.092 30.717 5
      vertex 34.545 33.909 5
    endloop
  endfacet
  facet normal 0 0 1
    outer loop
      vertex 26.424 36.048 5
      vertex 28.491 33.615 5
      vertex 32.376 37.332 5
    endloop
  endfacet
  facet normal 0 0 1
    outer loop
      vertex 23.932 37.926 5
      vertex 26.424 36.048 5
      vertex 29.545 40.185 5
    endloop
  endfacet
  facet normal 0 0 1
    outer loop
      vertex 21.054 39.158 5
      vertex 23.932 37.926 5
      vertex 26.221 42.335 5
    endloop
  endfacet
  facet normal 0 0 1
    outer loop
      vertex 18.919 39.532 5
      vertex 21.054 39.158 5
      vertex 22.578 43.645 5
    endloop
  endfacet
  facet normal 0 0 1
    outer loop
      vertex 14.219 39.262 5
      vertex 16.538 39.561 5
      vertex 18.666 44.167 5
    endloop
  endfacet
  facet normal 0 0 1
    outer loop
      vertex 10.298 37.483 5
      vertex 12.277 38.65 5
      vertex 14.817 44.097 5
    endloop
  endfacet
  facet normal 0 0 1
    outer loop
      vertex 2.992 29.76 5
      vertex 9.412 42.725 5
      vertex 7.136 41.514 5
    endloop
  endfacet
  facet normal 0 0 1
    outer loop
      vertex 2.992 29.76 5
      vertex 5.672 29.846 5
      vertex 9.412 42.725 5
    endloop
  endfacet
  facet normal 0 0 1
    outer loop
      vertex 7.348 34.024 5
      vertex 8.664 35.949 5
      vertex 11.977 43.589 5
    endloop
  endfacet
  facet normal 0 0 1
    outer loop
      vertex 6.712 11.607 5
      vertex 5.757 14.351 5
      vertex 0 16.44 5
    endloop
  endfacet
  facet normal 0 0 1
    outer loop
      vertex 5.157 39.967 5
      vertex 2.992 29.76 5
      vertex 7.136 41.514 5
    endloop
  endfacet
  facet normal 0 0 1
    outer loop
      vertex 31.186 27.448 5
      vertex 31.738 23.899 5
      vertex 36.956 25.48 5
    endloop
  endfacet
  facet normal 0 0 1
    outer loop
      vertex 9.412 42.725 5
      vertex 5.672 29.846 5
      vertex 6.322 31.68 5
    endloop
  endfacet
  facet normal 0 0 1
    outer loop
      vertex 9.412 42.725 5
      vertex 7.348 34.024 5
      vertex 11.977 43.589 5
    endloop
  endfacet
  facet normal 0 0 1
    outer loop
      vertex 9.412 42.725 5
      vertex 6.322 31.68 5
      vertex 7.348 34.024 5
    endloop
  endfacet
  facet normal 0 0 1
    outer loop
      vertex 11.977 43.589 5
      vertex 8.664 35.949 5
      vertex 14.817 44.097 5
    endloop
  endfacet
  facet normal 0 0 1
    outer loop
      vertex 8.664 35.949 5
      vertex 10.298 37.483 5
      vertex 14.817 44.097 5
    endloop
  endfacet
  facet normal 0 0 1
    outer loop
      vertex 14.817 44.097 5
      vertex 12.277 38.65 5
      vertex 18.666 44.167 5
    endloop
  endfacet
  facet normal 0 0 1
    outer loop
      vertex 12.277 38.65 5
      vertex 14.219 39.262 5
      vertex 18.666 44.167 5
    endloop
  endfacet
  facet normal 0 0 1
    outer loop
      vertex 18.666 44.167 5
      vertex 16.538 39.561 5
      vertex 22.578 43.645 5
    endloop
  endfacet
  facet normal 0 0 1
    outer loop
      vertex 16.538 39.561 5
      vertex 18.919 39.532 5
      vertex 22.578 43.645 5
    endloop
  endfacet
  facet normal 0 0 1
    outer loop
      vertex 22.578 43.645 5
      vertex 21.054 39.158 5
      vertex 26.221 42.335 5
    endloop
  endfacet
  facet normal 0 0 1
    outer loop
      vertex 26.221 42.335 5
      vertex 23.932 37.926 5
      vertex 29.545 40.185 5
    endloop
  endfacet
  facet normal 0 0 1
    outer loop
      vertex 29.545 40.185 5
      vertex 26.424 36.048 5
      vertex 32.376 37.332 5
    endloop
  endfacet
  facet normal 0 0 1
    outer loop
      vertex 32.376 37.332 5
      vertex 28.491 33.615 5
      vertex 34.545 33.909 5
    endloop
  endfacet
  facet normal 0 0 1
    outer loop
      vertex 34.545 33.909 5
      vertex 30.092 30.717 5
      vertex 35.751 31.086 5
    endloop
  endfacet
  facet normal 0 0 1
    outer loop
      vertex 35.751 31.086 5
      vertex 31.186 27.448 5
      vertex 36.533 28.378 5
    endloop
  endfacet
  facet normal 0 0 1
    outer loop
      vertex 36.956 25.48 5
      vertex 31.738 23.899 5
      vertex 37.084 22.084 5
    endloop
  endfacet
  facet normal 0 0 1
    outer loop
      vertex 37.084 22.084 5
      vertex 31.703 20.162 5
      vertex 36.956 18.689 5
    endloop
  endfacet
  facet normal 0 0 1
    outer loop
      vertex 36.956 18.689 5
      vertex 31.044 16.327 5
      vertex 36.533 15.791 5
    endloop
  endfacet
  facet normal 0 0 1
    outer loop
      vertex 35.751 13.083 5
      vertex 29.53 12.309 5
      vertex 34.545 10.258 5
    endloop
  endfacet
  facet normal 0 0 1
    outer loop
      vertex 34.545 10.258 5
      vertex 27.277 8.986 5
      vertex 32.374 6.82 5
    endloop
  endfacet
  facet normal 0 0 1
    outer loop
      vertex 32.374 6.82 5
      vertex 24.408 6.504 5
      vertex 29.548 3.976 5
    endloop
  endfacet
  facet normal 0 0 1
    outer loop
      vertex 29.548 3.976 5
      vertex 21.054 5.009 5
      vertex 26.194 1.826 5
    endloop
  endfacet
  facet normal 0 0 1
    outer loop
      vertex 26.194 1.826 5
      vertex 18.91 4.637 5
      vertex 22.437 0.466 5
    endloop
  endfacet
  facet normal 0 0 1
    outer loop
      vertex 18.91 4.637 5
      vertex 16.644 4.611 5
      vertex 22.437 0.466 5
    endloop
  endfacet
  facet normal 0 0 1
    outer loop
      vertex 5.757 14.351 5
      vertex 5.305 16.44 5
      vertex 0 16.44 5
    endloop
  endfacet
  facet normal 0 0 1
    outer loop
      vertex 22.437 0.466 5
      vertex 14.474 4.918 5
      vertex 20.157 0.117 5
    endloop
  endfacet
  facet normal 0 0 1
    outer loop
      vertex 20.157 0.117 5
      vertex 12.616 5.545 5
      vertex 17.497 0 5
    endloop
  endfacet
  facet normal 0 0 1
    outer loop
      vertex 12.616 5.545 5
      vertex 10.246 7.069 5
      vertex 17.497 0 5
    endloop
  endfacet
  facet normal 0 0 1
    outer loop
      vertex 8.243 9.134 5
      vertex 0 16.44 5
      vertex 10.246 7.069 5
    endloop
  endfacet
  facet normal 0 0 1
    outer loop
      vertex 14.474 4.918 5
      vertex 12.616 5.545 5
      vertex 20.157 0.117 5
    endloop
  endfacet
  facet normal 0 0 1
    outer loop
      vertex 24.408 6.504 5
      vertex 21.054 5.009 5
      vertex 29.548 3.976 5
    endloop
  endfacet
  facet normal 0 0 1
    outer loop
      vertex 31.044 16.327 5
      vertex 35.751 13.083 5
      vertex 36.533 15.791 5
    endloop
  endfacet
  facet normal 0 0 1
    outer loop
      vertex 0.282 29.676 5
      vertex 1.124 33.404 5
      vertex 0.452 30.606 5
    endloop
  endfacet
  facet normal 0 0 1
    outer loop
      vertex 0.282 29.676 5
      vertex 2.14 35.902 5
      vertex 1.124 33.404 5
    endloop
  endfacet
  facet normal 0 0 1
    outer loop
      vertex 0.282 29.676 5
      vertex 3.488 38.093 5
      vertex 2.14 35.902 5
    endloop
  endfacet
  facet normal 0 0 1
    outer loop
      vertex 0.282 29.676 5
      vertex 5.157 39.967 5
      vertex 3.488 38.093 5
    endloop
  endfacet
  facet normal 0 0 1
    outer loop
      vertex 0.282 29.676 5
      vertex 2.992 29.76 5
      vertex 5.157 39.967 5
    endloop
  endfacet
  facet normal -0.937894 -0.346923 0
    outer loop
      vertex 1.687 10.075 -5
      vertex 1.687 10.075 5
      vertex 0.763 12.573 -5
    endloop
  endfacet
  facet normal -0.937894 -0.346923 0
    outer loop
      vertex 0.763 12.573 -5
      vertex 1.687 10.075 5
      vertex 0.763 12.573 5
    endloop
  endfacet
  facet normal -0.881766 -0.471687 0
    outer loop
      vertex 2.912 7.785 -5
      vertex 2.912 7.785 5
      vertex 1.687 10.075 -5
    endloop
  endfacet
  facet normal -0.881766 -0.471687 0
    outer loop
      vertex 1.687 10.075 -5
      vertex 2.912 7.785 5
      vertex 1.687 10.075 5
    endloop
  endfacet
  facet normal -0.806368 -0.591415 0
    outer loop
      vertex 4.417 5.733 -5
      vertex 4.417 5.733 5
      vertex 2.912 7.785 -5
    endloop
  endfacet
  facet normal -0.806368 -0.591415 0
    outer loop
      vertex 2.912 7.785 -5
      vertex 4.417 5.733 5
      vertex 2.912 7.785 5
    endloop
  endfacet
  facet normal -0.712674 -0.701495 0
    outer loop
      vertex 6.174 3.948 -5
      vertex 6.174 3.948 5
      vertex 4.417 5.733 -5
    endloop
  endfacet
  facet normal -0.712674 -0.701495 0
    outer loop
      vertex 4.417 5.733 -5
      vertex 6.174 3.948 5
      vertex 4.417 5.733 5
    endloop
  endfacet
  facet normal -0.600451 -0.799662 0
    outer loop
      vertex 6.174 3.948 -5
      vertex 8.161 2.456 -5
      vertex 8.161 2.456 5
    endloop
  endfacet
  facet normal -0.600451 -0.799662 0
    outer loop
      vertex 6.174 3.948 5
      vertex 6.174 3.948 -5
      vertex 8.161 2.456 5
    endloop
  endfacet
  facet normal -0.470881 -0.882197 0
    outer loop
      vertex 8.161 2.456 -5
      vertex 10.353 1.286 -5
      vertex 10.353 1.286 5
    endloop
  endfacet
  facet normal -0.470881 -0.882197 0
    outer loop
      vertex 8.161 2.456 5
      vertex 8.161 2.456 -5
      vertex 10.353 1.286 5
    endloop
  endfacet
  facet normal -0.326359 -0.945246 0
    outer loop
      vertex 10.353 1.286 -5
      vertex 12.728 0.466 -5
      vertex 12.728 0.466 5
    endloop
  endfacet
  facet normal -0.326359 -0.945246 0
    outer loop
      vertex 10.353 1.286 5
      vertex 10.353 1.286 -5
      vertex 12.728 0.466 5
    endloop
  endfacet
  facet normal -0.160156 -0.987092 0
    outer loop
      vertex 12.728 0.466 -5
      vertex 14.879 0.117 -5
      vertex 14.879 0.117 5
    endloop
  endfacet
  facet normal -0.160156 -0.987092 0
    outer loop
      vertex 12.728 0.466 5
      vertex 12.728 0.466 -5
      vertex 14.879 0.117 5
    endloop
  endfacet
  facet normal -0.044646 -0.999003 0
    outer loop
      vertex 14.879 0.117 -5
      vertex 17.497 0 -5
      vertex 17.497 0 5
    endloop
  endfacet
  facet normal -0.044646 -0.999003 0
    outer loop
      vertex 14.879 0.117 5
      vertex 14.879 0.117 -5
      vertex 17.497 0 5
    endloop
  endfacet
  facet normal 0.0439425 -0.999034 0
    outer loop
      vertex 17.497 0 -5
      vertex 20.157 0.117 -5
      vertex 20.157 0.117 5
    endloop
  endfacet
  facet normal 0.0439425 -0.999034 0
    outer loop
      vertex 17.497 0 5
      vertex 17.497 0 -5
      vertex 20.157 0.117 5
    endloop
  endfacet
  facet normal 0.151308 -0.988487 0
    outer loop
      vertex 20.157 0.117 -5
      vertex 22.437 0.466 -5
      vertex 22.437 0.466 5
    endloop
  endfacet
  facet normal 0.151308 -0.988487 0
    outer loop
      vertex 20.157 0.117 5
      vertex 20.157 0.117 -5
      vertex 22.437 0.466 5
    endloop
  endfacet
  facet normal 0.340376 -0.940289 0
    outer loop
      vertex 22.437 0.466 -5
      vertex 26.194 1.826 -5
      vertex 26.194 1.826 5
    endloop
  endfacet
  facet normal 0.340376 -0.940289 0
    outer loop
      vertex 22.437 0.466 5
      vertex 22.437 0.466 -5
      vertex 26.194 1.826 5
    endloop
  endfacet
  facet normal 0.539666 -0.841879 0
    outer loop
      vertex 26.194 1.826 -5
      vertex 29.548 3.976 -5
      vertex 29.548 3.976 5
    endloop
  endfacet
  facet normal 0.539666 -0.841879 0
    outer loop
      vertex 26.194 1.826 5
      vertex 26.194 1.826 -5
      vertex 29.548 3.976 5
    endloop
  endfacet
  facet normal 0.709348 -0.704858 0
    outer loop
      vertex 29.548 3.976 -5
      vertex 32.374 6.82 -5
      vertex 32.374 6.82 5
    endloop
  endfacet
  facet normal 0.709348 -0.704858 0
    outer loop
      vertex 29.548 3.976 5
      vertex 29.548 3.976 -5
      vertex 32.374 6.82 5
    endloop
  endfacet
  facet normal 0.84553 -0.533928 0
    outer loop
      vertex 32.374 6.82 -5
      vertex 34.545 10.258 -5
      vertex 34.545 10.258 5
    endloop
  endfacet
  facet normal 0.84553 -0.533928 0
    outer loop
      vertex 32.374 6.82 5
      vertex 32.374 6.82 -5
      vertex 34.545 10.258 5
    endloop
  endfacet
  facet normal 0.9197 -0.392622 0
    outer loop
      vertex 34.545 10.258 -5
      vertex 35.751 13.083 -5
      vertex 35.751 13.083 5
    endloop
  endfacet
  facet normal 0.9197 -0.392622 0
    outer loop
      vertex 34.545 10.258 5
      vertex 34.545 10.258 -5
      vertex 35.751 13.083 5
    endloop
  endfacet
  facet normal 0.960744 -0.277438 0
    outer loop
      vertex 35.751 13.083 -5
      vertex 36.533 15.791 -5
      vertex 36.533 15.791 5
    endloop
  endfacet
  facet normal 0.960744 -0.277438 0
    outer loop
      vertex 35.751 13.083 5
      vertex 35.751 13.083 -5
      vertex 36.533 15.791 5
    endloop
  endfacet
  facet normal 0.989515 -0.144432 0
    outer loop
      vertex 36.533 15.791 -5
      vertex 36.956 18.689 -5
      vertex 36.956 18.689 5
    endloop
  endfacet
  facet normal 0.989515 -0.144432 0
    outer loop
      vertex 36.533 15.791 5
      vertex 36.533 15.791 -5
      vertex 36.956 18.689 5
    endloop
  endfacet
  facet normal 0.99929 -0.0376757 0
    outer loop
      vertex 36.956 18.689 -5
      vertex 37.084 22.084 -5
      vertex 37.084 22.084 5
    endloop
  endfacet
  facet normal 0.99929 -0.0376757 0
    outer loop
      vertex 36.956 18.689 5
      vertex 36.956 18.689 -5
      vertex 37.084 22.084 5
    endloop
  endfacet
  facet normal 0.99929 0.0376647 0
    outer loop
      vertex 36.956 25.48 -5
      vertex 36.956 25.48 5
      vertex 37.084 22.084 5
    endloop
  endfacet
  facet normal 0.99929 0.0376647 0
    outer loop
      vertex 37.084 22.084 -5
      vertex 36.956 25.48 -5
      vertex 37.084 22.084 5
    endloop
  endfacet
  facet normal 0.989515 0.144432 0
    outer loop
      vertex 36.533 28.378 -5
      vertex 36.533 28.378 5
      vertex 36.956 25.48 5
    endloop
  endfacet
  facet normal 0.989515 0.144432 0
    outer loop
      vertex 36.956 25.48 -5
      vertex 36.533 28.378 -5
      vertex 36.956 25.48 5
    endloop
  endfacet
  facet normal 0.960744 0.277438 0
    outer loop
      vertex 35.751 31.086 -5
      vertex 35.751 31.086 5
      vertex 36.533 28.378 5
    endloop
  endfacet
  facet normal 0.960744 0.277438 0
    outer loop
      vertex 36.533 28.378 -5
      vertex 35.751 31.086 -5
      vertex 36.533 28.378 5
    endloop
  endfacet
  facet normal 0.919599 0.392858 0
    outer loop
      vertex 34.545 33.909 -5
      vertex 34.545 33.909 5
      vertex 35.751 31.086 5
    endloop
  endfacet
  facet normal 0.919599 0.392858 0
    outer loop
      vertex 35.751 31.086 -5
      vertex 34.545 33.909 -5
      vertex 35.751 31.086 5
    endloop
  endfacet
  facet normal 0.844696 0.535246 0
    outer loop
      vertex 32.376 37.332 -5
      vertex 32.376 37.332 5
      vertex 34.545 33.909 5
    endloop
  endfacet
  facet normal 0.844696 0.535246 0
    outer loop
      vertex 34.545 33.909 -5
      vertex 32.376 37.332 -5
      vertex 34.545 33.909 5
    endloop
  endfacet
  facet normal 0.709838 0.704365 0
    outer loop
      vertex 29.545 40.185 -5
      vertex 29.545 40.185 5
      vertex 32.376 37.332 5
    endloop
  endfacet
  facet normal 0.709838 0.704365 0
    outer loop
      vertex 32.376 37.332 -5
      vertex 29.545 40.185 -5
      vertex 32.376 37.332 5
    endloop
  endfacet
  facet normal 0.543105 0.839665 0
    outer loop
      vertex 26.221 42.335 5
      vertex 29.545 40.185 5
      vertex 26.221 42.335 -5
    endloop
  endfacet
  facet normal 0.543105 0.839665 0
    outer loop
      vertex 26.221 42.335 -5
      vertex 29.545 40.185 5
      vertex 29.545 40.185 -5
    endloop
  endfacet
  facet normal 0.338381 0.941009 0
    outer loop
      vertex 22.578 43.645 5
      vertex 26.221 42.335 5
      vertex 22.578 43.645 -5
    endloop
  endfacet
  facet normal 0.338381 0.941009 0
    outer loop
      vertex 22.578 43.645 -5
      vertex 26.221 42.335 5
      vertex 26.221 42.335 -5
    endloop
  endfacet
  facet normal 0.132263 0.991215 0
    outer loop
      vertex 18.666 44.167 5
      vertex 22.578 43.645 5
      vertex 18.666 44.167 -5
    endloop
  endfacet
  facet normal 0.132263 0.991215 0
    outer loop
      vertex 18.666 44.167 -5
      vertex 22.578 43.645 5
      vertex 22.578 43.645 -5
    endloop
  endfacet
  facet normal -0.0181835 0.999835 0
    outer loop
      vertex 14.817 44.097 5
      vertex 18.666 44.167 5
      vertex 14.817 44.097 -5
    endloop
  endfacet
  facet normal -0.0181835 0.999835 0
    outer loop
      vertex 14.817 44.097 -5
      vertex 18.666 44.167 5
      vertex 18.666 44.167 -5
    endloop
  endfacet
  facet normal -0.176079 0.984376 0
    outer loop
      vertex 11.977 43.589 5
      vertex 14.817 44.097 5
      vertex 11.977 43.589 -5
    endloop
  endfacet
  facet normal -0.176079 0.984376 0
    outer loop
      vertex 11.977 43.589 -5
      vertex 14.817 44.097 5
      vertex 14.817 44.097 -5
    endloop
  endfacet
  facet normal -0.319219 0.947681 0
    outer loop
      vertex 9.412 42.725 5
      vertex 11.977 43.589 5
      vertex 9.412 42.725 -5
    endloop
  endfacet
  facet normal -0.319219 0.947681 0
    outer loop
      vertex 9.412 42.725 -5
      vertex 11.977 43.589 5
      vertex 11.977 43.589 -5
    endloop
  endfacet
  facet normal -0.469722 0.882814 0
    outer loop
      vertex 7.136 41.514 5
      vertex 9.412 42.725 5
      vertex 7.136 41.514 -5
    endloop
  endfacet
  facet normal -0.469722 0.882814 0
    outer loop
      vertex 7.136 41.514 -5
      vertex 9.412 42.725 5
      vertex 9.412 42.725 -5
    endloop
  endfacet
  facet normal -0.615868 0.787849 0
    outer loop
      vertex 5.157 39.967 5
      vertex 7.136 41.514 5
      vertex 5.157 39.967 -5
    endloop
  endfacet
  facet normal -0.615868 0.787849 0
    outer loop
      vertex 5.157 39.967 -5
      vertex 7.136 41.514 5
      vertex 7.136 41.514 -5
    endloop
  endfacet
  facet normal -0.746771 0.665081 0
    outer loop
      vertex 3.488 38.093 5
      vertex 5.157 39.967 5
      vertex 3.488 38.093 -5
    endloop
  endfacet
  facet normal -0.746771 0.665081 0
    outer loop
      vertex 3.488 38.093 -5
      vertex 5.157 39.967 5
      vertex 5.157 39.967 -5
    endloop
  endfacet
  facet normal -0.851712 0.524011 0
    outer loop
      vertex 2.14 35.902 5
      vertex 3.488 38.093 5
      vertex 2.14 35.902 -5
    endloop
  endfacet
  facet normal -0.851712 0.524011 0
    outer loop
      vertex 2.14 35.902 -5
      vertex 3.488 38.093 5
      vertex 3.488 38.093 -5
    endloop
  endfacet
  facet normal -0.926313 0.376755 0
    outer loop
      vertex 1.124 33.404 5
      vertex 2.14 35.902 5
      vertex 1.124 33.404 -5
    endloop
  endfacet
  facet normal -0.926313 0.376755 0
    outer loop
      vertex 1.124 33.404 -5
      vertex 2.14 35.902 5
      vertex 2.14 35.902 -5
    endloop
  endfacet
  facet normal -0.972349 0.233531 0
    outer loop
      vertex 0.452 30.606 5
      vertex 1.124 33.404 5
      vertex 0.452 30.606 -5
    endloop
  endfacet
  facet normal -0.972349 0.233531 0
    outer loop
      vertex 0.452 30.606 -5
      vertex 1.124 33.404 5
      vertex 1.124 33.404 -5
    endloop
  endfacet
  facet normal -0.9837 0.179816 0
    outer loop
      vertex 0.282 29.676 5
      vertex 0.452 30.606 5
      vertex 0.282 29.676 -5
    endloop
  endfacet
  facet normal -0.9837 0.179816 0
    outer loop
      vertex 0.282 29.676 -5
      vertex 0.452 30.606 5
      vertex 0.452 30.606 -5
    endloop
  endfacet
  facet normal 0.0309814 -0.99952 0
    outer loop
      vertex 0.282 29.676 -5
      vertex 2.992 29.76 -5
      vertex 2.992 29.76 5
    endloop
  endfacet
  facet normal 0.0309814 -0.99952 0
    outer loop
      vertex 0.282 29.676 5
      vertex 0.282 29.676 -5
      vertex 2.992 29.76 5
    endloop
  endfacet
  facet normal 0.032073 -0.999486 0
    outer loop
      vertex 2.992 29.76 -5
      vertex 5.672 29.846 -5
      vertex 5.672 29.846 5
    endloop
  endfacet
  facet normal 0.032073 -0.999486 0
    outer loop
      vertex 2.992 29.76 5
      vertex 2.992 29.76 -5
      vertex 5.672 29.846 5
    endloop
  endfacet
  facet normal 0.942553 -0.334056 0
    outer loop
      vertex 5.672 29.846 -5
      vertex 6.322 31.68 -5
      vertex 6.322 31.68 5
    endloop
  endfacet
  facet normal 0.942553 -0.334056 0
    outer loop
      vertex 5.672 29.846 5
      vertex 5.672 29.846 -5
      vertex 6.322 31.68 5
    endloop
  endfacet
  facet normal 0.916086 -0.400983 0
    outer loop
      vertex 6.322 31.68 -5
      vertex 7.348 34.024 -5
      vertex 7.348 34.024 5
    endloop
  endfacet
  facet normal 0.916086 -0.400983 0
    outer loop
      vertex 6.322 31.68 5
      vertex 6.322 31.68 -5
      vertex 7.348 34.024 5
    endloop
  endfacet
  facet normal 0.825528 -0.564361 0
    outer loop
      vertex 7.348 34.024 -5
      vertex 8.664 35.949 -5
      vertex 8.664 35.949 5
    endloop
  endfacet
  facet normal 0.825528 -0.564361 0
    outer loop
      vertex 7.348 34.024 5
      vertex 7.348 34.024 -5
      vertex 8.664 35.949 5
    endloop
  endfacet
  facet normal 0.684446 -0.729064 0
    outer loop
      vertex 8.664 35.949 -5
      vertex 10.298 37.483 -5
      vertex 10.298 37.483 5
    endloop
  endfacet
  facet normal 0.684446 -0.729064 0
    outer loop
      vertex 8.664 35.949 5
      vertex 8.664 35.949 -5
      vertex 10.298 37.483 5
    endloop
  endfacet
  facet normal 0.507952 -0.861385 0
    outer loop
      vertex 10.298 37.483 -5
      vertex 12.277 38.65 -5
      vertex 12.277 38.65 5
    endloop
  endfacet
  facet normal 0.507952 -0.861385 0
    outer loop
      vertex 10.298 37.483 5
      vertex 10.298 37.483 -5
      vertex 12.277 38.65 5
    endloop
  endfacet
  facet normal 0.300567 -0.953761 0
    outer loop
      vertex 12.277 38.65 -5
      vertex 14.219 39.262 -5
      vertex 14.219 39.262 5
    endloop
  endfacet
  facet normal 0.300567 -0.953761 0
    outer loop
      vertex 12.277 38.65 5
      vertex 12.277 38.65 -5
      vertex 14.219 39.262 5
    endloop
  endfacet
  facet normal 0.127876 -0.99179 0
    outer loop
      vertex 14.219 39.262 -5
      vertex 16.538 39.561 -5
      vertex 16.538 39.561 5
    endloop
  endfacet
  facet normal 0.127876 -0.99179 0
    outer loop
      vertex 14.219 39.262 5
      vertex 14.219 39.262 -5
      vertex 16.538 39.561 5
    endloop
  endfacet
  facet normal -0.0121789 -0.999926 0
    outer loop
      vertex 16.538 39.561 -5
      vertex 18.919 39.532 -5
      vertex 18.919 39.532 5
    endloop
  endfacet
  facet normal -0.0121789 -0.999926 0
    outer loop
      vertex 16.538 39.561 5
      vertex 16.538 39.561 -5
      vertex 18.919 39.532 5
    endloop
  endfacet
  facet normal -0.172548 -0.985001 0
    outer loop
      vertex 18.919 39.532 -5
      vertex 21.054 39.158 -5
      vertex 21.054 39.158 5
    endloop
  endfacet
  facet normal -0.172548 -0.985001 0
    outer loop
      vertex 18.919 39.532 5
      vertex 18.919 39.532 -5
      vertex 21.054 39.158 5
    endloop
  endfacet
  facet normal -0.393534 -0.91931 0
    outer loop
      vertex 21.054 39.158 -5
      vertex 23.932 37.926 -5
      vertex 23.932 37.926 5
    endloop
  endfacet
  facet normal -0.393534 -0.91931 0
    outer loop
      vertex 21.054 39.158 5
      vertex 21.054 39.158 -5
      vertex 23.932 37.926 5
    endloop
  endfacet
  facet normal -0.601844 -0.798613 0
    outer loop
      vertex 23.932 37.926 -5
      vertex 26.424 36.048 -5
      vertex 26.424 36.048 5
    endloop
  endfacet
  facet normal -0.601844 -0.798613 0
    outer loop
      vertex 23.932 37.926 5
      vertex 23.932 37.926 -5
      vertex 26.424 36.048 5
    endloop
  endfacet
  facet normal -0.762102 -0.647457 0
    outer loop
      vertex 28.491 33.615 -5
      vertex 28.491 33.615 5
      vertex 26.424 36.048 -5
    endloop
  endfacet
  facet normal -0.762102 -0.647457 0
    outer loop
      vertex 26.424 36.048 -5
      vertex 28.491 33.615 5
      vertex 26.424 36.048 5
    endloop
  endfacet
  facet normal -0.875309 -0.483564 0
    outer loop
      vertex 30.092 30.717 -5
      vertex 30.092 30.717 5
      vertex 28.491 33.615 -5
    endloop
  endfacet
  facet normal -0.875309 -0.483564 0
    outer loop
      vertex 28.491 33.615 -5
      vertex 30.092 30.717 5
      vertex 28.491 33.615 5
    endloop
  endfacet
  facet normal -0.948306 -0.317359 0
    outer loop
      vertex 31.186 27.448 -5
      vertex 31.186 27.448 5
      vertex 30.092 30.717 -5
    endloop
  endfacet
  facet normal -0.948306 -0.317359 0
    outer loop
      vertex 30.092 30.717 -5
      vertex 31.186 27.448 5
      vertex 30.092 30.717 5
    endloop
  endfacet
  facet normal -0.988119 -0.153689 0
    outer loop
      vertex 31.738 23.899 -5
      vertex 31.738 23.899 5
      vertex 31.186 27.448 -5
    endloop
  endfacet
  facet normal -0.988119 -0.153689 0
    outer loop
      vertex 31.186 27.448 -5
      vertex 31.738 23.899 5
      vertex 31.186 27.448 5
    endloop
  endfacet
  facet normal -0.999956 0.00936539 0
    outer loop
      vertex 31.703 20.162 5
      vertex 31.738 23.899 5
      vertex 31.703 20.162 -5
    endloop
  endfacet
  facet normal -0.999956 0.00936539 0
    outer loop
      vertex 31.703 20.162 -5
      vertex 31.738 23.899 5
      vertex 31.738 23.899 -5
    endloop
  endfacet
  facet normal -0.985555 0.169356 0
    outer loop
      vertex 31.044 16.327 5
      vertex 31.703 20.162 5
      vertex 31.044 16.327 -5
    endloop
  endfacet
  facet normal -0.985555 0.169356 0
    outer loop
      vertex 31.044 16.327 -5
      vertex 31.703 20.162 5
      vertex 31.703 20.162 -5
    endloop
  endfacet
  facet normal -0.935773 0.352603 0
    outer loop
      vertex 29.53 12.309 5
      vertex 31.044 16.327 5
      vertex 29.53 12.309 -5
    endloop
  endfacet
  facet normal -0.935773 0.352603 0
    outer loop
      vertex 29.53 12.309 -5
      vertex 31.044 16.327 5
      vertex 31.044 16.327 -5
    endloop
  endfacet
  facet normal -0.827695 0.561179 0
    outer loop
      vertex 27.277 8.986 5
      vertex 29.53 12.309 5
      vertex 27.277 8.986 -5
    endloop
  endfacet
  facet normal -0.827695 0.561179 0
    outer loop
      vertex 27.277 8.986 -5
      vertex 29.53 12.309 5
      vertex 29.53 12.309 -5
    endloop
  endfacet
  facet normal -0.654258 0.756272 0
    outer loop
      vertex 24.408 6.504 5
      vertex 27.277 8.986 5
      vertex 24.408 6.504 -5
    endloop
  endfacet
  facet normal -0.654258 0.756272 0
    outer loop
      vertex 24.408 6.504 -5
      vertex 27.277 8.986 5
      vertex 27.277 8.986 -5
    endloop
  endfacet
  facet normal -0.407124 0.913373 0
    outer loop
      vertex 21.054 5.009 5
      vertex 24.408 6.504 5
      vertex 21.054 5.009 -5
    endloop
  endfacet
  facet normal -0.407124 0.913373 0
    outer loop
      vertex 21.054 5.009 -5
      vertex 24.408 6.504 5
      vertex 24.408 6.504 -5
    endloop
  endfacet
  facet normal -0.170953 0.985279 0
    outer loop
      vertex 18.91 4.637 5
      vertex 21.054 5.009 5
      vertex 18.91 4.637 -5
    endloop
  endfacet
  facet normal -0.170953 0.985279 0
    outer loop
      vertex 18.91 4.637 -5
      vertex 21.054 5.009 5
      vertex 21.054 5.009 -5
    endloop
  endfacet
  facet normal -0.0114732 0.999934 0
    outer loop
      vertex 16.644 4.611 5
      vertex 18.91 4.637 5
      vertex 16.644 4.611 -5
    endloop
  endfacet
  facet normal -0.0114732 0.999934 0
    outer loop
      vertex 16.644 4.611 -5
      vertex 18.91 4.637 5
      vertex 18.91 4.637 -5
    endloop
  endfacet
  facet normal 0.14008 0.99014 0
    outer loop
      vertex 14.474 4.918 5
      vertex 16.644 4.611 5
      vertex 14.474 4.918 -5
    endloop
  endfacet
  facet normal 0.14008 0.99014 0
    outer loop
      vertex 14.474 4.918 -5
      vertex 16.644 4.611 5
      vertex 16.644 4.611 -5
    endloop
  endfacet
  facet normal 0.319744 0.947504 0
    outer loop
      vertex 12.616 5.545 5
      vertex 14.474 4.918 5
      vertex 12.616 5.545 -5
    endloop
  endfacet
  facet normal 0.319744 0.947504 0
    outer loop
      vertex 12.616 5.545 -5
      vertex 14.474 4.918 5
      vertex 14.474 4.918 -5
    endloop
  endfacet
  facet normal 0.540865 0.841109 0
    outer loop
      vertex 10.246 7.069 5
      vertex 12.616 5.545 5
      vertex 10.246 7.069 -5
    endloop
  endfacet
  facet normal 0.540865 0.841109 0
    outer loop
      vertex 10.246 7.069 -5
      vertex 12.616 5.545 5
      vertex 12.616 5.545 -5
    endloop
  endfacet
  facet normal 0.7178 0.696249 0
    outer loop
      vertex 8.243 9.134 -5
      vertex 8.243 9.134 5
      vertex 10.246 7.069 5
    endloop
  endfacet
  facet normal 0.7178 0.696249 0
    outer loop
      vertex 10.246 7.069 -5
      vertex 8.243 9.134 -5
      vertex 10.246 7.069 5
    endloop
  endfacet
  facet normal 0.85025 0.526378 0
    outer loop
      vertex 6.712 11.607 -5
      vertex 6.712 11.607 5
      vertex 8.243 9.134 5
    endloop
  endfacet
  facet normal 0.85025 0.526378 0
    outer loop
      vertex 8.243 9.134 -5
      vertex 6.712 11.607 -5
      vertex 8.243 9.134 5
    endloop
  endfacet
  facet normal 0.944436 0.328694 0
    outer loop
      vertex 5.757 14.351 -5
      vertex 5.757 14.351 5
      vertex 6.712 11.607 5
    endloop
  endfacet
  facet normal 0.944436 0.328694 0
    outer loop
      vertex 6.712 11.607 -5
      vertex 5.757 14.351 -5
      vertex 6.712 11.607 5
    endloop
  endfacet
  facet normal 0.977383 0.211478 0
    outer loop
      vertex 5.305 16.44 -5
      vertex 5.305 16.44 5
      vertex 5.757 14.351 5
    endloop
  endfacet
  facet normal 0.977383 0.211478 0
    outer loop
      vertex 5.757 14.351 -5
      vertex 5.305 16.44 -5
      vertex 5.757 14.351 5
    endloop
  endfacet
endsolid OpenSCAD_Model
