solid OpenSCAD_Model
  facet normal 0.994467 -0.105049 0
    outer loop
      vertex 5.245 12.227 -5
      vertex 5.395 13.647 -5
      vertex 5.395 13.647 5
    endloop
  endfacet
  facet normal 0.994467 -0.105049 0
    outer loop
      vertex 5.245 12.227 5
      vertex 5.245 12.227 -5
      vertex 5.395 13.647 5
    endloop
  endfacet
  facet normal 0.948456 -0.316908 0
    outer loop
      vertex 5.395 13.647 -5
      vertex 5.814 14.901 -5
      vertex 5.814 14.901 5
    endloop
  endfacet
  facet normal 0.948456 -0.316908 0
    outer loop
      vertex 5.395 13.647 5
      vertex 5.395 13.647 -5
      vertex 5.814 14.901 5
    endloop
  endfacet
  facet normal 0 0 -1
    outer loop
      vertex 0.019 14.277 -5
      vertex 0.12 15.459 -5
      vertex 0 12.474 -5
    endloop
  endfacet
  facet normal 0 0 -1
    outer loop
      vertex 1.271 30.536 -5
      vertex 6.798 32.403 -5
      vertex 6.633 31.383 -5
    endloop
  endfacet
  facet normal 0 0 -1
    outer loop
      vertex 0 12.474 -5
      vertex 0.12 15.459 -5
      vertex 0.357 16.356 -5
    endloop
  endfacet
  facet normal 0 0 -1
    outer loop
      vertex 0 12.474 -5
      vertex 0.357 16.356 -5
      vertex 0.79 17.3 -5
    endloop
  endfacet
  facet normal 0 0 -1
    outer loop
      vertex 0 12.474 -5
      vertex 0.79 17.3 -5
      vertex 1.767 18.845 -5
    endloop
  endfacet
  facet normal 0 0 -1
    outer loop
      vertex 0 12.474 -5
      vertex 1.767 18.845 -5
      vertex 3.125 20.339 -5
    endloop
  endfacet
  facet normal 0 0 -1
    outer loop
      vertex 0 12.474 -5
      vertex 3.125 20.339 -5
      vertex 4.727 21.646 -5
    endloop
  endfacet
  facet normal 0 0 -1
    outer loop
      vertex 0 12.474 -5
      vertex 4.727 21.646 -5
      vertex 6.434 22.634 -5
    endloop
  endfacet
  facet normal 0 0 -1
    outer loop
      vertex 0 12.474 -5
      vertex 6.434 22.634 -5
      vertex 7.428 23.038 -5
    endloop
  endfacet
  facet normal 0 0 -1
    outer loop
      vertex 0 12.474 -5
      vertex 7.428 23.038 -5
      vertex 8.84 23.491 -5
    endloop
  endfacet
  facet normal 0 0 -1
    outer loop
      vertex 0 12.474 -5
      vertex 8.84 23.491 -5
      vertex 10.475 23.941 -5
    endloop
  endfacet
  facet normal 0 0 -1
    outer loop
      vertex 0 12.474 -5
      vertex 10.475 23.941 -5
      vertex 12.135 24.328 -5
    endloop
  endfacet
  facet normal 0 0 -1
    outer loop
      vertex 0 12.474 -5
      vertex 12.135 24.328 -5
      vertex 17.46 25.56 -5
    endloop
  endfacet
  facet normal 0 0 -1
    outer loop
      vertex 0 12.474 -5
      vertex 17.46 25.56 -5
      vertex 21.036 26.585 -5
    endloop
  endfacet
  facet normal 0 0 -1
    outer loop
      vertex 21.036 26.585 -5
      vertex 23.378 27.59 -5
      vertex 0 12.474 -5
    endloop
  endfacet
  facet normal 0 0 -1
    outer loop
      vertex 23.378 27.59 -5
      vertex 32.173 32.37 -5
      vertex 0 12.474 -5
    endloop
  endfacet
  facet normal 0 0 -1
    outer loop
      vertex 26.841 31.688 -5
      vertex 29.606 39.595 -5
      vertex 26.497 30.657 -5
    endloop
  endfacet
  facet normal 0 0 -1
    outer loop
      vertex 1.271 30.536 -5
      vertex 7.196 33.697 -5
      vertex 6.798 32.403 -5
    endloop
  endfacet
  facet normal 0 0 -1
    outer loop
      vertex 8.657 36.27 -5
      vertex 1.271 30.536 -5
      vertex 10.84 38.104 -5
    endloop
  endfacet
  facet normal 0 0 -1
    outer loop
      vertex 1.271 30.536 -5
      vertex 6.633 31.383 -5
      vertex 6.633 30.536 -5
    endloop
  endfacet
  facet normal 0 0 -1
    outer loop
      vertex 23.024 21.876 -5
      vertex 27.135 23.464 -5
      vertex 25.301 22.656 -5
    endloop
  endfacet
  facet normal 0 0 -1
    outer loop
      vertex 7.196 33.697 -5
      vertex 1.271 30.536 -5
      vertex 8.657 36.27 -5
    endloop
  endfacet
  facet normal 0 0 -1
    outer loop
      vertex 1.271 30.536 -5
      vertex 1.271 31.61 -5
      vertex 10.84 38.104 -5
    endloop
  endfacet
  facet normal 0 0 -1
    outer loop
      vertex 10.84 38.104 -5
      vertex 1.271 31.61 -5
      vertex 1.382 32.763 -5
    endloop
  endfacet
  facet normal 0 0 -1
    outer loop
      vertex 10.84 38.104 -5
      vertex 1.382 32.763 -5
      vertex 1.665 34.064 -5
    endloop
  endfacet
  facet normal 0 0 -1
    outer loop
      vertex 10.84 38.104 -5
      vertex 1.665 34.064 -5
      vertex 3.321 37.968 -5
    endloop
  endfacet
  facet normal 0 0 -1
    outer loop
      vertex 10.84 38.104 -5
      vertex 3.321 37.968 -5
      vertex 13.749 39.202 -5
    endloop
  endfacet
  facet normal 0 0 -1
    outer loop
      vertex 13.749 39.202 -5
      vertex 3.321 37.968 -5
      vertex 5.966 40.965 -5
    endloop
  endfacet
  facet normal 0 0 -1
    outer loop
      vertex 13.749 39.202 -5
      vertex 5.966 40.965 -5
      vertex 17.385 39.568 -5
    endloop
  endfacet
  facet normal 0 0 -1
    outer loop
      vertex 17.385 39.568 -5
      vertex 5.966 40.965 -5
      vertex 9.535 43.01 -5
    endloop
  endfacet
  facet normal 0 0 -1
    outer loop
      vertex 17.385 39.568 -5
      vertex 9.535 43.01 -5
      vertex 21.281 39.083 -5
    endloop
  endfacet
  facet normal 0 0 -1
    outer loop
      vertex 21.281 39.083 -5
      vertex 9.535 43.01 -5
      vertex 13.971 44.055 -5
    endloop
  endfacet
  facet normal 0 0 -1
    outer loop
      vertex 21.281 39.083 -5
      vertex 13.971 44.055 -5
      vertex 24.295 37.713 -5
    endloop
  endfacet
  facet normal 0 0 -1
    outer loop
      vertex 24.295 37.713 -5
      vertex 13.971 44.055 -5
      vertex 14.793 44.155 -5
    endloop
  endfacet
  facet normal 0 0 -1
    outer loop
      vertex 24.295 37.713 -5
      vertex 14.793 44.155 -5
      vertex 15.475 44.239 -5
    endloop
  endfacet
  facet normal 0 0 -1
    outer loop
      vertex 15.475 44.239 -5
      vertex 15.941 44.303 -5
      vertex 24.295 37.713 -5
    endloop
  endfacet
  facet normal 0 0 -1
    outer loop
      vertex 15.941 44.303 -5
      vertex 16.115 44.337 -5
      vertex 24.295 37.713 -5
    endloop
  endfacet
  facet normal 0 0 -1
    outer loop
      vertex 24.295 37.713 -5
      vertex 16.115 44.337 -5
      vertex 16.359 44.318 -5
    endloop
  endfacet
  facet normal 0 0 -1
    outer loop
      vertex 24.295 37.713 -5
      vertex 16.359 44.318 -5
      vertex 16.986 44.264 -5
    endloop
  endfacet
  facet normal 0 0 -1
    outer loop
      vertex 24.295 37.713 -5
      vertex 16.986 44.264 -5
      vertex 17.905 44.183 -5
    endloop
  endfacet
  facet normal 0 0 -1
    outer loop
      vertex 24.295 37.713 -5
      vertex 17.905 44.183 -5
      vertex 19.022 44.084 -5
    endloop
  endfacet
  facet normal 0 0 -1
    outer loop
      vertex 24.295 37.713 -5
      vertex 19.022 44.084 -5
      vertex 26.246 35.592 -5
    endloop
  endfacet
  facet normal 0 0 -1
    outer loop
      vertex 26.246 35.592 -5
      vertex 19.022 44.084 -5
      vertex 22.382 43.53 -5
    endloop
  endfacet
  facet normal 0 0 -1
    outer loop
      vertex 26.246 35.592 -5
      vertex 22.382 43.53 -5
      vertex 25.224 42.613 -5
    endloop
  endfacet
  facet normal 0 0 -1
    outer loop
      vertex 26.246 35.592 -5
      vertex 25.224 42.613 -5
      vertex 26.952 32.851 -5
    endloop
  endfacet
  facet normal 0 0 -1
    outer loop
      vertex 26.952 32.851 -5
      vertex 25.224 42.613 -5
      vertex 27.609 41.31 -5
    endloop
  endfacet
  facet normal 0 0 -1
    outer loop
      vertex 26.952 32.851 -5
      vertex 27.609 41.31 -5
      vertex 29.606 39.595 -5
    endloop
  endfacet
  facet normal 0 0 -1
    outer loop
      vertex 26.952 32.851 -5
      vertex 29.606 39.595 -5
      vertex 26.841 31.688 -5
    endloop
  endfacet
  facet normal 0 0 -1
    outer loop
      vertex 26.497 30.657 -5
      vertex 29.606 39.595 -5
      vertex 30.9 38.019 -5
    endloop
  endfacet
  facet normal 0 0 -1
    outer loop
      vertex 26.497 30.657 -5
      vertex 30.9 38.019 -5
      vertex 31.683 36.502 -5
    endloop
  endfacet
  facet normal 0 0 -1
    outer loop
      vertex 26.497 30.657 -5
      vertex 31.683 36.502 -5
      vertex 25.892 29.701 -5
    endloop
  endfacet
  facet normal 0 0 -1
    outer loop
      vertex 25.892 29.701 -5
      vertex 31.683 36.502 -5
      vertex 32.068 34.727 -5
    endloop
  endfacet
  facet normal 0 0 -1
    outer loop
      vertex 25.892 29.701 -5
      vertex 32.068 34.727 -5
      vertex 25.005 28.758 -5
    endloop
  endfacet
  facet normal 0 0 -1
    outer loop
      vertex 25.005 28.758 -5
      vertex 32.068 34.727 -5
      vertex 32.173 32.37 -5
    endloop
  endfacet
  facet normal 0 0 -1
    outer loop
      vertex 25.005 28.758 -5
      vertex 32.173 32.37 -5
      vertex 23.378 27.59 -5
    endloop
  endfacet
  facet normal 0 0 -1
    outer loop
      vertex 8.996 17.837 -5
      vertex 32.173 32.37 -5
      vertex 32.148 30.65 -5
    endloop
  endfacet
  facet normal 0 0 -1
    outer loop
      vertex 12.179 19.029 -5
      vertex 32.148 30.65 -5
      vertex 32.042 29.507 -5
    endloop
  endfacet
  facet normal 0 0 -1
    outer loop
      vertex 16.877 20.264 -5
      vertex 31.383 27.657 -5
      vertex 30.65 26.396 -5
    endloop
  endfacet
  facet normal 0 0 -1
    outer loop
      vertex 12.179 19.029 -5
      vertex 31.804 28.616 -5
      vertex 31.383 27.657 -5
    endloop
  endfacet
  facet normal 0 0 -1
    outer loop
      vertex 20.238 21.091 -5
      vertex 29.744 25.301 -5
      vertex 28.594 24.333 -5
    endloop
  endfacet
  facet normal 0 0 -1
    outer loop
      vertex 23.024 21.876 -5
      vertex 28.594 24.333 -5
      vertex 27.135 23.464 -5
    endloop
  endfacet
  facet normal 0 0 -1
    outer loop
      vertex 20.238 21.091 -5
      vertex 28.594 24.333 -5
      vertex 23.024 21.876 -5
    endloop
  endfacet
  facet normal 0 0 -1
    outer loop
      vertex 12.179 19.029 -5
      vertex 31.383 27.657 -5
      vertex 16.877 20.264 -5
    endloop
  endfacet
  facet normal 0 0 -1
    outer loop
      vertex 16.877 20.264 -5
      vertex 30.65 26.396 -5
      vertex 29.744 25.301 -5
    endloop
  endfacet
  facet normal 0 0 -1
    outer loop
      vertex 12.179 19.029 -5
      vertex 32.042 29.507 -5
      vertex 31.804 28.616 -5
    endloop
  endfacet
  facet normal 0 0 -1
    outer loop
      vertex 8.996 17.837 -5
      vertex 32.148 30.65 -5
      vertex 12.179 19.029 -5
    endloop
  endfacet
  facet normal 0 0 -1
    outer loop
      vertex 0 12.474 -5
      vertex 32.173 32.37 -5
      vertex 8.996 17.837 -5
    endloop
  endfacet
  facet normal 0 0 -1
    outer loop
      vertex 5.814 14.901 -5
      vertex 0 12.474 -5
      vertex 6.987 16.517 -5
    endloop
  endfacet
  facet normal 0 0 -1
    outer loop
      vertex 0 12.474 -5
      vertex 8.996 17.837 -5
      vertex 6.987 16.517 -5
    endloop
  endfacet
  facet normal 0 0 -1
    outer loop
      vertex 5.395 13.647 -5
      vertex 0 12.474 -5
      vertex 5.814 14.901 -5
    endloop
  endfacet
  facet normal 0 0 -1
    outer loop
      vertex 16.877 20.264 -5
      vertex 29.744 25.301 -5
      vertex 20.238 21.091 -5
    endloop
  endfacet
  facet normal 0 0 -1
    outer loop
      vertex 33.726 14.731 -5
      vertex 28.25 13.377 -5
      vertex 28.448 14.731 -5
    endloop
  endfacet
  facet normal 0 0 -1
    outer loop
      vertex 5.395 13.647 -5
      vertex 5.245 12.227 -5
      vertex 0 12.474 -5
    endloop
  endfacet
  facet normal 0 0 -1
    outer loop
      vertex 5.245 12.227 -5
      vertex 5.365 10.798 -5
      vertex 0 12.474 -5
    endloop
  endfacet
  facet normal 0 0 -1
    outer loop
      vertex 5.365 10.798 -5
      vertex 5.757 9.511 -5
      vertex 0 12.474 -5
    endloop
  endfacet
  facet normal 0 0 -1
    outer loop
      vertex 5.757 9.511 -5
      vertex 7.273 7.466 -5
      vertex 0 12.474 -5
    endloop
  endfacet
  facet normal 0 0 -1
    outer loop
      vertex 7.273 7.466 -5
      vertex 16.793 0 -5
      vertex 0 12.474 -5
    endloop
  endfacet
  facet normal 0 0 -1
    outer loop
      vertex 27.014 9.752 -5
      vertex 33.726 14.731 -5
      vertex 24.499 6.976 -5
    endloop
  endfacet
  facet normal 0 0 -1
    outer loop
      vertex 28.25 13.377 -5
      vertex 33.726 14.731 -5
      vertex 27.014 9.752 -5
    endloop
  endfacet
  facet normal 0 0 -1
    outer loop
      vertex 24.499 6.976 -5
      vertex 33.726 14.731 -5
      vertex 33.726 13.801 -5
    endloop
  endfacet
  facet normal 0 0 -1
    outer loop
      vertex 24.499 6.976 -5
      vertex 33.726 13.801 -5
      vertex 33.598 12.652 -5
    endloop
  endfacet
  facet normal 0 0 -1
    outer loop
      vertex 24.499 6.976 -5
      vertex 33.598 12.652 -5
      vertex 33.302 11.203 -5
    endloop
  endfacet
  facet normal 0 0 -1
    outer loop
      vertex 24.499 6.976 -5
      vertex 33.302 11.203 -5
      vertex 20.912 5.199 -5
    endloop
  endfacet
  facet normal 0 0 -1
    outer loop
      vertex 20.912 5.199 -5
      vertex 33.302 11.203 -5
      vertex 31.193 6.354 -5
    endloop
  endfacet
  facet normal 0 0 -1
    outer loop
      vertex 20.912 5.199 -5
      vertex 31.193 6.354 -5
      vertex 16.454 4.572 -5
    endloop
  endfacet
  facet normal 0 0 -1
    outer loop
      vertex 16.454 4.572 -5
      vertex 31.193 6.354 -5
      vertex 27.723 2.861 -5
    endloop
  endfacet
  facet normal 0 0 -1
    outer loop
      vertex 16.454 4.572 -5
      vertex 27.723 2.861 -5
      vertex 12.794 4.92 -5
    endloop
  endfacet
  facet normal 0 0 -1
    outer loop
      vertex 12.794 4.92 -5
      vertex 27.723 2.861 -5
      vertex 22.915 0.739 -5
    endloop
  endfacet
  facet normal 0 0 -1
    outer loop
      vertex 12.794 4.92 -5
      vertex 22.915 0.739 -5
      vertex 9.677 5.909 -5
    endloop
  endfacet
  facet normal 0 0 -1
    outer loop
      vertex 9.677 5.909 -5
      vertex 22.915 0.739 -5
      vertex 16.793 0 -5
    endloop
  endfacet
  facet normal 0 0 -1
    outer loop
      vertex 9.677 5.909 -5
      vertex 16.793 0 -5
      vertex 7.273 7.466 -5
    endloop
  endfacet
  facet normal 0 0 -1
    outer loop
      vertex 0 12.474 -5
      vertex 16.793 0 -5
      vertex 11.368 0.491 -5
    endloop
  endfacet
  facet normal 0 0 -1
    outer loop
      vertex 0 12.474 -5
      vertex 11.368 0.491 -5
      vertex 6.794 1.958 -5
    endloop
  endfacet
  facet normal 0 0 -1
    outer loop
      vertex 0 12.474 -5
      vertex 6.794 1.958 -5
      vertex 3.226 4.33 -5
    endloop
  endfacet
  facet normal 0 0 -1
    outer loop
      vertex 0 12.474 -5
      vertex 3.226 4.33 -5
      vertex 0.819 7.535 -5
    endloop
  endfacet
  facet normal 0 0 -1
    outer loop
      vertex 0 12.474 -5
      vertex 0.819 7.535 -5
      vertex 0.368 8.549 -5
    endloop
  endfacet
  facet normal 0 0 -1
    outer loop
      vertex 0 12.474 -5
      vertex 0.368 8.549 -5
      vertex 0.123 9.466 -5
    endloop
  endfacet
  facet normal 0 0 -1
    outer loop
      vertex 0 12.474 -5
      vertex 0.123 9.466 -5
      vertex 0.021 10.651 -5
    endloop
  endfacet
  facet normal 0.996493 0.0836803 0
    outer loop
      vertex 5.245 12.227 -5
      vertex 5.245 12.227 5
      vertex 5.365 10.798 5
    endloop
  endfacet
  facet normal 0.996493 0.0836803 0
    outer loop
      vertex 5.365 10.798 -5
      vertex 5.245 12.227 -5
      vertex 5.365 10.798 5
    endloop
  endfacet
  facet normal 0 0 1
    outer loop
      vertex 0 12.474 5
      vertex 0.021 10.651 5
      vertex 0.123 9.466 5
    endloop
  endfacet
  facet normal 0 0 1
    outer loop
      vertex 0.819 7.535 5
      vertex 0 12.474 5
      vertex 0.368 8.549 5
    endloop
  endfacet
  facet normal 0 0 1
    outer loop
      vertex 0.368 8.549 5
      vertex 0 12.474 5
      vertex 0.123 9.466 5
    endloop
  endfacet
  facet normal 0 0 1
    outer loop
      vertex 3.226 4.33 5
      vertex 0 12.474 5
      vertex 0.819 7.535 5
    endloop
  endfacet
  facet normal 0 0 1
    outer loop
      vertex 6.794 1.958 5
      vertex 0 12.474 5
      vertex 3.226 4.33 5
    endloop
  endfacet
  facet normal 0 0 1
    outer loop
      vertex 11.368 0.491 5
      vertex 0 12.474 5
      vertex 6.794 1.958 5
    endloop
  endfacet
  facet normal 0 0 1
    outer loop
      vertex 16.793 0 5
      vertex 0 12.474 5
      vertex 11.368 0.491 5
    endloop
  endfacet
  facet normal 0 0 1
    outer loop
      vertex 7.273 7.466 5
      vertex 0 12.474 5
      vertex 16.793 0 5
    endloop
  endfacet
  facet normal 0 0 1
    outer loop
      vertex 7.273 7.466 5
      vertex 5.757 9.511 5
      vertex 0 12.474 5
    endloop
  endfacet
  facet normal 0 0 1
    outer loop
      vertex 24.499 6.976 5
      vertex 20.912 5.199 5
      vertex 27.723 2.861 5
    endloop
  endfacet
  facet normal 0 0 1
    outer loop
      vertex 0.79 17.3 5
      vertex 0.357 16.356 5
      vertex 0 12.474 5
    endloop
  endfacet
  facet normal 0 0 1
    outer loop
      vertex 28.25 13.377 5
      vertex 33.302 11.203 5
      vertex 33.598 12.652 5
    endloop
  endfacet
  facet normal 0 0 1
    outer loop
      vertex 33.726 13.801 5
      vertex 28.25 13.377 5
      vertex 33.598 12.652 5
    endloop
  endfacet
  facet normal 0 0 1
    outer loop
      vertex 33.302 11.203 5
      vertex 27.014 9.752 5
      vertex 31.193 6.354 5
    endloop
  endfacet
  facet normal 0 0 1
    outer loop
      vertex 31.193 6.354 5
      vertex 24.499 6.976 5
      vertex 27.723 2.861 5
    endloop
  endfacet
  facet normal 0 0 1
    outer loop
      vertex 27.723 2.861 5
      vertex 20.912 5.199 5
      vertex 22.915 0.739 5
    endloop
  endfacet
  facet normal 0 0 1
    outer loop
      vertex 5.365 10.798 5
      vertex 5.245 12.227 5
      vertex 0 12.474 5
    endloop
  endfacet
  facet normal 0 0 1
    outer loop
      vertex 20.912 5.199 5
      vertex 16.454 4.572 5
      vertex 22.915 0.739 5
    endloop
  endfacet
  facet normal 0 0 1
    outer loop
      vertex 22.915 0.739 5
      vertex 12.794 4.92 5
      vertex 16.793 0 5
    endloop
  endfacet
  facet normal 0 0 1
    outer loop
      vertex 12.794 4.92 5
      vertex 9.677 5.909 5
      vertex 16.793 0 5
    endloop
  endfacet
  facet normal 0 0 1
    outer loop
      vertex 9.677 5.909 5
      vertex 7.273 7.466 5
      vertex 16.793 0 5
    endloop
  endfacet
  facet normal 0 0 1
    outer loop
      vertex 5.757 9.511 5
      vertex 5.365 10.798 5
      vertex 0 12.474 5
    endloop
  endfacet
  facet normal 0 0 1
    outer loop
      vertex 16.454 4.572 5
      vertex 12.794 4.92 5
      vertex 22.915 0.739 5
    endloop
  endfacet
  facet normal 0 0 1
    outer loop
      vertex 5.245 12.227 5
      vertex 5.395 13.647 5
      vertex 0 12.474 5
    endloop
  endfacet
  facet normal 0 0 1
    outer loop
      vertex 27.014 9.752 5
      vertex 24.499 6.976 5
      vertex 31.193 6.354 5
    endloop
  endfacet
  facet normal 0 0 1
    outer loop
      vertex 5.814 14.901 5
      vertex 0 12.474 5
      vertex 5.395 13.647 5
    endloop
  endfacet
  facet normal 0 0 1
    outer loop
      vertex 6.987 16.517 5
      vertex 0 12.474 5
      vertex 5.814 14.901 5
    endloop
  endfacet
  facet normal 0 0 1
    outer loop
      vertex 8.996 17.837 5
      vertex 0 12.474 5
      vertex 6.987 16.517 5
    endloop
  endfacet
  facet normal 0 0 1
    outer loop
      vertex 32.173 32.37 5
      vertex 0 12.474 5
      vertex 8.996 17.837 5
    endloop
  endfacet
  facet normal 0 0 1
    outer loop
      vertex 30.65 26.396 5
      vertex 8.996 17.837 5
      vertex 12.179 19.029 5
    endloop
  endfacet
  facet normal 0 0 1
    outer loop
      vertex 25.301 22.656 5
      vertex 12.179 19.029 5
      vertex 16.877 20.264 5
    endloop
  endfacet
  facet normal 0 0 1
    outer loop
      vertex 23.024 21.876 5
      vertex 16.877 20.264 5
      vertex 20.238 21.091 5
    endloop
  endfacet
  facet normal 0 0 1
    outer loop
      vertex 25.301 22.656 5
      vertex 16.877 20.264 5
      vertex 23.024 21.876 5
    endloop
  endfacet
  facet normal 0 0 1
    outer loop
      vertex 27.135 23.464 5
      vertex 12.179 19.029 5
      vertex 25.301 22.656 5
    endloop
  endfacet
  facet normal 0 0 1
    outer loop
      vertex 28.594 24.333 5
      vertex 12.179 19.029 5
      vertex 27.135 23.464 5
    endloop
  endfacet
  facet normal 0 0 1
    outer loop
      vertex 29.744 25.301 5
      vertex 12.179 19.029 5
      vertex 28.594 24.333 5
    endloop
  endfacet
  facet normal 0 0 1
    outer loop
      vertex 30.65 26.396 5
      vertex 12.179 19.029 5
      vertex 29.744 25.301 5
    endloop
  endfacet
  facet normal 0 0 1
    outer loop
      vertex 31.383 27.657 5
      vertex 8.996 17.837 5
      vertex 30.65 26.396 5
    endloop
  endfacet
  facet normal 0 0 1
    outer loop
      vertex 31.804 28.616 5
      vertex 8.996 17.837 5
      vertex 31.383 27.657 5
    endloop
  endfacet
  facet normal 0 0 1
    outer loop
      vertex 32.042 29.507 5
      vertex 8.996 17.837 5
      vertex 31.804 28.616 5
    endloop
  endfacet
  facet normal 0 0 1
    outer loop
      vertex 32.148 30.65 5
      vertex 8.996 17.837 5
      vertex 32.042 29.507 5
    endloop
  endfacet
  facet normal 0 0 1
    outer loop
      vertex 32.173 32.37 5
      vertex 8.996 17.837 5
      vertex 32.148 30.65 5
    endloop
  endfacet
  facet normal 0 0 1
    outer loop
      vertex 23.378 27.59 5
      vertex 0 12.474 5
      vertex 32.173 32.37 5
    endloop
  endfacet
  facet normal 0 0 1
    outer loop
      vertex 26.841 31.688 5
      vertex 26.497 30.657 5
      vertex 32.068 34.727 5
    endloop
  endfacet
  facet normal 0 0 1
    outer loop
      vertex 23.378 27.59 5
      vertex 21.036 26.585 5
      vertex 0 12.474 5
    endloop
  endfacet
  facet normal 0 0 1
    outer loop
      vertex 26.246 35.592 5
      vertex 31.683 36.502 5
      vertex 30.9 38.019 5
    endloop
  endfacet
  facet normal 0 0 1
    outer loop
      vertex 10.475 23.941 5
      vertex 8.84 23.491 5
      vertex 0 12.474 5
    endloop
  endfacet
  facet normal 0 0 1
    outer loop
      vertex 17.385 39.568 5
      vertex 21.281 39.083 5
      vertex 22.382 43.53 5
    endloop
  endfacet
  facet normal 0 0 1
    outer loop
      vertex 21.281 39.083 5
      vertex 27.609 41.31 5
      vertex 25.224 42.613 5
    endloop
  endfacet
  facet normal 0 0 1
    outer loop
      vertex 13.749 39.202 5
      vertex 17.905 44.183 5
      vertex 16.986 44.264 5
    endloop
  endfacet
  facet normal 0 0 1
    outer loop
      vertex 13.749 39.202 5
      vertex 19.022 44.084 5
      vertex 17.905 44.183 5
    endloop
  endfacet
  facet normal 0 0 1
    outer loop
      vertex 13.749 39.202 5
      vertex 17.385 39.568 5
      vertex 19.022 44.084 5
    endloop
  endfacet
  facet normal 0 0 1
    outer loop
      vertex 10.84 38.104 5
      vertex 15.941 44.303 5
      vertex 15.475 44.239 5
    endloop
  endfacet
  facet normal 0 0 1
    outer loop
      vertex 10.84 38.104 5
      vertex 13.749 39.202 5
      vertex 16.359 44.318 5
    endloop
  endfacet
  facet normal 0 0 1
    outer loop
      vertex 1.767 18.845 5
      vertex 0.79 17.3 5
      vertex 0 12.474 5
    endloop
  endfacet
  facet normal 0 0 1
    outer loop
      vertex 1.382 32.763 5
      vertex 1.271 30.536 5
      vertex 1.665 34.064 5
    endloop
  endfacet
  facet normal 0 0 1
    outer loop
      vertex 10.84 38.104 5
      vertex 14.793 44.155 5
      vertex 13.971 44.055 5
    endloop
  endfacet
  facet normal 0 0 1
    outer loop
      vertex 8.657 36.27 5
      vertex 10.84 38.104 5
      vertex 13.971 44.055 5
    endloop
  endfacet
  facet normal 0 0 1
    outer loop
      vertex 7.196 33.697 5
      vertex 8.657 36.27 5
      vertex 9.535 43.01 5
    endloop
  endfacet
  facet normal 0 0 1
    outer loop
      vertex 10.84 38.104 5
      vertex 15.475 44.239 5
      vertex 14.793 44.155 5
    endloop
  endfacet
  facet normal 0 0 1
    outer loop
      vertex 9.535 43.01 5
      vertex 6.798 32.403 5
      vertex 7.196 33.697 5
    endloop
  endfacet
  facet normal 0 0 1
    outer loop
      vertex 9.535 43.01 5
      vertex 8.657 36.27 5
      vertex 13.971 44.055 5
    endloop
  endfacet
  facet normal 0 0 1
    outer loop
      vertex 3.125 20.339 5
      vertex 1.767 18.845 5
      vertex 0 12.474 5
    endloop
  endfacet
  facet normal 0 0 1
    outer loop
      vertex 16.359 44.318 5
      vertex 13.749 39.202 5
      vertex 16.986 44.264 5
    endloop
  endfacet
  facet normal 0 0 1
    outer loop
      vertex 6.434 22.634 5
      vertex 4.727 21.646 5
      vertex 0 12.474 5
    endloop
  endfacet
  facet normal 0 0 1
    outer loop
      vertex 19.022 44.084 5
      vertex 17.385 39.568 5
      vertex 22.382 43.53 5
    endloop
  endfacet
  facet normal 0 0 1
    outer loop
      vertex 22.382 43.53 5
      vertex 21.281 39.083 5
      vertex 25.224 42.613 5
    endloop
  endfacet
  facet normal 0 0 1
    outer loop
      vertex 27.609 41.31 5
      vertex 24.295 37.713 5
      vertex 29.606 39.595 5
    endloop
  endfacet
  facet normal 0 0 1
    outer loop
      vertex 29.606 39.595 5
      vertex 26.246 35.592 5
      vertex 30.9 38.019 5
    endloop
  endfacet
  facet normal 0 0 1
    outer loop
      vertex 12.135 24.328 5
      vertex 10.475 23.941 5
      vertex 0 12.474 5
    endloop
  endfacet
  facet normal 0 0 1
    outer loop
      vertex 31.683 36.502 5
      vertex 26.952 32.851 5
      vertex 32.068 34.727 5
    endloop
  endfacet
  facet normal 0 0 1
    outer loop
      vertex 26.952 32.851 5
      vertex 26.841 31.688 5
      vertex 32.068 34.727 5
    endloop
  endfacet
  facet normal 0 0 1
    outer loop
      vertex 32.068 34.727 5
      vertex 26.497 30.657 5
      vertex 32.173 32.37 5
    endloop
  endfacet
  facet normal 0 0 1
    outer loop
      vertex 26.497 30.657 5
      vertex 25.892 29.701 5
      vertex 32.173 32.37 5
    endloop
  endfacet
  facet normal 0 0 1
    outer loop
      vertex 25.892 29.701 5
      vertex 25.005 28.758 5
      vertex 32.173 32.37 5
    endloop
  endfacet
  facet normal 0 0 1
    outer loop
      vertex 25.005 28.758 5
      vertex 23.378 27.59 5
      vertex 32.173 32.37 5
    endloop
  endfacet
  facet normal 0 0 1
    outer loop
      vertex 21.036 26.585 5
      vertex 17.46 25.56 5
      vertex 0 12.474 5
    endloop
  endfacet
  facet normal 0 0 1
    outer loop
      vertex 17.46 25.56 5
      vertex 12.135 24.328 5
      vertex 0 12.474 5
    endloop
  endfacet
  facet normal 0 0 1
    outer loop
      vertex 4.727 21.646 5
      vertex 3.125 20.339 5
      vertex 0 12.474 5
    endloop
  endfacet
  facet normal 0 0 1
    outer loop
      vertex 26.246 35.592 5
      vertex 26.952 32.851 5
      vertex 31.683 36.502 5
    endloop
  endfacet
  facet normal 0 0 1
    outer loop
      vertex 8.84 23.491 5
      vertex 7.428 23.038 5
      vertex 0 12.474 5
    endloop
  endfacet
  facet normal 0 0 1
    outer loop
      vertex 24.295 37.713 5
      vertex 26.246 35.592 5
      vertex 29.606 39.595 5
    endloop
  endfacet
  facet normal 0 0 1
    outer loop
      vertex 7.428 23.038 5
      vertex 6.434 22.634 5
      vertex 0 12.474 5
    endloop
  endfacet
  facet normal 0 0 1
    outer loop
      vertex 21.281 39.083 5
      vertex 24.295 37.713 5
      vertex 27.609 41.31 5
    endloop
  endfacet
  facet normal 0 0 1
    outer loop
      vertex 0.357 16.356 5
      vertex 0.12 15.459 5
      vertex 0 12.474 5
    endloop
  endfacet
  facet normal 0 0 1
    outer loop
      vertex 10.84 38.104 5
      vertex 16.115 44.337 5
      vertex 15.941 44.303 5
    endloop
  endfacet
  facet normal 0 0 1
    outer loop
      vertex 10.84 38.104 5
      vertex 16.359 44.318 5
      vertex 16.115 44.337 5
    endloop
  endfacet
  facet normal 0 0 1
    outer loop
      vertex 0.019 14.277 5
      vertex 0 12.474 5
      vertex 0.12 15.459 5
    endloop
  endfacet
  facet normal 0 0 1
    outer loop
      vertex 1.271 31.61 5
      vertex 1.271 30.536 5
      vertex 1.382 32.763 5
    endloop
  endfacet
  facet normal 0 0 1
    outer loop
      vertex 28.448 14.731 5
      vertex 33.726 13.801 5
      vertex 33.726 14.731 5
    endloop
  endfacet
  facet normal 0 0 1
    outer loop
      vertex 28.448 14.731 5
      vertex 28.25 13.377 5
      vertex 33.726 13.801 5
    endloop
  endfacet
  facet normal 0 0 1
    outer loop
      vertex 28.25 13.377 5
      vertex 27.014 9.752 5
      vertex 33.302 11.203 5
    endloop
  endfacet
  facet normal 0 0 1
    outer loop
      vertex 1.271 30.536 5
      vertex 3.321 37.968 5
      vertex 1.665 34.064 5
    endloop
  endfacet
  facet normal 0 0 1
    outer loop
      vertex 1.271 30.536 5
      vertex 5.966 40.965 5
      vertex 3.321 37.968 5
    endloop
  endfacet
  facet normal 0 0 1
    outer loop
      vertex 1.271 30.536 5
      vertex 9.535 43.01 5
      vertex 5.966 40.965 5
    endloop
  endfacet
  facet normal 0 0 1
    outer loop
      vertex 1.271 30.536 5
      vertex 6.798 32.403 5
      vertex 9.535 43.01 5
    endloop
  endfacet
  facet normal 0 0 1
    outer loop
      vertex 1.271 30.536 5
      vertex 6.633 31.383 5
      vertex 6.798 32.403 5
    endloop
  endfacet
  facet normal 0 0 1
    outer loop
      vertex 1.271 30.536 5
      vertex 6.633 30.536 5
      vertex 6.633 31.383 5
    endloop
  endfacet
  facet normal 0.809277 -0.587427 0
    outer loop
      vertex 5.814 14.901 -5
      vertex 6.987 16.517 -5
      vertex 6.987 16.517 5
    endloop
  endfacet
  facet normal 0.809277 -0.587427 0
    outer loop
      vertex 5.814 14.901 5
      vertex 5.814 14.901 -5
      vertex 6.987 16.517 5
    endloop
  endfacet
  facet normal -0.999934 -0.0115187 0
    outer loop
      vertex 0.021 10.651 -5
      vertex 0.021 10.651 5
      vertex 0 12.474 -5
    endloop
  endfacet
  facet normal -0.999934 -0.0115187 0
    outer loop
      vertex 0 12.474 -5
      vertex 0.021 10.651 5
      vertex 0 12.474 5
    endloop
  endfacet
  facet normal -0.999944 0.0105374 0
    outer loop
      vertex 0 12.474 5
      vertex 0.019 14.277 5
      vertex 0 12.474 -5
    endloop
  endfacet
  facet normal -0.999944 0.0105374 0
    outer loop
      vertex 0 12.474 -5
      vertex 0.019 14.277 5
      vertex 0.019 14.277 -5
    endloop
  endfacet
  facet normal -0.996316 -0.0857588 0
    outer loop
      vertex 0.123 9.466 -5
      vertex 0.123 9.466 5
      vertex 0.021 10.651 -5
    endloop
  endfacet
  facet normal -0.996316 -0.0857588 0
    outer loop
      vertex 0.021 10.651 -5
      vertex 0.123 9.466 5
      vertex 0.021 10.651 5
    endloop
  endfacet
  facet normal -0.966112 -0.258122 0
    outer loop
      vertex 0.368 8.549 -5
      vertex 0.368 8.549 5
      vertex 0.123 9.466 -5
    endloop
  endfacet
  facet normal -0.966112 -0.258122 0
    outer loop
      vertex 0.123 9.466 -5
      vertex 0.368 8.549 5
      vertex 0.123 9.466 5
    endloop
  endfacet
  facet normal -0.9137 -0.406389 0
    outer loop
      vertex 0.819 7.535 -5
      vertex 0.819 7.535 5
      vertex 0.368 8.549 -5
    endloop
  endfacet
  facet normal -0.9137 -0.406389 0
    outer loop
      vertex 0.368 8.549 -5
      vertex 0.819 7.535 5
      vertex 0.368 8.549 5
    endloop
  endfacet
  facet normal -0.799611 -0.600519 0
    outer loop
      vertex 3.226 4.33 -5
      vertex 3.226 4.33 5
      vertex 0.819 7.535 -5
    endloop
  endfacet
  facet normal -0.799611 -0.600519 0
    outer loop
      vertex 0.819 7.535 -5
      vertex 3.226 4.33 5
      vertex 0.819 7.535 5
    endloop
  endfacet
  facet normal -0.553623 -0.832768 0
    outer loop
      vertex 3.226 4.33 -5
      vertex 6.794 1.958 -5
      vertex 6.794 1.958 5
    endloop
  endfacet
  facet normal -0.553623 -0.832768 0
    outer loop
      vertex 3.226 4.33 5
      vertex 3.226 4.33 -5
      vertex 6.794 1.958 5
    endloop
  endfacet
  facet normal -0.305403 -0.952223 0
    outer loop
      vertex 6.794 1.958 -5
      vertex 11.368 0.491 -5
      vertex 11.368 0.491 5
    endloop
  endfacet
  facet normal -0.305403 -0.952223 0
    outer loop
      vertex 6.794 1.958 5
      vertex 6.794 1.958 -5
      vertex 11.368 0.491 5
    endloop
  endfacet
  facet normal -0.0901385 -0.995929 0
    outer loop
      vertex 11.368 0.491 -5
      vertex 16.793 0 -5
      vertex 16.793 0 5
    endloop
  endfacet
  facet normal -0.0901385 -0.995929 0
    outer loop
      vertex 11.368 0.491 5
      vertex 11.368 0.491 -5
      vertex 16.793 0 5
    endloop
  endfacet
  facet normal 0.119842 -0.992793 0
    outer loop
      vertex 16.793 0 -5
      vertex 22.915 0.739 -5
      vertex 22.915 0.739 5
    endloop
  endfacet
  facet normal 0.119842 -0.992793 0
    outer loop
      vertex 16.793 0 5
      vertex 16.793 0 -5
      vertex 22.915 0.739 5
    endloop
  endfacet
  facet normal 0.403771 -0.91486 0
    outer loop
      vertex 22.915 0.739 -5
      vertex 27.723 2.861 -5
      vertex 27.723 2.861 5
    endloop
  endfacet
  facet normal 0.403771 -0.91486 0
    outer loop
      vertex 22.915 0.739 5
      vertex 22.915 0.739 -5
      vertex 27.723 2.861 5
    endloop
  endfacet
  facet normal 0.709439 -0.704767 0
    outer loop
      vertex 27.723 2.861 -5
      vertex 31.193 6.354 -5
      vertex 31.193 6.354 5
    endloop
  endfacet
  facet normal 0.709439 -0.704767 0
    outer loop
      vertex 27.723 2.861 5
      vertex 27.723 2.861 -5
      vertex 31.193 6.354 5
    endloop
  endfacet
  facet normal 0.917019 -0.398844 0
    outer loop
      vertex 31.193 6.354 -5
      vertex 33.302 11.203 -5
      vertex 33.302 11.203 5
    endloop
  endfacet
  facet normal 0.917019 -0.398844 0
    outer loop
      vertex 31.193 6.354 5
      vertex 31.193 6.354 -5
      vertex 33.302 11.203 5
    endloop
  endfacet
  facet normal 0.979766 -0.200145 0
    outer loop
      vertex 33.302 11.203 -5
      vertex 33.598 12.652 -5
      vertex 33.598 12.652 5
    endloop
  endfacet
  facet normal 0.979766 -0.200145 0
    outer loop
      vertex 33.302 11.203 5
      vertex 33.302 11.203 -5
      vertex 33.598 12.652 5
    endloop
  endfacet
  facet normal 0.993852 -0.110716 0
    outer loop
      vertex 33.598 12.652 -5
      vertex 33.726 13.801 -5
      vertex 33.726 13.801 5
    endloop
  endfacet
  facet normal 0.993852 -0.110716 0
    outer loop
      vertex 33.598 12.652 5
      vertex 33.598 12.652 -5
      vertex 33.726 13.801 5
    endloop
  endfacet
  facet normal 1 0 0
    outer loop
      vertex 33.726 13.801 -5
      vertex 33.726 14.731 -5
      vertex 33.726 14.731 5
    endloop
  endfacet
  facet normal 1 0 0
    outer loop
      vertex 33.726 13.801 5
      vertex 33.726 13.801 -5
      vertex 33.726 14.731 5
    endloop
  endfacet
  facet normal 0 1 0
    outer loop
      vertex 28.448 14.731 5
      vertex 33.726 14.731 5
      vertex 28.448 14.731 -5
    endloop
  endfacet
  facet normal 0 1 0
    outer loop
      vertex 28.448 14.731 -5
      vertex 33.726 14.731 5
      vertex 33.726 14.731 -5
    endloop
  endfacet
  facet normal -0.989476 0.144694 0
    outer loop
      vertex 28.25 13.377 5
      vertex 28.448 14.731 5
      vertex 28.25 13.377 -5
    endloop
  endfacet
  facet normal -0.989476 0.144694 0
    outer loop
      vertex 28.25 13.377 -5
      vertex 28.448 14.731 5
      vertex 28.448 14.731 -5
    endloop
  endfacet
  facet normal -0.946494 0.322722 0
    outer loop
      vertex 27.014 9.752 5
      vertex 28.25 13.377 5
      vertex 27.014 9.752 -5
    endloop
  endfacet
  facet normal -0.946494 0.322722 0
    outer loop
      vertex 27.014 9.752 -5
      vertex 28.25 13.377 5
      vertex 28.25 13.377 -5
    endloop
  endfacet
  facet normal -0.741087 0.671409 0
    outer loop
      vertex 24.499 6.976 5
      vertex 27.014 9.752 5
      vertex 24.499 6.976 -5
    endloop
  endfacet
  facet normal -0.741087 0.671409 0
    outer loop
      vertex 24.499 6.976 -5
      vertex 27.014 9.752 5
      vertex 27.014 9.752 -5
    endloop
  endfacet
  facet normal -0.443913 0.89607 0
    outer loop
      vertex 20.912 5.199 5
      vertex 24.499 6.976 5
      vertex 20.912 5.199 -5
    endloop
  endfacet
  facet normal -0.443913 0.89607 0
    outer loop
      vertex 20.912 5.199 -5
      vertex 24.499 6.976 5
      vertex 24.499 6.976 -5
    endloop
  endfacet
  facet normal -0.139275 0.990254 0
    outer loop
      vertex 16.454 4.572 5
      vertex 20.912 5.199 5
      vertex 16.454 4.572 -5
    endloop
  endfacet
  facet normal -0.139275 0.990254 0
    outer loop
      vertex 16.454 4.572 -5
      vertex 20.912 5.199 5
      vertex 20.912 5.199 -5
    endloop
  endfacet
  facet normal 0.0946551 0.99551 0
    outer loop
      vertex 12.794 4.92 5
      vertex 16.454 4.572 5
      vertex 12.794 4.92 -5
    endloop
  endfacet
  facet normal 0.0946551 0.99551 0
    outer loop
      vertex 12.794 4.92 -5
      vertex 16.454 4.572 5
      vertex 16.454 4.572 -5
    endloop
  endfacet
  facet normal 0.302434 0.95317 0
    outer loop
      vertex 9.677 5.909 5
      vertex 12.794 4.92 5
      vertex 9.677 5.909 -5
    endloop
  endfacet
  facet normal 0.302434 0.95317 0
    outer loop
      vertex 9.677 5.909 -5
      vertex 12.794 4.92 5
      vertex 12.794 4.92 -5
    endloop
  endfacet
  facet normal 0.543613 0.839336 0
    outer loop
      vertex 7.273 7.466 5
      vertex 9.677 5.909 5
      vertex 7.273 7.466 -5
    endloop
  endfacet
  facet normal 0.543613 0.839336 0
    outer loop
      vertex 7.273 7.466 -5
      vertex 9.677 5.909 5
      vertex 9.677 5.909 -5
    endloop
  endfacet
  facet normal 0.803334 0.595528 0
    outer loop
      vertex 5.757 9.511 -5
      vertex 5.757 9.511 5
      vertex 7.273 7.466 5
    endloop
  endfacet
  facet normal 0.803334 0.595528 0
    outer loop
      vertex 7.273 7.466 -5
      vertex 5.757 9.511 -5
      vertex 7.273 7.466 5
    endloop
  endfacet
  facet normal 0.956611 0.291369 0
    outer loop
      vertex 5.365 10.798 -5
      vertex 5.365 10.798 5
      vertex 5.757 9.511 5
    endloop
  endfacet
  facet normal 0.956611 0.291369 0
    outer loop
      vertex 5.757 9.511 -5
      vertex 5.365 10.798 -5
      vertex 5.757 9.511 5
    endloop
  endfacet
  facet normal 0.54912 -0.835744 0
    outer loop
      vertex 6.987 16.517 -5
      vertex 8.996 17.837 -5
      vertex 8.996 17.837 5
    endloop
  endfacet
  facet normal 0.54912 -0.835744 0
    outer loop
      vertex 6.987 16.517 5
      vertex 6.987 16.517 -5
      vertex 8.996 17.837 5
    endloop
  endfacet
  facet normal 0.350704 -0.936486 0
    outer loop
      vertex 8.996 17.837 -5
      vertex 12.179 19.029 -5
      vertex 12.179 19.029 5
    endloop
  endfacet
  facet normal 0.350704 -0.936486 0
    outer loop
      vertex 8.996 17.837 5
      vertex 8.996 17.837 -5
      vertex 12.179 19.029 5
    endloop
  endfacet
  facet normal 0.25424 -0.967141 0
    outer loop
      vertex 12.179 19.029 -5
      vertex 16.877 20.264 -5
      vertex 16.877 20.264 5
    endloop
  endfacet
  facet normal 0.25424 -0.967141 0
    outer loop
      vertex 12.179 19.029 5
      vertex 12.179 19.029 -5
      vertex 16.877 20.264 5
    endloop
  endfacet
  facet normal 0.238931 -0.971037 0
    outer loop
      vertex 16.877 20.264 -5
      vertex 20.238 21.091 -5
      vertex 20.238 21.091 5
    endloop
  endfacet
  facet normal 0.238931 -0.971037 0
    outer loop
      vertex 16.877 20.264 5
      vertex 16.877 20.264 -5
      vertex 20.238 21.091 5
    endloop
  endfacet
  facet normal 0.271206 -0.962521 0
    outer loop
      vertex 20.238 21.091 -5
      vertex 23.024 21.876 -5
      vertex 23.024 21.876 5
    endloop
  endfacet
  facet normal 0.271206 -0.962521 0
    outer loop
      vertex 20.238 21.091 5
      vertex 20.238 21.091 -5
      vertex 23.024 21.876 5
    endloop
  endfacet
  facet normal 0.324069 -0.946033 0
    outer loop
      vertex 23.024 21.876 -5
      vertex 25.301 22.656 -5
      vertex 25.301 22.656 5
    endloop
  endfacet
  facet normal 0.324069 -0.946033 0
    outer loop
      vertex 23.024 21.876 5
      vertex 23.024 21.876 -5
      vertex 25.301 22.656 5
    endloop
  endfacet
  facet normal 0.403173 -0.915124 0
    outer loop
      vertex 25.301 22.656 -5
      vertex 27.135 23.464 -5
      vertex 27.135 23.464 5
    endloop
  endfacet
  facet normal 0.403173 -0.915124 0
    outer loop
      vertex 25.301 22.656 5
      vertex 25.301 22.656 -5
      vertex 27.135 23.464 5
    endloop
  endfacet
  facet normal 0.511722 -0.859151 0
    outer loop
      vertex 27.135 23.464 -5
      vertex 28.594 24.333 -5
      vertex 28.594 24.333 5
    endloop
  endfacet
  facet normal 0.511722 -0.859151 0
    outer loop
      vertex 27.135 23.464 5
      vertex 27.135 23.464 -5
      vertex 28.594 24.333 5
    endloop
  endfacet
  facet normal 0.643972 -0.765049 0
    outer loop
      vertex 28.594 24.333 -5
      vertex 29.744 25.301 -5
      vertex 29.744 25.301 5
    endloop
  endfacet
  facet normal 0.643972 -0.765049 0
    outer loop
      vertex 28.594 24.333 5
      vertex 28.594 24.333 -5
      vertex 29.744 25.301 5
    endloop
  endfacet
  facet normal 0.770466 -0.637481 0
    outer loop
      vertex 29.744 25.301 -5
      vertex 30.65 26.396 -5
      vertex 30.65 26.396 5
    endloop
  endfacet
  facet normal 0.770466 -0.637481 0
    outer loop
      vertex 29.744 25.301 5
      vertex 29.744 25.301 -5
      vertex 30.65 26.396 5
    endloop
  endfacet
  facet normal 0.864549 -0.502549 0
    outer loop
      vertex 30.65 26.396 -5
      vertex 31.383 27.657 -5
      vertex 31.383 27.657 5
    endloop
  endfacet
  facet normal 0.864549 -0.502549 0
    outer loop
      vertex 30.65 26.396 5
      vertex 30.65 26.396 -5
      vertex 31.383 27.657 5
    endloop
  endfacet
  facet normal 0.915653 -0.401971 0
    outer loop
      vertex 31.383 27.657 -5
      vertex 31.804 28.616 -5
      vertex 31.804 28.616 5
    endloop
  endfacet
  facet normal 0.915653 -0.401971 0
    outer loop
      vertex 31.383 27.657 5
      vertex 31.383 27.657 -5
      vertex 31.804 28.616 5
    endloop
  endfacet
  facet normal 0.966127 -0.258068 0
    outer loop
      vertex 31.804 28.616 -5
      vertex 32.042 29.507 -5
      vertex 32.042 29.507 5
    endloop
  endfacet
  facet normal 0.966127 -0.258068 0
    outer loop
      vertex 31.804 28.616 5
      vertex 31.804 28.616 -5
      vertex 32.042 29.507 5
    endloop
  endfacet
  facet normal 0.995727 -0.0923422 0
    outer loop
      vertex 32.042 29.507 -5
      vertex 32.148 30.65 -5
      vertex 32.148 30.65 5
    endloop
  endfacet
  facet normal 0.995727 -0.0923422 0
    outer loop
      vertex 32.042 29.507 5
      vertex 32.042 29.507 -5
      vertex 32.148 30.65 5
    endloop
  endfacet
  facet normal 0.999894 -0.0145333 0
    outer loop
      vertex 32.148 30.65 -5
      vertex 32.173 32.37 -5
      vertex 32.173 32.37 5
    endloop
  endfacet
  facet normal 0.999894 -0.0145333 0
    outer loop
      vertex 32.148 30.65 5
      vertex 32.148 30.65 -5
      vertex 32.173 32.37 5
    endloop
  endfacet
  facet normal 0.999009 0.044504 0
    outer loop
      vertex 32.068 34.727 -5
      vertex 32.068 34.727 5
      vertex 32.173 32.37 5
    endloop
  endfacet
  facet normal 0.999009 0.044504 0
    outer loop
      vertex 32.173 32.37 -5
      vertex 32.068 34.727 -5
      vertex 32.173 32.37 5
    endloop
  endfacet
  facet normal 0.977276 0.211972 0
    outer loop
      vertex 31.683 36.502 -5
      vertex 31.683 36.502 5
      vertex 32.068 34.727 5
    endloop
  endfacet
  facet normal 0.977276 0.211972 0
    outer loop
      vertex 32.068 34.727 -5
      vertex 31.683 36.502 -5
      vertex 32.068 34.727 5
    endloop
  endfacet
  facet normal 0.888613 0.458658 0
    outer loop
      vertex 30.9 38.019 -5
      vertex 30.9 38.019 5
      vertex 31.683 36.502 5
    endloop
  endfacet
  facet normal 0.888613 0.458658 0
    outer loop
      vertex 31.683 36.502 -5
      vertex 30.9 38.019 -5
      vertex 31.683 36.502 5
    endloop
  endfacet
  facet normal 0.772864 0.634572 0
    outer loop
      vertex 29.606 39.595 -5
      vertex 29.606 39.595 5
      vertex 30.9 38.019 5
    endloop
  endfacet
  facet normal 0.772864 0.634572 0
    outer loop
      vertex 30.9 38.019 -5
      vertex 29.606 39.595 -5
      vertex 30.9 38.019 5
    endloop
  endfacet
  facet normal 0.651511 0.758639 0
    outer loop
      vertex 27.609 41.31 5
      vertex 29.606 39.595 5
      vertex 27.609 41.31 -5
    endloop
  endfacet
  facet normal 0.651511 0.758639 0
    outer loop
      vertex 27.609 41.31 -5
      vertex 29.606 39.595 5
      vertex 29.606 39.595 -5
    endloop
  endfacet
  facet normal 0.479445 0.877572 0
    outer loop
      vertex 25.224 42.613 5
      vertex 27.609 41.31 5
      vertex 25.224 42.613 -5
    endloop
  endfacet
  facet normal 0.479445 0.877572 0
    outer loop
      vertex 25.224 42.613 -5
      vertex 27.609 41.31 5
      vertex 27.609 41.31 -5
    endloop
  endfacet
  facet normal 0.307071 0.951687 0
    outer loop
      vertex 22.382 43.53 5
      vertex 25.224 42.613 5
      vertex 22.382 43.53 -5
    endloop
  endfacet
  facet normal 0.307071 0.951687 0
    outer loop
      vertex 22.382 43.53 -5
      vertex 25.224 42.613 5
      vertex 25.224 42.613 -5
    endloop
  endfacet
  facet normal 0.162684 0.986678 0
    outer loop
      vertex 19.022 44.084 5
      vertex 22.382 43.53 5
      vertex 19.022 44.084 -5
    endloop
  endfacet
  facet normal 0.162684 0.986678 0
    outer loop
      vertex 19.022 44.084 -5
      vertex 22.382 43.53 5
      vertex 22.382 43.53 -5
    endloop
  endfacet
  facet normal 0.0882842 0.996095 0
    outer loop
      vertex 17.905 44.183 5
      vertex 19.022 44.084 5
      vertex 17.905 44.183 -5
    endloop
  endfacet
  facet normal 0.0882842 0.996095 0
    outer loop
      vertex 17.905 44.183 -5
      vertex 19.022 44.084 5
      vertex 19.022 44.084 -5
    endloop
  endfacet
  facet normal 0.0877989 0.996138 0
    outer loop
      vertex 16.986 44.264 5
      vertex 17.905 44.183 5
      vertex 16.986 44.264 -5
    endloop
  endfacet
  facet normal 0.0877989 0.996138 0
    outer loop
      vertex 16.986 44.264 -5
      vertex 17.905 44.183 5
      vertex 17.905 44.183 -5
    endloop
  endfacet
  facet normal 0.0858068 0.996312 0
    outer loop
      vertex 16.359 44.318 5
      vertex 16.986 44.264 5
      vertex 16.359 44.318 -5
    endloop
  endfacet
  facet normal 0.0858068 0.996312 0
    outer loop
      vertex 16.359 44.318 -5
      vertex 16.986 44.264 5
      vertex 16.986 44.264 -5
    endloop
  endfacet
  facet normal 0.0776338 0.996982 0
    outer loop
      vertex 16.115 44.337 5
      vertex 16.359 44.318 5
      vertex 16.115 44.337 -5
    endloop
  endfacet
  facet normal 0.0776338 0.996982 0
    outer loop
      vertex 16.115 44.337 -5
      vertex 16.359 44.318 5
      vertex 16.359 44.318 -5
    endloop
  endfacet
  facet normal -0.191775 0.981439 0
    outer loop
      vertex 15.941 44.303 5
      vertex 16.115 44.337 5
      vertex 15.941 44.303 -5
    endloop
  endfacet
  facet normal -0.191775 0.981439 0
    outer loop
      vertex 15.941 44.303 -5
      vertex 16.115 44.337 5
      vertex 16.115 44.337 -5
    endloop
  endfacet
  facet normal -0.136062 0.9907 0
    outer loop
      vertex 15.475 44.239 5
      vertex 15.941 44.303 5
      vertex 15.475 44.239 -5
    endloop
  endfacet
  facet normal -0.136062 0.9907 0
    outer loop
      vertex 15.475 44.239 -5
      vertex 15.941 44.303 5
      vertex 15.941 44.303 -5
    endloop
  endfacet
  facet normal -0.122243 0.9925 0
    outer loop
      vertex 14.793 44.155 5
      vertex 15.475 44.239 5
      vertex 14.793 44.155 -5
    endloop
  endfacet
  facet normal -0.122243 0.9925 0
    outer loop
      vertex 14.793 44.155 -5
      vertex 15.475 44.239 5
      vertex 15.475 44.239 -5
    endloop
  endfacet
  facet normal -0.120764 0.992681 0
    outer loop
      vertex 13.971 44.055 5
      vertex 14.793 44.155 5
      vertex 13.971 44.055 -5
    endloop
  endfacet
  facet normal -0.120764 0.992681 0
    outer loop
      vertex 13.971 44.055 -5
      vertex 14.793 44.155 5
      vertex 14.793 44.155 -5
    endloop
  endfacet
  facet normal -0.229296 0.973357 0
    outer loop
      vertex 9.535 43.01 5
      vertex 13.971 44.055 5
      vertex 9.535 43.01 -5
    endloop
  endfacet
  facet normal -0.229296 0.973357 0
    outer loop
      vertex 9.535 43.01 -5
      vertex 13.971 44.055 5
      vertex 13.971 44.055 -5
    endloop
  endfacet
  facet normal -0.49716 0.867659 0
    outer loop
      vertex 5.966 40.965 5
      vertex 9.535 43.01 5
      vertex 5.966 40.965 -5
    endloop
  endfacet
  facet normal -0.49716 0.867659 0
    outer loop
      vertex 5.966 40.965 -5
      vertex 9.535 43.01 5
      vertex 9.535 43.01 -5
    endloop
  endfacet
  facet normal -0.749765 0.661704 0
    outer loop
      vertex 3.321 37.968 5
      vertex 5.966 40.965 5
      vertex 3.321 37.968 -5
    endloop
  endfacet
  facet normal -0.749765 0.661704 0
    outer loop
      vertex 3.321 37.968 -5
      vertex 5.966 40.965 5
      vertex 5.966 40.965 -5
    endloop
  endfacet
  facet normal -0.920602 0.390501 0
    outer loop
      vertex 1.665 34.064 5
      vertex 3.321 37.968 5
      vertex 1.665 34.064 -5
    endloop
  endfacet
  facet normal -0.920602 0.390501 0
    outer loop
      vertex 1.665 34.064 -5
      vertex 3.321 37.968 5
      vertex 3.321 37.968 -5
    endloop
  endfacet
  facet normal -0.977149 0.212554 0
    outer loop
      vertex 1.382 32.763 5
      vertex 1.665 34.064 5
      vertex 1.382 32.763 -5
    endloop
  endfacet
  facet normal -0.977149 0.212554 0
    outer loop
      vertex 1.382 32.763 -5
      vertex 1.665 34.064 5
      vertex 1.665 34.064 -5
    endloop
  endfacet
  facet normal -0.995398 0.0958276 0
    outer loop
      vertex 1.271 31.61 5
      vertex 1.382 32.763 5
      vertex 1.271 31.61 -5
    endloop
  endfacet
  facet normal -0.995398 0.0958276 0
    outer loop
      vertex 1.271 31.61 -5
      vertex 1.382 32.763 5
      vertex 1.382 32.763 -5
    endloop
  endfacet
  facet normal -1 0 0
    outer loop
      vertex 1.271 30.536 5
      vertex 1.271 31.61 5
      vertex 1.271 30.536 -5
    endloop
  endfacet
  facet normal -1 0 0
    outer loop
      vertex 1.271 30.536 -5
      vertex 1.271 31.61 5
      vertex 1.271 31.61 -5
    endloop
  endfacet
  facet normal 0 -1 0
    outer loop
      vertex 1.271 30.536 -5
      vertex 6.633 30.536 -5
      vertex 6.633 30.536 5
    endloop
  endfacet
  facet normal 0 -1 0
    outer loop
      vertex 1.271 30.536 5
      vertex 1.271 30.536 -5
      vertex 6.633 30.536 5
    endloop
  endfacet
  facet normal 1 0 0
    outer loop
      vertex 6.633 30.536 -5
      vertex 6.633 31.383 -5
      vertex 6.633 31.383 5
    endloop
  endfacet
  facet normal 1 0 0
    outer loop
      vertex 6.633 30.536 5
      vertex 6.633 30.536 -5
      vertex 6.633 31.383 5
    endloop
  endfacet
  facet normal 0.987167 -0.159689 0
    outer loop
      vertex 6.633 31.383 -5
      vertex 6.798 32.403 -5
      vertex 6.798 32.403 5
    endloop
  endfacet
  facet normal 0.987167 -0.159689 0
    outer loop
      vertex 6.633 31.383 5
      vertex 6.633 31.383 -5
      vertex 6.798 32.403 5
    endloop
  endfacet
  facet normal 0.955811 -0.293982 0
    outer loop
      vertex 6.798 32.403 -5
      vertex 7.196 33.697 -5
      vertex 7.196 33.697 5
    endloop
  endfacet
  facet normal 0.955811 -0.293982 0
    outer loop
      vertex 6.798 32.403 5
      vertex 6.798 32.403 -5
      vertex 7.196 33.697 5
    endloop
  endfacet
  facet normal 0.869592 -0.493771 0
    outer loop
      vertex 7.196 33.697 -5
      vertex 8.657 36.27 -5
      vertex 8.657 36.27 5
    endloop
  endfacet
  facet normal 0.869592 -0.493771 0
    outer loop
      vertex 7.196 33.697 5
      vertex 7.196 33.697 -5
      vertex 8.657 36.27 5
    endloop
  endfacet
  facet normal 0.64325 -0.765656 0
    outer loop
      vertex 8.657 36.27 -5
      vertex 10.84 38.104 -5
      vertex 10.84 38.104 5
    endloop
  endfacet
  facet normal 0.64325 -0.765656 0
    outer loop
      vertex 8.657 36.27 5
      vertex 8.657 36.27 -5
      vertex 10.84 38.104 5
    endloop
  endfacet
  facet normal 0.353132 -0.935574 0
    outer loop
      vertex 10.84 38.104 -5
      vertex 13.749 39.202 -5
      vertex 13.749 39.202 5
    endloop
  endfacet
  facet normal 0.353132 -0.935574 0
    outer loop
      vertex 10.84 38.104 5
      vertex 10.84 38.104 -5
      vertex 13.749 39.202 5
    endloop
  endfacet
  facet normal 0.100154 -0.994972 0
    outer loop
      vertex 13.749 39.202 -5
      vertex 17.385 39.568 -5
      vertex 17.385 39.568 5
    endloop
  endfacet
  facet normal 0.100154 -0.994972 0
    outer loop
      vertex 13.749 39.202 5
      vertex 13.749 39.202 -5
      vertex 17.385 39.568 5
    endloop
  endfacet
  facet normal -0.123533 -0.99234 0
    outer loop
      vertex 17.385 39.568 -5
      vertex 21.281 39.083 -5
      vertex 21.281 39.083 5
    endloop
  endfacet
  facet normal -0.123533 -0.99234 0
    outer loop
      vertex 17.385 39.568 5
      vertex 17.385 39.568 -5
      vertex 21.281 39.083 5
    endloop
  endfacet
  facet normal -0.413803 -0.910366 0
    outer loop
      vertex 21.281 39.083 -5
      vertex 24.295 37.713 -5
      vertex 24.295 37.713 5
    endloop
  endfacet
  facet normal -0.413803 -0.910366 0
    outer loop
      vertex 21.281 39.083 5
      vertex 21.281 39.083 -5
      vertex 24.295 37.713 5
    endloop
  endfacet
  facet normal -0.735986 -0.676996 0
    outer loop
      vertex 26.246 35.592 -5
      vertex 26.246 35.592 5
      vertex 24.295 37.713 -5
    endloop
  endfacet
  facet normal -0.735986 -0.676996 0
    outer loop
      vertex 24.295 37.713 -5
      vertex 26.246 35.592 5
      vertex 24.295 37.713 5
    endloop
  endfacet
  facet normal -0.968393 -0.249429 0
    outer loop
      vertex 26.952 32.851 -5
      vertex 26.952 32.851 5
      vertex 26.246 35.592 -5
    endloop
  endfacet
  facet normal -0.968393 -0.249429 0
    outer loop
      vertex 26.246 35.592 -5
      vertex 26.952 32.851 5
      vertex 26.246 35.592 5
    endloop
  endfacet
  facet normal -0.995476 0.0950111 0
    outer loop
      vertex 26.841 31.688 5
      vertex 26.952 32.851 5
      vertex 26.841 31.688 -5
    endloop
  endfacet
  facet normal -0.995476 0.0950111 0
    outer loop
      vertex 26.841 31.688 -5
      vertex 26.952 32.851 5
      vertex 26.952 32.851 -5
    endloop
  endfacet
  facet normal -0.948591 0.316504 0
    outer loop
      vertex 26.497 30.657 5
      vertex 26.841 31.688 5
      vertex 26.497 30.657 -5
    endloop
  endfacet
  facet normal -0.948591 0.316504 0
    outer loop
      vertex 26.497 30.657 -5
      vertex 26.841 31.688 5
      vertex 26.841 31.688 -5
    endloop
  endfacet
  facet normal -0.845005 0.534758 0
    outer loop
      vertex 25.892 29.701 5
      vertex 26.497 30.657 5
      vertex 25.892 29.701 -5
    endloop
  endfacet
  facet normal -0.845005 0.534758 0
    outer loop
      vertex 25.892 29.701 -5
      vertex 26.497 30.657 5
      vertex 26.497 30.657 -5
    endloop
  endfacet
  facet normal -0.728404 0.685148 0
    outer loop
      vertex 25.005 28.758 5
      vertex 25.892 29.701 5
      vertex 25.005 28.758 -5
    endloop
  endfacet
  facet normal -0.728404 0.685148 0
    outer loop
      vertex 25.005 28.758 -5
      vertex 25.892 29.701 5
      vertex 25.892 29.701 -5
    endloop
  endfacet
  facet normal -0.583173 0.812348 0
    outer loop
      vertex 23.378 27.59 5
      vertex 25.005 28.758 5
      vertex 23.378 27.59 -5
    endloop
  endfacet
  facet normal -0.583173 0.812348 0
    outer loop
      vertex 23.378 27.59 -5
      vertex 25.005 28.758 5
      vertex 25.005 28.758 -5
    endloop
  endfacet
  facet normal -0.394345 0.918962 0
    outer loop
      vertex 21.036 26.585 5
      vertex 23.378 27.59 5
      vertex 21.036 26.585 -5
    endloop
  endfacet
  facet normal -0.394345 0.918962 0
    outer loop
      vertex 21.036 26.585 -5
      vertex 23.378 27.59 5
      vertex 23.378 27.59 -5
    endloop
  endfacet
  facet normal -0.275538 0.96129 0
    outer loop
      vertex 17.46 25.56 5
      vertex 21.036 26.585 5
      vertex 17.46 25.56 -5
    endloop
  endfacet
  facet normal -0.275538 0.96129 0
    outer loop
      vertex 17.46 25.56 -5
      vertex 21.036 26.585 5
      vertex 21.036 26.585 -5
    endloop
  endfacet
  facet normal -0.225407 0.974265 0
    outer loop
      vertex 12.135 24.328 5
      vertex 17.46 25.56 5
      vertex 12.135 24.328 -5
    endloop
  endfacet
  facet normal -0.225407 0.974265 0
    outer loop
      vertex 12.135 24.328 -5
      vertex 17.46 25.56 5
      vertex 17.46 25.56 -5
    endloop
  endfacet
  facet normal -0.227044 0.973884 0
    outer loop
      vertex 10.475 23.941 5
      vertex 12.135 24.328 5
      vertex 10.475 23.941 -5
    endloop
  endfacet
  facet normal -0.227044 0.973884 0
    outer loop
      vertex 10.475 23.941 -5
      vertex 12.135 24.328 5
      vertex 12.135 24.328 -5
    endloop
  endfacet
  facet normal -0.265362 0.964149 0
    outer loop
      vertex 8.84 23.491 5
      vertex 10.475 23.941 5
      vertex 8.84 23.491 -5
    endloop
  endfacet
  facet normal -0.265362 0.964149 0
    outer loop
      vertex 8.84 23.491 -5
      vertex 10.475 23.941 5
      vertex 10.475 23.941 -5
    endloop
  endfacet
  facet normal -0.305485 0.952197 0
    outer loop
      vertex 7.428 23.038 5
      vertex 8.84 23.491 5
      vertex 7.428 23.038 -5
    endloop
  endfacet
  facet normal -0.305485 0.952197 0
    outer loop
      vertex 7.428 23.038 -5
      vertex 8.84 23.491 5
      vertex 8.84 23.491 -5
    endloop
  endfacet
  facet normal -0.376527 0.926406 0
    outer loop
      vertex 6.434 22.634 5
      vertex 7.428 23.038 5
      vertex 6.434 22.634 -5
    endloop
  endfacet
  facet normal -0.376527 0.926406 0
    outer loop
      vertex 6.434 22.634 -5
      vertex 7.428 23.038 5
      vertex 7.428 23.038 -5
    endloop
  endfacet
  facet normal -0.500936 0.865484 0
    outer loop
      vertex 4.727 21.646 5
      vertex 6.434 22.634 5
      vertex 4.727 21.646 -5
    endloop
  endfacet
  facet normal -0.500936 0.865484 0
    outer loop
      vertex 4.727 21.646 -5
      vertex 6.434 22.634 5
      vertex 6.434 22.634 -5
    endloop
  endfacet
  facet normal -0.632157 0.77484 0
    outer loop
      vertex 3.125 20.339 5
      vertex 4.727 21.646 5
      vertex 3.125 20.339 -5
    endloop
  endfacet
  facet normal -0.632157 0.77484 0
    outer loop
      vertex 3.125 20.339 -5
      vertex 4.727 21.646 5
      vertex 4.727 21.646 -5
    endloop
  endfacet
  facet normal -0.739985 0.672623 0
    outer loop
      vertex 1.767 18.845 5
      vertex 3.125 20.339 5
      vertex 1.767 18.845 -5
    endloop
  endfacet
  facet normal -0.739985 0.672623 0
    outer loop
      vertex 1.767 18.845 -5
      vertex 3.125 20.339 5
      vertex 3.125 20.339 -5
    endloop
  endfacet
  facet normal -0.84519 0.534466 0
    outer loop
      vertex 0.79 17.3 5
      vertex 1.767 18.845 5
      vertex 0.79 17.3 -5
    endloop
  endfacet
  facet normal -0.84519 0.534466 0
    outer loop
      vertex 0.79 17.3 -5
      vertex 1.767 18.845 5
      vertex 1.767 18.845 -5
    endloop
  endfacet
  facet normal -0.908943 0.41692 0
    outer loop
      vertex 0.357 16.356 5
      vertex 0.79 17.3 5
      vertex 0.357 16.356 -5
    endloop
  endfacet
  facet normal -0.908943 0.41692 0
    outer loop
      vertex 0.357 16.356 -5
      vertex 0.79 17.3 5
      vertex 0.79 17.3 -5
    endloop
  endfacet
  facet normal -0.966823 0.255448 0
    outer loop
      vertex 0.12 15.459 5
      vertex 0.357 16.356 5
      vertex 0.12 15.459 -5
    endloop
  endfacet
  facet normal -0.966823 0.255448 0
    outer loop
      vertex 0.12 15.459 -5
      vertex 0.357 16.356 5
      vertex 0.357 16.356 -5
    endloop
  endfacet
  facet normal -0.996369 0.0851381 0
    outer loop
      vertex 0.019 14.277 5
      vertex 0.12 15.459 5
      vertex 0.019 14.277 -5
    endloop
  endfacet
  facet normal -0.996369 0.0851381 0
    outer loop
      vertex 0.019 14.277 -5
      vertex 0.12 15.459 5
      vertex 0.12 15.459 -5
    endloop
  endfacet
endsolid OpenSCAD_Model
