solid OpenSCAD_Model
  facet normal -0.999996 -0.0026743 0
    outer loop
      vertex 0.056 20.97 -5
      vertex 0.056 20.97 5
      vertex 0 41.91 -5
    endloop
  endfacet
  facet normal -0.999996 -0.0026743 0
    outer loop
      vertex 0 41.91 -5
      vertex 0.056 20.97 5
      vertex 0 41.91 5
    endloop
  endfacet
  facet normal 0 0 -1
    outer loop
      vertex 5.644 41.91 -5
      vertex 5.588 20.97 -5
      vertex 0 41.91 -5
    endloop
  endfacet
  facet normal 0 0 -1
    outer loop
      vertex 0 41.91 -5
      vertex 5.588 20.97 -5
      vertex 5.504 0 -5
    endloop
  endfacet
  facet normal 0 0 -1
    outer loop
      vertex 0 41.91 -5
      vertex 5.504 0 -5
      vertex 0.141 0 -5
    endloop
  endfacet
  facet normal 0 0 -1
    outer loop
      vertex 0 41.91 -5
      vertex 0.141 0 -5
      vertex 0.056 20.97 -5
    endloop
  endfacet
  facet normal 0 1 0
    outer loop
      vertex 0 41.91 5
      vertex 5.644 41.91 5
      vertex 0 41.91 -5
    endloop
  endfacet
  facet normal 0 1 0
    outer loop
      vertex 0 41.91 -5
      vertex 5.644 41.91 5
      vertex 5.644 41.91 -5
    endloop
  endfacet
  facet normal 0 0 1
    outer loop
      vertex 0 41.91 5
      vertex 0.056 20.97 5
      vertex 0.141 0 5
    endloop
  endfacet
  facet normal 0 0 1
    outer loop
      vertex 5.588 20.97 5
      vertex 0 41.91 5
      vertex 5.504 0 5
    endloop
  endfacet
  facet normal 0 0 1
    outer loop
      vertex 5.504 0 5
      vertex 0 41.91 5
      vertex 0.141 0 5
    endloop
  endfacet
  facet normal 0 0 1
    outer loop
      vertex 5.644 41.91 5
      vertex 0 41.91 5
      vertex 5.588 20.97 5
    endloop
  endfacet
  facet normal -0.999992 -0.00405338 0
    outer loop
      vertex 0.141 0 -5
      vertex 0.141 0 5
      vertex 0.056 20.97 -5
    endloop
  endfacet
  facet normal -0.999992 -0.00405338 0
    outer loop
      vertex 0.056 20.97 -5
      vertex 0.141 0 5
      vertex 0.056 20.97 5
    endloop
  endfacet
  facet normal 0 -1 0
    outer loop
      vertex 0.141 0 -5
      vertex 5.504 0 -5
      vertex 5.504 0 5
    endloop
  endfacet
  facet normal 0 -1 0
    outer loop
      vertex 0.141 0 5
      vertex 0.141 0 -5
      vertex 5.504 0 5
    endloop
  endfacet
  facet normal 0.999992 -0.00400569 0
    outer loop
      vertex 5.504 0 -5
      vertex 5.588 20.97 -5
      vertex 5.588 20.97 5
    endloop
  endfacet
  facet normal 0.999992 -0.00400569 0
    outer loop
      vertex 5.504 0 5
      vertex 5.504 0 -5
      vertex 5.588 20.97 5
    endloop
  endfacet
  facet normal 0.999996 -0.0026743 0
    outer loop
      vertex 5.588 20.97 -5
      vertex 5.644 41.91 -5
      vertex 5.644 41.91 5
    endloop
  endfacet
  facet normal 0.999996 -0.0026743 0
    outer loop
      vertex 5.588 20.97 5
      vertex 5.588 20.97 -5
      vertex 5.644 41.91 5
    endloop
  endfacet
  facet normal -0.999961 0.00879363 0
    outer loop
      vertex 0 53.566 5
      vertex 0.014 55.158 5
      vertex 0 53.566 -5
    endloop
  endfacet
  facet normal -0.999961 0.00879363 0
    outer loop
      vertex 0 53.566 -5
      vertex 0.014 55.158 5
      vertex 0.014 55.158 -5
    endloop
  endfacet
  facet normal -1 0 0
    outer loop
      vertex 0 49.531 5
      vertex 0 53.566 5
      vertex 0 49.531 -5
    endloop
  endfacet
  facet normal -1 0 0
    outer loop
      vertex 0 49.531 -5
      vertex 0 53.566 5
      vertex 0 53.566 -5
    endloop
  endfacet
  facet normal 0 0 -1
    outer loop
      vertex 0 53.566 -5
      vertex 0.014 55.158 -5
      vertex 0 49.531 -5
    endloop
  endfacet
  facet normal 0 0 -1
    outer loop
      vertex 0 49.531 -5
      vertex 0.014 55.158 -5
      vertex 0.055 56.491 -5
    endloop
  endfacet
  facet normal 0 0 -1
    outer loop
      vertex 0 49.531 -5
      vertex 0.055 56.491 -5
      vertex 0.119 57.428 -5
    endloop
  endfacet
  facet normal 0 0 -1
    outer loop
      vertex 0 49.531 -5
      vertex 0.119 57.428 -5
      vertex 0.197 57.828 -5
    endloop
  endfacet
  facet normal 0 0 -1
    outer loop
      vertex 0 49.531 -5
      vertex 0.197 57.828 -5
      vertex 0.478 57.898 -5
    endloop
  endfacet
  facet normal 0 0 -1
    outer loop
      vertex 0 49.531 -5
      vertex 0.478 57.898 -5
      vertex 1.093 57.938 -5
    endloop
  endfacet
  facet normal 0 0 -1
    outer loop
      vertex 0 49.531 -5
      vertex 1.093 57.938 -5
      vertex 1.95 57.952 -5
    endloop
  endfacet
  facet normal 0 0 -1
    outer loop
      vertex 0 49.531 -5
      vertex 1.95 57.952 -5
      vertex 2.963 57.941 -5
    endloop
  endfacet
  facet normal 0 0 -1
    outer loop
      vertex 0 49.531 -5
      vertex 2.963 57.941 -5
      vertex 5.504 57.856 -5
    endloop
  endfacet
  facet normal 0 0 -1
    outer loop
      vertex 0 49.531 -5
      vertex 5.504 57.856 -5
      vertex 5.588 53.708 -5
    endloop
  endfacet
  facet normal 0 0 -1
    outer loop
      vertex 0 49.531 -5
      vertex 5.588 53.708 -5
      vertex 5.672 49.531 -5
    endloop
  endfacet
  facet normal -0.999527 0.0307432 0
    outer loop
      vertex 0.014 55.158 5
      vertex 0.055 56.491 5
      vertex 0.014 55.158 -5
    endloop
  endfacet
  facet normal -0.999527 0.0307432 0
    outer loop
      vertex 0.014 55.158 -5
      vertex 0.055 56.491 5
      vertex 0.055 56.491 -5
    endloop
  endfacet
  facet normal 0 0 1
    outer loop
      vertex 0 49.531 5
      vertex 5.672 49.531 5
      vertex 5.588 53.708 5
    endloop
  endfacet
  facet normal 0 0 1
    outer loop
      vertex 2.963 57.941 5
      vertex 0 49.531 5
      vertex 5.504 57.856 5
    endloop
  endfacet
  facet normal 0 0 1
    outer loop
      vertex 5.504 57.856 5
      vertex 0 49.531 5
      vertex 5.588 53.708 5
    endloop
  endfacet
  facet normal 0 0 1
    outer loop
      vertex 1.95 57.952 5
      vertex 0 49.531 5
      vertex 2.963 57.941 5
    endloop
  endfacet
  facet normal 0 0 1
    outer loop
      vertex 1.093 57.938 5
      vertex 0 49.531 5
      vertex 1.95 57.952 5
    endloop
  endfacet
  facet normal 0 0 1
    outer loop
      vertex 0.478 57.898 5
      vertex 0 49.531 5
      vertex 1.093 57.938 5
    endloop
  endfacet
  facet normal 0 0 1
    outer loop
      vertex 0.197 57.828 5
      vertex 0 49.531 5
      vertex 0.478 57.898 5
    endloop
  endfacet
  facet normal 0 0 1
    outer loop
      vertex 0.119 57.428 5
      vertex 0 49.531 5
      vertex 0.197 57.828 5
    endloop
  endfacet
  facet normal 0 0 1
    outer loop
      vertex 0.055 56.491 5
      vertex 0 49.531 5
      vertex 0.119 57.428 5
    endloop
  endfacet
  facet normal 0 0 1
    outer loop
      vertex 0.014 55.158 5
      vertex 0 49.531 5
      vertex 0.055 56.491 5
    endloop
  endfacet
  facet normal 0 0 1
    outer loop
      vertex 0 53.566 5
      vertex 0 49.531 5
      vertex 0.014 55.158 5
    endloop
  endfacet
  facet normal 0 -1 0
    outer loop
      vertex 0 49.531 -5
      vertex 5.672 49.531 -5
      vertex 5.672 49.531 5
    endloop
  endfacet
  facet normal 0 -1 0
    outer loop
      vertex 0 49.531 5
      vertex 0 49.531 -5
      vertex 5.672 49.531 5
    endloop
  endfacet
  facet normal 0.999798 0.0201061 0
    outer loop
      vertex 5.588 53.708 -5
      vertex 5.588 53.708 5
      vertex 5.672 49.531 5
    endloop
  endfacet
  facet normal 0.999798 0.0201061 0
    outer loop
      vertex 5.672 49.531 -5
      vertex 5.588 53.708 -5
      vertex 5.672 49.531 5
    endloop
  endfacet
  facet normal 0.999795 0.0202466 0
    outer loop
      vertex 5.504 57.856 -5
      vertex 5.504 57.856 5
      vertex 5.588 53.708 5
    endloop
  endfacet
  facet normal 0.999795 0.0202466 0
    outer loop
      vertex 5.588 53.708 -5
      vertex 5.504 57.856 -5
      vertex 5.588 53.708 5
    endloop
  endfacet
  facet normal 0.0334327 0.999441 0
    outer loop
      vertex 2.963 57.941 5
      vertex 5.504 57.856 5
      vertex 2.963 57.941 -5
    endloop
  endfacet
  facet normal 0.0334327 0.999441 0
    outer loop
      vertex 2.963 57.941 -5
      vertex 5.504 57.856 5
      vertex 5.504 57.856 -5
    endloop
  endfacet
  facet normal 0.0108582 0.999941 0
    outer loop
      vertex 1.95 57.952 5
      vertex 2.963 57.941 5
      vertex 1.95 57.952 -5
    endloop
  endfacet
  facet normal 0.0108582 0.999941 0
    outer loop
      vertex 1.95 57.952 -5
      vertex 2.963 57.941 5
      vertex 2.963 57.941 -5
    endloop
  endfacet
  facet normal -0.0163339 0.999867 0
    outer loop
      vertex 1.093 57.938 5
      vertex 1.95 57.952 5
      vertex 1.093 57.938 -5
    endloop
  endfacet
  facet normal -0.0163339 0.999867 0
    outer loop
      vertex 1.093 57.938 -5
      vertex 1.95 57.952 5
      vertex 1.95 57.952 -5
    endloop
  endfacet
  facet normal -0.0649035 0.997892 0
    outer loop
      vertex 0.478 57.898 5
      vertex 1.093 57.938 5
      vertex 0.478 57.898 -5
    endloop
  endfacet
  facet normal -0.0649035 0.997892 0
    outer loop
      vertex 0.478 57.898 -5
      vertex 1.093 57.938 5
      vertex 1.093 57.938 -5
    endloop
  endfacet
  facet normal -0.241723 0.970345 0
    outer loop
      vertex 0.197 57.828 5
      vertex 0.478 57.898 5
      vertex 0.197 57.828 -5
    endloop
  endfacet
  facet normal -0.241723 0.970345 0
    outer loop
      vertex 0.197 57.828 -5
      vertex 0.478 57.898 5
      vertex 0.478 57.898 -5
    endloop
  endfacet
  facet normal -0.981513 0.191395 0
    outer loop
      vertex 0.119 57.428 5
      vertex 0.197 57.828 5
      vertex 0.119 57.428 -5
    endloop
  endfacet
  facet normal -0.981513 0.191395 0
    outer loop
      vertex 0.119 57.428 -5
      vertex 0.197 57.828 5
      vertex 0.197 57.828 -5
    endloop
  endfacet
  facet normal -0.997675 0.0681443 0
    outer loop
      vertex 0.055 56.491 5
      vertex 0.119 57.428 5
      vertex 0.055 56.491 -5
    endloop
  endfacet
  facet normal -0.997675 0.0681443 0
    outer loop
      vertex 0.055 56.491 -5
      vertex 0.119 57.428 5
      vertex 0.119 57.428 -5
    endloop
  endfacet
endsolid OpenSCAD_Model
