<?xml version="1.0" encoding="utf-8"?>
<!-- Generator: Adobe Illustrator 16.0.3, SVG Export Plug-In . SVG Version: 6.00 Build 0)  -->
<!DOCTYPE svg PUBLIC "-//W3C//DTD SVG 1.1//EN" "http://www.w3.org/Graphics/SVG/1.1/DTD/svg11.dtd">
<svg version="1.1" id="Layer_1" xmlns="http://www.w3.org/2000/svg" xmlns:xlink="http://www.w3.org/1999/xlink" x="0px" y="0px"
	 width="288px" height="288px" viewBox="0 0 288 288" enable-background="new 0 0 288 288" xml:space="preserve">
<path d="M95.927,42.867H77.911v135.617c0.301,44.047,17.162,70.941,65.525,70.941c29.445,0,58.639-13.156,61.211-44.629H186.63
	c-3.996,21.752-23.178,29.465-43.193,29.465c-33.18,0-47.51-19.744-47.51-55.777v-20.043h0.582
	c8.314,18.035,25.75,30.328,46.928,30.328c47.191,0,66.652-33.764,66.652-75.812c0-40.626-24.041-74.384-66.652-74.384
	c-21.469,0-39.787,13.447-46.928,29.756h-0.582V42.867z M95.927,114.958c0-28.888,13.467-61.225,47.51-61.225
	c34.316,0,48.637,30.619,48.637,61.225c0,29.765-15.465,58.647-48.637,58.647C112.255,173.605,95.927,144.994,95.927,114.958z"/>
</svg>
