solid OpenSCAD_Model
  facet normal 0 1 0
    outer loop
      vertex 5.447 25.218 5
      vertex 18.711 25.218 5
      vertex 5.447 25.218 -5
    endloop
  endfacet
  facet normal 0 1 0
    outer loop
      vertex 5.447 25.218 -5
      vertex 18.711 25.218 5
      vertex 18.711 25.218 -5
    endloop
  endfacet
  facet normal 1 0 0
    outer loop
      vertex 5.447 25.218 -5
      vertex 5.447 26.009 -5
      vertex 5.447 26.009 5
    endloop
  endfacet
  facet normal 1 0 0
    outer loop
      vertex 5.447 25.218 5
      vertex 5.447 25.218 -5
      vertex 5.447 26.009 5
    endloop
  endfacet
  facet normal 0 0 -1
    outer loop
      vertex 0.169 24.033 -5
      vertex 0.62 28.093 -5
      vertex 0 20.702 -5
    endloop
  endfacet
  facet normal 0 0 -1
    outer loop
      vertex 0 20.702 -5
      vertex 0.62 28.093 -5
      vertex 1.554 31.78 -5
    endloop
  endfacet
  facet normal 0 0 -1
    outer loop
      vertex 0 20.702 -5
      vertex 1.554 31.78 -5
      vertex 2.943 35.061 -5
    endloop
  endfacet
  facet normal 0 0 -1
    outer loop
      vertex 0 20.702 -5
      vertex 2.943 35.061 -5
      vertex 4.758 37.898 -5
    endloop
  endfacet
  facet normal 0 0 -1
    outer loop
      vertex 0 20.702 -5
      vertex 4.758 37.898 -5
      vertex 6.971 40.255 -5
    endloop
  endfacet
  facet normal 0 0 -1
    outer loop
      vertex 0 20.702 -5
      vertex 6.971 40.255 -5
      vertex 9.555 42.099 -5
    endloop
  endfacet
  facet normal 0 0 -1
    outer loop
      vertex 0 20.702 -5
      vertex 9.555 42.099 -5
      vertex 12.48 43.392 -5
    endloop
  endfacet
  facet normal 0 0 -1
    outer loop
      vertex 10.527 36.712 -5
      vertex 12.48 43.392 -5
      vertex 15.719 44.099 -5
    endloop
  endfacet
  facet normal 0 0 -1
    outer loop
      vertex 14.507 39.047 -5
      vertex 15.719 44.099 -5
      vertex 18.827 44.269 -5
    endloop
  endfacet
  facet normal 0 0 -1
    outer loop
      vertex 17.38 39.552 -5
      vertex 18.827 44.269 -5
      vertex 21.765 44.026 -5
    endloop
  endfacet
  facet normal 0 0 -1
    outer loop
      vertex 18.853 39.528 -5
      vertex 21.765 44.026 -5
      vertex 24.513 43.378 -5
    endloop
  endfacet
  facet normal 0 0 -1
    outer loop
      vertex 22.487 39.044 -5
      vertex 24.513 43.378 -5
      vertex 27.047 42.34 -5
    endloop
  endfacet
  facet normal 0 0 -1
    outer loop
      vertex 23.593 38.567 -5
      vertex 27.047 42.34 -5
      vertex 29.347 40.921 -5
    endloop
  endfacet
  facet normal 0 0 -1
    outer loop
      vertex 26.148 36.912 -5
      vertex 29.347 40.921 -5
      vertex 31.392 39.135 -5
    endloop
  endfacet
  facet normal 0 0 -1
    outer loop
      vertex 28.345 34.589 -5
      vertex 33.158 36.992 -5
      vertex 34.629 34.503 -5
    endloop
  endfacet
  facet normal 0 0 -1
    outer loop
      vertex 30.114 31.695 -5
      vertex 34.629 34.503 -5
      vertex 35.93 31.596 -5
    endloop
  endfacet
  facet normal 0 0 -1
    outer loop
      vertex 31.383 28.323 -5
      vertex 35.93 31.596 -5
      vertex 36.703 28.976 -5
    endloop
  endfacet
  facet normal 0 0 -1
    outer loop
      vertex 31.93 26.077 -5
      vertex 36.703 28.976 -5
      vertex 37.072 26.023 -5
    endloop
  endfacet
  facet normal 0 0 -1
    outer loop
      vertex 0 20.702 -5
      vertex 37.072 26.023 -5
      vertex 37.168 22.113 -5
    endloop
  endfacet
  facet normal 0 0 -1
    outer loop
      vertex 31.976 19.517 -5
      vertex 37.168 22.113 -5
      vertex 37.163 19.275 -5
    endloop
  endfacet
  facet normal 0 0 -1
    outer loop
      vertex 31.79 17.744 -5
      vertex 37.08 17.344 -5
      vertex 36.886 15.86 -5
    endloop
  endfacet
  facet normal 0 0 -1
    outer loop
      vertex 31.302 15.606 -5
      vertex 36.886 15.86 -5
      vertex 36.548 14.352 -5
    endloop
  endfacet
  facet normal 0 0 -1
    outer loop
      vertex 30.606 13.441 -5
      vertex 36.548 14.352 -5
      vertex 35.339 10.758 -5
    endloop
  endfacet
  facet normal 0 0 -1
    outer loop
      vertex 29.803 11.587 -5
      vertex 35.339 10.758 -5
      vertex 33.708 7.666 -5
    endloop
  endfacet
  facet normal 0 0 -1
    outer loop
      vertex 27.209 8.053 -5
      vertex 33.708 7.666 -5
      vertex 31.673 5.082 -5
    endloop
  endfacet
  facet normal 0 0 -1
    outer loop
      vertex 22.239 4.991 -5
      vertex 29.245 3.018 -5
      vertex 26.438 1.481 -5
    endloop
  endfacet
  facet normal 0 0 -1
    outer loop
      vertex 18.429 4.757 -5
      vertex 26.438 1.481 -5
      vertex 23.268 0.482 -5
    endloop
  endfacet
  facet normal 0 0 -1
    outer loop
      vertex 15.265 4.881 -5
      vertex 23.268 0.482 -5
      vertex 19.746 0.029 -5
    endloop
  endfacet
  facet normal 0 0 -1
    outer loop
      vertex 13.349 5.406 -5
      vertex 19.746 0.029 -5
      vertex 15.889 0.128 -5
    endloop
  endfacet
  facet normal 0 0 -1
    outer loop
      vertex 8.899 8.562 -5
      vertex 15.889 0.128 -5
      vertex 12.67 0.644 -5
    endloop
  endfacet
  facet normal 0 0 -1
    outer loop
      vertex 26.148 36.912 -5
      vertex 31.392 39.135 -5
      vertex 33.158 36.992 -5
    endloop
  endfacet
  facet normal 0 0 -1
    outer loop
      vertex 26.148 36.912 -5
      vertex 33.158 36.992 -5
      vertex 28.345 34.589 -5
    endloop
  endfacet
  facet normal 0 0 -1
    outer loop
      vertex 28.345 34.589 -5
      vertex 34.629 34.503 -5
      vertex 30.114 31.695 -5
    endloop
  endfacet
  facet normal 0 0 -1
    outer loop
      vertex 10.969 6.714 -5
      vertex 15.889 0.128 -5
      vertex 8.899 8.562 -5
    endloop
  endfacet
  facet normal 0 0 -1
    outer loop
      vertex 23.593 38.567 -5
      vertex 29.347 40.921 -5
      vertex 26.148 36.912 -5
    endloop
  endfacet
  facet normal 0 0 -1
    outer loop
      vertex 7.248 10.82 -5
      vertex 8.899 8.562 -5
      vertex 12.67 0.644 -5
    endloop
  endfacet
  facet normal 0 0 -1
    outer loop
      vertex 14.282 5.079 -5
      vertex 19.746 0.029 -5
      vertex 13.349 5.406 -5
    endloop
  endfacet
  facet normal 0 0 -1
    outer loop
      vertex 15.265 4.881 -5
      vertex 19.746 0.029 -5
      vertex 14.282 5.079 -5
    endloop
  endfacet
  facet normal 0 0 -1
    outer loop
      vertex 16.56 4.783 -5
      vertex 23.268 0.482 -5
      vertex 15.265 4.881 -5
    endloop
  endfacet
  facet normal 0 0 -1
    outer loop
      vertex 18.429 4.757 -5
      vertex 23.268 0.482 -5
      vertex 16.56 4.783 -5
    endloop
  endfacet
  facet normal 0 0 -1
    outer loop
      vertex 19.559 4.761 -5
      vertex 26.438 1.481 -5
      vertex 18.429 4.757 -5
    endloop
  endfacet
  facet normal 0 0 -1
    outer loop
      vertex 22.239 4.991 -5
      vertex 26.438 1.481 -5
      vertex 21.734 4.881 -5
    endloop
  endfacet
  facet normal 0 0 -1
    outer loop
      vertex 20.45 4.776 -5
      vertex 26.438 1.481 -5
      vertex 19.559 4.761 -5
    endloop
  endfacet
  facet normal 0 0 -1
    outer loop
      vertex 21.156 4.813 -5
      vertex 26.438 1.481 -5
      vertex 20.45 4.776 -5
    endloop
  endfacet
  facet normal 0 0 -1
    outer loop
      vertex 21.734 4.881 -5
      vertex 26.438 1.481 -5
      vertex 21.156 4.813 -5
    endloop
  endfacet
  facet normal 0 0 -1
    outer loop
      vertex 27.209 8.053 -5
      vertex 29.245 3.018 -5
      vertex 23.876 5.661 -5
    endloop
  endfacet
  facet normal 0 0 -1
    outer loop
      vertex 22.727 5.151 -5
      vertex 29.245 3.018 -5
      vertex 22.239 4.991 -5
    endloop
  endfacet
  facet normal 0 0 -1
    outer loop
      vertex 27.209 8.053 -5
      vertex 31.673 5.082 -5
      vertex 29.245 3.018 -5
    endloop
  endfacet
  facet normal 0 0 -1
    outer loop
      vertex 23.253 5.372 -5
      vertex 29.245 3.018 -5
      vertex 22.727 5.151 -5
    endloop
  endfacet
  facet normal 0 0 -1
    outer loop
      vertex 23.876 5.661 -5
      vertex 29.245 3.018 -5
      vertex 23.253 5.372 -5
    endloop
  endfacet
  facet normal 0 0 -1
    outer loop
      vertex 29.803 11.587 -5
      vertex 33.708 7.666 -5
      vertex 27.209 8.053 -5
    endloop
  endfacet
  facet normal 0 0 -1
    outer loop
      vertex 30.606 13.441 -5
      vertex 35.339 10.758 -5
      vertex 29.803 11.587 -5
    endloop
  endfacet
  facet normal 0 0 -1
    outer loop
      vertex 31.302 15.606 -5
      vertex 36.548 14.352 -5
      vertex 30.606 13.441 -5
    endloop
  endfacet
  facet normal 0 0 -1
    outer loop
      vertex 31.976 19.517 -5
      vertex 37.08 17.344 -5
      vertex 31.79 17.744 -5
    endloop
  endfacet
  facet normal 0 0 -1
    outer loop
      vertex 31.79 17.744 -5
      vertex 36.886 15.86 -5
      vertex 31.302 15.606 -5
    endloop
  endfacet
  facet normal 0 0 -1
    outer loop
      vertex 31.976 19.517 -5
      vertex 37.163 19.275 -5
      vertex 37.08 17.344 -5
    endloop
  endfacet
  facet normal 0 0 -1
    outer loop
      vertex 31.976 20.702 -5
      vertex 37.168 22.113 -5
      vertex 31.976 19.517 -5
    endloop
  endfacet
  facet normal 0 0 -1
    outer loop
      vertex 5.447 25.218 -5
      vertex 0 20.702 -5
      vertex 5.447 26.009 -5
    endloop
  endfacet
  facet normal 0 0 -1
    outer loop
      vertex 0 20.702 -5
      vertex 37.168 22.113 -5
      vertex 31.976 20.702 -5
    endloop
  endfacet
  facet normal 0 0 -1
    outer loop
      vertex 18.853 39.528 -5
      vertex 24.513 43.378 -5
      vertex 20.402 39.466 -5
    endloop
  endfacet
  facet normal 0 0 -1
    outer loop
      vertex 22.87 25.221 -5
      vertex 0 20.702 -5
      vertex 18.711 25.218 -5
    endloop
  endfacet
  facet normal 0 0 -1
    outer loop
      vertex 31.918 25.568 -5
      vertex 37.072 26.023 -5
      vertex 31.66 25.446 -5
    endloop
  endfacet
  facet normal 0 0 -1
    outer loop
      vertex 0 20.702 -5
      vertex 22.87 25.221 -5
      vertex 26.057 25.231 -5
    endloop
  endfacet
  facet normal 0 0 -1
    outer loop
      vertex 0 20.702 -5
      vertex 26.057 25.231 -5
      vertex 28.401 25.253 -5
    endloop
  endfacet
  facet normal 0 0 -1
    outer loop
      vertex 0 20.702 -5
      vertex 28.401 25.253 -5
      vertex 30.032 25.293 -5
    endloop
  endfacet
  facet normal 0 0 -1
    outer loop
      vertex 0 20.702 -5
      vertex 30.032 25.293 -5
      vertex 31.075 25.356 -5
    endloop
  endfacet
  facet normal 0 0 -1
    outer loop
      vertex 0 20.702 -5
      vertex 31.075 25.356 -5
      vertex 37.072 26.023 -5
    endloop
  endfacet
  facet normal 0 0 -1
    outer loop
      vertex 31.075 25.356 -5
      vertex 31.66 25.446 -5
      vertex 37.072 26.023 -5
    endloop
  endfacet
  facet normal 0 0 -1
    outer loop
      vertex 31.976 25.727 -5
      vertex 37.072 26.023 -5
      vertex 31.918 25.568 -5
    endloop
  endfacet
  facet normal 0 0 -1
    outer loop
      vertex 31.93 26.077 -5
      vertex 37.072 26.023 -5
      vertex 31.976 25.727 -5
    endloop
  endfacet
  facet normal 0 0 -1
    outer loop
      vertex 31.807 26.686 -5
      vertex 36.703 28.976 -5
      vertex 31.93 26.077 -5
    endloop
  endfacet
  facet normal 0 0 -1
    outer loop
      vertex 31.383 28.323 -5
      vertex 36.703 28.976 -5
      vertex 31.618 27.466 -5
    endloop
  endfacet
  facet normal 0 0 -1
    outer loop
      vertex 31.618 27.466 -5
      vertex 36.703 28.976 -5
      vertex 31.807 26.686 -5
    endloop
  endfacet
  facet normal 0 0 -1
    outer loop
      vertex 30.114 31.695 -5
      vertex 35.93 31.596 -5
      vertex 31.383 28.323 -5
    endloop
  endfacet
  facet normal 0 0 -1
    outer loop
      vertex 21.518 39.324 -5
      vertex 24.513 43.378 -5
      vertex 22.487 39.044 -5
    endloop
  endfacet
  facet normal 0 0 -1
    outer loop
      vertex 20.402 39.466 -5
      vertex 24.513 43.378 -5
      vertex 21.518 39.324 -5
    endloop
  endfacet
  facet normal 0 0 -1
    outer loop
      vertex 18.711 25.218 -5
      vertex 0 20.702 -5
      vertex 5.447 25.218 -5
    endloop
  endfacet
  facet normal 0 0 -1
    outer loop
      vertex 17.38 39.552 -5
      vertex 21.765 44.026 -5
      vertex 18.853 39.528 -5
    endloop
  endfacet
  facet normal 0 0 -1
    outer loop
      vertex 16.276 39.489 -5
      vertex 18.827 44.269 -5
      vertex 17.38 39.552 -5
    endloop
  endfacet
  facet normal 0 0 -1
    outer loop
      vertex 14.507 39.047 -5
      vertex 18.827 44.269 -5
      vertex 15.375 39.325 -5
    endloop
  endfacet
  facet normal 0 0 -1
    outer loop
      vertex 15.375 39.325 -5
      vertex 18.827 44.269 -5
      vertex 16.276 39.489 -5
    endloop
  endfacet
  facet normal 0 0 -1
    outer loop
      vertex 5.639 27.484 -5
      vertex 0 20.702 -5
      vertex 6.135 29.399 -5
    endloop
  endfacet
  facet normal 0 0 -1
    outer loop
      vertex 10.527 36.712 -5
      vertex 15.719 44.099 -5
      vertex 14.507 39.047 -5
    endloop
  endfacet
  facet normal 0 0 -1
    outer loop
      vertex 7.564 32.979 -5
      vertex 12.48 43.392 -5
      vertex 10.527 36.712 -5
    endloop
  endfacet
  facet normal 0 0 -1
    outer loop
      vertex 6.135 29.399 -5
      vertex 0 20.702 -5
      vertex 6.816 31.363 -5
    endloop
  endfacet
  facet normal 0 0 -1
    outer loop
      vertex 0 20.702 -5
      vertex 12.48 43.392 -5
      vertex 7.564 32.979 -5
    endloop
  endfacet
  facet normal 0 0 -1
    outer loop
      vertex 0 20.702 -5
      vertex 7.564 32.979 -5
      vertex 6.816 31.363 -5
    endloop
  endfacet
  facet normal 0 0 -1
    outer loop
      vertex 5.447 26.009 -5
      vertex 0 20.702 -5
      vertex 5.639 27.484 -5
    endloop
  endfacet
  facet normal 0 0 -1
    outer loop
      vertex 22.487 39.044 -5
      vertex 27.047 42.34 -5
      vertex 23.593 38.567 -5
    endloop
  endfacet
  facet normal 0 0 -1
    outer loop
      vertex 13.349 5.406 -5
      vertex 15.889 0.128 -5
      vertex 10.969 6.714 -5
    endloop
  endfacet
  facet normal 0 0 -1
    outer loop
      vertex 7.248 10.82 -5
      vertex 12.67 0.644 -5
      vertex 9.887 1.576 -5
    endloop
  endfacet
  facet normal 0 0 -1
    outer loop
      vertex 6.124 13.366 -5
      vertex 7.248 10.82 -5
      vertex 9.887 1.576 -5
    endloop
  endfacet
  facet normal 0 0 -1
    outer loop
      vertex 6.124 13.366 -5
      vertex 9.887 1.576 -5
      vertex 7.439 2.963 -5
    endloop
  endfacet
  facet normal 0 0 -1
    outer loop
      vertex 5.588 15.058 -5
      vertex 6.124 13.366 -5
      vertex 7.439 2.963 -5
    endloop
  endfacet
  facet normal 0 0 -1
    outer loop
      vertex 5.588 15.058 -5
      vertex 7.439 2.963 -5
      vertex 5.221 4.842 -5
    endloop
  endfacet
  facet normal 0 0 -1
    outer loop
      vertex 5.588 15.058 -5
      vertex 5.221 4.842 -5
      vertex 3.791 6.597 -5
    endloop
  endfacet
  facet normal 0 0 -1
    outer loop
      vertex 5.588 15.058 -5
      vertex 3.791 6.597 -5
      vertex 2.458 8.755 -5
    endloop
  endfacet
  facet normal 0 0 -1
    outer loop
      vertex 5.588 15.058 -5
      vertex 2.458 8.755 -5
      vertex 1.344 11.11 -5
    endloop
  endfacet
  facet normal 0 0 -1
    outer loop
      vertex 5.588 15.058 -5
      vertex 1.344 11.11 -5
      vertex 0.565 13.45 -5
    endloop
  endfacet
  facet normal 0 0 -1
    outer loop
      vertex 5.588 15.058 -5
      vertex 0.565 13.45 -5
      vertex 0.141 15.058 -5
    endloop
  endfacet
  facet normal -0.000721327 1 0
    outer loop
      vertex 18.711 25.218 5
      vertex 22.87 25.221 5
      vertex 18.711 25.218 -5
    endloop
  endfacet
  facet normal -0.000721327 1 0
    outer loop
      vertex 18.711 25.218 -5
      vertex 22.87 25.221 5
      vertex 22.87 25.221 -5
    endloop
  endfacet
  facet normal 0 0 1
    outer loop
      vertex 33.708 7.666 5
      vertex 31.976 20.702 5
      vertex 31.976 19.517 5
    endloop
  endfacet
  facet normal 0 0 1
    outer loop
      vertex 31.302 15.606 5
      vertex 29.245 3.018 5
      vertex 31.79 17.744 5
    endloop
  endfacet
  facet normal 0 0 1
    outer loop
      vertex 31.79 17.744 5
      vertex 31.673 5.082 5
      vertex 31.976 19.517 5
    endloop
  endfacet
  facet normal 0 0 1
    outer loop
      vertex 0 20.702 5
      vertex 31.976 20.702 5
      vertex 37.168 22.113 5
    endloop
  endfacet
  facet normal 0 0 1
    outer loop
      vertex 30.606 13.441 5
      vertex 29.245 3.018 5
      vertex 31.302 15.606 5
    endloop
  endfacet
  facet normal 0 0 1
    outer loop
      vertex 29.803 11.587 5
      vertex 26.438 1.481 5
      vertex 30.606 13.441 5
    endloop
  endfacet
  facet normal 0 0 1
    outer loop
      vertex 27.209 8.053 5
      vertex 23.268 0.482 5
      vertex 29.803 11.587 5
    endloop
  endfacet
  facet normal 0 0 1
    outer loop
      vertex 23.876 5.661 5
      vertex 19.746 0.029 5
      vertex 27.209 8.053 5
    endloop
  endfacet
  facet normal 0 0 1
    outer loop
      vertex 23.253 5.372 5
      vertex 15.889 0.128 5
      vertex 23.876 5.661 5
    endloop
  endfacet
  facet normal 0 0 1
    outer loop
      vertex 22.727 5.151 5
      vertex 12.67 0.644 5
      vertex 23.253 5.372 5
    endloop
  endfacet
  facet normal 0 0 1
    outer loop
      vertex 22.239 4.991 5
      vertex 12.67 0.644 5
      vertex 22.727 5.151 5
    endloop
  endfacet
  facet normal 0 0 1
    outer loop
      vertex 21.734 4.881 5
      vertex 9.887 1.576 5
      vertex 22.239 4.991 5
    endloop
  endfacet
  facet normal 0 0 1
    outer loop
      vertex 21.156 4.813 5
      vertex 7.439 2.963 5
      vertex 21.734 4.881 5
    endloop
  endfacet
  facet normal 0 0 1
    outer loop
      vertex 20.45 4.776 5
      vertex 7.439 2.963 5
      vertex 21.156 4.813 5
    endloop
  endfacet
  facet normal 0 0 1
    outer loop
      vertex 19.559 4.761 5
      vertex 7.439 2.963 5
      vertex 20.45 4.776 5
    endloop
  endfacet
  facet normal 0 0 1
    outer loop
      vertex 18.429 4.757 5
      vertex 7.439 2.963 5
      vertex 19.559 4.761 5
    endloop
  endfacet
  facet normal 0 0 1
    outer loop
      vertex 16.56 4.783 5
      vertex 5.221 4.842 5
      vertex 18.429 4.757 5
    endloop
  endfacet
  facet normal 0 0 1
    outer loop
      vertex 15.265 4.881 5
      vertex 5.221 4.842 5
      vertex 16.56 4.783 5
    endloop
  endfacet
  facet normal 0 0 1
    outer loop
      vertex 14.282 5.079 5
      vertex 3.791 6.597 5
      vertex 15.265 4.881 5
    endloop
  endfacet
  facet normal 0 0 1
    outer loop
      vertex 7.248 10.82 5
      vertex 0.141 15.058 5
      vertex 8.899 8.562 5
    endloop
  endfacet
  facet normal 0 0 1
    outer loop
      vertex 13.349 5.406 5
      vertex 2.458 8.755 5
      vertex 14.282 5.079 5
    endloop
  endfacet
  facet normal 0 0 1
    outer loop
      vertex 6.124 13.366 5
      vertex 0.141 15.058 5
      vertex 7.248 10.82 5
    endloop
  endfacet
  facet normal 0 0 1
    outer loop
      vertex 10.969 6.714 5
      vertex 1.344 11.11 5
      vertex 13.349 5.406 5
    endloop
  endfacet
  facet normal 0 0 1
    outer loop
      vertex 8.899 8.562 5
      vertex 0.141 15.058 5
      vertex 10.969 6.714 5
    endloop
  endfacet
  facet normal 0 0 1
    outer loop
      vertex 26.148 36.912 5
      vertex 33.158 36.992 5
      vertex 31.392 39.135 5
    endloop
  endfacet
  facet normal 0 0 1
    outer loop
      vertex 5.588 15.058 5
      vertex 0.141 15.058 5
      vertex 6.124 13.366 5
    endloop
  endfacet
  facet normal 0 0 1
    outer loop
      vertex 0.141 15.058 5
      vertex 0.565 13.45 5
      vertex 10.969 6.714 5
    endloop
  endfacet
  facet normal 0 0 1
    outer loop
      vertex 0.565 13.45 5
      vertex 1.344 11.11 5
      vertex 10.969 6.714 5
    endloop
  endfacet
  facet normal 0 0 1
    outer loop
      vertex 1.344 11.11 5
      vertex 2.458 8.755 5
      vertex 13.349 5.406 5
    endloop
  endfacet
  facet normal 0 0 1
    outer loop
      vertex 2.458 8.755 5
      vertex 3.791 6.597 5
      vertex 14.282 5.079 5
    endloop
  endfacet
  facet normal 0 0 1
    outer loop
      vertex 3.791 6.597 5
      vertex 5.221 4.842 5
      vertex 15.265 4.881 5
    endloop
  endfacet
  facet normal 0 0 1
    outer loop
      vertex 5.221 4.842 5
      vertex 7.439 2.963 5
      vertex 18.429 4.757 5
    endloop
  endfacet
  facet normal 0 0 1
    outer loop
      vertex 7.439 2.963 5
      vertex 9.887 1.576 5
      vertex 21.734 4.881 5
    endloop
  endfacet
  facet normal 0 0 1
    outer loop
      vertex 9.887 1.576 5
      vertex 12.67 0.644 5
      vertex 22.239 4.991 5
    endloop
  endfacet
  facet normal 0 0 1
    outer loop
      vertex 12.67 0.644 5
      vertex 15.889 0.128 5
      vertex 23.253 5.372 5
    endloop
  endfacet
  facet normal 0 0 1
    outer loop
      vertex 15.889 0.128 5
      vertex 19.746 0.029 5
      vertex 23.876 5.661 5
    endloop
  endfacet
  facet normal 0 0 1
    outer loop
      vertex 19.746 0.029 5
      vertex 23.268 0.482 5
      vertex 27.209 8.053 5
    endloop
  endfacet
  facet normal 0 0 1
    outer loop
      vertex 23.268 0.482 5
      vertex 26.438 1.481 5
      vertex 29.803 11.587 5
    endloop
  endfacet
  facet normal 0 0 1
    outer loop
      vertex 26.438 1.481 5
      vertex 29.245 3.018 5
      vertex 30.606 13.441 5
    endloop
  endfacet
  facet normal 0 0 1
    outer loop
      vertex 29.245 3.018 5
      vertex 31.673 5.082 5
      vertex 31.79 17.744 5
    endloop
  endfacet
  facet normal 0 0 1
    outer loop
      vertex 31.673 5.082 5
      vertex 33.708 7.666 5
      vertex 31.976 19.517 5
    endloop
  endfacet
  facet normal 0 0 1
    outer loop
      vertex 33.708 7.666 5
      vertex 35.339 10.758 5
      vertex 31.976 20.702 5
    endloop
  endfacet
  facet normal 0 0 1
    outer loop
      vertex 35.339 10.758 5
      vertex 36.548 14.352 5
      vertex 31.976 20.702 5
    endloop
  endfacet
  facet normal 0 0 1
    outer loop
      vertex 36.548 14.352 5
      vertex 36.886 15.86 5
      vertex 31.976 20.702 5
    endloop
  endfacet
  facet normal 0 0 1
    outer loop
      vertex 36.886 15.86 5
      vertex 37.08 17.344 5
      vertex 31.976 20.702 5
    endloop
  endfacet
  facet normal 0 0 1
    outer loop
      vertex 37.08 17.344 5
      vertex 37.163 19.275 5
      vertex 31.976 20.702 5
    endloop
  endfacet
  facet normal 0 0 1
    outer loop
      vertex 37.163 19.275 5
      vertex 37.168 22.113 5
      vertex 31.976 20.702 5
    endloop
  endfacet
  facet normal 0 0 1
    outer loop
      vertex 37.168 22.113 5
      vertex 37.072 26.023 5
      vertex 0 20.702 5
    endloop
  endfacet
  facet normal 0 0 1
    outer loop
      vertex 10.527 36.712 5
      vertex 14.507 39.047 5
      vertex 18.827 44.269 5
    endloop
  endfacet
  facet normal 0 0 1
    outer loop
      vertex 5.447 26.009 5
      vertex 5.639 27.484 5
      vertex 0 20.702 5
    endloop
  endfacet
  facet normal 0 0 1
    outer loop
      vertex 10.527 36.712 5
      vertex 18.827 44.269 5
      vertex 15.719 44.099 5
    endloop
  endfacet
  facet normal 0 0 1
    outer loop
      vertex 7.564 32.979 5
      vertex 10.527 36.712 5
      vertex 12.48 43.392 5
    endloop
  endfacet
  facet normal 0 0 1
    outer loop
      vertex 7.564 32.979 5
      vertex 12.48 43.392 5
      vertex 0 20.702 5
    endloop
  endfacet
  facet normal 0 0 1
    outer loop
      vertex 12.48 43.392 5
      vertex 9.555 42.099 5
      vertex 0 20.702 5
    endloop
  endfacet
  facet normal 0 0 1
    outer loop
      vertex 9.555 42.099 5
      vertex 6.971 40.255 5
      vertex 0 20.702 5
    endloop
  endfacet
  facet normal 0 0 1
    outer loop
      vertex 6.971 40.255 5
      vertex 4.758 37.898 5
      vertex 0 20.702 5
    endloop
  endfacet
  facet normal 0 0 1
    outer loop
      vertex 4.758 37.898 5
      vertex 2.943 35.061 5
      vertex 0 20.702 5
    endloop
  endfacet
  facet normal 0 0 1
    outer loop
      vertex 2.943 35.061 5
      vertex 1.554 31.78 5
      vertex 0 20.702 5
    endloop
  endfacet
  facet normal 0 0 1
    outer loop
      vertex 1.554 31.78 5
      vertex 0.62 28.093 5
      vertex 0 20.702 5
    endloop
  endfacet
  facet normal 0 0 1
    outer loop
      vertex 0.62 28.093 5
      vertex 0.169 24.033 5
      vertex 0 20.702 5
    endloop
  endfacet
  facet normal 0 0 1
    outer loop
      vertex 18.853 39.528 5
      vertex 20.402 39.466 5
      vertex 24.513 43.378 5
    endloop
  endfacet
  facet normal 0 0 1
    outer loop
      vertex 17.38 39.552 5
      vertex 18.853 39.528 5
      vertex 21.765 44.026 5
    endloop
  endfacet
  facet normal 0 0 1
    outer loop
      vertex 14.507 39.047 5
      vertex 15.375 39.325 5
      vertex 18.827 44.269 5
    endloop
  endfacet
  facet normal 0 0 1
    outer loop
      vertex 6.816 31.363 5
      vertex 7.564 32.979 5
      vertex 0 20.702 5
    endloop
  endfacet
  facet normal 0 0 1
    outer loop
      vertex 15.719 44.099 5
      vertex 12.48 43.392 5
      vertex 10.527 36.712 5
    endloop
  endfacet
  facet normal 0 0 1
    outer loop
      vertex 6.135 29.399 5
      vertex 6.816 31.363 5
      vertex 0 20.702 5
    endloop
  endfacet
  facet normal 0 0 1
    outer loop
      vertex 21.765 44.026 5
      vertex 18.827 44.269 5
      vertex 15.375 39.325 5
    endloop
  endfacet
  facet normal 0 0 1
    outer loop
      vertex 21.765 44.026 5
      vertex 15.375 39.325 5
      vertex 16.276 39.489 5
    endloop
  endfacet
  facet normal 0 0 1
    outer loop
      vertex 26.148 36.912 5
      vertex 28.345 34.589 5
      vertex 33.158 36.992 5
    endloop
  endfacet
  facet normal 0 0 1
    outer loop
      vertex 21.765 44.026 5
      vertex 16.276 39.489 5
      vertex 17.38 39.552 5
    endloop
  endfacet
  facet normal 0 0 1
    outer loop
      vertex 20.402 39.466 5
      vertex 21.518 39.324 5
      vertex 24.513 43.378 5
    endloop
  endfacet
  facet normal 0 0 1
    outer loop
      vertex 24.513 43.378 5
      vertex 21.765 44.026 5
      vertex 18.853 39.528 5
    endloop
  endfacet
  facet normal 0 0 1
    outer loop
      vertex 5.639 27.484 5
      vertex 6.135 29.399 5
      vertex 0 20.702 5
    endloop
  endfacet
  facet normal 0 0 1
    outer loop
      vertex 22.487 39.044 5
      vertex 23.593 38.567 5
      vertex 27.047 42.34 5
    endloop
  endfacet
  facet normal 0 0 1
    outer loop
      vertex 27.047 42.34 5
      vertex 24.513 43.378 5
      vertex 21.518 39.324 5
    endloop
  endfacet
  facet normal 0 0 1
    outer loop
      vertex 23.593 38.567 5
      vertex 26.148 36.912 5
      vertex 29.347 40.921 5
    endloop
  endfacet
  facet normal 0 0 1
    outer loop
      vertex 27.047 42.34 5
      vertex 21.518 39.324 5
      vertex 22.487 39.044 5
    endloop
  endfacet
  facet normal 0 0 1
    outer loop
      vertex 5.447 25.218 5
      vertex 5.447 26.009 5
      vertex 0 20.702 5
    endloop
  endfacet
  facet normal 0 0 1
    outer loop
      vertex 29.347 40.921 5
      vertex 27.047 42.34 5
      vertex 23.593 38.567 5
    endloop
  endfacet
  facet normal 0 0 1
    outer loop
      vertex 31.392 39.135 5
      vertex 29.347 40.921 5
      vertex 26.148 36.912 5
    endloop
  endfacet
  facet normal 0 0 1
    outer loop
      vertex 34.629 34.503 5
      vertex 33.158 36.992 5
      vertex 28.345 34.589 5
    endloop
  endfacet
  facet normal 0 0 1
    outer loop
      vertex 35.93 31.596 5
      vertex 34.629 34.503 5
      vertex 30.114 31.695 5
    endloop
  endfacet
  facet normal 0 0 1
    outer loop
      vertex 36.703 28.976 5
      vertex 35.93 31.596 5
      vertex 31.383 28.323 5
    endloop
  endfacet
  facet normal 0 0 1
    outer loop
      vertex 37.072 26.023 5
      vertex 36.703 28.976 5
      vertex 31.618 27.466 5
    endloop
  endfacet
  facet normal 0 0 1
    outer loop
      vertex 22.87 25.221 5
      vertex 18.711 25.218 5
      vertex 0 20.702 5
    endloop
  endfacet
  facet normal 0 0 1
    outer loop
      vertex 37.072 26.023 5
      vertex 31.618 27.466 5
      vertex 31.807 26.686 5
    endloop
  endfacet
  facet normal 0 0 1
    outer loop
      vertex 26.057 25.231 5
      vertex 22.87 25.221 5
      vertex 0 20.702 5
    endloop
  endfacet
  facet normal 0 0 1
    outer loop
      vertex 37.072 26.023 5
      vertex 31.807 26.686 5
      vertex 31.93 26.077 5
    endloop
  endfacet
  facet normal 0 0 1
    outer loop
      vertex 28.401 25.253 5
      vertex 26.057 25.231 5
      vertex 0 20.702 5
    endloop
  endfacet
  facet normal 0 0 1
    outer loop
      vertex 37.072 26.023 5
      vertex 31.93 26.077 5
      vertex 31.976 25.727 5
    endloop
  endfacet
  facet normal 0 0 1
    outer loop
      vertex 30.032 25.293 5
      vertex 28.401 25.253 5
      vertex 0 20.702 5
    endloop
  endfacet
  facet normal 0 0 1
    outer loop
      vertex 37.072 26.023 5
      vertex 31.976 25.727 5
      vertex 31.918 25.568 5
    endloop
  endfacet
  facet normal 0 0 1
    outer loop
      vertex 37.072 26.023 5
      vertex 31.918 25.568 5
      vertex 31.66 25.446 5
    endloop
  endfacet
  facet normal 0 0 1
    outer loop
      vertex 37.072 26.023 5
      vertex 31.075 25.356 5
      vertex 0 20.702 5
    endloop
  endfacet
  facet normal 0 0 1
    outer loop
      vertex 37.072 26.023 5
      vertex 31.66 25.446 5
      vertex 31.075 25.356 5
    endloop
  endfacet
  facet normal 0 0 1
    outer loop
      vertex 31.075 25.356 5
      vertex 30.032 25.293 5
      vertex 0 20.702 5
    endloop
  endfacet
  facet normal 0 0 1
    outer loop
      vertex 31.383 28.323 5
      vertex 31.618 27.466 5
      vertex 36.703 28.976 5
    endloop
  endfacet
  facet normal 0 0 1
    outer loop
      vertex 28.345 34.589 5
      vertex 30.114 31.695 5
      vertex 34.629 34.503 5
    endloop
  endfacet
  facet normal 0 0 1
    outer loop
      vertex 30.114 31.695 5
      vertex 31.383 28.323 5
      vertex 35.93 31.596 5
    endloop
  endfacet
  facet normal 0 0 1
    outer loop
      vertex 18.711 25.218 5
      vertex 5.447 25.218 5
      vertex 0 20.702 5
    endloop
  endfacet
  facet normal 0.991634 -0.129081 0
    outer loop
      vertex 5.447 26.009 -5
      vertex 5.639 27.484 -5
      vertex 5.639 27.484 5
    endloop
  endfacet
  facet normal 0.991634 -0.129081 0
    outer loop
      vertex 5.447 26.009 5
      vertex 5.447 26.009 -5
      vertex 5.639 27.484 5
    endloop
  endfacet
  facet normal 0 -1 0
    outer loop
      vertex 0 20.702 -5
      vertex 31.976 20.702 -5
      vertex 31.976 20.702 5
    endloop
  endfacet
  facet normal 0 -1 0
    outer loop
      vertex 0 20.702 5
      vertex 0 20.702 -5
      vertex 31.976 20.702 5
    endloop
  endfacet
  facet normal -0.998715 0.0506703 0
    outer loop
      vertex 0 20.702 5
      vertex 0.169 24.033 5
      vertex 0 20.702 -5
    endloop
  endfacet
  facet normal -0.998715 0.0506703 0
    outer loop
      vertex 0 20.702 -5
      vertex 0.169 24.033 5
      vertex 0.169 24.033 -5
    endloop
  endfacet
  facet normal -1 0 0
    outer loop
      vertex 31.976 19.517 5
      vertex 31.976 20.702 5
      vertex 31.976 19.517 -5
    endloop
  endfacet
  facet normal -1 0 0
    outer loop
      vertex 31.976 19.517 -5
      vertex 31.976 20.702 5
      vertex 31.976 20.702 -5
    endloop
  endfacet
  facet normal -0.994542 0.104334 0
    outer loop
      vertex 31.79 17.744 5
      vertex 31.976 19.517 5
      vertex 31.79 17.744 -5
    endloop
  endfacet
  facet normal -0.994542 0.104334 0
    outer loop
      vertex 31.79 17.744 -5
      vertex 31.976 19.517 5
      vertex 31.976 19.517 -5
    endloop
  endfacet
  facet normal -0.974926 0.222528 0
    outer loop
      vertex 31.302 15.606 5
      vertex 31.79 17.744 5
      vertex 31.302 15.606 -5
    endloop
  endfacet
  facet normal -0.974926 0.222528 0
    outer loop
      vertex 31.302 15.606 -5
      vertex 31.79 17.744 5
      vertex 31.79 17.744 -5
    endloop
  endfacet
  facet normal -0.952015 0.306052 0
    outer loop
      vertex 30.606 13.441 5
      vertex 31.302 15.606 5
      vertex 30.606 13.441 -5
    endloop
  endfacet
  facet normal -0.952015 0.306052 0
    outer loop
      vertex 30.606 13.441 -5
      vertex 31.302 15.606 5
      vertex 31.302 15.606 -5
    endloop
  endfacet
  facet normal -0.917628 0.397441 0
    outer loop
      vertex 29.803 11.587 5
      vertex 30.606 13.441 5
      vertex 29.803 11.587 -5
    endloop
  endfacet
  facet normal -0.917628 0.397441 0
    outer loop
      vertex 29.803 11.587 -5
      vertex 30.606 13.441 5
      vertex 30.606 13.441 -5
    endloop
  endfacet
  facet normal -0.806144 0.59172 0
    outer loop
      vertex 27.209 8.053 5
      vertex 29.803 11.587 5
      vertex 27.209 8.053 -5
    endloop
  endfacet
  facet normal -0.806144 0.59172 0
    outer loop
      vertex 27.209 8.053 -5
      vertex 29.803 11.587 5
      vertex 29.803 11.587 -5
    endloop
  endfacet
  facet normal -0.583058 0.81243 0
    outer loop
      vertex 23.876 5.661 5
      vertex 27.209 8.053 5
      vertex 23.876 5.661 -5
    endloop
  endfacet
  facet normal -0.583058 0.81243 0
    outer loop
      vertex 23.876 5.661 -5
      vertex 27.209 8.053 5
      vertex 27.209 8.053 -5
    endloop
  endfacet
  facet normal -0.420812 0.907148 0
    outer loop
      vertex 23.253 5.372 5
      vertex 23.876 5.661 5
      vertex 23.253 5.372 -5
    endloop
  endfacet
  facet normal -0.420812 0.907148 0
    outer loop
      vertex 23.253 5.372 -5
      vertex 23.876 5.661 5
      vertex 23.876 5.661 -5
    endloop
  endfacet
  facet normal -0.387352 0.921932 0
    outer loop
      vertex 22.727 5.151 5
      vertex 23.253 5.372 5
      vertex 22.727 5.151 -5
    endloop
  endfacet
  facet normal -0.387352 0.921932 0
    outer loop
      vertex 22.727 5.151 -5
      vertex 23.253 5.372 5
      vertex 23.253 5.372 -5
    endloop
  endfacet
  facet normal -0.311551 0.95023 0
    outer loop
      vertex 22.239 4.991 5
      vertex 22.727 5.151 5
      vertex 22.239 4.991 -5
    endloop
  endfacet
  facet normal -0.311551 0.95023 0
    outer loop
      vertex 22.239 4.991 -5
      vertex 22.727 5.151 5
      vertex 22.727 5.151 -5
    endloop
  endfacet
  facet normal -0.212831 0.977089 0
    outer loop
      vertex 21.734 4.881 5
      vertex 22.239 4.991 5
      vertex 21.734 4.881 -5
    endloop
  endfacet
  facet normal -0.212831 0.977089 0
    outer loop
      vertex 21.734 4.881 -5
      vertex 22.239 4.991 5
      vertex 22.239 4.991 -5
    endloop
  endfacet
  facet normal -0.116841 0.993151 0
    outer loop
      vertex 21.156 4.813 5
      vertex 21.734 4.881 5
      vertex 21.156 4.813 -5
    endloop
  endfacet
  facet normal -0.116841 0.993151 0
    outer loop
      vertex 21.156 4.813 -5
      vertex 21.734 4.881 5
      vertex 21.734 4.881 -5
    endloop
  endfacet
  facet normal -0.0523361 0.99863 0
    outer loop
      vertex 20.45 4.776 5
      vertex 21.156 4.813 5
      vertex 20.45 4.776 -5
    endloop
  endfacet
  facet normal -0.0523361 0.99863 0
    outer loop
      vertex 20.45 4.776 -5
      vertex 21.156 4.813 5
      vertex 21.156 4.813 -5
    endloop
  endfacet
  facet normal -0.0168326 0.999858 0
    outer loop
      vertex 19.559 4.761 5
      vertex 20.45 4.776 5
      vertex 19.559 4.761 -5
    endloop
  endfacet
  facet normal -0.0168326 0.999858 0
    outer loop
      vertex 19.559 4.761 -5
      vertex 20.45 4.776 5
      vertex 20.45 4.776 -5
    endloop
  endfacet
  facet normal -0.0035398 0.999994 0
    outer loop
      vertex 18.429 4.757 5
      vertex 19.559 4.761 5
      vertex 18.429 4.757 -5
    endloop
  endfacet
  facet normal -0.0035398 0.999994 0
    outer loop
      vertex 18.429 4.757 -5
      vertex 19.559 4.761 5
      vertex 19.559 4.761 -5
    endloop
  endfacet
  facet normal 0.0139098 0.999903 0
    outer loop
      vertex 16.56 4.783 5
      vertex 18.429 4.757 5
      vertex 16.56 4.783 -5
    endloop
  endfacet
  facet normal 0.0139098 0.999903 0
    outer loop
      vertex 16.56 4.783 -5
      vertex 18.429 4.757 5
      vertex 18.429 4.757 -5
    endloop
  endfacet
  facet normal 0.0754599 0.997149 0
    outer loop
      vertex 15.265 4.881 5
      vertex 16.56 4.783 5
      vertex 15.265 4.881 -5
    endloop
  endfacet
  facet normal 0.0754599 0.997149 0
    outer loop
      vertex 15.265 4.881 -5
      vertex 16.56 4.783 5
      vertex 16.56 4.783 -5
    endloop
  endfacet
  facet normal 0.197458 0.980311 0
    outer loop
      vertex 14.282 5.079 5
      vertex 15.265 4.881 5
      vertex 14.282 5.079 -5
    endloop
  endfacet
  facet normal 0.197458 0.980311 0
    outer loop
      vertex 14.282 5.079 -5
      vertex 15.265 4.881 5
      vertex 15.265 4.881 -5
    endloop
  endfacet
  facet normal 0.330756 0.943716 0
    outer loop
      vertex 13.349 5.406 5
      vertex 14.282 5.079 5
      vertex 13.349 5.406 -5
    endloop
  endfacet
  facet normal 0.330756 0.943716 0
    outer loop
      vertex 13.349 5.406 -5
      vertex 14.282 5.079 5
      vertex 14.282 5.079 -5
    endloop
  endfacet
  facet normal 0.481636 0.876371 0
    outer loop
      vertex 10.969 6.714 5
      vertex 13.349 5.406 5
      vertex 10.969 6.714 -5
    endloop
  endfacet
  facet normal 0.481636 0.876371 0
    outer loop
      vertex 10.969 6.714 -5
      vertex 13.349 5.406 5
      vertex 13.349 5.406 -5
    endloop
  endfacet
  facet normal 0.665973 0.745976 0
    outer loop
      vertex 8.899 8.562 5
      vertex 10.969 6.714 5
      vertex 8.899 8.562 -5
    endloop
  endfacet
  facet normal 0.665973 0.745976 0
    outer loop
      vertex 8.899 8.562 -5
      vertex 10.969 6.714 5
      vertex 10.969 6.714 -5
    endloop
  endfacet
  facet normal 0.807234 0.590232 0
    outer loop
      vertex 7.248 10.82 -5
      vertex 7.248 10.82 5
      vertex 8.899 8.562 5
    endloop
  endfacet
  facet normal 0.807234 0.590232 0
    outer loop
      vertex 8.899 8.562 -5
      vertex 7.248 10.82 -5
      vertex 8.899 8.562 5
    endloop
  endfacet
  facet normal 0.914816 0.40387 0
    outer loop
      vertex 6.124 13.366 -5
      vertex 6.124 13.366 5
      vertex 7.248 10.82 5
    endloop
  endfacet
  facet normal 0.914816 0.40387 0
    outer loop
      vertex 7.248 10.82 -5
      vertex 6.124 13.366 -5
      vertex 7.248 10.82 5
    endloop
  endfacet
  facet normal 0.95331 0.301994 0
    outer loop
      vertex 5.588 15.058 -5
      vertex 5.588 15.058 5
      vertex 6.124 13.366 5
    endloop
  endfacet
  facet normal 0.95331 0.301994 0
    outer loop
      vertex 6.124 13.366 -5
      vertex 5.588 15.058 -5
      vertex 6.124 13.366 5
    endloop
  endfacet
  facet normal 0 1 0
    outer loop
      vertex 0.141 15.058 5
      vertex 5.588 15.058 5
      vertex 0.141 15.058 -5
    endloop
  endfacet
  facet normal 0 1 0
    outer loop
      vertex 0.141 15.058 -5
      vertex 5.588 15.058 5
      vertex 5.588 15.058 -5
    endloop
  endfacet
  facet normal -0.96695 -0.254967 0
    outer loop
      vertex 0.565 13.45 -5
      vertex 0.565 13.45 5
      vertex 0.141 15.058 -5
    endloop
  endfacet
  facet normal -0.96695 -0.254967 0
    outer loop
      vertex 0.141 15.058 -5
      vertex 0.565 13.45 5
      vertex 0.141 15.058 5
    endloop
  endfacet
  facet normal -0.948805 -0.315863 0
    outer loop
      vertex 1.344 11.11 -5
      vertex 1.344 11.11 5
      vertex 0.565 13.45 -5
    endloop
  endfacet
  facet normal -0.948805 -0.315863 0
    outer loop
      vertex 0.565 13.45 -5
      vertex 1.344 11.11 5
      vertex 0.565 13.45 5
    endloop
  endfacet
  facet normal -0.903964 -0.427608 0
    outer loop
      vertex 2.458 8.755 -5
      vertex 2.458 8.755 5
      vertex 1.344 11.11 -5
    endloop
  endfacet
  facet normal -0.903964 -0.427608 0
    outer loop
      vertex 1.344 11.11 -5
      vertex 2.458 8.755 5
      vertex 1.344 11.11 5
    endloop
  endfacet
  facet normal -0.850777 -0.525526 0
    outer loop
      vertex 3.791 6.597 -5
      vertex 3.791 6.597 5
      vertex 2.458 8.755 -5
    endloop
  endfacet
  facet normal -0.850777 -0.525526 0
    outer loop
      vertex 2.458 8.755 -5
      vertex 3.791 6.597 5
      vertex 2.458 8.755 5
    endloop
  endfacet
  facet normal -0.775235 -0.631673 0
    outer loop
      vertex 5.221 4.842 -5
      vertex 5.221 4.842 5
      vertex 3.791 6.597 -5
    endloop
  endfacet
  facet normal -0.775235 -0.631673 0
    outer loop
      vertex 3.791 6.597 -5
      vertex 5.221 4.842 5
      vertex 3.791 6.597 5
    endloop
  endfacet
  facet normal -0.646389 -0.763008 0
    outer loop
      vertex 5.221 4.842 -5
      vertex 7.439 2.963 -5
      vertex 7.439 2.963 5
    endloop
  endfacet
  facet normal -0.646389 -0.763008 0
    outer loop
      vertex 5.221 4.842 5
      vertex 5.221 4.842 -5
      vertex 7.439 2.963 5
    endloop
  endfacet
  facet normal -0.492959 -0.870053 0
    outer loop
      vertex 7.439 2.963 -5
      vertex 9.887 1.576 -5
      vertex 9.887 1.576 5
    endloop
  endfacet
  facet normal -0.492959 -0.870053 0
    outer loop
      vertex 7.439 2.963 5
      vertex 7.439 2.963 -5
      vertex 9.887 1.576 5
    endloop
  endfacet
  facet normal -0.317556 -0.948239 0
    outer loop
      vertex 9.887 1.576 -5
      vertex 12.67 0.644 -5
      vertex 12.67 0.644 5
    endloop
  endfacet
  facet normal -0.317556 -0.948239 0
    outer loop
      vertex 9.887 1.576 5
      vertex 9.887 1.576 -5
      vertex 12.67 0.644 5
    endloop
  endfacet
  facet normal -0.158278 -0.987395 0
    outer loop
      vertex 12.67 0.644 -5
      vertex 15.889 0.128 -5
      vertex 15.889 0.128 5
    endloop
  endfacet
  facet normal -0.158278 -0.987395 0
    outer loop
      vertex 12.67 0.644 5
      vertex 12.67 0.644 -5
      vertex 15.889 0.128 5
    endloop
  endfacet
  facet normal -0.0256592 -0.999671 0
    outer loop
      vertex 15.889 0.128 -5
      vertex 19.746 0.029 -5
      vertex 19.746 0.029 5
    endloop
  endfacet
  facet normal -0.0256592 -0.999671 0
    outer loop
      vertex 15.889 0.128 5
      vertex 15.889 0.128 -5
      vertex 19.746 0.029 5
    endloop
  endfacet
  facet normal 0.127569 -0.99183 0
    outer loop
      vertex 19.746 0.029 -5
      vertex 23.268 0.482 -5
      vertex 23.268 0.482 5
    endloop
  endfacet
  facet normal 0.127569 -0.99183 0
    outer loop
      vertex 19.746 0.029 5
      vertex 19.746 0.029 -5
      vertex 23.268 0.482 5
    endloop
  endfacet
  facet normal 0.30057 -0.95376 0
    outer loop
      vertex 23.268 0.482 -5
      vertex 26.438 1.481 -5
      vertex 26.438 1.481 5
    endloop
  endfacet
  facet normal 0.30057 -0.95376 0
    outer loop
      vertex 23.268 0.482 5
      vertex 23.268 0.482 -5
      vertex 26.438 1.481 5
    endloop
  endfacet
  facet normal 0.480275 -0.877118 0
    outer loop
      vertex 26.438 1.481 -5
      vertex 29.245 3.018 -5
      vertex 29.245 3.018 5
    endloop
  endfacet
  facet normal 0.480275 -0.877118 0
    outer loop
      vertex 26.438 1.481 5
      vertex 26.438 1.481 -5
      vertex 29.245 3.018 5
    endloop
  endfacet
  facet normal 0.647685 -0.761908 0
    outer loop
      vertex 29.245 3.018 -5
      vertex 31.673 5.082 -5
      vertex 31.673 5.082 5
    endloop
  endfacet
  facet normal 0.647685 -0.761908 0
    outer loop
      vertex 29.245 3.018 5
      vertex 29.245 3.018 -5
      vertex 31.673 5.082 5
    endloop
  endfacet
  facet normal 0.785622 -0.618707 0
    outer loop
      vertex 31.673 5.082 -5
      vertex 33.708 7.666 -5
      vertex 33.708 7.666 5
    endloop
  endfacet
  facet normal 0.785622 -0.618707 0
    outer loop
      vertex 31.673 5.082 5
      vertex 31.673 5.082 -5
      vertex 33.708 7.666 5
    endloop
  endfacet
  facet normal 0.88449 -0.46656 0
    outer loop
      vertex 33.708 7.666 -5
      vertex 35.339 10.758 -5
      vertex 35.339 10.758 5
    endloop
  endfacet
  facet normal 0.88449 -0.46656 0
    outer loop
      vertex 33.708 7.666 5
      vertex 33.708 7.666 -5
      vertex 35.339 10.758 5
    endloop
  endfacet
  facet normal 0.947809 -0.318837 0
    outer loop
      vertex 35.339 10.758 -5
      vertex 36.548 14.352 -5
      vertex 36.548 14.352 5
    endloop
  endfacet
  facet normal 0.947809 -0.318837 0
    outer loop
      vertex 35.339 10.758 5
      vertex 35.339 10.758 -5
      vertex 36.548 14.352 5
    endloop
  endfacet
  facet normal 0.97579 -0.218711 0
    outer loop
      vertex 36.548 14.352 -5
      vertex 36.886 15.86 -5
      vertex 36.886 15.86 5
    endloop
  endfacet
  facet normal 0.97579 -0.218711 0
    outer loop
      vertex 36.548 14.352 5
      vertex 36.548 14.352 -5
      vertex 36.886 15.86 5
    endloop
  endfacet
  facet normal 0.991563 -0.129625 0
    outer loop
      vertex 36.886 15.86 -5
      vertex 37.08 17.344 -5
      vertex 37.08 17.344 5
    endloop
  endfacet
  facet normal 0.991563 -0.129625 0
    outer loop
      vertex 36.886 15.86 5
      vertex 36.886 15.86 -5
      vertex 37.08 17.344 5
    endloop
  endfacet
  facet normal 0.999078 -0.0429433 0
    outer loop
      vertex 37.08 17.344 -5
      vertex 37.163 19.275 -5
      vertex 37.163 19.275 5
    endloop
  endfacet
  facet normal 0.999078 -0.0429433 0
    outer loop
      vertex 37.08 17.344 5
      vertex 37.08 17.344 -5
      vertex 37.163 19.275 5
    endloop
  endfacet
  facet normal 0.999998 -0.0017618 0
    outer loop
      vertex 37.163 19.275 -5
      vertex 37.168 22.113 -5
      vertex 37.168 22.113 5
    endloop
  endfacet
  facet normal 0.999998 -0.0017618 0
    outer loop
      vertex 37.163 19.275 5
      vertex 37.163 19.275 -5
      vertex 37.168 22.113 5
    endloop
  endfacet
  facet normal 0.999699 0.024545 0
    outer loop
      vertex 37.072 26.023 -5
      vertex 37.072 26.023 5
      vertex 37.168 22.113 5
    endloop
  endfacet
  facet normal 0.999699 0.024545 0
    outer loop
      vertex 37.168 22.113 -5
      vertex 37.072 26.023 -5
      vertex 37.168 22.113 5
    endloop
  endfacet
  facet normal 0.992283 0.123993 0
    outer loop
      vertex 36.703 28.976 -5
      vertex 36.703 28.976 5
      vertex 37.072 26.023 5
    endloop
  endfacet
  facet normal 0.992283 0.123993 0
    outer loop
      vertex 37.072 26.023 -5
      vertex 36.703 28.976 -5
      vertex 37.072 26.023 5
    endloop
  endfacet
  facet normal 0.959126 0.282979 0
    outer loop
      vertex 35.93 31.596 -5
      vertex 35.93 31.596 5
      vertex 36.703 28.976 5
    endloop
  endfacet
  facet normal 0.959126 0.282979 0
    outer loop
      vertex 36.703 28.976 -5
      vertex 35.93 31.596 -5
      vertex 36.703 28.976 5
    endloop
  endfacet
  facet normal 0.91276 0.408497 0
    outer loop
      vertex 34.629 34.503 -5
      vertex 34.629 34.503 5
      vertex 35.93 31.596 5
    endloop
  endfacet
  facet normal 0.91276 0.408497 0
    outer loop
      vertex 35.93 31.596 -5
      vertex 34.629 34.503 -5
      vertex 35.93 31.596 5
    endloop
  endfacet
  facet normal 0.860892 0.508788 0
    outer loop
      vertex 33.158 36.992 -5
      vertex 33.158 36.992 5
      vertex 34.629 34.503 5
    endloop
  endfacet
  facet normal 0.860892 0.508788 0
    outer loop
      vertex 34.629 34.503 -5
      vertex 33.158 36.992 -5
      vertex 34.629 34.503 5
    endloop
  endfacet
  facet normal 0.771722 0.63596 0
    outer loop
      vertex 31.392 39.135 -5
      vertex 31.392 39.135 5
      vertex 33.158 36.992 5
    endloop
  endfacet
  facet normal 0.771722 0.63596 0
    outer loop
      vertex 33.158 36.992 -5
      vertex 31.392 39.135 -5
      vertex 33.158 36.992 5
    endloop
  endfacet
  facet normal 0.6578 0.753192 0
    outer loop
      vertex 29.347 40.921 5
      vertex 31.392 39.135 5
      vertex 29.347 40.921 -5
    endloop
  endfacet
  facet normal 0.6578 0.753192 0
    outer loop
      vertex 29.347 40.921 -5
      vertex 31.392 39.135 5
      vertex 31.392 39.135 -5
    endloop
  endfacet
  facet normal 0.525067 0.851061 0
    outer loop
      vertex 27.047 42.34 5
      vertex 29.347 40.921 5
      vertex 27.047 42.34 -5
    endloop
  endfacet
  facet normal 0.525067 0.851061 0
    outer loop
      vertex 27.047 42.34 -5
      vertex 29.347 40.921 5
      vertex 29.347 40.921 -5
    endloop
  endfacet
  facet normal 0.379059 0.925372 0
    outer loop
      vertex 24.513 43.378 5
      vertex 27.047 42.34 5
      vertex 24.513 43.378 -5
    endloop
  endfacet
  facet normal 0.379059 0.925372 0
    outer loop
      vertex 24.513 43.378 -5
      vertex 27.047 42.34 5
      vertex 27.047 42.34 -5
    endloop
  endfacet
  facet normal 0.229513 0.973306 0
    outer loop
      vertex 21.765 44.026 5
      vertex 24.513 43.378 5
      vertex 21.765 44.026 -5
    endloop
  endfacet
  facet normal 0.229513 0.973306 0
    outer loop
      vertex 21.765 44.026 -5
      vertex 24.513 43.378 5
      vertex 24.513 43.378 -5
    endloop
  endfacet
  facet normal 0.0824279 0.996597 0
    outer loop
      vertex 18.827 44.269 5
      vertex 21.765 44.026 5
      vertex 18.827 44.269 -5
    endloop
  endfacet
  facet normal 0.0824279 0.996597 0
    outer loop
      vertex 18.827 44.269 -5
      vertex 21.765 44.026 5
      vertex 21.765 44.026 -5
    endloop
  endfacet
  facet normal -0.0546159 0.998507 0
    outer loop
      vertex 15.719 44.099 5
      vertex 18.827 44.269 5
      vertex 15.719 44.099 -5
    endloop
  endfacet
  facet normal -0.0546159 0.998507 0
    outer loop
      vertex 15.719 44.099 -5
      vertex 18.827 44.269 5
      vertex 18.827 44.269 -5
    endloop
  endfacet
  facet normal -0.213256 0.976996 0
    outer loop
      vertex 12.48 43.392 5
      vertex 15.719 44.099 5
      vertex 12.48 43.392 -5
    endloop
  endfacet
  facet normal -0.213256 0.976996 0
    outer loop
      vertex 12.48 43.392 -5
      vertex 15.719 44.099 5
      vertex 15.719 44.099 -5
    endloop
  endfacet
  facet normal -0.40431 0.914622 0
    outer loop
      vertex 9.555 42.099 5
      vertex 12.48 43.392 5
      vertex 9.555 42.099 -5
    endloop
  endfacet
  facet normal -0.40431 0.914622 0
    outer loop
      vertex 9.555 42.099 -5
      vertex 12.48 43.392 5
      vertex 12.48 43.392 -5
    endloop
  endfacet
  facet normal -0.580881 0.813989 0
    outer loop
      vertex 6.971 40.255 5
      vertex 9.555 42.099 5
      vertex 6.971 40.255 -5
    endloop
  endfacet
  facet normal -0.580881 0.813989 0
    outer loop
      vertex 6.971 40.255 -5
      vertex 9.555 42.099 5
      vertex 9.555 42.099 -5
    endloop
  endfacet
  facet normal -0.729026 0.684486 0
    outer loop
      vertex 4.758 37.898 5
      vertex 6.971 40.255 5
      vertex 4.758 37.898 -5
    endloop
  endfacet
  facet normal -0.729026 0.684486 0
    outer loop
      vertex 4.758 37.898 -5
      vertex 6.971 40.255 5
      vertex 6.971 40.255 -5
    endloop
  endfacet
  facet normal -0.842363 0.53891 0
    outer loop
      vertex 2.943 35.061 5
      vertex 4.758 37.898 5
      vertex 2.943 35.061 -5
    endloop
  endfacet
  facet normal -0.842363 0.53891 0
    outer loop
      vertex 2.943 35.061 -5
      vertex 4.758 37.898 5
      vertex 4.758 37.898 -5
    endloop
  endfacet
  facet normal -0.920878 0.389851 0
    outer loop
      vertex 1.554 31.78 5
      vertex 2.943 35.061 5
      vertex 1.554 31.78 -5
    endloop
  endfacet
  facet normal -0.920878 0.389851 0
    outer loop
      vertex 1.554 31.78 -5
      vertex 2.943 35.061 5
      vertex 2.943 35.061 -5
    endloop
  endfacet
  facet normal -0.96938 0.245566 0
    outer loop
      vertex 0.62 28.093 5
      vertex 1.554 31.78 5
      vertex 0.62 28.093 -5
    endloop
  endfacet
  facet normal -0.96938 0.245566 0
    outer loop
      vertex 0.62 28.093 -5
      vertex 1.554 31.78 5
      vertex 1.554 31.78 -5
    endloop
  endfacet
  facet normal -0.993887 0.110405 0
    outer loop
      vertex 0.169 24.033 5
      vertex 0.62 28.093 5
      vertex 0.169 24.033 -5
    endloop
  endfacet
  facet normal -0.993887 0.110405 0
    outer loop
      vertex 0.169 24.033 -5
      vertex 0.62 28.093 5
      vertex 0.62 28.093 -5
    endloop
  endfacet
  facet normal 0.968056 -0.250734 0
    outer loop
      vertex 5.639 27.484 -5
      vertex 6.135 29.399 -5
      vertex 6.135 29.399 5
    endloop
  endfacet
  facet normal 0.968056 -0.250734 0
    outer loop
      vertex 5.639 27.484 5
      vertex 5.639 27.484 -5
      vertex 6.135 29.399 5
    endloop
  endfacet
  facet normal 0.944814 -0.327606 0
    outer loop
      vertex 6.135 29.399 -5
      vertex 6.816 31.363 -5
      vertex 6.816 31.363 5
    endloop
  endfacet
  facet normal 0.944814 -0.327606 0
    outer loop
      vertex 6.135 29.399 5
      vertex 6.135 29.399 -5
      vertex 6.816 31.363 5
    endloop
  endfacet
  facet normal 0.907499 -0.420055 0
    outer loop
      vertex 6.816 31.363 -5
      vertex 7.564 32.979 -5
      vertex 7.564 32.979 5
    endloop
  endfacet
  facet normal 0.907499 -0.420055 0
    outer loop
      vertex 6.816 31.363 5
      vertex 6.816 31.363 -5
      vertex 7.564 32.979 5
    endloop
  endfacet
  facet normal 0.783258 -0.621697 0
    outer loop
      vertex 7.564 32.979 -5
      vertex 10.527 36.712 -5
      vertex 10.527 36.712 5
    endloop
  endfacet
  facet normal 0.783258 -0.621697 0
    outer loop
      vertex 7.564 32.979 5
      vertex 7.564 32.979 -5
      vertex 10.527 36.712 5
    endloop
  endfacet
  facet normal 0.506025 -0.862519 0
    outer loop
      vertex 10.527 36.712 -5
      vertex 14.507 39.047 -5
      vertex 14.507 39.047 5
    endloop
  endfacet
  facet normal 0.506025 -0.862519 0
    outer loop
      vertex 10.527 36.712 5
      vertex 10.527 36.712 -5
      vertex 14.507 39.047 5
    endloop
  endfacet
  facet normal 0.305015 -0.952348 0
    outer loop
      vertex 14.507 39.047 -5
      vertex 15.375 39.325 -5
      vertex 15.375 39.325 5
    endloop
  endfacet
  facet normal 0.305015 -0.952348 0
    outer loop
      vertex 14.507 39.047 5
      vertex 14.507 39.047 -5
      vertex 15.375 39.325 5
    endloop
  endfacet
  facet normal 0.179078 -0.983835 0
    outer loop
      vertex 15.375 39.325 -5
      vertex 16.276 39.489 -5
      vertex 16.276 39.489 5
    endloop
  endfacet
  facet normal 0.179078 -0.983835 0
    outer loop
      vertex 15.375 39.325 5
      vertex 15.375 39.325 -5
      vertex 16.276 39.489 5
    endloop
  endfacet
  facet normal 0.0569725 -0.998376 0
    outer loop
      vertex 16.276 39.489 -5
      vertex 17.38 39.552 -5
      vertex 17.38 39.552 5
    endloop
  endfacet
  facet normal 0.0569725 -0.998376 0
    outer loop
      vertex 16.276 39.489 5
      vertex 16.276 39.489 -5
      vertex 17.38 39.552 5
    endloop
  endfacet
  facet normal -0.0162911 -0.999867 0
    outer loop
      vertex 17.38 39.552 -5
      vertex 18.853 39.528 -5
      vertex 18.853 39.528 5
    endloop
  endfacet
  facet normal -0.0162911 -0.999867 0
    outer loop
      vertex 17.38 39.552 5
      vertex 17.38 39.552 -5
      vertex 18.853 39.528 5
    endloop
  endfacet
  facet normal -0.0399938 -0.9992 0
    outer loop
      vertex 18.853 39.528 -5
      vertex 20.402 39.466 -5
      vertex 20.402 39.466 5
    endloop
  endfacet
  facet normal -0.0399938 -0.9992 0
    outer loop
      vertex 18.853 39.528 5
      vertex 18.853 39.528 -5
      vertex 20.402 39.466 5
    endloop
  endfacet
  facet normal -0.126222 -0.992002 0
    outer loop
      vertex 20.402 39.466 -5
      vertex 21.518 39.324 -5
      vertex 21.518 39.324 5
    endloop
  endfacet
  facet normal -0.126222 -0.992002 0
    outer loop
      vertex 20.402 39.466 5
      vertex 20.402 39.466 -5
      vertex 21.518 39.324 5
    endloop
  endfacet
  facet normal -0.277601 -0.960697 0
    outer loop
      vertex 21.518 39.324 -5
      vertex 22.487 39.044 -5
      vertex 22.487 39.044 5
    endloop
  endfacet
  facet normal -0.277601 -0.960697 0
    outer loop
      vertex 21.518 39.324 5
      vertex 21.518 39.324 -5
      vertex 22.487 39.044 5
    endloop
  endfacet
  facet normal -0.396022 -0.918241 0
    outer loop
      vertex 22.487 39.044 -5
      vertex 23.593 38.567 -5
      vertex 23.593 38.567 5
    endloop
  endfacet
  facet normal -0.396022 -0.918241 0
    outer loop
      vertex 22.487 39.044 5
      vertex 22.487 39.044 -5
      vertex 23.593 38.567 5
    endloop
  endfacet
  facet normal -0.54366 -0.839306 0
    outer loop
      vertex 23.593 38.567 -5
      vertex 26.148 36.912 -5
      vertex 26.148 36.912 5
    endloop
  endfacet
  facet normal -0.54366 -0.839306 0
    outer loop
      vertex 23.593 38.567 5
      vertex 23.593 38.567 -5
      vertex 26.148 36.912 5
    endloop
  endfacet
  facet normal -0.726536 -0.687128 0
    outer loop
      vertex 28.345 34.589 -5
      vertex 28.345 34.589 5
      vertex 26.148 36.912 -5
    endloop
  endfacet
  facet normal -0.726536 -0.687128 0
    outer loop
      vertex 26.148 36.912 -5
      vertex 28.345 34.589 5
      vertex 26.148 36.912 5
    endloop
  endfacet
  facet normal -0.853224 -0.521545 0
    outer loop
      vertex 30.114 31.695 -5
      vertex 30.114 31.695 5
      vertex 28.345 34.589 -5
    endloop
  endfacet
  facet normal -0.853224 -0.521545 0
    outer loop
      vertex 28.345 34.589 -5
      vertex 30.114 31.695 5
      vertex 28.345 34.589 5
    endloop
  endfacet
  facet normal -0.935918 -0.352218 0
    outer loop
      vertex 31.383 28.323 -5
      vertex 31.383 28.323 5
      vertex 30.114 31.695 -5
    endloop
  endfacet
  facet normal -0.935918 -0.352218 0
    outer loop
      vertex 30.114 31.695 -5
      vertex 31.383 28.323 5
      vertex 30.114 31.695 5
    endloop
  endfacet
  facet normal -0.964399 -0.26445 0
    outer loop
      vertex 31.618 27.466 -5
      vertex 31.618 27.466 5
      vertex 31.383 28.323 -5
    endloop
  endfacet
  facet normal -0.964399 -0.26445 0
    outer loop
      vertex 31.383 28.323 -5
      vertex 31.618 27.466 5
      vertex 31.383 28.323 5
    endloop
  endfacet
  facet normal -0.971876 -0.235493 0
    outer loop
      vertex 31.807 26.686 -5
      vertex 31.807 26.686 5
      vertex 31.618 27.466 -5
    endloop
  endfacet
  facet normal -0.971876 -0.235493 0
    outer loop
      vertex 31.618 27.466 -5
      vertex 31.807 26.686 5
      vertex 31.618 27.466 5
    endloop
  endfacet
  facet normal -0.980207 -0.197973 0
    outer loop
      vertex 31.93 26.077 -5
      vertex 31.93 26.077 5
      vertex 31.807 26.686 -5
    endloop
  endfacet
  facet normal -0.980207 -0.197973 0
    outer loop
      vertex 31.807 26.686 -5
      vertex 31.93 26.077 5
      vertex 31.807 26.686 5
    endloop
  endfacet
  facet normal -0.991474 -0.130308 0
    outer loop
      vertex 31.976 25.727 -5
      vertex 31.976 25.727 5
      vertex 31.93 26.077 -5
    endloop
  endfacet
  facet normal -0.991474 -0.130308 0
    outer loop
      vertex 31.93 26.077 -5
      vertex 31.976 25.727 5
      vertex 31.93 26.077 5
    endloop
  endfacet
  facet normal -0.939448 0.342692 0
    outer loop
      vertex 31.918 25.568 5
      vertex 31.976 25.727 5
      vertex 31.918 25.568 -5
    endloop
  endfacet
  facet normal -0.939448 0.342692 0
    outer loop
      vertex 31.918 25.568 -5
      vertex 31.976 25.727 5
      vertex 31.976 25.727 -5
    endloop
  endfacet
  facet normal -0.427484 0.904023 0
    outer loop
      vertex 31.66 25.446 5
      vertex 31.918 25.568 5
      vertex 31.66 25.446 -5
    endloop
  endfacet
  facet normal -0.427484 0.904023 0
    outer loop
      vertex 31.66 25.446 -5
      vertex 31.918 25.568 5
      vertex 31.918 25.568 -5
    endloop
  endfacet
  facet normal -0.152057 0.988372 0
    outer loop
      vertex 31.075 25.356 5
      vertex 31.66 25.446 5
      vertex 31.075 25.356 -5
    endloop
  endfacet
  facet normal -0.152057 0.988372 0
    outer loop
      vertex 31.075 25.356 -5
      vertex 31.66 25.446 5
      vertex 31.66 25.446 -5
    endloop
  endfacet
  facet normal -0.0602928 0.998181 0
    outer loop
      vertex 30.032 25.293 5
      vertex 31.075 25.356 5
      vertex 30.032 25.293 -5
    endloop
  endfacet
  facet normal -0.0602928 0.998181 0
    outer loop
      vertex 30.032 25.293 -5
      vertex 31.075 25.356 5
      vertex 31.075 25.356 -5
    endloop
  endfacet
  facet normal -0.0245175 0.999699 0
    outer loop
      vertex 28.401 25.253 5
      vertex 30.032 25.293 5
      vertex 28.401 25.253 -5
    endloop
  endfacet
  facet normal -0.0245175 0.999699 0
    outer loop
      vertex 28.401 25.253 -5
      vertex 30.032 25.293 5
      vertex 30.032 25.293 -5
    endloop
  endfacet
  facet normal -0.00938525 0.999956 0
    outer loop
      vertex 26.057 25.231 5
      vertex 28.401 25.253 5
      vertex 26.057 25.231 -5
    endloop
  endfacet
  facet normal -0.00938525 0.999956 0
    outer loop
      vertex 26.057 25.231 -5
      vertex 28.401 25.253 5
      vertex 28.401 25.253 -5
    endloop
  endfacet
  facet normal -0.00313773 0.999995 0
    outer loop
      vertex 22.87 25.221 5
      vertex 26.057 25.231 5
      vertex 22.87 25.221 -5
    endloop
  endfacet
  facet normal -0.00313773 0.999995 0
    outer loop
      vertex 22.87 25.221 -5
      vertex 26.057 25.231 5
      vertex 26.057 25.231 -5
    endloop
  endfacet
endsolid OpenSCAD_Model
