solid OpenSCAD_Model
  facet normal -0.31837 0.947967 0
    outer loop
      vertex 12.876 58.438 5
      vertex 15.663 59.374 5
      vertex 12.876 58.438 -5
    endloop
  endfacet
  facet normal -0.31837 0.947967 0
    outer loop
      vertex 12.876 58.438 -5
      vertex 15.663 59.374 5
      vertex 15.663 59.374 -5
    endloop
  endfacet
  facet normal -0.505877 0.862605 0
    outer loop
      vertex 10.071 56.793 5
      vertex 12.876 58.438 5
      vertex 10.071 56.793 -5
    endloop
  endfacet
  facet normal -0.505877 0.862605 0
    outer loop
      vertex 10.071 56.793 -5
      vertex 12.876 58.438 5
      vertex 12.876 58.438 -5
    endloop
  endfacet
  facet normal 0 0 -1
    outer loop
      vertex 0 58.584 -5
      vertex 5.362 58.584 -5
      vertex 0 39.478 -5
    endloop
  endfacet
  facet normal 0 0 -1
    outer loop
      vertex 0 39.478 -5
      vertex 5.362 58.584 -5
      vertex 5.362 55 -5
    endloop
  endfacet
  facet normal 0 0 -1
    outer loop
      vertex 0 39.478 -5
      vertex 5.362 55 -5
      vertex 5.391 51.388 -5
    endloop
  endfacet
  facet normal 0 0 -1
    outer loop
      vertex 5.391 51.388 -5
      vertex 5.983 52.517 -5
      vertex 0 39.478 -5
    endloop
  endfacet
  facet normal 0 0 -1
    outer loop
      vertex 0 39.478 -5
      vertex 5.983 52.517 -5
      vertex 7.643 54.723 -5
    endloop
  endfacet
  facet normal 0 0 -1
    outer loop
      vertex 0 39.478 -5
      vertex 7.643 54.723 -5
      vertex 10.071 56.793 -5
    endloop
  endfacet
  facet normal 0 0 -1
    outer loop
      vertex 0 39.478 -5
      vertex 10.071 56.793 -5
      vertex 12.876 58.438 -5
    endloop
  endfacet
  facet normal 0 0 -1
    outer loop
      vertex 0 39.478 -5
      vertex 12.876 58.438 -5
      vertex 15.663 59.374 -5
    endloop
  endfacet
  facet normal 0 0 -1
    outer loop
      vertex 13.39 53.883 -5
      vertex 18.646 59.695 -5
      vertex 21.575 59.531 -5
    endloop
  endfacet
  facet normal 0 0 -1
    outer loop
      vertex 17.096 55.044 -5
      vertex 21.575 59.531 -5
      vertex 24.394 58.908 -5
    endloop
  endfacet
  facet normal 0 0 -1
    outer loop
      vertex 21.167 54.916 -5
      vertex 24.394 58.908 -5
      vertex 27.058 57.851 -5
    endloop
  endfacet
  facet normal 0 0 -1
    outer loop
      vertex 23.576 54.203 -5
      vertex 27.058 57.851 -5
      vertex 29.511 56.388 -5
    endloop
  endfacet
  facet normal 0 0 -1
    outer loop
      vertex 25.732 53.034 -5
      vertex 29.511 56.388 -5
      vertex 31.705 54.541 -5
    endloop
  endfacet
  facet normal 0 0 -1
    outer loop
      vertex 27.615 51.441 -5
      vertex 31.705 54.541 -5
      vertex 33.587 52.341 -5
    endloop
  endfacet
  facet normal 0 0 -1
    outer loop
      vertex 29.202 49.459 -5
      vertex 33.587 52.341 -5
      vertex 35.108 49.808 -5
    endloop
  endfacet
  facet normal 0 0 -1
    outer loop
      vertex 30.475 47.118 -5
      vertex 35.643 48.641 -5
      vertex 36.149 47.435 -5
    endloop
  endfacet
  facet normal 0 0 -1
    outer loop
      vertex 31.414 44.45 -5
      vertex 36.829 45.461 -5
      vertex 37.439 41.921 -5
    endloop
  endfacet
  facet normal 0 0 -1
    outer loop
      vertex 32.202 38.264 -5
      vertex 37.439 41.921 -5
      vertex 37.616 37.961 -5
    endloop
  endfacet
  facet normal 0 0 -1
    outer loop
      vertex 32.117 35.614 -5
      vertex 37.616 37.961 -5
      vertex 37.366 33.992 -5
    endloop
  endfacet
  facet normal 0 0 -1
    outer loop
      vertex 31.8 33.309 -5
      vertex 37.366 33.992 -5
      vertex 36.689 30.419 -5
    endloop
  endfacet
  facet normal 0 0 -1
    outer loop
      vertex 31.217 31.189 -5
      vertex 36.689 30.419 -5
      vertex 35.621 27.368 -5
    endloop
  endfacet
  facet normal 0 0 -1
    outer loop
      vertex 30.339 29.092 -5
      vertex 35.621 27.368 -5
      vertex 34.206 24.694 -5
    endloop
  endfacet
  facet normal 0 0 -1
    outer loop
      vertex 28.138 25.754 -5
      vertex 34.206 24.694 -5
      vertex 32.451 22.41 -5
    endloop
  endfacet
  facet normal 0 0 -1
    outer loop
      vertex 25.29 23.363 -5
      vertex 30.371 20.52 -5
      vertex 27.973 19.036 -5
    endloop
  endfacet
  facet normal 0 0 -1
    outer loop
      vertex 21.896 21.989 -5
      vertex 27.973 19.036 -5
      vertex 25.27 17.966 -5
    endloop
  endfacet
  facet normal 0 0 -1
    outer loop
      vertex 18.062 21.699 -5
      vertex 25.27 17.966 -5
      vertex 22.273 17.316 -5
    endloop
  endfacet
  facet normal 0 0 -1
    outer loop
      vertex 14.5 22.421 -5
      vertex 22.273 17.316 -5
      vertex 18.994 17.097 -5
    endloop
  endfacet
  facet normal 0 0 -1
    outer loop
      vertex 11.436 24.087 -5
      vertex 18.994 17.097 -5
      vertex 15.153 17.507 -5
    endloop
  endfacet
  facet normal 0 0 -1
    outer loop
      vertex 0 39.478 -5
      vertex 15.153 17.507 -5
      vertex 11.796 18.734 -5
    endloop
  endfacet
  facet normal 0 0 -1
    outer loop
      vertex 0 39.478 -5
      vertex 11.796 18.734 -5
      vertex 8.904 20.789 -5
    endloop
  endfacet
  facet normal 0 0 -1
    outer loop
      vertex 0 39.478 -5
      vertex 8.904 20.789 -5
      vertex 6.463 23.673 -5
    endloop
  endfacet
  facet normal 0 0 -1
    outer loop
      vertex 0 39.478 -5
      vertex 6.463 23.673 -5
      vertex 5.278 25.423 -5
    endloop
  endfacet
  facet normal 0 0 -1
    outer loop
      vertex 0 39.478 -5
      vertex 5.278 25.423 -5
      vertex 5.475 20.711 -5
    endloop
  endfacet
  facet normal 0 0 -1
    outer loop
      vertex 5.475 20.711 -5
      vertex 5.847 15.96 -5
      vertex 0 39.478 -5
    endloop
  endfacet
  facet normal 0 0 -1
    outer loop
      vertex 5.847 15.96 -5
      vertex 6.617 12.404 -5
      vertex 0 39.478 -5
    endloop
  endfacet
  facet normal 0 0 -1
    outer loop
      vertex 21.167 54.916 -5
      vertex 27.058 57.851 -5
      vertex 23.576 54.203 -5
    endloop
  endfacet
  facet normal 0 0 -1
    outer loop
      vertex 29.45 9.309 -5
      vertex 33.5 12.864 -5
      vertex 28.024 7.587 -5
    endloop
  endfacet
  facet normal 0 0 -1
    outer loop
      vertex 5.588 38.406 -5
      vertex 0 39.478 -5
      vertex 6.142 43.51 -5
    endloop
  endfacet
  facet normal 0 0 -1
    outer loop
      vertex 30.395 11.369 -5
      vertex 33.5 12.864 -5
      vertex 29.45 9.309 -5
    endloop
  endfacet
  facet normal 0 0 -1
    outer loop
      vertex 33.5 12.864 -5
      vertex 35.005 12.854 -5
      vertex 28.024 7.587 -5
    endloop
  endfacet
  facet normal 0 0 -1
    outer loop
      vertex 28.024 7.587 -5
      vertex 35.005 12.854 -5
      vertex 35.785 12.78 -5
    endloop
  endfacet
  facet normal 0 0 -1
    outer loop
      vertex 28.024 7.587 -5
      vertex 35.785 12.78 -5
      vertex 26.133 6.226 -5
    endloop
  endfacet
  facet normal 0 0 -1
    outer loop
      vertex 26.133 6.226 -5
      vertex 35.785 12.78 -5
      vertex 36.079 12.579 -5
    endloop
  endfacet
  facet normal 0 0 -1
    outer loop
      vertex 36.079 12.579 -5
      vertex 36.124 12.187 -5
      vertex 26.133 6.226 -5
    endloop
  endfacet
  facet normal 0 0 -1
    outer loop
      vertex 26.133 6.226 -5
      vertex 36.124 12.187 -5
      vertex 35.956 11.108 -5
    endloop
  endfacet
  facet normal 0 0 -1
    outer loop
      vertex 26.133 6.226 -5
      vertex 35.956 11.108 -5
      vertex 35.527 9.648 -5
    endloop
  endfacet
  facet normal 0 0 -1
    outer loop
      vertex 26.133 6.226 -5
      vertex 35.527 9.648 -5
      vertex 23.792 5.245 -5
    endloop
  endfacet
  facet normal 0 0 -1
    outer loop
      vertex 23.792 5.245 -5
      vertex 35.527 9.648 -5
      vertex 34.946 8.124 -5
    endloop
  endfacet
  facet normal 0 0 -1
    outer loop
      vertex 23.792 5.245 -5
      vertex 34.946 8.124 -5
      vertex 34.319 6.853 -5
    endloop
  endfacet
  facet normal 0 0 -1
    outer loop
      vertex 23.792 5.245 -5
      vertex 34.319 6.853 -5
      vertex 19.889 4.519 -5
    endloop
  endfacet
  facet normal 0 0 -1
    outer loop
      vertex 19.889 4.519 -5
      vertex 34.319 6.853 -5
      vertex 32.75 4.87 -5
    endloop
  endfacet
  facet normal 0 0 -1
    outer loop
      vertex 19.889 4.519 -5
      vertex 32.75 4.87 -5
      vertex 30.522 3.094 -5
    endloop
  endfacet
  facet normal 0 0 -1
    outer loop
      vertex 19.889 4.519 -5
      vertex 30.522 3.094 -5
      vertex 16.072 4.681 -5
    endloop
  endfacet
  facet normal 0 0 -1
    outer loop
      vertex 16.072 4.681 -5
      vertex 30.522 3.094 -5
      vertex 27.785 1.623 -5
    endloop
  endfacet
  facet normal 0 0 -1
    outer loop
      vertex 16.072 4.681 -5
      vertex 27.785 1.623 -5
      vertex 24.694 0.559 -5
    endloop
  endfacet
  facet normal 0 0 -1
    outer loop
      vertex 16.072 4.681 -5
      vertex 24.694 0.559 -5
      vertex 12.615 5.69 -5
    endloop
  endfacet
  facet normal 0 0 -1
    outer loop
      vertex 12.615 5.69 -5
      vertex 24.694 0.559 -5
      vertex 21.832 0.125 -5
    endloop
  endfacet
  facet normal 0 0 -1
    outer loop
      vertex 12.615 5.69 -5
      vertex 21.832 0.125 -5
      vertex 18.313 0.003 -5
    endloop
  endfacet
  facet normal 0 0 -1
    outer loop
      vertex 12.615 5.69 -5
      vertex 18.313 0.003 -5
      vertex 9.794 7.502 -5
    endloop
  endfacet
  facet normal 0 0 -1
    outer loop
      vertex 9.794 7.502 -5
      vertex 18.313 0.003 -5
      vertex 14.808 0.187 -5
    endloop
  endfacet
  facet normal 0 0 -1
    outer loop
      vertex 9.794 7.502 -5
      vertex 14.808 0.187 -5
      vertex 7.896 9.697 -5
    endloop
  endfacet
  facet normal 0 0 -1
    outer loop
      vertex 7.896 9.697 -5
      vertex 14.808 0.187 -5
      vertex 11.994 0.672 -5
    endloop
  endfacet
  facet normal 0 0 -1
    outer loop
      vertex 7.896 9.697 -5
      vertex 11.994 0.672 -5
      vertex 6.617 12.404 -5
    endloop
  endfacet
  facet normal 0 0 -1
    outer loop
      vertex 6.617 12.404 -5
      vertex 11.994 0.672 -5
      vertex 9.798 1.429 -5
    endloop
  endfacet
  facet normal 0 0 -1
    outer loop
      vertex 6.617 12.404 -5
      vertex 9.798 1.429 -5
      vertex 7.933 2.339 -5
    endloop
  endfacet
  facet normal 0 0 -1
    outer loop
      vertex 6.617 12.404 -5
      vertex 7.933 2.339 -5
      vertex 0 39.478 -5
    endloop
  endfacet
  facet normal 0 0 -1
    outer loop
      vertex 0 39.478 -5
      vertex 7.933 2.339 -5
      vertex 6.307 3.459 -5
    endloop
  endfacet
  facet normal 0 0 -1
    outer loop
      vertex 0 39.478 -5
      vertex 6.307 3.459 -5
      vertex 4.826 4.849 -5
    endloop
  endfacet
  facet normal 0 0 -1
    outer loop
      vertex 0 39.478 -5
      vertex 4.826 4.849 -5
      vertex 3.04 7.173 -5
    endloop
  endfacet
  facet normal 0 0 -1
    outer loop
      vertex 0 39.478 -5
      vertex 3.04 7.173 -5
      vertex 1.717 9.905 -5
    endloop
  endfacet
  facet normal 0 0 -1
    outer loop
      vertex 0 39.478 -5
      vertex 1.717 9.905 -5
      vertex 0.813 13.173 -5
    endloop
  endfacet
  facet normal 0 0 -1
    outer loop
      vertex 0 39.478 -5
      vertex 0.813 13.173 -5
      vertex 0.282 17.097 -5
    endloop
  endfacet
  facet normal 0 0 -1
    outer loop
      vertex 0 39.478 -5
      vertex 0.282 17.097 -5
      vertex 0.229 18.139 -5
    endloop
  endfacet
  facet normal 0 0 -1
    outer loop
      vertex 0 39.478 -5
      vertex 0.229 18.139 -5
      vertex 0.178 19.866 -5
    endloop
  endfacet
  facet normal 0 0 -1
    outer loop
      vertex 0 39.478 -5
      vertex 0.178 19.866 -5
      vertex 0.13 22.185 -5
    endloop
  endfacet
  facet normal 0 0 -1
    outer loop
      vertex 0 39.478 -5
      vertex 0.13 22.185 -5
      vertex 0.087 25.007 -5
    endloop
  endfacet
  facet normal 0 0 -1
    outer loop
      vertex 0 39.478 -5
      vertex 0.087 25.007 -5
      vertex 0.051 28.24 -5
    endloop
  endfacet
  facet normal 0 0 -1
    outer loop
      vertex 0 39.478 -5
      vertex 0.051 28.24 -5
      vertex 0.023 31.791 -5
    endloop
  endfacet
  facet normal 0 0 -1
    outer loop
      vertex 0 39.478 -5
      vertex 0.023 31.791 -5
      vertex 0.006 35.567 -5
    endloop
  endfacet
  facet normal 0 0 -1
    outer loop
      vertex 5.646 36.003 -5
      vertex 0 39.478 -5
      vertex 5.588 38.406 -5
    endloop
  endfacet
  facet normal 0 0 -1
    outer loop
      vertex 5.887 33.944 -5
      vertex 0 39.478 -5
      vertex 5.646 36.003 -5
    endloop
  endfacet
  facet normal 0 0 -1
    outer loop
      vertex 6.346 32.028 -5
      vertex 0 39.478 -5
      vertex 5.887 33.944 -5
    endloop
  endfacet
  facet normal 0 0 -1
    outer loop
      vertex 7.056 30.052 -5
      vertex 0 39.478 -5
      vertex 6.346 32.028 -5
    endloop
  endfacet
  facet normal 0 0 -1
    outer loop
      vertex 11.436 24.087 -5
      vertex 15.153 17.507 -5
      vertex 8.934 26.647 -5
    endloop
  endfacet
  facet normal 0 0 -1
    outer loop
      vertex 0 39.478 -5
      vertex 7.056 30.052 -5
      vertex 8.934 26.647 -5
    endloop
  endfacet
  facet normal 0 0 -1
    outer loop
      vertex 0 39.478 -5
      vertex 8.934 26.647 -5
      vertex 15.153 17.507 -5
    endloop
  endfacet
  facet normal 0 0 -1
    outer loop
      vertex 14.5 22.421 -5
      vertex 18.994 17.097 -5
      vertex 11.436 24.087 -5
    endloop
  endfacet
  facet normal 0 0 -1
    outer loop
      vertex 18.062 21.699 -5
      vertex 22.273 17.316 -5
      vertex 14.5 22.421 -5
    endloop
  endfacet
  facet normal 0 0 -1
    outer loop
      vertex 21.896 21.989 -5
      vertex 25.27 17.966 -5
      vertex 18.062 21.699 -5
    endloop
  endfacet
  facet normal 0 0 -1
    outer loop
      vertex 28.138 25.754 -5
      vertex 32.451 22.41 -5
      vertex 30.371 20.52 -5
    endloop
  endfacet
  facet normal 0 0 -1
    outer loop
      vertex 25.29 23.363 -5
      vertex 27.973 19.036 -5
      vertex 21.896 21.989 -5
    endloop
  endfacet
  facet normal 0 0 -1
    outer loop
      vertex 28.138 25.754 -5
      vertex 30.371 20.52 -5
      vertex 25.29 23.363 -5
    endloop
  endfacet
  facet normal 0 0 -1
    outer loop
      vertex 30.475 47.118 -5
      vertex 36.829 45.461 -5
      vertex 31.414 44.45 -5
    endloop
  endfacet
  facet normal 0 0 -1
    outer loop
      vertex 32.117 35.614 -5
      vertex 37.366 33.992 -5
      vertex 31.8 33.309 -5
    endloop
  endfacet
  facet normal 0 0 -1
    outer loop
      vertex 31.8 33.309 -5
      vertex 36.689 30.419 -5
      vertex 31.217 31.189 -5
    endloop
  endfacet
  facet normal 0 0 -1
    outer loop
      vertex 31.995 41.488 -5
      vertex 37.439 41.921 -5
      vertex 32.202 38.264 -5
    endloop
  endfacet
  facet normal 0 0 -1
    outer loop
      vertex 31.217 31.189 -5
      vertex 35.621 27.368 -5
      vertex 30.339 29.092 -5
    endloop
  endfacet
  facet normal 0 0 -1
    outer loop
      vertex 30.339 29.092 -5
      vertex 34.206 24.694 -5
      vertex 28.138 25.754 -5
    endloop
  endfacet
  facet normal 0 0 -1
    outer loop
      vertex 17.096 55.044 -5
      vertex 24.394 58.908 -5
      vertex 21.167 54.916 -5
    endloop
  endfacet
  facet normal 0 0 -1
    outer loop
      vertex 13.39 53.883 -5
      vertex 21.575 59.531 -5
      vertex 17.096 55.044 -5
    endloop
  endfacet
  facet normal 0 0 -1
    outer loop
      vertex 10.236 51.53 -5
      vertex 18.646 59.695 -5
      vertex 13.39 53.883 -5
    endloop
  endfacet
  facet normal 0 0 -1
    outer loop
      vertex 15.663 59.374 -5
      vertex 18.646 59.695 -5
      vertex 10.236 51.53 -5
    endloop
  endfacet
  facet normal 0 0 -1
    outer loop
      vertex 15.663 59.374 -5
      vertex 10.236 51.53 -5
      vertex 0 39.478 -5
    endloop
  endfacet
  facet normal 0 0 -1
    outer loop
      vertex 6.142 43.51 -5
      vertex 0 39.478 -5
      vertex 7.818 48.085 -5
    endloop
  endfacet
  facet normal 0 0 -1
    outer loop
      vertex 10.236 51.53 -5
      vertex 7.818 48.085 -5
      vertex 0 39.478 -5
    endloop
  endfacet
  facet normal 0 0 -1
    outer loop
      vertex 33.5 12.864 -5
      vertex 30.395 11.369 -5
      vertex 30.875 12.864 -5
    endloop
  endfacet
  facet normal 0 0 -1
    outer loop
      vertex 23.576 54.203 -5
      vertex 29.511 56.388 -5
      vertex 25.732 53.034 -5
    endloop
  endfacet
  facet normal 0 0 -1
    outer loop
      vertex 25.732 53.034 -5
      vertex 31.705 54.541 -5
      vertex 27.615 51.441 -5
    endloop
  endfacet
  facet normal 0 0 -1
    outer loop
      vertex 27.615 51.441 -5
      vertex 33.587 52.341 -5
      vertex 29.202 49.459 -5
    endloop
  endfacet
  facet normal 0 0 -1
    outer loop
      vertex 29.202 49.459 -5
      vertex 35.108 49.808 -5
      vertex 35.643 48.641 -5
    endloop
  endfacet
  facet normal 0 0 -1
    outer loop
      vertex 29.202 49.459 -5
      vertex 35.643 48.641 -5
      vertex 30.475 47.118 -5
    endloop
  endfacet
  facet normal 0 0 -1
    outer loop
      vertex 30.475 47.118 -5
      vertex 36.149 47.435 -5
      vertex 36.565 46.328 -5
    endloop
  endfacet
  facet normal 0 0 -1
    outer loop
      vertex 30.475 47.118 -5
      vertex 36.565 46.328 -5
      vertex 36.829 45.461 -5
    endloop
  endfacet
  facet normal 0 0 -1
    outer loop
      vertex 32.202 38.264 -5
      vertex 37.616 37.961 -5
      vertex 32.117 35.614 -5
    endloop
  endfacet
  facet normal 0 0 -1
    outer loop
      vertex 31.414 44.45 -5
      vertex 37.439 41.921 -5
      vertex 31.995 41.488 -5
    endloop
  endfacet
  facet normal -0.106992 0.99426 0
    outer loop
      vertex 15.663 59.374 5
      vertex 18.646 59.695 5
      vertex 15.663 59.374 -5
    endloop
  endfacet
  facet normal -0.106992 0.99426 0
    outer loop
      vertex 15.663 59.374 -5
      vertex 18.646 59.695 5
      vertex 18.646 59.695 -5
    endloop
  endfacet
  facet normal 0 0 1
    outer loop
      vertex 0 39.478 5
      vertex 0.006 35.567 5
      vertex 0.023 31.791 5
    endloop
  endfacet
  facet normal 0 0 1
    outer loop
      vertex 0.087 25.007 5
      vertex 0 39.478 5
      vertex 0.051 28.24 5
    endloop
  endfacet
  facet normal 0 0 1
    outer loop
      vertex 0.051 28.24 5
      vertex 0 39.478 5
      vertex 0.023 31.791 5
    endloop
  endfacet
  facet normal 0 0 1
    outer loop
      vertex 0.13 22.185 5
      vertex 0 39.478 5
      vertex 0.087 25.007 5
    endloop
  endfacet
  facet normal 0 0 1
    outer loop
      vertex 0.178 19.866 5
      vertex 0 39.478 5
      vertex 0.13 22.185 5
    endloop
  endfacet
  facet normal 0 0 1
    outer loop
      vertex 0.229 18.139 5
      vertex 0 39.478 5
      vertex 0.178 19.866 5
    endloop
  endfacet
  facet normal 0 0 1
    outer loop
      vertex 0.282 17.097 5
      vertex 0 39.478 5
      vertex 0.229 18.139 5
    endloop
  endfacet
  facet normal 0 0 1
    outer loop
      vertex 0.813 13.173 5
      vertex 0 39.478 5
      vertex 0.282 17.097 5
    endloop
  endfacet
  facet normal 0 0 1
    outer loop
      vertex 1.717 9.905 5
      vertex 0 39.478 5
      vertex 0.813 13.173 5
    endloop
  endfacet
  facet normal 0 0 1
    outer loop
      vertex 3.04 7.173 5
      vertex 0 39.478 5
      vertex 1.717 9.905 5
    endloop
  endfacet
  facet normal 0 0 1
    outer loop
      vertex 4.826 4.849 5
      vertex 0 39.478 5
      vertex 3.04 7.173 5
    endloop
  endfacet
  facet normal 0 0 1
    outer loop
      vertex 6.307 3.459 5
      vertex 0 39.478 5
      vertex 4.826 4.849 5
    endloop
  endfacet
  facet normal 0 0 1
    outer loop
      vertex 7.933 2.339 5
      vertex 0 39.478 5
      vertex 6.307 3.459 5
    endloop
  endfacet
  facet normal 0 0 1
    outer loop
      vertex 6.617 12.404 5
      vertex 0 39.478 5
      vertex 7.933 2.339 5
    endloop
  endfacet
  facet normal 0 0 1
    outer loop
      vertex 5.475 20.711 5
      vertex 5.278 25.423 5
      vertex 0 39.478 5
    endloop
  endfacet
  facet normal 0 0 1
    outer loop
      vertex 7.896 9.697 5
      vertex 6.617 12.404 5
      vertex 9.798 1.429 5
    endloop
  endfacet
  facet normal 0 0 1
    outer loop
      vertex 8.934 26.647 5
      vertex 7.056 30.052 5
      vertex 0 39.478 5
    endloop
  endfacet
  facet normal 0 0 1
    outer loop
      vertex 8.904 20.789 5
      vertex 11.796 18.734 5
      vertex 0 39.478 5
    endloop
  endfacet
  facet normal 0 0 1
    outer loop
      vertex 23.792 5.245 5
      vertex 19.889 4.519 5
      vertex 24.694 0.559 5
    endloop
  endfacet
  facet normal 0 0 1
    outer loop
      vertex 18.994 17.097 5
      vertex 22.273 17.316 5
      vertex 14.5 22.421 5
    endloop
  endfacet
  facet normal 0 0 1
    outer loop
      vertex 26.133 6.226 5
      vertex 23.792 5.245 5
      vertex 27.785 1.623 5
    endloop
  endfacet
  facet normal 0 0 1
    outer loop
      vertex 35.005 12.854 5
      vertex 33.5 12.864 5
      vertex 35.956 11.108 5
    endloop
  endfacet
  facet normal 0 0 1
    outer loop
      vertex 36.079 12.579 5
      vertex 35.785 12.78 5
      vertex 36.124 12.187 5
    endloop
  endfacet
  facet normal 0 0 1
    outer loop
      vertex 30.339 29.092 5
      vertex 28.138 25.754 5
      vertex 34.206 24.694 5
    endloop
  endfacet
  facet normal 0 0 1
    outer loop
      vertex 36.124 12.187 5
      vertex 35.005 12.854 5
      vertex 35.956 11.108 5
    endloop
  endfacet
  facet normal 0 0 1
    outer loop
      vertex 35.956 11.108 5
      vertex 33.5 12.864 5
      vertex 35.527 9.648 5
    endloop
  endfacet
  facet normal 0 0 1
    outer loop
      vertex 18.062 21.699 5
      vertex 14.5 22.421 5
      vertex 22.273 17.316 5
    endloop
  endfacet
  facet normal 0 0 1
    outer loop
      vertex 35.527 9.648 5
      vertex 30.875 12.864 5
      vertex 34.946 8.124 5
    endloop
  endfacet
  facet normal 0 0 1
    outer loop
      vertex 34.946 8.124 5
      vertex 30.395 11.369 5
      vertex 34.319 6.853 5
    endloop
  endfacet
  facet normal 0 0 1
    outer loop
      vertex 34.319 6.853 5
      vertex 29.45 9.309 5
      vertex 32.75 4.87 5
    endloop
  endfacet
  facet normal 0 0 1
    outer loop
      vertex 32.75 4.87 5
      vertex 28.024 7.587 5
      vertex 30.522 3.094 5
    endloop
  endfacet
  facet normal 0 0 1
    outer loop
      vertex 30.522 3.094 5
      vertex 26.133 6.226 5
      vertex 27.785 1.623 5
    endloop
  endfacet
  facet normal 0 0 1
    outer loop
      vertex 7.056 30.052 5
      vertex 6.346 32.028 5
      vertex 0 39.478 5
    endloop
  endfacet
  facet normal 0 0 1
    outer loop
      vertex 27.785 1.623 5
      vertex 23.792 5.245 5
      vertex 24.694 0.559 5
    endloop
  endfacet
  facet normal 0 0 1
    outer loop
      vertex 24.694 0.559 5
      vertex 19.889 4.519 5
      vertex 21.832 0.125 5
    endloop
  endfacet
  facet normal 0 0 1
    outer loop
      vertex 18.313 0.003 5
      vertex 16.072 4.681 5
      vertex 14.808 0.187 5
    endloop
  endfacet
  facet normal 0 0 1
    outer loop
      vertex 5.278 25.423 5
      vertex 6.463 23.673 5
      vertex 0 39.478 5
    endloop
  endfacet
  facet normal 0 0 1
    outer loop
      vertex 14.808 0.187 5
      vertex 12.615 5.69 5
      vertex 11.994 0.672 5
    endloop
  endfacet
  facet normal 0 0 1
    outer loop
      vertex 11.994 0.672 5
      vertex 9.794 7.502 5
      vertex 9.798 1.429 5
    endloop
  endfacet
  facet normal 0 0 1
    outer loop
      vertex 9.794 7.502 5
      vertex 7.896 9.697 5
      vertex 9.798 1.429 5
    endloop
  endfacet
  facet normal 0 0 1
    outer loop
      vertex 9.798 1.429 5
      vertex 6.617 12.404 5
      vertex 7.933 2.339 5
    endloop
  endfacet
  facet normal 0 0 1
    outer loop
      vertex 5.847 15.96 5
      vertex 0 39.478 5
      vertex 6.617 12.404 5
    endloop
  endfacet
  facet normal 0 0 1
    outer loop
      vertex 5.847 15.96 5
      vertex 5.475 20.711 5
      vertex 0 39.478 5
    endloop
  endfacet
  facet normal 0 0 1
    outer loop
      vertex 15.153 17.507 5
      vertex 8.934 26.647 5
      vertex 0 39.478 5
    endloop
  endfacet
  facet normal 0 0 1
    outer loop
      vertex 6.463 23.673 5
      vertex 8.904 20.789 5
      vertex 0 39.478 5
    endloop
  endfacet
  facet normal 0 0 1
    outer loop
      vertex 12.615 5.69 5
      vertex 9.794 7.502 5
      vertex 11.994 0.672 5
    endloop
  endfacet
  facet normal 0 0 1
    outer loop
      vertex 15.153 17.507 5
      vertex 11.436 24.087 5
      vertex 8.934 26.647 5
    endloop
  endfacet
  facet normal 0 0 1
    outer loop
      vertex 11.796 18.734 5
      vertex 15.153 17.507 5
      vertex 0 39.478 5
    endloop
  endfacet
  facet normal 0 0 1
    outer loop
      vertex 16.072 4.681 5
      vertex 12.615 5.69 5
      vertex 14.808 0.187 5
    endloop
  endfacet
  facet normal 0 0 1
    outer loop
      vertex 25.27 17.966 5
      vertex 27.973 19.036 5
      vertex 21.896 21.989 5
    endloop
  endfacet
  facet normal 0 0 1
    outer loop
      vertex 6.346 32.028 5
      vertex 5.887 33.944 5
      vertex 0 39.478 5
    endloop
  endfacet
  facet normal 0 0 1
    outer loop
      vertex 5.887 33.944 5
      vertex 5.646 36.003 5
      vertex 0 39.478 5
    endloop
  endfacet
  facet normal 0 0 1
    outer loop
      vertex 14.5 22.421 5
      vertex 11.436 24.087 5
      vertex 18.994 17.097 5
    endloop
  endfacet
  facet normal 0 0 1
    outer loop
      vertex 30.875 12.864 5
      vertex 30.395 11.369 5
      vertex 34.946 8.124 5
    endloop
  endfacet
  facet normal 0 0 1
    outer loop
      vertex 25.29 23.363 5
      vertex 21.896 21.989 5
      vertex 27.973 19.036 5
    endloop
  endfacet
  facet normal 0 0 1
    outer loop
      vertex 30.475 47.118 5
      vertex 36.565 46.328 5
      vertex 36.149 47.435 5
    endloop
  endfacet
  facet normal 0 0 1
    outer loop
      vertex 6.142 43.51 5
      vertex 7.818 48.085 5
      vertex 0 39.478 5
    endloop
  endfacet
  facet normal 0 0 1
    outer loop
      vertex 23.576 54.203 5
      vertex 25.732 53.034 5
      vertex 29.511 56.388 5
    endloop
  endfacet
  facet normal 0 0 1
    outer loop
      vertex 28.138 25.754 5
      vertex 25.29 23.363 5
      vertex 30.371 20.52 5
    endloop
  endfacet
  facet normal 0 0 1
    outer loop
      vertex 21.167 54.916 5
      vertex 23.576 54.203 5
      vertex 27.058 57.851 5
    endloop
  endfacet
  facet normal 0 0 1
    outer loop
      vertex 12.876 58.438 5
      vertex 0 39.478 5
      vertex 15.663 59.374 5
    endloop
  endfacet
  facet normal 0 0 1
    outer loop
      vertex 10.071 56.793 5
      vertex 0 39.478 5
      vertex 12.876 58.438 5
    endloop
  endfacet
  facet normal 0 0 1
    outer loop
      vertex 7.643 54.723 5
      vertex 0 39.478 5
      vertex 10.071 56.793 5
    endloop
  endfacet
  facet normal 0 0 1
    outer loop
      vertex 5.983 52.517 5
      vertex 0 39.478 5
      vertex 7.643 54.723 5
    endloop
  endfacet
  facet normal 0 0 1
    outer loop
      vertex 5.391 51.388 5
      vertex 0 39.478 5
      vertex 5.983 52.517 5
    endloop
  endfacet
  facet normal 0 0 1
    outer loop
      vertex 5.362 55 5
      vertex 0 39.478 5
      vertex 5.391 51.388 5
    endloop
  endfacet
  facet normal 0 0 1
    outer loop
      vertex 5.362 58.584 5
      vertex 0 39.478 5
      vertex 5.362 55 5
    endloop
  endfacet
  facet normal 0 0 1
    outer loop
      vertex 0 58.584 5
      vertex 0 39.478 5
      vertex 5.362 58.584 5
    endloop
  endfacet
  facet normal 0 0 1
    outer loop
      vertex 31.217 31.189 5
      vertex 30.339 29.092 5
      vertex 35.621 27.368 5
    endloop
  endfacet
  facet normal 0 0 1
    outer loop
      vertex 25.732 53.034 5
      vertex 27.615 51.441 5
      vertex 31.705 54.541 5
    endloop
  endfacet
  facet normal 0 0 1
    outer loop
      vertex 13.39 53.883 5
      vertex 17.096 55.044 5
      vertex 21.575 59.531 5
    endloop
  endfacet
  facet normal 0 0 1
    outer loop
      vertex 15.663 59.374 5
      vertex 0 39.478 5
      vertex 7.818 48.085 5
    endloop
  endfacet
  facet normal 0 0 1
    outer loop
      vertex 15.663 59.374 5
      vertex 10.236 51.53 5
      vertex 18.646 59.695 5
    endloop
  endfacet
  facet normal 0 0 1
    outer loop
      vertex 15.663 59.374 5
      vertex 7.818 48.085 5
      vertex 10.236 51.53 5
    endloop
  endfacet
  facet normal 0 0 1
    outer loop
      vertex 18.646 59.695 5
      vertex 13.39 53.883 5
      vertex 21.575 59.531 5
    endloop
  endfacet
  facet normal 0 0 1
    outer loop
      vertex 10.236 51.53 5
      vertex 13.39 53.883 5
      vertex 18.646 59.695 5
    endloop
  endfacet
  facet normal 0 0 1
    outer loop
      vertex 21.575 59.531 5
      vertex 17.096 55.044 5
      vertex 24.394 58.908 5
    endloop
  endfacet
  facet normal 0 0 1
    outer loop
      vertex 30.475 47.118 5
      vertex 31.414 44.45 5
      vertex 36.829 45.461 5
    endloop
  endfacet
  facet normal 0 0 1
    outer loop
      vertex 24.394 58.908 5
      vertex 21.167 54.916 5
      vertex 27.058 57.851 5
    endloop
  endfacet
  facet normal 0 0 1
    outer loop
      vertex 27.058 57.851 5
      vertex 23.576 54.203 5
      vertex 29.511 56.388 5
    endloop
  endfacet
  facet normal 0 0 1
    outer loop
      vertex 29.511 56.388 5
      vertex 25.732 53.034 5
      vertex 31.705 54.541 5
    endloop
  endfacet
  facet normal 0 0 1
    outer loop
      vertex 17.096 55.044 5
      vertex 21.167 54.916 5
      vertex 24.394 58.908 5
    endloop
  endfacet
  facet normal 0 0 1
    outer loop
      vertex 31.705 54.541 5
      vertex 27.615 51.441 5
      vertex 33.587 52.341 5
    endloop
  endfacet
  facet normal 0 0 1
    outer loop
      vertex 33.587 52.341 5
      vertex 29.202 49.459 5
      vertex 35.108 49.808 5
    endloop
  endfacet
  facet normal 0 0 1
    outer loop
      vertex 29.202 49.459 5
      vertex 30.475 47.118 5
      vertex 35.643 48.641 5
    endloop
  endfacet
  facet normal 0 0 1
    outer loop
      vertex 35.643 48.641 5
      vertex 30.475 47.118 5
      vertex 36.149 47.435 5
    endloop
  endfacet
  facet normal 0 0 1
    outer loop
      vertex 36.829 45.461 5
      vertex 31.414 44.45 5
      vertex 37.439 41.921 5
    endloop
  endfacet
  facet normal 0 0 1
    outer loop
      vertex 37.439 41.921 5
      vertex 31.995 41.488 5
      vertex 37.616 37.961 5
    endloop
  endfacet
  facet normal 0 0 1
    outer loop
      vertex 31.995 41.488 5
      vertex 32.202 38.264 5
      vertex 37.616 37.961 5
    endloop
  endfacet
  facet normal 0 0 1
    outer loop
      vertex 37.616 37.961 5
      vertex 32.117 35.614 5
      vertex 37.366 33.992 5
    endloop
  endfacet
  facet normal 0 0 1
    outer loop
      vertex 37.366 33.992 5
      vertex 31.8 33.309 5
      vertex 36.689 30.419 5
    endloop
  endfacet
  facet normal 0 0 1
    outer loop
      vertex 36.689 30.419 5
      vertex 31.217 31.189 5
      vertex 35.621 27.368 5
    endloop
  endfacet
  facet normal 0 0 1
    outer loop
      vertex 27.615 51.441 5
      vertex 29.202 49.459 5
      vertex 33.587 52.341 5
    endloop
  endfacet
  facet normal 0 0 1
    outer loop
      vertex 35.621 27.368 5
      vertex 30.339 29.092 5
      vertex 34.206 24.694 5
    endloop
  endfacet
  facet normal 0 0 1
    outer loop
      vertex 29.202 49.459 5
      vertex 35.643 48.641 5
      vertex 35.108 49.808 5
    endloop
  endfacet
  facet normal 0 0 1
    outer loop
      vertex 34.206 24.694 5
      vertex 28.138 25.754 5
      vertex 32.451 22.41 5
    endloop
  endfacet
  facet normal 0 0 1
    outer loop
      vertex 30.475 47.118 5
      vertex 36.829 45.461 5
      vertex 36.565 46.328 5
    endloop
  endfacet
  facet normal 0 0 1
    outer loop
      vertex 30.371 20.52 5
      vertex 25.29 23.363 5
      vertex 27.973 19.036 5
    endloop
  endfacet
  facet normal 0 0 1
    outer loop
      vertex 29.45 9.309 5
      vertex 28.024 7.587 5
      vertex 32.75 4.87 5
    endloop
  endfacet
  facet normal 0 0 1
    outer loop
      vertex 28.024 7.587 5
      vertex 26.133 6.226 5
      vertex 30.522 3.094 5
    endloop
  endfacet
  facet normal 0 0 1
    outer loop
      vertex 22.273 17.316 5
      vertex 25.27 17.966 5
      vertex 18.062 21.699 5
    endloop
  endfacet
  facet normal 0 0 1
    outer loop
      vertex 19.889 4.519 5
      vertex 18.313 0.003 5
      vertex 21.832 0.125 5
    endloop
  endfacet
  facet normal 0 0 1
    outer loop
      vertex 21.896 21.989 5
      vertex 18.062 21.699 5
      vertex 25.27 17.966 5
    endloop
  endfacet
  facet normal 0 0 1
    outer loop
      vertex 35.785 12.78 5
      vertex 35.005 12.854 5
      vertex 36.124 12.187 5
    endloop
  endfacet
  facet normal 0 0 1
    outer loop
      vertex 33.5 12.864 5
      vertex 30.875 12.864 5
      vertex 35.527 9.648 5
    endloop
  endfacet
  facet normal 0 0 1
    outer loop
      vertex 30.395 11.369 5
      vertex 29.45 9.309 5
      vertex 34.319 6.853 5
    endloop
  endfacet
  facet normal 0 0 1
    outer loop
      vertex 19.889 4.519 5
      vertex 16.072 4.681 5
      vertex 18.313 0.003 5
    endloop
  endfacet
  facet normal 0 0 1
    outer loop
      vertex 15.153 17.507 5
      vertex 18.994 17.097 5
      vertex 11.436 24.087 5
    endloop
  endfacet
  facet normal 0 0 1
    outer loop
      vertex 5.646 36.003 5
      vertex 5.588 38.406 5
      vertex 0 39.478 5
    endloop
  endfacet
  facet normal 0 0 1
    outer loop
      vertex 28.138 25.754 5
      vertex 30.371 20.52 5
      vertex 32.451 22.41 5
    endloop
  endfacet
  facet normal 0 0 1
    outer loop
      vertex 32.117 35.614 5
      vertex 31.8 33.309 5
      vertex 37.366 33.992 5
    endloop
  endfacet
  facet normal 0 0 1
    outer loop
      vertex 31.414 44.45 5
      vertex 31.995 41.488 5
      vertex 37.439 41.921 5
    endloop
  endfacet
  facet normal 0 0 1
    outer loop
      vertex 32.202 38.264 5
      vertex 32.117 35.614 5
      vertex 37.616 37.961 5
    endloop
  endfacet
  facet normal 0 0 1
    outer loop
      vertex 31.8 33.309 5
      vertex 31.217 31.189 5
      vertex 36.689 30.419 5
    endloop
  endfacet
  facet normal 0 0 1
    outer loop
      vertex 5.588 38.406 5
      vertex 6.142 43.51 5
      vertex 0 39.478 5
    endloop
  endfacet
  facet normal -0.648776 0.76098 0
    outer loop
      vertex 7.643 54.723 5
      vertex 10.071 56.793 5
      vertex 7.643 54.723 -5
    endloop
  endfacet
  facet normal -0.648776 0.76098 0
    outer loop
      vertex 7.643 54.723 -5
      vertex 10.071 56.793 5
      vertex 10.071 56.793 -5
    endloop
  endfacet
  facet normal -0.999999 -0.00153413 0
    outer loop
      vertex 0.006 35.567 -5
      vertex 0.006 35.567 5
      vertex 0 39.478 -5
    endloop
  endfacet
  facet normal -0.999999 -0.00153413 0
    outer loop
      vertex 0 39.478 -5
      vertex 0.006 35.567 5
      vertex 0 39.478 5
    endloop
  endfacet
  facet normal -1 0 0
    outer loop
      vertex 0 39.478 5
      vertex 0 58.584 5
      vertex 0 39.478 -5
    endloop
  endfacet
  facet normal -1 0 0
    outer loop
      vertex 0 39.478 -5
      vertex 0 58.584 5
      vertex 0 58.584 -5
    endloop
  endfacet
  facet normal -0.99999 -0.00450207 0
    outer loop
      vertex 0.023 31.791 -5
      vertex 0.023 31.791 5
      vertex 0.006 35.567 -5
    endloop
  endfacet
  facet normal -0.99999 -0.00450207 0
    outer loop
      vertex 0.006 35.567 -5
      vertex 0.023 31.791 5
      vertex 0.006 35.567 5
    endloop
  endfacet
  facet normal -0.999969 -0.00788486 0
    outer loop
      vertex 0.051 28.24 -5
      vertex 0.051 28.24 5
      vertex 0.023 31.791 -5
    endloop
  endfacet
  facet normal -0.999969 -0.00788486 0
    outer loop
      vertex 0.023 31.791 -5
      vertex 0.051 28.24 5
      vertex 0.023 31.791 5
    endloop
  endfacet
  facet normal -0.999938 -0.0111345 0
    outer loop
      vertex 0.087 25.007 -5
      vertex 0.087 25.007 5
      vertex 0.051 28.24 -5
    endloop
  endfacet
  facet normal -0.999938 -0.0111345 0
    outer loop
      vertex 0.051 28.24 -5
      vertex 0.087 25.007 5
      vertex 0.051 28.24 5
    endloop
  endfacet
  facet normal -0.999884 -0.0152357 0
    outer loop
      vertex 0.13 22.185 -5
      vertex 0.13 22.185 5
      vertex 0.087 25.007 -5
    endloop
  endfacet
  facet normal -0.999884 -0.0152357 0
    outer loop
      vertex 0.087 25.007 -5
      vertex 0.13 22.185 5
      vertex 0.087 25.007 5
    endloop
  endfacet
  facet normal -0.999786 -0.0206941 0
    outer loop
      vertex 0.178 19.866 -5
      vertex 0.178 19.866 5
      vertex 0.13 22.185 -5
    endloop
  endfacet
  facet normal -0.999786 -0.0206941 0
    outer loop
      vertex 0.13 22.185 -5
      vertex 0.178 19.866 5
      vertex 0.13 22.185 5
    endloop
  endfacet
  facet normal -0.999564 -0.0295181 0
    outer loop
      vertex 0.229 18.139 -5
      vertex 0.229 18.139 5
      vertex 0.178 19.866 -5
    endloop
  endfacet
  facet normal -0.999564 -0.0295181 0
    outer loop
      vertex 0.178 19.866 -5
      vertex 0.229 18.139 5
      vertex 0.178 19.866 5
    endloop
  endfacet
  facet normal -0.998709 -0.0507981 0
    outer loop
      vertex 0.282 17.097 -5
      vertex 0.282 17.097 5
      vertex 0.229 18.139 -5
    endloop
  endfacet
  facet normal -0.998709 -0.0507981 0
    outer loop
      vertex 0.229 18.139 -5
      vertex 0.282 17.097 5
      vertex 0.229 18.139 5
    endloop
  endfacet
  facet normal -0.990968 -0.134099 0
    outer loop
      vertex 0.813 13.173 -5
      vertex 0.813 13.173 5
      vertex 0.282 17.097 -5
    endloop
  endfacet
  facet normal -0.990968 -0.134099 0
    outer loop
      vertex 0.282 17.097 -5
      vertex 0.813 13.173 5
      vertex 0.282 17.097 5
    endloop
  endfacet
  facet normal -0.963805 -0.266609 0
    outer loop
      vertex 1.717 9.905 -5
      vertex 1.717 9.905 5
      vertex 0.813 13.173 -5
    endloop
  endfacet
  facet normal -0.963805 -0.266609 0
    outer loop
      vertex 0.813 13.173 -5
      vertex 1.717 9.905 5
      vertex 0.813 13.173 5
    endloop
  endfacet
  facet normal -0.900022 -0.435845 0
    outer loop
      vertex 3.04 7.173 -5
      vertex 3.04 7.173 5
      vertex 1.717 9.905 -5
    endloop
  endfacet
  facet normal -0.900022 -0.435845 0
    outer loop
      vertex 1.717 9.905 -5
      vertex 3.04 7.173 5
      vertex 1.717 9.905 5
    endloop
  endfacet
  facet normal -0.792903 -0.609348 0
    outer loop
      vertex 4.826 4.849 -5
      vertex 4.826 4.849 5
      vertex 3.04 7.173 -5
    endloop
  endfacet
  facet normal -0.792903 -0.609348 0
    outer loop
      vertex 3.04 7.173 -5
      vertex 4.826 4.849 5
      vertex 3.04 7.173 5
    endloop
  endfacet
  facet normal -0.68435 -0.729153 0
    outer loop
      vertex 4.826 4.849 -5
      vertex 6.307 3.459 -5
      vertex 6.307 3.459 5
    endloop
  endfacet
  facet normal -0.68435 -0.729153 0
    outer loop
      vertex 4.826 4.849 5
      vertex 4.826 4.849 -5
      vertex 6.307 3.459 5
    endloop
  endfacet
  facet normal -0.567259 -0.823539 0
    outer loop
      vertex 6.307 3.459 -5
      vertex 7.933 2.339 -5
      vertex 7.933 2.339 5
    endloop
  endfacet
  facet normal -0.567259 -0.823539 0
    outer loop
      vertex 6.307 3.459 5
      vertex 6.307 3.459 -5
      vertex 7.933 2.339 5
    endloop
  endfacet
  facet normal -0.438519 -0.898722 0
    outer loop
      vertex 7.933 2.339 -5
      vertex 9.798 1.429 -5
      vertex 9.798 1.429 5
    endloop
  endfacet
  facet normal -0.438519 -0.898722 0
    outer loop
      vertex 7.933 2.339 5
      vertex 7.933 2.339 -5
      vertex 9.798 1.429 5
    endloop
  endfacet
  facet normal -0.325898 -0.945405 0
    outer loop
      vertex 9.798 1.429 -5
      vertex 11.994 0.672 -5
      vertex 11.994 0.672 5
    endloop
  endfacet
  facet normal -0.325898 -0.945405 0
    outer loop
      vertex 9.798 1.429 5
      vertex 9.798 1.429 -5
      vertex 11.994 0.672 5
    endloop
  endfacet
  facet normal -0.169848 -0.98547 0
    outer loop
      vertex 11.994 0.672 -5
      vertex 14.808 0.187 -5
      vertex 14.808 0.187 5
    endloop
  endfacet
  facet normal -0.169848 -0.98547 0
    outer loop
      vertex 11.994 0.672 5
      vertex 11.994 0.672 -5
      vertex 14.808 0.187 5
    endloop
  endfacet
  facet normal -0.0524242 -0.998625 0
    outer loop
      vertex 14.808 0.187 -5
      vertex 18.313 0.003 -5
      vertex 18.313 0.003 5
    endloop
  endfacet
  facet normal -0.0524242 -0.998625 0
    outer loop
      vertex 14.808 0.187 5
      vertex 14.808 0.187 -5
      vertex 18.313 0.003 5
    endloop
  endfacet
  facet normal 0.0346481 -0.9994 0
    outer loop
      vertex 18.313 0.003 -5
      vertex 21.832 0.125 -5
      vertex 21.832 0.125 5
    endloop
  endfacet
  facet normal 0.0346481 -0.9994 0
    outer loop
      vertex 18.313 0.003 5
      vertex 18.313 0.003 -5
      vertex 21.832 0.125 5
    endloop
  endfacet
  facet normal 0.149928 -0.988697 0
    outer loop
      vertex 21.832 0.125 -5
      vertex 24.694 0.559 -5
      vertex 24.694 0.559 5
    endloop
  endfacet
  facet normal 0.149928 -0.988697 0
    outer loop
      vertex 21.832 0.125 5
      vertex 21.832 0.125 -5
      vertex 24.694 0.559 5
    endloop
  endfacet
  facet normal 0.325482 -0.945548 0
    outer loop
      vertex 24.694 0.559 -5
      vertex 27.785 1.623 -5
      vertex 27.785 1.623 5
    endloop
  endfacet
  facet normal 0.325482 -0.945548 0
    outer loop
      vertex 24.694 0.559 5
      vertex 24.694 0.559 -5
      vertex 27.785 1.623 5
    endloop
  endfacet
  facet normal 0.473409 -0.880843 0
    outer loop
      vertex 27.785 1.623 -5
      vertex 30.522 3.094 -5
      vertex 30.522 3.094 5
    endloop
  endfacet
  facet normal 0.473409 -0.880843 0
    outer loop
      vertex 27.785 1.623 5
      vertex 27.785 1.623 -5
      vertex 30.522 3.094 5
    endloop
  endfacet
  facet normal 0.623324 -0.781963 0
    outer loop
      vertex 30.522 3.094 -5
      vertex 32.75 4.87 -5
      vertex 32.75 4.87 5
    endloop
  endfacet
  facet normal 0.623324 -0.781963 0
    outer loop
      vertex 30.522 3.094 5
      vertex 30.522 3.094 -5
      vertex 32.75 4.87 5
    endloop
  endfacet
  facet normal 0.784214 -0.62049 0
    outer loop
      vertex 32.75 4.87 -5
      vertex 34.319 6.853 -5
      vertex 34.319 6.853 5
    endloop
  endfacet
  facet normal 0.784214 -0.62049 0
    outer loop
      vertex 32.75 4.87 5
      vertex 32.75 4.87 -5
      vertex 34.319 6.853 5
    endloop
  endfacet
  facet normal 0.896813 -0.442409 0
    outer loop
      vertex 34.319 6.853 -5
      vertex 34.946 8.124 -5
      vertex 34.946 8.124 5
    endloop
  endfacet
  facet normal 0.896813 -0.442409 0
    outer loop
      vertex 34.319 6.853 5
      vertex 34.319 6.853 -5
      vertex 34.946 8.124 5
    endloop
  endfacet
  facet normal 0.9344 -0.356225 0
    outer loop
      vertex 34.946 8.124 -5
      vertex 35.527 9.648 -5
      vertex 35.527 9.648 5
    endloop
  endfacet
  facet normal 0.9344 -0.356225 0
    outer loop
      vertex 34.946 8.124 5
      vertex 34.946 8.124 -5
      vertex 35.527 9.648 5
    endloop
  endfacet
  facet normal 0.959439 -0.281917 0
    outer loop
      vertex 35.527 9.648 -5
      vertex 35.956 11.108 -5
      vertex 35.956 11.108 5
    endloop
  endfacet
  facet normal 0.959439 -0.281917 0
    outer loop
      vertex 35.527 9.648 5
      vertex 35.527 9.648 -5
      vertex 35.956 11.108 5
    endloop
  endfacet
  facet normal 0.988095 -0.153846 0
    outer loop
      vertex 35.956 11.108 -5
      vertex 36.124 12.187 -5
      vertex 36.124 12.187 5
    endloop
  endfacet
  facet normal 0.988095 -0.153846 0
    outer loop
      vertex 35.956 11.108 5
      vertex 35.956 11.108 -5
      vertex 36.124 12.187 5
    endloop
  endfacet
  facet normal 0.993475 0.114047 0
    outer loop
      vertex 36.079 12.579 -5
      vertex 36.079 12.579 5
      vertex 36.124 12.187 5
    endloop
  endfacet
  facet normal 0.993475 0.114047 0
    outer loop
      vertex 36.124 12.187 -5
      vertex 36.079 12.579 -5
      vertex 36.124 12.187 5
    endloop
  endfacet
  facet normal 0.564382 0.825514 0
    outer loop
      vertex 35.785 12.78 5
      vertex 36.079 12.579 5
      vertex 35.785 12.78 -5
    endloop
  endfacet
  facet normal 0.564382 0.825514 0
    outer loop
      vertex 35.785 12.78 -5
      vertex 36.079 12.579 5
      vertex 36.079 12.579 -5
    endloop
  endfacet
  facet normal 0.0944477 0.99553 0
    outer loop
      vertex 35.005 12.854 5
      vertex 35.785 12.78 5
      vertex 35.005 12.854 -5
    endloop
  endfacet
  facet normal 0.0944477 0.99553 0
    outer loop
      vertex 35.005 12.854 -5
      vertex 35.785 12.78 5
      vertex 35.785 12.78 -5
    endloop
  endfacet
  facet normal 0.00664437 0.999978 0
    outer loop
      vertex 33.5 12.864 5
      vertex 35.005 12.854 5
      vertex 33.5 12.864 -5
    endloop
  endfacet
  facet normal 0.00664437 0.999978 0
    outer loop
      vertex 33.5 12.864 -5
      vertex 35.005 12.854 5
      vertex 35.005 12.854 -5
    endloop
  endfacet
  facet normal 0 1 0
    outer loop
      vertex 30.875 12.864 5
      vertex 33.5 12.864 5
      vertex 30.875 12.864 -5
    endloop
  endfacet
  facet normal 0 1 0
    outer loop
      vertex 30.875 12.864 -5
      vertex 33.5 12.864 5
      vertex 33.5 12.864 -5
    endloop
  endfacet
  facet normal -0.952128 0.3057 0
    outer loop
      vertex 30.395 11.369 5
      vertex 30.875 12.864 5
      vertex 30.395 11.369 -5
    endloop
  endfacet
  facet normal -0.952128 0.3057 0
    outer loop
      vertex 30.395 11.369 -5
      vertex 30.875 12.864 5
      vertex 30.875 12.864 -5
    endloop
  endfacet
  facet normal -0.908926 0.416959 0
    outer loop
      vertex 29.45 9.309 5
      vertex 30.395 11.369 5
      vertex 29.45 9.309 -5
    endloop
  endfacet
  facet normal -0.908926 0.416959 0
    outer loop
      vertex 29.45 9.309 -5
      vertex 30.395 11.369 5
      vertex 30.395 11.369 -5
    endloop
  endfacet
  facet normal -0.770197 0.637806 0
    outer loop
      vertex 28.024 7.587 5
      vertex 29.45 9.309 5
      vertex 28.024 7.587 -5
    endloop
  endfacet
  facet normal -0.770197 0.637806 0
    outer loop
      vertex 28.024 7.587 -5
      vertex 29.45 9.309 5
      vertex 29.45 9.309 -5
    endloop
  endfacet
  facet normal -0.584158 0.81164 0
    outer loop
      vertex 26.133 6.226 5
      vertex 28.024 7.587 5
      vertex 26.133 6.226 -5
    endloop
  endfacet
  facet normal -0.584158 0.81164 0
    outer loop
      vertex 26.133 6.226 -5
      vertex 28.024 7.587 5
      vertex 28.024 7.587 -5
    endloop
  endfacet
  facet normal -0.386489 0.922294 0
    outer loop
      vertex 23.792 5.245 5
      vertex 26.133 6.226 5
      vertex 23.792 5.245 -5
    endloop
  endfacet
  facet normal -0.386489 0.922294 0
    outer loop
      vertex 23.792 5.245 -5
      vertex 26.133 6.226 5
      vertex 26.133 6.226 -5
    endloop
  endfacet
  facet normal -0.182874 0.983136 0
    outer loop
      vertex 19.889 4.519 5
      vertex 23.792 5.245 5
      vertex 19.889 4.519 -5
    endloop
  endfacet
  facet normal -0.182874 0.983136 0
    outer loop
      vertex 19.889 4.519 -5
      vertex 23.792 5.245 5
      vertex 23.792 5.245 -5
    endloop
  endfacet
  facet normal 0.0424035 0.999101 0
    outer loop
      vertex 16.072 4.681 5
      vertex 19.889 4.519 5
      vertex 16.072 4.681 -5
    endloop
  endfacet
  facet normal 0.0424035 0.999101 0
    outer loop
      vertex 16.072 4.681 -5
      vertex 19.889 4.519 5
      vertex 19.889 4.519 -5
    endloop
  endfacet
  facet normal 0.280181 0.959947 0
    outer loop
      vertex 12.615 5.69 5
      vertex 16.072 4.681 5
      vertex 12.615 5.69 -5
    endloop
  endfacet
  facet normal 0.280181 0.959947 0
    outer loop
      vertex 12.615 5.69 -5
      vertex 16.072 4.681 5
      vertex 16.072 4.681 -5
    endloop
  endfacet
  facet normal 0.540441 0.841382 0
    outer loop
      vertex 9.794 7.502 5
      vertex 12.615 5.69 5
      vertex 9.794 7.502 -5
    endloop
  endfacet
  facet normal 0.540441 0.841382 0
    outer loop
      vertex 9.794 7.502 -5
      vertex 12.615 5.69 5
      vertex 12.615 5.69 -5
    endloop
  endfacet
  facet normal 0.756428 0.654077 0
    outer loop
      vertex 7.896 9.697 -5
      vertex 7.896 9.697 5
      vertex 9.794 7.502 5
    endloop
  endfacet
  facet normal 0.756428 0.654077 0
    outer loop
      vertex 9.794 7.502 -5
      vertex 7.896 9.697 -5
      vertex 9.794 7.502 5
    endloop
  endfacet
  facet normal 0.904159 0.427196 0
    outer loop
      vertex 6.617 12.404 -5
      vertex 6.617 12.404 5
      vertex 7.896 9.697 5
    endloop
  endfacet
  facet normal 0.904159 0.427196 0
    outer loop
      vertex 7.896 9.697 -5
      vertex 6.617 12.404 -5
      vertex 7.896 9.697 5
    endloop
  endfacet
  facet normal 0.97735 0.211631 0
    outer loop
      vertex 5.847 15.96 -5
      vertex 5.847 15.96 5
      vertex 6.617 12.404 5
    endloop
  endfacet
  facet normal 0.97735 0.211631 0
    outer loop
      vertex 6.617 12.404 -5
      vertex 5.847 15.96 -5
      vertex 6.617 12.404 5
    endloop
  endfacet
  facet normal 0.996949 0.0780604 0
    outer loop
      vertex 5.475 20.711 -5
      vertex 5.475 20.711 5
      vertex 5.847 15.96 5
    endloop
  endfacet
  facet normal 0.996949 0.0780604 0
    outer loop
      vertex 5.847 15.96 -5
      vertex 5.475 20.711 -5
      vertex 5.847 15.96 5
    endloop
  endfacet
  facet normal 0.999127 0.0417717 0
    outer loop
      vertex 5.278 25.423 -5
      vertex 5.278 25.423 5
      vertex 5.475 20.711 5
    endloop
  endfacet
  facet normal 0.999127 0.0417717 0
    outer loop
      vertex 5.475 20.711 -5
      vertex 5.278 25.423 -5
      vertex 5.475 20.711 5
    endloop
  endfacet
  facet normal -0.828025 -0.560691 0
    outer loop
      vertex 6.463 23.673 -5
      vertex 6.463 23.673 5
      vertex 5.278 25.423 -5
    endloop
  endfacet
  facet normal -0.828025 -0.560691 0
    outer loop
      vertex 5.278 25.423 -5
      vertex 6.463 23.673 5
      vertex 5.278 25.423 5
    endloop
  endfacet
  facet normal -0.763296 -0.646049 0
    outer loop
      vertex 8.904 20.789 -5
      vertex 8.904 20.789 5
      vertex 6.463 23.673 -5
    endloop
  endfacet
  facet normal -0.763296 -0.646049 0
    outer loop
      vertex 6.463 23.673 -5
      vertex 8.904 20.789 5
      vertex 6.463 23.673 5
    endloop
  endfacet
  facet normal -0.579237 -0.815159 0
    outer loop
      vertex 8.904 20.789 -5
      vertex 11.796 18.734 -5
      vertex 11.796 18.734 5
    endloop
  endfacet
  facet normal -0.579237 -0.815159 0
    outer loop
      vertex 8.904 20.789 5
      vertex 8.904 20.789 -5
      vertex 11.796 18.734 5
    endloop
  endfacet
  facet normal -0.343293 -0.939228 0
    outer loop
      vertex 11.796 18.734 -5
      vertex 15.153 17.507 -5
      vertex 15.153 17.507 5
    endloop
  endfacet
  facet normal -0.343293 -0.939228 0
    outer loop
      vertex 11.796 18.734 5
      vertex 11.796 18.734 -5
      vertex 15.153 17.507 5
    endloop
  endfacet
  facet normal -0.10614 -0.994351 0
    outer loop
      vertex 15.153 17.507 -5
      vertex 18.994 17.097 -5
      vertex 18.994 17.097 5
    endloop
  endfacet
  facet normal -0.10614 -0.994351 0
    outer loop
      vertex 15.153 17.507 5
      vertex 15.153 17.507 -5
      vertex 18.994 17.097 5
    endloop
  endfacet
  facet normal 0.0666402 -0.997777 0
    outer loop
      vertex 18.994 17.097 -5
      vertex 22.273 17.316 -5
      vertex 22.273 17.316 5
    endloop
  endfacet
  facet normal 0.0666402 -0.997777 0
    outer loop
      vertex 18.994 17.097 5
      vertex 18.994 17.097 -5
      vertex 22.273 17.316 5
    endloop
  endfacet
  facet normal 0.211956 -0.977279 0
    outer loop
      vertex 22.273 17.316 -5
      vertex 25.27 17.966 -5
      vertex 25.27 17.966 5
    endloop
  endfacet
  facet normal 0.211956 -0.977279 0
    outer loop
      vertex 22.273 17.316 5
      vertex 22.273 17.316 -5
      vertex 25.27 17.966 5
    endloop
  endfacet
  facet normal 0.368067 -0.929799 0
    outer loop
      vertex 25.27 17.966 -5
      vertex 27.973 19.036 -5
      vertex 27.973 19.036 5
    endloop
  endfacet
  facet normal 0.368067 -0.929799 0
    outer loop
      vertex 25.27 17.966 5
      vertex 25.27 17.966 -5
      vertex 27.973 19.036 5
    endloop
  endfacet
  facet normal 0.526233 -0.850341 0
    outer loop
      vertex 27.973 19.036 -5
      vertex 30.371 20.52 -5
      vertex 30.371 20.52 5
    endloop
  endfacet
  facet normal 0.526233 -0.850341 0
    outer loop
      vertex 27.973 19.036 5
      vertex 27.973 19.036 -5
      vertex 30.371 20.52 5
    endloop
  endfacet
  facet normal 0.672496 -0.740101 0
    outer loop
      vertex 30.371 20.52 -5
      vertex 32.451 22.41 -5
      vertex 32.451 22.41 5
    endloop
  endfacet
  facet normal 0.672496 -0.740101 0
    outer loop
      vertex 30.371 20.52 5
      vertex 30.371 20.52 -5
      vertex 32.451 22.41 5
    endloop
  endfacet
  facet normal 0.792947 -0.609291 0
    outer loop
      vertex 32.451 22.41 -5
      vertex 34.206 24.694 -5
      vertex 34.206 24.694 5
    endloop
  endfacet
  facet normal 0.792947 -0.609291 0
    outer loop
      vertex 32.451 22.41 5
      vertex 32.451 22.41 -5
      vertex 34.206 24.694 5
    endloop
  endfacet
  facet normal 0.883876 -0.467721 0
    outer loop
      vertex 34.206 24.694 -5
      vertex 35.621 27.368 -5
      vertex 35.621 27.368 5
    endloop
  endfacet
  facet normal 0.883876 -0.467721 0
    outer loop
      vertex 34.206 24.694 5
      vertex 34.206 24.694 -5
      vertex 35.621 27.368 5
    endloop
  endfacet
  facet normal 0.943844 -0.330392 0
    outer loop
      vertex 35.621 27.368 -5
      vertex 36.689 30.419 -5
      vertex 36.689 30.419 5
    endloop
  endfacet
  facet normal 0.943844 -0.330392 0
    outer loop
      vertex 35.621 27.368 5
      vertex 35.621 27.368 -5
      vertex 36.689 30.419 5
    endloop
  endfacet
  facet normal 0.982519 -0.186164 0
    outer loop
      vertex 36.689 30.419 -5
      vertex 37.366 33.992 -5
      vertex 37.366 33.992 5
    endloop
  endfacet
  facet normal 0.982519 -0.186164 0
    outer loop
      vertex 36.689 30.419 5
      vertex 36.689 30.419 -5
      vertex 37.366 33.992 5
    endloop
  endfacet
  facet normal 0.998022 -0.0628636 0
    outer loop
      vertex 37.366 33.992 -5
      vertex 37.616 37.961 -5
      vertex 37.616 37.961 5
    endloop
  endfacet
  facet normal 0.998022 -0.0628636 0
    outer loop
      vertex 37.366 33.992 5
      vertex 37.366 33.992 -5
      vertex 37.616 37.961 5
    endloop
  endfacet
  facet normal 0.999003 0.0446524 0
    outer loop
      vertex 37.439 41.921 -5
      vertex 37.439 41.921 5
      vertex 37.616 37.961 5
    endloop
  endfacet
  facet normal 0.999003 0.0446524 0
    outer loop
      vertex 37.616 37.961 -5
      vertex 37.439 41.921 -5
      vertex 37.616 37.961 5
    endloop
  endfacet
  facet normal 0.985476 0.169814 0
    outer loop
      vertex 36.829 45.461 -5
      vertex 36.829 45.461 5
      vertex 37.439 41.921 5
    endloop
  endfacet
  facet normal 0.985476 0.169814 0
    outer loop
      vertex 37.439 41.921 -5
      vertex 36.829 45.461 -5
      vertex 37.439 41.921 5
    endloop
  endfacet
  facet normal 0.956634 0.291293 0
    outer loop
      vertex 36.565 46.328 -5
      vertex 36.565 46.328 5
      vertex 36.829 45.461 5
    endloop
  endfacet
  facet normal 0.956634 0.291293 0
    outer loop
      vertex 36.829 45.461 -5
      vertex 36.565 46.328 -5
      vertex 36.829 45.461 5
    endloop
  endfacet
  facet normal 0.936086 0.351772 0
    outer loop
      vertex 36.149 47.435 -5
      vertex 36.149 47.435 5
      vertex 36.565 46.328 5
    endloop
  endfacet
  facet normal 0.936086 0.351772 0
    outer loop
      vertex 36.565 46.328 -5
      vertex 36.149 47.435 -5
      vertex 36.565 46.328 5
    endloop
  endfacet
  facet normal 0.922124 0.386894 0
    outer loop
      vertex 35.643 48.641 -5
      vertex 35.643 48.641 5
      vertex 36.149 47.435 5
    endloop
  endfacet
  facet normal 0.922124 0.386894 0
    outer loop
      vertex 36.149 47.435 -5
      vertex 35.643 48.641 -5
      vertex 36.149 47.435 5
    endloop
  endfacet
  facet normal 0.909028 0.416735 0
    outer loop
      vertex 35.108 49.808 -5
      vertex 35.108 49.808 5
      vertex 35.643 48.641 5
    endloop
  endfacet
  facet normal 0.909028 0.416735 0
    outer loop
      vertex 35.643 48.641 -5
      vertex 35.108 49.808 -5
      vertex 35.643 48.641 5
    endloop
  endfacet
  facet normal 0.857314 0.514794 0
    outer loop
      vertex 33.587 52.341 -5
      vertex 33.587 52.341 5
      vertex 35.108 49.808 5
    endloop
  endfacet
  facet normal 0.857314 0.514794 0
    outer loop
      vertex 35.108 49.808 -5
      vertex 33.587 52.341 -5
      vertex 35.108 49.808 5
    endloop
  endfacet
  facet normal 0.75989 0.650051 0
    outer loop
      vertex 31.705 54.541 -5
      vertex 31.705 54.541 5
      vertex 33.587 52.341 5
    endloop
  endfacet
  facet normal 0.75989 0.650051 0
    outer loop
      vertex 33.587 52.341 -5
      vertex 31.705 54.541 -5
      vertex 33.587 52.341 5
    endloop
  endfacet
  facet normal 0.644018 0.765011 0
    outer loop
      vertex 29.511 56.388 5
      vertex 31.705 54.541 5
      vertex 29.511 56.388 -5
    endloop
  endfacet
  facet normal 0.644018 0.765011 0
    outer loop
      vertex 29.511 56.388 -5
      vertex 31.705 54.541 5
      vertex 31.705 54.541 -5
    endloop
  endfacet
  facet normal 0.512228 0.858849 0
    outer loop
      vertex 27.058 57.851 5
      vertex 29.511 56.388 5
      vertex 27.058 57.851 -5
    endloop
  endfacet
  facet normal 0.512228 0.858849 0
    outer loop
      vertex 27.058 57.851 -5
      vertex 29.511 56.388 5
      vertex 29.511 56.388 -5
    endloop
  endfacet
  facet normal 0.368802 0.929508 0
    outer loop
      vertex 24.394 58.908 5
      vertex 27.058 57.851 5
      vertex 24.394 58.908 -5
    endloop
  endfacet
  facet normal 0.368802 0.929508 0
    outer loop
      vertex 24.394 58.908 -5
      vertex 27.058 57.851 5
      vertex 27.058 57.851 -5
    endloop
  endfacet
  facet normal 0.215793 0.976439 0
    outer loop
      vertex 21.575 59.531 5
      vertex 24.394 58.908 5
      vertex 21.575 59.531 -5
    endloop
  endfacet
  facet normal 0.215793 0.976439 0
    outer loop
      vertex 21.575 59.531 -5
      vertex 24.394 58.908 5
      vertex 24.394 58.908 -5
    endloop
  endfacet
  facet normal 0.0559042 0.998436 0
    outer loop
      vertex 18.646 59.695 5
      vertex 21.575 59.531 5
      vertex 18.646 59.695 -5
    endloop
  endfacet
  facet normal 0.0559042 0.998436 0
    outer loop
      vertex 18.646 59.695 -5
      vertex 21.575 59.531 5
      vertex 21.575 59.531 -5
    endloop
  endfacet
  facet normal -0.799043 0.601274 0
    outer loop
      vertex 5.983 52.517 5
      vertex 7.643 54.723 5
      vertex 5.983 52.517 -5
    endloop
  endfacet
  facet normal -0.799043 0.601274 0
    outer loop
      vertex 5.983 52.517 -5
      vertex 7.643 54.723 5
      vertex 7.643 54.723 -5
    endloop
  endfacet
  facet normal -0.885632 0.464388 0
    outer loop
      vertex 5.391 51.388 5
      vertex 5.983 52.517 5
      vertex 5.391 51.388 -5
    endloop
  endfacet
  facet normal -0.885632 0.464388 0
    outer loop
      vertex 5.391 51.388 -5
      vertex 5.983 52.517 5
      vertex 5.983 52.517 -5
    endloop
  endfacet
  facet normal 0.999968 0.00802853 0
    outer loop
      vertex 5.362 55 -5
      vertex 5.362 55 5
      vertex 5.391 51.388 5
    endloop
  endfacet
  facet normal 0.999968 0.00802853 0
    outer loop
      vertex 5.391 51.388 -5
      vertex 5.362 55 -5
      vertex 5.391 51.388 5
    endloop
  endfacet
  facet normal 1 0 0
    outer loop
      vertex 5.362 55 -5
      vertex 5.362 58.584 -5
      vertex 5.362 58.584 5
    endloop
  endfacet
  facet normal 1 0 0
    outer loop
      vertex 5.362 55 5
      vertex 5.362 55 -5
      vertex 5.362 58.584 5
    endloop
  endfacet
  facet normal 0 1 0
    outer loop
      vertex 0 58.584 5
      vertex 5.362 58.584 5
      vertex 0 58.584 -5
    endloop
  endfacet
  facet normal 0 1 0
    outer loop
      vertex 0 58.584 -5
      vertex 5.362 58.584 5
      vertex 5.362 58.584 -5
    endloop
  endfacet
  facet normal 0.999709 0.0241295 0
    outer loop
      vertex 5.588 38.406 -5
      vertex 5.588 38.406 5
      vertex 5.646 36.003 5
    endloop
  endfacet
  facet normal 0.999709 0.0241295 0
    outer loop
      vertex 5.646 36.003 -5
      vertex 5.588 38.406 -5
      vertex 5.646 36.003 5
    endloop
  endfacet
  facet normal 0.994161 -0.107909 0
    outer loop
      vertex 5.588 38.406 -5
      vertex 6.142 43.51 -5
      vertex 6.142 43.51 5
    endloop
  endfacet
  facet normal 0.994161 -0.107909 0
    outer loop
      vertex 5.588 38.406 5
      vertex 5.588 38.406 -5
      vertex 6.142 43.51 5
    endloop
  endfacet
  facet normal 0.938976 -0.343983 0
    outer loop
      vertex 6.142 43.51 -5
      vertex 7.818 48.085 -5
      vertex 7.818 48.085 5
    endloop
  endfacet
  facet normal 0.938976 -0.343983 0
    outer loop
      vertex 6.142 43.51 5
      vertex 6.142 43.51 -5
      vertex 7.818 48.085 5
    endloop
  endfacet
  facet normal 0.818506 -0.574498 0
    outer loop
      vertex 7.818 48.085 -5
      vertex 10.236 51.53 -5
      vertex 10.236 51.53 5
    endloop
  endfacet
  facet normal 0.818506 -0.574498 0
    outer loop
      vertex 7.818 48.085 5
      vertex 7.818 48.085 -5
      vertex 10.236 51.53 5
    endloop
  endfacet
  facet normal 0.597965 -0.801522 0
    outer loop
      vertex 10.236 51.53 -5
      vertex 13.39 53.883 -5
      vertex 13.39 53.883 5
    endloop
  endfacet
  facet normal 0.597965 -0.801522 0
    outer loop
      vertex 10.236 51.53 5
      vertex 10.236 51.53 -5
      vertex 13.39 53.883 5
    endloop
  endfacet
  facet normal 0.298949 -0.954269 0
    outer loop
      vertex 13.39 53.883 -5
      vertex 17.096 55.044 -5
      vertex 17.096 55.044 5
    endloop
  endfacet
  facet normal 0.298949 -0.954269 0
    outer loop
      vertex 13.39 53.883 5
      vertex 13.39 53.883 -5
      vertex 17.096 55.044 5
    endloop
  endfacet
  facet normal -0.0314264 -0.999506 0
    outer loop
      vertex 17.096 55.044 -5
      vertex 21.167 54.916 -5
      vertex 21.167 54.916 5
    endloop
  endfacet
  facet normal -0.0314264 -0.999506 0
    outer loop
      vertex 17.096 55.044 5
      vertex 17.096 55.044 -5
      vertex 21.167 54.916 5
    endloop
  endfacet
  facet normal -0.283804 -0.958882 0
    outer loop
      vertex 21.167 54.916 -5
      vertex 23.576 54.203 -5
      vertex 23.576 54.203 5
    endloop
  endfacet
  facet normal -0.283804 -0.958882 0
    outer loop
      vertex 21.167 54.916 5
      vertex 21.167 54.916 -5
      vertex 23.576 54.203 5
    endloop
  endfacet
  facet normal -0.476651 -0.879093 0
    outer loop
      vertex 23.576 54.203 -5
      vertex 25.732 53.034 -5
      vertex 25.732 53.034 5
    endloop
  endfacet
  facet normal -0.476651 -0.879093 0
    outer loop
      vertex 23.576 54.203 5
      vertex 23.576 54.203 -5
      vertex 25.732 53.034 5
    endloop
  endfacet
  facet normal -0.64587 -0.763448 0
    outer loop
      vertex 25.732 53.034 -5
      vertex 27.615 51.441 -5
      vertex 27.615 51.441 5
    endloop
  endfacet
  facet normal -0.64587 -0.763448 0
    outer loop
      vertex 25.732 53.034 5
      vertex 25.732 53.034 -5
      vertex 27.615 51.441 5
    endloop
  endfacet
  facet normal -0.7806 -0.625031 0
    outer loop
      vertex 29.202 49.459 -5
      vertex 29.202 49.459 5
      vertex 27.615 51.441 -5
    endloop
  endfacet
  facet normal -0.7806 -0.625031 0
    outer loop
      vertex 27.615 51.441 -5
      vertex 29.202 49.459 5
      vertex 27.615 51.441 5
    endloop
  endfacet
  facet normal -0.878512 -0.477721 0
    outer loop
      vertex 30.475 47.118 -5
      vertex 30.475 47.118 5
      vertex 29.202 49.459 -5
    endloop
  endfacet
  facet normal -0.878512 -0.477721 0
    outer loop
      vertex 29.202 49.459 -5
      vertex 30.475 47.118 5
      vertex 29.202 49.459 5
    endloop
  endfacet
  facet normal -0.943284 -0.331988 0
    outer loop
      vertex 31.414 44.45 -5
      vertex 31.414 44.45 5
      vertex 30.475 47.118 -5
    endloop
  endfacet
  facet normal -0.943284 -0.331988 0
    outer loop
      vertex 30.475 47.118 -5
      vertex 31.414 44.45 5
      vertex 30.475 47.118 5
    endloop
  endfacet
  facet normal -0.9813 -0.192483 0
    outer loop
      vertex 31.995 41.488 -5
      vertex 31.995 41.488 5
      vertex 31.414 44.45 -5
    endloop
  endfacet
  facet normal -0.9813 -0.192483 0
    outer loop
      vertex 31.414 44.45 -5
      vertex 31.995 41.488 5
      vertex 31.414 44.45 5
    endloop
  endfacet
  facet normal -0.997945 -0.064074 0
    outer loop
      vertex 32.202 38.264 -5
      vertex 32.202 38.264 5
      vertex 31.995 41.488 -5
    endloop
  endfacet
  facet normal -0.997945 -0.064074 0
    outer loop
      vertex 31.995 41.488 -5
      vertex 32.202 38.264 5
      vertex 31.995 41.488 5
    endloop
  endfacet
  facet normal -0.999486 0.032059 0
    outer loop
      vertex 32.117 35.614 5
      vertex 32.202 38.264 5
      vertex 32.117 35.614 -5
    endloop
  endfacet
  facet normal -0.999486 0.032059 0
    outer loop
      vertex 32.117 35.614 -5
      vertex 32.202 38.264 5
      vertex 32.202 38.264 -5
    endloop
  endfacet
  facet normal -0.990675 0.136245 0
    outer loop
      vertex 31.8 33.309 5
      vertex 32.117 35.614 5
      vertex 31.8 33.309 -5
    endloop
  endfacet
  facet normal -0.990675 0.136245 0
    outer loop
      vertex 31.8 33.309 -5
      vertex 32.117 35.614 5
      vertex 32.117 35.614 -5
    endloop
  endfacet
  facet normal -0.964205 0.265156 0
    outer loop
      vertex 31.217 31.189 5
      vertex 31.8 33.309 5
      vertex 31.217 31.189 -5
    endloop
  endfacet
  facet normal -0.964205 0.265156 0
    outer loop
      vertex 31.217 31.189 -5
      vertex 31.8 33.309 5
      vertex 31.8 33.309 -5
    endloop
  endfacet
  facet normal -0.922412 0.386208 0
    outer loop
      vertex 30.339 29.092 5
      vertex 31.217 31.189 5
      vertex 30.339 29.092 -5
    endloop
  endfacet
  facet normal -0.922412 0.386208 0
    outer loop
      vertex 30.339 29.092 -5
      vertex 31.217 31.189 5
      vertex 31.217 31.189 -5
    endloop
  endfacet
  facet normal -0.834848 0.55048 0
    outer loop
      vertex 28.138 25.754 5
      vertex 30.339 29.092 5
      vertex 28.138 25.754 -5
    endloop
  endfacet
  facet normal -0.834848 0.55048 0
    outer loop
      vertex 28.138 25.754 -5
      vertex 30.339 29.092 5
      vertex 30.339 29.092 -5
    endloop
  endfacet
  facet normal -0.642984 0.76588 0
    outer loop
      vertex 25.29 23.363 5
      vertex 28.138 25.754 5
      vertex 25.29 23.363 -5
    endloop
  endfacet
  facet normal -0.642984 0.76588 0
    outer loop
      vertex 25.29 23.363 -5
      vertex 28.138 25.754 5
      vertex 28.138 25.754 -5
    endloop
  endfacet
  facet normal -0.375249 0.926924 0
    outer loop
      vertex 21.896 21.989 5
      vertex 25.29 23.363 5
      vertex 21.896 21.989 -5
    endloop
  endfacet
  facet normal -0.375249 0.926924 0
    outer loop
      vertex 21.896 21.989 -5
      vertex 25.29 23.363 5
      vertex 25.29 23.363 -5
    endloop
  endfacet
  facet normal -0.0754236 0.997152 0
    outer loop
      vertex 18.062 21.699 5
      vertex 21.896 21.989 5
      vertex 18.062 21.699 -5
    endloop
  endfacet
  facet normal -0.0754236 0.997152 0
    outer loop
      vertex 18.062 21.699 -5
      vertex 21.896 21.989 5
      vertex 21.896 21.989 -5
    endloop
  endfacet
  facet normal 0.198655 0.980069 0
    outer loop
      vertex 14.5 22.421 5
      vertex 18.062 21.699 5
      vertex 14.5 22.421 -5
    endloop
  endfacet
  facet normal 0.198655 0.980069 0
    outer loop
      vertex 14.5 22.421 -5
      vertex 18.062 21.699 5
      vertex 18.062 21.699 -5
    endloop
  endfacet
  facet normal 0.477687 0.87853 0
    outer loop
      vertex 11.436 24.087 5
      vertex 14.5 22.421 5
      vertex 11.436 24.087 -5
    endloop
  endfacet
  facet normal 0.477687 0.87853 0
    outer loop
      vertex 11.436 24.087 -5
      vertex 14.5 22.421 5
      vertex 14.5 22.421 -5
    endloop
  endfacet
  facet normal 0.715162 0.698959 0
    outer loop
      vertex 8.934 26.647 -5
      vertex 8.934 26.647 5
      vertex 11.436 24.087 5
    endloop
  endfacet
  facet normal 0.715162 0.698959 0
    outer loop
      vertex 11.436 24.087 -5
      vertex 8.934 26.647 -5
      vertex 11.436 24.087 5
    endloop
  endfacet
  facet normal 0.875645 0.482955 0
    outer loop
      vertex 7.056 30.052 -5
      vertex 7.056 30.052 5
      vertex 8.934 26.647 5
    endloop
  endfacet
  facet normal 0.875645 0.482955 0
    outer loop
      vertex 8.934 26.647 -5
      vertex 7.056 30.052 -5
      vertex 8.934 26.647 5
    endloop
  endfacet
  facet normal 0.941094 0.338146 0
    outer loop
      vertex 6.346 32.028 -5
      vertex 6.346 32.028 5
      vertex 7.056 30.052 5
    endloop
  endfacet
  facet normal 0.941094 0.338146 0
    outer loop
      vertex 7.056 30.052 -5
      vertex 6.346 32.028 -5
      vertex 7.056 30.052 5
    endloop
  endfacet
  facet normal 0.972484 0.23297 0
    outer loop
      vertex 5.887 33.944 -5
      vertex 5.887 33.944 5
      vertex 6.346 32.028 5
    endloop
  endfacet
  facet normal 0.972484 0.23297 0
    outer loop
      vertex 6.346 32.028 -5
      vertex 5.887 33.944 -5
      vertex 6.346 32.028 5
    endloop
  endfacet
  facet normal 0.99322 0.116253 0
    outer loop
      vertex 5.646 36.003 -5
      vertex 5.646 36.003 5
      vertex 5.887 33.944 5
    endloop
  endfacet
  facet normal 0.99322 0.116253 0
    outer loop
      vertex 5.887 33.944 -5
      vertex 5.646 36.003 -5
      vertex 5.887 33.944 5
    endloop
  endfacet
endsolid OpenSCAD_Model
