solid OpenSCAD_Model
  facet normal 0 -1 0
    outer loop
      vertex 0 0 -5
      vertex 3.754 0 -5
      vertex 3.754 0 5
    endloop
  endfacet
  facet normal 0 -1 0
    outer loop
      vertex 0 0 5
      vertex 0 0 -5
      vertex 3.754 0 5
    endloop
  endfacet
  facet normal 0 0 -1
    outer loop
      vertex 0 4.656 -5
      vertex 2.653 4.572 -5
      vertex 0 0 -5
    endloop
  endfacet
  facet normal 0 0 -1
    outer loop
      vertex 0 0 -5
      vertex 2.653 4.572 -5
      vertex 3.995 4.542 -5
    endloop
  endfacet
  facet normal 0 0 -1
    outer loop
      vertex 3.995 4.542 -5
      vertex 4.973 4.586 -5
      vertex 0 0 -5
    endloop
  endfacet
  facet normal 0 0 -1
    outer loop
      vertex 4.973 4.586 -5
      vertex 5.708 4.716 -5
      vertex 0 0 -5
    endloop
  endfacet
  facet normal 0 0 -1
    outer loop
      vertex 5.708 4.716 -5
      vertex 6.322 4.939 -5
      vertex 0 0 -5
    endloop
  endfacet
  facet normal 0 0 -1
    outer loop
      vertex 6.322 4.939 -5
      vertex 6.999 5.277 -5
      vertex 0 0 -5
    endloop
  endfacet
  facet normal 0 0 -1
    outer loop
      vertex 8.256 9.69 -5
      vertex 13.829 54.751 -5
      vertex 8.107 7.677 -5
    endloop
  endfacet
  facet normal 0 0 -1
    outer loop
      vertex 8.337 12.686 -5
      vertex 13.829 54.751 -5
      vertex 8.256 9.69 -5
    endloop
  endfacet
  facet normal 0 0 -1
    outer loop
      vertex 8.38 16.888 -5
      vertex 8.41 22.521 -5
      vertex 8.494 37.817 -5
    endloop
  endfacet
  facet normal 0 0 -1
    outer loop
      vertex 8.38 16.888 -5
      vertex 13.829 54.751 -5
      vertex 8.337 12.686 -5
    endloop
  endfacet
  facet normal 0 0 -1
    outer loop
      vertex 8.494 37.817 -5
      vertex 0 37.817 -5
      vertex 0 42.333 -5
    endloop
  endfacet
  facet normal 0 0 -1
    outer loop
      vertex 8.494 37.817 -5
      vertex 0 42.333 -5
      vertex 8.467 42.333 -5
    endloop
  endfacet
  facet normal 0 0 -1
    outer loop
      vertex 8.494 37.817 -5
      vertex 8.467 42.333 -5
      vertex 8.467 54.751 -5
    endloop
  endfacet
  facet normal 0 0 -1
    outer loop
      vertex 8.494 37.817 -5
      vertex 8.467 54.751 -5
      vertex 13.829 54.751 -5
    endloop
  endfacet
  facet normal 0 0 -1
    outer loop
      vertex 8.494 37.817 -5
      vertex 13.829 54.751 -5
      vertex 8.38 16.888 -5
    endloop
  endfacet
  facet normal 0 0 -1
    outer loop
      vertex 8.107 7.677 -5
      vertex 13.829 54.751 -5
      vertex 13.829 42.333 -5
    endloop
  endfacet
  facet normal 0 0 -1
    outer loop
      vertex 13.829 37.817 -5
      vertex 13.829 42.333 -5
      vertex 20.884 42.333 -5
    endloop
  endfacet
  facet normal 0 0 -1
    outer loop
      vertex 8.107 7.677 -5
      vertex 13.829 42.333 -5
      vertex 13.829 37.817 -5
    endloop
  endfacet
  facet normal 0 0 -1
    outer loop
      vertex 13.819 17.966 -5
      vertex 7.866 6.42 -5
      vertex 13.829 23.085 -5
    endloop
  endfacet
  facet normal 0 0 -1
    outer loop
      vertex 8.107 7.677 -5
      vertex 13.829 23.085 -5
      vertex 7.866 6.42 -5
    endloop
  endfacet
  facet normal 0 0 -1
    outer loop
      vertex 7.866 6.42 -5
      vertex 13.819 17.966 -5
      vertex 7.505 5.694 -5
    endloop
  endfacet
  facet normal 0 0 -1
    outer loop
      vertex 7.505 5.694 -5
      vertex 13.819 17.966 -5
      vertex 13.786 13.881 -5
    endloop
  endfacet
  facet normal 0 0 -1
    outer loop
      vertex 7.505 5.694 -5
      vertex 13.786 13.881 -5
      vertex 13.724 10.694 -5
    endloop
  endfacet
  facet normal 0 0 -1
    outer loop
      vertex 7.505 5.694 -5
      vertex 13.724 10.694 -5
      vertex 6.999 5.277 -5
    endloop
  endfacet
  facet normal 0 0 -1
    outer loop
      vertex 6.999 5.277 -5
      vertex 13.724 10.694 -5
      vertex 13.623 8.267 -5
    endloop
  endfacet
  facet normal 0 0 -1
    outer loop
      vertex 6.999 5.277 -5
      vertex 13.623 8.267 -5
      vertex 0 0 -5
    endloop
  endfacet
  facet normal 0 0 -1
    outer loop
      vertex 0 0 -5
      vertex 13.623 8.267 -5
      vertex 13.477 6.462 -5
    endloop
  endfacet
  facet normal 0 0 -1
    outer loop
      vertex 0 0 -5
      vertex 13.477 6.462 -5
      vertex 13.28 5.144 -5
    endloop
  endfacet
  facet normal 0 0 -1
    outer loop
      vertex 0 0 -5
      vertex 13.28 5.144 -5
      vertex 13.024 4.174 -5
    endloop
  endfacet
  facet normal 0 0 -1
    outer loop
      vertex 0 0 -5
      vertex 13.024 4.174 -5
      vertex 12.7 3.415 -5
    endloop
  endfacet
  facet normal 0 0 -1
    outer loop
      vertex 0 0 -5
      vertex 12.7 3.415 -5
      vertex 11.519 1.775 -5
    endloop
  endfacet
  facet normal 0 0 -1
    outer loop
      vertex 0 0 -5
      vertex 11.519 1.775 -5
      vertex 9.803 0.723 -5
    endloop
  endfacet
  facet normal 0 0 -1
    outer loop
      vertex 0 0 -5
      vertex 9.803 0.723 -5
      vertex 7.298 0.165 -5
    endloop
  endfacet
  facet normal 0 0 -1
    outer loop
      vertex 0 0 -5
      vertex 7.298 0.165 -5
      vertex 3.754 0 -5
    endloop
  endfacet
  facet normal 0 0 -1
    outer loop
      vertex 13.829 37.817 -5
      vertex 20.884 42.333 -5
      vertex 20.884 37.817 -5
    endloop
  endfacet
  facet normal 0 0 -1
    outer loop
      vertex 13.829 23.085 -5
      vertex 8.107 7.677 -5
      vertex 13.829 37.817 -5
    endloop
  endfacet
  facet normal -1 0 0
    outer loop
      vertex 0 0 5
      vertex 0 4.656 5
      vertex 0 0 -5
    endloop
  endfacet
  facet normal -1 0 0
    outer loop
      vertex 0 0 -5
      vertex 0 4.656 5
      vertex 0 4.656 -5
    endloop
  endfacet
  facet normal 0 0 1
    outer loop
      vertex 0 0 5
      vertex 3.754 0 5
      vertex 7.298 0.165 5
    endloop
  endfacet
  facet normal 0 0 1
    outer loop
      vertex 11.519 1.775 5
      vertex 0 0 5
      vertex 9.803 0.723 5
    endloop
  endfacet
  facet normal 0 0 1
    outer loop
      vertex 9.803 0.723 5
      vertex 0 0 5
      vertex 7.298 0.165 5
    endloop
  endfacet
  facet normal 0 0 1
    outer loop
      vertex 12.7 3.415 5
      vertex 0 0 5
      vertex 11.519 1.775 5
    endloop
  endfacet
  facet normal 0 0 1
    outer loop
      vertex 13.024 4.174 5
      vertex 0 0 5
      vertex 12.7 3.415 5
    endloop
  endfacet
  facet normal 0 0 1
    outer loop
      vertex 13.28 5.144 5
      vertex 0 0 5
      vertex 13.024 4.174 5
    endloop
  endfacet
  facet normal 0 0 1
    outer loop
      vertex 13.477 6.462 5
      vertex 0 0 5
      vertex 13.28 5.144 5
    endloop
  endfacet
  facet normal 0 0 1
    outer loop
      vertex 13.623 8.267 5
      vertex 0 0 5
      vertex 13.477 6.462 5
    endloop
  endfacet
  facet normal 0 0 1
    outer loop
      vertex 6.999 5.277 5
      vertex 0 0 5
      vertex 13.623 8.267 5
    endloop
  endfacet
  facet normal 0 0 1
    outer loop
      vertex 6.999 5.277 5
      vertex 6.322 4.939 5
      vertex 0 0 5
    endloop
  endfacet
  facet normal 0 0 1
    outer loop
      vertex 8.337 12.686 5
      vertex 8.256 9.69 5
      vertex 13.819 17.966 5
    endloop
  endfacet
  facet normal 0 0 1
    outer loop
      vertex 20.884 42.333 5
      vertex 13.829 37.817 5
      vertex 20.884 37.817 5
    endloop
  endfacet
  facet normal 0 0 1
    outer loop
      vertex 13.829 42.333 5
      vertex 13.829 37.817 5
      vertex 20.884 42.333 5
    endloop
  endfacet
  facet normal 0 0 1
    outer loop
      vertex 8.38 16.888 5
      vertex 8.337 12.686 5
      vertex 13.829 23.085 5
    endloop
  endfacet
  facet normal 0 0 1
    outer loop
      vertex 2.653 4.572 5
      vertex 0 4.656 5
      vertex 0 0 5
    endloop
  endfacet
  facet normal 0 0 1
    outer loop
      vertex 0 37.817 5
      vertex 8.494 37.817 5
      vertex 8.467 42.333 5
    endloop
  endfacet
  facet normal 0 0 1
    outer loop
      vertex 8.467 54.751 5
      vertex 8.467 42.333 5
      vertex 13.829 54.751 5
    endloop
  endfacet
  facet normal 0 0 1
    outer loop
      vertex 8.494 37.817 5
      vertex 8.41 22.521 5
      vertex 13.829 37.817 5
    endloop
  endfacet
  facet normal 0 0 1
    outer loop
      vertex 8.467 42.333 5
      vertex 8.494 37.817 5
      vertex 13.829 54.751 5
    endloop
  endfacet
  facet normal 0 0 1
    outer loop
      vertex 13.829 37.817 5
      vertex 8.41 22.521 5
      vertex 13.829 23.085 5
    endloop
  endfacet
  facet normal 0 0 1
    outer loop
      vertex 8.41 22.521 5
      vertex 8.38 16.888 5
      vertex 13.829 23.085 5
    endloop
  endfacet
  facet normal 0 0 1
    outer loop
      vertex 13.829 23.085 5
      vertex 8.337 12.686 5
      vertex 13.819 17.966 5
    endloop
  endfacet
  facet normal 0 0 1
    outer loop
      vertex 13.819 17.966 5
      vertex 8.256 9.69 5
      vertex 13.786 13.881 5
    endloop
  endfacet
  facet normal 0 0 1
    outer loop
      vertex 13.786 13.881 5
      vertex 8.107 7.677 5
      vertex 13.724 10.694 5
    endloop
  endfacet
  facet normal 0 0 1
    outer loop
      vertex 8.107 7.677 5
      vertex 7.866 6.42 5
      vertex 13.724 10.694 5
    endloop
  endfacet
  facet normal 0 0 1
    outer loop
      vertex 13.724 10.694 5
      vertex 7.505 5.694 5
      vertex 13.623 8.267 5
    endloop
  endfacet
  facet normal 0 0 1
    outer loop
      vertex 7.505 5.694 5
      vertex 6.999 5.277 5
      vertex 13.623 8.267 5
    endloop
  endfacet
  facet normal 0 0 1
    outer loop
      vertex 6.322 4.939 5
      vertex 5.708 4.716 5
      vertex 0 0 5
    endloop
  endfacet
  facet normal 0 0 1
    outer loop
      vertex 3.995 4.542 5
      vertex 2.653 4.572 5
      vertex 0 0 5
    endloop
  endfacet
  facet normal 0 0 1
    outer loop
      vertex 4.973 4.586 5
      vertex 3.995 4.542 5
      vertex 0 0 5
    endloop
  endfacet
  facet normal 0 0 1
    outer loop
      vertex 4.973 4.586 5
      vertex 0 0 5
      vertex 5.708 4.716 5
    endloop
  endfacet
  facet normal 0 0 1
    outer loop
      vertex 7.866 6.42 5
      vertex 7.505 5.694 5
      vertex 13.724 10.694 5
    endloop
  endfacet
  facet normal 0 0 1
    outer loop
      vertex 8.256 9.69 5
      vertex 8.107 7.677 5
      vertex 13.786 13.881 5
    endloop
  endfacet
  facet normal 0 0 1
    outer loop
      vertex 8.494 37.817 5
      vertex 13.829 42.333 5
      vertex 13.829 54.751 5
    endloop
  endfacet
  facet normal 0 0 1
    outer loop
      vertex 8.494 37.817 5
      vertex 13.829 37.817 5
      vertex 13.829 42.333 5
    endloop
  endfacet
  facet normal 0 0 1
    outer loop
      vertex 8.467 42.333 5
      vertex 0 42.333 5
      vertex 0 37.817 5
    endloop
  endfacet
  facet normal 0.0465072 -0.998918 0
    outer loop
      vertex 3.754 0 -5
      vertex 7.298 0.165 -5
      vertex 7.298 0.165 5
    endloop
  endfacet
  facet normal 0.0465072 -0.998918 0
    outer loop
      vertex 3.754 0 5
      vertex 3.754 0 -5
      vertex 7.298 0.165 5
    endloop
  endfacet
  facet normal 0.217426 -0.976077 0
    outer loop
      vertex 7.298 0.165 -5
      vertex 9.803 0.723 -5
      vertex 9.803 0.723 5
    endloop
  endfacet
  facet normal 0.217426 -0.976077 0
    outer loop
      vertex 7.298 0.165 5
      vertex 7.298 0.165 -5
      vertex 9.803 0.723 5
    endloop
  endfacet
  facet normal 0.522655 -0.852544 0
    outer loop
      vertex 9.803 0.723 -5
      vertex 11.519 1.775 -5
      vertex 11.519 1.775 5
    endloop
  endfacet
  facet normal 0.522655 -0.852544 0
    outer loop
      vertex 9.803 0.723 5
      vertex 9.803 0.723 -5
      vertex 11.519 1.775 5
    endloop
  endfacet
  facet normal 0.811487 -0.58437 0
    outer loop
      vertex 11.519 1.775 -5
      vertex 12.7 3.415 -5
      vertex 12.7 3.415 5
    endloop
  endfacet
  facet normal 0.811487 -0.58437 0
    outer loop
      vertex 11.519 1.775 5
      vertex 11.519 1.775 -5
      vertex 12.7 3.415 5
    endloop
  endfacet
  facet normal 0.919708 -0.392603 0
    outer loop
      vertex 12.7 3.415 -5
      vertex 13.024 4.174 -5
      vertex 13.024 4.174 5
    endloop
  endfacet
  facet normal 0.919708 -0.392603 0
    outer loop
      vertex 12.7 3.415 5
      vertex 12.7 3.415 -5
      vertex 13.024 4.174 5
    endloop
  endfacet
  facet normal 0.966894 -0.25518 0
    outer loop
      vertex 13.024 4.174 -5
      vertex 13.28 5.144 -5
      vertex 13.28 5.144 5
    endloop
  endfacet
  facet normal 0.966894 -0.25518 0
    outer loop
      vertex 13.024 4.174 5
      vertex 13.024 4.174 -5
      vertex 13.28 5.144 5
    endloop
  endfacet
  facet normal 0.989013 -0.147827 0
    outer loop
      vertex 13.28 5.144 -5
      vertex 13.477 6.462 -5
      vertex 13.477 6.462 5
    endloop
  endfacet
  facet normal 0.989013 -0.147827 0
    outer loop
      vertex 13.28 5.144 5
      vertex 13.28 5.144 -5
      vertex 13.477 6.462 5
    endloop
  endfacet
  facet normal 0.996745 -0.0806231 0
    outer loop
      vertex 13.477 6.462 -5
      vertex 13.623 8.267 -5
      vertex 13.623 8.267 5
    endloop
  endfacet
  facet normal 0.996745 -0.0806231 0
    outer loop
      vertex 13.477 6.462 5
      vertex 13.477 6.462 -5
      vertex 13.623 8.267 5
    endloop
  endfacet
  facet normal 0.999135 -0.0415792 0
    outer loop
      vertex 13.623 8.267 -5
      vertex 13.724 10.694 -5
      vertex 13.724 10.694 5
    endloop
  endfacet
  facet normal 0.999135 -0.0415792 0
    outer loop
      vertex 13.623 8.267 5
      vertex 13.623 8.267 -5
      vertex 13.724 10.694 5
    endloop
  endfacet
  facet normal 0.999811 -0.0194504 0
    outer loop
      vertex 13.724 10.694 -5
      vertex 13.786 13.881 -5
      vertex 13.786 13.881 5
    endloop
  endfacet
  facet normal 0.999811 -0.0194504 0
    outer loop
      vertex 13.724 10.694 5
      vertex 13.724 10.694 -5
      vertex 13.786 13.881 5
    endloop
  endfacet
  facet normal 0.999967 -0.00807807 0
    outer loop
      vertex 13.786 13.881 -5
      vertex 13.819 17.966 -5
      vertex 13.819 17.966 5
    endloop
  endfacet
  facet normal 0.999967 -0.00807807 0
    outer loop
      vertex 13.786 13.881 5
      vertex 13.786 13.881 -5
      vertex 13.819 17.966 5
    endloop
  endfacet
  facet normal 0.999998 -0.0019535 0
    outer loop
      vertex 13.819 17.966 -5
      vertex 13.829 23.085 -5
      vertex 13.829 23.085 5
    endloop
  endfacet
  facet normal 0.999998 -0.0019535 0
    outer loop
      vertex 13.819 17.966 5
      vertex 13.819 17.966 -5
      vertex 13.829 23.085 5
    endloop
  endfacet
  facet normal 1 0 0
    outer loop
      vertex 13.829 23.085 -5
      vertex 13.829 37.817 -5
      vertex 13.829 37.817 5
    endloop
  endfacet
  facet normal 1 0 0
    outer loop
      vertex 13.829 23.085 5
      vertex 13.829 23.085 -5
      vertex 13.829 37.817 5
    endloop
  endfacet
  facet normal 0 -1 0
    outer loop
      vertex 13.829 37.817 -5
      vertex 20.884 37.817 -5
      vertex 20.884 37.817 5
    endloop
  endfacet
  facet normal 0 -1 0
    outer loop
      vertex 13.829 37.817 5
      vertex 13.829 37.817 -5
      vertex 20.884 37.817 5
    endloop
  endfacet
  facet normal 1 0 0
    outer loop
      vertex 20.884 37.817 -5
      vertex 20.884 42.333 -5
      vertex 20.884 42.333 5
    endloop
  endfacet
  facet normal 1 0 0
    outer loop
      vertex 20.884 37.817 5
      vertex 20.884 37.817 -5
      vertex 20.884 42.333 5
    endloop
  endfacet
  facet normal 0 1 0
    outer loop
      vertex 13.829 42.333 5
      vertex 20.884 42.333 5
      vertex 13.829 42.333 -5
    endloop
  endfacet
  facet normal 0 1 0
    outer loop
      vertex 13.829 42.333 -5
      vertex 20.884 42.333 5
      vertex 20.884 42.333 -5
    endloop
  endfacet
  facet normal 1 0 0
    outer loop
      vertex 13.829 42.333 -5
      vertex 13.829 54.751 -5
      vertex 13.829 54.751 5
    endloop
  endfacet
  facet normal 1 0 0
    outer loop
      vertex 13.829 42.333 5
      vertex 13.829 42.333 -5
      vertex 13.829 54.751 5
    endloop
  endfacet
  facet normal 0 1 0
    outer loop
      vertex 8.467 54.751 5
      vertex 13.829 54.751 5
      vertex 8.467 54.751 -5
    endloop
  endfacet
  facet normal 0 1 0
    outer loop
      vertex 8.467 54.751 -5
      vertex 13.829 54.751 5
      vertex 13.829 54.751 -5
    endloop
  endfacet
  facet normal -1 0 0
    outer loop
      vertex 8.467 42.333 5
      vertex 8.467 54.751 5
      vertex 8.467 42.333 -5
    endloop
  endfacet
  facet normal -1 0 0
    outer loop
      vertex 8.467 42.333 -5
      vertex 8.467 54.751 5
      vertex 8.467 54.751 -5
    endloop
  endfacet
  facet normal 0 1 0
    outer loop
      vertex 0 42.333 5
      vertex 8.467 42.333 5
      vertex 0 42.333 -5
    endloop
  endfacet
  facet normal 0 1 0
    outer loop
      vertex 0 42.333 -5
      vertex 8.467 42.333 5
      vertex 8.467 42.333 -5
    endloop
  endfacet
  facet normal -1 0 0
    outer loop
      vertex 0 37.817 5
      vertex 0 42.333 5
      vertex 0 37.817 -5
    endloop
  endfacet
  facet normal -1 0 0
    outer loop
      vertex 0 37.817 -5
      vertex 0 42.333 5
      vertex 0 42.333 -5
    endloop
  endfacet
  facet normal 0 -1 0
    outer loop
      vertex 0 37.817 -5
      vertex 8.494 37.817 -5
      vertex 8.494 37.817 5
    endloop
  endfacet
  facet normal 0 -1 0
    outer loop
      vertex 0 37.817 5
      vertex 0 37.817 -5
      vertex 8.494 37.817 5
    endloop
  endfacet
  facet normal -0.999985 0.00549155 0
    outer loop
      vertex 8.41 22.521 5
      vertex 8.494 37.817 5
      vertex 8.41 22.521 -5
    endloop
  endfacet
  facet normal -0.999985 0.00549155 0
    outer loop
      vertex 8.41 22.521 -5
      vertex 8.494 37.817 5
      vertex 8.494 37.817 -5
    endloop
  endfacet
  facet normal -0.999986 0.00532568 0
    outer loop
      vertex 8.38 16.888 5
      vertex 8.41 22.521 5
      vertex 8.38 16.888 -5
    endloop
  endfacet
  facet normal -0.999986 0.00532568 0
    outer loop
      vertex 8.38 16.888 -5
      vertex 8.41 22.521 5
      vertex 8.41 22.521 -5
    endloop
  endfacet
  facet normal -0.999948 0.0102327 0
    outer loop
      vertex 8.337 12.686 5
      vertex 8.38 16.888 5
      vertex 8.337 12.686 -5
    endloop
  endfacet
  facet normal -0.999948 0.0102327 0
    outer loop
      vertex 8.337 12.686 -5
      vertex 8.38 16.888 5
      vertex 8.38 16.888 -5
    endloop
  endfacet
  facet normal -0.999635 0.0270262 0
    outer loop
      vertex 8.256 9.69 5
      vertex 8.337 12.686 5
      vertex 8.256 9.69 -5
    endloop
  endfacet
  facet normal -0.999635 0.0270262 0
    outer loop
      vertex 8.256 9.69 -5
      vertex 8.337 12.686 5
      vertex 8.337 12.686 -5
    endloop
  endfacet
  facet normal -0.997272 0.0738169 0
    outer loop
      vertex 8.107 7.677 5
      vertex 8.256 9.69 5
      vertex 8.107 7.677 -5
    endloop
  endfacet
  facet normal -0.997272 0.0738169 0
    outer loop
      vertex 8.107 7.677 -5
      vertex 8.256 9.69 5
      vertex 8.256 9.69 -5
    endloop
  endfacet
  facet normal -0.982112 0.188297 0
    outer loop
      vertex 7.866 6.42 5
      vertex 8.107 7.677 5
      vertex 7.866 6.42 -5
    endloop
  endfacet
  facet normal -0.982112 0.188297 0
    outer loop
      vertex 7.866 6.42 -5
      vertex 8.107 7.677 5
      vertex 8.107 7.677 -5
    endloop
  endfacet
  facet normal -0.895412 0.445239 0
    outer loop
      vertex 7.505 5.694 5
      vertex 7.866 6.42 5
      vertex 7.505 5.694 -5
    endloop
  endfacet
  facet normal -0.895412 0.445239 0
    outer loop
      vertex 7.505 5.694 -5
      vertex 7.866 6.42 5
      vertex 7.866 6.42 -5
    endloop
  endfacet
  facet normal -0.635975 0.77171 0
    outer loop
      vertex 6.999 5.277 5
      vertex 7.505 5.694 5
      vertex 6.999 5.277 -5
    endloop
  endfacet
  facet normal -0.635975 0.77171 0
    outer loop
      vertex 6.999 5.277 -5
      vertex 7.505 5.694 5
      vertex 7.505 5.694 -5
    endloop
  endfacet
  facet normal -0.446685 0.894691 0
    outer loop
      vertex 6.322 4.939 5
      vertex 6.999 5.277 5
      vertex 6.322 4.939 -5
    endloop
  endfacet
  facet normal -0.446685 0.894691 0
    outer loop
      vertex 6.322 4.939 -5
      vertex 6.999 5.277 5
      vertex 6.999 5.277 -5
    endloop
  endfacet
  facet normal -0.341374 0.939927 0
    outer loop
      vertex 5.708 4.716 5
      vertex 6.322 4.939 5
      vertex 5.708 4.716 -5
    endloop
  endfacet
  facet normal -0.341374 0.939927 0
    outer loop
      vertex 5.708 4.716 -5
      vertex 6.322 4.939 5
      vertex 6.322 4.939 -5
    endloop
  endfacet
  facet normal -0.174167 0.984716 0
    outer loop
      vertex 4.973 4.586 5
      vertex 5.708 4.716 5
      vertex 4.973 4.586 -5
    endloop
  endfacet
  facet normal -0.174167 0.984716 0
    outer loop
      vertex 4.973 4.586 -5
      vertex 5.708 4.716 5
      vertex 5.708 4.716 -5
    endloop
  endfacet
  facet normal -0.0449443 0.998989 0
    outer loop
      vertex 3.995 4.542 5
      vertex 4.973 4.586 5
      vertex 3.995 4.542 -5
    endloop
  endfacet
  facet normal -0.0449443 0.998989 0
    outer loop
      vertex 3.995 4.542 -5
      vertex 4.973 4.586 5
      vertex 4.973 4.586 -5
    endloop
  endfacet
  facet normal 0.0223491 0.99975 0
    outer loop
      vertex 2.653 4.572 5
      vertex 3.995 4.542 5
      vertex 2.653 4.572 -5
    endloop
  endfacet
  facet normal 0.0223491 0.99975 0
    outer loop
      vertex 2.653 4.572 -5
      vertex 3.995 4.542 5
      vertex 3.995 4.542 -5
    endloop
  endfacet
  facet normal 0.0316464 0.999499 0
    outer loop
      vertex 0 4.656 5
      vertex 2.653 4.572 5
      vertex 0 4.656 -5
    endloop
  endfacet
  facet normal 0.0316464 0.999499 0
    outer loop
      vertex 0 4.656 -5
      vertex 2.653 4.572 5
      vertex 2.653 4.572 -5
    endloop
  endfacet
endsolid OpenSCAD_Model
