solid OpenSCAD_Model
  facet normal 0.967978 -0.251036 0
    outer loop
      vertex 5.722 42.343 -5
      vertex 6.666 45.983 -5
      vertex 6.666 45.983 5
    endloop
  endfacet
  facet normal 0.967978 -0.251036 0
    outer loop
      vertex 5.722 42.343 5
      vertex 5.722 42.343 -5
      vertex 6.666 45.983 5
    endloop
  endfacet
  facet normal 0 0 -1
    outer loop
      vertex 0.178 41.92 -5
      vertex 0.788 45.46 -5
      vertex 0 37.961 -5
    endloop
  endfacet
  facet normal 0 0 -1
    outer loop
      vertex 0 37.961 -5
      vertex 0.788 45.46 -5
      vertex 1.053 46.327 -5
    endloop
  endfacet
  facet normal 0 0 -1
    outer loop
      vertex 0 37.961 -5
      vertex 1.053 46.327 -5
      vertex 1.469 47.433 -5
    endloop
  endfacet
  facet normal 0 0 -1
    outer loop
      vertex 0 37.961 -5
      vertex 1.469 47.433 -5
      vertex 1.973 48.641 -5
    endloop
  endfacet
  facet normal 0 0 -1
    outer loop
      vertex 0 37.961 -5
      vertex 1.973 48.641 -5
      vertex 2.509 49.808 -5
    endloop
  endfacet
  facet normal 0 0 -1
    outer loop
      vertex 0 37.961 -5
      vertex 2.509 49.808 -5
      vertex 4.687 53.202 -5
    endloop
  endfacet
  facet normal 0 0 -1
    outer loop
      vertex 0 37.961 -5
      vertex 4.687 53.202 -5
      vertex 7.525 55.984 -5
    endloop
  endfacet
  facet normal 0 0 -1
    outer loop
      vertex 0 37.961 -5
      vertex 7.525 55.984 -5
      vertex 10.882 58.043 -5
    endloop
  endfacet
  facet normal 0 0 -1
    outer loop
      vertex 0 37.961 -5
      vertex 10.882 58.043 -5
      vertex 14.617 59.261 -5
    endloop
  endfacet
  facet normal 0 0 -1
    outer loop
      vertex 12.666 53.507 -5
      vertex 14.617 59.261 -5
      vertex 18.842 59.666 -5
    endloop
  endfacet
  facet normal 0 0 -1
    outer loop
      vertex 18.105 55.115 -5
      vertex 18.842 59.666 -5
      vertex 22.724 59.15 -5
    endloop
  endfacet
  facet normal 0 0 -1
    outer loop
      vertex 21.136 54.886 -5
      vertex 22.724 59.15 -5
      vertex 26.213 57.722 -5
    endloop
  endfacet
  facet normal 0 0 -1
    outer loop
      vertex 25.25 53.293 -5
      vertex 26.213 57.722 -5
      vertex 29.264 55.394 -5
    endloop
  endfacet
  facet normal 0 0 -1
    outer loop
      vertex 31.918 35.596 -5
      vertex 37.593 31.979 -5
      vertex 30.926 31.113 -5
    endloop
  endfacet
  facet normal 0 0 -1
    outer loop
      vertex 31.946 40.436 -5
      vertex 37.611 35.735 -5
      vertex 31.918 35.596 -5
    endloop
  endfacet
  facet normal 0 0 -1
    outer loop
      vertex 31.946 40.436 -5
      vertex 37.618 39.619 -5
      vertex 37.611 35.735 -5
    endloop
  endfacet
  facet normal 0 0 -1
    outer loop
      vertex 28.498 50.256 -5
      vertex 31.636 52.516 -5
      vertex 32.228 51.387 -5
    endloop
  endfacet
  facet normal 0 0 -1
    outer loop
      vertex 32.256 54.999 -5
      vertex 37.618 58.584 -5
      vertex 32.228 51.387 -5
    endloop
  endfacet
  facet normal 0 0 -1
    outer loop
      vertex 32.256 58.584 -5
      vertex 37.618 58.584 -5
      vertex 32.256 54.999 -5
    endloop
  endfacet
  facet normal 0 0 -1
    outer loop
      vertex 32.228 51.387 -5
      vertex 37.618 58.584 -5
      vertex 37.618 39.619 -5
    endloop
  endfacet
  facet normal 0 0 -1
    outer loop
      vertex 31.918 35.596 -5
      vertex 37.611 35.735 -5
      vertex 37.593 31.979 -5
    endloop
  endfacet
  facet normal 0 0 -1
    outer loop
      vertex 30.926 31.113 -5
      vertex 37.593 31.979 -5
      vertex 37.565 28.44 -5
    endloop
  endfacet
  facet normal 0 0 -1
    outer loop
      vertex 32.341 25.423 -5
      vertex 37.53 25.213 -5
      vertex 37.487 22.386 -5
    endloop
  endfacet
  facet normal 0 0 -1
    outer loop
      vertex 27.949 20.169 -5
      vertex 24.451 22.982 -5
      vertex 26.414 24.265 -5
    endloop
  endfacet
  facet normal 0 0 -1
    outer loop
      vertex 32.143 20.709 -5
      vertex 37.389 18.307 -5
      vertex 37.337 17.238 -5
    endloop
  endfacet
  facet normal 0 0 -1
    outer loop
      vertex 29.06 27.249 -5
      vertex 31.156 23.673 -5
      vertex 26.414 24.265 -5
    endloop
  endfacet
  facet normal 0 0 -1
    outer loop
      vertex 31.769 15.96 -5
      vertex 36.82 13.264 -5
      vertex 35.921 9.965 -5
    endloop
  endfacet
  facet normal 0 0 -1
    outer loop
      vertex 31 12.402 -5
      vertex 35.921 9.965 -5
      vertex 34.593 7.206 -5
    endloop
  endfacet
  facet normal 0 0 -1
    outer loop
      vertex 29.722 9.697 -5
      vertex 34.593 7.206 -5
      vertex 32.792 4.848 -5
    endloop
  endfacet
  facet normal 0 0 -1
    outer loop
      vertex 27.825 7.502 -5
      vertex 32.792 4.848 -5
      vertex 31.31 3.458 -5
    endloop
  endfacet
  facet normal 0 0 -1
    outer loop
      vertex 7.685 28.226 -5
      vertex 0 37.961 -5
      vertex 6.407 31.17 -5
    endloop
  endfacet
  facet normal 0 0 -1
    outer loop
      vertex 25.13 5.755 -5
      vertex 29.684 2.337 -5
      vertex 27.819 1.428 -5
    endloop
  endfacet
  facet normal 0 0 -1
    outer loop
      vertex 21.82 4.734 -5
      vertex 25.623 0.671 -5
      vertex 22.809 0.187 -5
    endloop
  endfacet
  facet normal 0 0 -1
    outer loop
      vertex 18.141 4.491 -5
      vertex 22.809 0.187 -5
      vertex 19.305 0.003 -5
    endloop
  endfacet
  facet normal 0 0 -1
    outer loop
      vertex 14.334 5.075 -5
      vertex 19.305 0.003 -5
      vertex 15.784 0.125 -5
    endloop
  endfacet
  facet normal 0 0 -1
    outer loop
      vertex 11.992 5.955 -5
      vertex 15.784 0.125 -5
      vertex 12.923 0.558 -5
    endloop
  endfacet
  facet normal 0 0 -1
    outer loop
      vertex 7.448 10.776 -5
      vertex 12.923 0.558 -5
      vertex 8.884 2.042 -5
    endloop
  endfacet
  facet normal 0 0 -1
    outer loop
      vertex 5.237 12.845 -5
      vertex 8.884 2.042 -5
      vertex 5.66 4.171 -5
    endloop
  endfacet
  facet normal 0 0 -1
    outer loop
      vertex 3.163 12.861 -5
      vertex 5.66 4.171 -5
      vertex 3.307 6.894 -5
    endloop
  endfacet
  facet normal 0 0 -1
    outer loop
      vertex 1.906 12.736 -5
      vertex 3.307 6.894 -5
      vertex 1.889 10.153 -5
    endloop
  endfacet
  facet normal 0 0 -1
    outer loop
      vertex 1.603 12.547 -5
      vertex 1.889 10.153 -5
      vertex 1.65 11.064 -5
    endloop
  endfacet
  facet normal 0 0 -1
    outer loop
      vertex 1.477 12.227 -5
      vertex 1.65 11.064 -5
      vertex 1.503 11.745 -5
    endloop
  endfacet
  facet normal 0 0 -1
    outer loop
      vertex 5.388 38.264 -5
      vertex 0 37.961 -5
      vertex 5.722 42.343 -5
    endloop
  endfacet
  facet normal 0 0 -1
    outer loop
      vertex 1.906 12.736 -5
      vertex 1.889 10.153 -5
      vertex 1.603 12.547 -5
    endloop
  endfacet
  facet normal 0 0 -1
    outer loop
      vertex 2.416 12.83 -5
      vertex 3.307 6.894 -5
      vertex 1.906 12.736 -5
    endloop
  endfacet
  facet normal 0 0 -1
    outer loop
      vertex 3.163 12.861 -5
      vertex 3.307 6.894 -5
      vertex 2.416 12.83 -5
    endloop
  endfacet
  facet normal 0 0 -1
    outer loop
      vertex 4.175 12.864 -5
      vertex 5.66 4.171 -5
      vertex 3.163 12.861 -5
    endloop
  endfacet
  facet normal 0 0 -1
    outer loop
      vertex 5.237 12.845 -5
      vertex 5.66 4.171 -5
      vertex 4.175 12.864 -5
    endloop
  endfacet
  facet normal 0 0 -1
    outer loop
      vertex 6.087 12.787 -5
      vertex 8.884 2.042 -5
      vertex 5.237 12.845 -5
    endloop
  endfacet
  facet normal 0 0 -1
    outer loop
      vertex 6.65 12.699 -5
      vertex 8.884 2.042 -5
      vertex 6.087 12.787 -5
    endloop
  endfacet
  facet normal 0 0 -1
    outer loop
      vertex 7.025 11.944 -5
      vertex 6.65 12.699 -5
      vertex 6.856 12.582 -5
    endloop
  endfacet
  facet normal 0 0 -1
    outer loop
      vertex 11.992 5.955 -5
      vertex 12.923 0.558 -5
      vertex 10.013 7.237 -5
    endloop
  endfacet
  facet normal 0 0 -1
    outer loop
      vertex 10.013 7.237 -5
      vertex 12.923 0.558 -5
      vertex 8.472 8.865 -5
    endloop
  endfacet
  facet normal 0 0 -1
    outer loop
      vertex 6.65 12.699 -5
      vertex 7.025 11.944 -5
      vertex 8.884 2.042 -5
    endloop
  endfacet
  facet normal 0 0 -1
    outer loop
      vertex 8.472 8.865 -5
      vertex 12.923 0.558 -5
      vertex 7.448 10.776 -5
    endloop
  endfacet
  facet normal 0 0 -1
    outer loop
      vertex 7.025 11.944 -5
      vertex 7.448 10.776 -5
      vertex 8.884 2.042 -5
    endloop
  endfacet
  facet normal 0 0 -1
    outer loop
      vertex 5.712 21.846 -5
      vertex 0 37.961 -5
      vertex 9.438 19.131 -5
    endloop
  endfacet
  facet normal 0 0 -1
    outer loop
      vertex 14.334 5.075 -5
      vertex 15.784 0.125 -5
      vertex 11.992 5.955 -5
    endloop
  endfacet
  facet normal 0 0 -1
    outer loop
      vertex 13.968 17.548 -5
      vertex 0 37.961 -5
      vertex 9.481 25.705 -5
    endloop
  endfacet
  facet normal 0 0 -1
    outer loop
      vertex 18.141 4.491 -5
      vertex 19.305 0.003 -5
      vertex 14.334 5.075 -5
    endloop
  endfacet
  facet normal 0 0 -1
    outer loop
      vertex 25.13 5.755 -5
      vertex 25.623 0.671 -5
      vertex 21.82 4.734 -5
    endloop
  endfacet
  facet normal 0 0 -1
    outer loop
      vertex 21.82 4.734 -5
      vertex 22.809 0.187 -5
      vertex 18.141 4.491 -5
    endloop
  endfacet
  facet normal 0 0 -1
    outer loop
      vertex 25.13 5.755 -5
      vertex 27.819 1.428 -5
      vertex 25.623 0.671 -5
    endloop
  endfacet
  facet normal 0 0 -1
    outer loop
      vertex 27.825 7.502 -5
      vertex 31.31 3.458 -5
      vertex 29.684 2.337 -5
    endloop
  endfacet
  facet normal 0 0 -1
    outer loop
      vertex 23.968 17.966 -5
      vertex 20.022 21.703 -5
      vertex 22.295 22.13 -5
    endloop
  endfacet
  facet normal 0 0 -1
    outer loop
      vertex 29.722 9.697 -5
      vertex 32.792 4.848 -5
      vertex 27.825 7.502 -5
    endloop
  endfacet
  facet normal 0 0 -1
    outer loop
      vertex 31 12.402 -5
      vertex 34.593 7.206 -5
      vertex 29.722 9.697 -5
    endloop
  endfacet
  facet normal 0 0 -1
    outer loop
      vertex 31.769 15.96 -5
      vertex 35.921 9.965 -5
      vertex 31 12.402 -5
    endloop
  endfacet
  facet normal 0 0 -1
    outer loop
      vertex 32.143 20.709 -5
      vertex 37.337 17.238 -5
      vertex 36.82 13.264 -5
    endloop
  endfacet
  facet normal 0 0 -1
    outer loop
      vertex 32.341 25.423 -5
      vertex 37.487 22.386 -5
      vertex 37.439 20.053 -5
    endloop
  endfacet
  facet normal 0 0 -1
    outer loop
      vertex 29.06 27.249 -5
      vertex 37.53 25.213 -5
      vertex 32.341 25.423 -5
    endloop
  endfacet
  facet normal 0 0 -1
    outer loop
      vertex 6.407 31.17 -5
      vertex 0 37.961 -5
      vertex 5.642 34.52 -5
    endloop
  endfacet
  facet normal 0 0 -1
    outer loop
      vertex 27.949 20.169 -5
      vertex 26.414 24.265 -5
      vertex 31.156 23.673 -5
    endloop
  endfacet
  facet normal 0 0 -1
    outer loop
      vertex 23.968 17.966 -5
      vertex 22.295 22.13 -5
      vertex 27.949 20.169 -5
    endloop
  endfacet
  facet normal 0 0 -1
    outer loop
      vertex 25.25 53.293 -5
      vertex 31.636 52.516 -5
      vertex 28.498 50.256 -5
    endloop
  endfacet
  facet normal 0 0 -1
    outer loop
      vertex 25.25 53.293 -5
      vertex 29.264 55.394 -5
      vertex 30.007 54.628 -5
    endloop
  endfacet
  facet normal 0 0 -1
    outer loop
      vertex 2.855 25.63 -5
      vertex 0 37.961 -5
      vertex 5.712 21.846 -5
    endloop
  endfacet
  facet normal 0 0 -1
    outer loop
      vertex 0.929 30.419 -5
      vertex 0 37.961 -5
      vertex 2.855 25.63 -5
    endloop
  endfacet
  facet normal 0 0 -1
    outer loop
      vertex 0.251 33.992 -5
      vertex 0 37.961 -5
      vertex 0.929 30.419 -5
    endloop
  endfacet
  facet normal 0 0 -1
    outer loop
      vertex 21.136 54.886 -5
      vertex 26.213 57.722 -5
      vertex 25.25 53.293 -5
    endloop
  endfacet
  facet normal 0 0 -1
    outer loop
      vertex 28.498 50.256 -5
      vertex 32.228 51.387 -5
      vertex 30.769 45.922 -5
    endloop
  endfacet
  facet normal 0 0 -1
    outer loop
      vertex 5.642 34.52 -5
      vertex 0 37.961 -5
      vertex 5.388 38.264 -5
    endloop
  endfacet
  facet normal 0 0 -1
    outer loop
      vertex 32.341 25.423 -5
      vertex 37.439 20.053 -5
      vertex 37.389 18.307 -5
    endloop
  endfacet
  facet normal 0 0 -1
    outer loop
      vertex 25.25 53.293 -5
      vertex 31.272 53.093 -5
      vertex 31.636 52.516 -5
    endloop
  endfacet
  facet normal 0 0 -1
    outer loop
      vertex 27.825 7.502 -5
      vertex 29.684 2.337 -5
      vertex 25.13 5.755 -5
    endloop
  endfacet
  facet normal 0 0 -1
    outer loop
      vertex 15.416 22.098 -5
      vertex 19.284 17.085 -5
      vertex 13.233 22.906 -5
    endloop
  endfacet
  facet normal 0 0 -1
    outer loop
      vertex 9.481 25.705 -5
      vertex 0 37.961 -5
      vertex 7.685 28.226 -5
    endloop
  endfacet
  facet normal 0 0 -1
    outer loop
      vertex 13.968 17.548 -5
      vertex 9.481 25.705 -5
      vertex 11.23 24.11 -5
    endloop
  endfacet
  facet normal 0 0 -1
    outer loop
      vertex 20.022 21.703 -5
      vertex 23.968 17.966 -5
      vertex 17.704 21.695 -5
    endloop
  endfacet
  facet normal 0 0 -1
    outer loop
      vertex 19.284 17.085 -5
      vertex 17.704 21.695 -5
      vertex 23.968 17.966 -5
    endloop
  endfacet
  facet normal 0 0 -1
    outer loop
      vertex 13.968 17.548 -5
      vertex 11.23 24.11 -5
      vertex 13.233 22.906 -5
    endloop
  endfacet
  facet normal 0 0 -1
    outer loop
      vertex 13.968 17.548 -5
      vertex 13.233 22.906 -5
      vertex 19.284 17.085 -5
    endloop
  endfacet
  facet normal 0 0 -1
    outer loop
      vertex 19.284 17.085 -5
      vertex 15.416 22.098 -5
      vertex 17.704 21.695 -5
    endloop
  endfacet
  facet normal 0 0 -1
    outer loop
      vertex 32.143 20.709 -5
      vertex 36.82 13.264 -5
      vertex 31.769 15.96 -5
    endloop
  endfacet
  facet normal 0 0 -1
    outer loop
      vertex 32.341 25.423 -5
      vertex 37.389 18.307 -5
      vertex 32.143 20.709 -5
    endloop
  endfacet
  facet normal 0 0 -1
    outer loop
      vertex 29.06 27.249 -5
      vertex 32.341 25.423 -5
      vertex 31.156 23.673 -5
    endloop
  endfacet
  facet normal 0 0 -1
    outer loop
      vertex 24.451 22.982 -5
      vertex 27.949 20.169 -5
      vertex 22.295 22.13 -5
    endloop
  endfacet
  facet normal 0 0 -1
    outer loop
      vertex 32.228 51.387 -5
      vertex 37.618 39.619 -5
      vertex 31.946 40.436 -5
    endloop
  endfacet
  facet normal 0 0 -1
    outer loop
      vertex 32.228 51.387 -5
      vertex 31.946 40.436 -5
      vertex 30.769 45.922 -5
    endloop
  endfacet
  facet normal 0 0 -1
    outer loop
      vertex 25.25 53.293 -5
      vertex 30.703 53.829 -5
      vertex 31.272 53.093 -5
    endloop
  endfacet
  facet normal 0 0 -1
    outer loop
      vertex 30.926 31.113 -5
      vertex 37.565 28.44 -5
      vertex 37.53 25.213 -5
    endloop
  endfacet
  facet normal 0 0 -1
    outer loop
      vertex 18.105 55.115 -5
      vertex 22.724 59.15 -5
      vertex 21.136 54.886 -5
    endloop
  endfacet
  facet normal 0 0 -1
    outer loop
      vertex 15.28 54.654 -5
      vertex 18.842 59.666 -5
      vertex 18.105 55.115 -5
    endloop
  endfacet
  facet normal 0 0 -1
    outer loop
      vertex 12.666 53.507 -5
      vertex 18.842 59.666 -5
      vertex 15.28 54.654 -5
    endloop
  endfacet
  facet normal 0 0 -1
    outer loop
      vertex 10.271 51.67 -5
      vertex 14.617 59.261 -5
      vertex 12.666 53.507 -5
    endloop
  endfacet
  facet normal 0 0 -1
    outer loop
      vertex 6.666 45.983 -5
      vertex 0 37.961 -5
      vertex 8.19 49.115 -5
    endloop
  endfacet
  facet normal 0 0 -1
    outer loop
      vertex 8.19 49.115 -5
      vertex 14.617 59.261 -5
      vertex 10.271 51.67 -5
    endloop
  endfacet
  facet normal 0 0 -1
    outer loop
      vertex 0 37.961 -5
      vertex 14.617 59.261 -5
      vertex 8.19 49.115 -5
    endloop
  endfacet
  facet normal 0 0 -1
    outer loop
      vertex 5.722 42.343 -5
      vertex 0 37.961 -5
      vertex 6.666 45.983 -5
    endloop
  endfacet
  facet normal 0 0 -1
    outer loop
      vertex 30.926 31.113 -5
      vertex 37.53 25.213 -5
      vertex 29.06 27.249 -5
    endloop
  endfacet
  facet normal 0 0 -1
    outer loop
      vertex 1.603 12.547 -5
      vertex 1.65 11.064 -5
      vertex 1.477 12.227 -5
    endloop
  endfacet
  facet normal 0 0 -1
    outer loop
      vertex 9.438 19.131 -5
      vertex 0 37.961 -5
      vertex 13.968 17.548 -5
    endloop
  endfacet
  facet normal 0 0 -1
    outer loop
      vertex 25.25 53.293 -5
      vertex 30.007 54.628 -5
      vertex 30.703 53.829 -5
    endloop
  endfacet
  facet normal 0.996664 -0.0816097 0
    outer loop
      vertex 5.388 38.264 -5
      vertex 5.722 42.343 -5
      vertex 5.722 42.343 5
    endloop
  endfacet
  facet normal 0.996664 -0.0816097 0
    outer loop
      vertex 5.388 38.264 5
      vertex 5.388 38.264 -5
      vertex 5.722 42.343 5
    endloop
  endfacet
  facet normal 0 0 1
    outer loop
      vertex 25.25 53.293 5
      vertex 31.636 52.516 5
      vertex 31.272 53.093 5
    endloop
  endfacet
  facet normal 0 0 1
    outer loop
      vertex 0 37.961 5
      vertex 0.251 33.992 5
      vertex 0.929 30.419 5
    endloop
  endfacet
  facet normal 0 0 1
    outer loop
      vertex 5.712 21.846 5
      vertex 0 37.961 5
      vertex 2.855 25.63 5
    endloop
  endfacet
  facet normal 0 0 1
    outer loop
      vertex 2.855 25.63 5
      vertex 0 37.961 5
      vertex 0.929 30.419 5
    endloop
  endfacet
  facet normal 0 0 1
    outer loop
      vertex 9.438 19.131 5
      vertex 0 37.961 5
      vertex 5.712 21.846 5
    endloop
  endfacet
  facet normal 0 0 1
    outer loop
      vertex 13.968 17.548 5
      vertex 0 37.961 5
      vertex 9.438 19.131 5
    endloop
  endfacet
  facet normal 0 0 1
    outer loop
      vertex 9.481 25.705 5
      vertex 0 37.961 5
      vertex 13.968 17.548 5
    endloop
  endfacet
  facet normal 0 0 1
    outer loop
      vertex 20.022 21.703 5
      vertex 17.704 21.695 5
      vertex 23.968 17.966 5
    endloop
  endfacet
  facet normal 0 0 1
    outer loop
      vertex 5.388 38.264 5
      vertex 5.722 42.343 5
      vertex 0 37.961 5
    endloop
  endfacet
  facet normal 0 0 1
    outer loop
      vertex 31.946 40.436 5
      vertex 37.611 35.735 5
      vertex 37.618 39.619 5
    endloop
  endfacet
  facet normal 0 0 1
    outer loop
      vertex 32.792 4.848 5
      vertex 32.341 25.423 5
      vertex 32.143 20.709 5
    endloop
  endfacet
  facet normal 0 0 1
    outer loop
      vertex 31.31 3.458 5
      vertex 32.143 20.709 5
      vertex 31.769 15.96 5
    endloop
  endfacet
  facet normal 0 0 1
    outer loop
      vertex 29.684 2.337 5
      vertex 31.769 15.96 5
      vertex 31 12.402 5
    endloop
  endfacet
  facet normal 0 0 1
    outer loop
      vertex 25.623 0.671 5
      vertex 31 12.402 5
      vertex 29.722 9.697 5
    endloop
  endfacet
  facet normal 0 0 1
    outer loop
      vertex 22.809 0.187 5
      vertex 29.722 9.697 5
      vertex 27.825 7.502 5
    endloop
  endfacet
  facet normal 0 0 1
    outer loop
      vertex 19.305 0.003 5
      vertex 27.825 7.502 5
      vertex 25.13 5.755 5
    endloop
  endfacet
  facet normal 0 0 1
    outer loop
      vertex 12.923 0.558 5
      vertex 25.13 5.755 5
      vertex 21.82 4.734 5
    endloop
  endfacet
  facet normal 0 0 1
    outer loop
      vertex 8.884 2.042 5
      vertex 21.82 4.734 5
      vertex 18.141 4.491 5
    endloop
  endfacet
  facet normal 0 0 1
    outer loop
      vertex 5.66 4.171 5
      vertex 18.141 4.491 5
      vertex 14.334 5.075 5
    endloop
  endfacet
  facet normal 0 0 1
    outer loop
      vertex 3.307 6.894 5
      vertex 14.334 5.075 5
      vertex 11.992 5.955 5
    endloop
  endfacet
  facet normal 0 0 1
    outer loop
      vertex 1.603 12.547 5
      vertex 11.992 5.955 5
      vertex 10.013 7.237 5
    endloop
  endfacet
  facet normal 0 0 1
    outer loop
      vertex 4.175 12.864 5
      vertex 10.013 7.237 5
      vertex 8.472 8.865 5
    endloop
  endfacet
  facet normal 0 0 1
    outer loop
      vertex 6.856 12.582 5
      vertex 6.65 12.699 5
      vertex 7.025 11.944 5
    endloop
  endfacet
  facet normal 0 0 1
    outer loop
      vertex 6.087 12.787 5
      vertex 8.472 8.865 5
      vertex 7.448 10.776 5
    endloop
  endfacet
  facet normal 0 0 1
    outer loop
      vertex 6.65 12.699 5
      vertex 7.448 10.776 5
      vertex 7.025 11.944 5
    endloop
  endfacet
  facet normal 0 0 1
    outer loop
      vertex 6.087 12.787 5
      vertex 7.448 10.776 5
      vertex 6.65 12.699 5
    endloop
  endfacet
  facet normal 0 0 1
    outer loop
      vertex 5.237 12.845 5
      vertex 8.472 8.865 5
      vertex 6.087 12.787 5
    endloop
  endfacet
  facet normal 0 0 1
    outer loop
      vertex 4.175 12.864 5
      vertex 8.472 8.865 5
      vertex 5.237 12.845 5
    endloop
  endfacet
  facet normal 0 0 1
    outer loop
      vertex 3.163 12.861 5
      vertex 10.013 7.237 5
      vertex 4.175 12.864 5
    endloop
  endfacet
  facet normal 0 0 1
    outer loop
      vertex 3.163 12.861 5
      vertex 2.416 12.83 5
      vertex 10.013 7.237 5
    endloop
  endfacet
  facet normal 0 0 1
    outer loop
      vertex 2.416 12.83 5
      vertex 1.906 12.736 5
      vertex 10.013 7.237 5
    endloop
  endfacet
  facet normal 0 0 1
    outer loop
      vertex 1.906 12.736 5
      vertex 1.603 12.547 5
      vertex 10.013 7.237 5
    endloop
  endfacet
  facet normal 0 0 1
    outer loop
      vertex 1.603 12.547 5
      vertex 1.477 12.227 5
      vertex 11.992 5.955 5
    endloop
  endfacet
  facet normal 0 0 1
    outer loop
      vertex 1.477 12.227 5
      vertex 1.503 11.745 5
      vertex 11.992 5.955 5
    endloop
  endfacet
  facet normal 0 0 1
    outer loop
      vertex 1.503 11.745 5
      vertex 1.65 11.064 5
      vertex 11.992 5.955 5
    endloop
  endfacet
  facet normal 0 0 1
    outer loop
      vertex 1.65 11.064 5
      vertex 1.889 10.153 5
      vertex 11.992 5.955 5
    endloop
  endfacet
  facet normal 0 0 1
    outer loop
      vertex 1.889 10.153 5
      vertex 3.307 6.894 5
      vertex 11.992 5.955 5
    endloop
  endfacet
  facet normal 0 0 1
    outer loop
      vertex 3.307 6.894 5
      vertex 5.66 4.171 5
      vertex 14.334 5.075 5
    endloop
  endfacet
  facet normal 0 0 1
    outer loop
      vertex 5.66 4.171 5
      vertex 8.884 2.042 5
      vertex 18.141 4.491 5
    endloop
  endfacet
  facet normal 0 0 1
    outer loop
      vertex 8.884 2.042 5
      vertex 12.923 0.558 5
      vertex 21.82 4.734 5
    endloop
  endfacet
  facet normal 0 0 1
    outer loop
      vertex 12.923 0.558 5
      vertex 15.784 0.125 5
      vertex 25.13 5.755 5
    endloop
  endfacet
  facet normal 0 0 1
    outer loop
      vertex 15.784 0.125 5
      vertex 19.305 0.003 5
      vertex 25.13 5.755 5
    endloop
  endfacet
  facet normal 0 0 1
    outer loop
      vertex 19.305 0.003 5
      vertex 22.809 0.187 5
      vertex 27.825 7.502 5
    endloop
  endfacet
  facet normal 0 0 1
    outer loop
      vertex 22.809 0.187 5
      vertex 25.623 0.671 5
      vertex 29.722 9.697 5
    endloop
  endfacet
  facet normal 0 0 1
    outer loop
      vertex 25.623 0.671 5
      vertex 27.819 1.428 5
      vertex 31 12.402 5
    endloop
  endfacet
  facet normal 0 0 1
    outer loop
      vertex 27.819 1.428 5
      vertex 29.684 2.337 5
      vertex 31 12.402 5
    endloop
  endfacet
  facet normal 0 0 1
    outer loop
      vertex 29.684 2.337 5
      vertex 31.31 3.458 5
      vertex 31.769 15.96 5
    endloop
  endfacet
  facet normal 0 0 1
    outer loop
      vertex 31.31 3.458 5
      vertex 32.792 4.848 5
      vertex 32.143 20.709 5
    endloop
  endfacet
  facet normal 0 0 1
    outer loop
      vertex 32.792 4.848 5
      vertex 34.593 7.206 5
      vertex 32.341 25.423 5
    endloop
  endfacet
  facet normal 0 0 1
    outer loop
      vertex 34.593 7.206 5
      vertex 35.921 9.965 5
      vertex 32.341 25.423 5
    endloop
  endfacet
  facet normal 0 0 1
    outer loop
      vertex 35.921 9.965 5
      vertex 36.82 13.264 5
      vertex 32.341 25.423 5
    endloop
  endfacet
  facet normal 0 0 1
    outer loop
      vertex 36.82 13.264 5
      vertex 37.337 17.238 5
      vertex 32.341 25.423 5
    endloop
  endfacet
  facet normal 0 0 1
    outer loop
      vertex 37.337 17.238 5
      vertex 37.389 18.307 5
      vertex 32.341 25.423 5
    endloop
  endfacet
  facet normal 0 0 1
    outer loop
      vertex 37.389 18.307 5
      vertex 37.439 20.053 5
      vertex 32.341 25.423 5
    endloop
  endfacet
  facet normal 0 0 1
    outer loop
      vertex 37.439 20.053 5
      vertex 37.487 22.386 5
      vertex 32.341 25.423 5
    endloop
  endfacet
  facet normal 0 0 1
    outer loop
      vertex 37.487 22.386 5
      vertex 37.53 25.213 5
      vertex 32.341 25.423 5
    endloop
  endfacet
  facet normal 0 0 1
    outer loop
      vertex 28.498 50.256 5
      vertex 30.769 45.922 5
      vertex 32.228 51.387 5
    endloop
  endfacet
  facet normal 0 0 1
    outer loop
      vertex 6.407 31.17 5
      vertex 5.642 34.52 5
      vertex 0 37.961 5
    endloop
  endfacet
  facet normal 0 0 1
    outer loop
      vertex 37.618 39.619 5
      vertex 37.618 58.584 5
      vertex 32.256 54.999 5
    endloop
  endfacet
  facet normal 0 0 1
    outer loop
      vertex 37.618 39.619 5
      vertex 32.256 54.999 5
      vertex 32.228 51.387 5
    endloop
  endfacet
  facet normal 0 0 1
    outer loop
      vertex 25.25 53.293 5
      vertex 28.498 50.256 5
      vertex 31.636 52.516 5
    endloop
  endfacet
  facet normal 0 0 1
    outer loop
      vertex 5.722 42.343 5
      vertex 6.666 45.983 5
      vertex 0 37.961 5
    endloop
  endfacet
  facet normal 0 0 1
    outer loop
      vertex 29.264 55.394 5
      vertex 26.213 57.722 5
      vertex 25.25 53.293 5
    endloop
  endfacet
  facet normal 0 0 1
    outer loop
      vertex 31.918 35.596 5
      vertex 30.926 31.113 5
      vertex 37.593 31.979 5
    endloop
  endfacet
  facet normal 0 0 1
    outer loop
      vertex 8.19 49.115 5
      vertex 10.271 51.67 5
      vertex 14.617 59.261 5
    endloop
  endfacet
  facet normal 0 0 1
    outer loop
      vertex 8.19 49.115 5
      vertex 14.617 59.261 5
      vertex 0 37.961 5
    endloop
  endfacet
  facet normal 0 0 1
    outer loop
      vertex 14.617 59.261 5
      vertex 10.882 58.043 5
      vertex 0 37.961 5
    endloop
  endfacet
  facet normal 0 0 1
    outer loop
      vertex 10.882 58.043 5
      vertex 7.525 55.984 5
      vertex 0 37.961 5
    endloop
  endfacet
  facet normal 0 0 1
    outer loop
      vertex 7.525 55.984 5
      vertex 4.687 53.202 5
      vertex 0 37.961 5
    endloop
  endfacet
  facet normal 0 0 1
    outer loop
      vertex 4.687 53.202 5
      vertex 2.509 49.808 5
      vertex 0 37.961 5
    endloop
  endfacet
  facet normal 0 0 1
    outer loop
      vertex 2.509 49.808 5
      vertex 1.973 48.641 5
      vertex 0 37.961 5
    endloop
  endfacet
  facet normal 0 0 1
    outer loop
      vertex 1.973 48.641 5
      vertex 1.469 47.433 5
      vertex 0 37.961 5
    endloop
  endfacet
  facet normal 0 0 1
    outer loop
      vertex 1.469 47.433 5
      vertex 1.053 46.327 5
      vertex 0 37.961 5
    endloop
  endfacet
  facet normal 0 0 1
    outer loop
      vertex 1.053 46.327 5
      vertex 0.788 45.46 5
      vertex 0 37.961 5
    endloop
  endfacet
  facet normal 0 0 1
    outer loop
      vertex 0.788 45.46 5
      vertex 0.178 41.92 5
      vertex 0 37.961 5
    endloop
  endfacet
  facet normal 0 0 1
    outer loop
      vertex 6.666 45.983 5
      vertex 8.19 49.115 5
      vertex 0 37.961 5
    endloop
  endfacet
  facet normal 0 0 1
    outer loop
      vertex 12.666 53.507 5
      vertex 15.28 54.654 5
      vertex 18.842 59.666 5
    endloop
  endfacet
  facet normal 0 0 1
    outer loop
      vertex 18.842 59.666 5
      vertex 14.617 59.261 5
      vertex 10.271 51.67 5
    endloop
  endfacet
  facet normal 0 0 1
    outer loop
      vertex 18.105 55.115 5
      vertex 21.136 54.886 5
      vertex 22.724 59.15 5
    endloop
  endfacet
  facet normal 0 0 1
    outer loop
      vertex 18.842 59.666 5
      vertex 10.271 51.67 5
      vertex 12.666 53.507 5
    endloop
  endfacet
  facet normal 0 0 1
    outer loop
      vertex 25.25 53.293 5
      vertex 30.703 53.829 5
      vertex 30.007 54.628 5
    endloop
  endfacet
  facet normal 0 0 1
    outer loop
      vertex 22.724 59.15 5
      vertex 18.842 59.666 5
      vertex 15.28 54.654 5
    endloop
  endfacet
  facet normal 0 0 1
    outer loop
      vertex 25.25 53.293 5
      vertex 31.272 53.093 5
      vertex 30.703 53.829 5
    endloop
  endfacet
  facet normal 0 0 1
    outer loop
      vertex 22.724 59.15 5
      vertex 15.28 54.654 5
      vertex 18.105 55.115 5
    endloop
  endfacet
  facet normal 0 0 1
    outer loop
      vertex 25.25 53.293 5
      vertex 30.007 54.628 5
      vertex 29.264 55.394 5
    endloop
  endfacet
  facet normal 0 0 1
    outer loop
      vertex 26.213 57.722 5
      vertex 22.724 59.15 5
      vertex 21.136 54.886 5
    endloop
  endfacet
  facet normal 0 0 1
    outer loop
      vertex 21.136 54.886 5
      vertex 25.25 53.293 5
      vertex 26.213 57.722 5
    endloop
  endfacet
  facet normal 0 0 1
    outer loop
      vertex 30.926 31.113 5
      vertex 37.53 25.213 5
      vertex 37.565 28.44 5
    endloop
  endfacet
  facet normal 0 0 1
    outer loop
      vertex 32.228 51.387 5
      vertex 31.636 52.516 5
      vertex 28.498 50.256 5
    endloop
  endfacet
  facet normal 0 0 1
    outer loop
      vertex 37.618 39.619 5
      vertex 32.228 51.387 5
      vertex 30.769 45.922 5
    endloop
  endfacet
  facet normal 0 0 1
    outer loop
      vertex 30.926 31.113 5
      vertex 29.06 27.249 5
      vertex 37.53 25.213 5
    endloop
  endfacet
  facet normal 0 0 1
    outer loop
      vertex 37.618 39.619 5
      vertex 30.769 45.922 5
      vertex 31.946 40.436 5
    endloop
  endfacet
  facet normal 0 0 1
    outer loop
      vertex 37.593 31.979 5
      vertex 37.611 35.735 5
      vertex 31.918 35.596 5
    endloop
  endfacet
  facet normal 0 0 1
    outer loop
      vertex 37.565 28.44 5
      vertex 37.593 31.979 5
      vertex 30.926 31.113 5
    endloop
  endfacet
  facet normal 0 0 1
    outer loop
      vertex 37.53 25.213 5
      vertex 29.06 27.249 5
      vertex 32.341 25.423 5
    endloop
  endfacet
  facet normal 0 0 1
    outer loop
      vertex 31.946 40.436 5
      vertex 31.918 35.596 5
      vertex 37.611 35.735 5
    endloop
  endfacet
  facet normal 0 0 1
    outer loop
      vertex 31.156 23.673 5
      vertex 26.414 24.265 5
      vertex 27.949 20.169 5
    endloop
  endfacet
  facet normal 0 0 1
    outer loop
      vertex 26.414 24.265 5
      vertex 24.451 22.982 5
      vertex 27.949 20.169 5
    endloop
  endfacet
  facet normal 0 0 1
    outer loop
      vertex 27.949 20.169 5
      vertex 22.295 22.13 5
      vertex 23.968 17.966 5
    endloop
  endfacet
  facet normal 0 0 1
    outer loop
      vertex 22.295 22.13 5
      vertex 20.022 21.703 5
      vertex 23.968 17.966 5
    endloop
  endfacet
  facet normal 0 0 1
    outer loop
      vertex 23.968 17.966 5
      vertex 17.704 21.695 5
      vertex 19.284 17.085 5
    endloop
  endfacet
  facet normal 0 0 1
    outer loop
      vertex 17.704 21.695 5
      vertex 15.416 22.098 5
      vertex 19.284 17.085 5
    endloop
  endfacet
  facet normal 0 0 1
    outer loop
      vertex 19.284 17.085 5
      vertex 13.233 22.906 5
      vertex 13.968 17.548 5
    endloop
  endfacet
  facet normal 0 0 1
    outer loop
      vertex 13.233 22.906 5
      vertex 11.23 24.11 5
      vertex 13.968 17.548 5
    endloop
  endfacet
  facet normal 0 0 1
    outer loop
      vertex 11.23 24.11 5
      vertex 9.481 25.705 5
      vertex 13.968 17.548 5
    endloop
  endfacet
  facet normal 0 0 1
    outer loop
      vertex 7.685 28.226 5
      vertex 0 37.961 5
      vertex 9.481 25.705 5
    endloop
  endfacet
  facet normal 0 0 1
    outer loop
      vertex 7.685 28.226 5
      vertex 6.407 31.17 5
      vertex 0 37.961 5
    endloop
  endfacet
  facet normal 0 0 1
    outer loop
      vertex 32.256 58.584 5
      vertex 32.256 54.999 5
      vertex 37.618 58.584 5
    endloop
  endfacet
  facet normal 0 0 1
    outer loop
      vertex 29.06 27.249 5
      vertex 26.414 24.265 5
      vertex 31.156 23.673 5
    endloop
  endfacet
  facet normal 0 0 1
    outer loop
      vertex 29.06 27.249 5
      vertex 31.156 23.673 5
      vertex 32.341 25.423 5
    endloop
  endfacet
  facet normal 0 0 1
    outer loop
      vertex 15.416 22.098 5
      vertex 13.233 22.906 5
      vertex 19.284 17.085 5
    endloop
  endfacet
  facet normal 0 0 1
    outer loop
      vertex 24.451 22.982 5
      vertex 22.295 22.13 5
      vertex 27.949 20.169 5
    endloop
  endfacet
  facet normal 0 0 1
    outer loop
      vertex 5.642 34.52 5
      vertex 5.388 38.264 5
      vertex 0 37.961 5
    endloop
  endfacet
  facet normal 0.899198 -0.437541 0
    outer loop
      vertex 6.666 45.983 -5
      vertex 8.19 49.115 -5
      vertex 8.19 49.115 5
    endloop
  endfacet
  facet normal 0.899198 -0.437541 0
    outer loop
      vertex 6.666 45.983 5
      vertex 6.666 45.983 -5
      vertex 8.19 49.115 5
    endloop
  endfacet
  facet normal -0.998006 -0.063114 0
    outer loop
      vertex 0.251 33.992 -5
      vertex 0.251 33.992 5
      vertex 0 37.961 -5
    endloop
  endfacet
  facet normal -0.998006 -0.063114 0
    outer loop
      vertex 0 37.961 -5
      vertex 0.251 33.992 5
      vertex 0 37.961 5
    endloop
  endfacet
  facet normal -0.998991 0.0449155 0
    outer loop
      vertex 0 37.961 5
      vertex 0.178 41.92 5
      vertex 0 37.961 -5
    endloop
  endfacet
  facet normal -0.998991 0.0449155 0
    outer loop
      vertex 0 37.961 -5
      vertex 0.178 41.92 5
      vertex 0.178 41.92 -5
    endloop
  endfacet
  facet normal -0.982468 -0.18643 0
    outer loop
      vertex 0.929 30.419 -5
      vertex 0.929 30.419 5
      vertex 0.251 33.992 -5
    endloop
  endfacet
  facet normal -0.982468 -0.18643 0
    outer loop
      vertex 0.251 33.992 -5
      vertex 0.929 30.419 5
      vertex 0.251 33.992 5
    endloop
  endfacet
  facet normal -0.92778 -0.373127 0
    outer loop
      vertex 2.855 25.63 -5
      vertex 2.855 25.63 5
      vertex 0.929 30.419 -5
    endloop
  endfacet
  facet normal -0.92778 -0.373127 0
    outer loop
      vertex 0.929 30.419 -5
      vertex 2.855 25.63 5
      vertex 0.929 30.419 5
    endloop
  endfacet
  facet normal -0.798072 -0.602562 0
    outer loop
      vertex 5.712 21.846 -5
      vertex 5.712 21.846 5
      vertex 2.855 25.63 -5
    endloop
  endfacet
  facet normal -0.798072 -0.602562 0
    outer loop
      vertex 2.855 25.63 -5
      vertex 5.712 21.846 5
      vertex 2.855 25.63 5
    endloop
  endfacet
  facet normal -0.588907 -0.808201 0
    outer loop
      vertex 5.712 21.846 -5
      vertex 9.438 19.131 -5
      vertex 9.438 19.131 5
    endloop
  endfacet
  facet normal -0.588907 -0.808201 0
    outer loop
      vertex 5.712 21.846 5
      vertex 5.712 21.846 -5
      vertex 9.438 19.131 5
    endloop
  endfacet
  facet normal -0.329886 -0.944021 0
    outer loop
      vertex 9.438 19.131 -5
      vertex 13.968 17.548 -5
      vertex 13.968 17.548 5
    endloop
  endfacet
  facet normal -0.329886 -0.944021 0
    outer loop
      vertex 9.438 19.131 5
      vertex 9.438 19.131 -5
      vertex 13.968 17.548 5
    endloop
  endfacet
  facet normal -0.0867671 -0.996229 0
    outer loop
      vertex 13.968 17.548 -5
      vertex 19.284 17.085 -5
      vertex 19.284 17.085 5
    endloop
  endfacet
  facet normal -0.0867671 -0.996229 0
    outer loop
      vertex 13.968 17.548 5
      vertex 13.968 17.548 -5
      vertex 19.284 17.085 5
    endloop
  endfacet
  facet normal 0.184846 -0.982768 0
    outer loop
      vertex 19.284 17.085 -5
      vertex 23.968 17.966 -5
      vertex 23.968 17.966 5
    endloop
  endfacet
  facet normal 0.184846 -0.982768 0
    outer loop
      vertex 19.284 17.085 5
      vertex 19.284 17.085 -5
      vertex 23.968 17.966 5
    endloop
  endfacet
  facet normal 0.484187 -0.874965 0
    outer loop
      vertex 23.968 17.966 -5
      vertex 27.949 20.169 -5
      vertex 27.949 20.169 5
    endloop
  endfacet
  facet normal 0.484187 -0.874965 0
    outer loop
      vertex 23.968 17.966 5
      vertex 23.968 17.966 -5
      vertex 27.949 20.169 5
    endloop
  endfacet
  facet normal 0.737678 -0.675152 0
    outer loop
      vertex 27.949 20.169 -5
      vertex 31.156 23.673 -5
      vertex 31.156 23.673 5
    endloop
  endfacet
  facet normal 0.737678 -0.675152 0
    outer loop
      vertex 27.949 20.169 5
      vertex 27.949 20.169 -5
      vertex 31.156 23.673 5
    endloop
  endfacet
  facet normal 0.828025 -0.560691 0
    outer loop
      vertex 31.156 23.673 -5
      vertex 32.341 25.423 -5
      vertex 32.341 25.423 5
    endloop
  endfacet
  facet normal 0.828025 -0.560691 0
    outer loop
      vertex 31.156 23.673 5
      vertex 31.156 23.673 -5
      vertex 32.341 25.423 5
    endloop
  endfacet
  facet normal -0.999119 0.0419655 0
    outer loop
      vertex 32.143 20.709 5
      vertex 32.341 25.423 5
      vertex 32.143 20.709 -5
    endloop
  endfacet
  facet normal -0.999119 0.0419655 0
    outer loop
      vertex 32.143 20.709 -5
      vertex 32.341 25.423 5
      vertex 32.341 25.423 -5
    endloop
  endfacet
  facet normal -0.996913 0.0785103 0
    outer loop
      vertex 31.769 15.96 5
      vertex 32.143 20.709 5
      vertex 31.769 15.96 -5
    endloop
  endfacet
  facet normal -0.996913 0.0785103 0
    outer loop
      vertex 31.769 15.96 -5
      vertex 32.143 20.709 5
      vertex 32.143 20.709 -5
    endloop
  endfacet
  facet normal -0.977431 0.211255 0
    outer loop
      vertex 31 12.402 5
      vertex 31.769 15.96 5
      vertex 31 12.402 -5
    endloop
  endfacet
  facet normal -0.977431 0.211255 0
    outer loop
      vertex 31 12.402 -5
      vertex 31.769 15.96 5
      vertex 31.769 15.96 -5
    endloop
  endfacet
  facet normal -0.904166 0.427181 0
    outer loop
      vertex 29.722 9.697 5
      vertex 31 12.402 5
      vertex 29.722 9.697 -5
    endloop
  endfacet
  facet normal -0.904166 0.427181 0
    outer loop
      vertex 29.722 9.697 -5
      vertex 31 12.402 5
      vertex 31 12.402 -5
    endloop
  endfacet
  facet normal -0.756598 0.65388 0
    outer loop
      vertex 27.825 7.502 5
      vertex 29.722 9.697 5
      vertex 27.825 7.502 -5
    endloop
  endfacet
  facet normal -0.756598 0.65388 0
    outer loop
      vertex 27.825 7.502 -5
      vertex 29.722 9.697 5
      vertex 29.722 9.697 -5
    endloop
  endfacet
  facet normal -0.543948 0.839119 0
    outer loop
      vertex 25.13 5.755 5
      vertex 27.825 7.502 5
      vertex 25.13 5.755 -5
    endloop
  endfacet
  facet normal -0.543948 0.839119 0
    outer loop
      vertex 25.13 5.755 -5
      vertex 27.825 7.502 5
      vertex 27.825 7.502 -5
    endloop
  endfacet
  facet normal -0.294755 0.955573 0
    outer loop
      vertex 21.82 4.734 5
      vertex 25.13 5.755 5
      vertex 21.82 4.734 -5
    endloop
  endfacet
  facet normal -0.294755 0.955573 0
    outer loop
      vertex 21.82 4.734 -5
      vertex 25.13 5.755 5
      vertex 25.13 5.755 -5
    endloop
  endfacet
  facet normal -0.0659069 0.997826 0
    outer loop
      vertex 18.141 4.491 5
      vertex 21.82 4.734 5
      vertex 18.141 4.491 -5
    endloop
  endfacet
  facet normal -0.0659069 0.997826 0
    outer loop
      vertex 18.141 4.491 -5
      vertex 21.82 4.734 5
      vertex 21.82 4.734 -5
    endloop
  endfacet
  facet normal 0.151628 0.988438 0
    outer loop
      vertex 14.334 5.075 5
      vertex 18.141 4.491 5
      vertex 14.334 5.075 -5
    endloop
  endfacet
  facet normal 0.151628 0.988438 0
    outer loop
      vertex 14.334 5.075 -5
      vertex 18.141 4.491 5
      vertex 18.141 4.491 -5
    endloop
  endfacet
  facet normal 0.351737 0.936099 0
    outer loop
      vertex 11.992 5.955 5
      vertex 14.334 5.075 5
      vertex 11.992 5.955 -5
    endloop
  endfacet
  facet normal 0.351737 0.936099 0
    outer loop
      vertex 11.992 5.955 -5
      vertex 14.334 5.075 5
      vertex 14.334 5.075 -5
    endloop
  endfacet
  facet normal 0.543691 0.839286 0
    outer loop
      vertex 10.013 7.237 5
      vertex 11.992 5.955 5
      vertex 10.013 7.237 -5
    endloop
  endfacet
  facet normal 0.543691 0.839286 0
    outer loop
      vertex 10.013 7.237 -5
      vertex 11.992 5.955 5
      vertex 11.992 5.955 -5
    endloop
  endfacet
  facet normal 0.726246 0.687435 0
    outer loop
      vertex 8.472 8.865 -5
      vertex 8.472 8.865 5
      vertex 10.013 7.237 5
    endloop
  endfacet
  facet normal 0.726246 0.687435 0
    outer loop
      vertex 10.013 7.237 -5
      vertex 8.472 8.865 -5
      vertex 10.013 7.237 5
    endloop
  endfacet
  facet normal 0.881432 0.472311 0
    outer loop
      vertex 7.448 10.776 -5
      vertex 7.448 10.776 5
      vertex 8.472 8.865 5
    endloop
  endfacet
  facet normal 0.881432 0.472311 0
    outer loop
      vertex 8.472 8.865 -5
      vertex 7.448 10.776 -5
      vertex 8.472 8.865 5
    endloop
  endfacet
  facet normal 0.940239 0.340515 0
    outer loop
      vertex 7.025 11.944 -5
      vertex 7.025 11.944 5
      vertex 7.448 10.776 5
    endloop
  endfacet
  facet normal 0.940239 0.340515 0
    outer loop
      vertex 7.448 10.776 -5
      vertex 7.025 11.944 -5
      vertex 7.448 10.776 5
    endloop
  endfacet
  facet normal 0.966661 0.256059 0
    outer loop
      vertex 6.856 12.582 -5
      vertex 6.856 12.582 5
      vertex 7.025 11.944 5
    endloop
  endfacet
  facet normal 0.966661 0.256059 0
    outer loop
      vertex 7.025 11.944 -5
      vertex 6.856 12.582 -5
      vertex 7.025 11.944 5
    endloop
  endfacet
  facet normal 0.493864 0.869539 0
    outer loop
      vertex 6.65 12.699 5
      vertex 6.856 12.582 5
      vertex 6.65 12.699 -5
    endloop
  endfacet
  facet normal 0.493864 0.869539 0
    outer loop
      vertex 6.65 12.699 -5
      vertex 6.856 12.582 5
      vertex 6.856 12.582 -5
    endloop
  endfacet
  facet normal 0.15443 0.988004 0
    outer loop
      vertex 6.087 12.787 5
      vertex 6.65 12.699 5
      vertex 6.087 12.787 -5
    endloop
  endfacet
  facet normal 0.15443 0.988004 0
    outer loop
      vertex 6.087 12.787 -5
      vertex 6.65 12.699 5
      vertex 6.65 12.699 -5
    endloop
  endfacet
  facet normal 0.068077 0.99768 0
    outer loop
      vertex 5.237 12.845 5
      vertex 6.087 12.787 5
      vertex 5.237 12.845 -5
    endloop
  endfacet
  facet normal 0.068077 0.99768 0
    outer loop
      vertex 5.237 12.845 -5
      vertex 6.087 12.787 5
      vertex 6.087 12.787 -5
    endloop
  endfacet
  facet normal 0.0178879 0.99984 0
    outer loop
      vertex 4.175 12.864 5
      vertex 5.237 12.845 5
      vertex 4.175 12.864 -5
    endloop
  endfacet
  facet normal 0.0178879 0.99984 0
    outer loop
      vertex 4.175 12.864 -5
      vertex 5.237 12.845 5
      vertex 5.237 12.845 -5
    endloop
  endfacet
  facet normal -0.00296441 0.999996 0
    outer loop
      vertex 3.163 12.861 5
      vertex 4.175 12.864 5
      vertex 3.163 12.861 -5
    endloop
  endfacet
  facet normal -0.00296441 0.999996 0
    outer loop
      vertex 3.163 12.861 -5
      vertex 4.175 12.864 5
      vertex 4.175 12.864 -5
    endloop
  endfacet
  facet normal -0.0414636 0.99914 0
    outer loop
      vertex 2.416 12.83 5
      vertex 3.163 12.861 5
      vertex 2.416 12.83 -5
    endloop
  endfacet
  facet normal -0.0414636 0.99914 0
    outer loop
      vertex 2.416 12.83 -5
      vertex 3.163 12.861 5
      vertex 3.163 12.861 -5
    endloop
  endfacet
  facet normal -0.181261 0.983435 0
    outer loop
      vertex 1.906 12.736 5
      vertex 2.416 12.83 5
      vertex 1.906 12.736 -5
    endloop
  endfacet
  facet normal -0.181261 0.983435 0
    outer loop
      vertex 1.906 12.736 -5
      vertex 2.416 12.83 5
      vertex 2.416 12.83 -5
    endloop
  endfacet
  facet normal -0.529244 0.84847 0
    outer loop
      vertex 1.603 12.547 5
      vertex 1.906 12.736 5
      vertex 1.603 12.547 -5
    endloop
  endfacet
  facet normal -0.529244 0.84847 0
    outer loop
      vertex 1.603 12.547 -5
      vertex 1.906 12.736 5
      vertex 1.906 12.736 -5
    endloop
  endfacet
  facet normal -0.930468 0.366372 0
    outer loop
      vertex 1.477 12.227 5
      vertex 1.603 12.547 5
      vertex 1.477 12.227 -5
    endloop
  endfacet
  facet normal -0.930468 0.366372 0
    outer loop
      vertex 1.477 12.227 -5
      vertex 1.603 12.547 5
      vertex 1.603 12.547 -5
    endloop
  endfacet
  facet normal -0.998548 -0.0538636 0
    outer loop
      vertex 1.503 11.745 -5
      vertex 1.503 11.745 5
      vertex 1.477 12.227 -5
    endloop
  endfacet
  facet normal -0.998548 -0.0538636 0
    outer loop
      vertex 1.477 12.227 -5
      vertex 1.503 11.745 5
      vertex 1.477 12.227 5
    endloop
  endfacet
  facet normal -0.977486 -0.210999 0
    outer loop
      vertex 1.65 11.064 -5
      vertex 1.65 11.064 5
      vertex 1.503 11.745 -5
    endloop
  endfacet
  facet normal -0.977486 -0.210999 0
    outer loop
      vertex 1.503 11.745 -5
      vertex 1.65 11.064 5
      vertex 1.503 11.745 5
    endloop
  endfacet
  facet normal -0.967267 -0.253762 0
    outer loop
      vertex 1.889 10.153 -5
      vertex 1.889 10.153 5
      vertex 1.65 11.064 -5
    endloop
  endfacet
  facet normal -0.967267 -0.253762 0
    outer loop
      vertex 1.65 11.064 -5
      vertex 1.889 10.153 5
      vertex 1.65 11.064 5
    endloop
  endfacet
  facet normal -0.916963 -0.398973 0
    outer loop
      vertex 3.307 6.894 -5
      vertex 3.307 6.894 5
      vertex 1.889 10.153 -5
    endloop
  endfacet
  facet normal -0.916963 -0.398973 0
    outer loop
      vertex 1.889 10.153 -5
      vertex 3.307 6.894 5
      vertex 1.889 10.153 5
    endloop
  endfacet
  facet normal -0.756642 -0.65383 0
    outer loop
      vertex 5.66 4.171 -5
      vertex 5.66 4.171 5
      vertex 3.307 6.894 -5
    endloop
  endfacet
  facet normal -0.756642 -0.65383 0
    outer loop
      vertex 3.307 6.894 -5
      vertex 5.66 4.171 5
      vertex 3.307 6.894 5
    endloop
  endfacet
  facet normal -0.551051 -0.834471 0
    outer loop
      vertex 5.66 4.171 -5
      vertex 8.884 2.042 -5
      vertex 8.884 2.042 5
    endloop
  endfacet
  facet normal -0.551051 -0.834471 0
    outer loop
      vertex 5.66 4.171 5
      vertex 5.66 4.171 -5
      vertex 8.884 2.042 5
    endloop
  endfacet
  facet normal -0.344876 -0.938648 0
    outer loop
      vertex 8.884 2.042 -5
      vertex 12.923 0.558 -5
      vertex 12.923 0.558 5
    endloop
  endfacet
  facet normal -0.344876 -0.938648 0
    outer loop
      vertex 8.884 2.042 5
      vertex 8.884 2.042 -5
      vertex 12.923 0.558 5
    endloop
  endfacet
  facet normal -0.149642 -0.98874 0
    outer loop
      vertex 12.923 0.558 -5
      vertex 15.784 0.125 -5
      vertex 15.784 0.125 5
    endloop
  endfacet
  facet normal -0.149642 -0.98874 0
    outer loop
      vertex 12.923 0.558 5
      vertex 12.923 0.558 -5
      vertex 15.784 0.125 5
    endloop
  endfacet
  facet normal -0.0346285 -0.9994 0
    outer loop
      vertex 15.784 0.125 -5
      vertex 19.305 0.003 -5
      vertex 19.305 0.003 5
    endloop
  endfacet
  facet normal -0.0346285 -0.9994 0
    outer loop
      vertex 15.784 0.125 5
      vertex 15.784 0.125 -5
      vertex 19.305 0.003 5
    endloop
  endfacet
  facet normal 0.0524392 -0.998624 0
    outer loop
      vertex 19.305 0.003 -5
      vertex 22.809 0.187 -5
      vertex 22.809 0.187 5
    endloop
  endfacet
  facet normal 0.0524392 -0.998624 0
    outer loop
      vertex 19.305 0.003 5
      vertex 19.305 0.003 -5
      vertex 22.809 0.187 5
    endloop
  endfacet
  facet normal 0.169508 -0.985529 0
    outer loop
      vertex 22.809 0.187 -5
      vertex 25.623 0.671 -5
      vertex 25.623 0.671 5
    endloop
  endfacet
  facet normal 0.169508 -0.985529 0
    outer loop
      vertex 22.809 0.187 5
      vertex 22.809 0.187 -5
      vertex 25.623 0.671 5
    endloop
  endfacet
  facet normal 0.325898 -0.945405 0
    outer loop
      vertex 25.623 0.671 -5
      vertex 27.819 1.428 -5
      vertex 27.819 1.428 5
    endloop
  endfacet
  facet normal 0.325898 -0.945405 0
    outer loop
      vertex 25.623 0.671 5
      vertex 25.623 0.671 -5
      vertex 27.819 1.428 5
    endloop
  endfacet
  facet normal 0.438129 -0.898912 0
    outer loop
      vertex 27.819 1.428 -5
      vertex 29.684 2.337 -5
      vertex 29.684 2.337 5
    endloop
  endfacet
  facet normal 0.438129 -0.898912 0
    outer loop
      vertex 27.819 1.428 5
      vertex 27.819 1.428 -5
      vertex 29.684 2.337 5
    endloop
  endfacet
  facet normal 0.567603 -0.823303 0
    outer loop
      vertex 29.684 2.337 -5
      vertex 31.31 3.458 -5
      vertex 31.31 3.458 5
    endloop
  endfacet
  facet normal 0.567603 -0.823303 0
    outer loop
      vertex 29.684 2.337 5
      vertex 29.684 2.337 -5
      vertex 31.31 3.458 5
    endloop
  endfacet
  facet normal 0.684105 -0.729384 0
    outer loop
      vertex 31.31 3.458 -5
      vertex 32.792 4.848 -5
      vertex 32.792 4.848 5
    endloop
  endfacet
  facet normal 0.684105 -0.729384 0
    outer loop
      vertex 31.31 3.458 5
      vertex 31.31 3.458 -5
      vertex 32.792 4.848 5
    endloop
  endfacet
  facet normal 0.794712 -0.606987 0
    outer loop
      vertex 32.792 4.848 -5
      vertex 34.593 7.206 -5
      vertex 34.593 7.206 5
    endloop
  endfacet
  facet normal 0.794712 -0.606987 0
    outer loop
      vertex 32.792 4.848 5
      vertex 32.792 4.848 -5
      vertex 34.593 7.206 5
    endloop
  endfacet
  facet normal 0.901054 -0.433708 0
    outer loop
      vertex 34.593 7.206 -5
      vertex 35.921 9.965 -5
      vertex 35.921 9.965 5
    endloop
  endfacet
  facet normal 0.901054 -0.433708 0
    outer loop
      vertex 34.593 7.206 5
      vertex 34.593 7.206 -5
      vertex 35.921 9.965 5
    endloop
  endfacet
  facet normal 0.964818 -0.262919 0
    outer loop
      vertex 35.921 9.965 -5
      vertex 36.82 13.264 -5
      vertex 36.82 13.264 5
    endloop
  endfacet
  facet normal 0.964818 -0.262919 0
    outer loop
      vertex 35.921 9.965 5
      vertex 35.921 9.965 -5
      vertex 36.82 13.264 5
    endloop
  endfacet
  facet normal 0.991643 -0.129008 0
    outer loop
      vertex 36.82 13.264 -5
      vertex 37.337 17.238 -5
      vertex 37.337 17.238 5
    endloop
  endfacet
  facet normal 0.991643 -0.129008 0
    outer loop
      vertex 36.82 13.264 5
      vertex 36.82 13.264 -5
      vertex 37.337 17.238 5
    endloop
  endfacet
  facet normal 0.998819 -0.0485861 0
    outer loop
      vertex 37.337 17.238 -5
      vertex 37.389 18.307 -5
      vertex 37.389 18.307 5
    endloop
  endfacet
  facet normal 0.998819 -0.0485861 0
    outer loop
      vertex 37.337 17.238 5
      vertex 37.337 17.238 -5
      vertex 37.389 18.307 5
    endloop
  endfacet
  facet normal 0.99959 -0.0286251 0
    outer loop
      vertex 37.389 18.307 -5
      vertex 37.439 20.053 -5
      vertex 37.439 20.053 5
    endloop
  endfacet
  facet normal 0.99959 -0.0286251 0
    outer loop
      vertex 37.389 18.307 5
      vertex 37.389 18.307 -5
      vertex 37.439 20.053 5
    endloop
  endfacet
  facet normal 0.999788 -0.02057 0
    outer loop
      vertex 37.439 20.053 -5
      vertex 37.487 22.386 -5
      vertex 37.487 22.386 5
    endloop
  endfacet
  facet normal 0.999788 -0.02057 0
    outer loop
      vertex 37.439 20.053 5
      vertex 37.439 20.053 -5
      vertex 37.487 22.386 5
    endloop
  endfacet
  facet normal 0.999884 -0.0152087 0
    outer loop
      vertex 37.487 22.386 -5
      vertex 37.53 25.213 -5
      vertex 37.53 25.213 5
    endloop
  endfacet
  facet normal 0.999884 -0.0152087 0
    outer loop
      vertex 37.487 22.386 5
      vertex 37.487 22.386 -5
      vertex 37.53 25.213 5
    endloop
  endfacet
  facet normal 0.999941 -0.0108453 0
    outer loop
      vertex 37.53 25.213 -5
      vertex 37.565 28.44 -5
      vertex 37.565 28.44 5
    endloop
  endfacet
  facet normal 0.999941 -0.0108453 0
    outer loop
      vertex 37.53 25.213 5
      vertex 37.53 25.213 -5
      vertex 37.565 28.44 5
    endloop
  endfacet
  facet normal 0.999969 -0.00791159 0
    outer loop
      vertex 37.565 28.44 -5
      vertex 37.593 31.979 -5
      vertex 37.593 31.979 5
    endloop
  endfacet
  facet normal 0.999969 -0.00791159 0
    outer loop
      vertex 37.565 28.44 5
      vertex 37.565 28.44 -5
      vertex 37.593 31.979 5
    endloop
  endfacet
  facet normal 0.999989 -0.00479228 0
    outer loop
      vertex 37.593 31.979 -5
      vertex 37.611 35.735 -5
      vertex 37.611 35.735 5
    endloop
  endfacet
  facet normal 0.999989 -0.00479228 0
    outer loop
      vertex 37.593 31.979 5
      vertex 37.593 31.979 -5
      vertex 37.611 35.735 5
    endloop
  endfacet
  facet normal 0.999998 -0.00180226 0
    outer loop
      vertex 37.611 35.735 -5
      vertex 37.618 39.619 -5
      vertex 37.618 39.619 5
    endloop
  endfacet
  facet normal 0.999998 -0.00180226 0
    outer loop
      vertex 37.611 35.735 5
      vertex 37.611 35.735 -5
      vertex 37.618 39.619 5
    endloop
  endfacet
  facet normal 1 0 0
    outer loop
      vertex 37.618 39.619 -5
      vertex 37.618 58.584 -5
      vertex 37.618 58.584 5
    endloop
  endfacet
  facet normal 1 0 0
    outer loop
      vertex 37.618 39.619 5
      vertex 37.618 39.619 -5
      vertex 37.618 58.584 5
    endloop
  endfacet
  facet normal 0 1 0
    outer loop
      vertex 32.256 58.584 5
      vertex 37.618 58.584 5
      vertex 32.256 58.584 -5
    endloop
  endfacet
  facet normal 0 1 0
    outer loop
      vertex 32.256 58.584 -5
      vertex 37.618 58.584 5
      vertex 37.618 58.584 -5
    endloop
  endfacet
  facet normal -1 0 0
    outer loop
      vertex 32.256 54.999 5
      vertex 32.256 58.584 5
      vertex 32.256 54.999 -5
    endloop
  endfacet
  facet normal -1 0 0
    outer loop
      vertex 32.256 54.999 -5
      vertex 32.256 58.584 5
      vertex 32.256 58.584 -5
    endloop
  endfacet
  facet normal -0.99997 0.00775171 0
    outer loop
      vertex 32.228 51.387 5
      vertex 32.256 54.999 5
      vertex 32.228 51.387 -5
    endloop
  endfacet
  facet normal -0.99997 0.00775171 0
    outer loop
      vertex 32.228 51.387 -5
      vertex 32.256 54.999 5
      vertex 32.256 54.999 -5
    endloop
  endfacet
  facet normal 0.885632 0.464388 0
    outer loop
      vertex 31.636 52.516 -5
      vertex 31.636 52.516 5
      vertex 32.228 51.387 5
    endloop
  endfacet
  facet normal 0.885632 0.464388 0
    outer loop
      vertex 32.228 51.387 -5
      vertex 31.636 52.516 -5
      vertex 32.228 51.387 5
    endloop
  endfacet
  facet normal 0.845767 0.533552 0
    outer loop
      vertex 31.272 53.093 -5
      vertex 31.272 53.093 5
      vertex 31.636 52.516 5
    endloop
  endfacet
  facet normal 0.845767 0.533552 0
    outer loop
      vertex 31.636 52.516 -5
      vertex 31.272 53.093 -5
      vertex 31.636 52.516 5
    endloop
  endfacet
  facet normal 0.791143 0.611631 0
    outer loop
      vertex 30.703 53.829 -5
      vertex 30.703 53.829 5
      vertex 31.272 53.093 5
    endloop
  endfacet
  facet normal 0.791143 0.611631 0
    outer loop
      vertex 31.272 53.093 -5
      vertex 30.703 53.829 -5
      vertex 31.272 53.093 5
    endloop
  endfacet
  facet normal 0.754036 0.656833 0
    outer loop
      vertex 30.007 54.628 -5
      vertex 30.007 54.628 5
      vertex 30.703 53.829 5
    endloop
  endfacet
  facet normal 0.754036 0.656833 0
    outer loop
      vertex 30.703 53.829 -5
      vertex 30.007 54.628 -5
      vertex 30.703 53.829 5
    endloop
  endfacet
  facet normal 0.717801 0.696248 0
    outer loop
      vertex 29.264 55.394 -5
      vertex 29.264 55.394 5
      vertex 30.007 54.628 5
    endloop
  endfacet
  facet normal 0.717801 0.696248 0
    outer loop
      vertex 30.007 54.628 -5
      vertex 29.264 55.394 -5
      vertex 30.007 54.628 5
    endloop
  endfacet
  facet normal 0.606608 0.795001 0
    outer loop
      vertex 26.213 57.722 5
      vertex 29.264 55.394 5
      vertex 26.213 57.722 -5
    endloop
  endfacet
  facet normal 0.606608 0.795001 0
    outer loop
      vertex 26.213 57.722 -5
      vertex 29.264 55.394 5
      vertex 29.264 55.394 -5
    endloop
  endfacet
  facet normal 0.378788 0.925484 0
    outer loop
      vertex 22.724 59.15 5
      vertex 26.213 57.722 5
      vertex 22.724 59.15 -5
    endloop
  endfacet
  facet normal 0.378788 0.925484 0
    outer loop
      vertex 22.724 59.15 -5
      vertex 26.213 57.722 5
      vertex 26.213 57.722 -5
    endloop
  endfacet
  facet normal 0.131762 0.991281 0
    outer loop
      vertex 18.842 59.666 5
      vertex 22.724 59.15 5
      vertex 18.842 59.666 -5
    endloop
  endfacet
  facet normal 0.131762 0.991281 0
    outer loop
      vertex 18.842 59.666 -5
      vertex 22.724 59.15 5
      vertex 22.724 59.15 -5
    endloop
  endfacet
  facet normal -0.0954206 0.995437 0
    outer loop
      vertex 14.617 59.261 5
      vertex 18.842 59.666 5
      vertex 14.617 59.261 -5
    endloop
  endfacet
  facet normal -0.0954206 0.995437 0
    outer loop
      vertex 14.617 59.261 -5
      vertex 18.842 59.666 5
      vertex 18.842 59.666 -5
    endloop
  endfacet
  facet normal -0.310036 0.950725 0
    outer loop
      vertex 10.882 58.043 5
      vertex 14.617 59.261 5
      vertex 10.882 58.043 -5
    endloop
  endfacet
  facet normal -0.310036 0.950725 0
    outer loop
      vertex 10.882 58.043 -5
      vertex 14.617 59.261 5
      vertex 14.617 59.261 -5
    endloop
  endfacet
  facet normal -0.522836 0.852433 0
    outer loop
      vertex 7.525 55.984 5
      vertex 10.882 58.043 5
      vertex 7.525 55.984 -5
    endloop
  endfacet
  facet normal -0.522836 0.852433 0
    outer loop
      vertex 7.525 55.984 -5
      vertex 10.882 58.043 5
      vertex 10.882 58.043 -5
    endloop
  endfacet
  facet normal -0.700026 0.714117 0
    outer loop
      vertex 4.687 53.202 5
      vertex 7.525 55.984 5
      vertex 4.687 53.202 -5
    endloop
  endfacet
  facet normal -0.700026 0.714117 0
    outer loop
      vertex 4.687 53.202 -5
      vertex 7.525 55.984 5
      vertex 7.525 55.984 -5
    endloop
  endfacet
  facet normal -0.841613 0.540081 0
    outer loop
      vertex 2.509 49.808 5
      vertex 4.687 53.202 5
      vertex 2.509 49.808 -5
    endloop
  endfacet
  facet normal -0.841613 0.540081 0
    outer loop
      vertex 2.509 49.808 -5
      vertex 4.687 53.202 5
      vertex 4.687 53.202 -5
    endloop
  endfacet
  facet normal -0.908733 0.417379 0
    outer loop
      vertex 1.973 48.641 5
      vertex 2.509 49.808 5
      vertex 1.973 48.641 -5
    endloop
  endfacet
  facet normal -0.908733 0.417379 0
    outer loop
      vertex 1.973 48.641 -5
      vertex 2.509 49.808 5
      vertex 2.509 49.808 -5
    endloop
  endfacet
  facet normal -0.922896 0.385049 0
    outer loop
      vertex 1.469 47.433 5
      vertex 1.973 48.641 5
      vertex 1.469 47.433 -5
    endloop
  endfacet
  facet normal -0.922896 0.385049 0
    outer loop
      vertex 1.469 47.433 -5
      vertex 1.973 48.641 5
      vertex 1.973 48.641 -5
    endloop
  endfacet
  facet normal -0.935981 0.352051 0
    outer loop
      vertex 1.053 46.327 5
      vertex 1.469 47.433 5
      vertex 1.053 46.327 -5
    endloop
  endfacet
  facet normal -0.935981 0.352051 0
    outer loop
      vertex 1.053 46.327 -5
      vertex 1.469 47.433 5
      vertex 1.469 47.433 -5
    endloop
  endfacet
  facet normal -0.956326 0.292303 0
    outer loop
      vertex 0.788 45.46 5
      vertex 1.053 46.327 5
      vertex 0.788 45.46 -5
    endloop
  endfacet
  facet normal -0.956326 0.292303 0
    outer loop
      vertex 0.788 45.46 -5
      vertex 1.053 46.327 5
      vertex 1.053 46.327 -5
    endloop
  endfacet
  facet normal -0.985476 0.169814 0
    outer loop
      vertex 0.178 41.92 5
      vertex 0.788 45.46 5
      vertex 0.178 41.92 -5
    endloop
  endfacet
  facet normal -0.985476 0.169814 0
    outer loop
      vertex 0.178 41.92 -5
      vertex 0.788 45.46 5
      vertex 0.788 45.46 -5
    endloop
  endfacet
  facet normal 0.997707 0.0676863 0
    outer loop
      vertex 5.388 38.264 -5
      vertex 5.388 38.264 5
      vertex 5.642 34.52 5
    endloop
  endfacet
  facet normal 0.997707 0.0676863 0
    outer loop
      vertex 5.642 34.52 -5
      vertex 5.388 38.264 -5
      vertex 5.642 34.52 5
    endloop
  endfacet
  facet normal 0.775362 -0.631518 0
    outer loop
      vertex 8.19 49.115 -5
      vertex 10.271 51.67 -5
      vertex 10.271 51.67 5
    endloop
  endfacet
  facet normal 0.775362 -0.631518 0
    outer loop
      vertex 8.19 49.115 5
      vertex 8.19 49.115 -5
      vertex 10.271 51.67 5
    endloop
  endfacet
  facet normal 0.608605 -0.793473 0
    outer loop
      vertex 10.271 51.67 -5
      vertex 12.666 53.507 -5
      vertex 12.666 53.507 5
    endloop
  endfacet
  facet normal 0.608605 -0.793473 0
    outer loop
      vertex 10.271 51.67 5
      vertex 10.271 51.67 -5
      vertex 12.666 53.507 5
    endloop
  endfacet
  facet normal 0.401811 -0.915723 0
    outer loop
      vertex 12.666 53.507 -5
      vertex 15.28 54.654 -5
      vertex 15.28 54.654 5
    endloop
  endfacet
  facet normal 0.401811 -0.915723 0
    outer loop
      vertex 12.666 53.507 5
      vertex 12.666 53.507 -5
      vertex 15.28 54.654 5
    endloop
  endfacet
  facet normal 0.161056 -0.986945 0
    outer loop
      vertex 15.28 54.654 -5
      vertex 18.105 55.115 -5
      vertex 18.105 55.115 5
    endloop
  endfacet
  facet normal 0.161056 -0.986945 0
    outer loop
      vertex 15.28 54.654 5
      vertex 15.28 54.654 -5
      vertex 18.105 55.115 5
    endloop
  endfacet
  facet normal -0.0753379 -0.997158 0
    outer loop
      vertex 18.105 55.115 -5
      vertex 21.136 54.886 -5
      vertex 21.136 54.886 5
    endloop
  endfacet
  facet normal -0.0753379 -0.997158 0
    outer loop
      vertex 18.105 55.115 5
      vertex 18.105 55.115 -5
      vertex 21.136 54.886 5
    endloop
  endfacet
  facet normal -0.361089 -0.932531 0
    outer loop
      vertex 21.136 54.886 -5
      vertex 25.25 53.293 -5
      vertex 25.25 53.293 5
    endloop
  endfacet
  facet normal -0.361089 -0.932531 0
    outer loop
      vertex 21.136 54.886 5
      vertex 21.136 54.886 -5
      vertex 25.25 53.293 5
    endloop
  endfacet
  facet normal -0.682983 -0.730434 0
    outer loop
      vertex 25.25 53.293 -5
      vertex 28.498 50.256 -5
      vertex 28.498 50.256 5
    endloop
  endfacet
  facet normal -0.682983 -0.730434 0
    outer loop
      vertex 25.25 53.293 5
      vertex 25.25 53.293 -5
      vertex 28.498 50.256 5
    endloop
  endfacet
  facet normal -0.885764 -0.464137 0
    outer loop
      vertex 30.769 45.922 -5
      vertex 30.769 45.922 5
      vertex 28.498 50.256 -5
    endloop
  endfacet
  facet normal -0.885764 -0.464137 0
    outer loop
      vertex 28.498 50.256 -5
      vertex 30.769 45.922 5
      vertex 28.498 50.256 5
    endloop
  endfacet
  facet normal -0.97775 -0.209773 0
    outer loop
      vertex 31.946 40.436 -5
      vertex 31.946 40.436 5
      vertex 30.769 45.922 -5
    endloop
  endfacet
  facet normal -0.97775 -0.209773 0
    outer loop
      vertex 30.769 45.922 -5
      vertex 31.946 40.436 5
      vertex 30.769 45.922 5
    endloop
  endfacet
  facet normal -0.999983 0.00578503 0
    outer loop
      vertex 31.918 35.596 5
      vertex 31.946 40.436 5
      vertex 31.918 35.596 -5
    endloop
  endfacet
  facet normal -0.999983 0.00578503 0
    outer loop
      vertex 31.918 35.596 -5
      vertex 31.946 40.436 5
      vertex 31.946 40.436 -5
    endloop
  endfacet
  facet normal -0.976381 0.216054 0
    outer loop
      vertex 30.926 31.113 5
      vertex 31.918 35.596 5
      vertex 30.926 31.113 -5
    endloop
  endfacet
  facet normal -0.976381 0.216054 0
    outer loop
      vertex 30.926 31.113 -5
      vertex 31.918 35.596 5
      vertex 31.918 35.596 -5
    endloop
  endfacet
  facet normal -0.900495 0.434866 0
    outer loop
      vertex 29.06 27.249 5
      vertex 30.926 31.113 5
      vertex 29.06 27.249 -5
    endloop
  endfacet
  facet normal -0.900495 0.434866 0
    outer loop
      vertex 29.06 27.249 -5
      vertex 30.926 31.113 5
      vertex 30.926 31.113 -5
    endloop
  endfacet
  facet normal -0.748211 0.663461 0
    outer loop
      vertex 26.414 24.265 5
      vertex 29.06 27.249 5
      vertex 26.414 24.265 -5
    endloop
  endfacet
  facet normal -0.748211 0.663461 0
    outer loop
      vertex 26.414 24.265 -5
      vertex 29.06 27.249 5
      vertex 29.06 27.249 -5
    endloop
  endfacet
  facet normal -0.5471 0.837067 0
    outer loop
      vertex 24.451 22.982 5
      vertex 26.414 24.265 5
      vertex 24.451 22.982 -5
    endloop
  endfacet
  facet normal -0.5471 0.837067 0
    outer loop
      vertex 24.451 22.982 -5
      vertex 26.414 24.265 5
      vertex 26.414 24.265 -5
    endloop
  endfacet
  facet normal -0.36752 0.930016 0
    outer loop
      vertex 22.295 22.13 5
      vertex 24.451 22.982 5
      vertex 22.295 22.13 -5
    endloop
  endfacet
  facet normal -0.36752 0.930016 0
    outer loop
      vertex 22.295 22.13 -5
      vertex 24.451 22.982 5
      vertex 24.451 22.982 -5
    endloop
  endfacet
  facet normal -0.184628 0.982808 0
    outer loop
      vertex 20.022 21.703 5
      vertex 22.295 22.13 5
      vertex 20.022 21.703 -5
    endloop
  endfacet
  facet normal -0.184628 0.982808 0
    outer loop
      vertex 20.022 21.703 -5
      vertex 22.295 22.13 5
      vertex 22.295 22.13 -5
    endloop
  endfacet
  facet normal -0.00345123 0.999994 0
    outer loop
      vertex 17.704 21.695 5
      vertex 20.022 21.703 5
      vertex 17.704 21.695 -5
    endloop
  endfacet
  facet normal -0.00345123 0.999994 0
    outer loop
      vertex 17.704 21.695 -5
      vertex 20.022 21.703 5
      vertex 20.022 21.703 -5
    endloop
  endfacet
  facet normal 0.173466 0.98484 0
    outer loop
      vertex 15.416 22.098 5
      vertex 17.704 21.695 5
      vertex 15.416 22.098 -5
    endloop
  endfacet
  facet normal 0.173466 0.98484 0
    outer loop
      vertex 15.416 22.098 -5
      vertex 17.704 21.695 5
      vertex 17.704 21.695 -5
    endloop
  endfacet
  facet normal 0.347118 0.937821 0
    outer loop
      vertex 13.233 22.906 5
      vertex 15.416 22.098 5
      vertex 13.233 22.906 -5
    endloop
  endfacet
  facet normal 0.347118 0.937821 0
    outer loop
      vertex 13.233 22.906 -5
      vertex 15.416 22.098 5
      vertex 15.416 22.098 -5
    endloop
  endfacet
  facet normal 0.515188 0.857077 0
    outer loop
      vertex 11.23 24.11 5
      vertex 13.233 22.906 5
      vertex 11.23 24.11 -5
    endloop
  endfacet
  facet normal 0.515188 0.857077 0
    outer loop
      vertex 11.23 24.11 -5
      vertex 13.233 22.906 5
      vertex 13.233 22.906 -5
    endloop
  endfacet
  facet normal 0.673828 0.738888 0
    outer loop
      vertex 9.481 25.705 5
      vertex 11.23 24.11 5
      vertex 9.481 25.705 -5
    endloop
  endfacet
  facet normal 0.673828 0.738888 0
    outer loop
      vertex 9.481 25.705 -5
      vertex 11.23 24.11 5
      vertex 11.23 24.11 -5
    endloop
  endfacet
  facet normal 0.814453 0.580229 0
    outer loop
      vertex 7.685 28.226 -5
      vertex 7.685 28.226 5
      vertex 9.481 25.705 5
    endloop
  endfacet
  facet normal 0.814453 0.580229 0
    outer loop
      vertex 9.481 25.705 -5
      vertex 7.685 28.226 -5
      vertex 9.481 25.705 5
    endloop
  endfacet
  facet normal 0.917298 0.398202 0
    outer loop
      vertex 6.407 31.17 -5
      vertex 6.407 31.17 5
      vertex 7.685 28.226 5
    endloop
  endfacet
  facet normal 0.917298 0.398202 0
    outer loop
      vertex 7.685 28.226 -5
      vertex 6.407 31.17 -5
      vertex 7.685 28.226 5
    endloop
  endfacet
  facet normal 0.974904 0.222627 0
    outer loop
      vertex 5.642 34.52 -5
      vertex 5.642 34.52 5
      vertex 6.407 31.17 5
    endloop
  endfacet
  facet normal 0.974904 0.222627 0
    outer loop
      vertex 6.407 31.17 -5
      vertex 5.642 34.52 -5
      vertex 6.407 31.17 5
    endloop
  endfacet
endsolid OpenSCAD_Model
