solid OpenSCAD_Model
  facet normal 0.983887 0.178792 0
    outer loop
      vertex 36.765 30.654 -5
      vertex 36.765 30.654 5
      vertex 36.934 29.724 5
    endloop
  endfacet
  facet normal 0.983887 0.178792 0
    outer loop
      vertex 36.934 29.724 -5
      vertex 36.765 30.654 -5
      vertex 36.934 29.724 5
    endloop
  endfacet
  facet normal 0.965834 0.259162 0
    outer loop
      vertex 35.872 33.982 -5
      vertex 35.872 33.982 5
      vertex 36.765 30.654 5
    endloop
  endfacet
  facet normal 0.965834 0.259162 0
    outer loop
      vertex 36.765 30.654 -5
      vertex 35.872 33.982 -5
      vertex 36.765 30.654 5
    endloop
  endfacet
  facet normal 0 0 -1
    outer loop
      vertex 0.218 25.548 -5
      vertex 1.003 29.609 -5
      vertex 0.006 21.703 -5
    endloop
  endfacet
  facet normal 0 0 -1
    outer loop
      vertex 0.006 21.703 -5
      vertex 1.003 29.609 -5
      vertex 2.217 33.098 -5
    endloop
  endfacet
  facet normal 0 0 -1
    outer loop
      vertex 0.006 21.703 -5
      vertex 2.217 33.098 -5
      vertex 3.911 36.121 -5
    endloop
  endfacet
  facet normal 0 0 -1
    outer loop
      vertex 0.006 21.703 -5
      vertex 3.911 36.121 -5
      vertex 6.143 38.784 -5
    endloop
  endfacet
  facet normal 0 0 -1
    outer loop
      vertex 0.006 21.703 -5
      vertex 6.143 38.784 -5
      vertex 8.567 40.903 -5
    endloop
  endfacet
  facet normal 0 0 -1
    outer loop
      vertex 0.006 21.703 -5
      vertex 8.567 40.903 -5
      vertex 11.118 42.467 -5
    endloop
  endfacet
  facet normal 0 0 -1
    outer loop
      vertex 0.006 21.703 -5
      vertex 11.118 42.467 -5
      vertex 13.891 43.523 -5
    endloop
  endfacet
  facet normal 0 0 -1
    outer loop
      vertex 9.865 35.205 -5
      vertex 13.891 43.523 -5
      vertex 16.982 44.117 -5
    endloop
  endfacet
  facet normal 0 0 -1
    outer loop
      vertex 16.259 39.207 -5
      vertex 16.982 44.117 -5
      vertex 22.498 44.125 -5
    endloop
  endfacet
  facet normal 0 0 -1
    outer loop
      vertex 22.299 39.458 -5
      vertex 22.498 44.125 -5
      vertex 27.441 42.862 -5
    endloop
  endfacet
  facet normal 0 0 -1
    outer loop
      vertex 24.94 38.698 -5
      vertex 27.441 42.862 -5
      vertex 31.542 40.436 -5
    endloop
  endfacet
  facet normal 0 0 -1
    outer loop
      vertex 28.552 35.997 -5
      vertex 31.542 40.436 -5
      vertex 34.535 36.949 -5
    endloop
  endfacet
  facet normal 0 0 -1
    outer loop
      vertex 29.868 34.072 -5
      vertex 34.535 36.949 -5
      vertex 35.872 33.982 -5
    endloop
  endfacet
  facet normal 0 0 -1
    outer loop
      vertex 31.543 29.894 -5
      vertex 35.872 33.982 -5
      vertex 36.765 30.654 -5
    endloop
  endfacet
  facet normal 0 0 -1
    outer loop
      vertex 34.225 29.808 -5
      vertex 36.765 30.654 -5
      vertex 36.934 29.724 -5
    endloop
  endfacet
  facet normal 0 0 -1
    outer loop
      vertex 37.217 16.488 -5
      vertex 31.459 14.399 -5
      vertex 31.911 16.488 -5
    endloop
  endfacet
  facet normal 0 0 -1
    outer loop
      vertex 30.894 31.728 -5
      vertex 35.872 33.982 -5
      vertex 31.543 29.894 -5
    endloop
  endfacet
  facet normal 0 0 -1
    outer loop
      vertex 29.868 34.072 -5
      vertex 35.872 33.982 -5
      vertex 30.894 31.728 -5
    endloop
  endfacet
  facet normal 0 0 -1
    outer loop
      vertex 28.552 35.997 -5
      vertex 34.535 36.949 -5
      vertex 29.868 34.072 -5
    endloop
  endfacet
  facet normal 0 0 -1
    outer loop
      vertex 26.917 37.531 -5
      vertex 31.542 40.436 -5
      vertex 28.552 35.997 -5
    endloop
  endfacet
  facet normal 0 0 -1
    outer loop
      vertex 24.94 38.698 -5
      vertex 31.542 40.436 -5
      vertex 26.917 37.531 -5
    endloop
  endfacet
  facet normal 0 0 -1
    outer loop
      vertex 22.299 39.458 -5
      vertex 27.441 42.862 -5
      vertex 24.94 38.698 -5
    endloop
  endfacet
  facet normal 0 0 -1
    outer loop
      vertex 19.298 39.623 -5
      vertex 22.498 44.125 -5
      vertex 22.299 39.458 -5
    endloop
  endfacet
  facet normal 0 0 -1
    outer loop
      vertex 16.259 39.207 -5
      vertex 22.498 44.125 -5
      vertex 19.298 39.623 -5
    endloop
  endfacet
  facet normal 0 0 -1
    outer loop
      vertex 13.51 38.219 -5
      vertex 16.982 44.117 -5
      vertex 16.259 39.207 -5
    endloop
  endfacet
  facet normal 0 0 -1
    outer loop
      vertex 9.865 35.205 -5
      vertex 16.982 44.117 -5
      vertex 11.588 36.94 -5
    endloop
  endfacet
  facet normal 0 0 -1
    outer loop
      vertex 11.588 36.94 -5
      vertex 16.982 44.117 -5
      vertex 13.51 38.219 -5
    endloop
  endfacet
  facet normal 0 0 -1
    outer loop
      vertex 0.006 21.703 -5
      vertex 13.891 43.523 -5
      vertex 9.865 35.205 -5
    endloop
  endfacet
  facet normal 0 0 -1
    outer loop
      vertex 7.152 30.678 -5
      vertex 0.006 21.703 -5
      vertex 8.376 33.092 -5
    endloop
  endfacet
  facet normal 0 0 -1
    outer loop
      vertex 0.006 21.703 -5
      vertex 9.865 35.205 -5
      vertex 8.376 33.092 -5
    endloop
  endfacet
  facet normal 0 0 -1
    outer loop
      vertex 6.227 28.038 -5
      vertex 0.006 21.703 -5
      vertex 7.152 30.678 -5
    endloop
  endfacet
  facet normal 0 0 -1
    outer loop
      vertex 5.635 25.25 -5
      vertex 0.006 21.703 -5
      vertex 6.227 28.038 -5
    endloop
  endfacet
  facet normal 0 0 -1
    outer loop
      vertex 5.409 22.39 -5
      vertex 0.006 21.703 -5
      vertex 5.635 25.25 -5
    endloop
  endfacet
  facet normal 0 0 -1
    outer loop
      vertex 37.217 16.488 -5
      vertex 30.503 11.656 -5
      vertex 31.459 14.399 -5
    endloop
  endfacet
  facet normal 0 0 -1
    outer loop
      vertex 0.006 21.703 -5
      vertex 5.409 22.39 -5
      vertex 5.58 19.535 -5
    endloop
  endfacet
  facet normal 0 0 -1
    outer loop
      vertex 5.58 19.535 -5
      vertex 6.847 14.278 -5
      vertex 0.006 21.703 -5
    endloop
  endfacet
  facet normal 0 0 -1
    outer loop
      vertex 6.847 14.278 -5
      vertex 9.081 10.043 -5
      vertex 0.006 21.703 -5
    endloop
  endfacet
  facet normal 0 0 -1
    outer loop
      vertex 20.519 4.67 -5
      vertex 31.379 4.207 -5
      vertex 18.238 4.689 -5
    endloop
  endfacet
  facet normal 0 0 -1
    outer loop
      vertex 28.972 9.182 -5
      vertex 37.217 16.488 -5
      vertex 26.97 7.118 -5
    endloop
  endfacet
  facet normal 0 0 -1
    outer loop
      vertex 30.503 11.656 -5
      vertex 37.217 16.488 -5
      vertex 28.972 9.182 -5
    endloop
  endfacet
  facet normal 0 0 -1
    outer loop
      vertex 26.97 7.118 -5
      vertex 37.217 16.488 -5
      vertex 37.047 15.302 -5
    endloop
  endfacet
  facet normal 0 0 -1
    outer loop
      vertex 26.97 7.118 -5
      vertex 37.047 15.302 -5
      vertex 36.653 13.527 -5
    endloop
  endfacet
  facet normal 0 0 -1
    outer loop
      vertex 26.97 7.118 -5
      vertex 36.653 13.527 -5
      vertex 36.037 11.57 -5
    endloop
  endfacet
  facet normal 0 0 -1
    outer loop
      vertex 26.97 7.118 -5
      vertex 36.037 11.57 -5
      vertex 24.601 5.593 -5
    endloop
  endfacet
  facet normal 0 0 -1
    outer loop
      vertex 24.601 5.593 -5
      vertex 36.037 11.57 -5
      vertex 35.285 9.667 -5
    endloop
  endfacet
  facet normal 0 0 -1
    outer loop
      vertex 24.601 5.593 -5
      vertex 35.285 9.667 -5
      vertex 34.478 8.049 -5
    endloop
  endfacet
  facet normal 0 0 -1
    outer loop
      vertex 24.601 5.593 -5
      vertex 34.478 8.049 -5
      vertex 22.731 4.979 -5
    endloop
  endfacet
  facet normal 0 0 -1
    outer loop
      vertex 22.731 4.979 -5
      vertex 34.478 8.049 -5
      vertex 31.379 4.207 -5
    endloop
  endfacet
  facet normal 0 0 -1
    outer loop
      vertex 22.731 4.979 -5
      vertex 31.379 4.207 -5
      vertex 20.519 4.67 -5
    endloop
  endfacet
  facet normal 0 0 -1
    outer loop
      vertex 18.238 4.689 -5
      vertex 31.379 4.207 -5
      vertex 27.387 1.57 -5
    endloop
  endfacet
  facet normal 0 0 -1
    outer loop
      vertex 18.238 4.689 -5
      vertex 27.387 1.57 -5
      vertex 16.163 5.057 -5
    endloop
  endfacet
  facet normal 0 0 -1
    outer loop
      vertex 16.163 5.057 -5
      vertex 27.387 1.57 -5
      vertex 22.644 0.196 -5
    endloop
  endfacet
  facet normal 0 0 -1
    outer loop
      vertex 16.163 5.057 -5
      vertex 22.644 0.196 -5
      vertex 12.211 6.936 -5
    endloop
  endfacet
  facet normal 0 0 -1
    outer loop
      vertex 12.211 6.936 -5
      vertex 22.644 0.196 -5
      vertex 17.292 0.147 -5
    endloop
  endfacet
  facet normal 0 0 -1
    outer loop
      vertex 12.211 6.936 -5
      vertex 17.292 0.147 -5
      vertex 9.081 10.043 -5
    endloop
  endfacet
  facet normal 0 0 -1
    outer loop
      vertex 9.081 10.043 -5
      vertex 17.292 0.147 -5
      vertex 14.009 0.744 -5
    endloop
  endfacet
  facet normal 0 0 -1
    outer loop
      vertex 9.081 10.043 -5
      vertex 14.009 0.744 -5
      vertex 0.006 21.703 -5
    endloop
  endfacet
  facet normal 0 0 -1
    outer loop
      vertex 0.006 21.703 -5
      vertex 14.009 0.744 -5
      vertex 11.164 1.78 -5
    endloop
  endfacet
  facet normal 0 0 -1
    outer loop
      vertex 0.006 21.703 -5
      vertex 11.164 1.78 -5
      vertex 8.588 3.343 -5
    endloop
  endfacet
  facet normal 0 0 -1
    outer loop
      vertex 0.006 21.703 -5
      vertex 8.588 3.343 -5
      vertex 6.116 5.509 -5
    endloop
  endfacet
  facet normal 0 0 -1
    outer loop
      vertex 0.006 21.703 -5
      vertex 6.116 5.509 -5
      vertex 4.998 6.7 -5
    endloop
  endfacet
  facet normal 0 0 -1
    outer loop
      vertex 0.006 21.703 -5
      vertex 4.998 6.7 -5
      vertex 4.14 7.771 -5
    endloop
  endfacet
  facet normal 0 0 -1
    outer loop
      vertex 0.006 21.703 -5
      vertex 4.14 7.771 -5
      vertex 3.408 8.91 -5
    endloop
  endfacet
  facet normal 0 0 -1
    outer loop
      vertex 0.006 21.703 -5
      vertex 3.408 8.91 -5
      vertex 2.672 10.306 -5
    endloop
  endfacet
  facet normal 0 0 -1
    outer loop
      vertex 0.006 21.703 -5
      vertex 2.672 10.306 -5
      vertex 1.264 13.915 -5
    endloop
  endfacet
  facet normal 0 0 -1
    outer loop
      vertex 0.006 21.703 -5
      vertex 1.264 13.915 -5
      vertex 0.365 17.768 -5
    endloop
  endfacet
  facet normal 0 0 -1
    outer loop
      vertex 31.543 29.894 -5
      vertex 36.765 30.654 -5
      vertex 34.225 29.808 -5
    endloop
  endfacet
  facet normal -0.0309929 -0.99952 0
    outer loop
      vertex 34.225 29.808 -5
      vertex 36.934 29.724 -5
      vertex 36.934 29.724 5
    endloop
  endfacet
  facet normal -0.0309929 -0.99952 0
    outer loop
      vertex 34.225 29.808 5
      vertex 34.225 29.808 -5
      vertex 36.934 29.724 5
    endloop
  endfacet
  facet normal 0 0 1
    outer loop
      vertex 0.006 21.703 5
      vertex 0.365 17.768 5
      vertex 1.264 13.915 5
    endloop
  endfacet
  facet normal 0 0 1
    outer loop
      vertex 3.408 8.91 5
      vertex 0.006 21.703 5
      vertex 2.672 10.306 5
    endloop
  endfacet
  facet normal 0 0 1
    outer loop
      vertex 2.672 10.306 5
      vertex 0.006 21.703 5
      vertex 1.264 13.915 5
    endloop
  endfacet
  facet normal 0 0 1
    outer loop
      vertex 4.14 7.771 5
      vertex 0.006 21.703 5
      vertex 3.408 8.91 5
    endloop
  endfacet
  facet normal 0 0 1
    outer loop
      vertex 4.998 6.7 5
      vertex 0.006 21.703 5
      vertex 4.14 7.771 5
    endloop
  endfacet
  facet normal 0 0 1
    outer loop
      vertex 6.116 5.509 5
      vertex 0.006 21.703 5
      vertex 4.998 6.7 5
    endloop
  endfacet
  facet normal 0 0 1
    outer loop
      vertex 8.588 3.343 5
      vertex 0.006 21.703 5
      vertex 6.116 5.509 5
    endloop
  endfacet
  facet normal 0 0 1
    outer loop
      vertex 11.164 1.78 5
      vertex 0.006 21.703 5
      vertex 8.588 3.343 5
    endloop
  endfacet
  facet normal 0 0 1
    outer loop
      vertex 14.009 0.744 5
      vertex 0.006 21.703 5
      vertex 11.164 1.78 5
    endloop
  endfacet
  facet normal 0 0 1
    outer loop
      vertex 9.081 10.043 5
      vertex 0.006 21.703 5
      vertex 14.009 0.744 5
    endloop
  endfacet
  facet normal 0 0 1
    outer loop
      vertex 9.081 10.043 5
      vertex 6.847 14.278 5
      vertex 0.006 21.703 5
    endloop
  endfacet
  facet normal 0 0 1
    outer loop
      vertex 12.211 6.936 5
      vertex 9.081 10.043 5
      vertex 17.292 0.147 5
    endloop
  endfacet
  facet normal 0 0 1
    outer loop
      vertex 18.238 4.689 5
      vertex 16.163 5.057 5
      vertex 22.644 0.196 5
    endloop
  endfacet
  facet normal 0 0 1
    outer loop
      vertex 24.601 5.593 5
      vertex 22.731 4.979 5
      vertex 27.387 1.57 5
    endloop
  endfacet
  facet normal 0 0 1
    outer loop
      vertex 26.97 7.118 5
      vertex 24.601 5.593 5
      vertex 31.379 4.207 5
    endloop
  endfacet
  facet normal 0 0 1
    outer loop
      vertex 31.459 14.399 5
      vertex 30.503 11.656 5
      vertex 36.037 11.57 5
    endloop
  endfacet
  facet normal 0 0 1
    outer loop
      vertex 37.217 16.488 5
      vertex 31.911 16.488 5
      vertex 37.047 15.302 5
    endloop
  endfacet
  facet normal 0 0 1
    outer loop
      vertex 36.653 13.527 5
      vertex 31.459 14.399 5
      vertex 36.037 11.57 5
    endloop
  endfacet
  facet normal 0 0 1
    outer loop
      vertex 36.037 11.57 5
      vertex 30.503 11.656 5
      vertex 35.285 9.667 5
    endloop
  endfacet
  facet normal 0 0 1
    outer loop
      vertex 34.478 8.049 5
      vertex 28.972 9.182 5
      vertex 31.379 4.207 5
    endloop
  endfacet
  facet normal 0 0 1
    outer loop
      vertex 28.972 9.182 5
      vertex 26.97 7.118 5
      vertex 31.379 4.207 5
    endloop
  endfacet
  facet normal 0 0 1
    outer loop
      vertex 31.379 4.207 5
      vertex 24.601 5.593 5
      vertex 27.387 1.57 5
    endloop
  endfacet
  facet normal 0 0 1
    outer loop
      vertex 27.387 1.57 5
      vertex 22.731 4.979 5
      vertex 22.644 0.196 5
    endloop
  endfacet
  facet normal 0 0 1
    outer loop
      vertex 22.731 4.979 5
      vertex 20.519 4.67 5
      vertex 22.644 0.196 5
    endloop
  endfacet
  facet normal 0 0 1
    outer loop
      vertex 5.58 19.535 5
      vertex 5.409 22.39 5
      vertex 0.006 21.703 5
    endloop
  endfacet
  facet normal 0 0 1
    outer loop
      vertex 20.519 4.67 5
      vertex 18.238 4.689 5
      vertex 22.644 0.196 5
    endloop
  endfacet
  facet normal 0 0 1
    outer loop
      vertex 22.644 0.196 5
      vertex 16.163 5.057 5
      vertex 17.292 0.147 5
    endloop
  endfacet
  facet normal 0 0 1
    outer loop
      vertex 16.163 5.057 5
      vertex 12.211 6.936 5
      vertex 17.292 0.147 5
    endloop
  endfacet
  facet normal 0 0 1
    outer loop
      vertex 17.292 0.147 5
      vertex 9.081 10.043 5
      vertex 14.009 0.744 5
    endloop
  endfacet
  facet normal 0 0 1
    outer loop
      vertex 5.635 25.25 5
      vertex 0.006 21.703 5
      vertex 5.409 22.39 5
    endloop
  endfacet
  facet normal 0 0 1
    outer loop
      vertex 6.227 28.038 5
      vertex 0.006 21.703 5
      vertex 5.635 25.25 5
    endloop
  endfacet
  facet normal 0 0 1
    outer loop
      vertex 7.152 30.678 5
      vertex 0.006 21.703 5
      vertex 6.227 28.038 5
    endloop
  endfacet
  facet normal 0 0 1
    outer loop
      vertex 8.376 33.092 5
      vertex 0.006 21.703 5
      vertex 7.152 30.678 5
    endloop
  endfacet
  facet normal 0 0 1
    outer loop
      vertex 9.865 35.205 5
      vertex 0.006 21.703 5
      vertex 8.376 33.092 5
    endloop
  endfacet
  facet normal 0 0 1
    outer loop
      vertex 13.891 43.523 5
      vertex 0.006 21.703 5
      vertex 9.865 35.205 5
    endloop
  endfacet
  facet normal 0 0 1
    outer loop
      vertex 16.982 44.117 5
      vertex 9.865 35.205 5
      vertex 11.588 36.94 5
    endloop
  endfacet
  facet normal 0 0 1
    outer loop
      vertex 16.982 44.117 5
      vertex 11.588 36.94 5
      vertex 13.51 38.219 5
    endloop
  endfacet
  facet normal 0 0 1
    outer loop
      vertex 22.498 44.125 5
      vertex 13.51 38.219 5
      vertex 16.259 39.207 5
    endloop
  endfacet
  facet normal 0 0 1
    outer loop
      vertex 27.441 42.862 5
      vertex 16.259 39.207 5
      vertex 19.298 39.623 5
    endloop
  endfacet
  facet normal 0 0 1
    outer loop
      vertex 31.542 40.436 5
      vertex 19.298 39.623 5
      vertex 22.299 39.458 5
    endloop
  endfacet
  facet normal 0 0 1
    outer loop
      vertex 34.535 36.949 5
      vertex 22.299 39.458 5
      vertex 24.94 38.698 5
    endloop
  endfacet
  facet normal 0 0 1
    outer loop
      vertex 35.872 33.982 5
      vertex 24.94 38.698 5
      vertex 26.917 37.531 5
    endloop
  endfacet
  facet normal 0 0 1
    outer loop
      vertex 36.934 29.724 5
      vertex 26.917 37.531 5
      vertex 28.552 35.997 5
    endloop
  endfacet
  facet normal 0 0 1
    outer loop
      vertex 31.543 29.894 5
      vertex 34.225 29.808 5
      vertex 30.894 31.728 5
    endloop
  endfacet
  facet normal 0 0 1
    outer loop
      vertex 34.225 29.808 5
      vertex 28.552 35.997 5
      vertex 29.868 34.072 5
    endloop
  endfacet
  facet normal 0 0 1
    outer loop
      vertex 34.225 29.808 5
      vertex 29.868 34.072 5
      vertex 30.894 31.728 5
    endloop
  endfacet
  facet normal 0 0 1
    outer loop
      vertex 36.934 29.724 5
      vertex 28.552 35.997 5
      vertex 34.225 29.808 5
    endloop
  endfacet
  facet normal 0 0 1
    outer loop
      vertex 36.765 30.654 5
      vertex 26.917 37.531 5
      vertex 36.934 29.724 5
    endloop
  endfacet
  facet normal 0 0 1
    outer loop
      vertex 35.872 33.982 5
      vertex 26.917 37.531 5
      vertex 36.765 30.654 5
    endloop
  endfacet
  facet normal 0 0 1
    outer loop
      vertex 34.535 36.949 5
      vertex 24.94 38.698 5
      vertex 35.872 33.982 5
    endloop
  endfacet
  facet normal 0 0 1
    outer loop
      vertex 31.542 40.436 5
      vertex 22.299 39.458 5
      vertex 34.535 36.949 5
    endloop
  endfacet
  facet normal 0 0 1
    outer loop
      vertex 27.441 42.862 5
      vertex 19.298 39.623 5
      vertex 31.542 40.436 5
    endloop
  endfacet
  facet normal 0 0 1
    outer loop
      vertex 22.498 44.125 5
      vertex 16.259 39.207 5
      vertex 27.441 42.862 5
    endloop
  endfacet
  facet normal 0 0 1
    outer loop
      vertex 16.982 44.117 5
      vertex 13.51 38.219 5
      vertex 22.498 44.125 5
    endloop
  endfacet
  facet normal 0 0 1
    outer loop
      vertex 13.891 43.523 5
      vertex 9.865 35.205 5
      vertex 16.982 44.117 5
    endloop
  endfacet
  facet normal 0 0 1
    outer loop
      vertex 11.118 42.467 5
      vertex 0.006 21.703 5
      vertex 13.891 43.523 5
    endloop
  endfacet
  facet normal 0 0 1
    outer loop
      vertex 8.567 40.903 5
      vertex 0.006 21.703 5
      vertex 11.118 42.467 5
    endloop
  endfacet
  facet normal 0 0 1
    outer loop
      vertex 6.143 38.784 5
      vertex 0.006 21.703 5
      vertex 8.567 40.903 5
    endloop
  endfacet
  facet normal 0 0 1
    outer loop
      vertex 3.911 36.121 5
      vertex 0.006 21.703 5
      vertex 6.143 38.784 5
    endloop
  endfacet
  facet normal 0 0 1
    outer loop
      vertex 2.217 33.098 5
      vertex 0.006 21.703 5
      vertex 3.911 36.121 5
    endloop
  endfacet
  facet normal 0 0 1
    outer loop
      vertex 1.003 29.609 5
      vertex 0.006 21.703 5
      vertex 2.217 33.098 5
    endloop
  endfacet
  facet normal 0 0 1
    outer loop
      vertex 0.218 25.548 5
      vertex 0.006 21.703 5
      vertex 1.003 29.609 5
    endloop
  endfacet
  facet normal 0 0 1
    outer loop
      vertex 31.911 16.488 5
      vertex 36.653 13.527 5
      vertex 37.047 15.302 5
    endloop
  endfacet
  facet normal 0 0 1
    outer loop
      vertex 31.911 16.488 5
      vertex 31.459 14.399 5
      vertex 36.653 13.527 5
    endloop
  endfacet
  facet normal 0 0 1
    outer loop
      vertex 30.503 11.656 5
      vertex 34.478 8.049 5
      vertex 35.285 9.667 5
    endloop
  endfacet
  facet normal 0 0 1
    outer loop
      vertex 30.503 11.656 5
      vertex 28.972 9.182 5
      vertex 34.478 8.049 5
    endloop
  endfacet
  facet normal 0 0 1
    outer loop
      vertex 6.847 14.278 5
      vertex 5.58 19.535 5
      vertex 0.006 21.703 5
    endloop
  endfacet
  facet normal 0.911709 0.410837 0
    outer loop
      vertex 34.535 36.949 -5
      vertex 34.535 36.949 5
      vertex 35.872 33.982 5
    endloop
  endfacet
  facet normal 0.911709 0.410837 0
    outer loop
      vertex 35.872 33.982 -5
      vertex 34.535 36.949 -5
      vertex 35.872 33.982 5
    endloop
  endfacet
  facet normal -0.995864 -0.0908552 0
    outer loop
      vertex 0.365 17.768 -5
      vertex 0.365 17.768 5
      vertex 0.006 21.703 -5
    endloop
  endfacet
  facet normal -0.995864 -0.0908552 0
    outer loop
      vertex 0.006 21.703 -5
      vertex 0.365 17.768 5
      vertex 0.006 21.703 5
    endloop
  endfacet
  facet normal -0.998483 0.0550529 0
    outer loop
      vertex 0.006 21.703 5
      vertex 0.218 25.548 5
      vertex 0.006 21.703 -5
    endloop
  endfacet
  facet normal -0.998483 0.0550529 0
    outer loop
      vertex 0.006 21.703 -5
      vertex 0.218 25.548 5
      vertex 0.218 25.548 -5
    endloop
  endfacet
  facet normal -0.973843 -0.227222 0
    outer loop
      vertex 1.264 13.915 -5
      vertex 1.264 13.915 5
      vertex 0.365 17.768 -5
    endloop
  endfacet
  facet normal -0.973843 -0.227222 0
    outer loop
      vertex 0.365 17.768 -5
      vertex 1.264 13.915 5
      vertex 0.365 17.768 5
    endloop
  endfacet
  facet normal -0.931612 -0.363455 0
    outer loop
      vertex 2.672 10.306 -5
      vertex 2.672 10.306 5
      vertex 1.264 13.915 -5
    endloop
  endfacet
  facet normal -0.931612 -0.363455 0
    outer loop
      vertex 1.264 13.915 -5
      vertex 2.672 10.306 5
      vertex 1.264 13.915 5
    endloop
  endfacet
  facet normal -0.884588 -0.466373 0
    outer loop
      vertex 3.408 8.91 -5
      vertex 3.408 8.91 5
      vertex 2.672 10.306 -5
    endloop
  endfacet
  facet normal -0.884588 -0.466373 0
    outer loop
      vertex 2.672 10.306 -5
      vertex 3.408 8.91 5
      vertex 2.672 10.306 5
    endloop
  endfacet
  facet normal -0.84125 -0.540646 0
    outer loop
      vertex 4.14 7.771 -5
      vertex 4.14 7.771 5
      vertex 3.408 8.91 -5
    endloop
  endfacet
  facet normal -0.84125 -0.540646 0
    outer loop
      vertex 3.408 8.91 -5
      vertex 4.14 7.771 5
      vertex 3.408 8.91 5
    endloop
  endfacet
  facet normal -0.780442 -0.625228 0
    outer loop
      vertex 4.998 6.7 -5
      vertex 4.998 6.7 5
      vertex 4.14 7.771 -5
    endloop
  endfacet
  facet normal -0.780442 -0.625228 0
    outer loop
      vertex 4.14 7.771 -5
      vertex 4.998 6.7 5
      vertex 4.14 7.771 5
    endloop
  endfacet
  facet normal -0.729098 -0.684409 0
    outer loop
      vertex 6.116 5.509 -5
      vertex 6.116 5.509 5
      vertex 4.998 6.7 -5
    endloop
  endfacet
  facet normal -0.729098 -0.684409 0
    outer loop
      vertex 4.998 6.7 -5
      vertex 6.116 5.509 5
      vertex 4.998 6.7 5
    endloop
  endfacet
  facet normal -0.659021 -0.752124 0
    outer loop
      vertex 6.116 5.509 -5
      vertex 8.588 3.343 -5
      vertex 8.588 3.343 5
    endloop
  endfacet
  facet normal -0.659021 -0.752124 0
    outer loop
      vertex 6.116 5.509 5
      vertex 6.116 5.509 -5
      vertex 8.588 3.343 5
    endloop
  endfacet
  facet normal -0.518736 -0.854935 0
    outer loop
      vertex 8.588 3.343 -5
      vertex 11.164 1.78 -5
      vertex 11.164 1.78 5
    endloop
  endfacet
  facet normal -0.518736 -0.854935 0
    outer loop
      vertex 8.588 3.343 5
      vertex 8.588 3.343 -5
      vertex 11.164 1.78 5
    endloop
  endfacet
  facet normal -0.342167 -0.939639 0
    outer loop
      vertex 11.164 1.78 -5
      vertex 14.009 0.744 -5
      vertex 14.009 0.744 5
    endloop
  endfacet
  facet normal -0.342167 -0.939639 0
    outer loop
      vertex 11.164 1.78 5
      vertex 11.164 1.78 -5
      vertex 14.009 0.744 5
    endloop
  endfacet
  facet normal -0.178912 -0.983865 0
    outer loop
      vertex 14.009 0.744 -5
      vertex 17.292 0.147 -5
      vertex 17.292 0.147 5
    endloop
  endfacet
  facet normal -0.178912 -0.983865 0
    outer loop
      vertex 14.009 0.744 5
      vertex 14.009 0.744 -5
      vertex 17.292 0.147 5
    endloop
  endfacet
  facet normal 0.00915507 -0.999958 0
    outer loop
      vertex 17.292 0.147 -5
      vertex 22.644 0.196 -5
      vertex 22.644 0.196 5
    endloop
  endfacet
  facet normal 0.00915507 -0.999958 0
    outer loop
      vertex 17.292 0.147 5
      vertex 17.292 0.147 -5
      vertex 22.644 0.196 5
    endloop
  endfacet
  facet normal 0.27825 -0.960509 0
    outer loop
      vertex 22.644 0.196 -5
      vertex 27.387 1.57 -5
      vertex 27.387 1.57 5
    endloop
  endfacet
  facet normal 0.27825 -0.960509 0
    outer loop
      vertex 22.644 0.196 5
      vertex 22.644 0.196 -5
      vertex 27.387 1.57 5
    endloop
  endfacet
  facet normal 0.551174 -0.83439 0
    outer loop
      vertex 27.387 1.57 -5
      vertex 31.379 4.207 -5
      vertex 31.379 4.207 5
    endloop
  endfacet
  facet normal 0.551174 -0.83439 0
    outer loop
      vertex 27.387 1.57 5
      vertex 27.387 1.57 -5
      vertex 31.379 4.207 5
    endloop
  endfacet
  facet normal 0.778352 -0.627828 0
    outer loop
      vertex 31.379 4.207 -5
      vertex 34.478 8.049 -5
      vertex 34.478 8.049 5
    endloop
  endfacet
  facet normal 0.778352 -0.627828 0
    outer loop
      vertex 31.379 4.207 5
      vertex 31.379 4.207 -5
      vertex 34.478 8.049 5
    endloop
  endfacet
  facet normal 0.894869 -0.446328 0
    outer loop
      vertex 34.478 8.049 -5
      vertex 35.285 9.667 -5
      vertex 35.285 9.667 5
    endloop
  endfacet
  facet normal 0.894869 -0.446328 0
    outer loop
      vertex 34.478 8.049 5
      vertex 34.478 8.049 -5
      vertex 35.285 9.667 5
    endloop
  endfacet
  facet normal 0.930019 -0.367511 0
    outer loop
      vertex 35.285 9.667 -5
      vertex 36.037 11.57 -5
      vertex 36.037 11.57 5
    endloop
  endfacet
  facet normal 0.930019 -0.367511 0
    outer loop
      vertex 35.285 9.667 5
      vertex 35.285 9.667 -5
      vertex 36.037 11.57 5
    endloop
  endfacet
  facet normal 0.953862 -0.300245 0
    outer loop
      vertex 36.037 11.57 -5
      vertex 36.653 13.527 -5
      vertex 36.653 13.527 5
    endloop
  endfacet
  facet normal 0.953862 -0.300245 0
    outer loop
      vertex 36.037 11.57 5
      vertex 36.037 11.57 -5
      vertex 36.653 13.527 5
    endloop
  endfacet
  facet normal 0.976239 -0.216698 0
    outer loop
      vertex 36.653 13.527 -5
      vertex 37.047 15.302 -5
      vertex 37.047 15.302 5
    endloop
  endfacet
  facet normal 0.976239 -0.216698 0
    outer loop
      vertex 36.653 13.527 5
      vertex 36.653 13.527 -5
      vertex 37.047 15.302 5
    endloop
  endfacet
  facet normal 0.989883 -0.141889 0
    outer loop
      vertex 37.047 15.302 -5
      vertex 37.217 16.488 -5
      vertex 37.217 16.488 5
    endloop
  endfacet
  facet normal 0.989883 -0.141889 0
    outer loop
      vertex 37.047 15.302 5
      vertex 37.047 15.302 -5
      vertex 37.217 16.488 5
    endloop
  endfacet
  facet normal 0 1 0
    outer loop
      vertex 31.911 16.488 5
      vertex 37.217 16.488 5
      vertex 31.911 16.488 -5
    endloop
  endfacet
  facet normal 0 1 0
    outer loop
      vertex 31.911 16.488 -5
      vertex 37.217 16.488 5
      vertex 37.217 16.488 -5
    endloop
  endfacet
  facet normal -0.977383 0.211478 0
    outer loop
      vertex 31.459 14.399 5
      vertex 31.911 16.488 5
      vertex 31.459 14.399 -5
    endloop
  endfacet
  facet normal -0.977383 0.211478 0
    outer loop
      vertex 31.459 14.399 -5
      vertex 31.911 16.488 5
      vertex 31.911 16.488 -5
    endloop
  endfacet
  facet normal -0.944292 0.329108 0
    outer loop
      vertex 30.503 11.656 5
      vertex 31.459 14.399 5
      vertex 30.503 11.656 -5
    endloop
  endfacet
  facet normal -0.944292 0.329108 0
    outer loop
      vertex 30.503 11.656 -5
      vertex 31.459 14.399 5
      vertex 31.459 14.399 -5
    endloop
  endfacet
  facet normal -0.850346 0.526224 0
    outer loop
      vertex 28.972 9.182 5
      vertex 30.503 11.656 5
      vertex 28.972 9.182 -5
    endloop
  endfacet
  facet normal -0.850346 0.526224 0
    outer loop
      vertex 28.972 9.182 -5
      vertex 30.503 11.656 5
      vertex 30.503 11.656 -5
    endloop
  endfacet
  facet normal -0.717806 0.696244 0
    outer loop
      vertex 26.97 7.118 5
      vertex 28.972 9.182 5
      vertex 26.97 7.118 -5
    endloop
  endfacet
  facet normal -0.717806 0.696244 0
    outer loop
      vertex 26.97 7.118 -5
      vertex 28.972 9.182 5
      vertex 28.972 9.182 -5
    endloop
  endfacet
  facet normal -0.541278 0.840844 0
    outer loop
      vertex 24.601 5.593 5
      vertex 26.97 7.118 5
      vertex 24.601 5.593 -5
    endloop
  endfacet
  facet normal -0.541278 0.840844 0
    outer loop
      vertex 24.601 5.593 -5
      vertex 26.97 7.118 5
      vertex 26.97 7.118 -5
    endloop
  endfacet
  facet normal -0.311957 0.950096 0
    outer loop
      vertex 22.731 4.979 5
      vertex 24.601 5.593 5
      vertex 22.731 4.979 -5
    endloop
  endfacet
  facet normal -0.311957 0.950096 0
    outer loop
      vertex 22.731 4.979 -5
      vertex 24.601 5.593 5
      vertex 24.601 5.593 -5
    endloop
  endfacet
  facet normal -0.138349 0.990384 0
    outer loop
      vertex 20.519 4.67 5
      vertex 22.731 4.979 5
      vertex 20.519 4.67 -5
    endloop
  endfacet
  facet normal -0.138349 0.990384 0
    outer loop
      vertex 20.519 4.67 -5
      vertex 22.731 4.979 5
      vertex 22.731 4.979 -5
    endloop
  endfacet
  facet normal 0.00832939 0.999965 0
    outer loop
      vertex 18.238 4.689 5
      vertex 20.519 4.67 5
      vertex 18.238 4.689 -5
    endloop
  endfacet
  facet normal 0.00832939 0.999965 0
    outer loop
      vertex 18.238 4.689 -5
      vertex 20.519 4.67 5
      vertex 20.519 4.67 -5
    endloop
  endfacet
  facet normal 0.174624 0.984635 0
    outer loop
      vertex 16.163 5.057 5
      vertex 18.238 4.689 5
      vertex 16.163 5.057 -5
    endloop
  endfacet
  facet normal 0.174624 0.984635 0
    outer loop
      vertex 16.163 5.057 -5
      vertex 18.238 4.689 5
      vertex 18.238 4.689 -5
    endloop
  endfacet
  facet normal 0.429392 0.903118 0
    outer loop
      vertex 12.211 6.936 5
      vertex 16.163 5.057 5
      vertex 12.211 6.936 -5
    endloop
  endfacet
  facet normal 0.429392 0.903118 0
    outer loop
      vertex 12.211 6.936 -5
      vertex 16.163 5.057 5
      vertex 16.163 5.057 -5
    endloop
  endfacet
  facet normal 0.704494 0.70971 0
    outer loop
      vertex 9.081 10.043 5
      vertex 12.211 6.936 5
      vertex 9.081 10.043 -5
    endloop
  endfacet
  facet normal 0.704494 0.70971 0
    outer loop
      vertex 9.081 10.043 -5
      vertex 12.211 6.936 5
      vertex 12.211 6.936 -5
    endloop
  endfacet
  facet normal 0.884483 0.466573 0
    outer loop
      vertex 6.847 14.278 -5
      vertex 6.847 14.278 5
      vertex 9.081 10.043 5
    endloop
  endfacet
  facet normal 0.884483 0.466573 0
    outer loop
      vertex 9.081 10.043 -5
      vertex 6.847 14.278 -5
      vertex 9.081 10.043 5
    endloop
  endfacet
  facet normal 0.972164 0.234303 0
    outer loop
      vertex 5.58 19.535 -5
      vertex 5.58 19.535 5
      vertex 6.847 14.278 5
    endloop
  endfacet
  facet normal 0.972164 0.234303 0
    outer loop
      vertex 6.847 14.278 -5
      vertex 5.58 19.535 -5
      vertex 6.847 14.278 5
    endloop
  endfacet
  facet normal 0.998211 0.0597878 0
    outer loop
      vertex 5.409 22.39 -5
      vertex 5.409 22.39 5
      vertex 5.58 19.535 5
    endloop
  endfacet
  facet normal 0.998211 0.0597878 0
    outer loop
      vertex 5.58 19.535 -5
      vertex 5.409 22.39 -5
      vertex 5.58 19.535 5
    endloop
  endfacet
  facet normal 0.996892 -0.0787754 0
    outer loop
      vertex 5.409 22.39 -5
      vertex 5.635 25.25 -5
      vertex 5.635 25.25 5
    endloop
  endfacet
  facet normal 0.996892 -0.0787754 0
    outer loop
      vertex 5.409 22.39 5
      vertex 5.409 22.39 -5
      vertex 5.635 25.25 5
    endloop
  endfacet
  facet normal 0.978191 -0.207708 0
    outer loop
      vertex 5.635 25.25 -5
      vertex 6.227 28.038 -5
      vertex 6.227 28.038 5
    endloop
  endfacet
  facet normal 0.978191 -0.207708 0
    outer loop
      vertex 5.635 25.25 5
      vertex 5.635 25.25 -5
      vertex 6.227 28.038 5
    endloop
  endfacet
  facet normal 0.943747 -0.330669 0
    outer loop
      vertex 6.227 28.038 -5
      vertex 7.152 30.678 -5
      vertex 7.152 30.678 5
    endloop
  endfacet
  facet normal 0.943747 -0.330669 0
    outer loop
      vertex 6.227 28.038 5
      vertex 6.227 28.038 -5
      vertex 7.152 30.678 5
    endloop
  endfacet
  facet normal 0.891901 -0.452231 0
    outer loop
      vertex 7.152 30.678 -5
      vertex 8.376 33.092 -5
      vertex 8.376 33.092 5
    endloop
  endfacet
  facet normal 0.891901 -0.452231 0
    outer loop
      vertex 7.152 30.678 5
      vertex 7.152 30.678 -5
      vertex 8.376 33.092 5
    endloop
  endfacet
  facet normal 0.817429 -0.57603 0
    outer loop
      vertex 8.376 33.092 -5
      vertex 9.865 35.205 -5
      vertex 9.865 35.205 5
    endloop
  endfacet
  facet normal 0.817429 -0.57603 0
    outer loop
      vertex 8.376 33.092 5
      vertex 8.376 33.092 -5
      vertex 9.865 35.205 5
    endloop
  endfacet
  facet normal 0.709556 -0.704649 0
    outer loop
      vertex 9.865 35.205 -5
      vertex 11.588 36.94 -5
      vertex 11.588 36.94 5
    endloop
  endfacet
  facet normal 0.709556 -0.704649 0
    outer loop
      vertex 9.865 35.205 5
      vertex 9.865 35.205 -5
      vertex 11.588 36.94 5
    endloop
  endfacet
  facet normal 0.554 -0.832516 0
    outer loop
      vertex 11.588 36.94 -5
      vertex 13.51 38.219 -5
      vertex 13.51 38.219 5
    endloop
  endfacet
  facet normal 0.554 -0.832516 0
    outer loop
      vertex 11.588 36.94 5
      vertex 11.588 36.94 -5
      vertex 13.51 38.219 5
    endloop
  endfacet
  facet normal 0.338222 -0.941066 0
    outer loop
      vertex 13.51 38.219 -5
      vertex 16.259 39.207 -5
      vertex 16.259 39.207 5
    endloop
  endfacet
  facet normal 0.338222 -0.941066 0
    outer loop
      vertex 13.51 38.219 5
      vertex 13.51 38.219 -5
      vertex 16.259 39.207 5
    endloop
  endfacet
  facet normal 0.135622 -0.990761 0
    outer loop
      vertex 16.259 39.207 -5
      vertex 19.298 39.623 -5
      vertex 19.298 39.623 5
    endloop
  endfacet
  facet normal 0.135622 -0.990761 0
    outer loop
      vertex 16.259 39.207 5
      vertex 16.259 39.207 -5
      vertex 19.298 39.623 5
    endloop
  endfacet
  facet normal -0.0548988 -0.998492 0
    outer loop
      vertex 19.298 39.623 -5
      vertex 22.299 39.458 -5
      vertex 22.299 39.458 5
    endloop
  endfacet
  facet normal -0.0548988 -0.998492 0
    outer loop
      vertex 19.298 39.623 5
      vertex 19.298 39.623 -5
      vertex 22.299 39.458 5
    endloop
  endfacet
  facet normal -0.276547 -0.961 0
    outer loop
      vertex 22.299 39.458 -5
      vertex 24.94 38.698 -5
      vertex 24.94 38.698 5
    endloop
  endfacet
  facet normal -0.276547 -0.961 0
    outer loop
      vertex 22.299 39.458 5
      vertex 22.299 39.458 -5
      vertex 24.94 38.698 5
    endloop
  endfacet
  facet normal -0.508333 -0.861161 0
    outer loop
      vertex 24.94 38.698 -5
      vertex 26.917 37.531 -5
      vertex 26.917 37.531 5
    endloop
  endfacet
  facet normal -0.508333 -0.861161 0
    outer loop
      vertex 24.94 38.698 5
      vertex 24.94 38.698 -5
      vertex 26.917 37.531 5
    endloop
  endfacet
  facet normal -0.684223 -0.729273 0
    outer loop
      vertex 26.917 37.531 -5
      vertex 28.552 35.997 -5
      vertex 28.552 35.997 5
    endloop
  endfacet
  facet normal -0.684223 -0.729273 0
    outer loop
      vertex 26.917 37.531 5
      vertex 26.917 37.531 -5
      vertex 28.552 35.997 5
    endloop
  endfacet
  facet normal -0.825528 -0.564361 0
    outer loop
      vertex 29.868 34.072 -5
      vertex 29.868 34.072 5
      vertex 28.552 35.997 -5
    endloop
  endfacet
  facet normal -0.825528 -0.564361 0
    outer loop
      vertex 28.552 35.997 -5
      vertex 29.868 34.072 5
      vertex 28.552 35.997 5
    endloop
  endfacet
  facet normal -0.916086 -0.400983 0
    outer loop
      vertex 30.894 31.728 -5
      vertex 30.894 31.728 5
      vertex 29.868 34.072 -5
    endloop
  endfacet
  facet normal -0.916086 -0.400983 0
    outer loop
      vertex 29.868 34.072 -5
      vertex 30.894 31.728 5
      vertex 29.868 34.072 5
    endloop
  endfacet
  facet normal -0.942715 -0.3336 0
    outer loop
      vertex 31.543 29.894 -5
      vertex 31.543 29.894 5
      vertex 30.894 31.728 -5
    endloop
  endfacet
  facet normal -0.942715 -0.3336 0
    outer loop
      vertex 30.894 31.728 -5
      vertex 31.543 29.894 5
      vertex 30.894 31.728 5
    endloop
  endfacet
  facet normal -0.0320492 -0.999486 0
    outer loop
      vertex 31.543 29.894 -5
      vertex 34.225 29.808 -5
      vertex 34.225 29.808 5
    endloop
  endfacet
  facet normal -0.0320492 -0.999486 0
    outer loop
      vertex 31.543 29.894 5
      vertex 31.543 29.894 -5
      vertex 34.225 29.808 5
    endloop
  endfacet
  facet normal 0.758811 0.651311 0
    outer loop
      vertex 31.542 40.436 -5
      vertex 31.542 40.436 5
      vertex 34.535 36.949 5
    endloop
  endfacet
  facet normal 0.758811 0.651311 0
    outer loop
      vertex 34.535 36.949 -5
      vertex 31.542 40.436 -5
      vertex 34.535 36.949 5
    endloop
  endfacet
  facet normal 0.509146 0.86068 0
    outer loop
      vertex 27.441 42.862 5
      vertex 31.542 40.436 5
      vertex 27.441 42.862 -5
    endloop
  endfacet
  facet normal 0.509146 0.86068 0
    outer loop
      vertex 27.441 42.862 -5
      vertex 31.542 40.436 5
      vertex 31.542 40.436 -5
    endloop
  endfacet
  facet normal 0.247559 0.968873 0
    outer loop
      vertex 22.498 44.125 5
      vertex 27.441 42.862 5
      vertex 22.498 44.125 -5
    endloop
  endfacet
  facet normal 0.247559 0.968873 0
    outer loop
      vertex 22.498 44.125 -5
      vertex 27.441 42.862 5
      vertex 27.441 42.862 -5
    endloop
  endfacet
  facet normal -0.00145032 0.999999 0
    outer loop
      vertex 16.982 44.117 5
      vertex 22.498 44.125 5
      vertex 16.982 44.117 -5
    endloop
  endfacet
  facet normal -0.00145032 0.999999 0
    outer loop
      vertex 16.982 44.117 -5
      vertex 22.498 44.125 5
      vertex 22.498 44.125 -5
    endloop
  endfacet
  facet normal -0.188718 0.982031 0
    outer loop
      vertex 13.891 43.523 5
      vertex 16.982 44.117 5
      vertex 13.891 43.523 -5
    endloop
  endfacet
  facet normal -0.188718 0.982031 0
    outer loop
      vertex 13.891 43.523 -5
      vertex 16.982 44.117 5
      vertex 16.982 44.117 -5
    endloop
  endfacet
  facet normal -0.355883 0.93453 0
    outer loop
      vertex 11.118 42.467 5
      vertex 13.891 43.523 5
      vertex 11.118 42.467 -5
    endloop
  endfacet
  facet normal -0.355883 0.93453 0
    outer loop
      vertex 11.118 42.467 -5
      vertex 13.891 43.523 5
      vertex 13.891 43.523 -5
    endloop
  endfacet
  facet normal -0.52268 0.852529 0
    outer loop
      vertex 8.567 40.903 5
      vertex 11.118 42.467 5
      vertex 8.567 40.903 -5
    endloop
  endfacet
  facet normal -0.52268 0.852529 0
    outer loop
      vertex 8.567 40.903 -5
      vertex 11.118 42.467 5
      vertex 11.118 42.467 -5
    endloop
  endfacet
  facet normal -0.658153 0.752884 0
    outer loop
      vertex 6.143 38.784 5
      vertex 8.567 40.903 5
      vertex 6.143 38.784 -5
    endloop
  endfacet
  facet normal -0.658153 0.752884 0
    outer loop
      vertex 6.143 38.784 -5
      vertex 8.567 40.903 5
      vertex 8.567 40.903 -5
    endloop
  endfacet
  facet normal -0.766402 0.642362 0
    outer loop
      vertex 3.911 36.121 5
      vertex 6.143 38.784 5
      vertex 3.911 36.121 -5
    endloop
  endfacet
  facet normal -0.766402 0.642362 0
    outer loop
      vertex 3.911 36.121 -5
      vertex 6.143 38.784 5
      vertex 6.143 38.784 -5
    endloop
  endfacet
  facet normal -0.872368 0.488849 0
    outer loop
      vertex 2.217 33.098 5
      vertex 3.911 36.121 5
      vertex 2.217 33.098 -5
    endloop
  endfacet
  facet normal -0.872368 0.488849 0
    outer loop
      vertex 2.217 33.098 -5
      vertex 3.911 36.121 5
      vertex 3.911 36.121 -5
    endloop
  endfacet
  facet normal -0.94446 0.328626 0
    outer loop
      vertex 1.003 29.609 5
      vertex 2.217 33.098 5
      vertex 1.003 29.609 -5
    endloop
  endfacet
  facet normal -0.94446 0.328626 0
    outer loop
      vertex 1.003 29.609 -5
      vertex 2.217 33.098 5
      vertex 2.217 33.098 -5
    endloop
  endfacet
  facet normal -0.981825 0.189789 0
    outer loop
      vertex 0.218 25.548 5
      vertex 1.003 29.609 5
      vertex 0.218 25.548 -5
    endloop
  endfacet
  facet normal -0.981825 0.189789 0
    outer loop
      vertex 0.218 25.548 -5
      vertex 1.003 29.609 5
      vertex 1.003 29.609 -5
    endloop
  endfacet
endsolid OpenSCAD_Model
