solid OpenSCAD_Model
  facet normal 0 1 0
    outer loop
      vertex 12.983 11.006 5
      vertex 41.205 11.006 5
      vertex 12.983 11.006 -5
    endloop
  endfacet
  facet normal 0 1 0
    outer loop
      vertex 12.983 11.006 -5
      vertex 41.205 11.006 5
      vertex 41.205 11.006 -5
    endloop
  endfacet
  facet normal 1 0 0
    outer loop
      vertex 12.983 11.006 -5
      vertex 12.983 58.138 -5
      vertex 12.983 58.138 5
    endloop
  endfacet
  facet normal 1 0 0
    outer loop
      vertex 12.983 11.006 5
      vertex 12.983 11.006 -5
      vertex 12.983 58.138 5
    endloop
  endfacet
  facet normal 0 0 -1
    outer loop
      vertex 0 58.138 -5
      vertex 12.983 58.138 -5
      vertex 0 0 -5
    endloop
  endfacet
  facet normal 0 0 -1
    outer loop
      vertex 0 0 -5
      vertex 12.983 58.138 -5
      vertex 12.983 11.006 -5
    endloop
  endfacet
  facet normal 0 0 -1
    outer loop
      vertex 0 0 -5
      vertex 12.983 11.006 -5
      vertex 41.205 11.006 -5
    endloop
  endfacet
  facet normal 0 0 -1
    outer loop
      vertex 0 0 -5
      vertex 41.205 11.006 -5
      vertex 41.205 0 -5
    endloop
  endfacet
  facet normal 1 0 0
    outer loop
      vertex 41.205 0 -5
      vertex 41.205 11.006 -5
      vertex 41.205 11.006 5
    endloop
  endfacet
  facet normal 1 0 0
    outer loop
      vertex 41.205 0 5
      vertex 41.205 0 -5
      vertex 41.205 11.006 5
    endloop
  endfacet
  facet normal 0 0 1
    outer loop
      vertex 0 0 5
      vertex 41.205 0 5
      vertex 41.205 11.006 5
    endloop
  endfacet
  facet normal 0 0 1
    outer loop
      vertex 12.983 58.138 5
      vertex 0 0 5
      vertex 12.983 11.006 5
    endloop
  endfacet
  facet normal 0 0 1
    outer loop
      vertex 12.983 11.006 5
      vertex 0 0 5
      vertex 41.205 11.006 5
    endloop
  endfacet
  facet normal 0 0 1
    outer loop
      vertex 0 58.138 5
      vertex 0 0 5
      vertex 12.983 58.138 5
    endloop
  endfacet
  facet normal 0 1 0
    outer loop
      vertex 0 58.138 5
      vertex 12.983 58.138 5
      vertex 0 58.138 -5
    endloop
  endfacet
  facet normal 0 1 0
    outer loop
      vertex 0 58.138 -5
      vertex 12.983 58.138 5
      vertex 12.983 58.138 -5
    endloop
  endfacet
  facet normal 0 -1 0
    outer loop
      vertex 0 0 -5
      vertex 41.205 0 -5
      vertex 41.205 0 5
    endloop
  endfacet
  facet normal 0 -1 0
    outer loop
      vertex 0 0 5
      vertex 0 0 -5
      vertex 41.205 0 5
    endloop
  endfacet
  facet normal -1 0 0
    outer loop
      vertex 0 0 5
      vertex 0 58.138 5
      vertex 0 0 -5
    endloop
  endfacet
  facet normal -1 0 0
    outer loop
      vertex 0 0 -5
      vertex 0 58.138 5
      vertex 0 58.138 -5
    endloop
  endfacet
endsolid OpenSCAD_Model
