solid OpenSCAD_Model
  facet normal -0.0358797 -0.999356 0
    outer loop
      vertex 0.548 0.034 -5
      vertex 1.495 0 -5
      vertex 1.495 0 5
    endloop
  endfacet
  facet normal -0.0358797 -0.999356 0
    outer loop
      vertex 0.548 0.034 5
      vertex 0.548 0.034 -5
      vertex 1.495 0 5
    endloop
  endfacet
  facet normal 0.0123608 -0.999924 0
    outer loop
      vertex 1.495 0 -5
      vertex 3.032 0.019 -5
      vertex 3.032 0.019 5
    endloop
  endfacet
  facet normal 0.0123608 -0.999924 0
    outer loop
      vertex 1.495 0 5
      vertex 1.495 0 -5
      vertex 3.032 0.019 5
    endloop
  endfacet
  facet normal 0 0 -1
    outer loop
      vertex 0.338 1.115 -5
      vertex 1.116 3.044 -5
      vertex 0.012 0.302 -5
    endloop
  endfacet
  facet normal 0 0 -1
    outer loop
      vertex 0.012 0.302 -5
      vertex 1.116 3.044 -5
      vertex 2.279 5.928 -5
    endloop
  endfacet
  facet normal 0 0 -1
    outer loop
      vertex 0.012 0.302 -5
      vertex 2.279 5.928 -5
      vertex 3.766 9.609 -5
    endloop
  endfacet
  facet normal 0 0 -1
    outer loop
      vertex 0.012 0.302 -5
      vertex 3.766 9.609 -5
      vertex 5.508 13.925 -5
    endloop
  endfacet
  facet normal 0 0 -1
    outer loop
      vertex 0.012 0.302 -5
      vertex 5.508 13.925 -5
      vertex 7.443 18.717 -5
    endloop
  endfacet
  facet normal 0 0 -1
    outer loop
      vertex 0.012 0.302 -5
      vertex 7.443 18.717 -5
      vertex 9.504 23.822 -5
    endloop
  endfacet
  facet normal 0 0 -1
    outer loop
      vertex 0.012 0.302 -5
      vertex 9.504 23.822 -5
      vertex 11.629 29.082 -5
    endloop
  endfacet
  facet normal 0 0 -1
    outer loop
      vertex 11.629 29.082 -5
      vertex 13.75 34.337 -5
      vertex 15.805 39.424 -5
    endloop
  endfacet
  facet normal 0 0 -1
    outer loop
      vertex 11.629 29.082 -5
      vertex 15.805 39.424 -5
      vertex 0.012 0.302 -5
    endloop
  endfacet
  facet normal 0 0 -1
    outer loop
      vertex 0.012 0.302 -5
      vertex 15.805 39.424 -5
      vertex 17.729 44.185 -5
    endloop
  endfacet
  facet normal 0 0 -1
    outer loop
      vertex 17.729 44.185 -5
      vertex 19.454 48.459 -5
      vertex 20.919 52.086 -5
    endloop
  endfacet
  facet normal 0 0 -1
    outer loop
      vertex 17.729 44.185 -5
      vertex 20.919 52.086 -5
      vertex 0.012 0.302 -5
    endloop
  endfacet
  facet normal 0 0 -1
    outer loop
      vertex 20.919 52.086 -5
      vertex 22.057 54.905 -5
      vertex 22.805 56.757 -5
    endloop
  endfacet
  facet normal 0 0 -1
    outer loop
      vertex 20.919 52.086 -5
      vertex 22.805 56.757 -5
      vertex 0.012 0.302 -5
    endloop
  endfacet
  facet normal 0 0 -1
    outer loop
      vertex 0.012 0.302 -5
      vertex 22.805 56.757 -5
      vertex 23.097 57.48 -5
    endloop
  endfacet
  facet normal 0 0 -1
    outer loop
      vertex 0.012 0.302 -5
      vertex 23.097 57.48 -5
      vertex 23.301 57.828 -5
    endloop
  endfacet
  facet normal 0 0 -1
    outer loop
      vertex 0.012 0.302 -5
      vertex 23.301 57.828 -5
      vertex 23.757 58.014 -5
    endloop
  endfacet
  facet normal 0 0 -1
    outer loop
      vertex 0.012 0.302 -5
      vertex 23.757 58.014 -5
      vertex 24.736 58.088 -5
    endloop
  endfacet
  facet normal 0 0 -1
    outer loop
      vertex 0.012 0.302 -5
      vertex 24.736 58.088 -5
      vertex 26.513 58.101 -5
    endloop
  endfacet
  facet normal 0 0 -1
    outer loop
      vertex 26.315 51.581 -5
      vertex 26.513 58.101 -5
      vertex 29.702 58.101 -5
    endloop
  endfacet
  facet normal 0 0 -1
    outer loop
      vertex 35.562 27.142 -5
      vertex 29.702 58.101 -5
      vertex 40.991 29.286 -5
    endloop
  endfacet
  facet normal 0 0 -1
    outer loop
      vertex 36.978 23.21 -5
      vertex 40.991 29.286 -5
      vertex 43.261 23.49 -5
    endloop
  endfacet
  facet normal 0 0 -1
    outer loop
      vertex 39.1 18.025 -5
      vertex 43.261 23.49 -5
      vertex 45.383 18.073 -5
    endloop
  endfacet
  facet normal 0 0 -1
    outer loop
      vertex 41.555 11.76 -5
      vertex 45.383 18.073 -5
      vertex 47.309 13.155 -5
    endloop
  endfacet
  facet normal 0 0 -1
    outer loop
      vertex 42.598 9.101 -5
      vertex 47.309 13.155 -5
      vertex 48.995 8.854 -5
    endloop
  endfacet
  facet normal 0 0 -1
    outer loop
      vertex 43.615 6.522 -5
      vertex 48.995 8.854 -5
      vertex 50.389 5.289 -5
    endloop
  endfacet
  facet normal 0 0 -1
    outer loop
      vertex 45.083 2.785 -5
      vertex 50.389 5.289 -5
      vertex 51.448 2.577 -5
    endloop
  endfacet
  facet normal 0 0 -1
    outer loop
      vertex 13.108 17.884 -5
      vertex 30.248 22.864 -5
      vertex 26.118 17.968 -5
    endloop
  endfacet
  facet normal 0 0 -1
    outer loop
      vertex 46.156 0.105 -5
      vertex 52.168 0.099 -5
      vertex 51.548 0.041 -5
    endloop
  endfacet
  facet normal 0 0 -1
    outer loop
      vertex 45.083 2.785 -5
      vertex 52.122 0.838 -5
      vertex 52.364 0.189 -5
    endloop
  endfacet
  facet normal 0 0 -1
    outer loop
      vertex 45.083 2.785 -5
      vertex 52.364 0.189 -5
      vertex 52.168 0.099 -5
    endloop
  endfacet
  facet normal 0 0 -1
    outer loop
      vertex 45.083 2.785 -5
      vertex 51.448 2.577 -5
      vertex 52.122 0.838 -5
    endloop
  endfacet
  facet normal 0 0 -1
    outer loop
      vertex 44.483 4.319 -5
      vertex 50.389 5.289 -5
      vertex 45.083 2.785 -5
    endloop
  endfacet
  facet normal 0 0 -1
    outer loop
      vertex 43.615 6.522 -5
      vertex 50.389 5.289 -5
      vertex 44.483 4.319 -5
    endloop
  endfacet
  facet normal 0 0 -1
    outer loop
      vertex 42.598 9.101 -5
      vertex 48.995 8.854 -5
      vertex 43.615 6.522 -5
    endloop
  endfacet
  facet normal 0 0 -1
    outer loop
      vertex 41.555 11.76 -5
      vertex 47.309 13.155 -5
      vertex 42.598 9.101 -5
    endloop
  endfacet
  facet normal 0 0 -1
    outer loop
      vertex 39.1 18.025 -5
      vertex 45.383 18.073 -5
      vertex 41.555 11.76 -5
    endloop
  endfacet
  facet normal 0 0 -1
    outer loop
      vertex 26.118 17.968 -5
      vertex 43.261 23.49 -5
      vertex 39.1 18.025 -5
    endloop
  endfacet
  facet normal 0 0 -1
    outer loop
      vertex 13.108 17.884 -5
      vertex 25.976 22.88 -5
      vertex 30.248 22.864 -5
    endloop
  endfacet
  facet normal 0 0 -1
    outer loop
      vertex 33.765 22.862 -5
      vertex 26.118 17.968 -5
      vertex 30.248 22.864 -5
    endloop
  endfacet
  facet normal 0 0 -1
    outer loop
      vertex 25.976 22.88 -5
      vertex 13.108 17.884 -5
      vertex 14.942 22.964 -5
    endloop
  endfacet
  facet normal 0 0 -1
    outer loop
      vertex 6.22 0.105 -5
      vertex 3.032 0.019 -5
      vertex 0.012 0.302 -5
    endloop
  endfacet
  facet normal 0 0 -1
    outer loop
      vertex 0.012 0.302 -5
      vertex 3.032 0.019 -5
      vertex 1.495 0 -5
    endloop
  endfacet
  facet normal 0 0 -1
    outer loop
      vertex 0.012 0.302 -5
      vertex 1.495 0 -5
      vertex 0.548 0.034 -5
    endloop
  endfacet
  facet normal 0 0 -1
    outer loop
      vertex 0.012 0.302 -5
      vertex 0.548 0.034 -5
      vertex 0.087 0.131 -5
    endloop
  endfacet
  facet normal 0 0 -1
    outer loop
      vertex 26.315 51.581 -5
      vertex 29.702 58.101 -5
      vertex 26.445 51.27 -5
    endloop
  endfacet
  facet normal 0 0 -1
    outer loop
      vertex 0.012 0.302 -5
      vertex 14.942 22.964 -5
      vertex 13.108 17.884 -5
    endloop
  endfacet
  facet normal 0 0 -1
    outer loop
      vertex 6.22 0.105 -5
      vertex 0.012 0.302 -5
      vertex 13.108 17.884 -5
    endloop
  endfacet
  facet normal 0 0 -1
    outer loop
      vertex 35.562 27.142 -5
      vertex 40.991 29.286 -5
      vertex 36.204 25.386 -5
    endloop
  endfacet
  facet normal 0 0 -1
    outer loop
      vertex 26.118 17.968 -5
      vertex 33.765 22.862 -5
      vertex 36.16 22.876 -5
    endloop
  endfacet
  facet normal 0 0 -1
    outer loop
      vertex 26.118 17.968 -5
      vertex 36.16 22.876 -5
      vertex 37.068 22.907 -5
    endloop
  endfacet
  facet normal 0 0 -1
    outer loop
      vertex 26.118 17.968 -5
      vertex 37.068 22.907 -5
      vertex 43.261 23.49 -5
    endloop
  endfacet
  facet normal 0 0 -1
    outer loop
      vertex 36.683 24.056 -5
      vertex 40.991 29.286 -5
      vertex 36.978 23.21 -5
    endloop
  endfacet
  facet normal 0 0 -1
    outer loop
      vertex 36.204 25.386 -5
      vertex 40.991 29.286 -5
      vertex 36.683 24.056 -5
    endloop
  endfacet
  facet normal 0 0 -1
    outer loop
      vertex 36.978 23.21 -5
      vertex 43.261 23.49 -5
      vertex 37.068 22.907 -5
    endloop
  endfacet
  facet normal 0 0 -1
    outer loop
      vertex 34.776 29.261 -5
      vertex 29.702 58.101 -5
      vertex 35.562 27.142 -5
    endloop
  endfacet
  facet normal 0 0 -1
    outer loop
      vertex 33.872 31.688 -5
      vertex 29.702 58.101 -5
      vertex 34.776 29.261 -5
    endloop
  endfacet
  facet normal 0 0 -1
    outer loop
      vertex 32.869 34.359 -5
      vertex 29.702 58.101 -5
      vertex 33.872 31.688 -5
    endloop
  endfacet
  facet normal 0 0 -1
    outer loop
      vertex 31.79 37.217 -5
      vertex 29.702 58.101 -5
      vertex 32.869 34.359 -5
    endloop
  endfacet
  facet normal 0 0 -1
    outer loop
      vertex 30.706 40.084 -5
      vertex 29.702 58.101 -5
      vertex 31.79 37.217 -5
    endloop
  endfacet
  facet normal 0 0 -1
    outer loop
      vertex 29.691 42.763 -5
      vertex 29.702 58.101 -5
      vertex 30.706 40.084 -5
    endloop
  endfacet
  facet normal 0 0 -1
    outer loop
      vertex 28.769 45.195 -5
      vertex 29.702 58.101 -5
      vertex 29.691 42.763 -5
    endloop
  endfacet
  facet normal 0 0 -1
    outer loop
      vertex 27.962 47.321 -5
      vertex 29.702 58.101 -5
      vertex 28.769 45.195 -5
    endloop
  endfacet
  facet normal 0 0 -1
    outer loop
      vertex 27.291 49.08 -5
      vertex 29.702 58.101 -5
      vertex 27.962 47.321 -5
    endloop
  endfacet
  facet normal 0 0 -1
    outer loop
      vertex 26.777 50.417 -5
      vertex 29.702 58.101 -5
      vertex 27.291 49.08 -5
    endloop
  endfacet
  facet normal 0 0 -1
    outer loop
      vertex 26.033 51.299 -5
      vertex 26.513 58.101 -5
      vertex 26.315 51.581 -5
    endloop
  endfacet
  facet normal 0 0 -1
    outer loop
      vertex 25.543 50.039 -5
      vertex 0.012 0.302 -5
      vertex 25.891 50.932 -5
    endloop
  endfacet
  facet normal 0 0 -1
    outer loop
      vertex 0.012 0.302 -5
      vertex 26.513 58.101 -5
      vertex 26.033 51.299 -5
    endloop
  endfacet
  facet normal 0 0 -1
    outer loop
      vertex 0.012 0.302 -5
      vertex 26.033 51.299 -5
      vertex 25.891 50.932 -5
    endloop
  endfacet
  facet normal 0 0 -1
    outer loop
      vertex 24.325 46.911 -5
      vertex 0.012 0.302 -5
      vertex 25.014 48.679 -5
    endloop
  endfacet
  facet normal 0 0 -1
    outer loop
      vertex 20.417 36.934 -5
      vertex 23.498 44.795 -5
      vertex 21.521 39.747 -5
    endloop
  endfacet
  facet normal 0 0 -1
    outer loop
      vertex 0.012 0.302 -5
      vertex 24.325 46.911 -5
      vertex 14.942 22.964 -5
    endloop
  endfacet
  facet normal 0 0 -1
    outer loop
      vertex 23.498 44.795 -5
      vertex 22.556 42.386 -5
      vertex 21.521 39.747 -5
    endloop
  endfacet
  facet normal 0 0 -1
    outer loop
      vertex 24.325 46.911 -5
      vertex 23.498 44.795 -5
      vertex 20.417 36.934 -5
    endloop
  endfacet
  facet normal 0 0 -1
    outer loop
      vertex 24.325 46.911 -5
      vertex 20.417 36.934 -5
      vertex 14.942 22.964 -5
    endloop
  endfacet
  facet normal 0 0 -1
    outer loop
      vertex 46.156 0.105 -5
      vertex 51.548 0.041 -5
      vertex 50.574 0.015 -5
    endloop
  endfacet
  facet normal 0 0 -1
    outer loop
      vertex 46.156 0.105 -5
      vertex 50.574 0.015 -5
      vertex 49.316 0.019 -5
    endloop
  endfacet
  facet normal 0 0 -1
    outer loop
      vertex 25.014 48.679 -5
      vertex 0.012 0.302 -5
      vertex 25.543 50.039 -5
    endloop
  endfacet
  facet normal 0 0 -1
    outer loop
      vertex 45.083 2.785 -5
      vertex 52.168 0.099 -5
      vertex 46.156 0.105 -5
    endloop
  endfacet
  facet normal 0 0 -1
    outer loop
      vertex 26.445 51.27 -5
      vertex 29.702 58.101 -5
      vertex 26.777 50.417 -5
    endloop
  endfacet
  facet normal -0.205903 -0.978572 0
    outer loop
      vertex 0.087 0.131 -5
      vertex 0.548 0.034 -5
      vertex 0.548 0.034 5
    endloop
  endfacet
  facet normal -0.205903 -0.978572 0
    outer loop
      vertex 0.087 0.131 5
      vertex 0.087 0.131 -5
      vertex 0.548 0.034 5
    endloop
  endfacet
  facet normal 0 0 1
    outer loop
      vertex 0.012 0.302 5
      vertex 0.087 0.131 5
      vertex 0.548 0.034 5
    endloop
  endfacet
  facet normal 0 0 1
    outer loop
      vertex 3.032 0.019 5
      vertex 0.012 0.302 5
      vertex 1.495 0 5
    endloop
  endfacet
  facet normal 0 0 1
    outer loop
      vertex 1.495 0 5
      vertex 0.012 0.302 5
      vertex 0.548 0.034 5
    endloop
  endfacet
  facet normal 0 0 1
    outer loop
      vertex 6.22 0.105 5
      vertex 0.012 0.302 5
      vertex 3.032 0.019 5
    endloop
  endfacet
  facet normal 0 0 1
    outer loop
      vertex 13.108 17.884 5
      vertex 0.012 0.302 5
      vertex 6.22 0.105 5
    endloop
  endfacet
  facet normal 0 0 1
    outer loop
      vertex 14.942 22.964 5
      vertex 0.012 0.302 5
      vertex 13.108 17.884 5
    endloop
  endfacet
  facet normal 0 0 1
    outer loop
      vertex 43.261 23.49 5
      vertex 13.108 17.884 5
      vertex 26.118 17.968 5
    endloop
  endfacet
  facet normal 0 0 1
    outer loop
      vertex 45.383 18.073 5
      vertex 26.118 17.968 5
      vertex 39.1 18.025 5
    endloop
  endfacet
  facet normal 0 0 1
    outer loop
      vertex 42.598 9.101 5
      vertex 39.1 18.025 5
      vertex 41.555 11.76 5
    endloop
  endfacet
  facet normal 0 0 1
    outer loop
      vertex 43.615 6.522 5
      vertex 39.1 18.025 5
      vertex 42.598 9.101 5
    endloop
  endfacet
  facet normal 0 0 1
    outer loop
      vertex 44.483 4.319 5
      vertex 39.1 18.025 5
      vertex 43.615 6.522 5
    endloop
  endfacet
  facet normal 0 0 1
    outer loop
      vertex 46.156 0.105 5
      vertex 39.1 18.025 5
      vertex 44.483 4.319 5
    endloop
  endfacet
  facet normal 0 0 1
    outer loop
      vertex 46.156 0.105 5
      vertex 44.483 4.319 5
      vertex 45.083 2.785 5
    endloop
  endfacet
  facet normal 0 0 1
    outer loop
      vertex 49.316 0.019 5
      vertex 39.1 18.025 5
      vertex 46.156 0.105 5
    endloop
  endfacet
  facet normal 0 0 1
    outer loop
      vertex 50.574 0.015 5
      vertex 39.1 18.025 5
      vertex 49.316 0.019 5
    endloop
  endfacet
  facet normal 0 0 1
    outer loop
      vertex 51.548 0.041 5
      vertex 39.1 18.025 5
      vertex 50.574 0.015 5
    endloop
  endfacet
  facet normal 0 0 1
    outer loop
      vertex 52.168 0.099 5
      vertex 39.1 18.025 5
      vertex 51.548 0.041 5
    endloop
  endfacet
  facet normal 0 0 1
    outer loop
      vertex 52.364 0.189 5
      vertex 39.1 18.025 5
      vertex 52.168 0.099 5
    endloop
  endfacet
  facet normal 0 0 1
    outer loop
      vertex 52.122 0.838 5
      vertex 39.1 18.025 5
      vertex 52.364 0.189 5
    endloop
  endfacet
  facet normal 0 0 1
    outer loop
      vertex 51.448 2.577 5
      vertex 39.1 18.025 5
      vertex 52.122 0.838 5
    endloop
  endfacet
  facet normal 0 0 1
    outer loop
      vertex 50.389 5.289 5
      vertex 39.1 18.025 5
      vertex 51.448 2.577 5
    endloop
  endfacet
  facet normal 0 0 1
    outer loop
      vertex 48.995 8.854 5
      vertex 39.1 18.025 5
      vertex 50.389 5.289 5
    endloop
  endfacet
  facet normal 0 0 1
    outer loop
      vertex 47.309 13.155 5
      vertex 39.1 18.025 5
      vertex 48.995 8.854 5
    endloop
  endfacet
  facet normal 0 0 1
    outer loop
      vertex 45.383 18.073 5
      vertex 39.1 18.025 5
      vertex 47.309 13.155 5
    endloop
  endfacet
  facet normal 0 0 1
    outer loop
      vertex 43.261 23.49 5
      vertex 26.118 17.968 5
      vertex 45.383 18.073 5
    endloop
  endfacet
  facet normal 0 0 1
    outer loop
      vertex 37.068 22.907 5
      vertex 13.108 17.884 5
      vertex 43.261 23.49 5
    endloop
  endfacet
  facet normal 0 0 1
    outer loop
      vertex 24.736 58.088 5
      vertex 0.012 0.302 5
      vertex 26.513 58.101 5
    endloop
  endfacet
  facet normal 0 0 1
    outer loop
      vertex 23.757 58.014 5
      vertex 0.012 0.302 5
      vertex 24.736 58.088 5
    endloop
  endfacet
  facet normal 0 0 1
    outer loop
      vertex 23.301 57.828 5
      vertex 0.012 0.302 5
      vertex 23.757 58.014 5
    endloop
  endfacet
  facet normal 0 0 1
    outer loop
      vertex 23.097 57.48 5
      vertex 0.012 0.302 5
      vertex 23.301 57.828 5
    endloop
  endfacet
  facet normal 0 0 1
    outer loop
      vertex 22.805 56.757 5
      vertex 0.012 0.302 5
      vertex 23.097 57.48 5
    endloop
  endfacet
  facet normal 0 0 1
    outer loop
      vertex 20.919 52.086 5
      vertex 0.012 0.302 5
      vertex 22.805 56.757 5
    endloop
  endfacet
  facet normal 0 0 1
    outer loop
      vertex 22.057 54.905 5
      vertex 20.919 52.086 5
      vertex 22.805 56.757 5
    endloop
  endfacet
  facet normal 0 0 1
    outer loop
      vertex 17.729 44.185 5
      vertex 0.012 0.302 5
      vertex 20.919 52.086 5
    endloop
  endfacet
  facet normal 0 0 1
    outer loop
      vertex 17.729 44.185 5
      vertex 15.805 39.424 5
      vertex 0.012 0.302 5
    endloop
  endfacet
  facet normal 0 0 1
    outer loop
      vertex 11.629 29.082 5
      vertex 0.012 0.302 5
      vertex 15.805 39.424 5
    endloop
  endfacet
  facet normal 0 0 1
    outer loop
      vertex 13.75 34.337 5
      vertex 11.629 29.082 5
      vertex 15.805 39.424 5
    endloop
  endfacet
  facet normal 0 0 1
    outer loop
      vertex 7.443 18.717 5
      vertex 0.012 0.302 5
      vertex 9.504 23.822 5
    endloop
  endfacet
  facet normal 0 0 1
    outer loop
      vertex 5.508 13.925 5
      vertex 0.012 0.302 5
      vertex 7.443 18.717 5
    endloop
  endfacet
  facet normal 0 0 1
    outer loop
      vertex 3.766 9.609 5
      vertex 0.012 0.302 5
      vertex 5.508 13.925 5
    endloop
  endfacet
  facet normal 0 0 1
    outer loop
      vertex 2.279 5.928 5
      vertex 0.012 0.302 5
      vertex 3.766 9.609 5
    endloop
  endfacet
  facet normal 0 0 1
    outer loop
      vertex 1.116 3.044 5
      vertex 0.012 0.302 5
      vertex 2.279 5.928 5
    endloop
  endfacet
  facet normal 0 0 1
    outer loop
      vertex 0.338 1.115 5
      vertex 0.012 0.302 5
      vertex 1.116 3.044 5
    endloop
  endfacet
  facet normal 0 0 1
    outer loop
      vertex 20.417 36.934 5
      vertex 0.012 0.302 5
      vertex 14.942 22.964 5
    endloop
  endfacet
  facet normal 0 0 1
    outer loop
      vertex 35.562 27.142 5
      vertex 36.204 25.386 5
      vertex 40.991 29.286 5
    endloop
  endfacet
  facet normal 0 0 1
    outer loop
      vertex 21.521 39.747 5
      vertex 0.012 0.302 5
      vertex 20.417 36.934 5
    endloop
  endfacet
  facet normal 0 0 1
    outer loop
      vertex 22.556 42.386 5
      vertex 0.012 0.302 5
      vertex 21.521 39.747 5
    endloop
  endfacet
  facet normal 0 0 1
    outer loop
      vertex 23.498 44.795 5
      vertex 0.012 0.302 5
      vertex 22.556 42.386 5
    endloop
  endfacet
  facet normal 0 0 1
    outer loop
      vertex 24.325 46.911 5
      vertex 0.012 0.302 5
      vertex 23.498 44.795 5
    endloop
  endfacet
  facet normal 0 0 1
    outer loop
      vertex 25.014 48.679 5
      vertex 0.012 0.302 5
      vertex 24.325 46.911 5
    endloop
  endfacet
  facet normal 0 0 1
    outer loop
      vertex 26.033 51.299 5
      vertex 26.315 51.581 5
      vertex 29.702 58.101 5
    endloop
  endfacet
  facet normal 0 0 1
    outer loop
      vertex 26.513 58.101 5
      vertex 0.012 0.302 5
      vertex 25.543 50.039 5
    endloop
  endfacet
  facet normal 0 0 1
    outer loop
      vertex 26.513 58.101 5
      vertex 25.543 50.039 5
      vertex 25.891 50.932 5
    endloop
  endfacet
  facet normal 0 0 1
    outer loop
      vertex 26.513 58.101 5
      vertex 26.033 51.299 5
      vertex 29.702 58.101 5
    endloop
  endfacet
  facet normal 0 0 1
    outer loop
      vertex 26.513 58.101 5
      vertex 25.891 50.932 5
      vertex 26.033 51.299 5
    endloop
  endfacet
  facet normal 0 0 1
    outer loop
      vertex 29.702 58.101 5
      vertex 26.777 50.417 5
      vertex 40.991 29.286 5
    endloop
  endfacet
  facet normal 0 0 1
    outer loop
      vertex 25.014 48.679 5
      vertex 25.543 50.039 5
      vertex 0.012 0.302 5
    endloop
  endfacet
  facet normal 0 0 1
    outer loop
      vertex 26.777 50.417 5
      vertex 27.291 49.08 5
      vertex 40.991 29.286 5
    endloop
  endfacet
  facet normal 0 0 1
    outer loop
      vertex 27.291 49.08 5
      vertex 27.962 47.321 5
      vertex 40.991 29.286 5
    endloop
  endfacet
  facet normal 0 0 1
    outer loop
      vertex 26.315 51.581 5
      vertex 26.445 51.27 5
      vertex 29.702 58.101 5
    endloop
  endfacet
  facet normal 0 0 1
    outer loop
      vertex 27.962 47.321 5
      vertex 28.769 45.195 5
      vertex 40.991 29.286 5
    endloop
  endfacet
  facet normal 0 0 1
    outer loop
      vertex 28.769 45.195 5
      vertex 29.691 42.763 5
      vertex 40.991 29.286 5
    endloop
  endfacet
  facet normal 0 0 1
    outer loop
      vertex 26.445 51.27 5
      vertex 26.777 50.417 5
      vertex 29.702 58.101 5
    endloop
  endfacet
  facet normal 0 0 1
    outer loop
      vertex 29.691 42.763 5
      vertex 30.706 40.084 5
      vertex 40.991 29.286 5
    endloop
  endfacet
  facet normal 0 0 1
    outer loop
      vertex 30.706 40.084 5
      vertex 31.79 37.217 5
      vertex 40.991 29.286 5
    endloop
  endfacet
  facet normal 0 0 1
    outer loop
      vertex 31.79 37.217 5
      vertex 32.869 34.359 5
      vertex 40.991 29.286 5
    endloop
  endfacet
  facet normal 0 0 1
    outer loop
      vertex 32.869 34.359 5
      vertex 33.872 31.688 5
      vertex 40.991 29.286 5
    endloop
  endfacet
  facet normal 0 0 1
    outer loop
      vertex 33.872 31.688 5
      vertex 34.776 29.261 5
      vertex 40.991 29.286 5
    endloop
  endfacet
  facet normal 0 0 1
    outer loop
      vertex 34.776 29.261 5
      vertex 35.562 27.142 5
      vertex 40.991 29.286 5
    endloop
  endfacet
  facet normal 0 0 1
    outer loop
      vertex 40.991 29.286 5
      vertex 36.204 25.386 5
      vertex 43.261 23.49 5
    endloop
  endfacet
  facet normal 0 0 1
    outer loop
      vertex 36.204 25.386 5
      vertex 36.683 24.056 5
      vertex 43.261 23.49 5
    endloop
  endfacet
  facet normal 0 0 1
    outer loop
      vertex 36.683 24.056 5
      vertex 36.978 23.21 5
      vertex 43.261 23.49 5
    endloop
  endfacet
  facet normal 0 0 1
    outer loop
      vertex 36.978 23.21 5
      vertex 37.068 22.907 5
      vertex 43.261 23.49 5
    endloop
  endfacet
  facet normal 0 0 1
    outer loop
      vertex 36.16 22.876 5
      vertex 13.108 17.884 5
      vertex 37.068 22.907 5
    endloop
  endfacet
  facet normal 0 0 1
    outer loop
      vertex 33.765 22.862 5
      vertex 30.248 22.864 5
      vertex 13.108 17.884 5
    endloop
  endfacet
  facet normal 0 0 1
    outer loop
      vertex 30.248 22.864 5
      vertex 25.976 22.88 5
      vertex 13.108 17.884 5
    endloop
  endfacet
  facet normal 0 0 1
    outer loop
      vertex 11.629 29.082 5
      vertex 9.504 23.822 5
      vertex 0.012 0.302 5
    endloop
  endfacet
  facet normal 0 0 1
    outer loop
      vertex 20.919 52.086 5
      vertex 19.454 48.459 5
      vertex 17.729 44.185 5
    endloop
  endfacet
  facet normal 0 0 1
    outer loop
      vertex 36.16 22.876 5
      vertex 33.765 22.862 5
      vertex 13.108 17.884 5
    endloop
  endfacet
  facet normal 0 0 1
    outer loop
      vertex 25.976 22.88 5
      vertex 14.942 22.964 5
      vertex 13.108 17.884 5
    endloop
  endfacet
  facet normal 0.0269664 -0.999636 0
    outer loop
      vertex 3.032 0.019 -5
      vertex 6.22 0.105 -5
      vertex 6.22 0.105 5
    endloop
  endfacet
  facet normal 0.0269664 -0.999636 0
    outer loop
      vertex 3.032 0.019 5
      vertex 3.032 0.019 -5
      vertex 6.22 0.105 5
    endloop
  endfacet
  facet normal -0.915788 -0.401661 0
    outer loop
      vertex 0.087 0.131 -5
      vertex 0.087 0.131 5
      vertex 0.012 0.302 -5
    endloop
  endfacet
  facet normal -0.915788 -0.401661 0
    outer loop
      vertex 0.012 0.302 -5
      vertex 0.087 0.131 5
      vertex 0.012 0.302 5
    endloop
  endfacet
  facet normal -0.928161 0.372178 0
    outer loop
      vertex 0.012 0.302 5
      vertex 0.338 1.115 5
      vertex 0.012 0.302 -5
    endloop
  endfacet
  facet normal -0.928161 0.372178 0
    outer loop
      vertex 0.012 0.302 -5
      vertex 0.338 1.115 5
      vertex 0.338 1.115 -5
    endloop
  endfacet
  facet normal 0.932466 -0.361259 0
    outer loop
      vertex 6.22 0.105 -5
      vertex 13.108 17.884 -5
      vertex 13.108 17.884 5
    endloop
  endfacet
  facet normal 0.932466 -0.361259 0
    outer loop
      vertex 6.22 0.105 5
      vertex 6.22 0.105 -5
      vertex 13.108 17.884 5
    endloop
  endfacet
  facet normal 0.00645644 -0.999979 0
    outer loop
      vertex 13.108 17.884 -5
      vertex 26.118 17.968 -5
      vertex 26.118 17.968 5
    endloop
  endfacet
  facet normal 0.00645644 -0.999979 0
    outer loop
      vertex 13.108 17.884 5
      vertex 13.108 17.884 -5
      vertex 26.118 17.968 5
    endloop
  endfacet
  facet normal 0.00439065 -0.99999 0
    outer loop
      vertex 26.118 17.968 -5
      vertex 39.1 18.025 -5
      vertex 39.1 18.025 5
    endloop
  endfacet
  facet normal 0.00439065 -0.99999 0
    outer loop
      vertex 26.118 17.968 5
      vertex 26.118 17.968 -5
      vertex 39.1 18.025 5
    endloop
  endfacet
  facet normal -0.931067 -0.364848 0
    outer loop
      vertex 41.555 11.76 -5
      vertex 41.555 11.76 5
      vertex 39.1 18.025 -5
    endloop
  endfacet
  facet normal -0.931067 -0.364848 0
    outer loop
      vertex 39.1 18.025 -5
      vertex 41.555 11.76 5
      vertex 39.1 18.025 5
    endloop
  endfacet
  facet normal -0.930943 -0.365165 0
    outer loop
      vertex 42.598 9.101 -5
      vertex 42.598 9.101 5
      vertex 41.555 11.76 -5
    endloop
  endfacet
  facet normal -0.930943 -0.365165 0
    outer loop
      vertex 41.555 11.76 -5
      vertex 42.598 9.101 5
      vertex 41.555 11.76 5
    endloop
  endfacet
  facet normal -0.930282 -0.366846 0
    outer loop
      vertex 43.615 6.522 -5
      vertex 43.615 6.522 5
      vertex 42.598 9.101 -5
    endloop
  endfacet
  facet normal -0.930282 -0.366846 0
    outer loop
      vertex 42.598 9.101 -5
      vertex 43.615 6.522 5
      vertex 42.598 9.101 5
    endloop
  endfacet
  facet normal -0.930387 -0.36658 0
    outer loop
      vertex 44.483 4.319 -5
      vertex 44.483 4.319 5
      vertex 43.615 6.522 -5
    endloop
  endfacet
  facet normal -0.930387 -0.36658 0
    outer loop
      vertex 43.615 6.522 -5
      vertex 44.483 4.319 5
      vertex 43.615 6.522 5
    endloop
  endfacet
  facet normal -0.931297 -0.364262 0
    outer loop
      vertex 45.083 2.785 -5
      vertex 45.083 2.785 5
      vertex 44.483 4.319 -5
    endloop
  endfacet
  facet normal -0.931297 -0.364262 0
    outer loop
      vertex 44.483 4.319 -5
      vertex 45.083 2.785 5
      vertex 44.483 4.319 5
    endloop
  endfacet
  facet normal -0.928357 -0.371689 0
    outer loop
      vertex 46.156 0.105 -5
      vertex 46.156 0.105 5
      vertex 45.083 2.785 -5
    endloop
  endfacet
  facet normal -0.928357 -0.371689 0
    outer loop
      vertex 45.083 2.785 -5
      vertex 46.156 0.105 5
      vertex 45.083 2.785 5
    endloop
  endfacet
  facet normal -0.0272051 -0.99963 0
    outer loop
      vertex 46.156 0.105 -5
      vertex 49.316 0.019 -5
      vertex 49.316 0.019 5
    endloop
  endfacet
  facet normal -0.0272051 -0.99963 0
    outer loop
      vertex 46.156 0.105 5
      vertex 46.156 0.105 -5
      vertex 49.316 0.019 5
    endloop
  endfacet
  facet normal -0.00317963 -0.999995 0
    outer loop
      vertex 49.316 0.019 -5
      vertex 50.574 0.015 -5
      vertex 50.574 0.015 5
    endloop
  endfacet
  facet normal -0.00317963 -0.999995 0
    outer loop
      vertex 49.316 0.019 5
      vertex 49.316 0.019 -5
      vertex 50.574 0.015 5
    endloop
  endfacet
  facet normal 0.0266845 -0.999644 0
    outer loop
      vertex 50.574 0.015 -5
      vertex 51.548 0.041 -5
      vertex 51.548 0.041 5
    endloop
  endfacet
  facet normal 0.0266845 -0.999644 0
    outer loop
      vertex 50.574 0.015 5
      vertex 50.574 0.015 -5
      vertex 51.548 0.041 5
    endloop
  endfacet
  facet normal 0.0931417 -0.995653 0
    outer loop
      vertex 51.548 0.041 -5
      vertex 52.168 0.099 -5
      vertex 52.168 0.099 5
    endloop
  endfacet
  facet normal 0.0931417 -0.995653 0
    outer loop
      vertex 51.548 0.041 5
      vertex 51.548 0.041 -5
      vertex 52.168 0.099 5
    endloop
  endfacet
  facet normal 0.417293 -0.908772 0
    outer loop
      vertex 52.168 0.099 -5
      vertex 52.364 0.189 -5
      vertex 52.364 0.189 5
    endloop
  endfacet
  facet normal 0.417293 -0.908772 0
    outer loop
      vertex 52.168 0.099 5
      vertex 52.168 0.099 -5
      vertex 52.364 0.189 5
    endloop
  endfacet
  facet normal 0.93698 0.349382 0
    outer loop
      vertex 52.122 0.838 -5
      vertex 52.122 0.838 5
      vertex 52.364 0.189 5
    endloop
  endfacet
  facet normal 0.93698 0.349382 0
    outer loop
      vertex 52.364 0.189 -5
      vertex 52.122 0.838 -5
      vertex 52.364 0.189 5
    endloop
  endfacet
  facet normal 0.932417 0.361385 0
    outer loop
      vertex 51.448 2.577 -5
      vertex 51.448 2.577 5
      vertex 52.122 0.838 5
    endloop
  endfacet
  facet normal 0.932417 0.361385 0
    outer loop
      vertex 52.122 0.838 -5
      vertex 51.448 2.577 -5
      vertex 52.122 0.838 5
    endloop
  endfacet
  facet normal 0.931501 0.363739 0
    outer loop
      vertex 50.389 5.289 -5
      vertex 50.389 5.289 5
      vertex 51.448 2.577 5
    endloop
  endfacet
  facet normal 0.931501 0.363739 0
    outer loop
      vertex 51.448 2.577 -5
      vertex 50.389 5.289 -5
      vertex 51.448 2.577 5
    endloop
  endfacet
  facet normal 0.931331 0.364173 0
    outer loop
      vertex 48.995 8.854 -5
      vertex 48.995 8.854 5
      vertex 50.389 5.289 5
    endloop
  endfacet
  facet normal 0.931331 0.364173 0
    outer loop
      vertex 50.389 5.289 -5
      vertex 48.995 8.854 -5
      vertex 50.389 5.289 5
    endloop
  endfacet
  facet normal 0.931022 0.364962 0
    outer loop
      vertex 47.309 13.155 -5
      vertex 47.309 13.155 5
      vertex 48.995 8.854 5
    endloop
  endfacet
  facet normal 0.931022 0.364962 0
    outer loop
      vertex 48.995 8.854 -5
      vertex 47.309 13.155 -5
      vertex 48.995 8.854 5
    endloop
  endfacet
  facet normal 0.931142 0.364656 0
    outer loop
      vertex 45.383 18.073 -5
      vertex 45.383 18.073 5
      vertex 47.309 13.155 5
    endloop
  endfacet
  facet normal 0.931142 0.364656 0
    outer loop
      vertex 47.309 13.155 -5
      vertex 45.383 18.073 -5
      vertex 47.309 13.155 5
    endloop
  endfacet
  facet normal 0.931108 0.364743 0
    outer loop
      vertex 43.261 23.49 -5
      vertex 43.261 23.49 5
      vertex 45.383 18.073 5
    endloop
  endfacet
  facet normal 0.931108 0.364743 0
    outer loop
      vertex 45.383 18.073 -5
      vertex 43.261 23.49 -5
      vertex 45.383 18.073 5
    endloop
  endfacet
  facet normal 0.931134 0.364678 0
    outer loop
      vertex 40.991 29.286 -5
      vertex 40.991 29.286 5
      vertex 43.261 23.49 5
    endloop
  endfacet
  facet normal 0.931134 0.364678 0
    outer loop
      vertex 43.261 23.49 -5
      vertex 40.991 29.286 -5
      vertex 43.261 23.49 5
    endloop
  endfacet
  facet normal 0.931094 0.364779 0
    outer loop
      vertex 29.702 58.101 -5
      vertex 29.702 58.101 5
      vertex 40.991 29.286 5
    endloop
  endfacet
  facet normal 0.931094 0.364779 0
    outer loop
      vertex 40.991 29.286 -5
      vertex 29.702 58.101 -5
      vertex 40.991 29.286 5
    endloop
  endfacet
  facet normal 0 1 0
    outer loop
      vertex 26.513 58.101 5
      vertex 29.702 58.101 5
      vertex 26.513 58.101 -5
    endloop
  endfacet
  facet normal 0 1 0
    outer loop
      vertex 26.513 58.101 -5
      vertex 29.702 58.101 5
      vertex 29.702 58.101 -5
    endloop
  endfacet
  facet normal -0.0073155 0.999973 0
    outer loop
      vertex 24.736 58.088 5
      vertex 26.513 58.101 5
      vertex 24.736 58.088 -5
    endloop
  endfacet
  facet normal -0.0073155 0.999973 0
    outer loop
      vertex 24.736 58.088 -5
      vertex 26.513 58.101 5
      vertex 26.513 58.101 -5
    endloop
  endfacet
  facet normal -0.0753723 0.997155 0
    outer loop
      vertex 23.757 58.014 5
      vertex 24.736 58.088 5
      vertex 23.757 58.014 -5
    endloop
  endfacet
  facet normal -0.0753723 0.997155 0
    outer loop
      vertex 23.757 58.014 -5
      vertex 24.736 58.088 5
      vertex 24.736 58.088 -5
    endloop
  endfacet
  facet normal -0.377684 0.925935 0
    outer loop
      vertex 23.301 57.828 5
      vertex 23.757 58.014 5
      vertex 23.301 57.828 -5
    endloop
  endfacet
  facet normal -0.377684 0.925935 0
    outer loop
      vertex 23.301 57.828 -5
      vertex 23.757 58.014 5
      vertex 23.757 58.014 -5
    endloop
  endfacet
  facet normal -0.862698 0.505719 0
    outer loop
      vertex 23.097 57.48 5
      vertex 23.301 57.828 5
      vertex 23.097 57.48 -5
    endloop
  endfacet
  facet normal -0.862698 0.505719 0
    outer loop
      vertex 23.097 57.48 -5
      vertex 23.301 57.828 5
      vertex 23.301 57.828 -5
    endloop
  endfacet
  facet normal -0.927233 0.374484 0
    outer loop
      vertex 22.805 56.757 5
      vertex 23.097 57.48 5
      vertex 22.805 56.757 -5
    endloop
  endfacet
  facet normal -0.927233 0.374484 0
    outer loop
      vertex 22.805 56.757 -5
      vertex 23.097 57.48 5
      vertex 23.097 57.48 -5
    endloop
  endfacet
  facet normal -0.927228 0.374496 0
    outer loop
      vertex 22.057 54.905 5
      vertex 22.805 56.757 5
      vertex 22.057 54.905 -5
    endloop
  endfacet
  facet normal -0.927228 0.374496 0
    outer loop
      vertex 22.057 54.905 -5
      vertex 22.805 56.757 5
      vertex 22.805 56.757 -5
    endloop
  endfacet
  facet normal -0.927292 0.374338 0
    outer loop
      vertex 20.919 52.086 5
      vertex 22.057 54.905 5
      vertex 20.919 52.086 -5
    endloop
  endfacet
  facet normal -0.927292 0.374338 0
    outer loop
      vertex 20.919 52.086 -5
      vertex 22.057 54.905 5
      vertex 22.057 54.905 -5
    endloop
  endfacet
  facet normal -0.92722 0.374518 0
    outer loop
      vertex 19.454 48.459 5
      vertex 20.919 52.086 5
      vertex 19.454 48.459 -5
    endloop
  endfacet
  facet normal -0.92722 0.374518 0
    outer loop
      vertex 19.454 48.459 -5
      vertex 20.919 52.086 5
      vertex 20.919 52.086 -5
    endloop
  endfacet
  facet normal -0.92732 0.374269 0
    outer loop
      vertex 17.729 44.185 5
      vertex 19.454 48.459 5
      vertex 17.729 44.185 -5
    endloop
  endfacet
  facet normal -0.92732 0.374269 0
    outer loop
      vertex 17.729 44.185 -5
      vertex 19.454 48.459 5
      vertex 19.454 48.459 -5
    endloop
  endfacet
  facet normal -0.927155 0.374679 0
    outer loop
      vertex 15.805 39.424 5
      vertex 17.729 44.185 5
      vertex 15.805 39.424 -5
    endloop
  endfacet
  facet normal -0.927155 0.374679 0
    outer loop
      vertex 15.805 39.424 -5
      vertex 17.729 44.185 5
      vertex 17.729 44.185 -5
    endloop
  endfacet
  facet normal -0.927202 0.374562 0
    outer loop
      vertex 13.75 34.337 5
      vertex 15.805 39.424 5
      vertex 13.75 34.337 -5
    endloop
  endfacet
  facet normal -0.927202 0.374562 0
    outer loop
      vertex 13.75 34.337 -5
      vertex 15.805 39.424 5
      vertex 15.805 39.424 -5
    endloop
  endfacet
  facet normal -0.927316 0.374279 0
    outer loop
      vertex 11.629 29.082 5
      vertex 13.75 34.337 5
      vertex 11.629 29.082 -5
    endloop
  endfacet
  facet normal -0.927316 0.374279 0
    outer loop
      vertex 11.629 29.082 -5
      vertex 13.75 34.337 5
      vertex 13.75 34.337 -5
    endloop
  endfacet
  facet normal -0.927195 0.37458 0
    outer loop
      vertex 9.504 23.822 5
      vertex 11.629 29.082 5
      vertex 9.504 23.822 -5
    endloop
  endfacet
  facet normal -0.927195 0.37458 0
    outer loop
      vertex 9.504 23.822 -5
      vertex 11.629 29.082 5
      vertex 11.629 29.082 -5
    endloop
  endfacet
  facet normal -0.927282 0.374364 0
    outer loop
      vertex 7.443 18.717 5
      vertex 9.504 23.822 5
      vertex 7.443 18.717 -5
    endloop
  endfacet
  facet normal -0.927282 0.374364 0
    outer loop
      vertex 7.443 18.717 -5
      vertex 9.504 23.822 5
      vertex 9.504 23.822 -5
    endloop
  endfacet
  facet normal -0.927257 0.374425 0
    outer loop
      vertex 5.508 13.925 5
      vertex 7.443 18.717 5
      vertex 5.508 13.925 -5
    endloop
  endfacet
  facet normal -0.927257 0.374425 0
    outer loop
      vertex 5.508 13.925 -5
      vertex 7.443 18.717 5
      vertex 7.443 18.717 -5
    endloop
  endfacet
  facet normal -0.927316 0.374278 0
    outer loop
      vertex 3.766 9.609 5
      vertex 5.508 13.925 5
      vertex 3.766 9.609 -5
    endloop
  endfacet
  facet normal -0.927316 0.374278 0
    outer loop
      vertex 3.766 9.609 -5
      vertex 5.508 13.925 5
      vertex 5.508 13.925 -5
    endloop
  endfacet
  facet normal -0.927203 0.374559 0
    outer loop
      vertex 2.279 5.928 5
      vertex 3.766 9.609 5
      vertex 2.279 5.928 -5
    endloop
  endfacet
  facet normal -0.927203 0.374559 0
    outer loop
      vertex 2.279 5.928 -5
      vertex 3.766 9.609 5
      vertex 3.766 9.609 -5
    endloop
  endfacet
  facet normal -0.927431 0.373995 0
    outer loop
      vertex 1.116 3.044 5
      vertex 2.279 5.928 5
      vertex 1.116 3.044 -5
    endloop
  endfacet
  facet normal -0.927431 0.373995 0
    outer loop
      vertex 1.116 3.044 -5
      vertex 2.279 5.928 5
      vertex 2.279 5.928 -5
    endloop
  endfacet
  facet normal -0.927412 0.374042 0
    outer loop
      vertex 0.338 1.115 5
      vertex 1.116 3.044 5
      vertex 0.338 1.115 -5
    endloop
  endfacet
  facet normal -0.927412 0.374042 0
    outer loop
      vertex 0.338 1.115 -5
      vertex 1.116 3.044 5
      vertex 1.116 3.044 -5
    endloop
  endfacet
  facet normal 0.00761261 0.999971 0
    outer loop
      vertex 14.942 22.964 5
      vertex 25.976 22.88 5
      vertex 14.942 22.964 -5
    endloop
  endfacet
  facet normal 0.00761261 0.999971 0
    outer loop
      vertex 14.942 22.964 -5
      vertex 25.976 22.88 5
      vertex 25.976 22.88 -5
    endloop
  endfacet
  facet normal 0.931051 -0.364889 0
    outer loop
      vertex 14.942 22.964 -5
      vertex 20.417 36.934 -5
      vertex 20.417 36.934 5
    endloop
  endfacet
  facet normal 0.931051 -0.364889 0
    outer loop
      vertex 14.942 22.964 5
      vertex 14.942 22.964 -5
      vertex 20.417 36.934 5
    endloop
  endfacet
  facet normal 0.930876 -0.365335 0
    outer loop
      vertex 20.417 36.934 -5
      vertex 21.521 39.747 -5
      vertex 21.521 39.747 5
    endloop
  endfacet
  facet normal 0.930876 -0.365335 0
    outer loop
      vertex 20.417 36.934 5
      vertex 20.417 36.934 -5
      vertex 21.521 39.747 5
    endloop
  endfacet
  facet normal 0.930961 -0.365118 0
    outer loop
      vertex 21.521 39.747 -5
      vertex 22.556 42.386 -5
      vertex 22.556 42.386 5
    endloop
  endfacet
  facet normal 0.930961 -0.365118 0
    outer loop
      vertex 21.521 39.747 5
      vertex 21.521 39.747 -5
      vertex 22.556 42.386 5
    endloop
  endfacet
  facet normal 0.931328 -0.364181 0
    outer loop
      vertex 22.556 42.386 -5
      vertex 23.498 44.795 -5
      vertex 23.498 44.795 5
    endloop
  endfacet
  facet normal 0.931328 -0.364181 0
    outer loop
      vertex 22.556 42.386 5
      vertex 22.556 42.386 -5
      vertex 23.498 44.795 5
    endloop
  endfacet
  facet normal 0.931392 -0.364018 0
    outer loop
      vertex 23.498 44.795 -5
      vertex 24.325 46.911 -5
      vertex 24.325 46.911 5
    endloop
  endfacet
  facet normal 0.931392 -0.364018 0
    outer loop
      vertex 23.498 44.795 5
      vertex 23.498 44.795 -5
      vertex 24.325 46.911 5
    endloop
  endfacet
  facet normal 0.931747 -0.363107 0
    outer loop
      vertex 24.325 46.911 -5
      vertex 25.014 48.679 -5
      vertex 25.014 48.679 5
    endloop
  endfacet
  facet normal 0.931747 -0.363107 0
    outer loop
      vertex 24.325 46.911 5
      vertex 24.325 46.911 -5
      vertex 25.014 48.679 5
    endloop
  endfacet
  facet normal 0.931979 -0.362512 0
    outer loop
      vertex 25.014 48.679 -5
      vertex 25.543 50.039 -5
      vertex 25.543 50.039 5
    endloop
  endfacet
  facet normal 0.931979 -0.362512 0
    outer loop
      vertex 25.014 48.679 5
      vertex 25.014 48.679 -5
      vertex 25.543 50.039 5
    endloop
  endfacet
  facet normal 0.93175 -0.363101 0
    outer loop
      vertex 25.543 50.039 -5
      vertex 25.891 50.932 -5
      vertex 25.891 50.932 5
    endloop
  endfacet
  facet normal 0.93175 -0.363101 0
    outer loop
      vertex 25.543 50.039 5
      vertex 25.543 50.039 -5
      vertex 25.891 50.932 5
    endloop
  endfacet
  facet normal 0.932623 -0.360852 0
    outer loop
      vertex 25.891 50.932 -5
      vertex 26.033 51.299 -5
      vertex 26.033 51.299 5
    endloop
  endfacet
  facet normal 0.932623 -0.360852 0
    outer loop
      vertex 25.891 50.932 5
      vertex 25.891 50.932 -5
      vertex 26.033 51.299 5
    endloop
  endfacet
  facet normal 0.707107 -0.707107 0
    outer loop
      vertex 26.033 51.299 -5
      vertex 26.315 51.581 -5
      vertex 26.315 51.581 5
    endloop
  endfacet
  facet normal 0.707107 -0.707107 0
    outer loop
      vertex 26.033 51.299 5
      vertex 26.033 51.299 -5
      vertex 26.315 51.581 5
    endloop
  endfacet
  facet normal -0.922637 -0.385668 0
    outer loop
      vertex 26.445 51.27 -5
      vertex 26.445 51.27 5
      vertex 26.315 51.581 -5
    endloop
  endfacet
  facet normal -0.922637 -0.385668 0
    outer loop
      vertex 26.315 51.581 -5
      vertex 26.445 51.27 5
      vertex 26.315 51.581 5
    endloop
  endfacet
  facet normal -0.931902 -0.36271 0
    outer loop
      vertex 26.777 50.417 -5
      vertex 26.777 50.417 5
      vertex 26.445 51.27 -5
    endloop
  endfacet
  facet normal -0.931902 -0.36271 0
    outer loop
      vertex 26.445 51.27 -5
      vertex 26.777 50.417 5
      vertex 26.445 51.27 5
    endloop
  endfacet
  facet normal -0.9334 -0.358839 0
    outer loop
      vertex 27.291 49.08 -5
      vertex 27.291 49.08 5
      vertex 26.777 50.417 -5
    endloop
  endfacet
  facet normal -0.9334 -0.358839 0
    outer loop
      vertex 26.777 50.417 -5
      vertex 27.291 49.08 5
      vertex 26.777 50.417 5
    endloop
  endfacet
  facet normal -0.934328 -0.356415 0
    outer loop
      vertex 27.962 47.321 -5
      vertex 27.962 47.321 5
      vertex 27.291 49.08 -5
    endloop
  endfacet
  facet normal -0.934328 -0.356415 0
    outer loop
      vertex 27.291 49.08 -5
      vertex 27.962 47.321 5
      vertex 27.291 49.08 5
    endloop
  endfacet
  facet normal -0.934912 -0.35488 0
    outer loop
      vertex 28.769 45.195 -5
      vertex 28.769 45.195 5
      vertex 27.962 47.321 -5
    endloop
  endfacet
  facet normal -0.934912 -0.35488 0
    outer loop
      vertex 27.962 47.321 -5
      vertex 28.769 45.195 5
      vertex 27.962 47.321 5
    endloop
  endfacet
  facet normal -0.935059 -0.354492 0
    outer loop
      vertex 29.691 42.763 -5
      vertex 29.691 42.763 5
      vertex 28.769 45.195 -5
    endloop
  endfacet
  facet normal -0.935059 -0.354492 0
    outer loop
      vertex 28.769 45.195 -5
      vertex 29.691 42.763 5
      vertex 28.769 45.195 5
    endloop
  endfacet
  facet normal -0.935133 -0.354296 0
    outer loop
      vertex 30.706 40.084 -5
      vertex 30.706 40.084 5
      vertex 29.691 42.763 -5
    endloop
  endfacet
  facet normal -0.935133 -0.354296 0
    outer loop
      vertex 29.691 42.763 -5
      vertex 30.706 40.084 5
      vertex 29.691 42.763 5
    endloop
  endfacet
  facet normal -0.935374 -0.353661 0
    outer loop
      vertex 31.79 37.217 -5
      vertex 31.79 37.217 5
      vertex 30.706 40.084 -5
    endloop
  endfacet
  facet normal -0.935374 -0.353661 0
    outer loop
      vertex 30.706 40.084 -5
      vertex 31.79 37.217 5
      vertex 30.706 40.084 5
    endloop
  endfacet
  facet normal -0.935547 -0.353203 0
    outer loop
      vertex 32.869 34.359 -5
      vertex 32.869 34.359 5
      vertex 31.79 37.217 -5
    endloop
  endfacet
  facet normal -0.935547 -0.353203 0
    outer loop
      vertex 31.79 37.217 -5
      vertex 32.869 34.359 5
      vertex 31.79 37.217 5
    endloop
  endfacet
  facet normal -0.936171 -0.351546 0
    outer loop
      vertex 33.872 31.688 -5
      vertex 33.872 31.688 5
      vertex 32.869 34.359 -5
    endloop
  endfacet
  facet normal -0.936171 -0.351546 0
    outer loop
      vertex 32.869 34.359 -5
      vertex 33.872 31.688 5
      vertex 32.869 34.359 5
    endloop
  endfacet
  facet normal -0.937104 -0.349049 0
    outer loop
      vertex 34.776 29.261 -5
      vertex 34.776 29.261 5
      vertex 33.872 31.688 -5
    endloop
  endfacet
  facet normal -0.937104 -0.349049 0
    outer loop
      vertex 33.872 31.688 -5
      vertex 34.776 29.261 5
      vertex 33.872 31.688 5
    endloop
  endfacet
  facet normal -0.937578 -0.347775 0
    outer loop
      vertex 35.562 27.142 -5
      vertex 35.562 27.142 5
      vertex 34.776 29.261 -5
    endloop
  endfacet
  facet normal -0.937578 -0.347775 0
    outer loop
      vertex 34.776 29.261 -5
      vertex 35.562 27.142 5
      vertex 34.776 29.261 5
    endloop
  endfacet
  facet normal -0.939199 -0.343374 0
    outer loop
      vertex 36.204 25.386 -5
      vertex 36.204 25.386 5
      vertex 35.562 27.142 -5
    endloop
  endfacet
  facet normal -0.939199 -0.343374 0
    outer loop
      vertex 35.562 27.142 -5
      vertex 36.204 25.386 5
      vertex 35.562 27.142 5
    endloop
  endfacet
  facet normal -0.940842 -0.338845 0
    outer loop
      vertex 36.683 24.056 -5
      vertex 36.683 24.056 5
      vertex 36.204 25.386 -5
    endloop
  endfacet
  facet normal -0.940842 -0.338845 0
    outer loop
      vertex 36.204 25.386 -5
      vertex 36.683 24.056 5
      vertex 36.204 25.386 5
    endloop
  endfacet
  facet normal -0.944241 -0.329256 0
    outer loop
      vertex 36.978 23.21 -5
      vertex 36.978 23.21 5
      vertex 36.683 24.056 -5
    endloop
  endfacet
  facet normal -0.944241 -0.329256 0
    outer loop
      vertex 36.683 24.056 -5
      vertex 36.978 23.21 5
      vertex 36.683 24.056 5
    endloop
  endfacet
  facet normal -0.958606 -0.284735 0
    outer loop
      vertex 37.068 22.907 -5
      vertex 37.068 22.907 5
      vertex 36.978 23.21 -5
    endloop
  endfacet
  facet normal -0.958606 -0.284735 0
    outer loop
      vertex 36.978 23.21 -5
      vertex 37.068 22.907 5
      vertex 36.978 23.21 5
    endloop
  endfacet
  facet normal -0.0341211 0.999418 0
    outer loop
      vertex 36.16 22.876 5
      vertex 37.068 22.907 5
      vertex 36.16 22.876 -5
    endloop
  endfacet
  facet normal -0.0341211 0.999418 0
    outer loop
      vertex 36.16 22.876 -5
      vertex 37.068 22.907 5
      vertex 37.068 22.907 -5
    endloop
  endfacet
  facet normal -0.00584541 0.999983 0
    outer loop
      vertex 33.765 22.862 5
      vertex 36.16 22.876 5
      vertex 33.765 22.862 -5
    endloop
  endfacet
  facet normal -0.00584541 0.999983 0
    outer loop
      vertex 33.765 22.862 -5
      vertex 36.16 22.876 5
      vertex 36.16 22.876 -5
    endloop
  endfacet
  facet normal 0.000568666 1 0
    outer loop
      vertex 30.248 22.864 5
      vertex 33.765 22.862 5
      vertex 30.248 22.864 -5
    endloop
  endfacet
  facet normal 0.000568666 1 0
    outer loop
      vertex 30.248 22.864 -5
      vertex 33.765 22.862 5
      vertex 33.765 22.862 -5
    endloop
  endfacet
  facet normal 0.00374529 0.999993 0
    outer loop
      vertex 25.976 22.88 5
      vertex 30.248 22.864 5
      vertex 25.976 22.88 -5
    endloop
  endfacet
  facet normal 0.00374529 0.999993 0
    outer loop
      vertex 25.976 22.88 -5
      vertex 30.248 22.864 5
      vertex 30.248 22.864 -5
    endloop
  endfacet
endsolid OpenSCAD_Model
