solid OpenSCAD_Model
  facet normal -0.939735 -0.341904 0
    outer loop
      vertex 0.171 40.961 -5
      vertex 0.171 40.961 5
      vertex 0 41.431 -5
    endloop
  endfacet
  facet normal -0.939735 -0.341904 0
    outer loop
      vertex 0 41.431 -5
      vertex 0.171 40.961 5
      vertex 0 41.431 5
    endloop
  endfacet
  facet normal -0.935186 -0.354158 0
    outer loop
      vertex 0.644 39.712 -5
      vertex 0.644 39.712 5
      vertex 0.171 40.961 -5
    endloop
  endfacet
  facet normal -0.935186 -0.354158 0
    outer loop
      vertex 0.171 40.961 -5
      vertex 0.644 39.712 5
      vertex 0.171 40.961 5
    endloop
  endfacet
  facet normal 0 0 -1
    outer loop
      vertex 0.232 41.509 -5
      vertex 0.864 41.573 -5
      vertex 0 41.431 -5
    endloop
  endfacet
  facet normal 0 0 -1
    outer loop
      vertex 0 41.431 -5
      vertex 0.864 41.573 -5
      vertex 1.797 41.614 -5
    endloop
  endfacet
  facet normal 0 0 -1
    outer loop
      vertex 0 41.431 -5
      vertex 1.797 41.614 -5
      vertex 2.935 41.628 -5
    endloop
  endfacet
  facet normal 0 0 -1
    outer loop
      vertex 0 41.431 -5
      vertex 2.935 41.628 -5
      vertex 5.87 41.628 -5
    endloop
  endfacet
  facet normal 0 0 -1
    outer loop
      vertex 0 41.431 -5
      vertex 5.87 41.628 -5
      vertex 6.266 40.583 -5
    endloop
  endfacet
  facet normal 0 0 -1
    outer loop
      vertex 0 41.431 -5
      vertex 6.266 40.583 -5
      vertex 6.471 40.024 -5
    endloop
  endfacet
  facet normal 0 0 -1
    outer loop
      vertex 0 41.431 -5
      vertex 6.471 40.024 -5
      vertex 6.901 38.836 -5
    endloop
  endfacet
  facet normal 0 0 -1
    outer loop
      vertex 0 41.431 -5
      vertex 6.901 38.836 -5
      vertex 7.53 37.094 -5
    endloop
  endfacet
  facet normal 0 0 -1
    outer loop
      vertex 0 41.431 -5
      vertex 7.53 37.094 -5
      vertex 8.329 34.873 -5
    endloop
  endfacet
  facet normal 0 0 -1
    outer loop
      vertex 0 41.431 -5
      vertex 8.329 34.873 -5
      vertex 9.271 32.245 -5
    endloop
  endfacet
  facet normal 0 0 -1
    outer loop
      vertex 0 41.431 -5
      vertex 9.271 32.245 -5
      vertex 10.333 29.285 -5
    endloop
  endfacet
  facet normal 0 0 -1
    outer loop
      vertex 0 41.431 -5
      vertex 10.333 29.285 -5
      vertex 11.485 26.066 -5
    endloop
  endfacet
  facet normal 0 0 -1
    outer loop
      vertex 0 41.431 -5
      vertex 11.485 26.066 -5
      vertex 12.7 22.662 -5
    endloop
  endfacet
  facet normal 0 0 -1
    outer loop
      vertex 0 41.431 -5
      vertex 12.7 22.662 -5
      vertex 13.92 19.272 -5
    endloop
  endfacet
  facet normal 0 0 -1
    outer loop
      vertex 13.92 19.272 -5
      vertex 15.063 16.109 -5
      vertex 0 41.431 -5
    endloop
  endfacet
  facet normal 0 0 -1
    outer loop
      vertex 15.063 16.109 -5
      vertex 16.105 13.243 -5
      vertex 0 41.431 -5
    endloop
  endfacet
  facet normal 0 0 -1
    outer loop
      vertex 16.105 13.243 -5
      vertex 17.022 10.743 -5
      vertex 0 41.431 -5
    endloop
  endfacet
  facet normal 0 0 -1
    outer loop
      vertex 17.022 10.743 -5
      vertex 17.785 8.678 -5
      vertex 0 41.431 -5
    endloop
  endfacet
  facet normal 0 0 -1
    outer loop
      vertex 17.785 8.678 -5
      vertex 18.371 7.118 -5
      vertex 0 41.431 -5
    endloop
  endfacet
  facet normal 0 0 -1
    outer loop
      vertex 18.371 7.118 -5
      vertex 18.754 6.13 -5
      vertex 0 41.431 -5
    endloop
  endfacet
  facet normal 0 0 -1
    outer loop
      vertex 18.754 6.13 -5
      vertex 18.91 5.785 -5
      vertex 0 41.431 -5
    endloop
  endfacet
  facet normal 0 0 -1
    outer loop
      vertex 19.483 7.2 -5
      vertex 34.516 41.628 -5
      vertex 19.078 6.152 -5
    endloop
  endfacet
  facet normal 0 0 -1
    outer loop
      vertex 20.099 8.859 -5
      vertex 34.516 41.628 -5
      vertex 19.483 7.2 -5
    endloop
  endfacet
  facet normal 0 0 -1
    outer loop
      vertex 20.898 11.053 -5
      vertex 34.516 41.628 -5
      vertex 20.099 8.859 -5
    endloop
  endfacet
  facet normal 0 0 -1
    outer loop
      vertex 21.857 13.709 -5
      vertex 34.516 41.628 -5
      vertex 20.898 11.053 -5
    endloop
  endfacet
  facet normal 0 0 -1
    outer loop
      vertex 22.949 16.751 -5
      vertex 34.516 41.628 -5
      vertex 21.857 13.709 -5
    endloop
  endfacet
  facet normal 0 0 -1
    outer loop
      vertex 24.147 20.11 -5
      vertex 34.516 41.628 -5
      vertex 22.949 16.751 -5
    endloop
  endfacet
  facet normal 0 0 -1
    outer loop
      vertex 25.428 23.706 -5
      vertex 31.75 41.628 -5
      vertex 34.516 41.628 -5
    endloop
  endfacet
  facet normal 0 0 -1
    outer loop
      vertex 25.428 23.706 -5
      vertex 34.516 41.628 -5
      vertex 24.147 20.11 -5
    endloop
  endfacet
  facet normal 0 0 -1
    outer loop
      vertex 19.078 6.152 -5
      vertex 34.516 41.628 -5
      vertex 36.099 41.618 -5
    endloop
  endfacet
  facet normal 0 0 -1
    outer loop
      vertex 19.078 6.152 -5
      vertex 36.099 41.618 -5
      vertex 18.91 5.785 -5
    endloop
  endfacet
  facet normal 0 0 -1
    outer loop
      vertex 18.91 5.785 -5
      vertex 36.099 41.618 -5
      vertex 36.9 41.551 -5
    endloop
  endfacet
  facet normal 0 0 -1
    outer loop
      vertex 18.91 5.785 -5
      vertex 36.9 41.551 -5
      vertex 37.151 41.366 -5
    endloop
  endfacet
  facet normal 0 0 -1
    outer loop
      vertex 18.91 5.785 -5
      vertex 37.151 41.366 -5
      vertex 37.084 41.006 -5
    endloop
  endfacet
  facet normal 0 0 -1
    outer loop
      vertex 18.91 5.785 -5
      vertex 37.084 41.006 -5
      vertex 36.897 40.472 -5
    endloop
  endfacet
  facet normal 0 0 -1
    outer loop
      vertex 18.91 5.785 -5
      vertex 36.897 40.472 -5
      vertex 36.423 39.173 -5
    endloop
  endfacet
  facet normal 0 0 -1
    outer loop
      vertex 18.91 5.785 -5
      vertex 36.423 39.173 -5
      vertex 35.693 37.2 -5
    endloop
  endfacet
  facet normal 0 0 -1
    outer loop
      vertex 18.91 5.785 -5
      vertex 35.693 37.2 -5
      vertex 34.74 34.636 -5
    endloop
  endfacet
  facet normal 0 0 -1
    outer loop
      vertex 18.91 5.785 -5
      vertex 34.74 34.636 -5
      vertex 33.598 31.567 -5
    endloop
  endfacet
  facet normal 0 0 -1
    outer loop
      vertex 18.91 5.785 -5
      vertex 33.598 31.567 -5
      vertex 32.297 28.078 -5
    endloop
  endfacet
  facet normal 0 0 -1
    outer loop
      vertex 18.91 5.785 -5
      vertex 32.297 28.078 -5
      vertex 30.871 24.254 -5
    endloop
  endfacet
  facet normal 0 0 -1
    outer loop
      vertex 18.91 5.785 -5
      vertex 30.871 24.254 -5
      vertex 29.351 20.179 -5
    endloop
  endfacet
  facet normal 0 0 -1
    outer loop
      vertex 18.91 5.785 -5
      vertex 29.351 20.179 -5
      vertex 21.788 0 -5
    endloop
  endfacet
  facet normal 0 0 -1
    outer loop
      vertex 18.91 5.785 -5
      vertex 21.788 0 -5
      vertex 0 41.431 -5
    endloop
  endfacet
  facet normal 0 0 -1
    outer loop
      vertex 0 41.431 -5
      vertex 21.788 0 -5
      vertex 15.945 0 -5
    endloop
  endfacet
  facet normal 0 0 -1
    outer loop
      vertex 0 41.431 -5
      vertex 15.945 0 -5
      vertex 7.987 20.602 -5
    endloop
  endfacet
  facet normal 0 0 -1
    outer loop
      vertex 0 41.431 -5
      vertex 7.987 20.602 -5
      vertex 6.389 24.75 -5
    endloop
  endfacet
  facet normal 0 0 -1
    outer loop
      vertex 0 41.431 -5
      vertex 6.389 24.75 -5
      vertex 4.896 28.623 -5
    endloop
  endfacet
  facet normal 0 0 -1
    outer loop
      vertex 0 41.431 -5
      vertex 4.896 28.623 -5
      vertex 3.544 32.141 -5
    endloop
  endfacet
  facet normal 0 0 -1
    outer loop
      vertex 0 41.431 -5
      vertex 3.544 32.141 -5
      vertex 2.362 35.219 -5
    endloop
  endfacet
  facet normal 0 0 -1
    outer loop
      vertex 0 41.431 -5
      vertex 2.362 35.219 -5
      vertex 1.385 37.771 -5
    endloop
  endfacet
  facet normal 0 0 -1
    outer loop
      vertex 0 41.431 -5
      vertex 1.385 37.771 -5
      vertex 0.644 39.712 -5
    endloop
  endfacet
  facet normal 0 0 -1
    outer loop
      vertex 0 41.431 -5
      vertex 0.644 39.712 -5
      vertex 0.171 40.961 -5
    endloop
  endfacet
  facet normal -0.318678 0.947863 0
    outer loop
      vertex 0 41.431 5
      vertex 0.232 41.509 5
      vertex 0 41.431 -5
    endloop
  endfacet
  facet normal -0.318678 0.947863 0
    outer loop
      vertex 0 41.431 -5
      vertex 0.232 41.509 5
      vertex 0.232 41.509 -5
    endloop
  endfacet
  facet normal 0 0 1
    outer loop
      vertex 0 41.431 5
      vertex 0.171 40.961 5
      vertex 0.644 39.712 5
    endloop
  endfacet
  facet normal 0 0 1
    outer loop
      vertex 2.362 35.219 5
      vertex 0 41.431 5
      vertex 1.385 37.771 5
    endloop
  endfacet
  facet normal 0 0 1
    outer loop
      vertex 1.385 37.771 5
      vertex 0 41.431 5
      vertex 0.644 39.712 5
    endloop
  endfacet
  facet normal 0 0 1
    outer loop
      vertex 3.544 32.141 5
      vertex 0 41.431 5
      vertex 2.362 35.219 5
    endloop
  endfacet
  facet normal 0 0 1
    outer loop
      vertex 4.896 28.623 5
      vertex 0 41.431 5
      vertex 3.544 32.141 5
    endloop
  endfacet
  facet normal 0 0 1
    outer loop
      vertex 6.389 24.75 5
      vertex 0 41.431 5
      vertex 4.896 28.623 5
    endloop
  endfacet
  facet normal 0 0 1
    outer loop
      vertex 7.987 20.602 5
      vertex 0 41.431 5
      vertex 6.389 24.75 5
    endloop
  endfacet
  facet normal 0 0 1
    outer loop
      vertex 15.945 0 5
      vertex 0 41.431 5
      vertex 7.987 20.602 5
    endloop
  endfacet
  facet normal 0 0 1
    outer loop
      vertex 21.788 0 5
      vertex 0 41.431 5
      vertex 15.945 0 5
    endloop
  endfacet
  facet normal 0 0 1
    outer loop
      vertex 18.91 5.785 5
      vertex 0 41.431 5
      vertex 21.788 0 5
    endloop
  endfacet
  facet normal 0 0 1
    outer loop
      vertex 25.428 23.706 5
      vertex 24.147 20.11 5
      vertex 29.351 20.179 5
    endloop
  endfacet
  facet normal 0 0 1
    outer loop
      vertex 30.871 24.254 5
      vertex 25.428 23.706 5
      vertex 29.351 20.179 5
    endloop
  endfacet
  facet normal 0 0 1
    outer loop
      vertex 29.351 20.179 5
      vertex 24.147 20.11 5
      vertex 21.788 0 5
    endloop
  endfacet
  facet normal 0 0 1
    outer loop
      vertex 24.147 20.11 5
      vertex 22.949 16.751 5
      vertex 21.788 0 5
    endloop
  endfacet
  facet normal 0 0 1
    outer loop
      vertex 22.949 16.751 5
      vertex 21.857 13.709 5
      vertex 21.788 0 5
    endloop
  endfacet
  facet normal 0 0 1
    outer loop
      vertex 21.857 13.709 5
      vertex 20.898 11.053 5
      vertex 21.788 0 5
    endloop
  endfacet
  facet normal 0 0 1
    outer loop
      vertex 20.898 11.053 5
      vertex 20.099 8.859 5
      vertex 21.788 0 5
    endloop
  endfacet
  facet normal 0 0 1
    outer loop
      vertex 20.099 8.859 5
      vertex 19.483 7.2 5
      vertex 21.788 0 5
    endloop
  endfacet
  facet normal 0 0 1
    outer loop
      vertex 19.483 7.2 5
      vertex 19.078 6.152 5
      vertex 21.788 0 5
    endloop
  endfacet
  facet normal 0 0 1
    outer loop
      vertex 19.078 6.152 5
      vertex 18.91 5.785 5
      vertex 21.788 0 5
    endloop
  endfacet
  facet normal 0 0 1
    outer loop
      vertex 18.754 6.13 5
      vertex 0 41.431 5
      vertex 18.91 5.785 5
    endloop
  endfacet
  facet normal 0 0 1
    outer loop
      vertex 18.371 7.118 5
      vertex 0 41.431 5
      vertex 18.754 6.13 5
    endloop
  endfacet
  facet normal 0 0 1
    outer loop
      vertex 17.022 10.743 5
      vertex 16.105 13.243 5
      vertex 0 41.431 5
    endloop
  endfacet
  facet normal 0 0 1
    outer loop
      vertex 17.022 10.743 5
      vertex 0 41.431 5
      vertex 17.785 8.678 5
    endloop
  endfacet
  facet normal 0 0 1
    outer loop
      vertex 15.063 16.109 5
      vertex 13.92 19.272 5
      vertex 0 41.431 5
    endloop
  endfacet
  facet normal 0 0 1
    outer loop
      vertex 15.063 16.109 5
      vertex 0 41.431 5
      vertex 16.105 13.243 5
    endloop
  endfacet
  facet normal 0 0 1
    outer loop
      vertex 12.7 22.662 5
      vertex 11.485 26.066 5
      vertex 0 41.431 5
    endloop
  endfacet
  facet normal 0 0 1
    outer loop
      vertex 12.7 22.662 5
      vertex 0 41.431 5
      vertex 13.92 19.272 5
    endloop
  endfacet
  facet normal 0 0 1
    outer loop
      vertex 11.485 26.066 5
      vertex 10.333 29.285 5
      vertex 0 41.431 5
    endloop
  endfacet
  facet normal 0 0 1
    outer loop
      vertex 10.333 29.285 5
      vertex 9.271 32.245 5
      vertex 0 41.431 5
    endloop
  endfacet
  facet normal 0 0 1
    outer loop
      vertex 9.271 32.245 5
      vertex 8.329 34.873 5
      vertex 0 41.431 5
    endloop
  endfacet
  facet normal 0 0 1
    outer loop
      vertex 8.329 34.873 5
      vertex 7.53 37.094 5
      vertex 0 41.431 5
    endloop
  endfacet
  facet normal 0 0 1
    outer loop
      vertex 18.371 7.118 5
      vertex 17.785 8.678 5
      vertex 0 41.431 5
    endloop
  endfacet
  facet normal 0 0 1
    outer loop
      vertex 6.266 40.583 5
      vertex 5.87 41.628 5
      vertex 0 41.431 5
    endloop
  endfacet
  facet normal 0 0 1
    outer loop
      vertex 2.935 41.628 5
      vertex 0 41.431 5
      vertex 5.87 41.628 5
    endloop
  endfacet
  facet normal 0 0 1
    outer loop
      vertex 1.797 41.614 5
      vertex 0 41.431 5
      vertex 2.935 41.628 5
    endloop
  endfacet
  facet normal 0 0 1
    outer loop
      vertex 0.864 41.573 5
      vertex 0 41.431 5
      vertex 1.797 41.614 5
    endloop
  endfacet
  facet normal 0 0 1
    outer loop
      vertex 0.232 41.509 5
      vertex 0 41.431 5
      vertex 0.864 41.573 5
    endloop
  endfacet
  facet normal 0 0 1
    outer loop
      vertex 7.53 37.094 5
      vertex 6.901 38.836 5
      vertex 0 41.431 5
    endloop
  endfacet
  facet normal 0 0 1
    outer loop
      vertex 6.901 38.836 5
      vertex 6.471 40.024 5
      vertex 0 41.431 5
    endloop
  endfacet
  facet normal 0 0 1
    outer loop
      vertex 6.471 40.024 5
      vertex 6.266 40.583 5
      vertex 0 41.431 5
    endloop
  endfacet
  facet normal 0 0 1
    outer loop
      vertex 31.75 41.628 5
      vertex 36.099 41.618 5
      vertex 34.516 41.628 5
    endloop
  endfacet
  facet normal 0 0 1
    outer loop
      vertex 31.75 41.628 5
      vertex 36.9 41.551 5
      vertex 36.099 41.618 5
    endloop
  endfacet
  facet normal 0 0 1
    outer loop
      vertex 31.75 41.628 5
      vertex 37.151 41.366 5
      vertex 36.9 41.551 5
    endloop
  endfacet
  facet normal 0 0 1
    outer loop
      vertex 31.75 41.628 5
      vertex 37.084 41.006 5
      vertex 37.151 41.366 5
    endloop
  endfacet
  facet normal 0 0 1
    outer loop
      vertex 31.75 41.628 5
      vertex 36.897 40.472 5
      vertex 37.084 41.006 5
    endloop
  endfacet
  facet normal 0 0 1
    outer loop
      vertex 31.75 41.628 5
      vertex 36.423 39.173 5
      vertex 36.897 40.472 5
    endloop
  endfacet
  facet normal 0 0 1
    outer loop
      vertex 31.75 41.628 5
      vertex 35.693 37.2 5
      vertex 36.423 39.173 5
    endloop
  endfacet
  facet normal 0 0 1
    outer loop
      vertex 31.75 41.628 5
      vertex 34.74 34.636 5
      vertex 35.693 37.2 5
    endloop
  endfacet
  facet normal 0 0 1
    outer loop
      vertex 31.75 41.628 5
      vertex 33.598 31.567 5
      vertex 34.74 34.636 5
    endloop
  endfacet
  facet normal 0 0 1
    outer loop
      vertex 31.75 41.628 5
      vertex 32.297 28.078 5
      vertex 33.598 31.567 5
    endloop
  endfacet
  facet normal 0 0 1
    outer loop
      vertex 31.75 41.628 5
      vertex 30.871 24.254 5
      vertex 32.297 28.078 5
    endloop
  endfacet
  facet normal 0 0 1
    outer loop
      vertex 31.75 41.628 5
      vertex 25.428 23.706 5
      vertex 30.871 24.254 5
    endloop
  endfacet
  facet normal -0.934236 -0.356656 0
    outer loop
      vertex 1.385 37.771 -5
      vertex 1.385 37.771 5
      vertex 0.644 39.712 -5
    endloop
  endfacet
  facet normal -0.934236 -0.356656 0
    outer loop
      vertex 0.644 39.712 -5
      vertex 1.385 37.771 5
      vertex 0.644 39.712 5
    endloop
  endfacet
  facet normal -0.933901 -0.357532 0
    outer loop
      vertex 2.362 35.219 -5
      vertex 2.362 35.219 5
      vertex 1.385 37.771 -5
    endloop
  endfacet
  facet normal -0.933901 -0.357532 0
    outer loop
      vertex 1.385 37.771 -5
      vertex 2.362 35.219 5
      vertex 1.385 37.771 5
    endloop
  endfacet
  facet normal -0.933533 -0.358491 0
    outer loop
      vertex 3.544 32.141 -5
      vertex 3.544 32.141 5
      vertex 2.362 35.219 -5
    endloop
  endfacet
  facet normal -0.933533 -0.358491 0
    outer loop
      vertex 2.362 35.219 -5
      vertex 3.544 32.141 5
      vertex 2.362 35.219 5
    endloop
  endfacet
  facet normal -0.933441 -0.35873 0
    outer loop
      vertex 4.896 28.623 -5
      vertex 4.896 28.623 5
      vertex 3.544 32.141 -5
    endloop
  endfacet
  facet normal -0.933441 -0.35873 0
    outer loop
      vertex 3.544 32.141 -5
      vertex 4.896 28.623 5
      vertex 3.544 32.141 5
    endloop
  endfacet
  facet normal -0.933072 -0.359689 0
    outer loop
      vertex 6.389 24.75 -5
      vertex 6.389 24.75 5
      vertex 4.896 28.623 -5
    endloop
  endfacet
  facet normal -0.933072 -0.359689 0
    outer loop
      vertex 4.896 28.623 -5
      vertex 6.389 24.75 5
      vertex 4.896 28.623 5
    endloop
  endfacet
  facet normal -0.933148 -0.359492 0
    outer loop
      vertex 7.987 20.602 -5
      vertex 7.987 20.602 5
      vertex 6.389 24.75 -5
    endloop
  endfacet
  facet normal -0.933148 -0.359492 0
    outer loop
      vertex 6.389 24.75 -5
      vertex 7.987 20.602 5
      vertex 6.389 24.75 5
    endloop
  endfacet
  facet normal -0.932826 -0.360326 0
    outer loop
      vertex 15.945 0 -5
      vertex 15.945 0 5
      vertex 7.987 20.602 -5
    endloop
  endfacet
  facet normal -0.932826 -0.360326 0
    outer loop
      vertex 7.987 20.602 -5
      vertex 15.945 0 5
      vertex 7.987 20.602 5
    endloop
  endfacet
  facet normal 0 -1 0
    outer loop
      vertex 15.945 0 -5
      vertex 21.788 0 -5
      vertex 21.788 0 5
    endloop
  endfacet
  facet normal 0 -1 0
    outer loop
      vertex 15.945 0 5
      vertex 15.945 0 -5
      vertex 21.788 0 5
    endloop
  endfacet
  facet normal 0.936392 -0.350956 0
    outer loop
      vertex 21.788 0 -5
      vertex 29.351 20.179 -5
      vertex 29.351 20.179 5
    endloop
  endfacet
  facet normal 0.936392 -0.350956 0
    outer loop
      vertex 21.788 0 5
      vertex 21.788 0 -5
      vertex 29.351 20.179 5
    endloop
  endfacet
  facet normal 0.936942 -0.349485 0
    outer loop
      vertex 29.351 20.179 -5
      vertex 30.871 24.254 -5
      vertex 30.871 24.254 5
    endloop
  endfacet
  facet normal 0.936942 -0.349485 0
    outer loop
      vertex 29.351 20.179 5
      vertex 29.351 20.179 -5
      vertex 30.871 24.254 5
    endloop
  endfacet
  facet normal 0.936972 -0.349404 0
    outer loop
      vertex 30.871 24.254 -5
      vertex 32.297 28.078 -5
      vertex 32.297 28.078 5
    endloop
  endfacet
  facet normal 0.936972 -0.349404 0
    outer loop
      vertex 30.871 24.254 5
      vertex 30.871 24.254 -5
      vertex 32.297 28.078 5
    endloop
  endfacet
  facet normal 0.936979 -0.349386 0
    outer loop
      vertex 32.297 28.078 -5
      vertex 33.598 31.567 -5
      vertex 33.598 31.567 5
    endloop
  endfacet
  facet normal 0.936979 -0.349386 0
    outer loop
      vertex 32.297 28.078 5
      vertex 32.297 28.078 -5
      vertex 33.598 31.567 5
    endloop
  endfacet
  facet normal 0.937217 -0.348746 0
    outer loop
      vertex 33.598 31.567 -5
      vertex 34.74 34.636 -5
      vertex 34.74 34.636 5
    endloop
  endfacet
  facet normal 0.937217 -0.348746 0
    outer loop
      vertex 33.598 31.567 5
      vertex 33.598 31.567 -5
      vertex 34.74 34.636 5
    endloop
  endfacet
  facet normal 0.937347 -0.348398 0
    outer loop
      vertex 34.74 34.636 -5
      vertex 35.693 37.2 -5
      vertex 35.693 37.2 5
    endloop
  endfacet
  facet normal 0.937347 -0.348398 0
    outer loop
      vertex 34.74 34.636 5
      vertex 34.74 34.636 -5
      vertex 35.693 37.2 5
    endloop
  endfacet
  facet normal 0.937863 -0.347005 0
    outer loop
      vertex 35.693 37.2 -5
      vertex 36.423 39.173 -5
      vertex 36.423 39.173 5
    endloop
  endfacet
  facet normal 0.937863 -0.347005 0
    outer loop
      vertex 35.693 37.2 5
      vertex 35.693 37.2 -5
      vertex 36.423 39.173 5
    endloop
  endfacet
  facet normal 0.939413 -0.342788 0
    outer loop
      vertex 36.423 39.173 -5
      vertex 36.897 40.472 -5
      vertex 36.897 40.472 5
    endloop
  endfacet
  facet normal 0.939413 -0.342788 0
    outer loop
      vertex 36.423 39.173 5
      vertex 36.423 39.173 -5
      vertex 36.897 40.472 5
    endloop
  endfacet
  facet normal 0.943803 -0.330508 0
    outer loop
      vertex 36.897 40.472 -5
      vertex 37.084 41.006 -5
      vertex 37.084 41.006 5
    endloop
  endfacet
  facet normal 0.943803 -0.330508 0
    outer loop
      vertex 36.897 40.472 5
      vertex 36.897 40.472 -5
      vertex 37.084 41.006 5
    endloop
  endfacet
  facet normal 0.983119 -0.182969 0
    outer loop
      vertex 37.084 41.006 -5
      vertex 37.151 41.366 -5
      vertex 37.151 41.366 5
    endloop
  endfacet
  facet normal 0.983119 -0.182969 0
    outer loop
      vertex 37.084 41.006 5
      vertex 37.084 41.006 -5
      vertex 37.151 41.366 5
    endloop
  endfacet
  facet normal 0.593308 0.804975 0
    outer loop
      vertex 36.9 41.551 5
      vertex 37.151 41.366 5
      vertex 36.9 41.551 -5
    endloop
  endfacet
  facet normal 0.593308 0.804975 0
    outer loop
      vertex 36.9 41.551 -5
      vertex 37.151 41.366 5
      vertex 37.151 41.366 -5
    endloop
  endfacet
  facet normal 0.0833544 0.99652 0
    outer loop
      vertex 36.099 41.618 5
      vertex 36.9 41.551 5
      vertex 36.099 41.618 -5
    endloop
  endfacet
  facet normal 0.0833544 0.99652 0
    outer loop
      vertex 36.099 41.618 -5
      vertex 36.9 41.551 5
      vertex 36.9 41.551 -5
    endloop
  endfacet
  facet normal 0.00631699 0.99998 0
    outer loop
      vertex 34.516 41.628 5
      vertex 36.099 41.618 5
      vertex 34.516 41.628 -5
    endloop
  endfacet
  facet normal 0.00631699 0.99998 0
    outer loop
      vertex 34.516 41.628 -5
      vertex 36.099 41.618 5
      vertex 36.099 41.618 -5
    endloop
  endfacet
  facet normal 0 1 0
    outer loop
      vertex 31.75 41.628 5
      vertex 34.516 41.628 5
      vertex 31.75 41.628 -5
    endloop
  endfacet
  facet normal 0 1 0
    outer loop
      vertex 31.75 41.628 -5
      vertex 34.516 41.628 5
      vertex 34.516 41.628 -5
    endloop
  endfacet
  facet normal -0.943047 0.33266 0
    outer loop
      vertex 25.428 23.706 5
      vertex 31.75 41.628 5
      vertex 25.428 23.706 -5
    endloop
  endfacet
  facet normal -0.943047 0.33266 0
    outer loop
      vertex 25.428 23.706 -5
      vertex 31.75 41.628 5
      vertex 31.75 41.628 -5
    endloop
  endfacet
  facet normal -0.942014 0.335573 0
    outer loop
      vertex 24.147 20.11 5
      vertex 25.428 23.706 5
      vertex 24.147 20.11 -5
    endloop
  endfacet
  facet normal -0.942014 0.335573 0
    outer loop
      vertex 24.147 20.11 -5
      vertex 25.428 23.706 5
      vertex 25.428 23.706 -5
    endloop
  endfacet
  facet normal -0.941888 0.335928 0
    outer loop
      vertex 22.949 16.751 5
      vertex 24.147 20.11 5
      vertex 22.949 16.751 -5
    endloop
  endfacet
  facet normal -0.941888 0.335928 0
    outer loop
      vertex 22.949 16.751 -5
      vertex 24.147 20.11 5
      vertex 24.147 20.11 -5
    endloop
  endfacet
  facet normal -0.941195 0.337865 0
    outer loop
      vertex 21.857 13.709 5
      vertex 22.949 16.751 5
      vertex 21.857 13.709 -5
    endloop
  endfacet
  facet normal -0.941195 0.337865 0
    outer loop
      vertex 21.857 13.709 -5
      vertex 22.949 16.751 5
      vertex 22.949 16.751 -5
    endloop
  endfacet
  facet normal -0.940566 0.33961 0
    outer loop
      vertex 20.898 11.053 5
      vertex 21.857 13.709 5
      vertex 20.898 11.053 -5
    endloop
  endfacet
  facet normal -0.940566 0.33961 0
    outer loop
      vertex 20.898 11.053 -5
      vertex 21.857 13.709 5
      vertex 21.857 13.709 -5
    endloop
  endfacet
  facet normal -0.939631 0.34219 0
    outer loop
      vertex 20.099 8.859 5
      vertex 20.898 11.053 5
      vertex 20.099 8.859 -5
    endloop
  endfacet
  facet normal -0.939631 0.34219 0
    outer loop
      vertex 20.099 8.859 -5
      vertex 20.898 11.053 5
      vertex 20.898 11.053 -5
    endloop
  endfacet
  facet normal -0.937462 0.348087 0
    outer loop
      vertex 19.483 7.2 5
      vertex 20.099 8.859 5
      vertex 19.483 7.2 -5
    endloop
  endfacet
  facet normal -0.937462 0.348087 0
    outer loop
      vertex 19.483 7.2 -5
      vertex 20.099 8.859 5
      vertex 20.099 8.859 -5
    endloop
  endfacet
  facet normal -0.932771 0.36047 0
    outer loop
      vertex 19.078 6.152 5
      vertex 19.483 7.2 5
      vertex 19.078 6.152 -5
    endloop
  endfacet
  facet normal -0.932771 0.36047 0
    outer loop
      vertex 19.078 6.152 -5
      vertex 19.483 7.2 5
      vertex 19.483 7.2 -5
    endloop
  endfacet
  facet normal -0.90926 0.416228 0
    outer loop
      vertex 18.91 5.785 5
      vertex 19.078 6.152 5
      vertex 18.91 5.785 -5
    endloop
  endfacet
  facet normal -0.90926 0.416228 0
    outer loop
      vertex 18.91 5.785 -5
      vertex 19.078 6.152 5
      vertex 19.078 6.152 -5
    endloop
  endfacet
  facet normal 0.911179 0.412011 0
    outer loop
      vertex 18.754 6.13 -5
      vertex 18.754 6.13 5
      vertex 18.91 5.785 5
    endloop
  endfacet
  facet normal 0.911179 0.412011 0
    outer loop
      vertex 18.91 5.785 -5
      vertex 18.754 6.13 -5
      vertex 18.91 5.785 5
    endloop
  endfacet
  facet normal 0.932394 0.361444 0
    outer loop
      vertex 18.371 7.118 -5
      vertex 18.371 7.118 5
      vertex 18.754 6.13 5
    endloop
  endfacet
  facet normal 0.932394 0.361444 0
    outer loop
      vertex 18.754 6.13 -5
      vertex 18.371 7.118 -5
      vertex 18.754 6.13 5
    endloop
  endfacet
  facet normal 0.936132 0.351649 0
    outer loop
      vertex 17.785 8.678 -5
      vertex 17.785 8.678 5
      vertex 18.371 7.118 5
    endloop
  endfacet
  facet normal 0.936132 0.351649 0
    outer loop
      vertex 18.371 7.118 -5
      vertex 17.785 8.678 -5
      vertex 18.371 7.118 5
    endloop
  endfacet
  facet normal 0.938017 0.346589 0
    outer loop
      vertex 17.022 10.743 -5
      vertex 17.022 10.743 5
      vertex 17.785 8.678 5
    endloop
  endfacet
  facet normal 0.938017 0.346589 0
    outer loop
      vertex 17.785 8.678 -5
      vertex 17.022 10.743 -5
      vertex 17.785 8.678 5
    endloop
  endfacet
  facet normal 0.938836 0.344365 0
    outer loop
      vertex 16.105 13.243 -5
      vertex 16.105 13.243 5
      vertex 17.022 10.743 5
    endloop
  endfacet
  facet normal 0.938836 0.344365 0
    outer loop
      vertex 17.022 10.743 -5
      vertex 16.105 13.243 -5
      vertex 17.022 10.743 5
    endloop
  endfacet
  facet normal 0.939813 0.34169 0
    outer loop
      vertex 15.063 16.109 -5
      vertex 15.063 16.109 5
      vertex 16.105 13.243 5
    endloop
  endfacet
  facet normal 0.939813 0.34169 0
    outer loop
      vertex 16.105 13.243 -5
      vertex 15.063 16.109 -5
      vertex 16.105 13.243 5
    endloop
  endfacet
  facet normal 0.940477 0.339856 0
    outer loop
      vertex 13.92 19.272 -5
      vertex 13.92 19.272 5
      vertex 15.063 16.109 5
    endloop
  endfacet
  facet normal 0.940477 0.339856 0
    outer loop
      vertex 15.063 16.109 -5
      vertex 13.92 19.272 -5
      vertex 15.063 16.109 5
    endloop
  endfacet
  facet normal 0.940923 0.338621 0
    outer loop
      vertex 12.7 22.662 -5
      vertex 12.7 22.662 5
      vertex 13.92 19.272 5
    endloop
  endfacet
  facet normal 0.940923 0.338621 0
    outer loop
      vertex 13.92 19.272 -5
      vertex 12.7 22.662 -5
      vertex 13.92 19.272 5
    endloop
  endfacet
  facet normal 0.941804 0.336161 0
    outer loop
      vertex 11.485 26.066 -5
      vertex 11.485 26.066 5
      vertex 12.7 22.662 5
    endloop
  endfacet
  facet normal 0.941804 0.336161 0
    outer loop
      vertex 12.7 22.662 -5
      vertex 11.485 26.066 -5
      vertex 12.7 22.662 5
    endloop
  endfacet
  facet normal 0.941523 0.336948 0
    outer loop
      vertex 10.333 29.285 -5
      vertex 10.333 29.285 5
      vertex 11.485 26.066 5
    endloop
  endfacet
  facet normal 0.941523 0.336948 0
    outer loop
      vertex 11.485 26.066 -5
      vertex 10.333 29.285 -5
      vertex 11.485 26.066 5
    endloop
  endfacet
  facet normal 0.941252 0.337706 0
    outer loop
      vertex 9.271 32.245 -5
      vertex 9.271 32.245 5
      vertex 10.333 29.285 5
    endloop
  endfacet
  facet normal 0.941252 0.337706 0
    outer loop
      vertex 10.333 29.285 -5
      vertex 9.271 32.245 -5
      vertex 10.333 29.285 5
    endloop
  endfacet
  facet normal 0.941352 0.337425 0
    outer loop
      vertex 8.329 34.873 -5
      vertex 8.329 34.873 5
      vertex 9.271 32.245 5
    endloop
  endfacet
  facet normal 0.941352 0.337425 0
    outer loop
      vertex 9.271 32.245 -5
      vertex 8.329 34.873 -5
      vertex 9.271 32.245 5
    endloop
  endfacet
  facet normal 0.940963 0.338509 0
    outer loop
      vertex 7.53 37.094 -5
      vertex 7.53 37.094 5
      vertex 8.329 34.873 5
    endloop
  endfacet
  facet normal 0.940963 0.338509 0
    outer loop
      vertex 8.329 34.873 -5
      vertex 7.53 37.094 -5
      vertex 8.329 34.873 5
    endloop
  endfacet
  facet normal 0.940563 0.339618 0
    outer loop
      vertex 6.901 38.836 -5
      vertex 6.901 38.836 5
      vertex 7.53 37.094 5
    endloop
  endfacet
  facet normal 0.940563 0.339618 0
    outer loop
      vertex 7.53 37.094 -5
      vertex 6.901 38.836 -5
      vertex 7.53 37.094 5
    endloop
  endfacet
  facet normal 0.940301 0.340345 0
    outer loop
      vertex 6.471 40.024 -5
      vertex 6.471 40.024 5
      vertex 6.901 38.836 5
    endloop
  endfacet
  facet normal 0.940301 0.340345 0
    outer loop
      vertex 6.901 38.836 -5
      vertex 6.471 40.024 -5
      vertex 6.901 38.836 5
    endloop
  endfacet
  facet normal 0.938858 0.344304 0
    outer loop
      vertex 6.266 40.583 -5
      vertex 6.266 40.583 5
      vertex 6.471 40.024 5
    endloop
  endfacet
  facet normal 0.938858 0.344304 0
    outer loop
      vertex 6.471 40.024 -5
      vertex 6.266 40.583 -5
      vertex 6.471 40.024 5
    endloop
  endfacet
  facet normal 0.93511 0.354357 0
    outer loop
      vertex 5.87 41.628 -5
      vertex 5.87 41.628 5
      vertex 6.266 40.583 5
    endloop
  endfacet
  facet normal 0.93511 0.354357 0
    outer loop
      vertex 6.266 40.583 -5
      vertex 5.87 41.628 -5
      vertex 6.266 40.583 5
    endloop
  endfacet
  facet normal 0 1 0
    outer loop
      vertex 2.935 41.628 5
      vertex 5.87 41.628 5
      vertex 2.935 41.628 -5
    endloop
  endfacet
  facet normal 0 1 0
    outer loop
      vertex 2.935 41.628 -5
      vertex 5.87 41.628 5
      vertex 5.87 41.628 -5
    endloop
  endfacet
  facet normal -0.0123014 0.999924 0
    outer loop
      vertex 1.797 41.614 5
      vertex 2.935 41.628 5
      vertex 1.797 41.614 -5
    endloop
  endfacet
  facet normal -0.0123014 0.999924 0
    outer loop
      vertex 1.797 41.614 -5
      vertex 2.935 41.628 5
      vertex 2.935 41.628 -5
    endloop
  endfacet
  facet normal -0.0439019 0.999036 0
    outer loop
      vertex 0.864 41.573 5
      vertex 1.797 41.614 5
      vertex 0.864 41.573 -5
    endloop
  endfacet
  facet normal -0.0439019 0.999036 0
    outer loop
      vertex 0.864 41.573 -5
      vertex 1.797 41.614 5
      vertex 1.797 41.614 -5
    endloop
  endfacet
  facet normal -0.100751 0.994912 0
    outer loop
      vertex 0.232 41.509 5
      vertex 0.864 41.573 5
      vertex 0.232 41.509 -5
    endloop
  endfacet
  facet normal -0.100751 0.994912 0
    outer loop
      vertex 0.232 41.509 -5
      vertex 0.864 41.573 5
      vertex 0.864 41.573 -5
    endloop
  endfacet
endsolid OpenSCAD_Model
