solid OpenSCAD_Model
  facet normal -0.931621 -0.363431 0
    outer loop
      vertex 0.648 55.459 -5
      vertex 0.648 55.459 5
      vertex 0.167 56.692 -5
    endloop
  endfacet
  facet normal -0.931621 -0.363431 0
    outer loop
      vertex 0.167 56.692 -5
      vertex 0.648 55.459 5
      vertex 0.167 56.692 5
    endloop
  endfacet
  facet normal -0.930463 -0.366385 0
    outer loop
      vertex 1.406 53.534 -5
      vertex 1.406 53.534 5
      vertex 0.648 55.459 -5
    endloop
  endfacet
  facet normal -0.930463 -0.366385 0
    outer loop
      vertex 0.648 55.459 -5
      vertex 1.406 53.534 5
      vertex 0.648 55.459 5
    endloop
  endfacet
  facet normal 0 0 -1
    outer loop
      vertex 0.871 57.351 -5
      vertex 2.8 57.38 -5
      vertex 0 57.15 -5
    endloop
  endfacet
  facet normal 0 0 -1
    outer loop
      vertex 0 57.15 -5
      vertex 2.8 57.38 -5
      vertex 4.763 57.266 -5
    endloop
  endfacet
  facet normal 0 0 -1
    outer loop
      vertex 0 57.15 -5
      vertex 4.763 57.266 -5
      vertex 5.729 57.037 -5
    endloop
  endfacet
  facet normal 0 0 -1
    outer loop
      vertex 0 57.15 -5
      vertex 5.729 57.037 -5
      vertex 5.891 56.619 -5
    endloop
  endfacet
  facet normal 0 0 -1
    outer loop
      vertex 0 57.15 -5
      vertex 5.891 56.619 -5
      vertex 6.302 55.561 -5
    endloop
  endfacet
  facet normal 0 0 -1
    outer loop
      vertex 0 57.15 -5
      vertex 6.302 55.561 -5
      vertex 6.929 53.932 -5
    endloop
  endfacet
  facet normal 0 0 -1
    outer loop
      vertex 0 57.15 -5
      vertex 6.929 53.932 -5
      vertex 7.75 51.806 -5
    endloop
  endfacet
  facet normal 0 0 -1
    outer loop
      vertex 0 57.15 -5
      vertex 7.75 51.806 -5
      vertex 8.735 49.252 -5
    endloop
  endfacet
  facet normal 0 0 -1
    outer loop
      vertex 8.735 49.252 -5
      vertex 9.86 46.342 -5
      vertex 0 57.15 -5
    endloop
  endfacet
  facet normal 0 0 -1
    outer loop
      vertex 9.86 46.342 -5
      vertex 11.096 43.147 -5
      vertex 0 57.15 -5
    endloop
  endfacet
  facet normal 0 0 -1
    outer loop
      vertex 11.096 43.147 -5
      vertex 12.418 39.737 -5
      vertex 0 57.15 -5
    endloop
  endfacet
  facet normal 0 0 -1
    outer loop
      vertex 0 57.15 -5
      vertex 12.418 39.737 -5
      vertex 13.731 36.332 -5
    endloop
  endfacet
  facet normal 0 0 -1
    outer loop
      vertex 0 57.15 -5
      vertex 13.731 36.332 -5
      vertex 14.967 33.147 -5
    endloop
  endfacet
  facet normal 0 0 -1
    outer loop
      vertex 14.967 33.147 -5
      vertex 16.096 30.253 -5
      vertex 0 57.15 -5
    endloop
  endfacet
  facet normal 0 0 -1
    outer loop
      vertex 16.096 30.253 -5
      vertex 17.088 27.722 -5
      vertex 0 57.15 -5
    endloop
  endfacet
  facet normal 0 0 -1
    outer loop
      vertex 17.088 27.722 -5
      vertex 17.916 25.621 -5
      vertex 0 57.15 -5
    endloop
  endfacet
  facet normal 0 0 -1
    outer loop
      vertex 17.916 25.621 -5
      vertex 18.552 24.021 -5
      vertex 0 57.15 -5
    endloop
  endfacet
  facet normal 0 0 -1
    outer loop
      vertex 18.552 24.021 -5
      vertex 18.967 22.993 -5
      vertex 0 57.15 -5
    endloop
  endfacet
  facet normal 0 0 -1
    outer loop
      vertex 18.967 22.993 -5
      vertex 19.134 22.605 -5
      vertex 0 57.15 -5
    endloop
  endfacet
  facet normal 0 0 -1
    outer loop
      vertex 19.712 23.909 -5
      vertex 34.629 57.376 -5
      vertex 19.304 22.922 -5
    endloop
  endfacet
  facet normal 0 0 -1
    outer loop
      vertex 20.33 25.492 -5
      vertex 34.629 57.376 -5
      vertex 19.712 23.909 -5
    endloop
  endfacet
  facet normal 0 0 -1
    outer loop
      vertex 21.134 27.602 -5
      vertex 34.629 57.376 -5
      vertex 20.33 25.492 -5
    endloop
  endfacet
  facet normal 0 0 -1
    outer loop
      vertex 22.094 30.167 -5
      vertex 34.629 57.376 -5
      vertex 21.134 27.602 -5
    endloop
  endfacet
  facet normal 0 0 -1
    outer loop
      vertex 23.186 33.116 -5
      vertex 34.629 57.376 -5
      vertex 22.094 30.167 -5
    endloop
  endfacet
  facet normal 0 0 -1
    outer loop
      vertex 24.38 36.376 -5
      vertex 34.629 57.376 -5
      vertex 23.186 33.116 -5
    endloop
  endfacet
  facet normal 0 0 -1
    outer loop
      vertex 25.654 39.878 -5
      vertex 31.976 57.376 -5
      vertex 34.629 57.376 -5
    endloop
  endfacet
  facet normal 0 0 -1
    outer loop
      vertex 25.654 39.878 -5
      vertex 34.629 57.376 -5
      vertex 24.38 36.376 -5
    endloop
  endfacet
  facet normal 0 0 -1
    outer loop
      vertex 19.304 22.922 -5
      vertex 34.629 57.376 -5
      vertex 35.646 57.357 -5
    endloop
  endfacet
  facet normal 0 0 -1
    outer loop
      vertex 19.304 22.922 -5
      vertex 35.646 57.357 -5
      vertex 36.481 57.303 -5
    endloop
  endfacet
  facet normal 0 0 -1
    outer loop
      vertex 19.304 22.922 -5
      vertex 36.481 57.303 -5
      vertex 37.046 57.222 -5
    endloop
  endfacet
  facet normal 0 0 -1
    outer loop
      vertex 19.304 22.922 -5
      vertex 37.046 57.222 -5
      vertex 37.254 57.121 -5
    endloop
  endfacet
  facet normal 0 0 -1
    outer loop
      vertex 19.304 22.922 -5
      vertex 37.254 57.121 -5
      vertex 37.046 56.476 -5
    endloop
  endfacet
  facet normal 0 0 -1
    outer loop
      vertex 19.304 22.922 -5
      vertex 37.046 56.476 -5
      vertex 36.459 54.842 -5
    endloop
  endfacet
  facet normal 0 0 -1
    outer loop
      vertex 19.304 22.922 -5
      vertex 36.459 54.842 -5
      vertex 19.134 22.605 -5
    endloop
  endfacet
  facet normal 0 0 -1
    outer loop
      vertex 19.134 22.605 -5
      vertex 36.459 54.842 -5
      vertex 35.544 52.359 -5
    endloop
  endfacet
  facet normal 0 0 -1
    outer loop
      vertex 19.134 22.605 -5
      vertex 35.544 52.359 -5
      vertex 34.353 49.164 -5
    endloop
  endfacet
  facet normal 0 0 -1
    outer loop
      vertex 19.134 22.605 -5
      vertex 34.353 49.164 -5
      vertex 32.941 45.398 -5
    endloop
  endfacet
  facet normal 0 0 -1
    outer loop
      vertex 19.134 22.605 -5
      vertex 32.941 45.398 -5
      vertex 31.36 41.198 -5
    endloop
  endfacet
  facet normal 0 0 -1
    outer loop
      vertex 19.134 22.605 -5
      vertex 31.36 41.198 -5
      vertex 29.661 36.703 -5
    endloop
  endfacet
  facet normal 0 0 -1
    outer loop
      vertex 19.134 22.605 -5
      vertex 29.661 36.703 -5
      vertex 27.897 32.05 -5
    endloop
  endfacet
  facet normal 0 0 -1
    outer loop
      vertex 19.134 22.605 -5
      vertex 27.897 32.05 -5
      vertex 26.122 27.38 -5
    endloop
  endfacet
  facet normal 0 0 -1
    outer loop
      vertex 19.134 22.605 -5
      vertex 26.122 27.38 -5
      vertex 24.387 22.83 -5
    endloop
  endfacet
  facet normal 0 0 -1
    outer loop
      vertex 19.134 22.605 -5
      vertex 24.387 22.83 -5
      vertex 22.746 18.539 -5
    endloop
  endfacet
  facet normal 0 0 -1
    outer loop
      vertex 19.134 22.605 -5
      vertex 22.746 18.539 -5
      vertex 21.251 14.644 -5
    endloop
  endfacet
  facet normal 0 0 -1
    outer loop
      vertex 19.134 22.605 -5
      vertex 21.251 14.644 -5
      vertex 0 57.15 -5
    endloop
  endfacet
  facet normal 0 0 -1
    outer loop
      vertex 0 57.15 -5
      vertex 21.251 14.644 -5
      vertex 19.954 11.288 -5
    endloop
  endfacet
  facet normal 0 0 -1
    outer loop
      vertex 16.368 15.55 -5
      vertex 19.954 11.288 -5
      vertex 18.908 8.604 -5
    endloop
  endfacet
  facet normal 0 0 -1
    outer loop
      vertex 16.09 14.497 -5
      vertex 18.908 8.604 -5
      vertex 18.165 6.733 -5
    endloop
  endfacet
  facet normal 0 0 -1
    outer loop
      vertex 14.582 10.483 -5
      vertex 17.779 5.814 -5
      vertex 16.079 2.997 -5
    endloop
  endfacet
  facet normal 0 0 -1
    outer loop
      vertex 13.091 7.487 -5
      vertex 16.079 2.997 -5
      vertex 14.082 1.203 -5
    endloop
  endfacet
  facet normal 0 0 -1
    outer loop
      vertex 10.64 5.136 -5
      vertex 14.082 1.203 -5
      vertex 11.493 0.262 -5
    endloop
  endfacet
  facet normal 0 0 -1
    outer loop
      vertex 8.21 4.61 -5
      vertex 11.493 0.262 -5
      vertex 8.015 0 -5
    endloop
  endfacet
  facet normal 0 0 -1
    outer loop
      vertex 6.717 4.656 -5
      vertex 8.015 0 -5
      vertex 6.649 0.012 -5
    endloop
  endfacet
  facet normal 0 0 -1
    outer loop
      vertex 3.951 4.798 -5
      vertex 4.426 0.325 -5
      vertex 4.142 0.63 -5
    endloop
  endfacet
  facet normal 0 0 -1
    outer loop
      vertex 3.951 2.596 -5
      vertex 4.142 0.63 -5
      vertex 4.002 1.087 -5
    endloop
  endfacet
  facet normal 0 0 -1
    outer loop
      vertex 6.717 4.656 -5
      vertex 5.629 0.048 -5
      vertex 4.906 0.142 -5
    endloop
  endfacet
  facet normal 0 0 -1
    outer loop
      vertex 3.951 4.798 -5
      vertex 4.142 0.63 -5
      vertex 3.951 2.596 -5
    endloop
  endfacet
  facet normal 0 0 -1
    outer loop
      vertex 6.717 4.656 -5
      vertex 6.649 0.012 -5
      vertex 5.629 0.048 -5
    endloop
  endfacet
  facet normal 0 0 -1
    outer loop
      vertex 8.21 4.61 -5
      vertex 8.015 0 -5
      vertex 6.717 4.656 -5
    endloop
  endfacet
  facet normal 0 0 -1
    outer loop
      vertex 9.207 4.654 -5
      vertex 11.493 0.262 -5
      vertex 8.21 4.61 -5
    endloop
  endfacet
  facet normal 0 0 -1
    outer loop
      vertex 10.64 5.136 -5
      vertex 11.493 0.262 -5
      vertex 9.94 4.819 -5
    endloop
  endfacet
  facet normal 0 0 -1
    outer loop
      vertex 9.94 4.819 -5
      vertex 11.493 0.262 -5
      vertex 9.207 4.654 -5
    endloop
  endfacet
  facet normal 0 0 -1
    outer loop
      vertex 11.534 5.698 -5
      vertex 14.082 1.203 -5
      vertex 10.64 5.136 -5
    endloop
  endfacet
  facet normal 0 0 -1
    outer loop
      vertex 13.091 7.487 -5
      vertex 14.082 1.203 -5
      vertex 12.339 6.471 -5
    endloop
  endfacet
  facet normal 0 0 -1
    outer loop
      vertex 12.339 6.471 -5
      vertex 14.082 1.203 -5
      vertex 11.534 5.698 -5
    endloop
  endfacet
  facet normal 0 0 -1
    outer loop
      vertex 13.829 8.777 -5
      vertex 16.079 2.997 -5
      vertex 13.091 7.487 -5
    endloop
  endfacet
  facet normal 0 0 -1
    outer loop
      vertex 14.582 10.483 -5
      vertex 16.079 2.997 -5
      vertex 13.829 8.777 -5
    endloop
  endfacet
  facet normal 0 0 -1
    outer loop
      vertex 16.09 14.497 -5
      vertex 17.779 5.814 -5
      vertex 15.416 12.598 -5
    endloop
  endfacet
  facet normal 0 0 -1
    outer loop
      vertex 15.416 12.598 -5
      vertex 17.779 5.814 -5
      vertex 14.582 10.483 -5
    endloop
  endfacet
  facet normal 0 0 -1
    outer loop
      vertex 16.09 14.497 -5
      vertex 18.165 6.733 -5
      vertex 17.779 5.814 -5
    endloop
  endfacet
  facet normal 0 0 -1
    outer loop
      vertex 16.368 15.55 -5
      vertex 18.908 8.604 -5
      vertex 16.09 14.497 -5
    endloop
  endfacet
  facet normal 0 0 -1
    outer loop
      vertex 16.202 16.069 -5
      vertex 19.954 11.288 -5
      vertex 16.368 15.55 -5
    endloop
  endfacet
  facet normal 0 0 -1
    outer loop
      vertex 8.184 36.492 -5
      vertex 0 57.15 -5
      vertex 9.832 32.371 -5
    endloop
  endfacet
  facet normal 0 0 -1
    outer loop
      vertex 15.723 17.358 -5
      vertex 19.954 11.288 -5
      vertex 16.202 16.069 -5
    endloop
  endfacet
  facet normal 0 0 -1
    outer loop
      vertex 14.968 19.331 -5
      vertex 19.954 11.288 -5
      vertex 15.723 17.358 -5
    endloop
  endfacet
  facet normal 0 0 -1
    outer loop
      vertex 13.969 21.904 -5
      vertex 19.954 11.288 -5
      vertex 14.968 19.331 -5
    endloop
  endfacet
  facet normal 0 0 -1
    outer loop
      vertex 12.758 24.992 -5
      vertex 19.954 11.288 -5
      vertex 13.969 21.904 -5
    endloop
  endfacet
  facet normal 0 0 -1
    outer loop
      vertex 11.368 28.509 -5
      vertex 19.954 11.288 -5
      vertex 12.758 24.992 -5
    endloop
  endfacet
  facet normal 0 0 -1
    outer loop
      vertex 0 57.15 -5
      vertex 19.954 11.288 -5
      vertex 11.368 28.509 -5
    endloop
  endfacet
  facet normal 0 0 -1
    outer loop
      vertex 0 57.15 -5
      vertex 11.368 28.509 -5
      vertex 9.832 32.371 -5
    endloop
  endfacet
  facet normal 0 0 -1
    outer loop
      vertex 6.543 40.608 -5
      vertex 0 57.15 -5
      vertex 8.184 36.492 -5
    endloop
  endfacet
  facet normal 0 0 -1
    outer loop
      vertex 5.012 44.454 -5
      vertex 0 57.15 -5
      vertex 6.543 40.608 -5
    endloop
  endfacet
  facet normal 0 0 -1
    outer loop
      vertex 3.623 47.947 -5
      vertex 0 57.15 -5
      vertex 5.012 44.454 -5
    endloop
  endfacet
  facet normal 0 0 -1
    outer loop
      vertex 2.409 51.001 -5
      vertex 0 57.15 -5
      vertex 3.623 47.947 -5
    endloop
  endfacet
  facet normal 0 0 -1
    outer loop
      vertex 0.167 56.692 -5
      vertex 0 57.15 -5
      vertex 0.648 55.459 -5
    endloop
  endfacet
  facet normal 0 0 -1
    outer loop
      vertex 0 57.15 -5
      vertex 1.406 53.534 -5
      vertex 0.648 55.459 -5
    endloop
  endfacet
  facet normal 0 0 -1
    outer loop
      vertex 1.406 53.534 -5
      vertex 0 57.15 -5
      vertex 2.409 51.001 -5
    endloop
  endfacet
  facet normal 0 0 -1
    outer loop
      vertex 3.951 2.596 -5
      vertex 4.002 1.087 -5
      vertex 3.955 1.732 -5
    endloop
  endfacet
  facet normal 0 0 -1
    outer loop
      vertex 6.717 4.656 -5
      vertex 4.906 0.142 -5
      vertex 4.426 0.325 -5
    endloop
  endfacet
  facet normal 0 0 -1
    outer loop
      vertex 6.717 4.656 -5
      vertex 4.426 0.325 -5
      vertex 3.951 4.798 -5
    endloop
  endfacet
  facet normal -0.939494 -0.342566 0
    outer loop
      vertex 0.167 56.692 -5
      vertex 0.167 56.692 5
      vertex 0 57.15 -5
    endloop
  endfacet
  facet normal -0.939494 -0.342566 0
    outer loop
      vertex 0 57.15 -5
      vertex 0.167 56.692 5
      vertex 0 57.15 5
    endloop
  endfacet
  facet normal 0 0 1
    outer loop
      vertex 15.416 12.598 5
      vertex 11.493 0.262 5
      vertex 16.09 14.497 5
    endloop
  endfacet
  facet normal 0 0 1
    outer loop
      vertex 0 57.15 5
      vertex 0.167 56.692 5
      vertex 0.648 55.459 5
    endloop
  endfacet
  facet normal 0 0 1
    outer loop
      vertex 2.409 51.001 5
      vertex 0 57.15 5
      vertex 1.406 53.534 5
    endloop
  endfacet
  facet normal 0 0 1
    outer loop
      vertex 1.406 53.534 5
      vertex 0 57.15 5
      vertex 0.648 55.459 5
    endloop
  endfacet
  facet normal 0 0 1
    outer loop
      vertex 3.623 47.947 5
      vertex 0 57.15 5
      vertex 2.409 51.001 5
    endloop
  endfacet
  facet normal 0 0 1
    outer loop
      vertex 5.012 44.454 5
      vertex 0 57.15 5
      vertex 3.623 47.947 5
    endloop
  endfacet
  facet normal 0 0 1
    outer loop
      vertex 6.543 40.608 5
      vertex 0 57.15 5
      vertex 5.012 44.454 5
    endloop
  endfacet
  facet normal 0 0 1
    outer loop
      vertex 8.184 36.492 5
      vertex 0 57.15 5
      vertex 6.543 40.608 5
    endloop
  endfacet
  facet normal 0 0 1
    outer loop
      vertex 9.832 32.371 5
      vertex 0 57.15 5
      vertex 8.184 36.492 5
    endloop
  endfacet
  facet normal 0 0 1
    outer loop
      vertex 11.368 28.509 5
      vertex 0 57.15 5
      vertex 9.832 32.371 5
    endloop
  endfacet
  facet normal 0 0 1
    outer loop
      vertex 19.954 11.288 5
      vertex 0 57.15 5
      vertex 11.368 28.509 5
    endloop
  endfacet
  facet normal 0 0 1
    outer loop
      vertex 19.954 11.288 5
      vertex 11.368 28.509 5
      vertex 12.758 24.992 5
    endloop
  endfacet
  facet normal 0 0 1
    outer loop
      vertex 19.954 11.288 5
      vertex 12.758 24.992 5
      vertex 13.969 21.904 5
    endloop
  endfacet
  facet normal 0 0 1
    outer loop
      vertex 19.954 11.288 5
      vertex 13.969 21.904 5
      vertex 14.968 19.331 5
    endloop
  endfacet
  facet normal 0 0 1
    outer loop
      vertex 19.954 11.288 5
      vertex 14.968 19.331 5
      vertex 15.723 17.358 5
    endloop
  endfacet
  facet normal 0 0 1
    outer loop
      vertex 19.954 11.288 5
      vertex 15.723 17.358 5
      vertex 16.202 16.069 5
    endloop
  endfacet
  facet normal 0 0 1
    outer loop
      vertex 18.908 8.604 5
      vertex 16.202 16.069 5
      vertex 16.368 15.55 5
    endloop
  endfacet
  facet normal 0 0 1
    outer loop
      vertex 14.082 1.203 5
      vertex 16.368 15.55 5
      vertex 16.09 14.497 5
    endloop
  endfacet
  facet normal 0 0 1
    outer loop
      vertex 15.416 12.598 5
      vertex 14.582 10.483 5
      vertex 11.493 0.262 5
    endloop
  endfacet
  facet normal 0 0 1
    outer loop
      vertex 14.582 10.483 5
      vertex 13.829 8.777 5
      vertex 11.493 0.262 5
    endloop
  endfacet
  facet normal 0 0 1
    outer loop
      vertex 13.829 8.777 5
      vertex 13.091 7.487 5
      vertex 11.493 0.262 5
    endloop
  endfacet
  facet normal 0 0 1
    outer loop
      vertex 13.091 7.487 5
      vertex 12.339 6.471 5
      vertex 8.015 0 5
    endloop
  endfacet
  facet normal 0 0 1
    outer loop
      vertex 12.339 6.471 5
      vertex 11.534 5.698 5
      vertex 6.649 0.012 5
    endloop
  endfacet
  facet normal 0 0 1
    outer loop
      vertex 11.534 5.698 5
      vertex 10.64 5.136 5
      vertex 4.142 0.63 5
    endloop
  endfacet
  facet normal 0 0 1
    outer loop
      vertex 10.64 5.136 5
      vertex 9.94 4.819 5
      vertex 3.955 1.732 5
    endloop
  endfacet
  facet normal 0 0 1
    outer loop
      vertex 9.94 4.819 5
      vertex 9.207 4.654 5
      vertex 3.951 2.596 5
    endloop
  endfacet
  facet normal 0 0 1
    outer loop
      vertex 9.207 4.654 5
      vertex 8.21 4.61 5
      vertex 3.951 2.596 5
    endloop
  endfacet
  facet normal 0 0 1
    outer loop
      vertex 8.21 4.61 5
      vertex 6.717 4.656 5
      vertex 3.951 2.596 5
    endloop
  endfacet
  facet normal 0 0 1
    outer loop
      vertex 6.717 4.656 5
      vertex 3.951 4.798 5
      vertex 3.951 2.596 5
    endloop
  endfacet
  facet normal 0 0 1
    outer loop
      vertex 9.94 4.819 5
      vertex 3.951 2.596 5
      vertex 3.955 1.732 5
    endloop
  endfacet
  facet normal 0 0 1
    outer loop
      vertex 10.64 5.136 5
      vertex 3.955 1.732 5
      vertex 4.002 1.087 5
    endloop
  endfacet
  facet normal 0 0 1
    outer loop
      vertex 10.64 5.136 5
      vertex 4.002 1.087 5
      vertex 4.142 0.63 5
    endloop
  endfacet
  facet normal 0 0 1
    outer loop
      vertex 11.534 5.698 5
      vertex 4.142 0.63 5
      vertex 4.426 0.325 5
    endloop
  endfacet
  facet normal 0 0 1
    outer loop
      vertex 11.534 5.698 5
      vertex 4.426 0.325 5
      vertex 4.906 0.142 5
    endloop
  endfacet
  facet normal 0 0 1
    outer loop
      vertex 11.534 5.698 5
      vertex 4.906 0.142 5
      vertex 5.629 0.048 5
    endloop
  endfacet
  facet normal 0 0 1
    outer loop
      vertex 11.534 5.698 5
      vertex 5.629 0.048 5
      vertex 6.649 0.012 5
    endloop
  endfacet
  facet normal 0 0 1
    outer loop
      vertex 12.339 6.471 5
      vertex 6.649 0.012 5
      vertex 8.015 0 5
    endloop
  endfacet
  facet normal 0 0 1
    outer loop
      vertex 13.091 7.487 5
      vertex 8.015 0 5
      vertex 11.493 0.262 5
    endloop
  endfacet
  facet normal 0 0 1
    outer loop
      vertex 16.09 14.497 5
      vertex 11.493 0.262 5
      vertex 14.082 1.203 5
    endloop
  endfacet
  facet normal 0 0 1
    outer loop
      vertex 16.368 15.55 5
      vertex 14.082 1.203 5
      vertex 16.079 2.997 5
    endloop
  endfacet
  facet normal 0 0 1
    outer loop
      vertex 16.368 15.55 5
      vertex 16.079 2.997 5
      vertex 17.779 5.814 5
    endloop
  endfacet
  facet normal 0 0 1
    outer loop
      vertex 16.368 15.55 5
      vertex 17.779 5.814 5
      vertex 18.165 6.733 5
    endloop
  endfacet
  facet normal 0 0 1
    outer loop
      vertex 16.368 15.55 5
      vertex 18.165 6.733 5
      vertex 18.908 8.604 5
    endloop
  endfacet
  facet normal 0 0 1
    outer loop
      vertex 16.202 16.069 5
      vertex 18.908 8.604 5
      vertex 19.954 11.288 5
    endloop
  endfacet
  facet normal 0 0 1
    outer loop
      vertex 0 57.15 5
      vertex 19.954 11.288 5
      vertex 21.251 14.644 5
    endloop
  endfacet
  facet normal 0 0 1
    outer loop
      vertex 19.304 22.922 5
      vertex 21.251 14.644 5
      vertex 22.746 18.539 5
    endloop
  endfacet
  facet normal 0 0 1
    outer loop
      vertex 20.33 25.492 5
      vertex 22.746 18.539 5
      vertex 24.387 22.83 5
    endloop
  endfacet
  facet normal 0 0 1
    outer loop
      vertex 22.094 30.167 5
      vertex 24.387 22.83 5
      vertex 26.122 27.38 5
    endloop
  endfacet
  facet normal 0 0 1
    outer loop
      vertex 23.186 33.116 5
      vertex 26.122 27.38 5
      vertex 27.897 32.05 5
    endloop
  endfacet
  facet normal 0 0 1
    outer loop
      vertex 24.38 36.376 5
      vertex 27.897 32.05 5
      vertex 29.661 36.703 5
    endloop
  endfacet
  facet normal 0 0 1
    outer loop
      vertex 25.654 39.878 5
      vertex 29.661 36.703 5
      vertex 31.36 41.198 5
    endloop
  endfacet
  facet normal 0 0 1
    outer loop
      vertex 25.654 39.878 5
      vertex 24.38 36.376 5
      vertex 29.661 36.703 5
    endloop
  endfacet
  facet normal 0 0 1
    outer loop
      vertex 5.729 57.037 5
      vertex 4.763 57.266 5
      vertex 0 57.15 5
    endloop
  endfacet
  facet normal 0 0 1
    outer loop
      vertex 24.38 36.376 5
      vertex 23.186 33.116 5
      vertex 27.897 32.05 5
    endloop
  endfacet
  facet normal 0 0 1
    outer loop
      vertex 7.75 51.806 5
      vertex 6.929 53.932 5
      vertex 0 57.15 5
    endloop
  endfacet
  facet normal 0 0 1
    outer loop
      vertex 23.186 33.116 5
      vertex 22.094 30.167 5
      vertex 26.122 27.38 5
    endloop
  endfacet
  facet normal 0 0 1
    outer loop
      vertex 13.731 36.332 5
      vertex 12.418 39.737 5
      vertex 0 57.15 5
    endloop
  endfacet
  facet normal 0 0 1
    outer loop
      vertex 21.134 27.602 5
      vertex 24.387 22.83 5
      vertex 22.094 30.167 5
    endloop
  endfacet
  facet normal 0 0 1
    outer loop
      vertex 19.712 23.909 5
      vertex 19.304 22.922 5
      vertex 22.746 18.539 5
    endloop
  endfacet
  facet normal 0 0 1
    outer loop
      vertex 19.712 23.909 5
      vertex 22.746 18.539 5
      vertex 20.33 25.492 5
    endloop
  endfacet
  facet normal 0 0 1
    outer loop
      vertex 19.134 22.605 5
      vertex 21.251 14.644 5
      vertex 19.304 22.922 5
    endloop
  endfacet
  facet normal 0 0 1
    outer loop
      vertex 0 57.15 5
      vertex 21.251 14.644 5
      vertex 19.134 22.605 5
    endloop
  endfacet
  facet normal 0 0 1
    outer loop
      vertex 0 57.15 5
      vertex 19.134 22.605 5
      vertex 18.967 22.993 5
    endloop
  endfacet
  facet normal 0 0 1
    outer loop
      vertex 17.088 27.722 5
      vertex 16.096 30.253 5
      vertex 0 57.15 5
    endloop
  endfacet
  facet normal 0 0 1
    outer loop
      vertex 0 57.15 5
      vertex 18.967 22.993 5
      vertex 18.552 24.021 5
    endloop
  endfacet
  facet normal 0 0 1
    outer loop
      vertex 18.552 24.021 5
      vertex 17.916 25.621 5
      vertex 0 57.15 5
    endloop
  endfacet
  facet normal 0 0 1
    outer loop
      vertex 0 57.15 5
      vertex 17.916 25.621 5
      vertex 17.088 27.722 5
    endloop
  endfacet
  facet normal 0 0 1
    outer loop
      vertex 12.418 39.737 5
      vertex 11.096 43.147 5
      vertex 0 57.15 5
    endloop
  endfacet
  facet normal 0 0 1
    outer loop
      vertex 0 57.15 5
      vertex 16.096 30.253 5
      vertex 14.967 33.147 5
    endloop
  endfacet
  facet normal 0 0 1
    outer loop
      vertex 14.967 33.147 5
      vertex 13.731 36.332 5
      vertex 0 57.15 5
    endloop
  endfacet
  facet normal 0 0 1
    outer loop
      vertex 11.096 43.147 5
      vertex 9.86 46.342 5
      vertex 0 57.15 5
    endloop
  endfacet
  facet normal 0 0 1
    outer loop
      vertex 9.86 46.342 5
      vertex 8.735 49.252 5
      vertex 0 57.15 5
    endloop
  endfacet
  facet normal 0 0 1
    outer loop
      vertex 8.735 49.252 5
      vertex 7.75 51.806 5
      vertex 0 57.15 5
    endloop
  endfacet
  facet normal 0 0 1
    outer loop
      vertex 21.134 27.602 5
      vertex 20.33 25.492 5
      vertex 24.387 22.83 5
    endloop
  endfacet
  facet normal 0 0 1
    outer loop
      vertex 0 57.15 5
      vertex 4.763 57.266 5
      vertex 2.8 57.38 5
    endloop
  endfacet
  facet normal 0 0 1
    outer loop
      vertex 0 57.15 5
      vertex 2.8 57.38 5
      vertex 0.871 57.351 5
    endloop
  endfacet
  facet normal 0 0 1
    outer loop
      vertex 6.929 53.932 5
      vertex 6.302 55.561 5
      vertex 0 57.15 5
    endloop
  endfacet
  facet normal 0 0 1
    outer loop
      vertex 6.302 55.561 5
      vertex 5.891 56.619 5
      vertex 0 57.15 5
    endloop
  endfacet
  facet normal 0 0 1
    outer loop
      vertex 5.891 56.619 5
      vertex 5.729 57.037 5
      vertex 0 57.15 5
    endloop
  endfacet
  facet normal 0 0 1
    outer loop
      vertex 31.976 57.376 5
      vertex 35.646 57.357 5
      vertex 34.629 57.376 5
    endloop
  endfacet
  facet normal 0 0 1
    outer loop
      vertex 31.976 57.376 5
      vertex 36.481 57.303 5
      vertex 35.646 57.357 5
    endloop
  endfacet
  facet normal 0 0 1
    outer loop
      vertex 31.976 57.376 5
      vertex 37.046 57.222 5
      vertex 36.481 57.303 5
    endloop
  endfacet
  facet normal 0 0 1
    outer loop
      vertex 31.976 57.376 5
      vertex 37.254 57.121 5
      vertex 37.046 57.222 5
    endloop
  endfacet
  facet normal 0 0 1
    outer loop
      vertex 31.976 57.376 5
      vertex 37.046 56.476 5
      vertex 37.254 57.121 5
    endloop
  endfacet
  facet normal 0 0 1
    outer loop
      vertex 31.976 57.376 5
      vertex 36.459 54.842 5
      vertex 37.046 56.476 5
    endloop
  endfacet
  facet normal 0 0 1
    outer loop
      vertex 31.976 57.376 5
      vertex 35.544 52.359 5
      vertex 36.459 54.842 5
    endloop
  endfacet
  facet normal 0 0 1
    outer loop
      vertex 31.976 57.376 5
      vertex 34.353 49.164 5
      vertex 35.544 52.359 5
    endloop
  endfacet
  facet normal 0 0 1
    outer loop
      vertex 31.976 57.376 5
      vertex 32.941 45.398 5
      vertex 34.353 49.164 5
    endloop
  endfacet
  facet normal 0 0 1
    outer loop
      vertex 31.976 57.376 5
      vertex 31.36 41.198 5
      vertex 32.941 45.398 5
    endloop
  endfacet
  facet normal 0 0 1
    outer loop
      vertex 31.976 57.376 5
      vertex 25.654 39.878 5
      vertex 31.36 41.198 5
    endloop
  endfacet
  facet normal -0.929762 -0.368161 0
    outer loop
      vertex 2.409 51.001 -5
      vertex 2.409 51.001 5
      vertex 1.406 53.534 -5
    endloop
  endfacet
  facet normal -0.929762 -0.368161 0
    outer loop
      vertex 1.406 53.534 -5
      vertex 2.409 51.001 5
      vertex 1.406 53.534 5
    endloop
  endfacet
  facet normal -0.22486 0.974391 0
    outer loop
      vertex 0 57.15 5
      vertex 0.871 57.351 5
      vertex 0 57.15 -5
    endloop
  endfacet
  facet normal -0.22486 0.974391 0
    outer loop
      vertex 0 57.15 -5
      vertex 0.871 57.351 5
      vertex 0.871 57.351 -5
    endloop
  endfacet
  facet normal -0.929272 -0.369396 0
    outer loop
      vertex 3.623 47.947 -5
      vertex 3.623 47.947 5
      vertex 2.409 51.001 -5
    endloop
  endfacet
  facet normal -0.929272 -0.369396 0
    outer loop
      vertex 2.409 51.001 -5
      vertex 3.623 47.947 5
      vertex 2.409 51.001 5
    endloop
  endfacet
  facet normal -0.929227 -0.369509 0
    outer loop
      vertex 5.012 44.454 -5
      vertex 5.012 44.454 5
      vertex 3.623 47.947 -5
    endloop
  endfacet
  facet normal -0.929227 -0.369509 0
    outer loop
      vertex 3.623 47.947 -5
      vertex 5.012 44.454 5
      vertex 3.623 47.947 5
    endloop
  endfacet
  facet normal -0.929092 -0.369849 0
    outer loop
      vertex 6.543 40.608 -5
      vertex 6.543 40.608 5
      vertex 5.012 44.454 -5
    endloop
  endfacet
  facet normal -0.929092 -0.369849 0
    outer loop
      vertex 5.012 44.454 -5
      vertex 6.543 40.608 5
      vertex 5.012 44.454 5
    endloop
  endfacet
  facet normal -0.928896 -0.37034 0
    outer loop
      vertex 8.184 36.492 -5
      vertex 8.184 36.492 5
      vertex 6.543 40.608 -5
    endloop
  endfacet
  facet normal -0.928896 -0.37034 0
    outer loop
      vertex 6.543 40.608 -5
      vertex 8.184 36.492 5
      vertex 6.543 40.608 5
    endloop
  endfacet
  facet normal -0.928508 -0.371313 0
    outer loop
      vertex 9.832 32.371 -5
      vertex 9.832 32.371 5
      vertex 8.184 36.492 -5
    endloop
  endfacet
  facet normal -0.928508 -0.371313 0
    outer loop
      vertex 8.184 36.492 -5
      vertex 9.832 32.371 5
      vertex 8.184 36.492 5
    endloop
  endfacet
  facet normal -0.929205 -0.369565 0
    outer loop
      vertex 11.368 28.509 -5
      vertex 11.368 28.509 5
      vertex 9.832 32.371 -5
    endloop
  endfacet
  facet normal -0.929205 -0.369565 0
    outer loop
      vertex 9.832 32.371 -5
      vertex 11.368 28.509 5
      vertex 9.832 32.371 5
    endloop
  endfacet
  facet normal -0.930001 -0.367558 0
    outer loop
      vertex 12.758 24.992 -5
      vertex 12.758 24.992 5
      vertex 11.368 28.509 -5
    endloop
  endfacet
  facet normal -0.930001 -0.367558 0
    outer loop
      vertex 11.368 28.509 -5
      vertex 12.758 24.992 5
      vertex 11.368 28.509 5
    endloop
  endfacet
  facet normal -0.930971 -0.365093 0
    outer loop
      vertex 13.969 21.904 -5
      vertex 13.969 21.904 5
      vertex 12.758 24.992 -5
    endloop
  endfacet
  facet normal -0.930971 -0.365093 0
    outer loop
      vertex 12.758 24.992 -5
      vertex 13.969 21.904 5
      vertex 12.758 24.992 5
    endloop
  endfacet
  facet normal -0.932202 -0.361939 0
    outer loop
      vertex 14.968 19.331 -5
      vertex 14.968 19.331 5
      vertex 13.969 21.904 -5
    endloop
  endfacet
  facet normal -0.932202 -0.361939 0
    outer loop
      vertex 13.969 21.904 -5
      vertex 14.968 19.331 5
      vertex 13.969 21.904 5
    endloop
  endfacet
  facet normal -0.933954 -0.357393 0
    outer loop
      vertex 15.723 17.358 -5
      vertex 15.723 17.358 5
      vertex 14.968 19.331 -5
    endloop
  endfacet
  facet normal -0.933954 -0.357393 0
    outer loop
      vertex 14.968 19.331 -5
      vertex 15.723 17.358 5
      vertex 14.968 19.331 5
    endloop
  endfacet
  facet normal -0.937371 -0.348333 0
    outer loop
      vertex 16.202 16.069 -5
      vertex 16.202 16.069 5
      vertex 15.723 17.358 -5
    endloop
  endfacet
  facet normal -0.937371 -0.348333 0
    outer loop
      vertex 15.723 17.358 -5
      vertex 16.202 16.069 5
      vertex 15.723 17.358 5
    endloop
  endfacet
  facet normal -0.952467 -0.304643 0
    outer loop
      vertex 16.368 15.55 -5
      vertex 16.368 15.55 5
      vertex 16.202 16.069 -5
    endloop
  endfacet
  facet normal -0.952467 -0.304643 0
    outer loop
      vertex 16.202 16.069 -5
      vertex 16.368 15.55 5
      vertex 16.202 16.069 5
    endloop
  endfacet
  facet normal -0.966872 0.255262 0
    outer loop
      vertex 16.09 14.497 5
      vertex 16.368 15.55 5
      vertex 16.09 14.497 -5
    endloop
  endfacet
  facet normal -0.966872 0.255262 0
    outer loop
      vertex 16.09 14.497 -5
      vertex 16.368 15.55 5
      vertex 16.368 15.55 -5
    endloop
  endfacet
  facet normal -0.942403 0.334481 0
    outer loop
      vertex 15.416 12.598 5
      vertex 16.09 14.497 5
      vertex 15.416 12.598 -5
    endloop
  endfacet
  facet normal -0.942403 0.334481 0
    outer loop
      vertex 15.416 12.598 -5
      vertex 16.09 14.497 5
      vertex 16.09 14.497 -5
    endloop
  endfacet
  facet normal -0.930286 0.366836 0
    outer loop
      vertex 14.582 10.483 5
      vertex 15.416 12.598 5
      vertex 14.582 10.483 -5
    endloop
  endfacet
  facet normal -0.930286 0.366836 0
    outer loop
      vertex 14.582 10.483 -5
      vertex 15.416 12.598 5
      vertex 15.416 12.598 -5
    endloop
  endfacet
  facet normal -0.914848 0.403799 0
    outer loop
      vertex 13.829 8.777 5
      vertex 14.582 10.483 5
      vertex 13.829 8.777 -5
    endloop
  endfacet
  facet normal -0.914848 0.403799 0
    outer loop
      vertex 13.829 8.777 -5
      vertex 14.582 10.483 5
      vertex 14.582 10.483 -5
    endloop
  endfacet
  facet normal -0.867995 0.496574 0
    outer loop
      vertex 13.091 7.487 5
      vertex 13.829 8.777 5
      vertex 13.091 7.487 -5
    endloop
  endfacet
  facet normal -0.867995 0.496574 0
    outer loop
      vertex 13.091 7.487 -5
      vertex 13.829 8.777 5
      vertex 13.829 8.777 -5
    endloop
  endfacet
  facet normal -0.803781 0.594925 0
    outer loop
      vertex 12.339 6.471 5
      vertex 13.091 7.487 5
      vertex 12.339 6.471 -5
    endloop
  endfacet
  facet normal -0.803781 0.594925 0
    outer loop
      vertex 12.339 6.471 -5
      vertex 13.091 7.487 5
      vertex 13.091 7.487 -5
    endloop
  endfacet
  facet normal -0.692625 0.721298 0
    outer loop
      vertex 11.534 5.698 5
      vertex 12.339 6.471 5
      vertex 11.534 5.698 -5
    endloop
  endfacet
  facet normal -0.692625 0.721298 0
    outer loop
      vertex 11.534 5.698 -5
      vertex 12.339 6.471 5
      vertex 12.339 6.471 -5
    endloop
  endfacet
  facet normal -0.53221 0.846612 0
    outer loop
      vertex 10.64 5.136 5
      vertex 11.534 5.698 5
      vertex 10.64 5.136 -5
    endloop
  endfacet
  facet normal -0.53221 0.846612 0
    outer loop
      vertex 10.64 5.136 -5
      vertex 11.534 5.698 5
      vertex 11.534 5.698 -5
    endloop
  endfacet
  facet normal -0.412528 0.910945 0
    outer loop
      vertex 9.94 4.819 5
      vertex 10.64 5.136 5
      vertex 9.94 4.819 -5
    endloop
  endfacet
  facet normal -0.412528 0.910945 0
    outer loop
      vertex 9.94 4.819 -5
      vertex 10.64 5.136 5
      vertex 10.64 5.136 -5
    endloop
  endfacet
  facet normal -0.219607 0.975588 0
    outer loop
      vertex 9.207 4.654 5
      vertex 9.94 4.819 5
      vertex 9.207 4.654 -5
    endloop
  endfacet
  facet normal -0.219607 0.975588 0
    outer loop
      vertex 9.207 4.654 -5
      vertex 9.94 4.819 5
      vertex 9.94 4.819 -5
    endloop
  endfacet
  facet normal -0.0440895 0.999028 0
    outer loop
      vertex 8.21 4.61 5
      vertex 9.207 4.654 5
      vertex 8.21 4.61 -5
    endloop
  endfacet
  facet normal -0.0440895 0.999028 0
    outer loop
      vertex 8.21 4.61 -5
      vertex 9.207 4.654 5
      vertex 9.207 4.654 -5
    endloop
  endfacet
  facet normal 0.0307958 0.999526 0
    outer loop
      vertex 6.717 4.656 5
      vertex 8.21 4.61 5
      vertex 6.717 4.656 -5
    endloop
  endfacet
  facet normal 0.0307958 0.999526 0
    outer loop
      vertex 6.717 4.656 -5
      vertex 8.21 4.61 5
      vertex 8.21 4.61 -5
    endloop
  endfacet
  facet normal 0.0512702 0.998685 0
    outer loop
      vertex 3.951 4.798 5
      vertex 6.717 4.656 5
      vertex 3.951 4.798 -5
    endloop
  endfacet
  facet normal 0.0512702 0.998685 0
    outer loop
      vertex 3.951 4.798 -5
      vertex 6.717 4.656 5
      vertex 6.717 4.656 -5
    endloop
  endfacet
  facet normal -1 0 0
    outer loop
      vertex 3.951 2.596 5
      vertex 3.951 4.798 5
      vertex 3.951 2.596 -5
    endloop
  endfacet
  facet normal -1 0 0
    outer loop
      vertex 3.951 2.596 -5
      vertex 3.951 4.798 5
      vertex 3.951 4.798 -5
    endloop
  endfacet
  facet normal -0.999989 -0.00462958 0
    outer loop
      vertex 3.955 1.732 -5
      vertex 3.955 1.732 5
      vertex 3.951 2.596 -5
    endloop
  endfacet
  facet normal -0.999989 -0.00462958 0
    outer loop
      vertex 3.951 2.596 -5
      vertex 3.955 1.732 5
      vertex 3.951 2.596 5
    endloop
  endfacet
  facet normal -0.997356 -0.0726755 0
    outer loop
      vertex 4.002 1.087 -5
      vertex 4.002 1.087 5
      vertex 3.955 1.732 -5
    endloop
  endfacet
  facet normal -0.997356 -0.0726755 0
    outer loop
      vertex 3.955 1.732 -5
      vertex 4.002 1.087 5
      vertex 3.955 1.732 5
    endloop
  endfacet
  facet normal -0.95614 -0.292909 0
    outer loop
      vertex 4.142 0.63 -5
      vertex 4.142 0.63 5
      vertex 4.002 1.087 -5
    endloop
  endfacet
  facet normal -0.95614 -0.292909 0
    outer loop
      vertex 4.002 1.087 -5
      vertex 4.142 0.63 5
      vertex 4.002 1.087 5
    endloop
  endfacet
  facet normal -0.731853 -0.681463 0
    outer loop
      vertex 4.426 0.325 -5
      vertex 4.426 0.325 5
      vertex 4.142 0.63 -5
    endloop
  endfacet
  facet normal -0.731853 -0.681463 0
    outer loop
      vertex 4.142 0.63 -5
      vertex 4.426 0.325 5
      vertex 4.142 0.63 5
    endloop
  endfacet
  facet normal -0.356238 -0.934395 0
    outer loop
      vertex 4.426 0.325 -5
      vertex 4.906 0.142 -5
      vertex 4.906 0.142 5
    endloop
  endfacet
  facet normal -0.356238 -0.934395 0
    outer loop
      vertex 4.426 0.325 5
      vertex 4.426 0.325 -5
      vertex 4.906 0.142 5
    endloop
  endfacet
  facet normal -0.128929 -0.991654 0
    outer loop
      vertex 4.906 0.142 -5
      vertex 5.629 0.048 -5
      vertex 5.629 0.048 5
    endloop
  endfacet
  facet normal -0.128929 -0.991654 0
    outer loop
      vertex 4.906 0.142 5
      vertex 4.906 0.142 -5
      vertex 5.629 0.048 5
    endloop
  endfacet
  facet normal -0.0352722 -0.999378 0
    outer loop
      vertex 5.629 0.048 -5
      vertex 6.649 0.012 -5
      vertex 6.649 0.012 5
    endloop
  endfacet
  facet normal -0.0352722 -0.999378 0
    outer loop
      vertex 5.629 0.048 5
      vertex 5.629 0.048 -5
      vertex 6.649 0.012 5
    endloop
  endfacet
  facet normal -0.00878443 -0.999961 0
    outer loop
      vertex 6.649 0.012 -5
      vertex 8.015 0 -5
      vertex 8.015 0 5
    endloop
  endfacet
  facet normal -0.00878443 -0.999961 0
    outer loop
      vertex 6.649 0.012 5
      vertex 6.649 0.012 -5
      vertex 8.015 0 5
    endloop
  endfacet
  facet normal 0.0751178 -0.997175 0
    outer loop
      vertex 8.015 0 -5
      vertex 11.493 0.262 -5
      vertex 11.493 0.262 5
    endloop
  endfacet
  facet normal 0.0751178 -0.997175 0
    outer loop
      vertex 8.015 0 5
      vertex 8.015 0 -5
      vertex 11.493 0.262 5
    endloop
  endfacet
  facet normal 0.341597 -0.939846 0
    outer loop
      vertex 11.493 0.262 -5
      vertex 14.082 1.203 -5
      vertex 14.082 1.203 5
    endloop
  endfacet
  facet normal 0.341597 -0.939846 0
    outer loop
      vertex 11.493 0.262 5
      vertex 11.493 0.262 -5
      vertex 14.082 1.203 5
    endloop
  endfacet
  facet normal 0.668285 -0.743905 0
    outer loop
      vertex 14.082 1.203 -5
      vertex 16.079 2.997 -5
      vertex 16.079 2.997 5
    endloop
  endfacet
  facet normal 0.668285 -0.743905 0
    outer loop
      vertex 14.082 1.203 5
      vertex 14.082 1.203 -5
      vertex 16.079 2.997 5
    endloop
  endfacet
  facet normal 0.856176 -0.516684 0
    outer loop
      vertex 16.079 2.997 -5
      vertex 17.779 5.814 -5
      vertex 17.779 5.814 5
    endloop
  endfacet
  facet normal 0.856176 -0.516684 0
    outer loop
      vertex 16.079 2.997 5
      vertex 16.079 2.997 -5
      vertex 17.779 5.814 5
    endloop
  endfacet
  facet normal 0.921975 -0.38725 0
    outer loop
      vertex 17.779 5.814 -5
      vertex 18.165 6.733 -5
      vertex 18.165 6.733 5
    endloop
  endfacet
  facet normal 0.921975 -0.38725 0
    outer loop
      vertex 17.779 5.814 5
      vertex 17.779 5.814 -5
      vertex 18.165 6.733 5
    endloop
  endfacet
  facet normal 0.929399 -0.369077 0
    outer loop
      vertex 18.165 6.733 -5
      vertex 18.908 8.604 -5
      vertex 18.908 8.604 5
    endloop
  endfacet
  facet normal 0.929399 -0.369077 0
    outer loop
      vertex 18.165 6.733 5
      vertex 18.165 6.733 -5
      vertex 18.908 8.604 5
    endloop
  endfacet
  facet normal 0.931744 -0.363116 0
    outer loop
      vertex 18.908 8.604 -5
      vertex 19.954 11.288 -5
      vertex 19.954 11.288 5
    endloop
  endfacet
  facet normal 0.931744 -0.363116 0
    outer loop
      vertex 18.908 8.604 5
      vertex 18.908 8.604 -5
      vertex 19.954 11.288 5
    endloop
  endfacet
  facet normal 0.932764 -0.360487 0
    outer loop
      vertex 19.954 11.288 -5
      vertex 21.251 14.644 -5
      vertex 21.251 14.644 5
    endloop
  endfacet
  facet normal 0.932764 -0.360487 0
    outer loop
      vertex 19.954 11.288 5
      vertex 19.954 11.288 -5
      vertex 21.251 14.644 5
    endloop
  endfacet
  facet normal 0.933592 -0.358337 0
    outer loop
      vertex 21.251 14.644 -5
      vertex 22.746 18.539 -5
      vertex 22.746 18.539 5
    endloop
  endfacet
  facet normal 0.933592 -0.358337 0
    outer loop
      vertex 21.251 14.644 5
      vertex 21.251 14.644 -5
      vertex 22.746 18.539 5
    endloop
  endfacet
  facet normal 0.934028 -0.357199 0
    outer loop
      vertex 22.746 18.539 -5
      vertex 24.387 22.83 -5
      vertex 24.387 22.83 5
    endloop
  endfacet
  facet normal 0.934028 -0.357199 0
    outer loop
      vertex 22.746 18.539 5
      vertex 22.746 18.539 -5
      vertex 24.387 22.83 5
    endloop
  endfacet
  facet normal 0.934374 -0.356294 0
    outer loop
      vertex 24.387 22.83 -5
      vertex 26.122 27.38 -5
      vertex 26.122 27.38 5
    endloop
  endfacet
  facet normal 0.934374 -0.356294 0
    outer loop
      vertex 24.387 22.83 5
      vertex 24.387 22.83 -5
      vertex 26.122 27.38 5
    endloop
  endfacet
  facet normal 0.934757 -0.355288 0
    outer loop
      vertex 26.122 27.38 -5
      vertex 27.897 32.05 -5
      vertex 27.897 32.05 5
    endloop
  endfacet
  facet normal 0.934757 -0.355288 0
    outer loop
      vertex 26.122 27.38 5
      vertex 26.122 27.38 -5
      vertex 27.897 32.05 5
    endloop
  endfacet
  facet normal 0.93506 -0.354491 0
    outer loop
      vertex 27.897 32.05 -5
      vertex 29.661 36.703 -5
      vertex 29.661 36.703 5
    endloop
  endfacet
  facet normal 0.93506 -0.354491 0
    outer loop
      vertex 27.897 32.05 5
      vertex 27.897 32.05 -5
      vertex 29.661 36.703 5
    endloop
  endfacet
  facet normal 0.935411 -0.353562 0
    outer loop
      vertex 29.661 36.703 -5
      vertex 31.36 41.198 -5
      vertex 31.36 41.198 5
    endloop
  endfacet
  facet normal 0.935411 -0.353562 0
    outer loop
      vertex 29.661 36.703 5
      vertex 29.661 36.703 -5
      vertex 31.36 41.198 5
    endloop
  endfacet
  facet normal 0.935889 -0.352295 0
    outer loop
      vertex 31.36 41.198 -5
      vertex 32.941 45.398 -5
      vertex 32.941 45.398 5
    endloop
  endfacet
  facet normal 0.935889 -0.352295 0
    outer loop
      vertex 31.36 41.198 5
      vertex 31.36 41.198 -5
      vertex 32.941 45.398 5
    endloop
  endfacet
  facet normal 0.93635 -0.351069 0
    outer loop
      vertex 32.941 45.398 -5
      vertex 34.353 49.164 -5
      vertex 34.353 49.164 5
    endloop
  endfacet
  facet normal 0.93635 -0.351069 0
    outer loop
      vertex 32.941 45.398 5
      vertex 32.941 45.398 -5
      vertex 34.353 49.164 5
    endloop
  endfacet
  facet normal 0.937014 -0.349291 0
    outer loop
      vertex 34.353 49.164 -5
      vertex 35.544 52.359 -5
      vertex 35.544 52.359 5
    endloop
  endfacet
  facet normal 0.937014 -0.349291 0
    outer loop
      vertex 34.353 49.164 5
      vertex 34.353 49.164 -5
      vertex 35.544 52.359 5
    endloop
  endfacet
  facet normal 0.938317 -0.345775 0
    outer loop
      vertex 35.544 52.359 -5
      vertex 36.459 54.842 -5
      vertex 36.459 54.842 5
    endloop
  endfacet
  facet normal 0.938317 -0.345775 0
    outer loop
      vertex 35.544 52.359 5
      vertex 35.544 52.359 -5
      vertex 36.459 54.842 5
    endloop
  endfacet
  facet normal 0.941115 -0.338087 0
    outer loop
      vertex 36.459 54.842 -5
      vertex 37.046 56.476 -5
      vertex 37.046 56.476 5
    endloop
  endfacet
  facet normal 0.941115 -0.338087 0
    outer loop
      vertex 36.459 54.842 5
      vertex 36.459 54.842 -5
      vertex 37.046 56.476 5
    endloop
  endfacet
  facet normal 0.951736 -0.306917 0
    outer loop
      vertex 37.046 56.476 -5
      vertex 37.254 57.121 -5
      vertex 37.254 57.121 5
    endloop
  endfacet
  facet normal 0.951736 -0.306917 0
    outer loop
      vertex 37.046 56.476 5
      vertex 37.046 56.476 -5
      vertex 37.254 57.121 5
    endloop
  endfacet
  facet normal 0.436804 0.899557 0
    outer loop
      vertex 37.046 57.222 5
      vertex 37.254 57.121 5
      vertex 37.046 57.222 -5
    endloop
  endfacet
  facet normal 0.436804 0.899557 0
    outer loop
      vertex 37.046 57.222 -5
      vertex 37.254 57.121 5
      vertex 37.254 57.121 -5
    endloop
  endfacet
  facet normal 0.141912 0.989879 0
    outer loop
      vertex 36.481 57.303 5
      vertex 37.046 57.222 5
      vertex 36.481 57.303 -5
    endloop
  endfacet
  facet normal 0.141912 0.989879 0
    outer loop
      vertex 36.481 57.303 -5
      vertex 37.046 57.222 5
      vertex 37.046 57.222 -5
    endloop
  endfacet
  facet normal 0.0645358 0.997915 0
    outer loop
      vertex 35.646 57.357 5
      vertex 36.481 57.303 5
      vertex 35.646 57.357 -5
    endloop
  endfacet
  facet normal 0.0645358 0.997915 0
    outer loop
      vertex 35.646 57.357 -5
      vertex 36.481 57.303 5
      vertex 36.481 57.303 -5
    endloop
  endfacet
  facet normal 0.0186791 0.999826 0
    outer loop
      vertex 34.629 57.376 5
      vertex 35.646 57.357 5
      vertex 34.629 57.376 -5
    endloop
  endfacet
  facet normal 0.0186791 0.999826 0
    outer loop
      vertex 34.629 57.376 -5
      vertex 35.646 57.357 5
      vertex 35.646 57.357 -5
    endloop
  endfacet
  facet normal 0 1 0
    outer loop
      vertex 31.976 57.376 5
      vertex 34.629 57.376 5
      vertex 31.976 57.376 -5
    endloop
  endfacet
  facet normal 0 1 0
    outer loop
      vertex 31.976 57.376 -5
      vertex 34.629 57.376 5
      vertex 34.629 57.376 -5
    endloop
  endfacet
  facet normal -0.940498 0.3398 0
    outer loop
      vertex 25.654 39.878 5
      vertex 31.976 57.376 5
      vertex 25.654 39.878 -5
    endloop
  endfacet
  facet normal -0.940498 0.3398 0
    outer loop
      vertex 25.654 39.878 -5
      vertex 31.976 57.376 5
      vertex 31.976 57.376 -5
    endloop
  endfacet
  facet normal -0.939746 0.341872 0
    outer loop
      vertex 24.38 36.376 5
      vertex 25.654 39.878 5
      vertex 24.38 36.376 -5
    endloop
  endfacet
  facet normal -0.939746 0.341872 0
    outer loop
      vertex 24.38 36.376 -5
      vertex 25.654 39.878 5
      vertex 25.654 39.878 -5
    endloop
  endfacet
  facet normal -0.939 0.343916 0
    outer loop
      vertex 23.186 33.116 5
      vertex 24.38 36.376 5
      vertex 23.186 33.116 -5
    endloop
  endfacet
  facet normal -0.939 0.343916 0
    outer loop
      vertex 23.186 33.116 -5
      vertex 24.38 36.376 5
      vertex 24.38 36.376 -5
    endloop
  endfacet
  facet normal -0.937772 0.347252 0
    outer loop
      vertex 22.094 30.167 5
      vertex 23.186 33.116 5
      vertex 22.094 30.167 -5
    endloop
  endfacet
  facet normal -0.937772 0.347252 0
    outer loop
      vertex 22.094 30.167 -5
      vertex 23.186 33.116 5
      vertex 23.186 33.116 -5
    endloop
  endfacet
  facet normal -0.936554 0.350523 0
    outer loop
      vertex 21.134 27.602 5
      vertex 22.094 30.167 5
      vertex 21.134 27.602 -5
    endloop
  endfacet
  facet normal -0.936554 0.350523 0
    outer loop
      vertex 21.134 27.602 -5
      vertex 22.094 30.167 5
      vertex 22.094 30.167 -5
    endloop
  endfacet
  facet normal -0.93446 0.356069 0
    outer loop
      vertex 20.33 25.492 5
      vertex 21.134 27.602 5
      vertex 20.33 25.492 -5
    endloop
  endfacet
  facet normal -0.93446 0.356069 0
    outer loop
      vertex 20.33 25.492 -5
      vertex 21.134 27.602 5
      vertex 21.134 27.602 -5
    endloop
  endfacet
  facet normal -0.931529 0.363667 0
    outer loop
      vertex 19.712 23.909 5
      vertex 20.33 25.492 5
      vertex 19.712 23.909 -5
    endloop
  endfacet
  facet normal -0.931529 0.363667 0
    outer loop
      vertex 19.712 23.909 -5
      vertex 20.33 25.492 5
      vertex 20.33 25.492 -5
    endloop
  endfacet
  facet normal -0.924154 0.382021 0
    outer loop
      vertex 19.304 22.922 5
      vertex 19.712 23.909 5
      vertex 19.304 22.922 -5
    endloop
  endfacet
  facet normal -0.924154 0.382021 0
    outer loop
      vertex 19.304 22.922 -5
      vertex 19.712 23.909 5
      vertex 19.712 23.909 -5
    endloop
  endfacet
  facet normal -0.881273 0.472607 0
    outer loop
      vertex 19.134 22.605 5
      vertex 19.304 22.922 5
      vertex 19.134 22.605 -5
    endloop
  endfacet
  facet normal -0.881273 0.472607 0
    outer loop
      vertex 19.134 22.605 -5
      vertex 19.304 22.922 5
      vertex 19.304 22.922 -5
    endloop
  endfacet
  facet normal 0.918532 0.395347 0
    outer loop
      vertex 18.967 22.993 -5
      vertex 18.967 22.993 5
      vertex 19.134 22.605 5
    endloop
  endfacet
  facet normal 0.918532 0.395347 0
    outer loop
      vertex 19.134 22.605 -5
      vertex 18.967 22.993 -5
      vertex 19.134 22.605 5
    endloop
  endfacet
  facet normal 0.92729 0.374344 0
    outer loop
      vertex 18.552 24.021 -5
      vertex 18.552 24.021 5
      vertex 18.967 22.993 5
    endloop
  endfacet
  facet normal 0.92729 0.374344 0
    outer loop
      vertex 18.967 22.993 -5
      vertex 18.552 24.021 -5
      vertex 18.967 22.993 5
    endloop
  endfacet
  facet normal 0.929276 0.369387 0
    outer loop
      vertex 17.916 25.621 -5
      vertex 17.916 25.621 5
      vertex 18.552 24.021 5
    endloop
  endfacet
  facet normal 0.929276 0.369387 0
    outer loop
      vertex 18.552 24.021 -5
      vertex 17.916 25.621 -5
      vertex 18.552 24.021 5
    endloop
  endfacet
  facet normal 0.930358 0.366652 0
    outer loop
      vertex 17.088 27.722 -5
      vertex 17.088 27.722 5
      vertex 17.916 25.621 5
    endloop
  endfacet
  facet normal 0.930358 0.366652 0
    outer loop
      vertex 17.916 25.621 -5
      vertex 17.088 27.722 -5
      vertex 17.916 25.621 5
    endloop
  endfacet
  facet normal 0.931042 0.364912 0
    outer loop
      vertex 16.096 30.253 -5
      vertex 16.096 30.253 5
      vertex 17.088 27.722 5
    endloop
  endfacet
  facet normal 0.931042 0.364912 0
    outer loop
      vertex 17.088 27.722 -5
      vertex 16.096 30.253 -5
      vertex 17.088 27.722 5
    endloop
  endfacet
  facet normal 0.931617 0.36344 0
    outer loop
      vertex 14.967 33.147 -5
      vertex 14.967 33.147 5
      vertex 16.096 30.253 5
    endloop
  endfacet
  facet normal 0.931617 0.36344 0
    outer loop
      vertex 16.096 30.253 -5
      vertex 14.967 33.147 -5
      vertex 16.096 30.253 5
    endloop
  endfacet
  facet normal 0.932263 0.361782 0
    outer loop
      vertex 13.731 36.332 -5
      vertex 13.731 36.332 5
      vertex 14.967 33.147 5
    endloop
  endfacet
  facet normal 0.932263 0.361782 0
    outer loop
      vertex 14.967 33.147 -5
      vertex 13.731 36.332 -5
      vertex 14.967 33.147 5
    endloop
  endfacet
  facet normal 0.933035 0.359787 0
    outer loop
      vertex 12.418 39.737 -5
      vertex 12.418 39.737 5
      vertex 13.731 36.332 5
    endloop
  endfacet
  facet normal 0.933035 0.359787 0
    outer loop
      vertex 13.731 36.332 -5
      vertex 12.418 39.737 -5
      vertex 13.731 36.332 5
    endloop
  endfacet
  facet normal 0.932384 0.36147 0
    outer loop
      vertex 11.096 43.147 -5
      vertex 11.096 43.147 5
      vertex 12.418 39.737 5
    endloop
  endfacet
  facet normal 0.932384 0.36147 0
    outer loop
      vertex 12.418 39.737 -5
      vertex 11.096 43.147 -5
      vertex 12.418 39.737 5
    endloop
  endfacet
  facet normal 0.932644 0.360798 0
    outer loop
      vertex 9.86 46.342 -5
      vertex 9.86 46.342 5
      vertex 11.096 43.147 5
    endloop
  endfacet
  facet normal 0.932644 0.360798 0
    outer loop
      vertex 11.096 43.147 -5
      vertex 9.86 46.342 -5
      vertex 11.096 43.147 5
    endloop
  endfacet
  facet normal 0.932725 0.360589 0
    outer loop
      vertex 8.735 49.252 -5
      vertex 8.735 49.252 5
      vertex 9.86 46.342 5
    endloop
  endfacet
  facet normal 0.932725 0.360589 0
    outer loop
      vertex 9.86 46.342 -5
      vertex 8.735 49.252 -5
      vertex 9.86 46.342 5
    endloop
  endfacet
  facet normal 0.933016 0.359836 0
    outer loop
      vertex 7.75 51.806 -5
      vertex 7.75 51.806 5
      vertex 8.735 49.252 5
    endloop
  endfacet
  facet normal 0.933016 0.359836 0
    outer loop
      vertex 8.735 49.252 -5
      vertex 7.75 51.806 -5
      vertex 8.735 49.252 5
    endloop
  endfacet
  facet normal 0.932858 0.360243 0
    outer loop
      vertex 6.929 53.932 -5
      vertex 6.929 53.932 5
      vertex 7.75 51.806 5
    endloop
  endfacet
  facet normal 0.932858 0.360243 0
    outer loop
      vertex 7.75 51.806 -5
      vertex 6.929 53.932 -5
      vertex 7.75 51.806 5
    endloop
  endfacet
  facet normal 0.933257 0.359209 0
    outer loop
      vertex 6.302 55.561 -5
      vertex 6.302 55.561 5
      vertex 6.929 53.932 5
    endloop
  endfacet
  facet normal 0.933257 0.359209 0
    outer loop
      vertex 6.929 53.932 -5
      vertex 6.302 55.561 -5
      vertex 6.929 53.932 5
    endloop
  endfacet
  facet normal 0.932137 0.362106 0
    outer loop
      vertex 5.891 56.619 -5
      vertex 5.891 56.619 5
      vertex 6.302 55.561 5
    endloop
  endfacet
  facet normal 0.932137 0.362106 0
    outer loop
      vertex 6.302 55.561 -5
      vertex 5.891 56.619 -5
      vertex 6.302 55.561 5
    endloop
  endfacet
  facet normal 0.932423 0.36137 0
    outer loop
      vertex 5.729 57.037 -5
      vertex 5.729 57.037 5
      vertex 5.891 56.619 5
    endloop
  endfacet
  facet normal 0.932423 0.36137 0
    outer loop
      vertex 5.891 56.619 -5
      vertex 5.729 57.037 -5
      vertex 5.891 56.619 5
    endloop
  endfacet
  facet normal 0.230667 0.973033 0
    outer loop
      vertex 4.763 57.266 5
      vertex 5.729 57.037 5
      vertex 4.763 57.266 -5
    endloop
  endfacet
  facet normal 0.230667 0.973033 0
    outer loop
      vertex 4.763 57.266 -5
      vertex 5.729 57.037 5
      vertex 5.729 57.037 -5
    endloop
  endfacet
  facet normal 0.0579767 0.998318 0
    outer loop
      vertex 2.8 57.38 5
      vertex 4.763 57.266 5
      vertex 2.8 57.38 -5
    endloop
  endfacet
  facet normal 0.0579767 0.998318 0
    outer loop
      vertex 2.8 57.38 -5
      vertex 4.763 57.266 5
      vertex 4.763 57.266 -5
    endloop
  endfacet
  facet normal -0.015032 0.999887 0
    outer loop
      vertex 0.871 57.351 5
      vertex 2.8 57.38 5
      vertex 0.871 57.351 -5
    endloop
  endfacet
  facet normal -0.015032 0.999887 0
    outer loop
      vertex 0.871 57.351 -5
      vertex 2.8 57.38 5
      vertex 2.8 57.38 -5
    endloop
  endfacet
endsolid OpenSCAD_Model
