solid OpenSCAD_Model
  facet normal -0.993947 -0.109862 0
    outer loop
      vertex 0.127 12.652 -5
      vertex 0.127 12.652 5
      vertex 0 13.801 -5
    endloop
  endfacet
  facet normal -0.993947 -0.109862 0
    outer loop
      vertex 0 13.801 -5
      vertex 0.127 12.652 5
      vertex 0 13.801 5
    endloop
  endfacet
  facet normal 0 0 -1
    outer loop
      vertex 0 14.733 -5
      vertex 5.278 14.733 -5
      vertex 0 13.801 -5
    endloop
  endfacet
  facet normal 0 0 -1
    outer loop
      vertex 0 13.801 -5
      vertex 5.278 14.733 -5
      vertex 5.475 13.378 -5
    endloop
  endfacet
  facet normal 0 0 -1
    outer loop
      vertex 0 13.801 -5
      vertex 5.475 13.378 -5
      vertex 6.014 11.308 -5
    endloop
  endfacet
  facet normal 0 0 -1
    outer loop
      vertex 6.014 11.308 -5
      vertex 7.022 9.346 -5
      vertex 0 13.801 -5
    endloop
  endfacet
  facet normal 0 0 -1
    outer loop
      vertex 7.022 9.346 -5
      vertex 8.407 7.644 -5
      vertex 0 13.801 -5
    endloop
  endfacet
  facet normal 0 0 -1
    outer loop
      vertex 8.407 7.644 -5
      vertex 10.075 6.35 -5
      vertex 0 13.801 -5
    endloop
  endfacet
  facet normal 0 0 -1
    outer loop
      vertex 15.05 4.706 -5
      vertex 26.931 1.96 -5
      vertex 12.446 5.299 -5
    endloop
  endfacet
  facet normal 0 0 -1
    outer loop
      vertex 16.933 20.235 -5
      vertex 13.559 21.063 -5
      vertex 10.76 21.852 -5
    endloop
  endfacet
  facet normal 0 0 -1
    outer loop
      vertex 16.933 20.235 -5
      vertex 10.76 21.852 -5
      vertex 8.469 22.637 -5
    endloop
  endfacet
  facet normal 0 0 -1
    outer loop
      vertex 16.933 20.235 -5
      vertex 8.469 22.637 -5
      vertex 21.648 18.984 -5
    endloop
  endfacet
  facet normal 0 0 -1
    outer loop
      vertex 21.648 18.984 -5
      vertex 8.469 22.637 -5
      vertex 6.621 23.45 -5
    endloop
  endfacet
  facet normal 0 0 -1
    outer loop
      vertex 21.648 18.984 -5
      vertex 6.621 23.45 -5
      vertex 5.15 24.325 -5
    endloop
  endfacet
  facet normal 0 0 -1
    outer loop
      vertex 21.648 18.984 -5
      vertex 5.15 24.325 -5
      vertex 3.991 25.297 -5
    endloop
  endfacet
  facet normal 0 0 -1
    outer loop
      vertex 21.648 18.984 -5
      vertex 3.991 25.297 -5
      vertex 3.077 26.396 -5
    endloop
  endfacet
  facet normal 0 0 -1
    outer loop
      vertex 21.648 18.984 -5
      vertex 3.077 26.396 -5
      vertex 24.892 17.713 -5
    endloop
  endfacet
  facet normal 0 0 -1
    outer loop
      vertex 24.892 17.713 -5
      vertex 3.077 26.396 -5
      vertex 2.343 27.659 -5
    endloop
  endfacet
  facet normal 0 0 -1
    outer loop
      vertex 24.892 17.713 -5
      vertex 2.343 27.659 -5
      vertex 1.921 28.618 -5
    endloop
  endfacet
  facet normal 0 0 -1
    outer loop
      vertex 24.892 17.713 -5
      vertex 1.921 28.618 -5
      vertex 1.683 29.507 -5
    endloop
  endfacet
  facet normal 0 0 -1
    outer loop
      vertex 24.892 17.713 -5
      vertex 1.683 29.507 -5
      vertex 1.575 30.652 -5
    endloop
  endfacet
  facet normal 0 0 -1
    outer loop
      vertex 24.892 17.713 -5
      vertex 1.575 30.652 -5
      vertex 1.552 32.371 -5
    endloop
  endfacet
  facet normal 0 0 -1
    outer loop
      vertex 7.892 29.621 -5
      vertex 1.552 32.371 -5
      vertex 1.575 34.093 -5
    endloop
  endfacet
  facet normal 0 0 -1
    outer loop
      vertex 7.246 30.601 -5
      vertex 1.575 34.093 -5
      vertex 1.683 35.232 -5
    endloop
  endfacet
  facet normal 0 0 -1
    outer loop
      vertex 6.885 31.655 -5
      vertex 1.683 35.232 -5
      vertex 1.921 36.114 -5
    endloop
  endfacet
  facet normal 0 0 -1
    outer loop
      vertex 6.773 32.851 -5
      vertex 1.921 36.114 -5
      vertex 2.343 37.055 -5
    endloop
  endfacet
  facet normal 0 0 -1
    outer loop
      vertex 15.449 25.801 -5
      vertex 26.95 16.279 -5
      vertex 12.389 26.716 -5
    endloop
  endfacet
  facet normal 0 0 -1
    outer loop
      vertex 7.481 35.592 -5
      vertex 3.219 38.451 -5
      vertex 4.455 39.882 -5
    endloop
  endfacet
  facet normal 0 0 -1
    outer loop
      vertex 6.773 32.851 -5
      vertex 3.219 38.451 -5
      vertex 7.481 35.592 -5
    endloop
  endfacet
  facet normal 0 0 -1
    outer loop
      vertex 9.44 37.713 -5
      vertex 5.854 41.148 -5
      vertex 7.225 42.051 -5
    endloop
  endfacet
  facet normal 0 0 -1
    outer loop
      vertex 12.456 39.083 -5
      vertex 7.225 42.051 -5
      vertex 10.572 43.319 -5
    endloop
  endfacet
  facet normal 0 0 -1
    outer loop
      vertex 16.341 39.568 -5
      vertex 10.572 43.319 -5
      vertex 14.281 44.055 -5
    endloop
  endfacet
  facet normal 0 0 -1
    outer loop
      vertex 19.976 39.202 -5
      vertex 14.281 44.055 -5
      vertex 18.602 44.164 -5
    endloop
  endfacet
  facet normal 0 0 -1
    outer loop
      vertex 22.884 38.104 -5
      vertex 18.602 44.164 -5
      vertex 22.443 43.559 -5
    endloop
  endfacet
  facet normal 0 0 -1
    outer loop
      vertex 27.32 22.634 -5
      vertex 28.4 13.406 -5
      vertex 28.109 14.534 -5
    endloop
  endfacet
  facet normal 0 0 -1
    outer loop
      vertex 26.529 33.697 -5
      vertex 22.443 43.559 -5
      vertex 25.765 42.251 -5
    endloop
  endfacet
  facet normal 0 0 -1
    outer loop
      vertex 27.094 31.383 -5
      vertex 25.765 42.251 -5
      vertex 28.532 40.246 -5
    endloop
  endfacet
  facet normal 0 0 -1
    outer loop
      vertex 30.602 20.339 -5
      vertex 28.472 12.055 -5
      vertex 29.009 21.646 -5
    endloop
  endfacet
  facet normal 0 0 -1
    outer loop
      vertex 26.529 33.697 -5
      vertex 25.765 42.251 -5
      vertex 26.927 32.403 -5
    endloop
  endfacet
  facet normal 0 0 -1
    outer loop
      vertex 26.927 32.403 -5
      vertex 25.765 42.251 -5
      vertex 27.094 31.383 -5
    endloop
  endfacet
  facet normal 0 0 -1
    outer loop
      vertex 27.094 30.536 -5
      vertex 27.094 31.383 -5
      vertex 28.532 40.246 -5
    endloop
  endfacet
  facet normal 0 0 -1
    outer loop
      vertex 25.067 36.27 -5
      vertex 22.443 43.559 -5
      vertex 26.529 33.697 -5
    endloop
  endfacet
  facet normal 0 0 -1
    outer loop
      vertex 22.884 38.104 -5
      vertex 22.443 43.559 -5
      vertex 25.067 36.27 -5
    endloop
  endfacet
  facet normal 0 0 -1
    outer loop
      vertex 19.976 39.202 -5
      vertex 18.602 44.164 -5
      vertex 22.884 38.104 -5
    endloop
  endfacet
  facet normal 0 0 -1
    outer loop
      vertex 24.464 23.584 -5
      vertex 28.109 14.534 -5
      vertex 22.313 24.156 -5
    endloop
  endfacet
  facet normal 0 0 -1
    outer loop
      vertex 16.341 39.568 -5
      vertex 14.281 44.055 -5
      vertex 19.976 39.202 -5
    endloop
  endfacet
  facet normal 0 0 -1
    outer loop
      vertex 12.456 39.083 -5
      vertex 10.572 43.319 -5
      vertex 16.341 39.568 -5
    endloop
  endfacet
  facet normal 0 0 -1
    outer loop
      vertex 7.481 35.592 -5
      vertex 5.854 41.148 -5
      vertex 9.44 37.713 -5
    endloop
  endfacet
  facet normal 0 0 -1
    outer loop
      vertex 9.44 37.713 -5
      vertex 7.225 42.051 -5
      vertex 12.456 39.083 -5
    endloop
  endfacet
  facet normal 0 0 -1
    outer loop
      vertex 7.481 35.592 -5
      vertex 4.455 39.882 -5
      vertex 5.854 41.148 -5
    endloop
  endfacet
  facet normal 0 0 -1
    outer loop
      vertex 6.773 32.851 -5
      vertex 2.343 37.055 -5
      vertex 3.219 38.451 -5
    endloop
  endfacet
  facet normal 0 0 -1
    outer loop
      vertex 6.885 31.655 -5
      vertex 1.921 36.114 -5
      vertex 6.773 32.851 -5
    endloop
  endfacet
  facet normal 0 0 -1
    outer loop
      vertex 12.389 26.716 -5
      vertex 26.95 16.279 -5
      vertex 24.892 17.713 -5
    endloop
  endfacet
  facet normal 0 0 -1
    outer loop
      vertex 7.246 30.601 -5
      vertex 1.683 35.232 -5
      vertex 6.885 31.655 -5
    endloop
  endfacet
  facet normal 0 0 -1
    outer loop
      vertex 7.892 29.621 -5
      vertex 1.575 34.093 -5
      vertex 7.246 30.601 -5
    endloop
  endfacet
  facet normal 0 0 -1
    outer loop
      vertex 8.862 28.645 -5
      vertex 1.552 32.371 -5
      vertex 7.892 29.621 -5
    endloop
  endfacet
  facet normal 0 0 -1
    outer loop
      vertex 12.389 26.716 -5
      vertex 24.892 17.713 -5
      vertex 10.323 27.616 -5
    endloop
  endfacet
  facet normal 0 0 -1
    outer loop
      vertex 10.323 27.616 -5
      vertex 1.552 32.371 -5
      vertex 8.862 28.645 -5
    endloop
  endfacet
  facet normal 0 0 -1
    outer loop
      vertex 24.892 17.713 -5
      vertex 1.552 32.371 -5
      vertex 10.323 27.616 -5
    endloop
  endfacet
  facet normal 0 0 -1
    outer loop
      vertex 19.896 24.723 -5
      vertex 26.95 16.279 -5
      vertex 15.449 25.801 -5
    endloop
  endfacet
  facet normal 0 0 -1
    outer loop
      vertex 22.313 24.156 -5
      vertex 26.95 16.279 -5
      vertex 19.896 24.723 -5
    endloop
  endfacet
  facet normal 0 0 -1
    outer loop
      vertex 22.313 24.156 -5
      vertex 28.109 14.534 -5
      vertex 26.95 16.279 -5
    endloop
  endfacet
  facet normal 0 0 -1
    outer loop
      vertex 27.32 22.634 -5
      vertex 28.109 14.534 -5
      vertex 26.187 23.06 -5
    endloop
  endfacet
  facet normal 0 0 -1
    outer loop
      vertex 26.187 23.06 -5
      vertex 28.109 14.534 -5
      vertex 24.464 23.584 -5
    endloop
  endfacet
  facet normal 0 0 -1
    outer loop
      vertex 29.009 21.646 -5
      vertex 28.4 13.406 -5
      vertex 27.32 22.634 -5
    endloop
  endfacet
  facet normal 0 0 -1
    outer loop
      vertex 28.327 10.689 -5
      vertex 30.602 20.339 -5
      vertex 31.958 18.845 -5
    endloop
  endfacet
  facet normal 0 0 -1
    outer loop
      vertex 28.327 10.689 -5
      vertex 31.958 18.845 -5
      vertex 27.969 9.511 -5
    endloop
  endfacet
  facet normal 0 0 -1
    outer loop
      vertex 27.969 9.511 -5
      vertex 31.958 18.845 -5
      vertex 32.935 17.3 -5
    endloop
  endfacet
  facet normal 0 0 -1
    outer loop
      vertex 27.969 9.511 -5
      vertex 33.368 16.356 -5
      vertex 26.808 7.833 -5
    endloop
  endfacet
  facet normal 0 0 -1
    outer loop
      vertex 32.935 17.3 -5
      vertex 33.368 16.356 -5
      vertex 27.969 9.511 -5
    endloop
  endfacet
  facet normal 0 0 -1
    outer loop
      vertex 26.808 7.833 -5
      vertex 33.368 16.356 -5
      vertex 33.605 15.46 -5
    endloop
  endfacet
  facet normal 0 0 -1
    outer loop
      vertex 26.808 7.833 -5
      vertex 33.605 15.46 -5
      vertex 33.705 14.277 -5
    endloop
  endfacet
  facet normal 0 0 -1
    outer loop
      vertex 26.808 7.833 -5
      vertex 33.705 14.277 -5
      vertex 33.726 12.474 -5
    endloop
  endfacet
  facet normal 0 0 -1
    outer loop
      vertex 26.808 7.833 -5
      vertex 33.726 12.474 -5
      vertex 25.072 6.474 -5
    endloop
  endfacet
  facet normal 0 0 -1
    outer loop
      vertex 25.072 6.474 -5
      vertex 33.726 12.474 -5
      vertex 33.704 10.651 -5
    endloop
  endfacet
  facet normal 0 0 -1
    outer loop
      vertex 25.072 6.474 -5
      vertex 33.704 10.651 -5
      vertex 33.602 9.466 -5
    endloop
  endfacet
  facet normal 0 0 -1
    outer loop
      vertex 25.072 6.474 -5
      vertex 33.602 9.466 -5
      vertex 22.893 5.458 -5
    endloop
  endfacet
  facet normal 0 0 -1
    outer loop
      vertex 22.893 5.458 -5
      vertex 33.602 9.466 -5
      vertex 33.357 8.549 -5
    endloop
  endfacet
  facet normal 0 0 -1
    outer loop
      vertex 22.893 5.458 -5
      vertex 33.357 8.549 -5
      vertex 32.908 7.535 -5
    endloop
  endfacet
  facet normal 0 0 -1
    outer loop
      vertex 22.893 5.458 -5
      vertex 32.908 7.535 -5
      vertex 20.407 4.809 -5
    endloop
  endfacet
  facet normal 0 0 -1
    outer loop
      vertex 20.407 4.809 -5
      vertex 32.908 7.535 -5
      vertex 30.497 4.331 -5
    endloop
  endfacet
  facet normal 0 0 -1
    outer loop
      vertex 20.407 4.809 -5
      vertex 30.497 4.331 -5
      vertex 17.748 4.55 -5
    endloop
  endfacet
  facet normal 0 0 -1
    outer loop
      vertex 17.748 4.55 -5
      vertex 30.497 4.331 -5
      vertex 26.931 1.96 -5
    endloop
  endfacet
  facet normal 0 0 -1
    outer loop
      vertex 17.748 4.55 -5
      vertex 26.931 1.96 -5
      vertex 15.05 4.706 -5
    endloop
  endfacet
  facet normal 0 0 -1
    outer loop
      vertex 12.446 5.299 -5
      vertex 26.931 1.96 -5
      vertex 22.357 0.492 -5
    endloop
  endfacet
  facet normal 0 0 -1
    outer loop
      vertex 12.446 5.299 -5
      vertex 22.357 0.492 -5
      vertex 10.075 6.35 -5
    endloop
  endfacet
  facet normal 0 0 -1
    outer loop
      vertex 10.075 6.35 -5
      vertex 22.357 0.492 -5
      vertex 16.933 0 -5
    endloop
  endfacet
  facet normal 0 0 -1
    outer loop
      vertex 10.075 6.35 -5
      vertex 16.933 0 -5
      vertex 0 13.801 -5
    endloop
  endfacet
  facet normal 0 0 -1
    outer loop
      vertex 0 13.801 -5
      vertex 16.933 0 -5
      vertex 10.808 0.739 -5
    endloop
  endfacet
  facet normal 0 0 -1
    outer loop
      vertex 0 13.801 -5
      vertex 10.808 0.739 -5
      vertex 6 2.862 -5
    endloop
  endfacet
  facet normal 0 0 -1
    outer loop
      vertex 0 13.801 -5
      vertex 6 2.862 -5
      vertex 2.53 6.354 -5
    endloop
  endfacet
  facet normal 0 0 -1
    outer loop
      vertex 0 13.801 -5
      vertex 2.53 6.354 -5
      vertex 0.423 11.205 -5
    endloop
  endfacet
  facet normal 0 0 -1
    outer loop
      vertex 0 13.801 -5
      vertex 0.423 11.205 -5
      vertex 0.127 12.652 -5
    endloop
  endfacet
  facet normal 0 0 -1
    outer loop
      vertex 27.094 30.536 -5
      vertex 28.532 40.246 -5
      vertex 30.134 38.337 -5
    endloop
  endfacet
  facet normal 0 0 -1
    outer loop
      vertex 27.094 30.536 -5
      vertex 30.134 38.337 -5
      vertex 31.372 36.111 -5
    endloop
  endfacet
  facet normal 0 0 -1
    outer loop
      vertex 27.094 30.536 -5
      vertex 31.372 36.111 -5
      vertex 32.172 33.737 -5
    endloop
  endfacet
  facet normal 0 0 -1
    outer loop
      vertex 27.094 30.536 -5
      vertex 32.172 33.737 -5
      vertex 32.456 31.383 -5
    endloop
  endfacet
  facet normal 0 0 -1
    outer loop
      vertex 27.094 30.536 -5
      vertex 32.456 31.383 -5
      vertex 32.456 30.536 -5
    endloop
  endfacet
  facet normal 0 0 -1
    outer loop
      vertex 29.009 21.646 -5
      vertex 28.472 12.055 -5
      vertex 28.4 13.406 -5
    endloop
  endfacet
  facet normal 0 0 -1
    outer loop
      vertex 30.602 20.339 -5
      vertex 28.327 10.689 -5
      vertex 28.472 12.055 -5
    endloop
  endfacet
  facet normal -1 0 0
    outer loop
      vertex 0 13.801 5
      vertex 0 14.733 5
      vertex 0 13.801 -5
    endloop
  endfacet
  facet normal -1 0 0
    outer loop
      vertex 0 13.801 -5
      vertex 0 14.733 5
      vertex 0 14.733 -5
    endloop
  endfacet
  facet normal 0 0 1
    outer loop
      vertex 0 13.801 5
      vertex 0.127 12.652 5
      vertex 0.423 11.205 5
    endloop
  endfacet
  facet normal 0 0 1
    outer loop
      vertex 6 2.862 5
      vertex 0 13.801 5
      vertex 2.53 6.354 5
    endloop
  endfacet
  facet normal 0 0 1
    outer loop
      vertex 2.53 6.354 5
      vertex 0 13.801 5
      vertex 0.423 11.205 5
    endloop
  endfacet
  facet normal 0 0 1
    outer loop
      vertex 10.808 0.739 5
      vertex 0 13.801 5
      vertex 6 2.862 5
    endloop
  endfacet
  facet normal 0 0 1
    outer loop
      vertex 16.933 0 5
      vertex 0 13.801 5
      vertex 10.808 0.739 5
    endloop
  endfacet
  facet normal 0 0 1
    outer loop
      vertex 10.075 6.35 5
      vertex 0 13.801 5
      vertex 16.933 0 5
    endloop
  endfacet
  facet normal 0 0 1
    outer loop
      vertex 8.407 7.644 5
      vertex 7.022 9.346 5
      vertex 0 13.801 5
    endloop
  endfacet
  facet normal 0 0 1
    outer loop
      vertex 17.748 4.55 5
      vertex 15.05 4.706 5
      vertex 22.357 0.492 5
    endloop
  endfacet
  facet normal 0 0 1
    outer loop
      vertex 25.072 6.474 5
      vertex 22.893 5.458 5
      vertex 30.497 4.331 5
    endloop
  endfacet
  facet normal 0 0 1
    outer loop
      vertex 22.893 5.458 5
      vertex 20.407 4.809 5
      vertex 26.931 1.96 5
    endloop
  endfacet
  facet normal 0 0 1
    outer loop
      vertex 27.969 9.511 5
      vertex 32.908 7.535 5
      vertex 33.357 8.549 5
    endloop
  endfacet
  facet normal 0 0 1
    outer loop
      vertex 28.327 10.689 5
      vertex 27.969 9.511 5
      vertex 33.602 9.466 5
    endloop
  endfacet
  facet normal 0 0 1
    outer loop
      vertex 28.4 13.406 5
      vertex 28.472 12.055 5
      vertex 33.726 12.474 5
    endloop
  endfacet
  facet normal 0 0 1
    outer loop
      vertex 28.109 14.534 5
      vertex 28.4 13.406 5
      vertex 33.705 14.277 5
    endloop
  endfacet
  facet normal 0 0 1
    outer loop
      vertex 28.472 12.055 5
      vertex 28.327 10.689 5
      vertex 33.704 10.651 5
    endloop
  endfacet
  facet normal 0 0 1
    outer loop
      vertex 21.648 18.984 5
      vertex 24.892 17.713 5
      vertex 31.958 18.845 5
    endloop
  endfacet
  facet normal 0 0 1
    outer loop
      vertex 26.95 16.279 5
      vertex 33.605 15.46 5
      vertex 33.368 16.356 5
    endloop
  endfacet
  facet normal 0 0 1
    outer loop
      vertex 24.892 17.713 5
      vertex 26.95 16.279 5
      vertex 32.935 17.3 5
    endloop
  endfacet
  facet normal 0 0 1
    outer loop
      vertex 21.648 18.984 5
      vertex 31.958 18.845 5
      vertex 30.602 20.339 5
    endloop
  endfacet
  facet normal 0 0 1
    outer loop
      vertex 16.933 20.235 5
      vertex 27.32 22.634 5
      vertex 26.187 23.06 5
    endloop
  endfacet
  facet normal 0 0 1
    outer loop
      vertex 16.933 20.235 5
      vertex 29.009 21.646 5
      vertex 27.32 22.634 5
    endloop
  endfacet
  facet normal 0 0 1
    outer loop
      vertex 13.559 21.063 5
      vertex 24.464 23.584 5
      vertex 22.313 24.156 5
    endloop
  endfacet
  facet normal 0 0 1
    outer loop
      vertex 10.76 21.852 5
      vertex 13.559 21.063 5
      vertex 19.896 24.723 5
    endloop
  endfacet
  facet normal 0 0 1
    outer loop
      vertex 13.559 21.063 5
      vertex 16.933 20.235 5
      vertex 24.464 23.584 5
    endloop
  endfacet
  facet normal 0 0 1
    outer loop
      vertex 8.469 22.637 5
      vertex 15.449 25.801 5
      vertex 12.389 26.716 5
    endloop
  endfacet
  facet normal 0 0 1
    outer loop
      vertex 6.621 23.45 5
      vertex 8.469 22.637 5
      vertex 10.323 27.616 5
    endloop
  endfacet
  facet normal 0 0 1
    outer loop
      vertex 8.469 22.637 5
      vertex 10.76 21.852 5
      vertex 15.449 25.801 5
    endloop
  endfacet
  facet normal 0 0 1
    outer loop
      vertex 5.15 24.325 5
      vertex 8.862 28.645 5
      vertex 7.892 29.621 5
    endloop
  endfacet
  facet normal 0 0 1
    outer loop
      vertex 5.15 24.325 5
      vertex 6.621 23.45 5
      vertex 8.862 28.645 5
    endloop
  endfacet
  facet normal 0 0 1
    outer loop
      vertex 16.933 20.235 5
      vertex 21.648 18.984 5
      vertex 29.009 21.646 5
    endloop
  endfacet
  facet normal 0 0 1
    outer loop
      vertex 3.991 25.297 5
      vertex 6.885 31.655 5
      vertex 6.773 32.851 5
    endloop
  endfacet
  facet normal 0 0 1
    outer loop
      vertex 14.281 44.055 5
      vertex 7.481 35.592 5
      vertex 9.44 37.713 5
    endloop
  endfacet
  facet normal 0 0 1
    outer loop
      vertex 18.602 44.164 5
      vertex 9.44 37.713 5
      vertex 12.456 39.083 5
    endloop
  endfacet
  facet normal 0 0 1
    outer loop
      vertex 25.765 42.251 5
      vertex 12.456 39.083 5
      vertex 16.341 39.568 5
    endloop
  endfacet
  facet normal 0 0 1
    outer loop
      vertex 30.134 38.337 5
      vertex 16.341 39.568 5
      vertex 19.976 39.202 5
    endloop
  endfacet
  facet normal 0 0 1
    outer loop
      vertex 31.372 36.111 5
      vertex 19.976 39.202 5
      vertex 22.884 38.104 5
    endloop
  endfacet
  facet normal 0 0 1
    outer loop
      vertex 32.456 30.536 5
      vertex 22.884 38.104 5
      vertex 25.067 36.27 5
    endloop
  endfacet
  facet normal 0 0 1
    outer loop
      vertex 32.456 30.536 5
      vertex 25.067 36.27 5
      vertex 26.529 33.697 5
    endloop
  endfacet
  facet normal 0 0 1
    outer loop
      vertex 1.575 34.093 5
      vertex 1.552 32.371 5
      vertex 1.683 35.232 5
    endloop
  endfacet
  facet normal 0 0 1
    outer loop
      vertex 3.991 25.297 5
      vertex 5.15 24.325 5
      vertex 7.246 30.601 5
    endloop
  endfacet
  facet normal 0 0 1
    outer loop
      vertex 32.456 31.383 5
      vertex 22.884 38.104 5
      vertex 32.456 30.536 5
    endloop
  endfacet
  facet normal 0 0 1
    outer loop
      vertex 32.172 33.737 5
      vertex 22.884 38.104 5
      vertex 32.456 31.383 5
    endloop
  endfacet
  facet normal 0 0 1
    outer loop
      vertex 31.372 36.111 5
      vertex 22.884 38.104 5
      vertex 32.172 33.737 5
    endloop
  endfacet
  facet normal 0 0 1
    outer loop
      vertex 30.134 38.337 5
      vertex 19.976 39.202 5
      vertex 31.372 36.111 5
    endloop
  endfacet
  facet normal 0 0 1
    outer loop
      vertex 28.532 40.246 5
      vertex 16.341 39.568 5
      vertex 30.134 38.337 5
    endloop
  endfacet
  facet normal 0 0 1
    outer loop
      vertex 25.765 42.251 5
      vertex 16.341 39.568 5
      vertex 28.532 40.246 5
    endloop
  endfacet
  facet normal 0 0 1
    outer loop
      vertex 22.443 43.559 5
      vertex 12.456 39.083 5
      vertex 25.765 42.251 5
    endloop
  endfacet
  facet normal 0 0 1
    outer loop
      vertex 18.602 44.164 5
      vertex 12.456 39.083 5
      vertex 22.443 43.559 5
    endloop
  endfacet
  facet normal 0 0 1
    outer loop
      vertex 14.281 44.055 5
      vertex 9.44 37.713 5
      vertex 18.602 44.164 5
    endloop
  endfacet
  facet normal 0 0 1
    outer loop
      vertex 10.572 43.319 5
      vertex 7.481 35.592 5
      vertex 14.281 44.055 5
    endloop
  endfacet
  facet normal 0 0 1
    outer loop
      vertex 7.225 42.051 5
      vertex 7.481 35.592 5
      vertex 10.572 43.319 5
    endloop
  endfacet
  facet normal 0 0 1
    outer loop
      vertex 3.991 25.297 5
      vertex 7.246 30.601 5
      vertex 6.885 31.655 5
    endloop
  endfacet
  facet normal 0 0 1
    outer loop
      vertex 3.077 26.396 5
      vertex 7.481 35.592 5
      vertex 7.225 42.051 5
    endloop
  endfacet
  facet normal 0 0 1
    outer loop
      vertex 3.077 26.396 5
      vertex 3.991 25.297 5
      vertex 7.481 35.592 5
    endloop
  endfacet
  facet normal 0 0 1
    outer loop
      vertex 2.343 27.659 5
      vertex 5.854 41.148 5
      vertex 4.455 39.882 5
    endloop
  endfacet
  facet normal 0 0 1
    outer loop
      vertex 1.921 28.618 5
      vertex 2.343 27.659 5
      vertex 3.219 38.451 5
    endloop
  endfacet
  facet normal 0 0 1
    outer loop
      vertex 1.575 30.652 5
      vertex 1.683 29.507 5
      vertex 2.343 37.055 5
    endloop
  endfacet
  facet normal 0 0 1
    outer loop
      vertex 1.552 32.371 5
      vertex 1.575 30.652 5
      vertex 1.921 36.114 5
    endloop
  endfacet
  facet normal 0 0 1
    outer loop
      vertex 1.683 35.232 5
      vertex 1.552 32.371 5
      vertex 1.921 36.114 5
    endloop
  endfacet
  facet normal 0 0 1
    outer loop
      vertex 1.921 36.114 5
      vertex 1.575 30.652 5
      vertex 2.343 37.055 5
    endloop
  endfacet
  facet normal 0 0 1
    outer loop
      vertex 2.343 37.055 5
      vertex 1.683 29.507 5
      vertex 3.219 38.451 5
    endloop
  endfacet
  facet normal 0 0 1
    outer loop
      vertex 1.683 29.507 5
      vertex 1.921 28.618 5
      vertex 3.219 38.451 5
    endloop
  endfacet
  facet normal 0 0 1
    outer loop
      vertex 3.219 38.451 5
      vertex 2.343 27.659 5
      vertex 4.455 39.882 5
    endloop
  endfacet
  facet normal 0 0 1
    outer loop
      vertex 5.854 41.148 5
      vertex 3.077 26.396 5
      vertex 7.225 42.051 5
    endloop
  endfacet
  facet normal 0 0 1
    outer loop
      vertex 7.481 35.592 5
      vertex 3.991 25.297 5
      vertex 6.773 32.851 5
    endloop
  endfacet
  facet normal 0 0 1
    outer loop
      vertex 7.246 30.601 5
      vertex 5.15 24.325 5
      vertex 7.892 29.621 5
    endloop
  endfacet
  facet normal 0 0 1
    outer loop
      vertex 8.862 28.645 5
      vertex 6.621 23.45 5
      vertex 10.323 27.616 5
    endloop
  endfacet
  facet normal 0 0 1
    outer loop
      vertex 10.323 27.616 5
      vertex 8.469 22.637 5
      vertex 12.389 26.716 5
    endloop
  endfacet
  facet normal 0 0 1
    outer loop
      vertex 15.449 25.801 5
      vertex 10.76 21.852 5
      vertex 19.896 24.723 5
    endloop
  endfacet
  facet normal 0 0 1
    outer loop
      vertex 19.896 24.723 5
      vertex 13.559 21.063 5
      vertex 22.313 24.156 5
    endloop
  endfacet
  facet normal 0 0 1
    outer loop
      vertex 24.464 23.584 5
      vertex 16.933 20.235 5
      vertex 26.187 23.06 5
    endloop
  endfacet
  facet normal 0 0 1
    outer loop
      vertex 29.009 21.646 5
      vertex 21.648 18.984 5
      vertex 30.602 20.339 5
    endloop
  endfacet
  facet normal 0 0 1
    outer loop
      vertex 31.958 18.845 5
      vertex 24.892 17.713 5
      vertex 32.935 17.3 5
    endloop
  endfacet
  facet normal 0 0 1
    outer loop
      vertex 32.935 17.3 5
      vertex 26.95 16.279 5
      vertex 33.368 16.356 5
    endloop
  endfacet
  facet normal 0 0 1
    outer loop
      vertex 33.605 15.46 5
      vertex 28.109 14.534 5
      vertex 33.705 14.277 5
    endloop
  endfacet
  facet normal 0 0 1
    outer loop
      vertex 33.705 14.277 5
      vertex 28.4 13.406 5
      vertex 33.726 12.474 5
    endloop
  endfacet
  facet normal 0 0 1
    outer loop
      vertex 33.726 12.474 5
      vertex 28.472 12.055 5
      vertex 33.704 10.651 5
    endloop
  endfacet
  facet normal 0 0 1
    outer loop
      vertex 33.704 10.651 5
      vertex 28.327 10.689 5
      vertex 33.602 9.466 5
    endloop
  endfacet
  facet normal 0 0 1
    outer loop
      vertex 33.602 9.466 5
      vertex 27.969 9.511 5
      vertex 33.357 8.549 5
    endloop
  endfacet
  facet normal 0 0 1
    outer loop
      vertex 32.908 7.535 5
      vertex 26.808 7.833 5
      vertex 30.497 4.331 5
    endloop
  endfacet
  facet normal 0 0 1
    outer loop
      vertex 26.808 7.833 5
      vertex 25.072 6.474 5
      vertex 30.497 4.331 5
    endloop
  endfacet
  facet normal 0 0 1
    outer loop
      vertex 30.497 4.331 5
      vertex 22.893 5.458 5
      vertex 26.931 1.96 5
    endloop
  endfacet
  facet normal 0 0 1
    outer loop
      vertex 26.931 1.96 5
      vertex 20.407 4.809 5
      vertex 22.357 0.492 5
    endloop
  endfacet
  facet normal 0 0 1
    outer loop
      vertex 20.407 4.809 5
      vertex 17.748 4.55 5
      vertex 22.357 0.492 5
    endloop
  endfacet
  facet normal 0 0 1
    outer loop
      vertex 22.357 0.492 5
      vertex 15.05 4.706 5
      vertex 16.933 0 5
    endloop
  endfacet
  facet normal 0 0 1
    outer loop
      vertex 15.05 4.706 5
      vertex 12.446 5.299 5
      vertex 16.933 0 5
    endloop
  endfacet
  facet normal 0 0 1
    outer loop
      vertex 12.446 5.299 5
      vertex 10.075 6.35 5
      vertex 16.933 0 5
    endloop
  endfacet
  facet normal 0 0 1
    outer loop
      vertex 8.407 7.644 5
      vertex 0 13.801 5
      vertex 10.075 6.35 5
    endloop
  endfacet
  facet normal 0 0 1
    outer loop
      vertex 5.475 13.378 5
      vertex 5.278 14.733 5
      vertex 0 13.801 5
    endloop
  endfacet
  facet normal 0 0 1
    outer loop
      vertex 27.969 9.511 5
      vertex 26.808 7.833 5
      vertex 32.908 7.535 5
    endloop
  endfacet
  facet normal 0 0 1
    outer loop
      vertex 26.95 16.279 5
      vertex 28.109 14.534 5
      vertex 33.605 15.46 5
    endloop
  endfacet
  facet normal 0 0 1
    outer loop
      vertex 7.022 9.346 5
      vertex 6.014 11.308 5
      vertex 0 13.801 5
    endloop
  endfacet
  facet normal 0 0 1
    outer loop
      vertex 2.343 27.659 5
      vertex 3.077 26.396 5
      vertex 5.854 41.148 5
    endloop
  endfacet
  facet normal 0 0 1
    outer loop
      vertex 26.927 32.403 5
      vertex 32.456 30.536 5
      vertex 26.529 33.697 5
    endloop
  endfacet
  facet normal 0 0 1
    outer loop
      vertex 27.094 31.383 5
      vertex 32.456 30.536 5
      vertex 26.927 32.403 5
    endloop
  endfacet
  facet normal 0 0 1
    outer loop
      vertex 27.094 30.536 5
      vertex 32.456 30.536 5
      vertex 27.094 31.383 5
    endloop
  endfacet
  facet normal 0 0 1
    outer loop
      vertex 6.014 11.308 5
      vertex 5.475 13.378 5
      vertex 0 13.801 5
    endloop
  endfacet
  facet normal 0 0 1
    outer loop
      vertex 5.278 14.733 5
      vertex 0 14.733 5
      vertex 0 13.801 5
    endloop
  endfacet
  facet normal -0.979712 -0.200411 0
    outer loop
      vertex 0.423 11.205 -5
      vertex 0.423 11.205 5
      vertex 0.127 12.652 -5
    endloop
  endfacet
  facet normal -0.979712 -0.200411 0
    outer loop
      vertex 0.127 12.652 -5
      vertex 0.423 11.205 5
      vertex 0.127 12.652 5
    endloop
  endfacet
  facet normal -0.917217 -0.398387 0
    outer loop
      vertex 2.53 6.354 -5
      vertex 2.53 6.354 5
      vertex 0.423 11.205 -5
    endloop
  endfacet
  facet normal -0.917217 -0.398387 0
    outer loop
      vertex 0.423 11.205 -5
      vertex 2.53 6.354 5
      vertex 0.423 11.205 5
    endloop
  endfacet
  facet normal -0.709338 -0.704869 0
    outer loop
      vertex 6 2.862 -5
      vertex 6 2.862 5
      vertex 2.53 6.354 -5
    endloop
  endfacet
  facet normal -0.709338 -0.704869 0
    outer loop
      vertex 2.53 6.354 -5
      vertex 6 2.862 5
      vertex 2.53 6.354 5
    endloop
  endfacet
  facet normal -0.403931 -0.91479 0
    outer loop
      vertex 6 2.862 -5
      vertex 10.808 0.739 -5
      vertex 10.808 0.739 5
    endloop
  endfacet
  facet normal -0.403931 -0.91479 0
    outer loop
      vertex 6 2.862 5
      vertex 6 2.862 -5
      vertex 10.808 0.739 5
    endloop
  endfacet
  facet normal -0.119784 -0.9928 0
    outer loop
      vertex 10.808 0.739 -5
      vertex 16.933 0 -5
      vertex 16.933 0 5
    endloop
  endfacet
  facet normal -0.119784 -0.9928 0
    outer loop
      vertex 10.808 0.739 5
      vertex 10.808 0.739 -5
      vertex 16.933 0 5
    endloop
  endfacet
  facet normal 0.0903371 -0.995911 0
    outer loop
      vertex 16.933 0 -5
      vertex 22.357 0.492 -5
      vertex 22.357 0.492 5
    endloop
  endfacet
  facet normal 0.0903371 -0.995911 0
    outer loop
      vertex 16.933 0 5
      vertex 16.933 0 -5
      vertex 22.357 0.492 5
    endloop
  endfacet
  facet normal 0.305591 -0.952163 0
    outer loop
      vertex 22.357 0.492 -5
      vertex 26.931 1.96 -5
      vertex 26.931 1.96 5
    endloop
  endfacet
  facet normal 0.305591 -0.952163 0
    outer loop
      vertex 22.357 0.492 5
      vertex 22.357 0.492 -5
      vertex 26.931 1.96 5
    endloop
  endfacet
  facet normal 0.553676 -0.832732 0
    outer loop
      vertex 26.931 1.96 -5
      vertex 30.497 4.331 -5
      vertex 30.497 4.331 5
    endloop
  endfacet
  facet normal 0.553676 -0.832732 0
    outer loop
      vertex 26.931 1.96 5
      vertex 26.931 1.96 -5
      vertex 30.497 4.331 5
    endloop
  endfacet
  facet normal 0.799041 -0.601276 0
    outer loop
      vertex 30.497 4.331 -5
      vertex 32.908 7.535 -5
      vertex 32.908 7.535 5
    endloop
  endfacet
  facet normal 0.799041 -0.601276 0
    outer loop
      vertex 30.497 4.331 5
      vertex 30.497 4.331 -5
      vertex 32.908 7.535 5
    endloop
  endfacet
  facet normal 0.914368 -0.404883 0
    outer loop
      vertex 32.908 7.535 -5
      vertex 33.357 8.549 -5
      vertex 33.357 8.549 5
    endloop
  endfacet
  facet normal 0.914368 -0.404883 0
    outer loop
      vertex 32.908 7.535 5
      vertex 32.908 7.535 -5
      vertex 33.357 8.549 5
    endloop
  endfacet
  facet normal 0.966112 -0.258122 0
    outer loop
      vertex 33.357 8.549 -5
      vertex 33.602 9.466 -5
      vertex 33.602 9.466 5
    endloop
  endfacet
  facet normal 0.966112 -0.258122 0
    outer loop
      vertex 33.357 8.549 5
      vertex 33.357 8.549 -5
      vertex 33.602 9.466 5
    endloop
  endfacet
  facet normal 0.996316 -0.0857588 0
    outer loop
      vertex 33.602 9.466 -5
      vertex 33.704 10.651 -5
      vertex 33.704 10.651 5
    endloop
  endfacet
  facet normal 0.996316 -0.0857588 0
    outer loop
      vertex 33.602 9.466 5
      vertex 33.602 9.466 -5
      vertex 33.704 10.651 5
    endloop
  endfacet
  facet normal 0.999927 -0.0120671 0
    outer loop
      vertex 33.704 10.651 -5
      vertex 33.726 12.474 -5
      vertex 33.726 12.474 5
    endloop
  endfacet
  facet normal 0.999927 -0.0120671 0
    outer loop
      vertex 33.704 10.651 5
      vertex 33.704 10.651 -5
      vertex 33.726 12.474 5
    endloop
  endfacet
  facet normal 0.999932 0.0116465 0
    outer loop
      vertex 33.705 14.277 -5
      vertex 33.705 14.277 5
      vertex 33.726 12.474 5
    endloop
  endfacet
  facet normal 0.999932 0.0116465 0
    outer loop
      vertex 33.726 12.474 -5
      vertex 33.705 14.277 -5
      vertex 33.726 12.474 5
    endloop
  endfacet
  facet normal 0.996446 0.0842305 0
    outer loop
      vertex 33.605 15.46 -5
      vertex 33.605 15.46 5
      vertex 33.705 14.277 5
    endloop
  endfacet
  facet normal 0.996446 0.0842305 0
    outer loop
      vertex 33.705 14.277 -5
      vertex 33.605 15.46 -5
      vertex 33.705 14.277 5
    endloop
  endfacet
  facet normal 0.966752 0.255715 0
    outer loop
      vertex 33.368 16.356 -5
      vertex 33.368 16.356 5
      vertex 33.605 15.46 5
    endloop
  endfacet
  facet normal 0.966752 0.255715 0
    outer loop
      vertex 33.605 15.46 -5
      vertex 33.368 16.356 -5
      vertex 33.605 15.46 5
    endloop
  endfacet
  facet normal 0.908943 0.41692 0
    outer loop
      vertex 32.935 17.3 -5
      vertex 32.935 17.3 5
      vertex 33.368 16.356 5
    endloop
  endfacet
  facet normal 0.908943 0.41692 0
    outer loop
      vertex 33.368 16.356 -5
      vertex 32.935 17.3 -5
      vertex 33.368 16.356 5
    endloop
  endfacet
  facet normal 0.84519 0.534466 0
    outer loop
      vertex 31.958 18.845 -5
      vertex 31.958 18.845 5
      vertex 32.935 17.3 5
    endloop
  endfacet
  facet normal 0.84519 0.534466 0
    outer loop
      vertex 32.935 17.3 -5
      vertex 31.958 18.845 -5
      vertex 32.935 17.3 5
    endloop
  endfacet
  facet normal 0.740478 0.672081 0
    outer loop
      vertex 30.602 20.339 -5
      vertex 30.602 20.339 5
      vertex 31.958 18.845 5
    endloop
  endfacet
  facet normal 0.740478 0.672081 0
    outer loop
      vertex 31.958 18.845 -5
      vertex 30.602 20.339 -5
      vertex 31.958 18.845 5
    endloop
  endfacet
  facet normal 0.634294 0.773092 0
    outer loop
      vertex 29.009 21.646 5
      vertex 30.602 20.339 5
      vertex 29.009 21.646 -5
    endloop
  endfacet
  facet normal 0.634294 0.773092 0
    outer loop
      vertex 29.009 21.646 -5
      vertex 30.602 20.339 5
      vertex 30.602 20.339 -5
    endloop
  endfacet
  facet normal 0.504919 0.863167 0
    outer loop
      vertex 27.32 22.634 5
      vertex 29.009 21.646 5
      vertex 27.32 22.634 -5
    endloop
  endfacet
  facet normal 0.504919 0.863167 0
    outer loop
      vertex 27.32 22.634 -5
      vertex 29.009 21.646 5
      vertex 29.009 21.646 -5
    endloop
  endfacet
  facet normal 0.351938 0.936023 0
    outer loop
      vertex 26.187 23.06 5
      vertex 27.32 22.634 5
      vertex 26.187 23.06 -5
    endloop
  endfacet
  facet normal 0.351938 0.936023 0
    outer loop
      vertex 26.187 23.06 -5
      vertex 27.32 22.634 5
      vertex 27.32 22.634 -5
    endloop
  endfacet
  facet normal 0.290963 0.956734 0
    outer loop
      vertex 24.464 23.584 5
      vertex 26.187 23.06 5
      vertex 24.464 23.584 -5
    endloop
  endfacet
  facet normal 0.290963 0.956734 0
    outer loop
      vertex 24.464 23.584 -5
      vertex 26.187 23.06 5
      vertex 26.187 23.06 -5
    endloop
  endfacet
  facet normal 0.256991 0.966414 0
    outer loop
      vertex 22.313 24.156 5
      vertex 24.464 23.584 5
      vertex 22.313 24.156 -5
    endloop
  endfacet
  facet normal 0.256991 0.966414 0
    outer loop
      vertex 22.313 24.156 -5
      vertex 24.464 23.584 5
      vertex 24.464 23.584 -5
    endloop
  endfacet
  facet normal 0.228388 0.97357 0
    outer loop
      vertex 19.896 24.723 5
      vertex 22.313 24.156 5
      vertex 19.896 24.723 -5
    endloop
  endfacet
  facet normal 0.228388 0.97357 0
    outer loop
      vertex 19.896 24.723 -5
      vertex 22.313 24.156 5
      vertex 22.313 24.156 -5
    endloop
  endfacet
  facet normal 0.235588 0.971853 0
    outer loop
      vertex 15.449 25.801 5
      vertex 19.896 24.723 5
      vertex 15.449 25.801 -5
    endloop
  endfacet
  facet normal 0.235588 0.971853 0
    outer loop
      vertex 15.449 25.801 -5
      vertex 19.896 24.723 5
      vertex 19.896 24.723 -5
    endloop
  endfacet
  facet normal 0.286486 0.958084 0
    outer loop
      vertex 12.389 26.716 5
      vertex 15.449 25.801 5
      vertex 12.389 26.716 -5
    endloop
  endfacet
  facet normal 0.286486 0.958084 0
    outer loop
      vertex 12.389 26.716 -5
      vertex 15.449 25.801 5
      vertex 15.449 25.801 -5
    endloop
  endfacet
  facet normal 0.399375 0.916788 0
    outer loop
      vertex 10.323 27.616 5
      vertex 12.389 26.716 5
      vertex 10.323 27.616 -5
    endloop
  endfacet
  facet normal 0.399375 0.916788 0
    outer loop
      vertex 10.323 27.616 -5
      vertex 12.389 26.716 5
      vertex 12.389 26.716 -5
    endloop
  endfacet
  facet normal 0.575826 0.817572 0
    outer loop
      vertex 8.862 28.645 5
      vertex 10.323 27.616 5
      vertex 8.862 28.645 -5
    endloop
  endfacet
  facet normal 0.575826 0.817572 0
    outer loop
      vertex 8.862 28.645 -5
      vertex 10.323 27.616 5
      vertex 10.323 27.616 -5
    endloop
  endfacet
  facet normal 0.709284 0.704923 0
    outer loop
      vertex 7.892 29.621 -5
      vertex 7.892 29.621 5
      vertex 8.862 28.645 5
    endloop
  endfacet
  facet normal 0.709284 0.704923 0
    outer loop
      vertex 8.862 28.645 -5
      vertex 7.892 29.621 -5
      vertex 8.862 28.645 5
    endloop
  endfacet
  facet normal 0.834923 0.550367 0
    outer loop
      vertex 7.246 30.601 -5
      vertex 7.246 30.601 5
      vertex 7.892 29.621 5
    endloop
  endfacet
  facet normal 0.834923 0.550367 0
    outer loop
      vertex 7.892 29.621 -5
      vertex 7.246 30.601 -5
      vertex 7.892 29.621 5
    endloop
  endfacet
  facet normal 0.946048 0.324026 0
    outer loop
      vertex 6.885 31.655 -5
      vertex 6.885 31.655 5
      vertex 7.246 30.601 5
    endloop
  endfacet
  facet normal 0.946048 0.324026 0
    outer loop
      vertex 7.246 30.601 -5
      vertex 6.885 31.655 -5
      vertex 7.246 30.601 5
    endloop
  endfacet
  facet normal 0.995644 0.0932376 0
    outer loop
      vertex 6.773 32.851 -5
      vertex 6.773 32.851 5
      vertex 6.885 31.655 5
    endloop
  endfacet
  facet normal 0.995644 0.0932376 0
    outer loop
      vertex 6.885 31.655 -5
      vertex 6.773 32.851 -5
      vertex 6.885 31.655 5
    endloop
  endfacet
  facet normal 0.968222 -0.250092 0
    outer loop
      vertex 6.773 32.851 -5
      vertex 7.481 35.592 -5
      vertex 7.481 35.592 5
    endloop
  endfacet
  facet normal 0.968222 -0.250092 0
    outer loop
      vertex 6.773 32.851 5
      vertex 6.773 32.851 -5
      vertex 7.481 35.592 5
    endloop
  endfacet
  facet normal 0.734604 -0.678496 0
    outer loop
      vertex 7.481 35.592 -5
      vertex 9.44 37.713 -5
      vertex 9.44 37.713 5
    endloop
  endfacet
  facet normal 0.734604 -0.678496 0
    outer loop
      vertex 7.481 35.592 5
      vertex 7.481 35.592 -5
      vertex 9.44 37.713 5
    endloop
  endfacet
  facet normal 0.413575 -0.91047 0
    outer loop
      vertex 9.44 37.713 -5
      vertex 12.456 39.083 -5
      vertex 12.456 39.083 5
    endloop
  endfacet
  facet normal 0.413575 -0.91047 0
    outer loop
      vertex 9.44 37.713 5
      vertex 9.44 37.713 -5
      vertex 12.456 39.083 5
    endloop
  endfacet
  facet normal 0.123878 -0.992298 0
    outer loop
      vertex 12.456 39.083 -5
      vertex 16.341 39.568 -5
      vertex 16.341 39.568 5
    endloop
  endfacet
  facet normal 0.123878 -0.992298 0
    outer loop
      vertex 12.456 39.083 5
      vertex 12.456 39.083 -5
      vertex 16.341 39.568 5
    endloop
  endfacet
  facet normal -0.100181 -0.994969 0
    outer loop
      vertex 16.341 39.568 -5
      vertex 19.976 39.202 -5
      vertex 19.976 39.202 5
    endloop
  endfacet
  facet normal -0.100181 -0.994969 0
    outer loop
      vertex 16.341 39.568 5
      vertex 16.341 39.568 -5
      vertex 19.976 39.202 5
    endloop
  endfacet
  facet normal -0.353238 -0.935534 0
    outer loop
      vertex 19.976 39.202 -5
      vertex 22.884 38.104 -5
      vertex 22.884 38.104 5
    endloop
  endfacet
  facet normal -0.353238 -0.935534 0
    outer loop
      vertex 19.976 39.202 5
      vertex 19.976 39.202 -5
      vertex 22.884 38.104 5
    endloop
  endfacet
  facet normal -0.64325 -0.765656 0
    outer loop
      vertex 22.884 38.104 -5
      vertex 25.067 36.27 -5
      vertex 25.067 36.27 5
    endloop
  endfacet
  facet normal -0.64325 -0.765656 0
    outer loop
      vertex 22.884 38.104 5
      vertex 22.884 38.104 -5
      vertex 25.067 36.27 5
    endloop
  endfacet
  facet normal -0.869447 -0.494027 0
    outer loop
      vertex 26.529 33.697 -5
      vertex 26.529 33.697 5
      vertex 25.067 36.27 -5
    endloop
  endfacet
  facet normal -0.869447 -0.494027 0
    outer loop
      vertex 25.067 36.27 -5
      vertex 26.529 33.697 5
      vertex 25.067 36.27 5
    endloop
  endfacet
  facet normal -0.955811 -0.293982 0
    outer loop
      vertex 26.927 32.403 -5
      vertex 26.927 32.403 5
      vertex 26.529 33.697 -5
    endloop
  endfacet
  facet normal -0.955811 -0.293982 0
    outer loop
      vertex 26.529 33.697 -5
      vertex 26.927 32.403 5
      vertex 26.529 33.697 5
    endloop
  endfacet
  facet normal -0.986861 -0.161574 0
    outer loop
      vertex 27.094 31.383 -5
      vertex 27.094 31.383 5
      vertex 26.927 32.403 -5
    endloop
  endfacet
  facet normal -0.986861 -0.161574 0
    outer loop
      vertex 26.927 32.403 -5
      vertex 27.094 31.383 5
      vertex 26.927 32.403 5
    endloop
  endfacet
  facet normal -1 0 0
    outer loop
      vertex 27.094 30.536 5
      vertex 27.094 31.383 5
      vertex 27.094 30.536 -5
    endloop
  endfacet
  facet normal -1 0 0
    outer loop
      vertex 27.094 30.536 -5
      vertex 27.094 31.383 5
      vertex 27.094 31.383 -5
    endloop
  endfacet
  facet normal 0 -1 0
    outer loop
      vertex 27.094 30.536 -5
      vertex 32.456 30.536 -5
      vertex 32.456 30.536 5
    endloop
  endfacet
  facet normal 0 -1 0
    outer loop
      vertex 27.094 30.536 5
      vertex 27.094 30.536 -5
      vertex 32.456 30.536 5
    endloop
  endfacet
  facet normal 1 0 0
    outer loop
      vertex 32.456 30.536 -5
      vertex 32.456 31.383 -5
      vertex 32.456 31.383 5
    endloop
  endfacet
  facet normal 1 0 0
    outer loop
      vertex 32.456 30.536 5
      vertex 32.456 30.536 -5
      vertex 32.456 31.383 5
    endloop
  endfacet
  facet normal 0.992801 0.119777 0
    outer loop
      vertex 32.172 33.737 -5
      vertex 32.172 33.737 5
      vertex 32.456 31.383 5
    endloop
  endfacet
  facet normal 0.992801 0.119777 0
    outer loop
      vertex 32.456 31.383 -5
      vertex 32.172 33.737 -5
      vertex 32.456 31.383 5
    endloop
  endfacet
  facet normal 0.94764 0.31934 0
    outer loop
      vertex 31.372 36.111 -5
      vertex 31.372 36.111 5
      vertex 32.172 33.737 5
    endloop
  endfacet
  facet normal 0.94764 0.31934 0
    outer loop
      vertex 32.172 33.737 -5
      vertex 31.372 36.111 -5
      vertex 32.172 33.737 5
    endloop
  endfacet
  facet normal 0.873935 0.486043 0
    outer loop
      vertex 30.134 38.337 -5
      vertex 30.134 38.337 5
      vertex 31.372 36.111 5
    endloop
  endfacet
  facet normal 0.873935 0.486043 0
    outer loop
      vertex 31.372 36.111 -5
      vertex 30.134 38.337 -5
      vertex 31.372 36.111 5
    endloop
  endfacet
  facet normal 0.766013 0.642825 0
    outer loop
      vertex 28.532 40.246 -5
      vertex 28.532 40.246 5
      vertex 30.134 38.337 5
    endloop
  endfacet
  facet normal 0.766013 0.642825 0
    outer loop
      vertex 30.134 38.337 -5
      vertex 28.532 40.246 -5
      vertex 30.134 38.337 5
    endloop
  endfacet
  facet normal 0.586761 0.80976 0
    outer loop
      vertex 25.765 42.251 5
      vertex 28.532 40.246 5
      vertex 25.765 42.251 -5
    endloop
  endfacet
  facet normal 0.586761 0.80976 0
    outer loop
      vertex 25.765 42.251 -5
      vertex 28.532 40.246 5
      vertex 28.532 40.246 -5
    endloop
  endfacet
  facet normal 0.366363 0.930472 0
    outer loop
      vertex 22.443 43.559 5
      vertex 25.765 42.251 5
      vertex 22.443 43.559 -5
    endloop
  endfacet
  facet normal 0.366363 0.930472 0
    outer loop
      vertex 22.443 43.559 -5
      vertex 25.765 42.251 5
      vertex 25.765 42.251 -5
    endloop
  endfacet
  facet normal 0.155593 0.987821 0
    outer loop
      vertex 18.602 44.164 5
      vertex 22.443 43.559 5
      vertex 18.602 44.164 -5
    endloop
  endfacet
  facet normal 0.155593 0.987821 0
    outer loop
      vertex 18.602 44.164 -5
      vertex 22.443 43.559 5
      vertex 22.443 43.559 -5
    endloop
  endfacet
  facet normal -0.0252176 0.999682 0
    outer loop
      vertex 14.281 44.055 5
      vertex 18.602 44.164 5
      vertex 14.281 44.055 -5
    endloop
  endfacet
  facet normal -0.0252176 0.999682 0
    outer loop
      vertex 14.281 44.055 -5
      vertex 18.602 44.164 5
      vertex 18.602 44.164 -5
    endloop
  endfacet
  facet normal -0.194641 0.980875 0
    outer loop
      vertex 10.572 43.319 5
      vertex 14.281 44.055 5
      vertex 10.572 43.319 -5
    endloop
  endfacet
  facet normal -0.194641 0.980875 0
    outer loop
      vertex 10.572 43.319 -5
      vertex 14.281 44.055 5
      vertex 14.281 44.055 -5
    endloop
  endfacet
  facet normal -0.354275 0.935141 0
    outer loop
      vertex 7.225 42.051 5
      vertex 10.572 43.319 5
      vertex 7.225 42.051 -5
    endloop
  endfacet
  facet normal -0.354275 0.935141 0
    outer loop
      vertex 7.225 42.051 -5
      vertex 10.572 43.319 5
      vertex 10.572 43.319 -5
    endloop
  endfacet
  facet normal -0.550053 0.83513 0
    outer loop
      vertex 5.854 41.148 5
      vertex 7.225 42.051 5
      vertex 5.854 41.148 -5
    endloop
  endfacet
  facet normal -0.550053 0.83513 0
    outer loop
      vertex 5.854 41.148 -5
      vertex 7.225 42.051 5
      vertex 7.225 42.051 -5
    endloop
  endfacet
  facet normal -0.670983 0.741473 0
    outer loop
      vertex 4.455 39.882 5
      vertex 5.854 41.148 5
      vertex 4.455 39.882 -5
    endloop
  endfacet
  facet normal -0.670983 0.741473 0
    outer loop
      vertex 4.455 39.882 -5
      vertex 5.854 41.148 5
      vertex 5.854 41.148 -5
    endloop
  endfacet
  facet normal -0.756787 0.653661 0
    outer loop
      vertex 3.219 38.451 5
      vertex 4.455 39.882 5
      vertex 3.219 38.451 -5
    endloop
  endfacet
  facet normal -0.756787 0.653661 0
    outer loop
      vertex 3.219 38.451 -5
      vertex 4.455 39.882 5
      vertex 4.455 39.882 -5
    endloop
  endfacet
  facet normal -0.847042 0.531525 0
    outer loop
      vertex 2.343 37.055 5
      vertex 3.219 38.451 5
      vertex 2.343 37.055 -5
    endloop
  endfacet
  facet normal -0.847042 0.531525 0
    outer loop
      vertex 2.343 37.055 -5
      vertex 3.219 38.451 5
      vertex 3.219 38.451 -5
    endloop
  endfacet
  facet normal -0.912447 0.409195 0
    outer loop
      vertex 1.921 36.114 5
      vertex 2.343 37.055 5
      vertex 1.921 36.114 -5
    endloop
  endfacet
  facet normal -0.912447 0.409195 0
    outer loop
      vertex 1.921 36.114 -5
      vertex 2.343 37.055 5
      vertex 2.343 37.055 -5
    endloop
  endfacet
  facet normal -0.965468 0.260523 0
    outer loop
      vertex 1.683 35.232 5
      vertex 1.921 36.114 5
      vertex 1.683 35.232 -5
    endloop
  endfacet
  facet normal -0.965468 0.260523 0
    outer loop
      vertex 1.683 35.232 -5
      vertex 1.921 36.114 5
      vertex 1.921 36.114 -5
    endloop
  endfacet
  facet normal -0.995535 0.0943966 0
    outer loop
      vertex 1.575 34.093 5
      vertex 1.683 35.232 5
      vertex 1.575 34.093 -5
    endloop
  endfacet
  facet normal -0.995535 0.0943966 0
    outer loop
      vertex 1.575 34.093 -5
      vertex 1.683 35.232 5
      vertex 1.683 35.232 -5
    endloop
  endfacet
  facet normal -0.999911 0.0133554 0
    outer loop
      vertex 1.552 32.371 5
      vertex 1.575 34.093 5
      vertex 1.552 32.371 -5
    endloop
  endfacet
  facet normal -0.999911 0.0133554 0
    outer loop
      vertex 1.552 32.371 -5
      vertex 1.575 34.093 5
      vertex 1.575 34.093 -5
    endloop
  endfacet
  facet normal -0.999911 -0.0133787 0
    outer loop
      vertex 1.575 30.652 -5
      vertex 1.575 30.652 5
      vertex 1.552 32.371 -5
    endloop
  endfacet
  facet normal -0.999911 -0.0133787 0
    outer loop
      vertex 1.552 32.371 -5
      vertex 1.575 30.652 5
      vertex 1.552 32.371 5
    endloop
  endfacet
  facet normal -0.995581 -0.0939063 0
    outer loop
      vertex 1.683 29.507 -5
      vertex 1.683 29.507 5
      vertex 1.575 30.652 -5
    endloop
  endfacet
  facet normal -0.995581 -0.0939063 0
    outer loop
      vertex 1.575 30.652 -5
      vertex 1.683 29.507 5
      vertex 1.575 30.652 5
    endloop
  endfacet
  facet normal -0.965982 -0.258609 0
    outer loop
      vertex 1.921 28.618 -5
      vertex 1.921 28.618 5
      vertex 1.683 29.507 -5
    endloop
  endfacet
  facet normal -0.965982 -0.258609 0
    outer loop
      vertex 1.683 29.507 -5
      vertex 1.921 28.618 5
      vertex 1.683 29.507 5
    endloop
  endfacet
  facet normal -0.915301 -0.402771 0
    outer loop
      vertex 2.343 27.659 -5
      vertex 2.343 27.659 5
      vertex 1.921 28.618 -5
    endloop
  endfacet
  facet normal -0.915301 -0.402771 0
    outer loop
      vertex 1.921 28.618 -5
      vertex 2.343 27.659 5
      vertex 1.921 28.618 5
    endloop
  endfacet
  facet normal -0.864597 -0.502466 0
    outer loop
      vertex 3.077 26.396 -5
      vertex 3.077 26.396 5
      vertex 2.343 27.659 -5
    endloop
  endfacet
  facet normal -0.864597 -0.502466 0
    outer loop
      vertex 2.343 27.659 -5
      vertex 3.077 26.396 5
      vertex 2.343 27.659 5
    endloop
  endfacet
  facet normal -0.768852 -0.639427 0
    outer loop
      vertex 3.991 25.297 -5
      vertex 3.991 25.297 5
      vertex 3.077 26.396 -5
    endloop
  endfacet
  facet normal -0.768852 -0.639427 0
    outer loop
      vertex 3.077 26.396 -5
      vertex 3.991 25.297 5
      vertex 3.077 26.396 5
    endloop
  endfacet
  facet normal -0.642587 -0.766213 0
    outer loop
      vertex 3.991 25.297 -5
      vertex 5.15 24.325 -5
      vertex 5.15 24.325 5
    endloop
  endfacet
  facet normal -0.642587 -0.766213 0
    outer loop
      vertex 3.991 25.297 5
      vertex 3.991 25.297 -5
      vertex 5.15 24.325 5
    endloop
  endfacet
  facet normal -0.511227 -0.859446 0
    outer loop
      vertex 5.15 24.325 -5
      vertex 6.621 23.45 -5
      vertex 6.621 23.45 5
    endloop
  endfacet
  facet normal -0.511227 -0.859446 0
    outer loop
      vertex 5.15 24.325 5
      vertex 5.15 24.325 -5
      vertex 6.621 23.45 5
    endloop
  endfacet
  facet normal -0.402689 -0.915337 0
    outer loop
      vertex 6.621 23.45 -5
      vertex 8.469 22.637 -5
      vertex 8.469 22.637 5
    endloop
  endfacet
  facet normal -0.402689 -0.915337 0
    outer loop
      vertex 6.621 23.45 5
      vertex 6.621 23.45 -5
      vertex 8.469 22.637 5
    endloop
  endfacet
  facet normal -0.324145 -0.946007 0
    outer loop
      vertex 8.469 22.637 -5
      vertex 10.76 21.852 -5
      vertex 10.76 21.852 5
    endloop
  endfacet
  facet normal -0.324145 -0.946007 0
    outer loop
      vertex 8.469 22.637 5
      vertex 8.469 22.637 -5
      vertex 10.76 21.852 5
    endloop
  endfacet
  facet normal -0.271313 -0.962491 0
    outer loop
      vertex 10.76 21.852 -5
      vertex 13.559 21.063 -5
      vertex 13.559 21.063 5
    endloop
  endfacet
  facet normal -0.271313 -0.962491 0
    outer loop
      vertex 10.76 21.852 5
      vertex 10.76 21.852 -5
      vertex 13.559 21.063 5
    endloop
  endfacet
  facet normal -0.238334 -0.971183 0
    outer loop
      vertex 13.559 21.063 -5
      vertex 16.933 20.235 -5
      vertex 16.933 20.235 5
    endloop
  endfacet
  facet normal -0.238334 -0.971183 0
    outer loop
      vertex 13.559 21.063 5
      vertex 13.559 21.063 -5
      vertex 16.933 20.235 5
    endloop
  endfacet
  facet normal -0.25645 -0.966557 0
    outer loop
      vertex 16.933 20.235 -5
      vertex 21.648 18.984 -5
      vertex 21.648 18.984 5
    endloop
  endfacet
  facet normal -0.25645 -0.966557 0
    outer loop
      vertex 16.933 20.235 5
      vertex 16.933 20.235 -5
      vertex 21.648 18.984 5
    endloop
  endfacet
  facet normal -0.3648 -0.931086 0
    outer loop
      vertex 21.648 18.984 -5
      vertex 24.892 17.713 -5
      vertex 24.892 17.713 5
    endloop
  endfacet
  facet normal -0.3648 -0.931086 0
    outer loop
      vertex 21.648 18.984 5
      vertex 21.648 18.984 -5
      vertex 24.892 17.713 5
    endloop
  endfacet
  facet normal -0.571695 -0.820466 0
    outer loop
      vertex 24.892 17.713 -5
      vertex 26.95 16.279 -5
      vertex 26.95 16.279 5
    endloop
  endfacet
  facet normal -0.571695 -0.820466 0
    outer loop
      vertex 24.892 17.713 5
      vertex 24.892 17.713 -5
      vertex 26.95 16.279 5
    endloop
  endfacet
  facet normal -0.833004 -0.553267 0
    outer loop
      vertex 28.109 14.534 -5
      vertex 28.109 14.534 5
      vertex 26.95 16.279 -5
    endloop
  endfacet
  facet normal -0.833004 -0.553267 0
    outer loop
      vertex 26.95 16.279 -5
      vertex 28.109 14.534 5
      vertex 26.95 16.279 5
    endloop
  endfacet
  facet normal -0.968297 -0.2498 0
    outer loop
      vertex 28.4 13.406 -5
      vertex 28.4 13.406 5
      vertex 28.109 14.534 -5
    endloop
  endfacet
  facet normal -0.968297 -0.2498 0
    outer loop
      vertex 28.109 14.534 -5
      vertex 28.4 13.406 5
      vertex 28.109 14.534 5
    endloop
  endfacet
  facet normal -0.998583 -0.0532183 0
    outer loop
      vertex 28.472 12.055 -5
      vertex 28.472 12.055 5
      vertex 28.4 13.406 -5
    endloop
  endfacet
  facet normal -0.998583 -0.0532183 0
    outer loop
      vertex 28.4 13.406 -5
      vertex 28.472 12.055 5
      vertex 28.4 13.406 5
    endloop
  endfacet
  facet normal -0.994413 0.105556 0
    outer loop
      vertex 28.327 10.689 5
      vertex 28.472 12.055 5
      vertex 28.327 10.689 -5
    endloop
  endfacet
  facet normal -0.994413 0.105556 0
    outer loop
      vertex 28.327 10.689 -5
      vertex 28.472 12.055 5
      vertex 28.472 12.055 -5
    endloop
  endfacet
  facet normal -0.956792 0.290774 0
    outer loop
      vertex 27.969 9.511 5
      vertex 28.327 10.689 5
      vertex 27.969 9.511 -5
    endloop
  endfacet
  facet normal -0.956792 0.290774 0
    outer loop
      vertex 27.969 9.511 -5
      vertex 28.327 10.689 5
      vertex 28.327 10.689 -5
    endloop
  endfacet
  facet normal -0.822351 0.568981 0
    outer loop
      vertex 26.808 7.833 5
      vertex 27.969 9.511 5
      vertex 26.808 7.833 -5
    endloop
  endfacet
  facet normal -0.822351 0.568981 0
    outer loop
      vertex 26.808 7.833 -5
      vertex 27.969 9.511 5
      vertex 27.969 9.511 -5
    endloop
  endfacet
  facet normal -0.616418 0.787419 0
    outer loop
      vertex 25.072 6.474 5
      vertex 26.808 7.833 5
      vertex 25.072 6.474 -5
    endloop
  endfacet
  facet normal -0.616418 0.787419 0
    outer loop
      vertex 25.072 6.474 -5
      vertex 26.808 7.833 5
      vertex 26.808 7.833 -5
    endloop
  endfacet
  facet normal -0.422589 0.906321 0
    outer loop
      vertex 22.893 5.458 5
      vertex 25.072 6.474 5
      vertex 22.893 5.458 -5
    endloop
  endfacet
  facet normal -0.422589 0.906321 0
    outer loop
      vertex 22.893 5.458 -5
      vertex 25.072 6.474 5
      vertex 25.072 6.474 -5
    endloop
  endfacet
  facet normal -0.252596 0.967572 0
    outer loop
      vertex 20.407 4.809 5
      vertex 22.893 5.458 5
      vertex 20.407 4.809 -5
    endloop
  endfacet
  facet normal -0.252596 0.967572 0
    outer loop
      vertex 20.407 4.809 -5
      vertex 22.893 5.458 5
      vertex 22.893 5.458 -5
    endloop
  endfacet
  facet normal -0.0969462 0.99529 0
    outer loop
      vertex 17.748 4.55 5
      vertex 20.407 4.809 5
      vertex 17.748 4.55 -5
    endloop
  endfacet
  facet normal -0.0969462 0.99529 0
    outer loop
      vertex 17.748 4.55 -5
      vertex 20.407 4.809 5
      vertex 20.407 4.809 -5
    endloop
  endfacet
  facet normal 0.0577242 0.998333 0
    outer loop
      vertex 15.05 4.706 5
      vertex 17.748 4.55 5
      vertex 15.05 4.706 -5
    endloop
  endfacet
  facet normal 0.0577242 0.998333 0
    outer loop
      vertex 15.05 4.706 -5
      vertex 17.748 4.55 5
      vertex 17.748 4.55 -5
    endloop
  endfacet
  facet normal 0.222042 0.975037 0
    outer loop
      vertex 12.446 5.299 5
      vertex 15.05 4.706 5
      vertex 12.446 5.299 -5
    endloop
  endfacet
  facet normal 0.222042 0.975037 0
    outer loop
      vertex 12.446 5.299 -5
      vertex 15.05 4.706 5
      vertex 15.05 4.706 -5
    endloop
  endfacet
  facet normal 0.405244 0.914209 0
    outer loop
      vertex 10.075 6.35 5
      vertex 12.446 5.299 5
      vertex 10.075 6.35 -5
    endloop
  endfacet
  facet normal 0.405244 0.914209 0
    outer loop
      vertex 10.075 6.35 -5
      vertex 12.446 5.299 5
      vertex 12.446 5.299 -5
    endloop
  endfacet
  facet normal 0.612956 0.790117 0
    outer loop
      vertex 8.407 7.644 5
      vertex 10.075 6.35 5
      vertex 8.407 7.644 -5
    endloop
  endfacet
  facet normal 0.612956 0.790117 0
    outer loop
      vertex 8.407 7.644 -5
      vertex 10.075 6.35 5
      vertex 10.075 6.35 -5
    endloop
  endfacet
  facet normal 0.77564 0.631176 0
    outer loop
      vertex 7.022 9.346 -5
      vertex 7.022 9.346 5
      vertex 8.407 7.644 5
    endloop
  endfacet
  facet normal 0.77564 0.631176 0
    outer loop
      vertex 8.407 7.644 -5
      vertex 7.022 9.346 -5
      vertex 8.407 7.644 5
    endloop
  endfacet
  facet normal 0.889477 0.456979 0
    outer loop
      vertex 6.014 11.308 -5
      vertex 6.014 11.308 5
      vertex 7.022 9.346 5
    endloop
  endfacet
  facet normal 0.889477 0.456979 0
    outer loop
      vertex 7.022 9.346 -5
      vertex 6.014 11.308 -5
      vertex 7.022 9.346 5
    endloop
  endfacet
  facet normal 0.967731 0.251984 0
    outer loop
      vertex 5.475 13.378 -5
      vertex 5.475 13.378 5
      vertex 6.014 11.308 5
    endloop
  endfacet
  facet normal 0.967731 0.251984 0
    outer loop
      vertex 6.014 11.308 -5
      vertex 5.475 13.378 -5
      vertex 6.014 11.308 5
    endloop
  endfacet
  facet normal 0.989596 0.143875 0
    outer loop
      vertex 5.278 14.733 -5
      vertex 5.278 14.733 5
      vertex 5.475 13.378 5
    endloop
  endfacet
  facet normal 0.989596 0.143875 0
    outer loop
      vertex 5.475 13.378 -5
      vertex 5.278 14.733 -5
      vertex 5.475 13.378 5
    endloop
  endfacet
  facet normal 0 1 0
    outer loop
      vertex 0 14.733 5
      vertex 5.278 14.733 5
      vertex 0 14.733 -5
    endloop
  endfacet
  facet normal 0 1 0
    outer loop
      vertex 0 14.733 -5
      vertex 5.278 14.733 5
      vertex 5.278 14.733 -5
    endloop
  endfacet
endsolid OpenSCAD_Model
